G75*
%MOIN*%
%OFA0B0*%
%FSLAX25Y25*%
%IPPOS*%
%LPD*%
%AMOC8*
5,1,8,0,0,1.08239X$1,22.5*
%
%ADD10C,0.00000*%
%ADD11OC8,0.15000*%
%ADD12C,0.25500*%
%ADD13OC8,0.16400*%
%ADD14OC8,0.05200*%
%ADD15C,0.01600*%
D10*
X0004333Y0003250D02*
X0004333Y0108211D01*
X0195534Y0108211D01*
X0195534Y0003250D01*
X0004333Y0003250D01*
D11*
X0092333Y0034250D03*
X0092333Y0077250D03*
D12*
X0039833Y0055750D03*
X0158833Y0055750D03*
D13*
X0184333Y0055750D03*
X0184333Y0013250D03*
X0014333Y0013250D03*
X0014333Y0093250D03*
D14*
X0029333Y0093250D03*
X0049333Y0093250D03*
X0149333Y0093250D03*
X0169333Y0093250D03*
X0169333Y0013250D03*
X0139333Y0013250D03*
X0059333Y0013250D03*
X0029333Y0013250D03*
D15*
X0032484Y0016038D02*
X0056181Y0016038D01*
X0055133Y0014990D02*
X0055133Y0011510D01*
X0057593Y0009050D01*
X0061073Y0009050D01*
X0063533Y0011510D01*
X0063533Y0014990D01*
X0061073Y0017450D01*
X0057593Y0017450D01*
X0055133Y0014990D01*
X0055133Y0014440D02*
X0033533Y0014440D01*
X0033533Y0014990D02*
X0031073Y0017450D01*
X0027593Y0017450D01*
X0025133Y0014990D01*
X0025133Y0011510D01*
X0027593Y0009050D01*
X0031073Y0009050D01*
X0033533Y0011510D01*
X0033533Y0014990D01*
X0033533Y0012841D02*
X0055133Y0012841D01*
X0055401Y0011243D02*
X0033265Y0011243D01*
X0031667Y0009644D02*
X0056999Y0009644D01*
X0061667Y0009644D02*
X0099333Y0009644D01*
X0099333Y0008050D02*
X0022992Y0008050D01*
X0024133Y0009191D01*
X0024133Y0017309D01*
X0018392Y0023050D01*
X0010274Y0023050D01*
X0009133Y0021909D01*
X0009133Y0084308D01*
X0010191Y0083250D01*
X0013558Y0083250D01*
X0013558Y0092475D01*
X0015108Y0092475D01*
X0015108Y0094025D01*
X0024333Y0094025D01*
X0024333Y0097392D01*
X0018475Y0103250D01*
X0015108Y0103250D01*
X0015108Y0094025D01*
X0013558Y0094025D01*
X0013558Y0103250D01*
X0010191Y0103250D01*
X0009133Y0102192D01*
X0009133Y0103411D01*
X0079333Y0103411D01*
X0079333Y0053250D01*
X0099333Y0053250D01*
X0099333Y0040402D01*
X0096185Y0043550D01*
X0092708Y0043550D01*
X0092708Y0034625D01*
X0091958Y0034625D01*
X0091958Y0043550D01*
X0088481Y0043550D01*
X0083033Y0038102D01*
X0083033Y0034625D01*
X0091958Y0034625D01*
X0091958Y0033875D01*
X0092708Y0033875D01*
X0092708Y0024950D01*
X0096185Y0024950D01*
X0099333Y0028098D01*
X0099333Y0008050D01*
X0099333Y0011243D02*
X0063265Y0011243D01*
X0063533Y0012841D02*
X0099333Y0012841D01*
X0099333Y0014440D02*
X0063533Y0014440D01*
X0062484Y0016038D02*
X0099333Y0016038D01*
X0099333Y0017637D02*
X0023805Y0017637D01*
X0022207Y0019235D02*
X0099333Y0019235D01*
X0099333Y0020834D02*
X0020608Y0020834D01*
X0019010Y0022432D02*
X0099333Y0022432D01*
X0099333Y0024031D02*
X0009133Y0024031D01*
X0009133Y0022432D02*
X0009656Y0022432D01*
X0009133Y0025629D02*
X0087801Y0025629D01*
X0088481Y0024950D02*
X0091958Y0024950D01*
X0091958Y0033875D01*
X0083033Y0033875D01*
X0083033Y0030398D01*
X0088481Y0024950D01*
X0091958Y0025629D02*
X0092708Y0025629D01*
X0092708Y0027228D02*
X0091958Y0027228D01*
X0091958Y0028826D02*
X0092708Y0028826D01*
X0092708Y0030425D02*
X0091958Y0030425D01*
X0091958Y0032023D02*
X0092708Y0032023D01*
X0092708Y0033622D02*
X0091958Y0033622D01*
X0091958Y0035220D02*
X0092708Y0035220D01*
X0092708Y0036819D02*
X0091958Y0036819D01*
X0091958Y0038417D02*
X0092708Y0038417D01*
X0092708Y0040016D02*
X0091958Y0040016D01*
X0091958Y0041614D02*
X0092708Y0041614D01*
X0092708Y0043213D02*
X0091958Y0043213D01*
X0088143Y0043213D02*
X0046818Y0043213D01*
X0045372Y0042378D02*
X0048644Y0044267D01*
X0051316Y0046939D01*
X0053205Y0050211D01*
X0054183Y0053861D01*
X0054183Y0057639D01*
X0053205Y0061289D01*
X0051316Y0064561D01*
X0048644Y0067233D01*
X0045372Y0069122D01*
X0041722Y0070100D01*
X0037944Y0070100D01*
X0034294Y0069122D01*
X0031022Y0067233D01*
X0028350Y0064561D01*
X0026461Y0061289D01*
X0025483Y0057639D01*
X0025483Y0053861D01*
X0026461Y0050211D01*
X0028350Y0046939D01*
X0031022Y0044267D01*
X0034294Y0042378D01*
X0037944Y0041400D01*
X0041722Y0041400D01*
X0045372Y0042378D01*
X0042522Y0041614D02*
X0086545Y0041614D01*
X0084946Y0040016D02*
X0009133Y0040016D01*
X0009133Y0041614D02*
X0037144Y0041614D01*
X0032848Y0043213D02*
X0009133Y0043213D01*
X0009133Y0044811D02*
X0030478Y0044811D01*
X0028879Y0046410D02*
X0009133Y0046410D01*
X0009133Y0048008D02*
X0027733Y0048008D01*
X0026810Y0049607D02*
X0009133Y0049607D01*
X0009133Y0051205D02*
X0026194Y0051205D01*
X0025766Y0052804D02*
X0009133Y0052804D01*
X0009133Y0054402D02*
X0025483Y0054402D01*
X0025483Y0056001D02*
X0009133Y0056001D01*
X0009133Y0057599D02*
X0025483Y0057599D01*
X0025900Y0059198D02*
X0009133Y0059198D01*
X0009133Y0060796D02*
X0026329Y0060796D01*
X0027099Y0062395D02*
X0009133Y0062395D01*
X0009133Y0063993D02*
X0028022Y0063993D01*
X0029381Y0065592D02*
X0009133Y0065592D01*
X0009133Y0067190D02*
X0030979Y0067190D01*
X0033717Y0068789D02*
X0009133Y0068789D01*
X0009133Y0070387D02*
X0079333Y0070387D01*
X0079333Y0068789D02*
X0045949Y0068789D01*
X0048686Y0067190D02*
X0079333Y0067190D01*
X0079333Y0065592D02*
X0050285Y0065592D01*
X0051643Y0063993D02*
X0079333Y0063993D01*
X0079333Y0062395D02*
X0052566Y0062395D01*
X0053337Y0060796D02*
X0079333Y0060796D01*
X0079333Y0059198D02*
X0053765Y0059198D01*
X0054183Y0057599D02*
X0079333Y0057599D01*
X0079333Y0056001D02*
X0054183Y0056001D01*
X0054183Y0054402D02*
X0079333Y0054402D01*
X0099333Y0052804D02*
X0053900Y0052804D01*
X0053471Y0051205D02*
X0099333Y0051205D01*
X0099333Y0049607D02*
X0052856Y0049607D01*
X0051933Y0048008D02*
X0099333Y0048008D01*
X0099333Y0046410D02*
X0050787Y0046410D01*
X0049188Y0044811D02*
X0099333Y0044811D01*
X0099333Y0043213D02*
X0096522Y0043213D01*
X0098121Y0041614D02*
X0099333Y0041614D01*
X0104333Y0041614D02*
X0155317Y0041614D01*
X0155293Y0041619D02*
X0156695Y0041340D01*
X0158033Y0041208D01*
X0158033Y0054950D01*
X0159633Y0054950D01*
X0159633Y0056550D01*
X0173374Y0056550D01*
X0173243Y0057887D01*
X0172964Y0059290D01*
X0172549Y0060658D01*
X0172002Y0061978D01*
X0171328Y0063239D01*
X0170534Y0064428D01*
X0169627Y0065533D01*
X0168616Y0066544D01*
X0167511Y0067451D01*
X0166322Y0068245D01*
X0165061Y0068919D01*
X0163740Y0069466D01*
X0162372Y0069881D01*
X0160970Y0070160D01*
X0159633Y0070292D01*
X0159633Y0056550D01*
X0158033Y0056550D01*
X0158033Y0070292D01*
X0156695Y0070160D01*
X0155293Y0069881D01*
X0153925Y0069466D01*
X0152604Y0068919D01*
X0151344Y0068245D01*
X0150155Y0067451D01*
X0149050Y0066544D01*
X0148039Y0065533D01*
X0147132Y0064428D01*
X0146338Y0063239D01*
X0145664Y0061978D01*
X0145117Y0060658D01*
X0144702Y0059290D01*
X0144423Y0057887D01*
X0144291Y0056550D01*
X0158033Y0056550D01*
X0158033Y0054950D01*
X0144291Y0054950D01*
X0144423Y0053612D01*
X0144702Y0052210D01*
X0145117Y0050842D01*
X0145664Y0049522D01*
X0146338Y0048261D01*
X0147132Y0047072D01*
X0148039Y0045967D01*
X0149050Y0044956D01*
X0150155Y0044049D01*
X0151344Y0043255D01*
X0152604Y0042581D01*
X0153925Y0042034D01*
X0155293Y0041619D01*
X0158033Y0041614D02*
X0159633Y0041614D01*
X0159633Y0041208D02*
X0160970Y0041340D01*
X0162372Y0041619D01*
X0163740Y0042034D01*
X0165061Y0042581D01*
X0166322Y0043255D01*
X0167511Y0044049D01*
X0168616Y0044956D01*
X0169627Y0045967D01*
X0170534Y0047072D01*
X0171328Y0048261D01*
X0172002Y0049522D01*
X0172549Y0050842D01*
X0172964Y0052210D01*
X0173243Y0053612D01*
X0173374Y0054950D01*
X0159633Y0054950D01*
X0159633Y0041208D01*
X0162349Y0041614D02*
X0190734Y0041614D01*
X0190734Y0040016D02*
X0104333Y0040016D01*
X0104333Y0038417D02*
X0190734Y0038417D01*
X0190734Y0036819D02*
X0104333Y0036819D01*
X0104333Y0035220D02*
X0190734Y0035220D01*
X0190734Y0033622D02*
X0104333Y0033622D01*
X0104333Y0032023D02*
X0190734Y0032023D01*
X0190734Y0030425D02*
X0104333Y0030425D01*
X0104333Y0028826D02*
X0190734Y0028826D01*
X0190734Y0027228D02*
X0104333Y0027228D01*
X0104333Y0025629D02*
X0190734Y0025629D01*
X0190734Y0024031D02*
X0104333Y0024031D01*
X0104333Y0022432D02*
X0179656Y0022432D01*
X0180274Y0023050D02*
X0174533Y0017309D01*
X0174533Y0009191D01*
X0175674Y0008050D01*
X0104333Y0008050D01*
X0104333Y0053250D01*
X0114333Y0053250D01*
X0114333Y0103411D01*
X0190734Y0103411D01*
X0190734Y0063491D01*
X0188475Y0065750D01*
X0185108Y0065750D01*
X0185108Y0056525D01*
X0183558Y0056525D01*
X0183558Y0065750D01*
X0180191Y0065750D01*
X0174333Y0059892D01*
X0174333Y0056525D01*
X0183558Y0056525D01*
X0183558Y0054975D01*
X0185108Y0054975D01*
X0185108Y0045750D01*
X0188475Y0045750D01*
X0190734Y0048009D01*
X0190734Y0020708D01*
X0188392Y0023050D01*
X0180274Y0023050D01*
X0178057Y0020834D02*
X0104333Y0020834D01*
X0104333Y0019235D02*
X0176459Y0019235D01*
X0174860Y0017637D02*
X0104333Y0017637D01*
X0104333Y0016038D02*
X0136181Y0016038D01*
X0135133Y0014990D02*
X0135133Y0011510D01*
X0137593Y0009050D01*
X0141073Y0009050D01*
X0143533Y0011510D01*
X0143533Y0014990D01*
X0141073Y0017450D01*
X0137593Y0017450D01*
X0135133Y0014990D01*
X0135133Y0014440D02*
X0104333Y0014440D01*
X0104333Y0012841D02*
X0135133Y0012841D01*
X0135401Y0011243D02*
X0104333Y0011243D01*
X0104333Y0009644D02*
X0136999Y0009644D01*
X0141667Y0009644D02*
X0166999Y0009644D01*
X0167593Y0009050D02*
X0171073Y0009050D01*
X0173533Y0011510D01*
X0173533Y0014990D01*
X0171073Y0017450D01*
X0167593Y0017450D01*
X0165133Y0014990D01*
X0165133Y0011510D01*
X0167593Y0009050D01*
X0165401Y0011243D02*
X0143265Y0011243D01*
X0143533Y0012841D02*
X0165133Y0012841D01*
X0165133Y0014440D02*
X0143533Y0014440D01*
X0142484Y0016038D02*
X0166181Y0016038D01*
X0172484Y0016038D02*
X0174533Y0016038D01*
X0174533Y0014440D02*
X0173533Y0014440D01*
X0173533Y0012841D02*
X0174533Y0012841D01*
X0174533Y0011243D02*
X0173265Y0011243D01*
X0174533Y0009644D02*
X0171667Y0009644D01*
X0190608Y0020834D02*
X0190734Y0020834D01*
X0190734Y0022432D02*
X0189010Y0022432D01*
X0190734Y0043213D02*
X0166243Y0043213D01*
X0168439Y0044811D02*
X0190734Y0044811D01*
X0190734Y0046410D02*
X0189135Y0046410D01*
X0190733Y0048008D02*
X0190734Y0048008D01*
X0185108Y0048008D02*
X0183558Y0048008D01*
X0183558Y0046410D02*
X0185108Y0046410D01*
X0183558Y0045750D02*
X0183558Y0054975D01*
X0174333Y0054975D01*
X0174333Y0051608D01*
X0180191Y0045750D01*
X0183558Y0045750D01*
X0179531Y0046410D02*
X0169990Y0046410D01*
X0171159Y0048008D02*
X0177932Y0048008D01*
X0176334Y0049607D02*
X0172037Y0049607D01*
X0172659Y0051205D02*
X0174735Y0051205D01*
X0174333Y0052804D02*
X0173082Y0052804D01*
X0173320Y0054402D02*
X0174333Y0054402D01*
X0174333Y0057599D02*
X0173271Y0057599D01*
X0172982Y0059198D02*
X0174333Y0059198D01*
X0175237Y0060796D02*
X0172491Y0060796D01*
X0171779Y0062395D02*
X0176836Y0062395D01*
X0178434Y0063993D02*
X0170824Y0063993D01*
X0169568Y0065592D02*
X0180033Y0065592D01*
X0183558Y0065592D02*
X0185108Y0065592D01*
X0185108Y0063993D02*
X0183558Y0063993D01*
X0183558Y0062395D02*
X0185108Y0062395D01*
X0185108Y0060796D02*
X0183558Y0060796D01*
X0183558Y0059198D02*
X0185108Y0059198D01*
X0185108Y0057599D02*
X0183558Y0057599D01*
X0183558Y0056001D02*
X0159633Y0056001D01*
X0159633Y0054402D02*
X0158033Y0054402D01*
X0158033Y0056001D02*
X0114333Y0056001D01*
X0114333Y0054402D02*
X0144345Y0054402D01*
X0144584Y0052804D02*
X0104333Y0052804D01*
X0104333Y0051205D02*
X0145007Y0051205D01*
X0145629Y0049607D02*
X0104333Y0049607D01*
X0104333Y0048008D02*
X0146506Y0048008D01*
X0147676Y0046410D02*
X0104333Y0046410D01*
X0104333Y0044811D02*
X0149226Y0044811D01*
X0151423Y0043213D02*
X0104333Y0043213D01*
X0083348Y0038417D02*
X0009133Y0038417D01*
X0009133Y0036819D02*
X0083033Y0036819D01*
X0083033Y0035220D02*
X0009133Y0035220D01*
X0009133Y0033622D02*
X0083033Y0033622D01*
X0083033Y0032023D02*
X0009133Y0032023D01*
X0009133Y0030425D02*
X0083033Y0030425D01*
X0084604Y0028826D02*
X0009133Y0028826D01*
X0009133Y0027228D02*
X0086203Y0027228D01*
X0096864Y0025629D02*
X0099333Y0025629D01*
X0099333Y0027228D02*
X0098463Y0027228D01*
X0114333Y0057599D02*
X0144395Y0057599D01*
X0144684Y0059198D02*
X0114333Y0059198D01*
X0114333Y0060796D02*
X0145174Y0060796D01*
X0145887Y0062395D02*
X0114333Y0062395D01*
X0114333Y0063993D02*
X0146842Y0063993D01*
X0148098Y0065592D02*
X0114333Y0065592D01*
X0114333Y0067190D02*
X0149838Y0067190D01*
X0152361Y0068789D02*
X0114333Y0068789D01*
X0114333Y0070387D02*
X0190734Y0070387D01*
X0190734Y0068789D02*
X0165304Y0068789D01*
X0167828Y0067190D02*
X0190734Y0067190D01*
X0190734Y0065592D02*
X0188633Y0065592D01*
X0190231Y0063993D02*
X0190734Y0063993D01*
X0190734Y0071986D02*
X0114333Y0071986D01*
X0114333Y0073584D02*
X0190734Y0073584D01*
X0190734Y0075183D02*
X0114333Y0075183D01*
X0114333Y0076782D02*
X0190734Y0076782D01*
X0190734Y0078380D02*
X0114333Y0078380D01*
X0114333Y0079979D02*
X0190734Y0079979D01*
X0190734Y0081577D02*
X0114333Y0081577D01*
X0114333Y0083176D02*
X0190734Y0083176D01*
X0190734Y0084774D02*
X0114333Y0084774D01*
X0114333Y0086373D02*
X0190734Y0086373D01*
X0190734Y0087971D02*
X0114333Y0087971D01*
X0114333Y0089570D02*
X0146791Y0089570D01*
X0147510Y0088850D02*
X0149333Y0088850D01*
X0151155Y0088850D01*
X0153733Y0091427D01*
X0153733Y0093250D01*
X0153733Y0095073D01*
X0151155Y0097650D01*
X0149333Y0097650D01*
X0149333Y0093250D01*
X0153733Y0093250D01*
X0149333Y0093250D01*
X0149333Y0093250D01*
X0149333Y0093250D01*
X0149333Y0088850D01*
X0149333Y0093250D01*
X0149333Y0093250D01*
X0149333Y0097650D01*
X0147510Y0097650D01*
X0144933Y0095073D01*
X0144933Y0093250D01*
X0144933Y0091427D01*
X0147510Y0088850D01*
X0149333Y0089570D02*
X0149333Y0089570D01*
X0149333Y0091168D02*
X0149333Y0091168D01*
X0149333Y0092767D02*
X0149333Y0092767D01*
X0149333Y0093250D02*
X0144933Y0093250D01*
X0149333Y0093250D01*
X0149333Y0093250D01*
X0149333Y0094365D02*
X0149333Y0094365D01*
X0149333Y0095964D02*
X0149333Y0095964D01*
X0149333Y0097562D02*
X0149333Y0097562D01*
X0151243Y0097562D02*
X0190734Y0097562D01*
X0190734Y0095964D02*
X0172559Y0095964D01*
X0173533Y0094990D02*
X0171073Y0097450D01*
X0167593Y0097450D01*
X0165133Y0094990D01*
X0165133Y0091510D01*
X0167593Y0089050D01*
X0171073Y0089050D01*
X0173533Y0091510D01*
X0173533Y0094990D01*
X0173533Y0094365D02*
X0190734Y0094365D01*
X0190734Y0092767D02*
X0173533Y0092767D01*
X0173191Y0091168D02*
X0190734Y0091168D01*
X0190734Y0089570D02*
X0171592Y0089570D01*
X0167073Y0089570D02*
X0151875Y0089570D01*
X0153473Y0091168D02*
X0165475Y0091168D01*
X0165133Y0092767D02*
X0153733Y0092767D01*
X0153733Y0094365D02*
X0165133Y0094365D01*
X0166107Y0095964D02*
X0152842Y0095964D01*
X0147422Y0097562D02*
X0114333Y0097562D01*
X0114333Y0095964D02*
X0145824Y0095964D01*
X0144933Y0094365D02*
X0114333Y0094365D01*
X0114333Y0092767D02*
X0144933Y0092767D01*
X0145192Y0091168D02*
X0114333Y0091168D01*
X0114333Y0099161D02*
X0190734Y0099161D01*
X0190734Y0100759D02*
X0114333Y0100759D01*
X0114333Y0102358D02*
X0190734Y0102358D01*
X0159633Y0068789D02*
X0158033Y0068789D01*
X0158033Y0067190D02*
X0159633Y0067190D01*
X0159633Y0065592D02*
X0158033Y0065592D01*
X0158033Y0063993D02*
X0159633Y0063993D01*
X0159633Y0062395D02*
X0158033Y0062395D01*
X0158033Y0060796D02*
X0159633Y0060796D01*
X0159633Y0059198D02*
X0158033Y0059198D01*
X0158033Y0057599D02*
X0159633Y0057599D01*
X0159633Y0052804D02*
X0158033Y0052804D01*
X0158033Y0051205D02*
X0159633Y0051205D01*
X0159633Y0049607D02*
X0158033Y0049607D01*
X0158033Y0048008D02*
X0159633Y0048008D01*
X0159633Y0046410D02*
X0158033Y0046410D01*
X0158033Y0044811D02*
X0159633Y0044811D01*
X0159633Y0043213D02*
X0158033Y0043213D01*
X0183558Y0049607D02*
X0185108Y0049607D01*
X0185108Y0051205D02*
X0183558Y0051205D01*
X0183558Y0052804D02*
X0185108Y0052804D01*
X0185108Y0054402D02*
X0183558Y0054402D01*
X0079333Y0071986D02*
X0009133Y0071986D01*
X0009133Y0073584D02*
X0079333Y0073584D01*
X0079333Y0075183D02*
X0009133Y0075183D01*
X0009133Y0076782D02*
X0079333Y0076782D01*
X0079333Y0078380D02*
X0009133Y0078380D01*
X0009133Y0079979D02*
X0079333Y0079979D01*
X0079333Y0081577D02*
X0009133Y0081577D01*
X0009133Y0083176D02*
X0079333Y0083176D01*
X0079333Y0084774D02*
X0019999Y0084774D01*
X0021598Y0086373D02*
X0079333Y0086373D01*
X0079333Y0087971D02*
X0023196Y0087971D01*
X0024333Y0089108D02*
X0024333Y0092475D01*
X0015108Y0092475D01*
X0015108Y0083250D01*
X0018475Y0083250D01*
X0024333Y0089108D01*
X0024333Y0089570D02*
X0026791Y0089570D01*
X0027510Y0088850D02*
X0029333Y0088850D01*
X0031155Y0088850D01*
X0033733Y0091427D01*
X0033733Y0093250D01*
X0033733Y0095073D01*
X0031155Y0097650D01*
X0029333Y0097650D01*
X0029333Y0093250D01*
X0033733Y0093250D01*
X0029333Y0093250D01*
X0029333Y0093250D01*
X0029333Y0093250D01*
X0029333Y0088850D01*
X0029333Y0093250D01*
X0029333Y0093250D01*
X0029333Y0097650D01*
X0027510Y0097650D01*
X0024933Y0095073D01*
X0024933Y0093250D01*
X0024933Y0091427D01*
X0027510Y0088850D01*
X0029333Y0089570D02*
X0029333Y0089570D01*
X0029333Y0091168D02*
X0029333Y0091168D01*
X0029333Y0092767D02*
X0029333Y0092767D01*
X0029333Y0093250D02*
X0024933Y0093250D01*
X0029333Y0093250D01*
X0029333Y0093250D01*
X0029333Y0094365D02*
X0029333Y0094365D01*
X0029333Y0095964D02*
X0029333Y0095964D01*
X0029333Y0097562D02*
X0029333Y0097562D01*
X0031243Y0097562D02*
X0079333Y0097562D01*
X0079333Y0095964D02*
X0052559Y0095964D01*
X0053533Y0094990D02*
X0051073Y0097450D01*
X0047593Y0097450D01*
X0045133Y0094990D01*
X0045133Y0091510D01*
X0047593Y0089050D01*
X0051073Y0089050D01*
X0053533Y0091510D01*
X0053533Y0094990D01*
X0053533Y0094365D02*
X0079333Y0094365D01*
X0079333Y0092767D02*
X0053533Y0092767D01*
X0053191Y0091168D02*
X0079333Y0091168D01*
X0079333Y0089570D02*
X0051592Y0089570D01*
X0047073Y0089570D02*
X0031875Y0089570D01*
X0033473Y0091168D02*
X0045475Y0091168D01*
X0045133Y0092767D02*
X0033733Y0092767D01*
X0033733Y0094365D02*
X0045133Y0094365D01*
X0046107Y0095964D02*
X0032842Y0095964D01*
X0027422Y0097562D02*
X0024163Y0097562D01*
X0024333Y0095964D02*
X0025824Y0095964D01*
X0024933Y0094365D02*
X0024333Y0094365D01*
X0024933Y0092767D02*
X0015108Y0092767D01*
X0015108Y0094365D02*
X0013558Y0094365D01*
X0013558Y0095964D02*
X0015108Y0095964D01*
X0015108Y0097562D02*
X0013558Y0097562D01*
X0013558Y0099161D02*
X0015108Y0099161D01*
X0015108Y0100759D02*
X0013558Y0100759D01*
X0013558Y0102358D02*
X0015108Y0102358D01*
X0019367Y0102358D02*
X0079333Y0102358D01*
X0079333Y0100759D02*
X0020966Y0100759D01*
X0022564Y0099161D02*
X0079333Y0099161D01*
X0025192Y0091168D02*
X0024333Y0091168D01*
X0015108Y0091168D02*
X0013558Y0091168D01*
X0013558Y0089570D02*
X0015108Y0089570D01*
X0015108Y0087971D02*
X0013558Y0087971D01*
X0013558Y0086373D02*
X0015108Y0086373D01*
X0015108Y0084774D02*
X0013558Y0084774D01*
X0009298Y0102358D02*
X0009133Y0102358D01*
X0024133Y0016038D02*
X0026181Y0016038D01*
X0025133Y0014440D02*
X0024133Y0014440D01*
X0024133Y0012841D02*
X0025133Y0012841D01*
X0025401Y0011243D02*
X0024133Y0011243D01*
X0024133Y0009644D02*
X0026999Y0009644D01*
M02*
