G75*
%MOIN*%
%OFA0B0*%
%FSLAX25Y25*%
%IPPOS*%
%LPD*%
%AMOC8*
5,1,8,0,0,1.08239X$1,22.5*
%
%ADD10C,0.00000*%
%ADD11OC8,0.16400*%
%ADD12OC8,0.05200*%
%ADD13C,0.06000*%
%ADD14C,0.01600*%
D10*
X0003000Y0003125D02*
X0003000Y0078086D01*
X0124201Y0078086D01*
X0124201Y0003125D01*
X0003000Y0003125D01*
X0080500Y0028125D02*
X0080502Y0028286D01*
X0080508Y0028446D01*
X0080518Y0028607D01*
X0080532Y0028767D01*
X0080550Y0028927D01*
X0080571Y0029086D01*
X0080597Y0029245D01*
X0080627Y0029403D01*
X0080660Y0029560D01*
X0080698Y0029717D01*
X0080739Y0029872D01*
X0080784Y0030026D01*
X0080833Y0030179D01*
X0080886Y0030331D01*
X0080942Y0030482D01*
X0081003Y0030631D01*
X0081066Y0030779D01*
X0081134Y0030925D01*
X0081205Y0031069D01*
X0081279Y0031211D01*
X0081357Y0031352D01*
X0081439Y0031490D01*
X0081524Y0031627D01*
X0081612Y0031761D01*
X0081704Y0031893D01*
X0081799Y0032023D01*
X0081897Y0032151D01*
X0081998Y0032276D01*
X0082102Y0032398D01*
X0082209Y0032518D01*
X0082319Y0032635D01*
X0082432Y0032750D01*
X0082548Y0032861D01*
X0082667Y0032970D01*
X0082788Y0033075D01*
X0082912Y0033178D01*
X0083038Y0033278D01*
X0083166Y0033374D01*
X0083297Y0033467D01*
X0083431Y0033557D01*
X0083566Y0033644D01*
X0083704Y0033727D01*
X0083843Y0033807D01*
X0083985Y0033883D01*
X0084128Y0033956D01*
X0084273Y0034025D01*
X0084420Y0034091D01*
X0084568Y0034153D01*
X0084718Y0034211D01*
X0084869Y0034266D01*
X0085022Y0034317D01*
X0085176Y0034364D01*
X0085331Y0034407D01*
X0085487Y0034446D01*
X0085643Y0034482D01*
X0085801Y0034513D01*
X0085959Y0034541D01*
X0086118Y0034565D01*
X0086278Y0034585D01*
X0086438Y0034601D01*
X0086598Y0034613D01*
X0086759Y0034621D01*
X0086920Y0034625D01*
X0087080Y0034625D01*
X0087241Y0034621D01*
X0087402Y0034613D01*
X0087562Y0034601D01*
X0087722Y0034585D01*
X0087882Y0034565D01*
X0088041Y0034541D01*
X0088199Y0034513D01*
X0088357Y0034482D01*
X0088513Y0034446D01*
X0088669Y0034407D01*
X0088824Y0034364D01*
X0088978Y0034317D01*
X0089131Y0034266D01*
X0089282Y0034211D01*
X0089432Y0034153D01*
X0089580Y0034091D01*
X0089727Y0034025D01*
X0089872Y0033956D01*
X0090015Y0033883D01*
X0090157Y0033807D01*
X0090296Y0033727D01*
X0090434Y0033644D01*
X0090569Y0033557D01*
X0090703Y0033467D01*
X0090834Y0033374D01*
X0090962Y0033278D01*
X0091088Y0033178D01*
X0091212Y0033075D01*
X0091333Y0032970D01*
X0091452Y0032861D01*
X0091568Y0032750D01*
X0091681Y0032635D01*
X0091791Y0032518D01*
X0091898Y0032398D01*
X0092002Y0032276D01*
X0092103Y0032151D01*
X0092201Y0032023D01*
X0092296Y0031893D01*
X0092388Y0031761D01*
X0092476Y0031627D01*
X0092561Y0031490D01*
X0092643Y0031352D01*
X0092721Y0031211D01*
X0092795Y0031069D01*
X0092866Y0030925D01*
X0092934Y0030779D01*
X0092997Y0030631D01*
X0093058Y0030482D01*
X0093114Y0030331D01*
X0093167Y0030179D01*
X0093216Y0030026D01*
X0093261Y0029872D01*
X0093302Y0029717D01*
X0093340Y0029560D01*
X0093373Y0029403D01*
X0093403Y0029245D01*
X0093429Y0029086D01*
X0093450Y0028927D01*
X0093468Y0028767D01*
X0093482Y0028607D01*
X0093492Y0028446D01*
X0093498Y0028286D01*
X0093500Y0028125D01*
X0093498Y0027964D01*
X0093492Y0027804D01*
X0093482Y0027643D01*
X0093468Y0027483D01*
X0093450Y0027323D01*
X0093429Y0027164D01*
X0093403Y0027005D01*
X0093373Y0026847D01*
X0093340Y0026690D01*
X0093302Y0026533D01*
X0093261Y0026378D01*
X0093216Y0026224D01*
X0093167Y0026071D01*
X0093114Y0025919D01*
X0093058Y0025768D01*
X0092997Y0025619D01*
X0092934Y0025471D01*
X0092866Y0025325D01*
X0092795Y0025181D01*
X0092721Y0025039D01*
X0092643Y0024898D01*
X0092561Y0024760D01*
X0092476Y0024623D01*
X0092388Y0024489D01*
X0092296Y0024357D01*
X0092201Y0024227D01*
X0092103Y0024099D01*
X0092002Y0023974D01*
X0091898Y0023852D01*
X0091791Y0023732D01*
X0091681Y0023615D01*
X0091568Y0023500D01*
X0091452Y0023389D01*
X0091333Y0023280D01*
X0091212Y0023175D01*
X0091088Y0023072D01*
X0090962Y0022972D01*
X0090834Y0022876D01*
X0090703Y0022783D01*
X0090569Y0022693D01*
X0090434Y0022606D01*
X0090296Y0022523D01*
X0090157Y0022443D01*
X0090015Y0022367D01*
X0089872Y0022294D01*
X0089727Y0022225D01*
X0089580Y0022159D01*
X0089432Y0022097D01*
X0089282Y0022039D01*
X0089131Y0021984D01*
X0088978Y0021933D01*
X0088824Y0021886D01*
X0088669Y0021843D01*
X0088513Y0021804D01*
X0088357Y0021768D01*
X0088199Y0021737D01*
X0088041Y0021709D01*
X0087882Y0021685D01*
X0087722Y0021665D01*
X0087562Y0021649D01*
X0087402Y0021637D01*
X0087241Y0021629D01*
X0087080Y0021625D01*
X0086920Y0021625D01*
X0086759Y0021629D01*
X0086598Y0021637D01*
X0086438Y0021649D01*
X0086278Y0021665D01*
X0086118Y0021685D01*
X0085959Y0021709D01*
X0085801Y0021737D01*
X0085643Y0021768D01*
X0085487Y0021804D01*
X0085331Y0021843D01*
X0085176Y0021886D01*
X0085022Y0021933D01*
X0084869Y0021984D01*
X0084718Y0022039D01*
X0084568Y0022097D01*
X0084420Y0022159D01*
X0084273Y0022225D01*
X0084128Y0022294D01*
X0083985Y0022367D01*
X0083843Y0022443D01*
X0083704Y0022523D01*
X0083566Y0022606D01*
X0083431Y0022693D01*
X0083297Y0022783D01*
X0083166Y0022876D01*
X0083038Y0022972D01*
X0082912Y0023072D01*
X0082788Y0023175D01*
X0082667Y0023280D01*
X0082548Y0023389D01*
X0082432Y0023500D01*
X0082319Y0023615D01*
X0082209Y0023732D01*
X0082102Y0023852D01*
X0081998Y0023974D01*
X0081897Y0024099D01*
X0081799Y0024227D01*
X0081704Y0024357D01*
X0081612Y0024489D01*
X0081524Y0024623D01*
X0081439Y0024760D01*
X0081357Y0024898D01*
X0081279Y0025039D01*
X0081205Y0025181D01*
X0081134Y0025325D01*
X0081066Y0025471D01*
X0081003Y0025619D01*
X0080942Y0025768D01*
X0080886Y0025919D01*
X0080833Y0026071D01*
X0080784Y0026224D01*
X0080739Y0026378D01*
X0080698Y0026533D01*
X0080660Y0026690D01*
X0080627Y0026847D01*
X0080597Y0027005D01*
X0080571Y0027164D01*
X0080550Y0027323D01*
X0080532Y0027483D01*
X0080518Y0027643D01*
X0080508Y0027804D01*
X0080502Y0027964D01*
X0080500Y0028125D01*
D11*
X0113000Y0033125D03*
X0113000Y0013125D03*
X0013000Y0018125D03*
X0013000Y0068125D03*
D12*
X0030500Y0073125D03*
X0053000Y0068125D03*
X0053000Y0055625D03*
X0030500Y0053125D03*
X0093000Y0055625D03*
X0110500Y0053125D03*
X0093000Y0068125D03*
X0110500Y0073125D03*
D13*
X0031000Y0038125D02*
X0025000Y0038125D01*
X0025000Y0028125D02*
X0031000Y0028125D01*
X0031000Y0018125D02*
X0025000Y0018125D01*
D14*
X0023076Y0022307D02*
X0022677Y0022307D01*
X0022794Y0022190D02*
X0017059Y0027925D01*
X0008941Y0027925D01*
X0007800Y0026784D01*
X0007800Y0059183D01*
X0008858Y0058125D01*
X0012225Y0058125D01*
X0012225Y0067350D01*
X0013775Y0067350D01*
X0013775Y0068900D01*
X0023000Y0068900D01*
X0023000Y0072267D01*
X0021981Y0073286D01*
X0026100Y0073286D01*
X0026100Y0073125D01*
X0030500Y0073125D01*
X0034900Y0073125D01*
X0034900Y0073286D01*
X0106300Y0073286D01*
X0106300Y0071385D01*
X0108760Y0068925D01*
X0112240Y0068925D01*
X0114700Y0071385D01*
X0114700Y0073286D01*
X0119401Y0073286D01*
X0119401Y0040583D01*
X0117059Y0042925D01*
X0108941Y0042925D01*
X0106541Y0040525D01*
X0099066Y0040525D01*
X0097622Y0041968D01*
X0093678Y0044246D01*
X0089278Y0045425D01*
X0084722Y0045425D01*
X0080400Y0044267D01*
X0080400Y0068602D01*
X0080035Y0069484D01*
X0079359Y0070160D01*
X0078477Y0070525D01*
X0056540Y0070525D01*
X0054740Y0072325D01*
X0051260Y0072325D01*
X0048800Y0069865D01*
X0048800Y0066385D01*
X0051260Y0063925D01*
X0054740Y0063925D01*
X0056540Y0065725D01*
X0075600Y0065725D01*
X0075600Y0041191D01*
X0073157Y0038747D01*
X0070879Y0034803D01*
X0069733Y0030525D01*
X0034985Y0030525D01*
X0034900Y0030731D01*
X0033606Y0032025D01*
X0031915Y0032725D01*
X0024085Y0032725D01*
X0022394Y0032025D01*
X0021100Y0030731D01*
X0020400Y0029040D01*
X0020400Y0027210D01*
X0021100Y0025519D01*
X0022394Y0024225D01*
X0024085Y0023525D01*
X0031915Y0023525D01*
X0033606Y0024225D01*
X0034900Y0025519D01*
X0034985Y0025725D01*
X0069733Y0025725D01*
X0070879Y0021447D01*
X0073157Y0017503D01*
X0076378Y0014282D01*
X0080322Y0012004D01*
X0084722Y0010825D01*
X0089278Y0010825D01*
X0093678Y0012004D01*
X0097622Y0014282D01*
X0100843Y0017503D01*
X0103121Y0021447D01*
X0104300Y0025847D01*
X0104300Y0027966D01*
X0108941Y0023325D01*
X0117059Y0023325D01*
X0119401Y0025667D01*
X0119401Y0020866D01*
X0117142Y0023125D01*
X0113775Y0023125D01*
X0113775Y0013900D01*
X0112225Y0013900D01*
X0112225Y0023125D01*
X0108858Y0023125D01*
X0103000Y0017267D01*
X0103000Y0013900D01*
X0112225Y0013900D01*
X0112225Y0012350D01*
X0103000Y0012350D01*
X0103000Y0008983D01*
X0104058Y0007925D01*
X0007800Y0007925D01*
X0007800Y0009466D01*
X0008941Y0008325D01*
X0017059Y0008325D01*
X0022794Y0014060D01*
X0024085Y0013525D01*
X0031915Y0013525D01*
X0033606Y0014225D01*
X0034900Y0015519D01*
X0035600Y0017210D01*
X0035600Y0019040D01*
X0034900Y0020731D01*
X0033606Y0022025D01*
X0031915Y0022725D01*
X0024085Y0022725D01*
X0022794Y0022190D01*
X0023166Y0023906D02*
X0021079Y0023906D01*
X0021115Y0025504D02*
X0019480Y0025504D01*
X0020444Y0027103D02*
X0017882Y0027103D01*
X0020400Y0028701D02*
X0007800Y0028701D01*
X0007800Y0027103D02*
X0008118Y0027103D01*
X0007800Y0030300D02*
X0020922Y0030300D01*
X0022268Y0031898D02*
X0007800Y0031898D01*
X0007800Y0033497D02*
X0070529Y0033497D01*
X0070101Y0031898D02*
X0033732Y0031898D01*
X0033606Y0034225D02*
X0031915Y0033525D01*
X0024085Y0033525D01*
X0022394Y0034225D01*
X0021100Y0035519D01*
X0020400Y0037210D01*
X0020400Y0039040D01*
X0021100Y0040731D01*
X0022394Y0042025D01*
X0024085Y0042725D01*
X0031915Y0042725D01*
X0033606Y0042025D01*
X0034900Y0040731D01*
X0035600Y0039040D01*
X0035600Y0037210D01*
X0034900Y0035519D01*
X0033606Y0034225D01*
X0034476Y0035095D02*
X0071048Y0035095D01*
X0071971Y0036694D02*
X0035386Y0036694D01*
X0035600Y0038292D02*
X0072894Y0038292D01*
X0074300Y0039891D02*
X0035248Y0039891D01*
X0034141Y0041489D02*
X0075600Y0041489D01*
X0075600Y0043088D02*
X0007800Y0043088D01*
X0007800Y0044686D02*
X0075600Y0044686D01*
X0075600Y0046285D02*
X0007800Y0046285D01*
X0007800Y0047883D02*
X0075600Y0047883D01*
X0075600Y0049482D02*
X0032797Y0049482D01*
X0032240Y0048925D02*
X0034700Y0051385D01*
X0034700Y0054865D01*
X0032240Y0057325D01*
X0028760Y0057325D01*
X0026300Y0054865D01*
X0026300Y0051385D01*
X0028760Y0048925D01*
X0032240Y0048925D01*
X0034395Y0051080D02*
X0075600Y0051080D01*
X0075600Y0052679D02*
X0055994Y0052679D01*
X0057200Y0053885D02*
X0054740Y0051425D01*
X0051260Y0051425D01*
X0048800Y0053885D01*
X0048800Y0057365D01*
X0051260Y0059825D01*
X0054740Y0059825D01*
X0057200Y0057365D01*
X0057200Y0053885D01*
X0057200Y0054277D02*
X0075600Y0054277D01*
X0075600Y0055876D02*
X0057200Y0055876D01*
X0057090Y0057474D02*
X0075600Y0057474D01*
X0075600Y0059073D02*
X0055492Y0059073D01*
X0050508Y0059073D02*
X0018090Y0059073D01*
X0017142Y0058125D02*
X0023000Y0063983D01*
X0023000Y0067350D01*
X0013775Y0067350D01*
X0013775Y0058125D01*
X0017142Y0058125D01*
X0013775Y0059073D02*
X0012225Y0059073D01*
X0012225Y0060671D02*
X0013775Y0060671D01*
X0013775Y0062270D02*
X0012225Y0062270D01*
X0012225Y0063868D02*
X0013775Y0063868D01*
X0013775Y0065467D02*
X0012225Y0065467D01*
X0012225Y0067065D02*
X0013775Y0067065D01*
X0013775Y0068664D02*
X0048800Y0068664D01*
X0048800Y0067065D02*
X0023000Y0067065D01*
X0023000Y0065467D02*
X0049718Y0065467D01*
X0053000Y0068125D02*
X0078000Y0068125D01*
X0078000Y0038125D01*
X0118000Y0038125D01*
X0113000Y0033125D01*
X0105163Y0027103D02*
X0104300Y0027103D01*
X0104208Y0025504D02*
X0106762Y0025504D01*
X0108360Y0023906D02*
X0103780Y0023906D01*
X0103351Y0022307D02*
X0108040Y0022307D01*
X0106441Y0020709D02*
X0102694Y0020709D01*
X0101772Y0019110D02*
X0104843Y0019110D01*
X0103244Y0017512D02*
X0100849Y0017512D01*
X0099254Y0015913D02*
X0103000Y0015913D01*
X0103000Y0014315D02*
X0097655Y0014315D01*
X0094911Y0012716D02*
X0112225Y0012716D01*
X0112225Y0014315D02*
X0113775Y0014315D01*
X0113775Y0015913D02*
X0112225Y0015913D01*
X0112225Y0017512D02*
X0113775Y0017512D01*
X0113775Y0019110D02*
X0112225Y0019110D01*
X0112225Y0020709D02*
X0113775Y0020709D01*
X0113775Y0022307D02*
X0112225Y0022307D01*
X0117640Y0023906D02*
X0119401Y0023906D01*
X0119401Y0025504D02*
X0119238Y0025504D01*
X0119401Y0022307D02*
X0117960Y0022307D01*
X0103000Y0011118D02*
X0090369Y0011118D01*
X0083631Y0011118D02*
X0019852Y0011118D01*
X0021450Y0012716D02*
X0079089Y0012716D01*
X0076345Y0014315D02*
X0033695Y0014315D01*
X0035063Y0015913D02*
X0074746Y0015913D01*
X0073151Y0017512D02*
X0035600Y0017512D01*
X0035571Y0019110D02*
X0072228Y0019110D01*
X0071306Y0020709D02*
X0034909Y0020709D01*
X0032924Y0022307D02*
X0070649Y0022307D01*
X0070220Y0023906D02*
X0032834Y0023906D01*
X0034885Y0025504D02*
X0069792Y0025504D01*
X0078000Y0028125D02*
X0078000Y0038125D01*
X0080400Y0044686D02*
X0081966Y0044686D01*
X0080400Y0046285D02*
X0119401Y0046285D01*
X0119401Y0047883D02*
X0080400Y0047883D01*
X0080400Y0049482D02*
X0107921Y0049482D01*
X0108677Y0048725D02*
X0106100Y0051302D01*
X0106100Y0053125D01*
X0110500Y0053125D01*
X0110500Y0053125D01*
X0110500Y0057525D01*
X0112323Y0057525D01*
X0114900Y0054948D01*
X0114900Y0053125D01*
X0110500Y0053125D01*
X0110500Y0053125D01*
X0110500Y0053125D01*
X0110500Y0057525D01*
X0108677Y0057525D01*
X0106100Y0054948D01*
X0106100Y0053125D01*
X0110500Y0053125D01*
X0114900Y0053125D01*
X0114900Y0051302D01*
X0112323Y0048725D01*
X0110500Y0048725D01*
X0110500Y0053125D01*
X0110500Y0053125D01*
X0110500Y0048725D01*
X0108677Y0048725D01*
X0110500Y0049482D02*
X0110500Y0049482D01*
X0110500Y0051080D02*
X0110500Y0051080D01*
X0110500Y0052679D02*
X0110500Y0052679D01*
X0110500Y0054277D02*
X0110500Y0054277D01*
X0110500Y0055876D02*
X0110500Y0055876D01*
X0110500Y0057474D02*
X0110500Y0057474D01*
X0108627Y0057474D02*
X0097373Y0057474D01*
X0097400Y0057448D02*
X0094823Y0060025D01*
X0093000Y0060025D01*
X0093000Y0055625D01*
X0097400Y0055625D01*
X0097400Y0057448D01*
X0097400Y0055876D02*
X0107028Y0055876D01*
X0106100Y0054277D02*
X0097400Y0054277D01*
X0097400Y0053802D02*
X0097400Y0055625D01*
X0093000Y0055625D01*
X0093000Y0055625D01*
X0093000Y0055625D01*
X0093000Y0051225D01*
X0094823Y0051225D01*
X0097400Y0053802D01*
X0096276Y0052679D02*
X0106100Y0052679D01*
X0106322Y0051080D02*
X0080400Y0051080D01*
X0080400Y0052679D02*
X0089724Y0052679D01*
X0088600Y0053802D02*
X0091177Y0051225D01*
X0093000Y0051225D01*
X0093000Y0055625D01*
X0093000Y0055625D01*
X0093000Y0055625D01*
X0088600Y0055625D01*
X0088600Y0057448D01*
X0091177Y0060025D01*
X0093000Y0060025D01*
X0093000Y0055625D01*
X0088600Y0055625D01*
X0088600Y0053802D01*
X0088600Y0054277D02*
X0080400Y0054277D01*
X0080400Y0055876D02*
X0088600Y0055876D01*
X0088627Y0057474D02*
X0080400Y0057474D01*
X0080400Y0059073D02*
X0090225Y0059073D01*
X0093000Y0059073D02*
X0093000Y0059073D01*
X0093000Y0057474D02*
X0093000Y0057474D01*
X0093000Y0055876D02*
X0093000Y0055876D01*
X0093000Y0054277D02*
X0093000Y0054277D01*
X0093000Y0052679D02*
X0093000Y0052679D01*
X0095775Y0059073D02*
X0119401Y0059073D01*
X0119401Y0060671D02*
X0080400Y0060671D01*
X0080400Y0062270D02*
X0119401Y0062270D01*
X0119401Y0063868D02*
X0080400Y0063868D01*
X0080400Y0065467D02*
X0089718Y0065467D01*
X0088800Y0066385D02*
X0091260Y0063925D01*
X0094740Y0063925D01*
X0097200Y0066385D01*
X0097200Y0069865D01*
X0094740Y0072325D01*
X0091260Y0072325D01*
X0088800Y0069865D01*
X0088800Y0066385D01*
X0088800Y0067065D02*
X0080400Y0067065D01*
X0080374Y0068664D02*
X0088800Y0068664D01*
X0089198Y0070262D02*
X0079111Y0070262D01*
X0075600Y0065467D02*
X0056282Y0065467D01*
X0049198Y0070262D02*
X0033860Y0070262D01*
X0034900Y0071302D02*
X0032323Y0068725D01*
X0030500Y0068725D01*
X0030500Y0073125D01*
X0030500Y0073125D01*
X0034900Y0073125D01*
X0034900Y0071302D01*
X0034900Y0071861D02*
X0050796Y0071861D01*
X0055204Y0071861D02*
X0090796Y0071861D01*
X0095204Y0071861D02*
X0106300Y0071861D01*
X0107423Y0070262D02*
X0096802Y0070262D01*
X0097200Y0068664D02*
X0119401Y0068664D01*
X0119401Y0070262D02*
X0113577Y0070262D01*
X0114700Y0071861D02*
X0119401Y0071861D01*
X0119401Y0067065D02*
X0097200Y0067065D01*
X0096282Y0065467D02*
X0119401Y0065467D01*
X0119401Y0057474D02*
X0112373Y0057474D01*
X0113972Y0055876D02*
X0119401Y0055876D01*
X0119401Y0054277D02*
X0114900Y0054277D01*
X0114900Y0052679D02*
X0119401Y0052679D01*
X0119401Y0051080D02*
X0114678Y0051080D01*
X0113079Y0049482D02*
X0119401Y0049482D01*
X0119401Y0044686D02*
X0092034Y0044686D01*
X0095684Y0043088D02*
X0119401Y0043088D01*
X0119401Y0041489D02*
X0118495Y0041489D01*
X0107505Y0041489D02*
X0098102Y0041489D01*
X0078000Y0028125D02*
X0028000Y0028125D01*
X0021524Y0035095D02*
X0007800Y0035095D01*
X0007800Y0036694D02*
X0020614Y0036694D01*
X0020400Y0038292D02*
X0007800Y0038292D01*
X0007800Y0039891D02*
X0020752Y0039891D01*
X0021859Y0041489D02*
X0007800Y0041489D01*
X0007800Y0049482D02*
X0028203Y0049482D01*
X0026605Y0051080D02*
X0007800Y0051080D01*
X0007800Y0052679D02*
X0026300Y0052679D01*
X0026300Y0054277D02*
X0007800Y0054277D01*
X0007800Y0055876D02*
X0027311Y0055876D01*
X0033689Y0055876D02*
X0048800Y0055876D01*
X0048800Y0054277D02*
X0034700Y0054277D01*
X0034700Y0052679D02*
X0050006Y0052679D01*
X0048910Y0057474D02*
X0007800Y0057474D01*
X0007800Y0059073D02*
X0007910Y0059073D01*
X0019689Y0060671D02*
X0075600Y0060671D01*
X0075600Y0062270D02*
X0021287Y0062270D01*
X0022886Y0063868D02*
X0075600Y0063868D01*
X0030500Y0068725D02*
X0030500Y0073125D01*
X0030500Y0073125D01*
X0030500Y0073125D01*
X0026100Y0073125D01*
X0026100Y0071302D01*
X0028677Y0068725D01*
X0030500Y0068725D01*
X0030500Y0070262D02*
X0030500Y0070262D01*
X0030500Y0071861D02*
X0030500Y0071861D01*
X0027140Y0070262D02*
X0023000Y0070262D01*
X0023000Y0071861D02*
X0026100Y0071861D01*
X0018253Y0009519D02*
X0103000Y0009519D01*
M02*
