G75*
%MOIN*%
%OFA0B0*%
%FSLAX25Y25*%
%IPPOS*%
%LPD*%
%AMOC8*
5,1,8,0,0,1.08239X$1,22.5*
%
%ADD10C,0.00000*%
%ADD11C,0.00200*%
%ADD12C,0.00800*%
%ADD13C,0.00600*%
%ADD14C,0.01200*%
%ADD15C,0.00500*%
%ADD16R,0.03000X0.22000*%
%ADD17R,0.03500X0.05000*%
%ADD18C,0.00400*%
%ADD19R,0.03000X0.02500*%
%ADD20R,0.05000X0.11000*%
%ADD21C,0.02400*%
%ADD22R,0.03400X0.02400*%
D10*
X0001800Y0001800D02*
X0001800Y0121761D01*
X0083001Y0121761D01*
X0083001Y0001800D01*
X0001800Y0001800D01*
X0014300Y0014300D02*
X0014333Y0014333D01*
X0014367Y0014300D01*
X0014367Y0014400D01*
X0014392Y0014400D02*
X0014425Y0014400D01*
X0014409Y0014400D02*
X0014409Y0014300D01*
X0014425Y0014300D02*
X0014392Y0014300D01*
X0014453Y0014300D02*
X0014453Y0014400D01*
X0014503Y0014400D01*
X0014520Y0014383D01*
X0014520Y0014350D01*
X0014503Y0014333D01*
X0014453Y0014333D01*
X0014487Y0014333D02*
X0014520Y0014300D01*
X0014546Y0014300D02*
X0014612Y0014300D01*
X0014638Y0014300D02*
X0014638Y0014400D01*
X0014688Y0014400D01*
X0014704Y0014383D01*
X0014704Y0014350D01*
X0014688Y0014333D01*
X0014638Y0014333D01*
X0014579Y0014350D02*
X0014546Y0014350D01*
X0014546Y0014400D02*
X0014546Y0014300D01*
X0014546Y0014400D02*
X0014612Y0014400D01*
X0014730Y0014367D02*
X0014763Y0014400D01*
X0014796Y0014367D01*
X0014796Y0014300D01*
X0014822Y0014300D02*
X0014872Y0014300D01*
X0014888Y0014317D01*
X0014888Y0014383D01*
X0014872Y0014400D01*
X0014822Y0014400D01*
X0014822Y0014300D01*
X0014796Y0014350D02*
X0014730Y0014350D01*
X0014730Y0014367D02*
X0014730Y0014300D01*
X0014914Y0014350D02*
X0014981Y0014350D01*
X0014964Y0014300D02*
X0014964Y0014400D01*
X0014914Y0014350D01*
X0015023Y0014317D02*
X0015023Y0014300D01*
X0015039Y0014300D01*
X0015039Y0014317D01*
X0015023Y0014317D01*
X0015039Y0014300D02*
X0015006Y0014267D01*
X0015067Y0014300D02*
X0015134Y0014300D01*
X0015159Y0014317D02*
X0015176Y0014300D01*
X0015209Y0014300D01*
X0015226Y0014317D01*
X0015226Y0014333D01*
X0015209Y0014350D01*
X0015159Y0014350D01*
X0015159Y0014317D01*
X0015159Y0014350D02*
X0015193Y0014383D01*
X0015226Y0014400D01*
X0015251Y0014383D02*
X0015251Y0014317D01*
X0015268Y0014300D01*
X0015301Y0014300D01*
X0015318Y0014317D01*
X0015318Y0014383D01*
X0015301Y0014400D01*
X0015268Y0014400D01*
X0015251Y0014383D01*
X0015344Y0014367D02*
X0015377Y0014400D01*
X0015377Y0014300D01*
X0015344Y0014300D02*
X0015410Y0014300D01*
X0015436Y0014267D02*
X0015469Y0014300D01*
X0015452Y0014300D01*
X0015452Y0014317D01*
X0015469Y0014317D01*
X0015469Y0014300D01*
X0015497Y0014317D02*
X0015514Y0014300D01*
X0015547Y0014300D01*
X0015564Y0014317D01*
X0015564Y0014333D01*
X0015547Y0014350D01*
X0015497Y0014350D01*
X0015497Y0014317D01*
X0015497Y0014350D02*
X0015530Y0014383D01*
X0015564Y0014400D01*
X0015101Y0014400D02*
X0015101Y0014300D01*
X0015067Y0014367D02*
X0015101Y0014400D01*
X0014300Y0014400D02*
X0014300Y0014300D01*
X0035300Y0085800D02*
X0035302Y0085961D01*
X0035308Y0086121D01*
X0035318Y0086282D01*
X0035332Y0086442D01*
X0035350Y0086602D01*
X0035371Y0086761D01*
X0035397Y0086920D01*
X0035427Y0087078D01*
X0035460Y0087235D01*
X0035498Y0087392D01*
X0035539Y0087547D01*
X0035584Y0087701D01*
X0035633Y0087854D01*
X0035686Y0088006D01*
X0035742Y0088157D01*
X0035803Y0088306D01*
X0035866Y0088454D01*
X0035934Y0088600D01*
X0036005Y0088744D01*
X0036079Y0088886D01*
X0036157Y0089027D01*
X0036239Y0089165D01*
X0036324Y0089302D01*
X0036412Y0089436D01*
X0036504Y0089568D01*
X0036599Y0089698D01*
X0036697Y0089826D01*
X0036798Y0089951D01*
X0036902Y0090073D01*
X0037009Y0090193D01*
X0037119Y0090310D01*
X0037232Y0090425D01*
X0037348Y0090536D01*
X0037467Y0090645D01*
X0037588Y0090750D01*
X0037712Y0090853D01*
X0037838Y0090953D01*
X0037966Y0091049D01*
X0038097Y0091142D01*
X0038231Y0091232D01*
X0038366Y0091319D01*
X0038504Y0091402D01*
X0038643Y0091482D01*
X0038785Y0091558D01*
X0038928Y0091631D01*
X0039073Y0091700D01*
X0039220Y0091766D01*
X0039368Y0091828D01*
X0039518Y0091886D01*
X0039669Y0091941D01*
X0039822Y0091992D01*
X0039976Y0092039D01*
X0040131Y0092082D01*
X0040287Y0092121D01*
X0040443Y0092157D01*
X0040601Y0092188D01*
X0040759Y0092216D01*
X0040918Y0092240D01*
X0041078Y0092260D01*
X0041238Y0092276D01*
X0041398Y0092288D01*
X0041559Y0092296D01*
X0041720Y0092300D01*
X0041880Y0092300D01*
X0042041Y0092296D01*
X0042202Y0092288D01*
X0042362Y0092276D01*
X0042522Y0092260D01*
X0042682Y0092240D01*
X0042841Y0092216D01*
X0042999Y0092188D01*
X0043157Y0092157D01*
X0043313Y0092121D01*
X0043469Y0092082D01*
X0043624Y0092039D01*
X0043778Y0091992D01*
X0043931Y0091941D01*
X0044082Y0091886D01*
X0044232Y0091828D01*
X0044380Y0091766D01*
X0044527Y0091700D01*
X0044672Y0091631D01*
X0044815Y0091558D01*
X0044957Y0091482D01*
X0045096Y0091402D01*
X0045234Y0091319D01*
X0045369Y0091232D01*
X0045503Y0091142D01*
X0045634Y0091049D01*
X0045762Y0090953D01*
X0045888Y0090853D01*
X0046012Y0090750D01*
X0046133Y0090645D01*
X0046252Y0090536D01*
X0046368Y0090425D01*
X0046481Y0090310D01*
X0046591Y0090193D01*
X0046698Y0090073D01*
X0046802Y0089951D01*
X0046903Y0089826D01*
X0047001Y0089698D01*
X0047096Y0089568D01*
X0047188Y0089436D01*
X0047276Y0089302D01*
X0047361Y0089165D01*
X0047443Y0089027D01*
X0047521Y0088886D01*
X0047595Y0088744D01*
X0047666Y0088600D01*
X0047734Y0088454D01*
X0047797Y0088306D01*
X0047858Y0088157D01*
X0047914Y0088006D01*
X0047967Y0087854D01*
X0048016Y0087701D01*
X0048061Y0087547D01*
X0048102Y0087392D01*
X0048140Y0087235D01*
X0048173Y0087078D01*
X0048203Y0086920D01*
X0048229Y0086761D01*
X0048250Y0086602D01*
X0048268Y0086442D01*
X0048282Y0086282D01*
X0048292Y0086121D01*
X0048298Y0085961D01*
X0048300Y0085800D01*
X0048298Y0085639D01*
X0048292Y0085479D01*
X0048282Y0085318D01*
X0048268Y0085158D01*
X0048250Y0084998D01*
X0048229Y0084839D01*
X0048203Y0084680D01*
X0048173Y0084522D01*
X0048140Y0084365D01*
X0048102Y0084208D01*
X0048061Y0084053D01*
X0048016Y0083899D01*
X0047967Y0083746D01*
X0047914Y0083594D01*
X0047858Y0083443D01*
X0047797Y0083294D01*
X0047734Y0083146D01*
X0047666Y0083000D01*
X0047595Y0082856D01*
X0047521Y0082714D01*
X0047443Y0082573D01*
X0047361Y0082435D01*
X0047276Y0082298D01*
X0047188Y0082164D01*
X0047096Y0082032D01*
X0047001Y0081902D01*
X0046903Y0081774D01*
X0046802Y0081649D01*
X0046698Y0081527D01*
X0046591Y0081407D01*
X0046481Y0081290D01*
X0046368Y0081175D01*
X0046252Y0081064D01*
X0046133Y0080955D01*
X0046012Y0080850D01*
X0045888Y0080747D01*
X0045762Y0080647D01*
X0045634Y0080551D01*
X0045503Y0080458D01*
X0045369Y0080368D01*
X0045234Y0080281D01*
X0045096Y0080198D01*
X0044957Y0080118D01*
X0044815Y0080042D01*
X0044672Y0079969D01*
X0044527Y0079900D01*
X0044380Y0079834D01*
X0044232Y0079772D01*
X0044082Y0079714D01*
X0043931Y0079659D01*
X0043778Y0079608D01*
X0043624Y0079561D01*
X0043469Y0079518D01*
X0043313Y0079479D01*
X0043157Y0079443D01*
X0042999Y0079412D01*
X0042841Y0079384D01*
X0042682Y0079360D01*
X0042522Y0079340D01*
X0042362Y0079324D01*
X0042202Y0079312D01*
X0042041Y0079304D01*
X0041880Y0079300D01*
X0041720Y0079300D01*
X0041559Y0079304D01*
X0041398Y0079312D01*
X0041238Y0079324D01*
X0041078Y0079340D01*
X0040918Y0079360D01*
X0040759Y0079384D01*
X0040601Y0079412D01*
X0040443Y0079443D01*
X0040287Y0079479D01*
X0040131Y0079518D01*
X0039976Y0079561D01*
X0039822Y0079608D01*
X0039669Y0079659D01*
X0039518Y0079714D01*
X0039368Y0079772D01*
X0039220Y0079834D01*
X0039073Y0079900D01*
X0038928Y0079969D01*
X0038785Y0080042D01*
X0038643Y0080118D01*
X0038504Y0080198D01*
X0038366Y0080281D01*
X0038231Y0080368D01*
X0038097Y0080458D01*
X0037966Y0080551D01*
X0037838Y0080647D01*
X0037712Y0080747D01*
X0037588Y0080850D01*
X0037467Y0080955D01*
X0037348Y0081064D01*
X0037232Y0081175D01*
X0037119Y0081290D01*
X0037009Y0081407D01*
X0036902Y0081527D01*
X0036798Y0081649D01*
X0036697Y0081774D01*
X0036599Y0081902D01*
X0036504Y0082032D01*
X0036412Y0082164D01*
X0036324Y0082298D01*
X0036239Y0082435D01*
X0036157Y0082573D01*
X0036079Y0082714D01*
X0036005Y0082856D01*
X0035934Y0083000D01*
X0035866Y0083146D01*
X0035803Y0083294D01*
X0035742Y0083443D01*
X0035686Y0083594D01*
X0035633Y0083746D01*
X0035584Y0083899D01*
X0035539Y0084053D01*
X0035498Y0084208D01*
X0035460Y0084365D01*
X0035427Y0084522D01*
X0035397Y0084680D01*
X0035371Y0084839D01*
X0035350Y0084998D01*
X0035332Y0085158D01*
X0035318Y0085318D01*
X0035308Y0085479D01*
X0035302Y0085639D01*
X0035300Y0085800D01*
X0041800Y0109300D02*
X0041833Y0109333D01*
X0041867Y0109300D01*
X0041867Y0109400D01*
X0041892Y0109400D02*
X0041925Y0109400D01*
X0041909Y0109400D02*
X0041909Y0109300D01*
X0041925Y0109300D02*
X0041892Y0109300D01*
X0041953Y0109300D02*
X0041953Y0109400D01*
X0042003Y0109400D01*
X0042020Y0109383D01*
X0042020Y0109350D01*
X0042003Y0109333D01*
X0041953Y0109333D01*
X0041987Y0109333D02*
X0042020Y0109300D01*
X0042046Y0109300D02*
X0042112Y0109300D01*
X0042138Y0109300D02*
X0042138Y0109400D01*
X0042188Y0109400D01*
X0042204Y0109383D01*
X0042204Y0109350D01*
X0042188Y0109333D01*
X0042138Y0109333D01*
X0042079Y0109350D02*
X0042046Y0109350D01*
X0042046Y0109400D02*
X0042046Y0109300D01*
X0042046Y0109400D02*
X0042112Y0109400D01*
X0042230Y0109367D02*
X0042263Y0109400D01*
X0042296Y0109367D01*
X0042296Y0109300D01*
X0042322Y0109300D02*
X0042372Y0109300D01*
X0042388Y0109317D01*
X0042388Y0109383D01*
X0042372Y0109400D01*
X0042322Y0109400D01*
X0042322Y0109300D01*
X0042296Y0109350D02*
X0042230Y0109350D01*
X0042230Y0109367D02*
X0042230Y0109300D01*
X0042414Y0109350D02*
X0042481Y0109350D01*
X0042464Y0109300D02*
X0042464Y0109400D01*
X0042414Y0109350D01*
X0042523Y0109317D02*
X0042523Y0109300D01*
X0042539Y0109300D01*
X0042539Y0109317D01*
X0042523Y0109317D01*
X0042539Y0109300D02*
X0042506Y0109267D01*
X0042567Y0109300D02*
X0042634Y0109300D01*
X0042659Y0109317D02*
X0042676Y0109300D01*
X0042709Y0109300D01*
X0042726Y0109317D01*
X0042726Y0109333D01*
X0042709Y0109350D01*
X0042659Y0109350D01*
X0042659Y0109317D01*
X0042659Y0109350D02*
X0042693Y0109383D01*
X0042726Y0109400D01*
X0042751Y0109383D02*
X0042751Y0109317D01*
X0042768Y0109300D01*
X0042801Y0109300D01*
X0042818Y0109317D01*
X0042818Y0109383D01*
X0042801Y0109400D01*
X0042768Y0109400D01*
X0042751Y0109383D01*
X0042844Y0109367D02*
X0042877Y0109400D01*
X0042877Y0109300D01*
X0042844Y0109300D02*
X0042910Y0109300D01*
X0042936Y0109267D02*
X0042969Y0109300D01*
X0042952Y0109300D01*
X0042952Y0109317D01*
X0042969Y0109317D01*
X0042969Y0109300D01*
X0042997Y0109317D02*
X0043014Y0109300D01*
X0043047Y0109300D01*
X0043064Y0109317D01*
X0043064Y0109333D01*
X0043047Y0109350D01*
X0042997Y0109350D01*
X0042997Y0109317D01*
X0042997Y0109350D02*
X0043030Y0109383D01*
X0043064Y0109400D01*
X0042601Y0109400D02*
X0042601Y0109300D01*
X0042567Y0109367D02*
X0042601Y0109400D01*
X0041800Y0109400D02*
X0041800Y0109300D01*
X0015564Y0109317D02*
X0015564Y0109333D01*
X0015547Y0109350D01*
X0015497Y0109350D01*
X0015497Y0109317D01*
X0015514Y0109300D01*
X0015547Y0109300D01*
X0015564Y0109317D01*
X0015530Y0109383D02*
X0015497Y0109350D01*
X0015469Y0109317D02*
X0015452Y0109317D01*
X0015452Y0109300D01*
X0015469Y0109300D01*
X0015469Y0109317D01*
X0015469Y0109300D02*
X0015436Y0109267D01*
X0015410Y0109300D02*
X0015344Y0109300D01*
X0015318Y0109317D02*
X0015318Y0109383D01*
X0015301Y0109400D01*
X0015268Y0109400D01*
X0015251Y0109383D01*
X0015251Y0109317D01*
X0015268Y0109300D01*
X0015301Y0109300D01*
X0015318Y0109317D01*
X0015344Y0109367D02*
X0015377Y0109400D01*
X0015377Y0109300D01*
X0015226Y0109317D02*
X0015226Y0109333D01*
X0015209Y0109350D01*
X0015159Y0109350D01*
X0015159Y0109317D01*
X0015176Y0109300D01*
X0015209Y0109300D01*
X0015226Y0109317D01*
X0015193Y0109383D02*
X0015159Y0109350D01*
X0015193Y0109383D02*
X0015226Y0109400D01*
X0015101Y0109400D02*
X0015101Y0109300D01*
X0015134Y0109300D02*
X0015067Y0109300D01*
X0015039Y0109300D02*
X0015023Y0109300D01*
X0015023Y0109317D01*
X0015039Y0109317D01*
X0015039Y0109300D01*
X0015006Y0109267D01*
X0014964Y0109300D02*
X0014964Y0109400D01*
X0014914Y0109350D01*
X0014981Y0109350D01*
X0015067Y0109367D02*
X0015101Y0109400D01*
X0014888Y0109383D02*
X0014872Y0109400D01*
X0014822Y0109400D01*
X0014822Y0109300D01*
X0014872Y0109300D01*
X0014888Y0109317D01*
X0014888Y0109383D01*
X0014796Y0109367D02*
X0014796Y0109300D01*
X0014796Y0109350D02*
X0014730Y0109350D01*
X0014730Y0109367D02*
X0014763Y0109400D01*
X0014796Y0109367D01*
X0014730Y0109367D02*
X0014730Y0109300D01*
X0014688Y0109333D02*
X0014638Y0109333D01*
X0014638Y0109300D02*
X0014638Y0109400D01*
X0014688Y0109400D01*
X0014704Y0109383D01*
X0014704Y0109350D01*
X0014688Y0109333D01*
X0014612Y0109300D02*
X0014546Y0109300D01*
X0014546Y0109400D01*
X0014612Y0109400D01*
X0014579Y0109350D02*
X0014546Y0109350D01*
X0014520Y0109350D02*
X0014503Y0109333D01*
X0014453Y0109333D01*
X0014453Y0109300D02*
X0014453Y0109400D01*
X0014503Y0109400D01*
X0014520Y0109383D01*
X0014520Y0109350D01*
X0014487Y0109333D02*
X0014520Y0109300D01*
X0014425Y0109300D02*
X0014392Y0109300D01*
X0014409Y0109300D02*
X0014409Y0109400D01*
X0014425Y0109400D02*
X0014392Y0109400D01*
X0014367Y0109400D02*
X0014367Y0109300D01*
X0014333Y0109333D01*
X0014300Y0109300D01*
X0014300Y0109400D01*
X0015530Y0109383D02*
X0015564Y0109400D01*
X0069300Y0111800D02*
X0069302Y0111899D01*
X0069308Y0111999D01*
X0069318Y0112098D01*
X0069332Y0112196D01*
X0069349Y0112294D01*
X0069371Y0112391D01*
X0069396Y0112487D01*
X0069425Y0112582D01*
X0069458Y0112676D01*
X0069495Y0112768D01*
X0069535Y0112859D01*
X0069579Y0112948D01*
X0069627Y0113036D01*
X0069678Y0113121D01*
X0069732Y0113204D01*
X0069789Y0113286D01*
X0069850Y0113364D01*
X0069914Y0113441D01*
X0069980Y0113514D01*
X0070050Y0113585D01*
X0070122Y0113653D01*
X0070197Y0113719D01*
X0070275Y0113781D01*
X0070355Y0113840D01*
X0070437Y0113896D01*
X0070521Y0113948D01*
X0070608Y0113997D01*
X0070696Y0114043D01*
X0070786Y0114085D01*
X0070878Y0114124D01*
X0070971Y0114159D01*
X0071065Y0114190D01*
X0071161Y0114217D01*
X0071258Y0114240D01*
X0071355Y0114260D01*
X0071453Y0114276D01*
X0071552Y0114288D01*
X0071651Y0114296D01*
X0071750Y0114300D01*
X0071850Y0114300D01*
X0071949Y0114296D01*
X0072048Y0114288D01*
X0072147Y0114276D01*
X0072245Y0114260D01*
X0072342Y0114240D01*
X0072439Y0114217D01*
X0072535Y0114190D01*
X0072629Y0114159D01*
X0072722Y0114124D01*
X0072814Y0114085D01*
X0072904Y0114043D01*
X0072992Y0113997D01*
X0073079Y0113948D01*
X0073163Y0113896D01*
X0073245Y0113840D01*
X0073325Y0113781D01*
X0073403Y0113719D01*
X0073478Y0113653D01*
X0073550Y0113585D01*
X0073620Y0113514D01*
X0073686Y0113441D01*
X0073750Y0113364D01*
X0073811Y0113286D01*
X0073868Y0113204D01*
X0073922Y0113121D01*
X0073973Y0113036D01*
X0074021Y0112948D01*
X0074065Y0112859D01*
X0074105Y0112768D01*
X0074142Y0112676D01*
X0074175Y0112582D01*
X0074204Y0112487D01*
X0074229Y0112391D01*
X0074251Y0112294D01*
X0074268Y0112196D01*
X0074282Y0112098D01*
X0074292Y0111999D01*
X0074298Y0111899D01*
X0074300Y0111800D01*
X0074298Y0111701D01*
X0074292Y0111601D01*
X0074282Y0111502D01*
X0074268Y0111404D01*
X0074251Y0111306D01*
X0074229Y0111209D01*
X0074204Y0111113D01*
X0074175Y0111018D01*
X0074142Y0110924D01*
X0074105Y0110832D01*
X0074065Y0110741D01*
X0074021Y0110652D01*
X0073973Y0110564D01*
X0073922Y0110479D01*
X0073868Y0110396D01*
X0073811Y0110314D01*
X0073750Y0110236D01*
X0073686Y0110159D01*
X0073620Y0110086D01*
X0073550Y0110015D01*
X0073478Y0109947D01*
X0073403Y0109881D01*
X0073325Y0109819D01*
X0073245Y0109760D01*
X0073163Y0109704D01*
X0073079Y0109652D01*
X0072992Y0109603D01*
X0072904Y0109557D01*
X0072814Y0109515D01*
X0072722Y0109476D01*
X0072629Y0109441D01*
X0072535Y0109410D01*
X0072439Y0109383D01*
X0072342Y0109360D01*
X0072245Y0109340D01*
X0072147Y0109324D01*
X0072048Y0109312D01*
X0071949Y0109304D01*
X0071850Y0109300D01*
X0071750Y0109300D01*
X0071651Y0109304D01*
X0071552Y0109312D01*
X0071453Y0109324D01*
X0071355Y0109340D01*
X0071258Y0109360D01*
X0071161Y0109383D01*
X0071065Y0109410D01*
X0070971Y0109441D01*
X0070878Y0109476D01*
X0070786Y0109515D01*
X0070696Y0109557D01*
X0070608Y0109603D01*
X0070521Y0109652D01*
X0070437Y0109704D01*
X0070355Y0109760D01*
X0070275Y0109819D01*
X0070197Y0109881D01*
X0070122Y0109947D01*
X0070050Y0110015D01*
X0069980Y0110086D01*
X0069914Y0110159D01*
X0069850Y0110236D01*
X0069789Y0110314D01*
X0069732Y0110396D01*
X0069678Y0110479D01*
X0069627Y0110564D01*
X0069579Y0110652D01*
X0069535Y0110741D01*
X0069495Y0110832D01*
X0069458Y0110924D01*
X0069425Y0111018D01*
X0069396Y0111113D01*
X0069371Y0111209D01*
X0069349Y0111306D01*
X0069332Y0111404D01*
X0069318Y0111502D01*
X0069308Y0111601D01*
X0069302Y0111701D01*
X0069300Y0111800D01*
X0069300Y0014400D02*
X0069300Y0014300D01*
X0069333Y0014333D01*
X0069367Y0014300D01*
X0069367Y0014400D01*
X0069392Y0014400D02*
X0069425Y0014400D01*
X0069409Y0014400D02*
X0069409Y0014300D01*
X0069425Y0014300D02*
X0069392Y0014300D01*
X0069453Y0014300D02*
X0069453Y0014400D01*
X0069503Y0014400D01*
X0069520Y0014383D01*
X0069520Y0014350D01*
X0069503Y0014333D01*
X0069453Y0014333D01*
X0069487Y0014333D02*
X0069520Y0014300D01*
X0069546Y0014300D02*
X0069612Y0014300D01*
X0069638Y0014300D02*
X0069638Y0014400D01*
X0069688Y0014400D01*
X0069704Y0014383D01*
X0069704Y0014350D01*
X0069688Y0014333D01*
X0069638Y0014333D01*
X0069579Y0014350D02*
X0069546Y0014350D01*
X0069546Y0014400D02*
X0069546Y0014300D01*
X0069546Y0014400D02*
X0069612Y0014400D01*
X0069730Y0014367D02*
X0069763Y0014400D01*
X0069796Y0014367D01*
X0069796Y0014300D01*
X0069822Y0014300D02*
X0069872Y0014300D01*
X0069888Y0014317D01*
X0069888Y0014383D01*
X0069872Y0014400D01*
X0069822Y0014400D01*
X0069822Y0014300D01*
X0069796Y0014350D02*
X0069730Y0014350D01*
X0069730Y0014367D02*
X0069730Y0014300D01*
X0069914Y0014350D02*
X0069981Y0014350D01*
X0069964Y0014300D02*
X0069964Y0014400D01*
X0069914Y0014350D01*
X0070023Y0014317D02*
X0070023Y0014300D01*
X0070039Y0014300D01*
X0070039Y0014317D01*
X0070023Y0014317D01*
X0070039Y0014300D02*
X0070006Y0014267D01*
X0070067Y0014300D02*
X0070134Y0014300D01*
X0070159Y0014317D02*
X0070176Y0014300D01*
X0070209Y0014300D01*
X0070226Y0014317D01*
X0070226Y0014333D01*
X0070209Y0014350D01*
X0070159Y0014350D01*
X0070159Y0014317D01*
X0070159Y0014350D02*
X0070193Y0014383D01*
X0070226Y0014400D01*
X0070251Y0014383D02*
X0070251Y0014317D01*
X0070268Y0014300D01*
X0070301Y0014300D01*
X0070318Y0014317D01*
X0070318Y0014383D01*
X0070301Y0014400D01*
X0070268Y0014400D01*
X0070251Y0014383D01*
X0070344Y0014367D02*
X0070377Y0014400D01*
X0070377Y0014300D01*
X0070344Y0014300D02*
X0070410Y0014300D01*
X0070436Y0014267D02*
X0070469Y0014300D01*
X0070452Y0014300D01*
X0070452Y0014317D01*
X0070469Y0014317D01*
X0070469Y0014300D01*
X0070497Y0014317D02*
X0070514Y0014300D01*
X0070547Y0014300D01*
X0070564Y0014317D01*
X0070564Y0014333D01*
X0070547Y0014350D01*
X0070497Y0014350D01*
X0070497Y0014317D01*
X0070497Y0014350D02*
X0070530Y0014383D01*
X0070564Y0014400D01*
X0070101Y0014400D02*
X0070101Y0014300D01*
X0070067Y0014367D02*
X0070101Y0014400D01*
D11*
X0070531Y0024539D02*
X0070531Y0026740D01*
X0071273Y0026740D02*
X0072374Y0026740D01*
X0072741Y0026373D01*
X0072741Y0024906D01*
X0072374Y0024539D01*
X0071273Y0024539D01*
X0071273Y0026740D01*
X0069063Y0026740D02*
X0069063Y0024539D01*
X0068321Y0024906D02*
X0068321Y0025640D01*
X0067587Y0025640D01*
X0068321Y0026373D02*
X0067954Y0026740D01*
X0067220Y0026740D01*
X0066853Y0026373D01*
X0066853Y0024906D01*
X0067220Y0024539D01*
X0067954Y0024539D01*
X0068321Y0024906D01*
X0069063Y0026740D02*
X0070531Y0024539D01*
X0059800Y0039300D02*
X0059800Y0071800D01*
X0023800Y0071800D01*
X0023800Y0039300D01*
X0059800Y0039300D01*
X0064301Y0046761D02*
X0064301Y0048229D01*
X0065402Y0051175D02*
X0063200Y0051175D01*
X0064301Y0054127D02*
X0063934Y0054494D01*
X0063934Y0055595D01*
X0063200Y0055595D02*
X0065402Y0055595D01*
X0065402Y0054494D01*
X0065035Y0054127D01*
X0064301Y0054127D01*
X0064301Y0056337D02*
X0064301Y0057805D01*
X0064668Y0057805D02*
X0065402Y0057071D01*
X0064668Y0056337D01*
X0063200Y0056337D01*
X0063200Y0057805D02*
X0064668Y0057805D01*
X0065035Y0058547D02*
X0065402Y0058914D01*
X0065402Y0059648D01*
X0065035Y0060015D01*
X0063567Y0060015D01*
X0063200Y0059648D01*
X0063200Y0058914D01*
X0063567Y0058547D01*
X0063200Y0062961D02*
X0065402Y0062961D01*
X0064301Y0065913D02*
X0064301Y0067381D01*
X0065035Y0066647D02*
X0063567Y0066647D01*
X0051102Y0043402D02*
X0049635Y0043402D01*
X0050369Y0043402D02*
X0050369Y0041200D01*
X0048893Y0041200D02*
X0047425Y0041200D01*
X0047425Y0043402D01*
X0048893Y0043402D01*
X0048159Y0042301D02*
X0047425Y0042301D01*
X0046683Y0043402D02*
X0045215Y0043402D01*
X0045215Y0041200D01*
X0045215Y0042301D02*
X0045949Y0042301D01*
X0044473Y0042301D02*
X0043005Y0042301D01*
X0042263Y0042301D02*
X0041896Y0041934D01*
X0040795Y0041934D01*
X0041529Y0041934D02*
X0042263Y0041200D01*
X0042263Y0042301D02*
X0042263Y0043035D01*
X0041896Y0043402D01*
X0040795Y0043402D01*
X0040795Y0041200D01*
X0040053Y0041200D02*
X0038585Y0041200D01*
X0038585Y0043402D01*
X0040053Y0043402D01*
X0039319Y0042301D02*
X0038585Y0042301D01*
X0037843Y0041200D02*
X0037843Y0043402D01*
X0036375Y0043402D02*
X0036375Y0041200D01*
X0037109Y0041934D01*
X0037843Y0041200D01*
X0035633Y0041567D02*
X0035633Y0043035D01*
X0035266Y0043402D01*
X0034532Y0043402D01*
X0034165Y0043035D01*
X0034165Y0041567D01*
X0034532Y0041200D01*
X0035266Y0041200D01*
X0035633Y0041567D01*
X0033423Y0042301D02*
X0033056Y0041934D01*
X0031956Y0041934D01*
X0031956Y0041200D02*
X0031956Y0043402D01*
X0033056Y0043402D01*
X0033423Y0043035D01*
X0033423Y0042301D01*
X0034690Y0032402D02*
X0035791Y0032402D01*
X0036158Y0032035D01*
X0036158Y0031301D01*
X0035791Y0030934D01*
X0034690Y0030934D01*
X0034690Y0030200D02*
X0034690Y0032402D01*
X0035424Y0030934D02*
X0036158Y0030200D01*
X0036900Y0030200D02*
X0038368Y0030200D01*
X0037634Y0030200D02*
X0037634Y0032402D01*
X0036900Y0031668D01*
X0018415Y0026563D02*
X0016947Y0026563D01*
X0017681Y0026563D02*
X0017681Y0024361D01*
X0016205Y0026563D02*
X0014737Y0026563D01*
X0015471Y0026563D02*
X0015471Y0024361D01*
X0013995Y0024361D02*
X0013995Y0025829D01*
X0013261Y0026563D01*
X0012527Y0025829D01*
X0012527Y0024361D01*
X0011785Y0024728D02*
X0011418Y0024361D01*
X0010317Y0024361D01*
X0010317Y0026563D01*
X0011418Y0026563D01*
X0011785Y0026196D01*
X0011785Y0025829D01*
X0011418Y0025462D01*
X0010317Y0025462D01*
X0009575Y0025095D02*
X0009575Y0026563D01*
X0009575Y0025095D02*
X0008842Y0024361D01*
X0008108Y0025095D01*
X0008108Y0026563D01*
X0011418Y0025462D02*
X0011785Y0025095D01*
X0011785Y0024728D01*
X0012527Y0025462D02*
X0013995Y0025462D01*
X0014438Y0068235D02*
X0014071Y0068602D01*
X0014071Y0070070D01*
X0014438Y0070437D01*
X0015172Y0070437D01*
X0015539Y0070070D01*
X0016281Y0070437D02*
X0016281Y0068235D01*
X0015539Y0068602D02*
X0015172Y0068235D01*
X0014438Y0068235D01*
X0016281Y0069336D02*
X0017749Y0069336D01*
X0017749Y0070437D02*
X0017749Y0068235D01*
X0013330Y0070437D02*
X0011862Y0070437D01*
X0012596Y0070437D02*
X0012596Y0068235D01*
X0011122Y0068235D02*
X0010388Y0068235D01*
X0010755Y0068235D02*
X0010755Y0070437D01*
X0010388Y0070437D02*
X0011122Y0070437D01*
X0009646Y0070437D02*
X0009646Y0068235D01*
X0008912Y0068969D01*
X0008178Y0068235D01*
X0008178Y0070437D01*
X0007436Y0070070D02*
X0007070Y0070437D01*
X0006336Y0070437D01*
X0005969Y0070070D01*
X0005969Y0069703D01*
X0006336Y0069336D01*
X0007070Y0069336D01*
X0007436Y0068969D01*
X0007436Y0068602D01*
X0007070Y0068235D01*
X0006336Y0068235D01*
X0005969Y0068602D01*
X0006261Y0096861D02*
X0006261Y0099063D01*
X0005527Y0098329D01*
X0004793Y0099063D01*
X0004793Y0096861D01*
X0007003Y0097228D02*
X0007370Y0096861D01*
X0008104Y0096861D01*
X0008471Y0097228D01*
X0008471Y0098696D01*
X0008104Y0099063D01*
X0007370Y0099063D01*
X0007003Y0098696D01*
X0007003Y0097228D01*
X0009212Y0099063D02*
X0010680Y0099063D01*
X0009946Y0099063D02*
X0009946Y0096861D01*
X0011422Y0097228D02*
X0011789Y0096861D01*
X0012523Y0096861D01*
X0012890Y0097228D01*
X0012890Y0098696D01*
X0012523Y0099063D01*
X0011789Y0099063D01*
X0011422Y0098696D01*
X0011422Y0097228D01*
X0013632Y0096861D02*
X0013632Y0099063D01*
X0014733Y0099063D01*
X0015100Y0098696D01*
X0015100Y0097962D01*
X0014733Y0097595D01*
X0013632Y0097595D01*
X0014366Y0097595D02*
X0015100Y0096861D01*
X0015842Y0097962D02*
X0017310Y0097962D01*
X0018052Y0097595D02*
X0018786Y0096861D01*
X0019520Y0097595D01*
X0019520Y0099063D01*
X0020262Y0099063D02*
X0020262Y0096861D01*
X0021730Y0096861D01*
X0020996Y0097962D02*
X0020262Y0097962D01*
X0020262Y0099063D02*
X0021730Y0099063D01*
X0018052Y0099063D02*
X0018052Y0097595D01*
X0016576Y0097228D02*
X0016576Y0098696D01*
X0052037Y0099793D02*
X0052771Y0100527D01*
X0052037Y0101261D01*
X0054239Y0101261D01*
X0053872Y0102003D02*
X0054239Y0102370D01*
X0054239Y0103104D01*
X0053872Y0103471D01*
X0052404Y0103471D01*
X0052037Y0103104D01*
X0052037Y0102370D01*
X0052404Y0102003D01*
X0053872Y0102003D01*
X0054239Y0099793D02*
X0052037Y0099793D01*
X0052037Y0104212D02*
X0052037Y0105680D01*
X0052037Y0104946D02*
X0054239Y0104946D01*
X0053872Y0106422D02*
X0052404Y0106422D01*
X0052037Y0106789D01*
X0052037Y0107523D01*
X0052404Y0107890D01*
X0053872Y0107890D01*
X0054239Y0107523D01*
X0054239Y0106789D01*
X0053872Y0106422D01*
X0054239Y0108632D02*
X0052037Y0108632D01*
X0052037Y0109733D01*
X0052404Y0110100D01*
X0053138Y0110100D01*
X0053505Y0109733D01*
X0053505Y0108632D01*
X0053505Y0109366D02*
X0054239Y0110100D01*
X0053138Y0110842D02*
X0053138Y0112310D01*
X0053505Y0113052D02*
X0054239Y0113786D01*
X0053505Y0114520D01*
X0052037Y0114520D01*
X0052037Y0115262D02*
X0054239Y0115262D01*
X0054239Y0116730D01*
X0053138Y0115996D02*
X0053138Y0115262D01*
X0052037Y0115262D02*
X0052037Y0116730D01*
X0052037Y0113052D02*
X0053505Y0113052D01*
D12*
X0048562Y0057264D02*
X0046494Y0057264D01*
X0045459Y0056229D01*
X0047528Y0054161D02*
X0048562Y0054161D01*
X0049596Y0053127D01*
X0049596Y0052092D01*
X0048562Y0051058D01*
X0046494Y0051058D01*
X0045459Y0052092D01*
X0043271Y0052092D02*
X0043271Y0051058D01*
X0042237Y0051058D01*
X0042237Y0052092D01*
X0043271Y0052092D01*
X0039928Y0052092D02*
X0038894Y0051058D01*
X0036825Y0051058D01*
X0035791Y0052092D01*
X0039928Y0056229D01*
X0039928Y0052092D01*
X0039928Y0056229D02*
X0038894Y0057264D01*
X0036825Y0057264D01*
X0035791Y0056229D01*
X0035791Y0052092D01*
X0033482Y0055195D02*
X0031414Y0051058D01*
X0029346Y0055195D01*
X0048562Y0054161D02*
X0049596Y0055195D01*
X0049596Y0056229D01*
X0048562Y0057264D01*
D13*
X0061800Y0070800D02*
X0021800Y0070800D01*
X0021800Y0092800D01*
X0061800Y0092800D01*
X0061800Y0070800D01*
X0067300Y0063300D02*
X0067300Y0050300D01*
X0067302Y0050213D01*
X0067308Y0050126D01*
X0067317Y0050039D01*
X0067330Y0049953D01*
X0067347Y0049867D01*
X0067368Y0049782D01*
X0067393Y0049699D01*
X0067421Y0049616D01*
X0067452Y0049535D01*
X0067487Y0049455D01*
X0067526Y0049377D01*
X0067568Y0049300D01*
X0067613Y0049225D01*
X0067662Y0049153D01*
X0067713Y0049082D01*
X0067768Y0049014D01*
X0067825Y0048949D01*
X0067886Y0048886D01*
X0067949Y0048825D01*
X0068014Y0048768D01*
X0068082Y0048713D01*
X0068153Y0048662D01*
X0068225Y0048613D01*
X0068300Y0048568D01*
X0068377Y0048526D01*
X0068455Y0048487D01*
X0068535Y0048452D01*
X0068616Y0048421D01*
X0068699Y0048393D01*
X0068782Y0048368D01*
X0068867Y0048347D01*
X0068953Y0048330D01*
X0069039Y0048317D01*
X0069126Y0048308D01*
X0069213Y0048302D01*
X0069300Y0048300D01*
X0074300Y0048300D01*
X0074387Y0048302D01*
X0074474Y0048308D01*
X0074561Y0048317D01*
X0074647Y0048330D01*
X0074733Y0048347D01*
X0074818Y0048368D01*
X0074901Y0048393D01*
X0074984Y0048421D01*
X0075065Y0048452D01*
X0075145Y0048487D01*
X0075223Y0048526D01*
X0075300Y0048568D01*
X0075375Y0048613D01*
X0075447Y0048662D01*
X0075518Y0048713D01*
X0075586Y0048768D01*
X0075651Y0048825D01*
X0075714Y0048886D01*
X0075775Y0048949D01*
X0075832Y0049014D01*
X0075887Y0049082D01*
X0075938Y0049153D01*
X0075987Y0049225D01*
X0076032Y0049300D01*
X0076074Y0049377D01*
X0076113Y0049455D01*
X0076148Y0049535D01*
X0076179Y0049616D01*
X0076207Y0049699D01*
X0076232Y0049782D01*
X0076253Y0049867D01*
X0076270Y0049953D01*
X0076283Y0050039D01*
X0076292Y0050126D01*
X0076298Y0050213D01*
X0076300Y0050300D01*
X0076300Y0063300D01*
X0076298Y0063387D01*
X0076292Y0063474D01*
X0076283Y0063561D01*
X0076270Y0063647D01*
X0076253Y0063733D01*
X0076232Y0063818D01*
X0076207Y0063901D01*
X0076179Y0063984D01*
X0076148Y0064065D01*
X0076113Y0064145D01*
X0076074Y0064223D01*
X0076032Y0064300D01*
X0075987Y0064375D01*
X0075938Y0064447D01*
X0075887Y0064518D01*
X0075832Y0064586D01*
X0075775Y0064651D01*
X0075714Y0064714D01*
X0075651Y0064775D01*
X0075586Y0064832D01*
X0075518Y0064887D01*
X0075447Y0064938D01*
X0075375Y0064987D01*
X0075300Y0065032D01*
X0075223Y0065074D01*
X0075145Y0065113D01*
X0075065Y0065148D01*
X0074984Y0065179D01*
X0074901Y0065207D01*
X0074818Y0065232D01*
X0074733Y0065253D01*
X0074647Y0065270D01*
X0074561Y0065283D01*
X0074474Y0065292D01*
X0074387Y0065298D01*
X0074300Y0065300D01*
X0069300Y0065300D01*
X0069213Y0065298D01*
X0069126Y0065292D01*
X0069039Y0065283D01*
X0068953Y0065270D01*
X0068867Y0065253D01*
X0068782Y0065232D01*
X0068699Y0065207D01*
X0068616Y0065179D01*
X0068535Y0065148D01*
X0068455Y0065113D01*
X0068377Y0065074D01*
X0068300Y0065032D01*
X0068225Y0064987D01*
X0068153Y0064938D01*
X0068082Y0064887D01*
X0068014Y0064832D01*
X0067949Y0064775D01*
X0067886Y0064714D01*
X0067825Y0064651D01*
X0067768Y0064586D01*
X0067713Y0064518D01*
X0067662Y0064447D01*
X0067613Y0064375D01*
X0067568Y0064300D01*
X0067526Y0064223D01*
X0067487Y0064145D01*
X0067452Y0064065D01*
X0067421Y0063984D01*
X0067393Y0063901D01*
X0067368Y0063818D01*
X0067347Y0063733D01*
X0067330Y0063647D01*
X0067317Y0063561D01*
X0067308Y0063474D01*
X0067302Y0063387D01*
X0067300Y0063300D01*
X0062300Y0085800D02*
X0058800Y0085800D01*
X0058800Y0091800D01*
X0062300Y0091800D01*
X0062300Y0099300D01*
X0021300Y0099300D01*
X0021300Y0091800D01*
X0024800Y0091800D01*
X0024800Y0085800D01*
X0021300Y0085800D01*
X0021300Y0036800D01*
X0062300Y0036800D01*
X0062300Y0085800D01*
X0050800Y0081800D02*
X0041800Y0081800D01*
X0041800Y0079500D01*
X0041800Y0081800D02*
X0046300Y0079500D01*
X0046300Y0084100D01*
X0041800Y0081800D01*
X0041800Y0084100D01*
X0034700Y0085800D02*
X0034702Y0085974D01*
X0034709Y0086148D01*
X0034719Y0086322D01*
X0034734Y0086496D01*
X0034753Y0086669D01*
X0034777Y0086842D01*
X0034805Y0087014D01*
X0034836Y0087185D01*
X0034873Y0087356D01*
X0034913Y0087525D01*
X0034957Y0087694D01*
X0035006Y0087861D01*
X0035058Y0088027D01*
X0035115Y0088192D01*
X0035176Y0088355D01*
X0035240Y0088517D01*
X0035309Y0088677D01*
X0035382Y0088836D01*
X0035458Y0088992D01*
X0035538Y0089147D01*
X0035622Y0089300D01*
X0035710Y0089450D01*
X0035802Y0089598D01*
X0035897Y0089745D01*
X0035995Y0089888D01*
X0036097Y0090029D01*
X0036203Y0090168D01*
X0036312Y0090304D01*
X0036424Y0090438D01*
X0036539Y0090568D01*
X0036658Y0090696D01*
X0036780Y0090820D01*
X0036904Y0090942D01*
X0037032Y0091061D01*
X0037162Y0091176D01*
X0037296Y0091288D01*
X0037432Y0091397D01*
X0037571Y0091503D01*
X0037712Y0091605D01*
X0037855Y0091703D01*
X0038002Y0091798D01*
X0038150Y0091890D01*
X0038300Y0091978D01*
X0038453Y0092062D01*
X0038608Y0092142D01*
X0038764Y0092218D01*
X0038923Y0092291D01*
X0039083Y0092360D01*
X0039245Y0092424D01*
X0039408Y0092485D01*
X0039573Y0092542D01*
X0039739Y0092594D01*
X0039906Y0092643D01*
X0040075Y0092687D01*
X0040244Y0092727D01*
X0040415Y0092764D01*
X0040586Y0092795D01*
X0040758Y0092823D01*
X0040931Y0092847D01*
X0041104Y0092866D01*
X0041278Y0092881D01*
X0041452Y0092891D01*
X0041626Y0092898D01*
X0041800Y0092900D01*
X0041974Y0092898D01*
X0042148Y0092891D01*
X0042322Y0092881D01*
X0042496Y0092866D01*
X0042669Y0092847D01*
X0042842Y0092823D01*
X0043014Y0092795D01*
X0043185Y0092764D01*
X0043356Y0092727D01*
X0043525Y0092687D01*
X0043694Y0092643D01*
X0043861Y0092594D01*
X0044027Y0092542D01*
X0044192Y0092485D01*
X0044355Y0092424D01*
X0044517Y0092360D01*
X0044677Y0092291D01*
X0044836Y0092218D01*
X0044992Y0092142D01*
X0045147Y0092062D01*
X0045300Y0091978D01*
X0045450Y0091890D01*
X0045598Y0091798D01*
X0045745Y0091703D01*
X0045888Y0091605D01*
X0046029Y0091503D01*
X0046168Y0091397D01*
X0046304Y0091288D01*
X0046438Y0091176D01*
X0046568Y0091061D01*
X0046696Y0090942D01*
X0046820Y0090820D01*
X0046942Y0090696D01*
X0047061Y0090568D01*
X0047176Y0090438D01*
X0047288Y0090304D01*
X0047397Y0090168D01*
X0047503Y0090029D01*
X0047605Y0089888D01*
X0047703Y0089745D01*
X0047798Y0089598D01*
X0047890Y0089450D01*
X0047978Y0089300D01*
X0048062Y0089147D01*
X0048142Y0088992D01*
X0048218Y0088836D01*
X0048291Y0088677D01*
X0048360Y0088517D01*
X0048424Y0088355D01*
X0048485Y0088192D01*
X0048542Y0088027D01*
X0048594Y0087861D01*
X0048643Y0087694D01*
X0048687Y0087525D01*
X0048727Y0087356D01*
X0048764Y0087185D01*
X0048795Y0087014D01*
X0048823Y0086842D01*
X0048847Y0086669D01*
X0048866Y0086496D01*
X0048881Y0086322D01*
X0048891Y0086148D01*
X0048898Y0085974D01*
X0048900Y0085800D01*
X0048898Y0085626D01*
X0048891Y0085452D01*
X0048881Y0085278D01*
X0048866Y0085104D01*
X0048847Y0084931D01*
X0048823Y0084758D01*
X0048795Y0084586D01*
X0048764Y0084415D01*
X0048727Y0084244D01*
X0048687Y0084075D01*
X0048643Y0083906D01*
X0048594Y0083739D01*
X0048542Y0083573D01*
X0048485Y0083408D01*
X0048424Y0083245D01*
X0048360Y0083083D01*
X0048291Y0082923D01*
X0048218Y0082764D01*
X0048142Y0082608D01*
X0048062Y0082453D01*
X0047978Y0082300D01*
X0047890Y0082150D01*
X0047798Y0082002D01*
X0047703Y0081855D01*
X0047605Y0081712D01*
X0047503Y0081571D01*
X0047397Y0081432D01*
X0047288Y0081296D01*
X0047176Y0081162D01*
X0047061Y0081032D01*
X0046942Y0080904D01*
X0046820Y0080780D01*
X0046696Y0080658D01*
X0046568Y0080539D01*
X0046438Y0080424D01*
X0046304Y0080312D01*
X0046168Y0080203D01*
X0046029Y0080097D01*
X0045888Y0079995D01*
X0045745Y0079897D01*
X0045598Y0079802D01*
X0045450Y0079710D01*
X0045300Y0079622D01*
X0045147Y0079538D01*
X0044992Y0079458D01*
X0044836Y0079382D01*
X0044677Y0079309D01*
X0044517Y0079240D01*
X0044355Y0079176D01*
X0044192Y0079115D01*
X0044027Y0079058D01*
X0043861Y0079006D01*
X0043694Y0078957D01*
X0043525Y0078913D01*
X0043356Y0078873D01*
X0043185Y0078836D01*
X0043014Y0078805D01*
X0042842Y0078777D01*
X0042669Y0078753D01*
X0042496Y0078734D01*
X0042322Y0078719D01*
X0042148Y0078709D01*
X0041974Y0078702D01*
X0041800Y0078700D01*
X0041626Y0078702D01*
X0041452Y0078709D01*
X0041278Y0078719D01*
X0041104Y0078734D01*
X0040931Y0078753D01*
X0040758Y0078777D01*
X0040586Y0078805D01*
X0040415Y0078836D01*
X0040244Y0078873D01*
X0040075Y0078913D01*
X0039906Y0078957D01*
X0039739Y0079006D01*
X0039573Y0079058D01*
X0039408Y0079115D01*
X0039245Y0079176D01*
X0039083Y0079240D01*
X0038923Y0079309D01*
X0038764Y0079382D01*
X0038608Y0079458D01*
X0038453Y0079538D01*
X0038300Y0079622D01*
X0038150Y0079710D01*
X0038002Y0079802D01*
X0037855Y0079897D01*
X0037712Y0079995D01*
X0037571Y0080097D01*
X0037432Y0080203D01*
X0037296Y0080312D01*
X0037162Y0080424D01*
X0037032Y0080539D01*
X0036904Y0080658D01*
X0036780Y0080780D01*
X0036658Y0080904D01*
X0036539Y0081032D01*
X0036424Y0081162D01*
X0036312Y0081296D01*
X0036203Y0081432D01*
X0036097Y0081571D01*
X0035995Y0081712D01*
X0035897Y0081855D01*
X0035802Y0082002D01*
X0035710Y0082150D01*
X0035622Y0082300D01*
X0035538Y0082453D01*
X0035458Y0082608D01*
X0035382Y0082764D01*
X0035309Y0082923D01*
X0035240Y0083083D01*
X0035176Y0083245D01*
X0035115Y0083408D01*
X0035058Y0083573D01*
X0035006Y0083739D01*
X0034957Y0083906D01*
X0034913Y0084075D01*
X0034873Y0084244D01*
X0034836Y0084415D01*
X0034805Y0084586D01*
X0034777Y0084758D01*
X0034753Y0084931D01*
X0034734Y0085104D01*
X0034719Y0085278D01*
X0034709Y0085452D01*
X0034702Y0085626D01*
X0034700Y0085800D01*
X0036800Y0081800D02*
X0041800Y0081800D01*
X0016800Y0064300D02*
X0016800Y0059300D01*
X0014300Y0056800D01*
X0016800Y0054300D01*
X0016800Y0049300D01*
X0014300Y0046800D01*
X0009300Y0046800D01*
X0006800Y0049300D01*
X0006800Y0054300D01*
X0009300Y0056800D01*
X0006800Y0059300D01*
X0006800Y0064300D01*
X0009300Y0066800D01*
X0014300Y0066800D01*
X0016800Y0064300D01*
X0014300Y0056800D02*
X0009300Y0056800D01*
X0029300Y0035300D02*
X0029300Y0028300D01*
X0029302Y0028240D01*
X0029307Y0028179D01*
X0029316Y0028120D01*
X0029329Y0028061D01*
X0029345Y0028002D01*
X0029365Y0027945D01*
X0029388Y0027890D01*
X0029415Y0027835D01*
X0029444Y0027783D01*
X0029477Y0027732D01*
X0029513Y0027683D01*
X0029551Y0027637D01*
X0029593Y0027593D01*
X0029637Y0027551D01*
X0029683Y0027513D01*
X0029732Y0027477D01*
X0029783Y0027444D01*
X0029835Y0027415D01*
X0029890Y0027388D01*
X0029945Y0027365D01*
X0030002Y0027345D01*
X0030061Y0027329D01*
X0030120Y0027316D01*
X0030179Y0027307D01*
X0030240Y0027302D01*
X0030300Y0027300D01*
X0031800Y0027300D01*
X0032300Y0027800D01*
X0051300Y0027800D01*
X0051800Y0027300D01*
X0053300Y0027300D01*
X0053360Y0027302D01*
X0053421Y0027307D01*
X0053480Y0027316D01*
X0053539Y0027329D01*
X0053598Y0027345D01*
X0053655Y0027365D01*
X0053710Y0027388D01*
X0053765Y0027415D01*
X0053817Y0027444D01*
X0053868Y0027477D01*
X0053917Y0027513D01*
X0053963Y0027551D01*
X0054007Y0027593D01*
X0054049Y0027637D01*
X0054087Y0027683D01*
X0054123Y0027732D01*
X0054156Y0027783D01*
X0054185Y0027835D01*
X0054212Y0027890D01*
X0054235Y0027945D01*
X0054255Y0028002D01*
X0054271Y0028061D01*
X0054284Y0028120D01*
X0054293Y0028179D01*
X0054298Y0028240D01*
X0054300Y0028300D01*
X0054300Y0035300D01*
X0054298Y0035360D01*
X0054293Y0035421D01*
X0054284Y0035480D01*
X0054271Y0035539D01*
X0054255Y0035598D01*
X0054235Y0035655D01*
X0054212Y0035710D01*
X0054185Y0035765D01*
X0054156Y0035817D01*
X0054123Y0035868D01*
X0054087Y0035917D01*
X0054049Y0035963D01*
X0054007Y0036007D01*
X0053963Y0036049D01*
X0053917Y0036087D01*
X0053868Y0036123D01*
X0053817Y0036156D01*
X0053765Y0036185D01*
X0053710Y0036212D01*
X0053655Y0036235D01*
X0053598Y0036255D01*
X0053539Y0036271D01*
X0053480Y0036284D01*
X0053421Y0036293D01*
X0053360Y0036298D01*
X0053300Y0036300D01*
X0051800Y0036300D01*
X0051300Y0035800D01*
X0032300Y0035800D01*
X0031800Y0036300D01*
X0030300Y0036300D01*
X0030240Y0036298D01*
X0030179Y0036293D01*
X0030120Y0036284D01*
X0030061Y0036271D01*
X0030002Y0036255D01*
X0029945Y0036235D01*
X0029890Y0036212D01*
X0029835Y0036185D01*
X0029783Y0036156D01*
X0029732Y0036123D01*
X0029683Y0036087D01*
X0029637Y0036049D01*
X0029593Y0036007D01*
X0029551Y0035963D01*
X0029513Y0035917D01*
X0029477Y0035868D01*
X0029444Y0035817D01*
X0029415Y0035765D01*
X0029388Y0035710D01*
X0029365Y0035655D01*
X0029345Y0035598D01*
X0029329Y0035539D01*
X0029316Y0035480D01*
X0029307Y0035421D01*
X0029302Y0035360D01*
X0029300Y0035300D01*
D14*
X0068800Y0055500D02*
X0074800Y0055500D01*
X0074800Y0058000D02*
X0068800Y0058000D01*
D15*
X0052718Y0073550D02*
X0053468Y0074301D01*
X0053468Y0077303D01*
X0050466Y0074301D01*
X0051216Y0073550D01*
X0052718Y0073550D01*
X0050466Y0074301D02*
X0050466Y0077303D01*
X0051216Y0078054D01*
X0052718Y0078054D01*
X0053468Y0077303D01*
X0048864Y0077303D02*
X0048864Y0076553D01*
X0048114Y0075802D01*
X0048864Y0075051D01*
X0048864Y0074301D01*
X0048114Y0073550D01*
X0046612Y0073550D01*
X0045862Y0074301D01*
X0047363Y0075802D02*
X0048114Y0075802D01*
X0048864Y0077303D02*
X0048114Y0078054D01*
X0046612Y0078054D01*
X0045862Y0077303D01*
X0044260Y0077303D02*
X0044260Y0075802D01*
X0043510Y0075051D01*
X0041258Y0075051D01*
X0041258Y0073550D02*
X0041258Y0078054D01*
X0043510Y0078054D01*
X0044260Y0077303D01*
X0039656Y0077303D02*
X0038906Y0078054D01*
X0037405Y0078054D01*
X0036654Y0077303D01*
X0036654Y0074301D01*
X0037405Y0073550D01*
X0038906Y0073550D01*
X0039656Y0074301D01*
X0039656Y0075802D01*
X0038155Y0075802D01*
X0035053Y0075802D02*
X0034302Y0075051D01*
X0032050Y0075051D01*
X0032050Y0073550D02*
X0032050Y0078054D01*
X0034302Y0078054D01*
X0035053Y0077303D01*
X0035053Y0075802D01*
X0033551Y0075051D02*
X0035053Y0073550D01*
X0029656Y0094550D02*
X0026654Y0094550D01*
X0028155Y0094550D02*
X0028155Y0099054D01*
X0026654Y0097553D01*
X0025053Y0098303D02*
X0025053Y0095301D01*
X0024302Y0094550D01*
X0022050Y0094550D01*
X0022050Y0099054D01*
X0024302Y0099054D01*
X0025053Y0098303D01*
D16*
X0026800Y0081800D03*
D17*
X0020050Y0081800D03*
X0063550Y0081800D03*
D18*
X0047773Y0074802D02*
X0047773Y0073000D01*
X0046572Y0073000D02*
X0046572Y0074802D01*
X0047173Y0075402D01*
X0047773Y0074802D01*
X0046572Y0074802D02*
X0045972Y0075402D01*
X0045371Y0075402D01*
X0045371Y0073000D01*
X0044090Y0073000D02*
X0044090Y0074802D01*
X0043490Y0075402D01*
X0042889Y0074802D01*
X0042889Y0073000D01*
X0042889Y0074802D02*
X0042289Y0075402D01*
X0041688Y0075402D01*
X0041688Y0073000D01*
X0040407Y0073601D02*
X0040407Y0074802D01*
X0039806Y0075402D01*
X0039206Y0075402D01*
X0038005Y0074802D01*
X0038005Y0076603D01*
X0040407Y0076603D01*
X0040407Y0073601D02*
X0039806Y0073000D01*
X0038605Y0073000D01*
X0038005Y0073601D01*
X0036750Y0073601D02*
X0036150Y0073601D01*
X0036150Y0073000D01*
X0036750Y0073000D01*
X0036750Y0073601D01*
X0036750Y0073000D02*
X0035549Y0071799D01*
X0031866Y0073601D02*
X0034268Y0076003D01*
X0034268Y0076603D01*
X0031866Y0076603D01*
X0031866Y0073601D02*
X0031866Y0073000D01*
X0030585Y0073000D02*
X0028183Y0073000D01*
X0029384Y0073000D02*
X0029384Y0076603D01*
X0028183Y0075402D01*
X0026902Y0075402D02*
X0026902Y0073000D01*
X0026902Y0074802D02*
X0024500Y0074802D01*
X0024500Y0075402D02*
X0024500Y0073000D01*
X0024500Y0075402D02*
X0025701Y0076603D01*
X0026902Y0075402D01*
D19*
X0031800Y0024550D03*
X0041800Y0024550D03*
X0051800Y0024550D03*
D20*
X0051800Y0031300D03*
X0041800Y0031300D03*
X0031800Y0031300D03*
D21*
X0025800Y0031800D02*
X0019300Y0031800D01*
X0057800Y0031800D02*
X0064300Y0031800D01*
D22*
X0066000Y0031800D03*
X0056000Y0031800D03*
X0027600Y0031800D03*
X0017600Y0031800D03*
M02*
