G75*
%MOIN*%
%OFA0B0*%
%FSLAX25Y25*%
%IPPOS*%
%LPD*%
%AMOC8*
5,1,8,0,0,1.08239X$1,22.5*
%
%ADD10C,0.00000*%
%ADD11C,0.05800*%
%ADD12OC8,0.06000*%
%ADD13C,0.09650*%
%ADD14OC8,0.17200*%
%ADD15C,0.06800*%
%ADD16C,0.07400*%
%ADD17C,0.13800*%
D10*
X0001800Y0001800D02*
X0001800Y0121761D01*
X0083001Y0121761D01*
X0083001Y0001800D01*
X0001800Y0001800D01*
X0035300Y0085800D02*
X0035302Y0085961D01*
X0035308Y0086121D01*
X0035318Y0086282D01*
X0035332Y0086442D01*
X0035350Y0086602D01*
X0035371Y0086761D01*
X0035397Y0086920D01*
X0035427Y0087078D01*
X0035460Y0087235D01*
X0035498Y0087392D01*
X0035539Y0087547D01*
X0035584Y0087701D01*
X0035633Y0087854D01*
X0035686Y0088006D01*
X0035742Y0088157D01*
X0035803Y0088306D01*
X0035866Y0088454D01*
X0035934Y0088600D01*
X0036005Y0088744D01*
X0036079Y0088886D01*
X0036157Y0089027D01*
X0036239Y0089165D01*
X0036324Y0089302D01*
X0036412Y0089436D01*
X0036504Y0089568D01*
X0036599Y0089698D01*
X0036697Y0089826D01*
X0036798Y0089951D01*
X0036902Y0090073D01*
X0037009Y0090193D01*
X0037119Y0090310D01*
X0037232Y0090425D01*
X0037348Y0090536D01*
X0037467Y0090645D01*
X0037588Y0090750D01*
X0037712Y0090853D01*
X0037838Y0090953D01*
X0037966Y0091049D01*
X0038097Y0091142D01*
X0038231Y0091232D01*
X0038366Y0091319D01*
X0038504Y0091402D01*
X0038643Y0091482D01*
X0038785Y0091558D01*
X0038928Y0091631D01*
X0039073Y0091700D01*
X0039220Y0091766D01*
X0039368Y0091828D01*
X0039518Y0091886D01*
X0039669Y0091941D01*
X0039822Y0091992D01*
X0039976Y0092039D01*
X0040131Y0092082D01*
X0040287Y0092121D01*
X0040443Y0092157D01*
X0040601Y0092188D01*
X0040759Y0092216D01*
X0040918Y0092240D01*
X0041078Y0092260D01*
X0041238Y0092276D01*
X0041398Y0092288D01*
X0041559Y0092296D01*
X0041720Y0092300D01*
X0041880Y0092300D01*
X0042041Y0092296D01*
X0042202Y0092288D01*
X0042362Y0092276D01*
X0042522Y0092260D01*
X0042682Y0092240D01*
X0042841Y0092216D01*
X0042999Y0092188D01*
X0043157Y0092157D01*
X0043313Y0092121D01*
X0043469Y0092082D01*
X0043624Y0092039D01*
X0043778Y0091992D01*
X0043931Y0091941D01*
X0044082Y0091886D01*
X0044232Y0091828D01*
X0044380Y0091766D01*
X0044527Y0091700D01*
X0044672Y0091631D01*
X0044815Y0091558D01*
X0044957Y0091482D01*
X0045096Y0091402D01*
X0045234Y0091319D01*
X0045369Y0091232D01*
X0045503Y0091142D01*
X0045634Y0091049D01*
X0045762Y0090953D01*
X0045888Y0090853D01*
X0046012Y0090750D01*
X0046133Y0090645D01*
X0046252Y0090536D01*
X0046368Y0090425D01*
X0046481Y0090310D01*
X0046591Y0090193D01*
X0046698Y0090073D01*
X0046802Y0089951D01*
X0046903Y0089826D01*
X0047001Y0089698D01*
X0047096Y0089568D01*
X0047188Y0089436D01*
X0047276Y0089302D01*
X0047361Y0089165D01*
X0047443Y0089027D01*
X0047521Y0088886D01*
X0047595Y0088744D01*
X0047666Y0088600D01*
X0047734Y0088454D01*
X0047797Y0088306D01*
X0047858Y0088157D01*
X0047914Y0088006D01*
X0047967Y0087854D01*
X0048016Y0087701D01*
X0048061Y0087547D01*
X0048102Y0087392D01*
X0048140Y0087235D01*
X0048173Y0087078D01*
X0048203Y0086920D01*
X0048229Y0086761D01*
X0048250Y0086602D01*
X0048268Y0086442D01*
X0048282Y0086282D01*
X0048292Y0086121D01*
X0048298Y0085961D01*
X0048300Y0085800D01*
X0048298Y0085639D01*
X0048292Y0085479D01*
X0048282Y0085318D01*
X0048268Y0085158D01*
X0048250Y0084998D01*
X0048229Y0084839D01*
X0048203Y0084680D01*
X0048173Y0084522D01*
X0048140Y0084365D01*
X0048102Y0084208D01*
X0048061Y0084053D01*
X0048016Y0083899D01*
X0047967Y0083746D01*
X0047914Y0083594D01*
X0047858Y0083443D01*
X0047797Y0083294D01*
X0047734Y0083146D01*
X0047666Y0083000D01*
X0047595Y0082856D01*
X0047521Y0082714D01*
X0047443Y0082573D01*
X0047361Y0082435D01*
X0047276Y0082298D01*
X0047188Y0082164D01*
X0047096Y0082032D01*
X0047001Y0081902D01*
X0046903Y0081774D01*
X0046802Y0081649D01*
X0046698Y0081527D01*
X0046591Y0081407D01*
X0046481Y0081290D01*
X0046368Y0081175D01*
X0046252Y0081064D01*
X0046133Y0080955D01*
X0046012Y0080850D01*
X0045888Y0080747D01*
X0045762Y0080647D01*
X0045634Y0080551D01*
X0045503Y0080458D01*
X0045369Y0080368D01*
X0045234Y0080281D01*
X0045096Y0080198D01*
X0044957Y0080118D01*
X0044815Y0080042D01*
X0044672Y0079969D01*
X0044527Y0079900D01*
X0044380Y0079834D01*
X0044232Y0079772D01*
X0044082Y0079714D01*
X0043931Y0079659D01*
X0043778Y0079608D01*
X0043624Y0079561D01*
X0043469Y0079518D01*
X0043313Y0079479D01*
X0043157Y0079443D01*
X0042999Y0079412D01*
X0042841Y0079384D01*
X0042682Y0079360D01*
X0042522Y0079340D01*
X0042362Y0079324D01*
X0042202Y0079312D01*
X0042041Y0079304D01*
X0041880Y0079300D01*
X0041720Y0079300D01*
X0041559Y0079304D01*
X0041398Y0079312D01*
X0041238Y0079324D01*
X0041078Y0079340D01*
X0040918Y0079360D01*
X0040759Y0079384D01*
X0040601Y0079412D01*
X0040443Y0079443D01*
X0040287Y0079479D01*
X0040131Y0079518D01*
X0039976Y0079561D01*
X0039822Y0079608D01*
X0039669Y0079659D01*
X0039518Y0079714D01*
X0039368Y0079772D01*
X0039220Y0079834D01*
X0039073Y0079900D01*
X0038928Y0079969D01*
X0038785Y0080042D01*
X0038643Y0080118D01*
X0038504Y0080198D01*
X0038366Y0080281D01*
X0038231Y0080368D01*
X0038097Y0080458D01*
X0037966Y0080551D01*
X0037838Y0080647D01*
X0037712Y0080747D01*
X0037588Y0080850D01*
X0037467Y0080955D01*
X0037348Y0081064D01*
X0037232Y0081175D01*
X0037119Y0081290D01*
X0037009Y0081407D01*
X0036902Y0081527D01*
X0036798Y0081649D01*
X0036697Y0081774D01*
X0036599Y0081902D01*
X0036504Y0082032D01*
X0036412Y0082164D01*
X0036324Y0082298D01*
X0036239Y0082435D01*
X0036157Y0082573D01*
X0036079Y0082714D01*
X0036005Y0082856D01*
X0035934Y0083000D01*
X0035866Y0083146D01*
X0035803Y0083294D01*
X0035742Y0083443D01*
X0035686Y0083594D01*
X0035633Y0083746D01*
X0035584Y0083899D01*
X0035539Y0084053D01*
X0035498Y0084208D01*
X0035460Y0084365D01*
X0035427Y0084522D01*
X0035397Y0084680D01*
X0035371Y0084839D01*
X0035350Y0084998D01*
X0035332Y0085158D01*
X0035318Y0085318D01*
X0035308Y0085479D01*
X0035302Y0085639D01*
X0035300Y0085800D01*
X0069300Y0111800D02*
X0069302Y0111899D01*
X0069308Y0111999D01*
X0069318Y0112098D01*
X0069332Y0112196D01*
X0069349Y0112294D01*
X0069371Y0112391D01*
X0069396Y0112487D01*
X0069425Y0112582D01*
X0069458Y0112676D01*
X0069495Y0112768D01*
X0069535Y0112859D01*
X0069579Y0112948D01*
X0069627Y0113036D01*
X0069678Y0113121D01*
X0069732Y0113204D01*
X0069789Y0113286D01*
X0069850Y0113364D01*
X0069914Y0113441D01*
X0069980Y0113514D01*
X0070050Y0113585D01*
X0070122Y0113653D01*
X0070197Y0113719D01*
X0070275Y0113781D01*
X0070355Y0113840D01*
X0070437Y0113896D01*
X0070521Y0113948D01*
X0070608Y0113997D01*
X0070696Y0114043D01*
X0070786Y0114085D01*
X0070878Y0114124D01*
X0070971Y0114159D01*
X0071065Y0114190D01*
X0071161Y0114217D01*
X0071258Y0114240D01*
X0071355Y0114260D01*
X0071453Y0114276D01*
X0071552Y0114288D01*
X0071651Y0114296D01*
X0071750Y0114300D01*
X0071850Y0114300D01*
X0071949Y0114296D01*
X0072048Y0114288D01*
X0072147Y0114276D01*
X0072245Y0114260D01*
X0072342Y0114240D01*
X0072439Y0114217D01*
X0072535Y0114190D01*
X0072629Y0114159D01*
X0072722Y0114124D01*
X0072814Y0114085D01*
X0072904Y0114043D01*
X0072992Y0113997D01*
X0073079Y0113948D01*
X0073163Y0113896D01*
X0073245Y0113840D01*
X0073325Y0113781D01*
X0073403Y0113719D01*
X0073478Y0113653D01*
X0073550Y0113585D01*
X0073620Y0113514D01*
X0073686Y0113441D01*
X0073750Y0113364D01*
X0073811Y0113286D01*
X0073868Y0113204D01*
X0073922Y0113121D01*
X0073973Y0113036D01*
X0074021Y0112948D01*
X0074065Y0112859D01*
X0074105Y0112768D01*
X0074142Y0112676D01*
X0074175Y0112582D01*
X0074204Y0112487D01*
X0074229Y0112391D01*
X0074251Y0112294D01*
X0074268Y0112196D01*
X0074282Y0112098D01*
X0074292Y0111999D01*
X0074298Y0111899D01*
X0074300Y0111800D01*
X0074298Y0111701D01*
X0074292Y0111601D01*
X0074282Y0111502D01*
X0074268Y0111404D01*
X0074251Y0111306D01*
X0074229Y0111209D01*
X0074204Y0111113D01*
X0074175Y0111018D01*
X0074142Y0110924D01*
X0074105Y0110832D01*
X0074065Y0110741D01*
X0074021Y0110652D01*
X0073973Y0110564D01*
X0073922Y0110479D01*
X0073868Y0110396D01*
X0073811Y0110314D01*
X0073750Y0110236D01*
X0073686Y0110159D01*
X0073620Y0110086D01*
X0073550Y0110015D01*
X0073478Y0109947D01*
X0073403Y0109881D01*
X0073325Y0109819D01*
X0073245Y0109760D01*
X0073163Y0109704D01*
X0073079Y0109652D01*
X0072992Y0109603D01*
X0072904Y0109557D01*
X0072814Y0109515D01*
X0072722Y0109476D01*
X0072629Y0109441D01*
X0072535Y0109410D01*
X0072439Y0109383D01*
X0072342Y0109360D01*
X0072245Y0109340D01*
X0072147Y0109324D01*
X0072048Y0109312D01*
X0071949Y0109304D01*
X0071850Y0109300D01*
X0071750Y0109300D01*
X0071651Y0109304D01*
X0071552Y0109312D01*
X0071453Y0109324D01*
X0071355Y0109340D01*
X0071258Y0109360D01*
X0071161Y0109383D01*
X0071065Y0109410D01*
X0070971Y0109441D01*
X0070878Y0109476D01*
X0070786Y0109515D01*
X0070696Y0109557D01*
X0070608Y0109603D01*
X0070521Y0109652D01*
X0070437Y0109704D01*
X0070355Y0109760D01*
X0070275Y0109819D01*
X0070197Y0109881D01*
X0070122Y0109947D01*
X0070050Y0110015D01*
X0069980Y0110086D01*
X0069914Y0110159D01*
X0069850Y0110236D01*
X0069789Y0110314D01*
X0069732Y0110396D01*
X0069678Y0110479D01*
X0069627Y0110564D01*
X0069579Y0110652D01*
X0069535Y0110741D01*
X0069495Y0110832D01*
X0069458Y0110924D01*
X0069425Y0111018D01*
X0069396Y0111113D01*
X0069371Y0111209D01*
X0069349Y0111306D01*
X0069332Y0111404D01*
X0069318Y0111502D01*
X0069308Y0111601D01*
X0069302Y0111701D01*
X0069300Y0111800D01*
D11*
X0071800Y0111800D03*
D12*
X0071800Y0061800D03*
X0071800Y0051800D03*
X0071800Y0031800D03*
X0011800Y0031800D03*
D13*
X0007375Y0081800D02*
X0016225Y0081800D01*
X0067375Y0081800D02*
X0076225Y0081800D01*
D14*
X0041800Y0109300D03*
X0014300Y0109300D03*
X0014300Y0014300D03*
X0069300Y0014300D03*
D15*
X0014800Y0051800D02*
X0008800Y0051800D01*
X0008800Y0061800D02*
X0014800Y0061800D01*
D16*
X0031800Y0020100D02*
X0031800Y0013500D01*
X0041800Y0013500D02*
X0041800Y0020100D01*
X0051800Y0020100D02*
X0051800Y0013500D01*
D17*
X0041800Y0085800D03*
M02*
