G75*
%MOIN*%
%OFA0B0*%
%FSLAX25Y25*%
%IPPOS*%
%LPD*%
%AMOC8*
5,1,8,0,0,1.08239X$1,22.5*
%
%ADD10C,0.00000*%
%ADD11C,0.21126*%
%ADD12OC8,0.05200*%
%ADD13C,0.06600*%
%ADD14R,0.05000X0.10000*%
%ADD15OC8,0.15000*%
%ADD16C,0.00984*%
%ADD17C,0.11811*%
%ADD18C,0.01000*%
D10*
X0003000Y0003822D02*
X0003000Y0106184D01*
X0239220Y0106184D01*
X0239220Y0003822D01*
X0003000Y0003822D01*
X0026622Y0019570D02*
X0034496Y0019570D01*
X0034620Y0019572D01*
X0034743Y0019578D01*
X0034867Y0019587D01*
X0034989Y0019601D01*
X0035112Y0019618D01*
X0035234Y0019640D01*
X0035355Y0019665D01*
X0035475Y0019694D01*
X0035594Y0019726D01*
X0035713Y0019763D01*
X0035830Y0019803D01*
X0035945Y0019846D01*
X0036060Y0019894D01*
X0036172Y0019945D01*
X0036283Y0019999D01*
X0036393Y0020057D01*
X0036500Y0020118D01*
X0036606Y0020183D01*
X0036709Y0020251D01*
X0036810Y0020322D01*
X0036909Y0020396D01*
X0037006Y0020473D01*
X0037100Y0020554D01*
X0037191Y0020637D01*
X0037280Y0020723D01*
X0037366Y0020812D01*
X0037449Y0020903D01*
X0037530Y0020997D01*
X0037607Y0021094D01*
X0037681Y0021193D01*
X0037752Y0021294D01*
X0037820Y0021397D01*
X0037885Y0021503D01*
X0037946Y0021610D01*
X0038004Y0021720D01*
X0038058Y0021831D01*
X0038109Y0021943D01*
X0038157Y0022058D01*
X0038200Y0022173D01*
X0038240Y0022290D01*
X0038277Y0022409D01*
X0038309Y0022528D01*
X0038338Y0022648D01*
X0038363Y0022769D01*
X0038385Y0022891D01*
X0038402Y0023014D01*
X0038416Y0023136D01*
X0038425Y0023260D01*
X0038431Y0023383D01*
X0038433Y0023507D01*
X0038431Y0023631D01*
X0038425Y0023754D01*
X0038416Y0023878D01*
X0038402Y0024000D01*
X0038385Y0024123D01*
X0038363Y0024245D01*
X0038338Y0024366D01*
X0038309Y0024486D01*
X0038277Y0024605D01*
X0038240Y0024724D01*
X0038200Y0024841D01*
X0038157Y0024956D01*
X0038109Y0025071D01*
X0038058Y0025183D01*
X0038004Y0025294D01*
X0037946Y0025404D01*
X0037885Y0025511D01*
X0037820Y0025617D01*
X0037752Y0025720D01*
X0037681Y0025821D01*
X0037607Y0025920D01*
X0037530Y0026017D01*
X0037449Y0026111D01*
X0037366Y0026202D01*
X0037280Y0026291D01*
X0037191Y0026377D01*
X0037100Y0026460D01*
X0037006Y0026541D01*
X0036909Y0026618D01*
X0036810Y0026692D01*
X0036709Y0026763D01*
X0036606Y0026831D01*
X0036500Y0026896D01*
X0036393Y0026957D01*
X0036283Y0027015D01*
X0036172Y0027069D01*
X0036060Y0027120D01*
X0035945Y0027168D01*
X0035830Y0027211D01*
X0035713Y0027251D01*
X0035594Y0027288D01*
X0035475Y0027320D01*
X0035355Y0027349D01*
X0035234Y0027374D01*
X0035112Y0027396D01*
X0034989Y0027413D01*
X0034867Y0027427D01*
X0034743Y0027436D01*
X0034620Y0027442D01*
X0034496Y0027444D01*
X0026622Y0027444D01*
X0026498Y0027442D01*
X0026375Y0027436D01*
X0026251Y0027427D01*
X0026129Y0027413D01*
X0026006Y0027396D01*
X0025884Y0027374D01*
X0025763Y0027349D01*
X0025643Y0027320D01*
X0025524Y0027288D01*
X0025405Y0027251D01*
X0025288Y0027211D01*
X0025173Y0027168D01*
X0025058Y0027120D01*
X0024946Y0027069D01*
X0024835Y0027015D01*
X0024725Y0026957D01*
X0024618Y0026896D01*
X0024512Y0026831D01*
X0024409Y0026763D01*
X0024308Y0026692D01*
X0024209Y0026618D01*
X0024112Y0026541D01*
X0024018Y0026460D01*
X0023927Y0026377D01*
X0023838Y0026291D01*
X0023752Y0026202D01*
X0023669Y0026111D01*
X0023588Y0026017D01*
X0023511Y0025920D01*
X0023437Y0025821D01*
X0023366Y0025720D01*
X0023298Y0025617D01*
X0023233Y0025511D01*
X0023172Y0025404D01*
X0023114Y0025294D01*
X0023060Y0025183D01*
X0023009Y0025071D01*
X0022961Y0024956D01*
X0022918Y0024841D01*
X0022878Y0024724D01*
X0022841Y0024605D01*
X0022809Y0024486D01*
X0022780Y0024366D01*
X0022755Y0024245D01*
X0022733Y0024123D01*
X0022716Y0024000D01*
X0022702Y0023878D01*
X0022693Y0023754D01*
X0022687Y0023631D01*
X0022685Y0023507D01*
X0022687Y0023383D01*
X0022693Y0023260D01*
X0022702Y0023136D01*
X0022716Y0023014D01*
X0022733Y0022891D01*
X0022755Y0022769D01*
X0022780Y0022648D01*
X0022809Y0022528D01*
X0022841Y0022409D01*
X0022878Y0022290D01*
X0022918Y0022173D01*
X0022961Y0022058D01*
X0023009Y0021943D01*
X0023060Y0021831D01*
X0023114Y0021720D01*
X0023172Y0021610D01*
X0023233Y0021503D01*
X0023298Y0021397D01*
X0023366Y0021294D01*
X0023437Y0021193D01*
X0023511Y0021094D01*
X0023588Y0020997D01*
X0023669Y0020903D01*
X0023752Y0020812D01*
X0023838Y0020723D01*
X0023927Y0020637D01*
X0024018Y0020554D01*
X0024112Y0020473D01*
X0024209Y0020396D01*
X0024308Y0020322D01*
X0024409Y0020251D01*
X0024512Y0020183D01*
X0024618Y0020118D01*
X0024725Y0020057D01*
X0024835Y0019999D01*
X0024946Y0019945D01*
X0025058Y0019894D01*
X0025173Y0019846D01*
X0025288Y0019803D01*
X0025405Y0019763D01*
X0025524Y0019726D01*
X0025643Y0019694D01*
X0025763Y0019665D01*
X0025884Y0019640D01*
X0026006Y0019618D01*
X0026129Y0019601D01*
X0026251Y0019587D01*
X0026375Y0019578D01*
X0026498Y0019572D01*
X0026622Y0019570D01*
X0028591Y0043192D02*
X0044339Y0043192D01*
X0044627Y0043196D01*
X0044914Y0043206D01*
X0045201Y0043224D01*
X0045488Y0043248D01*
X0045774Y0043279D01*
X0046059Y0043318D01*
X0046343Y0043363D01*
X0046626Y0043415D01*
X0046907Y0043475D01*
X0047187Y0043541D01*
X0047465Y0043613D01*
X0047742Y0043693D01*
X0048016Y0043779D01*
X0048288Y0043872D01*
X0048558Y0043971D01*
X0048826Y0044077D01*
X0049090Y0044190D01*
X0049352Y0044309D01*
X0049611Y0044434D01*
X0049867Y0044566D01*
X0050120Y0044703D01*
X0050369Y0044847D01*
X0050614Y0044997D01*
X0050856Y0045153D01*
X0051094Y0045314D01*
X0051328Y0045482D01*
X0051558Y0045655D01*
X0051783Y0045833D01*
X0052004Y0046017D01*
X0052221Y0046206D01*
X0052433Y0046401D01*
X0052640Y0046601D01*
X0052842Y0046805D01*
X0053039Y0047015D01*
X0053231Y0047229D01*
X0053417Y0047448D01*
X0053599Y0047671D01*
X0053775Y0047899D01*
X0053945Y0048131D01*
X0054109Y0048367D01*
X0054268Y0048606D01*
X0054421Y0048850D01*
X0054568Y0049098D01*
X0054708Y0049348D01*
X0054843Y0049603D01*
X0054971Y0049860D01*
X0055093Y0050120D01*
X0055209Y0050384D01*
X0055318Y0050650D01*
X0055421Y0050918D01*
X0055517Y0051189D01*
X0055607Y0051463D01*
X0055690Y0051738D01*
X0055766Y0052016D01*
X0055835Y0052295D01*
X0055898Y0052575D01*
X0055954Y0052858D01*
X0056002Y0053141D01*
X0056044Y0053426D01*
X0056079Y0053711D01*
X0056107Y0053997D01*
X0056128Y0054284D01*
X0056142Y0054572D01*
X0056149Y0054859D01*
X0056149Y0055147D01*
X0056142Y0055434D01*
X0056128Y0055722D01*
X0056107Y0056009D01*
X0056079Y0056295D01*
X0056044Y0056580D01*
X0056002Y0056865D01*
X0055954Y0057148D01*
X0055898Y0057431D01*
X0055835Y0057711D01*
X0055766Y0057990D01*
X0055690Y0058268D01*
X0055607Y0058543D01*
X0055517Y0058817D01*
X0055421Y0059088D01*
X0055318Y0059356D01*
X0055209Y0059622D01*
X0055093Y0059886D01*
X0054971Y0060146D01*
X0054843Y0060403D01*
X0054708Y0060658D01*
X0054568Y0060909D01*
X0054421Y0061156D01*
X0054268Y0061400D01*
X0054109Y0061639D01*
X0053945Y0061875D01*
X0053775Y0062107D01*
X0053599Y0062335D01*
X0053417Y0062558D01*
X0053231Y0062777D01*
X0053039Y0062991D01*
X0052842Y0063201D01*
X0052640Y0063405D01*
X0052433Y0063605D01*
X0052221Y0063800D01*
X0052004Y0063989D01*
X0051783Y0064173D01*
X0051558Y0064351D01*
X0051328Y0064524D01*
X0051094Y0064692D01*
X0050856Y0064853D01*
X0050614Y0065009D01*
X0050369Y0065159D01*
X0050120Y0065303D01*
X0049867Y0065440D01*
X0049611Y0065572D01*
X0049352Y0065697D01*
X0049090Y0065816D01*
X0048826Y0065929D01*
X0048558Y0066035D01*
X0048288Y0066134D01*
X0048016Y0066227D01*
X0047742Y0066313D01*
X0047465Y0066393D01*
X0047187Y0066465D01*
X0046907Y0066531D01*
X0046626Y0066591D01*
X0046343Y0066643D01*
X0046059Y0066688D01*
X0045774Y0066727D01*
X0045488Y0066758D01*
X0045201Y0066782D01*
X0044914Y0066800D01*
X0044627Y0066810D01*
X0044339Y0066814D01*
X0028591Y0066814D01*
X0028303Y0066810D01*
X0028016Y0066800D01*
X0027729Y0066782D01*
X0027442Y0066758D01*
X0027156Y0066727D01*
X0026871Y0066688D01*
X0026587Y0066643D01*
X0026304Y0066591D01*
X0026023Y0066531D01*
X0025743Y0066465D01*
X0025465Y0066393D01*
X0025188Y0066313D01*
X0024914Y0066227D01*
X0024642Y0066134D01*
X0024372Y0066035D01*
X0024104Y0065929D01*
X0023840Y0065816D01*
X0023578Y0065697D01*
X0023319Y0065572D01*
X0023063Y0065440D01*
X0022810Y0065303D01*
X0022561Y0065159D01*
X0022316Y0065009D01*
X0022074Y0064853D01*
X0021836Y0064692D01*
X0021602Y0064524D01*
X0021372Y0064351D01*
X0021147Y0064173D01*
X0020926Y0063989D01*
X0020709Y0063800D01*
X0020497Y0063605D01*
X0020290Y0063405D01*
X0020088Y0063201D01*
X0019891Y0062991D01*
X0019699Y0062777D01*
X0019513Y0062558D01*
X0019331Y0062335D01*
X0019155Y0062107D01*
X0018985Y0061875D01*
X0018821Y0061639D01*
X0018662Y0061400D01*
X0018509Y0061156D01*
X0018362Y0060908D01*
X0018222Y0060658D01*
X0018087Y0060403D01*
X0017959Y0060146D01*
X0017837Y0059886D01*
X0017721Y0059622D01*
X0017612Y0059356D01*
X0017509Y0059088D01*
X0017413Y0058817D01*
X0017323Y0058543D01*
X0017240Y0058268D01*
X0017164Y0057990D01*
X0017095Y0057711D01*
X0017032Y0057431D01*
X0016976Y0057148D01*
X0016928Y0056865D01*
X0016886Y0056580D01*
X0016851Y0056295D01*
X0016823Y0056009D01*
X0016802Y0055722D01*
X0016788Y0055434D01*
X0016781Y0055147D01*
X0016781Y0054859D01*
X0016788Y0054572D01*
X0016802Y0054284D01*
X0016823Y0053997D01*
X0016851Y0053711D01*
X0016886Y0053426D01*
X0016928Y0053141D01*
X0016976Y0052858D01*
X0017032Y0052575D01*
X0017095Y0052295D01*
X0017164Y0052016D01*
X0017240Y0051738D01*
X0017323Y0051463D01*
X0017413Y0051189D01*
X0017509Y0050918D01*
X0017612Y0050650D01*
X0017721Y0050384D01*
X0017837Y0050120D01*
X0017959Y0049860D01*
X0018087Y0049603D01*
X0018222Y0049348D01*
X0018362Y0049097D01*
X0018509Y0048850D01*
X0018662Y0048606D01*
X0018821Y0048367D01*
X0018985Y0048131D01*
X0019155Y0047899D01*
X0019331Y0047671D01*
X0019513Y0047448D01*
X0019699Y0047229D01*
X0019891Y0047015D01*
X0020088Y0046805D01*
X0020290Y0046601D01*
X0020497Y0046401D01*
X0020709Y0046206D01*
X0020926Y0046017D01*
X0021147Y0045833D01*
X0021372Y0045655D01*
X0021602Y0045482D01*
X0021836Y0045314D01*
X0022074Y0045153D01*
X0022316Y0044997D01*
X0022561Y0044847D01*
X0022810Y0044703D01*
X0023063Y0044566D01*
X0023319Y0044434D01*
X0023578Y0044309D01*
X0023840Y0044190D01*
X0024104Y0044077D01*
X0024372Y0043971D01*
X0024642Y0043872D01*
X0024914Y0043779D01*
X0025188Y0043693D01*
X0025465Y0043613D01*
X0025743Y0043541D01*
X0026023Y0043475D01*
X0026304Y0043415D01*
X0026587Y0043363D01*
X0026871Y0043318D01*
X0027156Y0043279D01*
X0027442Y0043248D01*
X0027729Y0043224D01*
X0028016Y0043206D01*
X0028303Y0043196D01*
X0028591Y0043192D01*
X0038433Y0082562D02*
X0046307Y0082562D01*
X0046431Y0082564D01*
X0046554Y0082570D01*
X0046678Y0082579D01*
X0046800Y0082593D01*
X0046923Y0082610D01*
X0047045Y0082632D01*
X0047166Y0082657D01*
X0047286Y0082686D01*
X0047405Y0082718D01*
X0047524Y0082755D01*
X0047641Y0082795D01*
X0047756Y0082838D01*
X0047871Y0082886D01*
X0047983Y0082937D01*
X0048094Y0082991D01*
X0048204Y0083049D01*
X0048311Y0083110D01*
X0048417Y0083175D01*
X0048520Y0083243D01*
X0048621Y0083314D01*
X0048720Y0083388D01*
X0048817Y0083465D01*
X0048911Y0083546D01*
X0049002Y0083629D01*
X0049091Y0083715D01*
X0049177Y0083804D01*
X0049260Y0083895D01*
X0049341Y0083989D01*
X0049418Y0084086D01*
X0049492Y0084185D01*
X0049563Y0084286D01*
X0049631Y0084389D01*
X0049696Y0084495D01*
X0049757Y0084602D01*
X0049815Y0084712D01*
X0049869Y0084823D01*
X0049920Y0084935D01*
X0049968Y0085050D01*
X0050011Y0085165D01*
X0050051Y0085282D01*
X0050088Y0085401D01*
X0050120Y0085520D01*
X0050149Y0085640D01*
X0050174Y0085761D01*
X0050196Y0085883D01*
X0050213Y0086006D01*
X0050227Y0086128D01*
X0050236Y0086252D01*
X0050242Y0086375D01*
X0050244Y0086499D01*
X0050242Y0086623D01*
X0050236Y0086746D01*
X0050227Y0086870D01*
X0050213Y0086992D01*
X0050196Y0087115D01*
X0050174Y0087237D01*
X0050149Y0087358D01*
X0050120Y0087478D01*
X0050088Y0087597D01*
X0050051Y0087716D01*
X0050011Y0087833D01*
X0049968Y0087948D01*
X0049920Y0088063D01*
X0049869Y0088175D01*
X0049815Y0088286D01*
X0049757Y0088396D01*
X0049696Y0088503D01*
X0049631Y0088609D01*
X0049563Y0088712D01*
X0049492Y0088813D01*
X0049418Y0088912D01*
X0049341Y0089009D01*
X0049260Y0089103D01*
X0049177Y0089194D01*
X0049091Y0089283D01*
X0049002Y0089369D01*
X0048911Y0089452D01*
X0048817Y0089533D01*
X0048720Y0089610D01*
X0048621Y0089684D01*
X0048520Y0089755D01*
X0048417Y0089823D01*
X0048311Y0089888D01*
X0048204Y0089949D01*
X0048094Y0090007D01*
X0047983Y0090061D01*
X0047871Y0090112D01*
X0047756Y0090160D01*
X0047641Y0090203D01*
X0047524Y0090243D01*
X0047405Y0090280D01*
X0047286Y0090312D01*
X0047166Y0090341D01*
X0047045Y0090366D01*
X0046923Y0090388D01*
X0046800Y0090405D01*
X0046678Y0090419D01*
X0046554Y0090428D01*
X0046431Y0090434D01*
X0046307Y0090436D01*
X0038433Y0090436D01*
X0038309Y0090434D01*
X0038186Y0090428D01*
X0038062Y0090419D01*
X0037940Y0090405D01*
X0037817Y0090388D01*
X0037695Y0090366D01*
X0037574Y0090341D01*
X0037454Y0090312D01*
X0037335Y0090280D01*
X0037216Y0090243D01*
X0037099Y0090203D01*
X0036984Y0090160D01*
X0036869Y0090112D01*
X0036757Y0090061D01*
X0036646Y0090007D01*
X0036536Y0089949D01*
X0036429Y0089888D01*
X0036323Y0089823D01*
X0036220Y0089755D01*
X0036119Y0089684D01*
X0036020Y0089610D01*
X0035923Y0089533D01*
X0035829Y0089452D01*
X0035738Y0089369D01*
X0035649Y0089283D01*
X0035563Y0089194D01*
X0035480Y0089103D01*
X0035399Y0089009D01*
X0035322Y0088912D01*
X0035248Y0088813D01*
X0035177Y0088712D01*
X0035109Y0088609D01*
X0035044Y0088503D01*
X0034983Y0088396D01*
X0034925Y0088286D01*
X0034871Y0088175D01*
X0034820Y0088063D01*
X0034772Y0087948D01*
X0034729Y0087833D01*
X0034689Y0087716D01*
X0034652Y0087597D01*
X0034620Y0087478D01*
X0034591Y0087358D01*
X0034566Y0087237D01*
X0034544Y0087115D01*
X0034527Y0086992D01*
X0034513Y0086870D01*
X0034504Y0086746D01*
X0034498Y0086623D01*
X0034496Y0086499D01*
X0034498Y0086375D01*
X0034504Y0086252D01*
X0034513Y0086128D01*
X0034527Y0086006D01*
X0034544Y0085883D01*
X0034566Y0085761D01*
X0034591Y0085640D01*
X0034620Y0085520D01*
X0034652Y0085401D01*
X0034689Y0085282D01*
X0034729Y0085165D01*
X0034772Y0085050D01*
X0034820Y0084935D01*
X0034871Y0084823D01*
X0034925Y0084712D01*
X0034983Y0084602D01*
X0035044Y0084495D01*
X0035109Y0084389D01*
X0035177Y0084286D01*
X0035248Y0084185D01*
X0035322Y0084086D01*
X0035399Y0083989D01*
X0035480Y0083895D01*
X0035563Y0083804D01*
X0035649Y0083715D01*
X0035738Y0083629D01*
X0035829Y0083546D01*
X0035923Y0083465D01*
X0036020Y0083388D01*
X0036119Y0083314D01*
X0036220Y0083243D01*
X0036323Y0083175D01*
X0036429Y0083110D01*
X0036536Y0083049D01*
X0036646Y0082991D01*
X0036757Y0082937D01*
X0036869Y0082886D01*
X0036984Y0082838D01*
X0037099Y0082795D01*
X0037216Y0082755D01*
X0037335Y0082718D01*
X0037454Y0082686D01*
X0037574Y0082657D01*
X0037695Y0082632D01*
X0037817Y0082610D01*
X0037940Y0082593D01*
X0038062Y0082579D01*
X0038186Y0082570D01*
X0038309Y0082564D01*
X0038433Y0082562D01*
X0195913Y0027444D02*
X0203787Y0027444D01*
X0203911Y0027442D01*
X0204034Y0027436D01*
X0204158Y0027427D01*
X0204280Y0027413D01*
X0204403Y0027396D01*
X0204525Y0027374D01*
X0204646Y0027349D01*
X0204766Y0027320D01*
X0204885Y0027288D01*
X0205004Y0027251D01*
X0205121Y0027211D01*
X0205236Y0027168D01*
X0205351Y0027120D01*
X0205463Y0027069D01*
X0205574Y0027015D01*
X0205684Y0026957D01*
X0205791Y0026896D01*
X0205897Y0026831D01*
X0206000Y0026763D01*
X0206101Y0026692D01*
X0206200Y0026618D01*
X0206297Y0026541D01*
X0206391Y0026460D01*
X0206482Y0026377D01*
X0206571Y0026291D01*
X0206657Y0026202D01*
X0206740Y0026111D01*
X0206821Y0026017D01*
X0206898Y0025920D01*
X0206972Y0025821D01*
X0207043Y0025720D01*
X0207111Y0025617D01*
X0207176Y0025511D01*
X0207237Y0025404D01*
X0207295Y0025294D01*
X0207349Y0025183D01*
X0207400Y0025071D01*
X0207448Y0024956D01*
X0207491Y0024841D01*
X0207531Y0024724D01*
X0207568Y0024605D01*
X0207600Y0024486D01*
X0207629Y0024366D01*
X0207654Y0024245D01*
X0207676Y0024123D01*
X0207693Y0024000D01*
X0207707Y0023878D01*
X0207716Y0023754D01*
X0207722Y0023631D01*
X0207724Y0023507D01*
X0207722Y0023383D01*
X0207716Y0023260D01*
X0207707Y0023136D01*
X0207693Y0023014D01*
X0207676Y0022891D01*
X0207654Y0022769D01*
X0207629Y0022648D01*
X0207600Y0022528D01*
X0207568Y0022409D01*
X0207531Y0022290D01*
X0207491Y0022173D01*
X0207448Y0022058D01*
X0207400Y0021943D01*
X0207349Y0021831D01*
X0207295Y0021720D01*
X0207237Y0021610D01*
X0207176Y0021503D01*
X0207111Y0021397D01*
X0207043Y0021294D01*
X0206972Y0021193D01*
X0206898Y0021094D01*
X0206821Y0020997D01*
X0206740Y0020903D01*
X0206657Y0020812D01*
X0206571Y0020723D01*
X0206482Y0020637D01*
X0206391Y0020554D01*
X0206297Y0020473D01*
X0206200Y0020396D01*
X0206101Y0020322D01*
X0206000Y0020251D01*
X0205897Y0020183D01*
X0205791Y0020118D01*
X0205684Y0020057D01*
X0205574Y0019999D01*
X0205463Y0019945D01*
X0205351Y0019894D01*
X0205236Y0019846D01*
X0205121Y0019803D01*
X0205004Y0019763D01*
X0204885Y0019726D01*
X0204766Y0019694D01*
X0204646Y0019665D01*
X0204525Y0019640D01*
X0204403Y0019618D01*
X0204280Y0019601D01*
X0204158Y0019587D01*
X0204034Y0019578D01*
X0203911Y0019572D01*
X0203787Y0019570D01*
X0195913Y0019570D01*
X0195789Y0019572D01*
X0195666Y0019578D01*
X0195542Y0019587D01*
X0195420Y0019601D01*
X0195297Y0019618D01*
X0195175Y0019640D01*
X0195054Y0019665D01*
X0194934Y0019694D01*
X0194815Y0019726D01*
X0194696Y0019763D01*
X0194579Y0019803D01*
X0194464Y0019846D01*
X0194349Y0019894D01*
X0194237Y0019945D01*
X0194126Y0019999D01*
X0194016Y0020057D01*
X0193909Y0020118D01*
X0193803Y0020183D01*
X0193700Y0020251D01*
X0193599Y0020322D01*
X0193500Y0020396D01*
X0193403Y0020473D01*
X0193309Y0020554D01*
X0193218Y0020637D01*
X0193129Y0020723D01*
X0193043Y0020812D01*
X0192960Y0020903D01*
X0192879Y0020997D01*
X0192802Y0021094D01*
X0192728Y0021193D01*
X0192657Y0021294D01*
X0192589Y0021397D01*
X0192524Y0021503D01*
X0192463Y0021610D01*
X0192405Y0021720D01*
X0192351Y0021831D01*
X0192300Y0021943D01*
X0192252Y0022058D01*
X0192209Y0022173D01*
X0192169Y0022290D01*
X0192132Y0022409D01*
X0192100Y0022528D01*
X0192071Y0022648D01*
X0192046Y0022769D01*
X0192024Y0022891D01*
X0192007Y0023014D01*
X0191993Y0023136D01*
X0191984Y0023260D01*
X0191978Y0023383D01*
X0191976Y0023507D01*
X0191978Y0023631D01*
X0191984Y0023754D01*
X0191993Y0023878D01*
X0192007Y0024000D01*
X0192024Y0024123D01*
X0192046Y0024245D01*
X0192071Y0024366D01*
X0192100Y0024486D01*
X0192132Y0024605D01*
X0192169Y0024724D01*
X0192209Y0024841D01*
X0192252Y0024956D01*
X0192300Y0025071D01*
X0192351Y0025183D01*
X0192405Y0025294D01*
X0192463Y0025404D01*
X0192524Y0025511D01*
X0192589Y0025617D01*
X0192657Y0025720D01*
X0192728Y0025821D01*
X0192802Y0025920D01*
X0192879Y0026017D01*
X0192960Y0026111D01*
X0193043Y0026202D01*
X0193129Y0026291D01*
X0193218Y0026377D01*
X0193309Y0026460D01*
X0193403Y0026541D01*
X0193500Y0026618D01*
X0193599Y0026692D01*
X0193700Y0026763D01*
X0193803Y0026831D01*
X0193909Y0026896D01*
X0194016Y0026957D01*
X0194126Y0027015D01*
X0194237Y0027069D01*
X0194349Y0027120D01*
X0194464Y0027168D01*
X0194579Y0027211D01*
X0194696Y0027251D01*
X0194815Y0027288D01*
X0194934Y0027320D01*
X0195054Y0027349D01*
X0195175Y0027374D01*
X0195297Y0027396D01*
X0195420Y0027413D01*
X0195542Y0027427D01*
X0195666Y0027436D01*
X0195789Y0027442D01*
X0195913Y0027444D01*
X0197882Y0043192D02*
X0213630Y0043192D01*
X0213918Y0043196D01*
X0214205Y0043206D01*
X0214492Y0043224D01*
X0214779Y0043248D01*
X0215065Y0043279D01*
X0215350Y0043318D01*
X0215634Y0043363D01*
X0215917Y0043415D01*
X0216198Y0043475D01*
X0216478Y0043541D01*
X0216756Y0043613D01*
X0217033Y0043693D01*
X0217307Y0043779D01*
X0217579Y0043872D01*
X0217849Y0043971D01*
X0218117Y0044077D01*
X0218381Y0044190D01*
X0218643Y0044309D01*
X0218902Y0044434D01*
X0219158Y0044566D01*
X0219411Y0044703D01*
X0219660Y0044847D01*
X0219905Y0044997D01*
X0220147Y0045153D01*
X0220385Y0045314D01*
X0220619Y0045482D01*
X0220849Y0045655D01*
X0221074Y0045833D01*
X0221295Y0046017D01*
X0221512Y0046206D01*
X0221724Y0046401D01*
X0221931Y0046601D01*
X0222133Y0046805D01*
X0222330Y0047015D01*
X0222522Y0047229D01*
X0222708Y0047448D01*
X0222890Y0047671D01*
X0223066Y0047899D01*
X0223236Y0048131D01*
X0223400Y0048367D01*
X0223559Y0048606D01*
X0223712Y0048850D01*
X0223859Y0049098D01*
X0223999Y0049348D01*
X0224134Y0049603D01*
X0224262Y0049860D01*
X0224384Y0050120D01*
X0224500Y0050384D01*
X0224609Y0050650D01*
X0224712Y0050918D01*
X0224808Y0051189D01*
X0224898Y0051463D01*
X0224981Y0051738D01*
X0225057Y0052016D01*
X0225126Y0052295D01*
X0225189Y0052575D01*
X0225245Y0052858D01*
X0225293Y0053141D01*
X0225335Y0053426D01*
X0225370Y0053711D01*
X0225398Y0053997D01*
X0225419Y0054284D01*
X0225433Y0054572D01*
X0225440Y0054859D01*
X0225440Y0055147D01*
X0225433Y0055434D01*
X0225419Y0055722D01*
X0225398Y0056009D01*
X0225370Y0056295D01*
X0225335Y0056580D01*
X0225293Y0056865D01*
X0225245Y0057148D01*
X0225189Y0057431D01*
X0225126Y0057711D01*
X0225057Y0057990D01*
X0224981Y0058268D01*
X0224898Y0058543D01*
X0224808Y0058817D01*
X0224712Y0059088D01*
X0224609Y0059356D01*
X0224500Y0059622D01*
X0224384Y0059886D01*
X0224262Y0060146D01*
X0224134Y0060403D01*
X0223999Y0060658D01*
X0223859Y0060909D01*
X0223712Y0061156D01*
X0223559Y0061400D01*
X0223400Y0061639D01*
X0223236Y0061875D01*
X0223066Y0062107D01*
X0222890Y0062335D01*
X0222708Y0062558D01*
X0222522Y0062777D01*
X0222330Y0062991D01*
X0222133Y0063201D01*
X0221931Y0063405D01*
X0221724Y0063605D01*
X0221512Y0063800D01*
X0221295Y0063989D01*
X0221074Y0064173D01*
X0220849Y0064351D01*
X0220619Y0064524D01*
X0220385Y0064692D01*
X0220147Y0064853D01*
X0219905Y0065009D01*
X0219660Y0065159D01*
X0219411Y0065303D01*
X0219158Y0065440D01*
X0218902Y0065572D01*
X0218643Y0065697D01*
X0218381Y0065816D01*
X0218117Y0065929D01*
X0217849Y0066035D01*
X0217579Y0066134D01*
X0217307Y0066227D01*
X0217033Y0066313D01*
X0216756Y0066393D01*
X0216478Y0066465D01*
X0216198Y0066531D01*
X0215917Y0066591D01*
X0215634Y0066643D01*
X0215350Y0066688D01*
X0215065Y0066727D01*
X0214779Y0066758D01*
X0214492Y0066782D01*
X0214205Y0066800D01*
X0213918Y0066810D01*
X0213630Y0066814D01*
X0197882Y0066814D01*
X0197594Y0066810D01*
X0197307Y0066800D01*
X0197020Y0066782D01*
X0196733Y0066758D01*
X0196447Y0066727D01*
X0196162Y0066688D01*
X0195878Y0066643D01*
X0195595Y0066591D01*
X0195314Y0066531D01*
X0195034Y0066465D01*
X0194756Y0066393D01*
X0194479Y0066313D01*
X0194205Y0066227D01*
X0193933Y0066134D01*
X0193663Y0066035D01*
X0193395Y0065929D01*
X0193131Y0065816D01*
X0192869Y0065697D01*
X0192610Y0065572D01*
X0192354Y0065440D01*
X0192101Y0065303D01*
X0191852Y0065159D01*
X0191607Y0065009D01*
X0191365Y0064853D01*
X0191127Y0064692D01*
X0190893Y0064524D01*
X0190663Y0064351D01*
X0190438Y0064173D01*
X0190217Y0063989D01*
X0190000Y0063800D01*
X0189788Y0063605D01*
X0189581Y0063405D01*
X0189379Y0063201D01*
X0189182Y0062991D01*
X0188990Y0062777D01*
X0188804Y0062558D01*
X0188622Y0062335D01*
X0188446Y0062107D01*
X0188276Y0061875D01*
X0188112Y0061639D01*
X0187953Y0061400D01*
X0187800Y0061156D01*
X0187653Y0060908D01*
X0187513Y0060658D01*
X0187378Y0060403D01*
X0187250Y0060146D01*
X0187128Y0059886D01*
X0187012Y0059622D01*
X0186903Y0059356D01*
X0186800Y0059088D01*
X0186704Y0058817D01*
X0186614Y0058543D01*
X0186531Y0058268D01*
X0186455Y0057990D01*
X0186386Y0057711D01*
X0186323Y0057431D01*
X0186267Y0057148D01*
X0186219Y0056865D01*
X0186177Y0056580D01*
X0186142Y0056295D01*
X0186114Y0056009D01*
X0186093Y0055722D01*
X0186079Y0055434D01*
X0186072Y0055147D01*
X0186072Y0054859D01*
X0186079Y0054572D01*
X0186093Y0054284D01*
X0186114Y0053997D01*
X0186142Y0053711D01*
X0186177Y0053426D01*
X0186219Y0053141D01*
X0186267Y0052858D01*
X0186323Y0052575D01*
X0186386Y0052295D01*
X0186455Y0052016D01*
X0186531Y0051738D01*
X0186614Y0051463D01*
X0186704Y0051189D01*
X0186800Y0050918D01*
X0186903Y0050650D01*
X0187012Y0050384D01*
X0187128Y0050120D01*
X0187250Y0049860D01*
X0187378Y0049603D01*
X0187513Y0049348D01*
X0187653Y0049097D01*
X0187800Y0048850D01*
X0187953Y0048606D01*
X0188112Y0048367D01*
X0188276Y0048131D01*
X0188446Y0047899D01*
X0188622Y0047671D01*
X0188804Y0047448D01*
X0188990Y0047229D01*
X0189182Y0047015D01*
X0189379Y0046805D01*
X0189581Y0046601D01*
X0189788Y0046401D01*
X0190000Y0046206D01*
X0190217Y0046017D01*
X0190438Y0045833D01*
X0190663Y0045655D01*
X0190893Y0045482D01*
X0191127Y0045314D01*
X0191365Y0045153D01*
X0191607Y0044997D01*
X0191852Y0044847D01*
X0192101Y0044703D01*
X0192354Y0044566D01*
X0192610Y0044434D01*
X0192869Y0044309D01*
X0193131Y0044190D01*
X0193395Y0044077D01*
X0193663Y0043971D01*
X0193933Y0043872D01*
X0194205Y0043779D01*
X0194479Y0043693D01*
X0194756Y0043613D01*
X0195034Y0043541D01*
X0195314Y0043475D01*
X0195595Y0043415D01*
X0195878Y0043363D01*
X0196162Y0043318D01*
X0196447Y0043279D01*
X0196733Y0043248D01*
X0197020Y0043224D01*
X0197307Y0043206D01*
X0197594Y0043196D01*
X0197882Y0043192D01*
X0207724Y0082562D02*
X0215598Y0082562D01*
X0215722Y0082564D01*
X0215845Y0082570D01*
X0215969Y0082579D01*
X0216091Y0082593D01*
X0216214Y0082610D01*
X0216336Y0082632D01*
X0216457Y0082657D01*
X0216577Y0082686D01*
X0216696Y0082718D01*
X0216815Y0082755D01*
X0216932Y0082795D01*
X0217047Y0082838D01*
X0217162Y0082886D01*
X0217274Y0082937D01*
X0217385Y0082991D01*
X0217495Y0083049D01*
X0217602Y0083110D01*
X0217708Y0083175D01*
X0217811Y0083243D01*
X0217912Y0083314D01*
X0218011Y0083388D01*
X0218108Y0083465D01*
X0218202Y0083546D01*
X0218293Y0083629D01*
X0218382Y0083715D01*
X0218468Y0083804D01*
X0218551Y0083895D01*
X0218632Y0083989D01*
X0218709Y0084086D01*
X0218783Y0084185D01*
X0218854Y0084286D01*
X0218922Y0084389D01*
X0218987Y0084495D01*
X0219048Y0084602D01*
X0219106Y0084712D01*
X0219160Y0084823D01*
X0219211Y0084935D01*
X0219259Y0085050D01*
X0219302Y0085165D01*
X0219342Y0085282D01*
X0219379Y0085401D01*
X0219411Y0085520D01*
X0219440Y0085640D01*
X0219465Y0085761D01*
X0219487Y0085883D01*
X0219504Y0086006D01*
X0219518Y0086128D01*
X0219527Y0086252D01*
X0219533Y0086375D01*
X0219535Y0086499D01*
X0219533Y0086623D01*
X0219527Y0086746D01*
X0219518Y0086870D01*
X0219504Y0086992D01*
X0219487Y0087115D01*
X0219465Y0087237D01*
X0219440Y0087358D01*
X0219411Y0087478D01*
X0219379Y0087597D01*
X0219342Y0087716D01*
X0219302Y0087833D01*
X0219259Y0087948D01*
X0219211Y0088063D01*
X0219160Y0088175D01*
X0219106Y0088286D01*
X0219048Y0088396D01*
X0218987Y0088503D01*
X0218922Y0088609D01*
X0218854Y0088712D01*
X0218783Y0088813D01*
X0218709Y0088912D01*
X0218632Y0089009D01*
X0218551Y0089103D01*
X0218468Y0089194D01*
X0218382Y0089283D01*
X0218293Y0089369D01*
X0218202Y0089452D01*
X0218108Y0089533D01*
X0218011Y0089610D01*
X0217912Y0089684D01*
X0217811Y0089755D01*
X0217708Y0089823D01*
X0217602Y0089888D01*
X0217495Y0089949D01*
X0217385Y0090007D01*
X0217274Y0090061D01*
X0217162Y0090112D01*
X0217047Y0090160D01*
X0216932Y0090203D01*
X0216815Y0090243D01*
X0216696Y0090280D01*
X0216577Y0090312D01*
X0216457Y0090341D01*
X0216336Y0090366D01*
X0216214Y0090388D01*
X0216091Y0090405D01*
X0215969Y0090419D01*
X0215845Y0090428D01*
X0215722Y0090434D01*
X0215598Y0090436D01*
X0207724Y0090436D01*
X0207600Y0090434D01*
X0207477Y0090428D01*
X0207353Y0090419D01*
X0207231Y0090405D01*
X0207108Y0090388D01*
X0206986Y0090366D01*
X0206865Y0090341D01*
X0206745Y0090312D01*
X0206626Y0090280D01*
X0206507Y0090243D01*
X0206390Y0090203D01*
X0206275Y0090160D01*
X0206160Y0090112D01*
X0206048Y0090061D01*
X0205937Y0090007D01*
X0205827Y0089949D01*
X0205720Y0089888D01*
X0205614Y0089823D01*
X0205511Y0089755D01*
X0205410Y0089684D01*
X0205311Y0089610D01*
X0205214Y0089533D01*
X0205120Y0089452D01*
X0205029Y0089369D01*
X0204940Y0089283D01*
X0204854Y0089194D01*
X0204771Y0089103D01*
X0204690Y0089009D01*
X0204613Y0088912D01*
X0204539Y0088813D01*
X0204468Y0088712D01*
X0204400Y0088609D01*
X0204335Y0088503D01*
X0204274Y0088396D01*
X0204216Y0088286D01*
X0204162Y0088175D01*
X0204111Y0088063D01*
X0204063Y0087948D01*
X0204020Y0087833D01*
X0203980Y0087716D01*
X0203943Y0087597D01*
X0203911Y0087478D01*
X0203882Y0087358D01*
X0203857Y0087237D01*
X0203835Y0087115D01*
X0203818Y0086992D01*
X0203804Y0086870D01*
X0203795Y0086746D01*
X0203789Y0086623D01*
X0203787Y0086499D01*
X0203789Y0086375D01*
X0203795Y0086252D01*
X0203804Y0086128D01*
X0203818Y0086006D01*
X0203835Y0085883D01*
X0203857Y0085761D01*
X0203882Y0085640D01*
X0203911Y0085520D01*
X0203943Y0085401D01*
X0203980Y0085282D01*
X0204020Y0085165D01*
X0204063Y0085050D01*
X0204111Y0084935D01*
X0204162Y0084823D01*
X0204216Y0084712D01*
X0204274Y0084602D01*
X0204335Y0084495D01*
X0204400Y0084389D01*
X0204468Y0084286D01*
X0204539Y0084185D01*
X0204613Y0084086D01*
X0204690Y0083989D01*
X0204771Y0083895D01*
X0204854Y0083804D01*
X0204940Y0083715D01*
X0205029Y0083629D01*
X0205120Y0083546D01*
X0205214Y0083465D01*
X0205311Y0083388D01*
X0205410Y0083314D01*
X0205511Y0083243D01*
X0205614Y0083175D01*
X0205720Y0083110D01*
X0205827Y0083049D01*
X0205937Y0082991D01*
X0206048Y0082937D01*
X0206160Y0082886D01*
X0206275Y0082838D01*
X0206390Y0082795D01*
X0206507Y0082755D01*
X0206626Y0082718D01*
X0206745Y0082686D01*
X0206865Y0082657D01*
X0206986Y0082632D01*
X0207108Y0082610D01*
X0207231Y0082593D01*
X0207353Y0082579D01*
X0207477Y0082570D01*
X0207600Y0082564D01*
X0207724Y0082562D01*
D11*
X0135087Y0035318D03*
X0107134Y0035318D03*
D12*
X0081740Y0045003D03*
X0081740Y0065003D03*
X0126858Y0082562D03*
X0146858Y0082562D03*
X0160480Y0065003D03*
X0160480Y0045003D03*
D13*
X0109614Y0082562D03*
X0069614Y0082562D03*
D14*
X0026622Y0086499D03*
X0014811Y0023507D03*
X0215598Y0023507D03*
X0227409Y0086499D03*
D15*
X0160480Y0023507D03*
X0081740Y0023507D03*
D16*
X0036465Y0017601D02*
X0036617Y0017603D01*
X0036769Y0017609D01*
X0036921Y0017619D01*
X0037072Y0017632D01*
X0037223Y0017650D01*
X0037374Y0017671D01*
X0037524Y0017697D01*
X0037673Y0017726D01*
X0037822Y0017759D01*
X0037969Y0017796D01*
X0038116Y0017836D01*
X0038261Y0017881D01*
X0038405Y0017929D01*
X0038548Y0017981D01*
X0038690Y0018036D01*
X0038830Y0018095D01*
X0038969Y0018158D01*
X0039106Y0018224D01*
X0039241Y0018294D01*
X0039374Y0018367D01*
X0039505Y0018444D01*
X0039635Y0018524D01*
X0039762Y0018607D01*
X0039887Y0018693D01*
X0040010Y0018783D01*
X0040130Y0018876D01*
X0040248Y0018972D01*
X0040364Y0019071D01*
X0040477Y0019173D01*
X0040587Y0019277D01*
X0040695Y0019385D01*
X0040799Y0019495D01*
X0040901Y0019608D01*
X0041000Y0019724D01*
X0041096Y0019842D01*
X0041189Y0019962D01*
X0041279Y0020085D01*
X0041365Y0020210D01*
X0041448Y0020337D01*
X0041528Y0020467D01*
X0041605Y0020598D01*
X0041678Y0020731D01*
X0041748Y0020866D01*
X0041814Y0021003D01*
X0041877Y0021142D01*
X0041936Y0021282D01*
X0041991Y0021424D01*
X0042043Y0021567D01*
X0042091Y0021711D01*
X0042136Y0021856D01*
X0042176Y0022003D01*
X0042213Y0022150D01*
X0042246Y0022299D01*
X0042275Y0022448D01*
X0042301Y0022598D01*
X0042322Y0022749D01*
X0042340Y0022900D01*
X0042353Y0023051D01*
X0042363Y0023203D01*
X0042369Y0023355D01*
X0042371Y0023507D01*
X0042369Y0023659D01*
X0042363Y0023811D01*
X0042353Y0023963D01*
X0042340Y0024114D01*
X0042322Y0024265D01*
X0042301Y0024416D01*
X0042275Y0024566D01*
X0042246Y0024715D01*
X0042213Y0024864D01*
X0042176Y0025011D01*
X0042136Y0025158D01*
X0042091Y0025303D01*
X0042043Y0025447D01*
X0041991Y0025590D01*
X0041936Y0025732D01*
X0041877Y0025872D01*
X0041814Y0026011D01*
X0041748Y0026148D01*
X0041678Y0026283D01*
X0041605Y0026416D01*
X0041528Y0026547D01*
X0041448Y0026677D01*
X0041365Y0026804D01*
X0041279Y0026929D01*
X0041189Y0027052D01*
X0041096Y0027172D01*
X0041000Y0027290D01*
X0040901Y0027406D01*
X0040799Y0027519D01*
X0040695Y0027629D01*
X0040587Y0027737D01*
X0040477Y0027841D01*
X0040364Y0027943D01*
X0040248Y0028042D01*
X0040130Y0028138D01*
X0040010Y0028231D01*
X0039887Y0028321D01*
X0039762Y0028407D01*
X0039635Y0028490D01*
X0039505Y0028570D01*
X0039374Y0028647D01*
X0039241Y0028720D01*
X0039106Y0028790D01*
X0038969Y0028856D01*
X0038830Y0028919D01*
X0038690Y0028978D01*
X0038548Y0029033D01*
X0038405Y0029085D01*
X0038261Y0029133D01*
X0038116Y0029178D01*
X0037969Y0029218D01*
X0037822Y0029255D01*
X0037673Y0029288D01*
X0037524Y0029317D01*
X0037374Y0029343D01*
X0037223Y0029364D01*
X0037072Y0029382D01*
X0036921Y0029395D01*
X0036769Y0029405D01*
X0036617Y0029411D01*
X0036465Y0029413D01*
X0036465Y0029412D02*
X0024654Y0029412D01*
X0024654Y0029413D02*
X0024502Y0029411D01*
X0024350Y0029405D01*
X0024198Y0029395D01*
X0024047Y0029382D01*
X0023896Y0029364D01*
X0023745Y0029343D01*
X0023595Y0029317D01*
X0023446Y0029288D01*
X0023297Y0029255D01*
X0023150Y0029218D01*
X0023003Y0029178D01*
X0022858Y0029133D01*
X0022714Y0029085D01*
X0022571Y0029033D01*
X0022429Y0028978D01*
X0022289Y0028919D01*
X0022150Y0028856D01*
X0022013Y0028790D01*
X0021878Y0028720D01*
X0021745Y0028647D01*
X0021614Y0028570D01*
X0021484Y0028490D01*
X0021357Y0028407D01*
X0021232Y0028321D01*
X0021109Y0028231D01*
X0020989Y0028138D01*
X0020871Y0028042D01*
X0020755Y0027943D01*
X0020642Y0027841D01*
X0020532Y0027737D01*
X0020424Y0027629D01*
X0020320Y0027519D01*
X0020218Y0027406D01*
X0020119Y0027290D01*
X0020023Y0027172D01*
X0019930Y0027052D01*
X0019840Y0026929D01*
X0019754Y0026804D01*
X0019671Y0026677D01*
X0019591Y0026547D01*
X0019514Y0026416D01*
X0019441Y0026283D01*
X0019371Y0026148D01*
X0019305Y0026011D01*
X0019242Y0025872D01*
X0019183Y0025732D01*
X0019128Y0025590D01*
X0019076Y0025447D01*
X0019028Y0025303D01*
X0018983Y0025158D01*
X0018943Y0025011D01*
X0018906Y0024864D01*
X0018873Y0024715D01*
X0018844Y0024566D01*
X0018818Y0024416D01*
X0018797Y0024265D01*
X0018779Y0024114D01*
X0018766Y0023963D01*
X0018756Y0023811D01*
X0018750Y0023659D01*
X0018748Y0023507D01*
X0018750Y0023355D01*
X0018756Y0023203D01*
X0018766Y0023051D01*
X0018779Y0022900D01*
X0018797Y0022749D01*
X0018818Y0022598D01*
X0018844Y0022448D01*
X0018873Y0022299D01*
X0018906Y0022150D01*
X0018943Y0022003D01*
X0018983Y0021856D01*
X0019028Y0021711D01*
X0019076Y0021567D01*
X0019128Y0021424D01*
X0019183Y0021282D01*
X0019242Y0021142D01*
X0019305Y0021003D01*
X0019371Y0020866D01*
X0019441Y0020731D01*
X0019514Y0020598D01*
X0019591Y0020467D01*
X0019671Y0020337D01*
X0019754Y0020210D01*
X0019840Y0020085D01*
X0019930Y0019962D01*
X0020023Y0019842D01*
X0020119Y0019724D01*
X0020218Y0019608D01*
X0020320Y0019495D01*
X0020424Y0019385D01*
X0020532Y0019277D01*
X0020642Y0019173D01*
X0020755Y0019071D01*
X0020871Y0018972D01*
X0020989Y0018876D01*
X0021109Y0018783D01*
X0021232Y0018693D01*
X0021357Y0018607D01*
X0021484Y0018524D01*
X0021614Y0018444D01*
X0021745Y0018367D01*
X0021878Y0018294D01*
X0022013Y0018224D01*
X0022150Y0018158D01*
X0022289Y0018095D01*
X0022429Y0018036D01*
X0022571Y0017981D01*
X0022714Y0017929D01*
X0022858Y0017881D01*
X0023003Y0017836D01*
X0023150Y0017796D01*
X0023297Y0017759D01*
X0023446Y0017726D01*
X0023595Y0017697D01*
X0023745Y0017671D01*
X0023896Y0017650D01*
X0024047Y0017632D01*
X0024198Y0017619D01*
X0024350Y0017609D01*
X0024502Y0017603D01*
X0024654Y0017601D01*
X0036465Y0017601D01*
X0036465Y0080593D02*
X0048276Y0080593D01*
X0048428Y0080595D01*
X0048580Y0080601D01*
X0048732Y0080611D01*
X0048883Y0080624D01*
X0049034Y0080642D01*
X0049185Y0080663D01*
X0049335Y0080689D01*
X0049484Y0080718D01*
X0049633Y0080751D01*
X0049780Y0080788D01*
X0049927Y0080828D01*
X0050072Y0080873D01*
X0050216Y0080921D01*
X0050359Y0080973D01*
X0050501Y0081028D01*
X0050641Y0081087D01*
X0050780Y0081150D01*
X0050917Y0081216D01*
X0051052Y0081286D01*
X0051185Y0081359D01*
X0051316Y0081436D01*
X0051446Y0081516D01*
X0051573Y0081599D01*
X0051698Y0081685D01*
X0051821Y0081775D01*
X0051941Y0081868D01*
X0052059Y0081964D01*
X0052175Y0082063D01*
X0052288Y0082165D01*
X0052398Y0082269D01*
X0052506Y0082377D01*
X0052610Y0082487D01*
X0052712Y0082600D01*
X0052811Y0082716D01*
X0052907Y0082834D01*
X0053000Y0082954D01*
X0053090Y0083077D01*
X0053176Y0083202D01*
X0053259Y0083329D01*
X0053339Y0083459D01*
X0053416Y0083590D01*
X0053489Y0083723D01*
X0053559Y0083858D01*
X0053625Y0083995D01*
X0053688Y0084134D01*
X0053747Y0084274D01*
X0053802Y0084416D01*
X0053854Y0084559D01*
X0053902Y0084703D01*
X0053947Y0084848D01*
X0053987Y0084995D01*
X0054024Y0085142D01*
X0054057Y0085291D01*
X0054086Y0085440D01*
X0054112Y0085590D01*
X0054133Y0085741D01*
X0054151Y0085892D01*
X0054164Y0086043D01*
X0054174Y0086195D01*
X0054180Y0086347D01*
X0054182Y0086499D01*
X0054180Y0086651D01*
X0054174Y0086803D01*
X0054164Y0086955D01*
X0054151Y0087106D01*
X0054133Y0087257D01*
X0054112Y0087408D01*
X0054086Y0087558D01*
X0054057Y0087707D01*
X0054024Y0087856D01*
X0053987Y0088003D01*
X0053947Y0088150D01*
X0053902Y0088295D01*
X0053854Y0088439D01*
X0053802Y0088582D01*
X0053747Y0088724D01*
X0053688Y0088864D01*
X0053625Y0089003D01*
X0053559Y0089140D01*
X0053489Y0089275D01*
X0053416Y0089408D01*
X0053339Y0089539D01*
X0053259Y0089669D01*
X0053176Y0089796D01*
X0053090Y0089921D01*
X0053000Y0090044D01*
X0052907Y0090164D01*
X0052811Y0090282D01*
X0052712Y0090398D01*
X0052610Y0090511D01*
X0052506Y0090621D01*
X0052398Y0090729D01*
X0052288Y0090833D01*
X0052175Y0090935D01*
X0052059Y0091034D01*
X0051941Y0091130D01*
X0051821Y0091223D01*
X0051698Y0091313D01*
X0051573Y0091399D01*
X0051446Y0091482D01*
X0051316Y0091562D01*
X0051185Y0091639D01*
X0051052Y0091712D01*
X0050917Y0091782D01*
X0050780Y0091848D01*
X0050641Y0091911D01*
X0050501Y0091970D01*
X0050359Y0092025D01*
X0050216Y0092077D01*
X0050072Y0092125D01*
X0049927Y0092170D01*
X0049780Y0092210D01*
X0049633Y0092247D01*
X0049484Y0092280D01*
X0049335Y0092309D01*
X0049185Y0092335D01*
X0049034Y0092356D01*
X0048883Y0092374D01*
X0048732Y0092387D01*
X0048580Y0092397D01*
X0048428Y0092403D01*
X0048276Y0092405D01*
X0048276Y0092404D02*
X0036465Y0092404D01*
X0036465Y0092405D02*
X0036313Y0092403D01*
X0036161Y0092397D01*
X0036009Y0092387D01*
X0035858Y0092374D01*
X0035707Y0092356D01*
X0035556Y0092335D01*
X0035406Y0092309D01*
X0035257Y0092280D01*
X0035108Y0092247D01*
X0034961Y0092210D01*
X0034814Y0092170D01*
X0034669Y0092125D01*
X0034525Y0092077D01*
X0034382Y0092025D01*
X0034240Y0091970D01*
X0034100Y0091911D01*
X0033961Y0091848D01*
X0033824Y0091782D01*
X0033689Y0091712D01*
X0033556Y0091639D01*
X0033425Y0091562D01*
X0033295Y0091482D01*
X0033168Y0091399D01*
X0033043Y0091313D01*
X0032920Y0091223D01*
X0032800Y0091130D01*
X0032682Y0091034D01*
X0032566Y0090935D01*
X0032453Y0090833D01*
X0032343Y0090729D01*
X0032235Y0090621D01*
X0032131Y0090511D01*
X0032029Y0090398D01*
X0031930Y0090282D01*
X0031834Y0090164D01*
X0031741Y0090044D01*
X0031651Y0089921D01*
X0031565Y0089796D01*
X0031482Y0089669D01*
X0031402Y0089539D01*
X0031325Y0089408D01*
X0031252Y0089275D01*
X0031182Y0089140D01*
X0031116Y0089003D01*
X0031053Y0088864D01*
X0030994Y0088724D01*
X0030939Y0088582D01*
X0030887Y0088439D01*
X0030839Y0088295D01*
X0030794Y0088150D01*
X0030754Y0088003D01*
X0030717Y0087856D01*
X0030684Y0087707D01*
X0030655Y0087558D01*
X0030629Y0087408D01*
X0030608Y0087257D01*
X0030590Y0087106D01*
X0030577Y0086955D01*
X0030567Y0086803D01*
X0030561Y0086651D01*
X0030559Y0086499D01*
X0030561Y0086347D01*
X0030567Y0086195D01*
X0030577Y0086043D01*
X0030590Y0085892D01*
X0030608Y0085741D01*
X0030629Y0085590D01*
X0030655Y0085440D01*
X0030684Y0085291D01*
X0030717Y0085142D01*
X0030754Y0084995D01*
X0030794Y0084848D01*
X0030839Y0084703D01*
X0030887Y0084559D01*
X0030939Y0084416D01*
X0030994Y0084274D01*
X0031053Y0084134D01*
X0031116Y0083995D01*
X0031182Y0083858D01*
X0031252Y0083723D01*
X0031325Y0083590D01*
X0031402Y0083459D01*
X0031482Y0083329D01*
X0031565Y0083202D01*
X0031651Y0083077D01*
X0031741Y0082954D01*
X0031834Y0082834D01*
X0031930Y0082716D01*
X0032029Y0082600D01*
X0032131Y0082487D01*
X0032235Y0082377D01*
X0032343Y0082269D01*
X0032453Y0082165D01*
X0032566Y0082063D01*
X0032682Y0081964D01*
X0032800Y0081868D01*
X0032920Y0081775D01*
X0033043Y0081685D01*
X0033168Y0081599D01*
X0033295Y0081516D01*
X0033425Y0081436D01*
X0033556Y0081359D01*
X0033689Y0081286D01*
X0033824Y0081216D01*
X0033961Y0081150D01*
X0034100Y0081087D01*
X0034240Y0081028D01*
X0034382Y0080973D01*
X0034525Y0080921D01*
X0034669Y0080873D01*
X0034814Y0080828D01*
X0034961Y0080788D01*
X0035108Y0080751D01*
X0035257Y0080718D01*
X0035406Y0080689D01*
X0035556Y0080663D01*
X0035707Y0080642D01*
X0035858Y0080624D01*
X0036009Y0080611D01*
X0036161Y0080601D01*
X0036313Y0080595D01*
X0036465Y0080593D01*
X0193945Y0029412D02*
X0205756Y0029412D01*
X0205756Y0029413D02*
X0205908Y0029411D01*
X0206060Y0029405D01*
X0206212Y0029395D01*
X0206363Y0029382D01*
X0206514Y0029364D01*
X0206665Y0029343D01*
X0206815Y0029317D01*
X0206964Y0029288D01*
X0207113Y0029255D01*
X0207260Y0029218D01*
X0207407Y0029178D01*
X0207552Y0029133D01*
X0207696Y0029085D01*
X0207839Y0029033D01*
X0207981Y0028978D01*
X0208121Y0028919D01*
X0208260Y0028856D01*
X0208397Y0028790D01*
X0208532Y0028720D01*
X0208665Y0028647D01*
X0208796Y0028570D01*
X0208926Y0028490D01*
X0209053Y0028407D01*
X0209178Y0028321D01*
X0209301Y0028231D01*
X0209421Y0028138D01*
X0209539Y0028042D01*
X0209655Y0027943D01*
X0209768Y0027841D01*
X0209878Y0027737D01*
X0209986Y0027629D01*
X0210090Y0027519D01*
X0210192Y0027406D01*
X0210291Y0027290D01*
X0210387Y0027172D01*
X0210480Y0027052D01*
X0210570Y0026929D01*
X0210656Y0026804D01*
X0210739Y0026677D01*
X0210819Y0026547D01*
X0210896Y0026416D01*
X0210969Y0026283D01*
X0211039Y0026148D01*
X0211105Y0026011D01*
X0211168Y0025872D01*
X0211227Y0025732D01*
X0211282Y0025590D01*
X0211334Y0025447D01*
X0211382Y0025303D01*
X0211427Y0025158D01*
X0211467Y0025011D01*
X0211504Y0024864D01*
X0211537Y0024715D01*
X0211566Y0024566D01*
X0211592Y0024416D01*
X0211613Y0024265D01*
X0211631Y0024114D01*
X0211644Y0023963D01*
X0211654Y0023811D01*
X0211660Y0023659D01*
X0211662Y0023507D01*
X0211660Y0023355D01*
X0211654Y0023203D01*
X0211644Y0023051D01*
X0211631Y0022900D01*
X0211613Y0022749D01*
X0211592Y0022598D01*
X0211566Y0022448D01*
X0211537Y0022299D01*
X0211504Y0022150D01*
X0211467Y0022003D01*
X0211427Y0021856D01*
X0211382Y0021711D01*
X0211334Y0021567D01*
X0211282Y0021424D01*
X0211227Y0021282D01*
X0211168Y0021142D01*
X0211105Y0021003D01*
X0211039Y0020866D01*
X0210969Y0020731D01*
X0210896Y0020598D01*
X0210819Y0020467D01*
X0210739Y0020337D01*
X0210656Y0020210D01*
X0210570Y0020085D01*
X0210480Y0019962D01*
X0210387Y0019842D01*
X0210291Y0019724D01*
X0210192Y0019608D01*
X0210090Y0019495D01*
X0209986Y0019385D01*
X0209878Y0019277D01*
X0209768Y0019173D01*
X0209655Y0019071D01*
X0209539Y0018972D01*
X0209421Y0018876D01*
X0209301Y0018783D01*
X0209178Y0018693D01*
X0209053Y0018607D01*
X0208926Y0018524D01*
X0208796Y0018444D01*
X0208665Y0018367D01*
X0208532Y0018294D01*
X0208397Y0018224D01*
X0208260Y0018158D01*
X0208121Y0018095D01*
X0207981Y0018036D01*
X0207839Y0017981D01*
X0207696Y0017929D01*
X0207552Y0017881D01*
X0207407Y0017836D01*
X0207260Y0017796D01*
X0207113Y0017759D01*
X0206964Y0017726D01*
X0206815Y0017697D01*
X0206665Y0017671D01*
X0206514Y0017650D01*
X0206363Y0017632D01*
X0206212Y0017619D01*
X0206060Y0017609D01*
X0205908Y0017603D01*
X0205756Y0017601D01*
X0193945Y0017601D01*
X0193793Y0017603D01*
X0193641Y0017609D01*
X0193489Y0017619D01*
X0193338Y0017632D01*
X0193187Y0017650D01*
X0193036Y0017671D01*
X0192886Y0017697D01*
X0192737Y0017726D01*
X0192588Y0017759D01*
X0192441Y0017796D01*
X0192294Y0017836D01*
X0192149Y0017881D01*
X0192005Y0017929D01*
X0191862Y0017981D01*
X0191720Y0018036D01*
X0191580Y0018095D01*
X0191441Y0018158D01*
X0191304Y0018224D01*
X0191169Y0018294D01*
X0191036Y0018367D01*
X0190905Y0018444D01*
X0190775Y0018524D01*
X0190648Y0018607D01*
X0190523Y0018693D01*
X0190400Y0018783D01*
X0190280Y0018876D01*
X0190162Y0018972D01*
X0190046Y0019071D01*
X0189933Y0019173D01*
X0189823Y0019277D01*
X0189715Y0019385D01*
X0189611Y0019495D01*
X0189509Y0019608D01*
X0189410Y0019724D01*
X0189314Y0019842D01*
X0189221Y0019962D01*
X0189131Y0020085D01*
X0189045Y0020210D01*
X0188962Y0020337D01*
X0188882Y0020467D01*
X0188805Y0020598D01*
X0188732Y0020731D01*
X0188662Y0020866D01*
X0188596Y0021003D01*
X0188533Y0021142D01*
X0188474Y0021282D01*
X0188419Y0021424D01*
X0188367Y0021567D01*
X0188319Y0021711D01*
X0188274Y0021856D01*
X0188234Y0022003D01*
X0188197Y0022150D01*
X0188164Y0022299D01*
X0188135Y0022448D01*
X0188109Y0022598D01*
X0188088Y0022749D01*
X0188070Y0022900D01*
X0188057Y0023051D01*
X0188047Y0023203D01*
X0188041Y0023355D01*
X0188039Y0023507D01*
X0188041Y0023659D01*
X0188047Y0023811D01*
X0188057Y0023963D01*
X0188070Y0024114D01*
X0188088Y0024265D01*
X0188109Y0024416D01*
X0188135Y0024566D01*
X0188164Y0024715D01*
X0188197Y0024864D01*
X0188234Y0025011D01*
X0188274Y0025158D01*
X0188319Y0025303D01*
X0188367Y0025447D01*
X0188419Y0025590D01*
X0188474Y0025732D01*
X0188533Y0025872D01*
X0188596Y0026011D01*
X0188662Y0026148D01*
X0188732Y0026283D01*
X0188805Y0026416D01*
X0188882Y0026547D01*
X0188962Y0026677D01*
X0189045Y0026804D01*
X0189131Y0026929D01*
X0189221Y0027052D01*
X0189314Y0027172D01*
X0189410Y0027290D01*
X0189509Y0027406D01*
X0189611Y0027519D01*
X0189715Y0027629D01*
X0189823Y0027737D01*
X0189933Y0027841D01*
X0190046Y0027943D01*
X0190162Y0028042D01*
X0190280Y0028138D01*
X0190400Y0028231D01*
X0190523Y0028321D01*
X0190648Y0028407D01*
X0190775Y0028490D01*
X0190905Y0028570D01*
X0191036Y0028647D01*
X0191169Y0028720D01*
X0191304Y0028790D01*
X0191441Y0028856D01*
X0191580Y0028919D01*
X0191720Y0028978D01*
X0191862Y0029033D01*
X0192005Y0029085D01*
X0192149Y0029133D01*
X0192294Y0029178D01*
X0192441Y0029218D01*
X0192588Y0029255D01*
X0192737Y0029288D01*
X0192886Y0029317D01*
X0193036Y0029343D01*
X0193187Y0029364D01*
X0193338Y0029382D01*
X0193489Y0029395D01*
X0193641Y0029405D01*
X0193793Y0029411D01*
X0193945Y0029413D01*
X0205756Y0080593D02*
X0217567Y0080593D01*
X0217719Y0080595D01*
X0217871Y0080601D01*
X0218023Y0080611D01*
X0218174Y0080624D01*
X0218325Y0080642D01*
X0218476Y0080663D01*
X0218626Y0080689D01*
X0218775Y0080718D01*
X0218924Y0080751D01*
X0219071Y0080788D01*
X0219218Y0080828D01*
X0219363Y0080873D01*
X0219507Y0080921D01*
X0219650Y0080973D01*
X0219792Y0081028D01*
X0219932Y0081087D01*
X0220071Y0081150D01*
X0220208Y0081216D01*
X0220343Y0081286D01*
X0220476Y0081359D01*
X0220607Y0081436D01*
X0220737Y0081516D01*
X0220864Y0081599D01*
X0220989Y0081685D01*
X0221112Y0081775D01*
X0221232Y0081868D01*
X0221350Y0081964D01*
X0221466Y0082063D01*
X0221579Y0082165D01*
X0221689Y0082269D01*
X0221797Y0082377D01*
X0221901Y0082487D01*
X0222003Y0082600D01*
X0222102Y0082716D01*
X0222198Y0082834D01*
X0222291Y0082954D01*
X0222381Y0083077D01*
X0222467Y0083202D01*
X0222550Y0083329D01*
X0222630Y0083459D01*
X0222707Y0083590D01*
X0222780Y0083723D01*
X0222850Y0083858D01*
X0222916Y0083995D01*
X0222979Y0084134D01*
X0223038Y0084274D01*
X0223093Y0084416D01*
X0223145Y0084559D01*
X0223193Y0084703D01*
X0223238Y0084848D01*
X0223278Y0084995D01*
X0223315Y0085142D01*
X0223348Y0085291D01*
X0223377Y0085440D01*
X0223403Y0085590D01*
X0223424Y0085741D01*
X0223442Y0085892D01*
X0223455Y0086043D01*
X0223465Y0086195D01*
X0223471Y0086347D01*
X0223473Y0086499D01*
X0223471Y0086651D01*
X0223465Y0086803D01*
X0223455Y0086955D01*
X0223442Y0087106D01*
X0223424Y0087257D01*
X0223403Y0087408D01*
X0223377Y0087558D01*
X0223348Y0087707D01*
X0223315Y0087856D01*
X0223278Y0088003D01*
X0223238Y0088150D01*
X0223193Y0088295D01*
X0223145Y0088439D01*
X0223093Y0088582D01*
X0223038Y0088724D01*
X0222979Y0088864D01*
X0222916Y0089003D01*
X0222850Y0089140D01*
X0222780Y0089275D01*
X0222707Y0089408D01*
X0222630Y0089539D01*
X0222550Y0089669D01*
X0222467Y0089796D01*
X0222381Y0089921D01*
X0222291Y0090044D01*
X0222198Y0090164D01*
X0222102Y0090282D01*
X0222003Y0090398D01*
X0221901Y0090511D01*
X0221797Y0090621D01*
X0221689Y0090729D01*
X0221579Y0090833D01*
X0221466Y0090935D01*
X0221350Y0091034D01*
X0221232Y0091130D01*
X0221112Y0091223D01*
X0220989Y0091313D01*
X0220864Y0091399D01*
X0220737Y0091482D01*
X0220607Y0091562D01*
X0220476Y0091639D01*
X0220343Y0091712D01*
X0220208Y0091782D01*
X0220071Y0091848D01*
X0219932Y0091911D01*
X0219792Y0091970D01*
X0219650Y0092025D01*
X0219507Y0092077D01*
X0219363Y0092125D01*
X0219218Y0092170D01*
X0219071Y0092210D01*
X0218924Y0092247D01*
X0218775Y0092280D01*
X0218626Y0092309D01*
X0218476Y0092335D01*
X0218325Y0092356D01*
X0218174Y0092374D01*
X0218023Y0092387D01*
X0217871Y0092397D01*
X0217719Y0092403D01*
X0217567Y0092405D01*
X0217567Y0092404D02*
X0205756Y0092404D01*
X0205756Y0092405D02*
X0205604Y0092403D01*
X0205452Y0092397D01*
X0205300Y0092387D01*
X0205149Y0092374D01*
X0204998Y0092356D01*
X0204847Y0092335D01*
X0204697Y0092309D01*
X0204548Y0092280D01*
X0204399Y0092247D01*
X0204252Y0092210D01*
X0204105Y0092170D01*
X0203960Y0092125D01*
X0203816Y0092077D01*
X0203673Y0092025D01*
X0203531Y0091970D01*
X0203391Y0091911D01*
X0203252Y0091848D01*
X0203115Y0091782D01*
X0202980Y0091712D01*
X0202847Y0091639D01*
X0202716Y0091562D01*
X0202586Y0091482D01*
X0202459Y0091399D01*
X0202334Y0091313D01*
X0202211Y0091223D01*
X0202091Y0091130D01*
X0201973Y0091034D01*
X0201857Y0090935D01*
X0201744Y0090833D01*
X0201634Y0090729D01*
X0201526Y0090621D01*
X0201422Y0090511D01*
X0201320Y0090398D01*
X0201221Y0090282D01*
X0201125Y0090164D01*
X0201032Y0090044D01*
X0200942Y0089921D01*
X0200856Y0089796D01*
X0200773Y0089669D01*
X0200693Y0089539D01*
X0200616Y0089408D01*
X0200543Y0089275D01*
X0200473Y0089140D01*
X0200407Y0089003D01*
X0200344Y0088864D01*
X0200285Y0088724D01*
X0200230Y0088582D01*
X0200178Y0088439D01*
X0200130Y0088295D01*
X0200085Y0088150D01*
X0200045Y0088003D01*
X0200008Y0087856D01*
X0199975Y0087707D01*
X0199946Y0087558D01*
X0199920Y0087408D01*
X0199899Y0087257D01*
X0199881Y0087106D01*
X0199868Y0086955D01*
X0199858Y0086803D01*
X0199852Y0086651D01*
X0199850Y0086499D01*
X0199852Y0086347D01*
X0199858Y0086195D01*
X0199868Y0086043D01*
X0199881Y0085892D01*
X0199899Y0085741D01*
X0199920Y0085590D01*
X0199946Y0085440D01*
X0199975Y0085291D01*
X0200008Y0085142D01*
X0200045Y0084995D01*
X0200085Y0084848D01*
X0200130Y0084703D01*
X0200178Y0084559D01*
X0200230Y0084416D01*
X0200285Y0084274D01*
X0200344Y0084134D01*
X0200407Y0083995D01*
X0200473Y0083858D01*
X0200543Y0083723D01*
X0200616Y0083590D01*
X0200693Y0083459D01*
X0200773Y0083329D01*
X0200856Y0083202D01*
X0200942Y0083077D01*
X0201032Y0082954D01*
X0201125Y0082834D01*
X0201221Y0082716D01*
X0201320Y0082600D01*
X0201422Y0082487D01*
X0201526Y0082377D01*
X0201634Y0082269D01*
X0201744Y0082165D01*
X0201857Y0082063D01*
X0201973Y0081964D01*
X0202091Y0081868D01*
X0202211Y0081775D01*
X0202334Y0081685D01*
X0202459Y0081599D01*
X0202586Y0081516D01*
X0202716Y0081436D01*
X0202847Y0081359D01*
X0202980Y0081286D01*
X0203115Y0081216D01*
X0203252Y0081150D01*
X0203391Y0081087D01*
X0203531Y0081028D01*
X0203673Y0080973D01*
X0203816Y0080921D01*
X0203960Y0080873D01*
X0204105Y0080828D01*
X0204252Y0080788D01*
X0204399Y0080751D01*
X0204548Y0080718D01*
X0204697Y0080689D01*
X0204847Y0080663D01*
X0204998Y0080642D01*
X0205149Y0080624D01*
X0205300Y0080611D01*
X0205452Y0080601D01*
X0205604Y0080595D01*
X0205756Y0080593D01*
D17*
X0205756Y0086499D02*
X0217567Y0086499D01*
X0205756Y0023507D02*
X0193945Y0023507D01*
X0048276Y0086499D02*
X0036465Y0086499D01*
X0036465Y0023507D02*
X0024654Y0023507D01*
D18*
X0030559Y0023507D02*
X0014811Y0023507D01*
X0010611Y0023792D02*
X0007500Y0023792D01*
X0007500Y0024790D02*
X0010611Y0024790D01*
X0010611Y0025789D02*
X0007500Y0025789D01*
X0007500Y0026787D02*
X0010611Y0026787D01*
X0010611Y0027786D02*
X0007500Y0027786D01*
X0007500Y0028784D02*
X0010611Y0028784D01*
X0010611Y0029211D02*
X0010611Y0017802D01*
X0011607Y0016807D01*
X0018015Y0016807D01*
X0019011Y0017802D01*
X0019011Y0018393D01*
X0020345Y0017059D01*
X0021698Y0016498D01*
X0021843Y0016354D01*
X0024944Y0015070D01*
X0036174Y0015070D01*
X0039275Y0016354D01*
X0039275Y0016354D01*
X0039420Y0016498D01*
X0040773Y0017059D01*
X0042912Y0019198D01*
X0043785Y0021307D01*
X0072540Y0021307D01*
X0072540Y0019696D01*
X0077929Y0014307D01*
X0085551Y0014307D01*
X0090940Y0019696D01*
X0090940Y0027317D01*
X0085551Y0032707D01*
X0077929Y0032707D01*
X0072540Y0027317D01*
X0072540Y0025707D01*
X0043785Y0025707D01*
X0042912Y0027815D01*
X0040773Y0029954D01*
X0039420Y0030515D01*
X0039275Y0030659D01*
X0036174Y0031944D01*
X0024944Y0031944D01*
X0021843Y0030659D01*
X0021843Y0030659D01*
X0021698Y0030515D01*
X0020345Y0029954D01*
X0019011Y0028620D01*
X0019011Y0029211D01*
X0018015Y0030207D01*
X0011607Y0030207D01*
X0010611Y0029211D01*
X0011183Y0029783D02*
X0007500Y0029783D01*
X0007500Y0030781D02*
X0022138Y0030781D01*
X0020174Y0029783D02*
X0018439Y0029783D01*
X0019011Y0028784D02*
X0019175Y0028784D01*
X0024549Y0031780D02*
X0007500Y0031780D01*
X0007500Y0032778D02*
X0095119Y0032778D01*
X0094871Y0033703D02*
X0095707Y0030584D01*
X0097321Y0027788D01*
X0099604Y0025505D01*
X0102401Y0023890D01*
X0105519Y0023055D01*
X0108748Y0023055D01*
X0111867Y0023890D01*
X0114664Y0025505D01*
X0116947Y0027788D01*
X0118561Y0030584D01*
X0119397Y0033703D01*
X0119397Y0036932D01*
X0118561Y0040051D01*
X0116947Y0042847D01*
X0114664Y0045130D01*
X0111867Y0046745D01*
X0108748Y0047581D01*
X0105519Y0047581D01*
X0102401Y0046745D01*
X0099604Y0045130D01*
X0097321Y0042847D01*
X0095707Y0040051D01*
X0094871Y0036932D01*
X0094871Y0033703D01*
X0094871Y0033777D02*
X0007500Y0033777D01*
X0007500Y0034775D02*
X0094871Y0034775D01*
X0094871Y0035774D02*
X0007500Y0035774D01*
X0007500Y0036772D02*
X0094871Y0036772D01*
X0095096Y0037771D02*
X0007500Y0037771D01*
X0007500Y0038769D02*
X0025980Y0038769D01*
X0026245Y0038692D02*
X0021745Y0040013D01*
X0021745Y0040013D01*
X0017799Y0042549D01*
X0017799Y0042549D01*
X0014728Y0046094D01*
X0014728Y0046094D01*
X0012779Y0050360D01*
X0012779Y0050360D01*
X0012112Y0055003D01*
X0012112Y0055003D01*
X0012779Y0059645D01*
X0012779Y0059645D01*
X0014728Y0063912D01*
X0014728Y0063912D01*
X0017799Y0067456D01*
X0017799Y0067456D01*
X0021745Y0069992D01*
X0021745Y0069992D01*
X0026245Y0071314D01*
X0045234Y0071314D01*
X0046684Y0071314D01*
X0051184Y0069992D01*
X0051184Y0069992D01*
X0055130Y0067456D01*
X0055130Y0067456D01*
X0058201Y0063912D01*
X0058201Y0063912D01*
X0060150Y0059645D01*
X0060817Y0055003D01*
X0060150Y0050360D01*
X0058201Y0046094D01*
X0055130Y0042549D01*
X0055130Y0042549D01*
X0051184Y0040013D01*
X0051184Y0040013D01*
X0046684Y0038692D01*
X0026245Y0038692D01*
X0022580Y0039768D02*
X0007500Y0039768D01*
X0007500Y0040766D02*
X0020573Y0040766D01*
X0019019Y0041765D02*
X0007500Y0041765D01*
X0007500Y0042763D02*
X0017613Y0042763D01*
X0017799Y0042549D02*
X0017799Y0042549D01*
X0016748Y0043762D02*
X0007500Y0043762D01*
X0007500Y0044760D02*
X0015883Y0044760D01*
X0015018Y0045759D02*
X0007500Y0045759D01*
X0007500Y0046758D02*
X0014425Y0046758D01*
X0013969Y0047756D02*
X0007500Y0047756D01*
X0007500Y0048755D02*
X0013512Y0048755D01*
X0013056Y0049753D02*
X0007500Y0049753D01*
X0007500Y0050752D02*
X0012723Y0050752D01*
X0012579Y0051750D02*
X0007500Y0051750D01*
X0007500Y0052749D02*
X0012436Y0052749D01*
X0012292Y0053747D02*
X0007500Y0053747D01*
X0007500Y0054746D02*
X0012149Y0054746D01*
X0012218Y0055744D02*
X0007500Y0055744D01*
X0007500Y0056743D02*
X0012362Y0056743D01*
X0012506Y0057741D02*
X0007500Y0057741D01*
X0007500Y0058740D02*
X0012649Y0058740D01*
X0012822Y0059738D02*
X0007500Y0059738D01*
X0007500Y0060737D02*
X0013278Y0060737D01*
X0013734Y0061735D02*
X0007500Y0061735D01*
X0007500Y0062734D02*
X0014190Y0062734D01*
X0014646Y0063732D02*
X0007500Y0063732D01*
X0007500Y0064731D02*
X0015437Y0064731D01*
X0016303Y0065729D02*
X0007500Y0065729D01*
X0007500Y0066728D02*
X0017168Y0066728D01*
X0018219Y0067726D02*
X0007500Y0067726D01*
X0007500Y0068725D02*
X0019773Y0068725D01*
X0021327Y0069723D02*
X0007500Y0069723D01*
X0007500Y0070722D02*
X0024230Y0070722D01*
X0033654Y0079346D02*
X0036755Y0078062D01*
X0047985Y0078062D01*
X0051086Y0079346D01*
X0051086Y0079346D01*
X0051617Y0079876D01*
X0052399Y0080328D01*
X0053169Y0080919D01*
X0053855Y0081605D01*
X0054446Y0082376D01*
X0054932Y0083216D01*
X0055303Y0084113D01*
X0055554Y0085051D01*
X0055679Y0085999D01*
X0054744Y0085999D01*
X0054744Y0086999D01*
X0055679Y0086999D01*
X0055554Y0087947D01*
X0055303Y0088884D01*
X0054932Y0089781D01*
X0054446Y0090622D01*
X0053855Y0091392D01*
X0053169Y0092078D01*
X0052399Y0092669D01*
X0051617Y0093121D01*
X0051086Y0093651D01*
X0047985Y0094936D01*
X0036755Y0094936D01*
X0033654Y0093651D01*
X0033124Y0093121D01*
X0032341Y0092669D01*
X0031571Y0092078D01*
X0030885Y0091392D01*
X0030622Y0091049D01*
X0030622Y0091696D01*
X0030520Y0092078D01*
X0030322Y0092420D01*
X0030043Y0092699D01*
X0029701Y0092896D01*
X0029320Y0092999D01*
X0027122Y0092999D01*
X0027122Y0086999D01*
X0026122Y0086999D01*
X0026122Y0092999D01*
X0023925Y0092999D01*
X0023543Y0092896D01*
X0023201Y0092699D01*
X0022922Y0092420D01*
X0022724Y0092078D01*
X0022622Y0091696D01*
X0022622Y0086999D01*
X0026122Y0086999D01*
X0026122Y0085999D01*
X0022622Y0085999D01*
X0022622Y0081301D01*
X0022724Y0080920D01*
X0022922Y0080578D01*
X0023201Y0080298D01*
X0023543Y0080101D01*
X0023925Y0079999D01*
X0026122Y0079999D01*
X0026122Y0085999D01*
X0027122Y0085999D01*
X0027122Y0079999D01*
X0029320Y0079999D01*
X0029701Y0080101D01*
X0030043Y0080298D01*
X0030322Y0080578D01*
X0030520Y0080920D01*
X0030622Y0081301D01*
X0030622Y0081948D01*
X0030885Y0081605D01*
X0031571Y0080919D01*
X0032341Y0080328D01*
X0033124Y0079876D01*
X0033654Y0079346D01*
X0033654Y0079346D01*
X0033292Y0079708D02*
X0007500Y0079708D01*
X0007500Y0078710D02*
X0035190Y0078710D01*
X0031848Y0080707D02*
X0030397Y0080707D01*
X0030622Y0081705D02*
X0030808Y0081705D01*
X0027122Y0081705D02*
X0026122Y0081705D01*
X0026122Y0080707D02*
X0027122Y0080707D01*
X0027122Y0082704D02*
X0026122Y0082704D01*
X0026122Y0083702D02*
X0027122Y0083702D01*
X0027122Y0084701D02*
X0026122Y0084701D01*
X0026122Y0085699D02*
X0027122Y0085699D01*
X0026622Y0086499D02*
X0042370Y0086499D01*
X0031183Y0091691D02*
X0030622Y0091691D01*
X0030053Y0092689D02*
X0032376Y0092689D01*
X0033742Y0093688D02*
X0007500Y0093688D01*
X0007500Y0094686D02*
X0036152Y0094686D01*
X0027122Y0092689D02*
X0026122Y0092689D01*
X0026122Y0091691D02*
X0027122Y0091691D01*
X0027122Y0090692D02*
X0026122Y0090692D01*
X0026122Y0089693D02*
X0027122Y0089693D01*
X0027122Y0088695D02*
X0026122Y0088695D01*
X0026122Y0087696D02*
X0027122Y0087696D01*
X0026122Y0086698D02*
X0007500Y0086698D01*
X0007500Y0087696D02*
X0022622Y0087696D01*
X0022622Y0088695D02*
X0007500Y0088695D01*
X0007500Y0089693D02*
X0022622Y0089693D01*
X0022622Y0090692D02*
X0007500Y0090692D01*
X0007500Y0091691D02*
X0022622Y0091691D01*
X0023191Y0092689D02*
X0007500Y0092689D01*
X0007500Y0095685D02*
X0234720Y0095685D01*
X0234720Y0096683D02*
X0007500Y0096683D01*
X0007500Y0097682D02*
X0234720Y0097682D01*
X0234720Y0098680D02*
X0007500Y0098680D01*
X0007500Y0099679D02*
X0234720Y0099679D01*
X0234720Y0100677D02*
X0007500Y0100677D01*
X0007500Y0101676D02*
X0234720Y0101676D01*
X0234720Y0101684D02*
X0234720Y0008322D01*
X0007500Y0008322D01*
X0007500Y0101684D01*
X0234720Y0101684D01*
X0234720Y0094686D02*
X0217879Y0094686D01*
X0217277Y0094936D02*
X0214703Y0094936D01*
X0208620Y0094936D01*
X0206046Y0094936D01*
X0202945Y0093651D01*
X0202415Y0093121D01*
X0201633Y0092669D01*
X0200863Y0092078D01*
X0200176Y0091392D01*
X0199585Y0090622D01*
X0199100Y0089781D01*
X0198728Y0088884D01*
X0198477Y0087947D01*
X0198352Y0086999D01*
X0199287Y0086999D01*
X0199287Y0085999D01*
X0198352Y0085999D01*
X0198477Y0085051D01*
X0198728Y0084113D01*
X0199100Y0083216D01*
X0199585Y0082376D01*
X0200176Y0081605D01*
X0200863Y0080919D01*
X0201633Y0080328D01*
X0202415Y0079876D01*
X0202945Y0079346D01*
X0206046Y0078062D01*
X0217277Y0078062D01*
X0220378Y0079346D01*
X0220908Y0079876D01*
X0221690Y0080328D01*
X0222460Y0080919D01*
X0223147Y0081605D01*
X0223409Y0081948D01*
X0223409Y0081301D01*
X0223512Y0080920D01*
X0223709Y0080578D01*
X0223988Y0080298D01*
X0224330Y0080101D01*
X0224712Y0079999D01*
X0226909Y0079999D01*
X0226909Y0085999D01*
X0227909Y0085999D01*
X0227909Y0079999D01*
X0230107Y0079999D01*
X0230488Y0080101D01*
X0230830Y0080298D01*
X0231110Y0080578D01*
X0231307Y0080920D01*
X0231409Y0081301D01*
X0231409Y0085999D01*
X0227909Y0085999D01*
X0227909Y0086999D01*
X0226909Y0086999D01*
X0226909Y0092999D01*
X0224712Y0092999D01*
X0224330Y0092896D01*
X0223988Y0092699D01*
X0223709Y0092420D01*
X0223512Y0092078D01*
X0223409Y0091696D01*
X0223409Y0091049D01*
X0223147Y0091392D01*
X0222460Y0092078D01*
X0221690Y0092669D01*
X0220908Y0093121D01*
X0220378Y0093651D01*
X0220378Y0093651D01*
X0217277Y0094936D01*
X0220290Y0093688D02*
X0234720Y0093688D01*
X0234720Y0092689D02*
X0230840Y0092689D01*
X0230830Y0092699D02*
X0230488Y0092896D01*
X0230107Y0092999D01*
X0227909Y0092999D01*
X0227909Y0086999D01*
X0231409Y0086999D01*
X0231409Y0091696D01*
X0231307Y0092078D01*
X0231110Y0092420D01*
X0230830Y0092699D01*
X0231409Y0091691D02*
X0234720Y0091691D01*
X0234720Y0090692D02*
X0231409Y0090692D01*
X0231409Y0089693D02*
X0234720Y0089693D01*
X0234720Y0088695D02*
X0231409Y0088695D01*
X0231409Y0087696D02*
X0234720Y0087696D01*
X0234720Y0086698D02*
X0227909Y0086698D01*
X0227409Y0086499D02*
X0211661Y0086499D01*
X0200475Y0091691D02*
X0053557Y0091691D01*
X0054392Y0090692D02*
X0199639Y0090692D01*
X0199064Y0089693D02*
X0054968Y0089693D01*
X0055354Y0088695D02*
X0198678Y0088695D01*
X0198444Y0087696D02*
X0055587Y0087696D01*
X0054744Y0086698D02*
X0067159Y0086698D01*
X0067098Y0086667D02*
X0066487Y0086223D01*
X0065953Y0085689D01*
X0065509Y0085077D01*
X0065166Y0084404D01*
X0064932Y0083686D01*
X0064834Y0083062D01*
X0069114Y0083062D01*
X0069114Y0087342D01*
X0068490Y0087243D01*
X0067772Y0087010D01*
X0067098Y0086667D01*
X0065964Y0085699D02*
X0055640Y0085699D01*
X0055461Y0084701D02*
X0065317Y0084701D01*
X0064938Y0083702D02*
X0055133Y0083702D01*
X0054636Y0082704D02*
X0069114Y0082704D01*
X0069114Y0083062D02*
X0069114Y0082062D01*
X0064834Y0082062D01*
X0064932Y0081438D01*
X0065166Y0080719D01*
X0065509Y0080046D01*
X0065953Y0079435D01*
X0066487Y0078900D01*
X0067098Y0078456D01*
X0067772Y0078113D01*
X0068490Y0077880D01*
X0069114Y0077781D01*
X0069114Y0082062D01*
X0070114Y0082062D01*
X0070114Y0083062D01*
X0069114Y0083062D01*
X0069114Y0083702D02*
X0070114Y0083702D01*
X0070114Y0083062D02*
X0070114Y0087342D01*
X0070738Y0087243D01*
X0071457Y0087010D01*
X0072130Y0086667D01*
X0072741Y0086223D01*
X0073275Y0085689D01*
X0073719Y0085077D01*
X0074063Y0084404D01*
X0074296Y0083686D01*
X0074395Y0083062D01*
X0070114Y0083062D01*
X0070114Y0082704D02*
X0104614Y0082704D01*
X0104614Y0083556D02*
X0104614Y0081567D01*
X0105375Y0079729D01*
X0106782Y0078323D01*
X0108620Y0077562D01*
X0110609Y0077562D01*
X0112446Y0078323D01*
X0113853Y0079729D01*
X0114614Y0081567D01*
X0114614Y0083556D01*
X0113853Y0085394D01*
X0112446Y0086800D01*
X0110609Y0087562D01*
X0108620Y0087562D01*
X0106782Y0086800D01*
X0105375Y0085394D01*
X0104614Y0083556D01*
X0104675Y0083702D02*
X0074291Y0083702D01*
X0073911Y0084701D02*
X0105088Y0084701D01*
X0105681Y0085699D02*
X0073265Y0085699D01*
X0072069Y0086698D02*
X0106679Y0086698D01*
X0112549Y0086698D02*
X0144913Y0086698D01*
X0145077Y0086862D02*
X0142558Y0084343D01*
X0142558Y0083499D01*
X0142532Y0083473D01*
X0142532Y0081650D01*
X0142558Y0081624D01*
X0142558Y0080781D01*
X0145077Y0078262D01*
X0148639Y0078262D01*
X0150739Y0080362D01*
X0158280Y0080362D01*
X0158280Y0068884D01*
X0156180Y0066784D01*
X0156180Y0063222D01*
X0158699Y0060703D01*
X0162261Y0060703D01*
X0164361Y0062803D01*
X0174028Y0062803D01*
X0174028Y0022595D01*
X0175317Y0021307D01*
X0186624Y0021307D01*
X0187497Y0019198D01*
X0189637Y0017059D01*
X0190990Y0016498D01*
X0191134Y0016354D01*
X0191134Y0016354D01*
X0194235Y0015070D01*
X0205466Y0015070D01*
X0208567Y0016354D01*
X0208711Y0016498D01*
X0210064Y0017059D01*
X0211398Y0018393D01*
X0211398Y0017802D01*
X0212394Y0016807D01*
X0218803Y0016807D01*
X0219798Y0017802D01*
X0219798Y0029211D01*
X0218803Y0030207D01*
X0212394Y0030207D01*
X0211398Y0029211D01*
X0211398Y0028620D01*
X0210064Y0029954D01*
X0208711Y0030515D01*
X0208567Y0030659D01*
X0208567Y0030659D01*
X0205466Y0031944D01*
X0194235Y0031944D01*
X0191134Y0030659D01*
X0190990Y0030515D01*
X0189637Y0029954D01*
X0187497Y0027815D01*
X0186624Y0025707D01*
X0178428Y0025707D01*
X0178428Y0065914D01*
X0177140Y0067203D01*
X0164361Y0067203D01*
X0162680Y0068884D01*
X0162680Y0083473D01*
X0161392Y0084762D01*
X0150739Y0084762D01*
X0148639Y0086862D01*
X0145077Y0086862D01*
X0143915Y0085699D02*
X0129519Y0085699D01*
X0128557Y0086662D02*
X0127158Y0086662D01*
X0127158Y0082862D01*
X0126558Y0082862D01*
X0126558Y0086662D01*
X0125160Y0086662D01*
X0122758Y0084260D01*
X0122758Y0082862D01*
X0126558Y0082862D01*
X0126558Y0082262D01*
X0122758Y0082262D01*
X0122758Y0080863D01*
X0125160Y0078462D01*
X0126558Y0078462D01*
X0126558Y0082262D01*
X0127158Y0082262D01*
X0127158Y0082862D01*
X0130958Y0082862D01*
X0130958Y0084260D01*
X0128557Y0086662D01*
X0127158Y0085699D02*
X0126558Y0085699D01*
X0126558Y0084701D02*
X0127158Y0084701D01*
X0127158Y0083702D02*
X0126558Y0083702D01*
X0126558Y0082704D02*
X0114614Y0082704D01*
X0114614Y0081705D02*
X0122758Y0081705D01*
X0122915Y0080707D02*
X0114258Y0080707D01*
X0113832Y0079708D02*
X0123913Y0079708D01*
X0124912Y0078710D02*
X0112833Y0078710D01*
X0110970Y0077711D02*
X0158280Y0077711D01*
X0158280Y0076713D02*
X0007500Y0076713D01*
X0007500Y0077711D02*
X0108258Y0077711D01*
X0106395Y0078710D02*
X0072479Y0078710D01*
X0072741Y0078900D02*
X0073275Y0079435D01*
X0073719Y0080046D01*
X0074063Y0080719D01*
X0074296Y0081438D01*
X0074395Y0082062D01*
X0070114Y0082062D01*
X0070114Y0077781D01*
X0070738Y0077880D01*
X0071457Y0078113D01*
X0072130Y0078456D01*
X0072741Y0078900D01*
X0073474Y0079708D02*
X0105396Y0079708D01*
X0104970Y0080707D02*
X0074056Y0080707D01*
X0074338Y0081705D02*
X0104614Y0081705D01*
X0113547Y0085699D02*
X0124198Y0085699D01*
X0123199Y0084701D02*
X0114140Y0084701D01*
X0114554Y0083702D02*
X0122758Y0083702D01*
X0126558Y0081705D02*
X0127158Y0081705D01*
X0127158Y0082262D02*
X0127158Y0078462D01*
X0128557Y0078462D01*
X0130958Y0080863D01*
X0130958Y0082262D01*
X0127158Y0082262D01*
X0127158Y0082704D02*
X0142532Y0082704D01*
X0142532Y0081705D02*
X0130958Y0081705D01*
X0130802Y0080707D02*
X0142632Y0080707D01*
X0143630Y0079708D02*
X0129803Y0079708D01*
X0128805Y0078710D02*
X0144629Y0078710D01*
X0149088Y0078710D02*
X0158280Y0078710D01*
X0158280Y0079708D02*
X0150086Y0079708D01*
X0144732Y0082562D02*
X0160480Y0082562D01*
X0160480Y0065003D01*
X0176228Y0065003D01*
X0176228Y0023507D01*
X0199850Y0023507D01*
X0215598Y0023507D01*
X0219798Y0023792D02*
X0234720Y0023792D01*
X0234720Y0024790D02*
X0219798Y0024790D01*
X0219798Y0025789D02*
X0234720Y0025789D01*
X0234720Y0026787D02*
X0219798Y0026787D01*
X0219798Y0027786D02*
X0234720Y0027786D01*
X0234720Y0028784D02*
X0219798Y0028784D01*
X0219226Y0029783D02*
X0234720Y0029783D01*
X0234720Y0030781D02*
X0208271Y0030781D01*
X0210235Y0029783D02*
X0211971Y0029783D01*
X0211398Y0028784D02*
X0211234Y0028784D01*
X0205861Y0031780D02*
X0234720Y0031780D01*
X0234720Y0032778D02*
X0178428Y0032778D01*
X0178428Y0031780D02*
X0193840Y0031780D01*
X0191429Y0030781D02*
X0178428Y0030781D01*
X0178428Y0029783D02*
X0189465Y0029783D01*
X0188467Y0028784D02*
X0178428Y0028784D01*
X0178428Y0027786D02*
X0187485Y0027786D01*
X0187072Y0026787D02*
X0178428Y0026787D01*
X0178428Y0025789D02*
X0186658Y0025789D01*
X0186835Y0020796D02*
X0169480Y0020796D01*
X0169480Y0019798D02*
X0187249Y0019798D01*
X0187896Y0018799D02*
X0168501Y0018799D01*
X0169480Y0019779D02*
X0169480Y0023007D01*
X0160980Y0023007D01*
X0160980Y0024007D01*
X0159980Y0024007D01*
X0159980Y0032507D01*
X0156752Y0032507D01*
X0151480Y0027234D01*
X0151480Y0024007D01*
X0159980Y0024007D01*
X0159980Y0023007D01*
X0151480Y0023007D01*
X0151480Y0019779D01*
X0156752Y0014507D01*
X0159980Y0014507D01*
X0159980Y0023006D01*
X0160980Y0023006D01*
X0160980Y0014507D01*
X0164208Y0014507D01*
X0169480Y0019779D01*
X0169480Y0021795D02*
X0174829Y0021795D01*
X0174028Y0022793D02*
X0169480Y0022793D01*
X0169480Y0024007D02*
X0169480Y0027234D01*
X0164208Y0032507D01*
X0160980Y0032507D01*
X0160980Y0024007D01*
X0169480Y0024007D01*
X0169480Y0024790D02*
X0174028Y0024790D01*
X0174028Y0023792D02*
X0160980Y0023792D01*
X0160980Y0024790D02*
X0159980Y0024790D01*
X0159980Y0023792D02*
X0138671Y0023792D01*
X0138431Y0023708D02*
X0139710Y0024155D01*
X0140931Y0024743D01*
X0142078Y0025464D01*
X0143137Y0026309D01*
X0144095Y0027267D01*
X0144940Y0028326D01*
X0145661Y0029473D01*
X0146249Y0030694D01*
X0146696Y0031973D01*
X0146998Y0033294D01*
X0147150Y0034640D01*
X0147150Y0034818D01*
X0135587Y0034818D01*
X0135587Y0035818D01*
X0134587Y0035818D01*
X0134587Y0047381D01*
X0134409Y0047381D01*
X0133063Y0047229D01*
X0131742Y0046927D01*
X0130463Y0046480D01*
X0129242Y0045892D01*
X0128095Y0045171D01*
X0127036Y0044326D01*
X0126078Y0043368D01*
X0125233Y0042309D01*
X0124512Y0041162D01*
X0123924Y0039941D01*
X0123477Y0038662D01*
X0123175Y0037341D01*
X0123024Y0035995D01*
X0123024Y0035818D01*
X0134587Y0035818D01*
X0134587Y0034818D01*
X0135587Y0034818D01*
X0135587Y0023255D01*
X0135764Y0023255D01*
X0137110Y0023406D01*
X0138431Y0023708D01*
X0141006Y0024790D02*
X0151480Y0024790D01*
X0151480Y0025789D02*
X0142485Y0025789D01*
X0143616Y0026787D02*
X0151480Y0026787D01*
X0152032Y0027786D02*
X0144509Y0027786D01*
X0145228Y0028784D02*
X0153030Y0028784D01*
X0154029Y0029783D02*
X0145810Y0029783D01*
X0146279Y0030781D02*
X0155027Y0030781D01*
X0156026Y0031780D02*
X0146629Y0031780D01*
X0146880Y0032778D02*
X0174028Y0032778D01*
X0174028Y0031780D02*
X0164935Y0031780D01*
X0165933Y0030781D02*
X0174028Y0030781D01*
X0174028Y0029783D02*
X0166932Y0029783D01*
X0167930Y0028784D02*
X0174028Y0028784D01*
X0174028Y0027786D02*
X0168929Y0027786D01*
X0169480Y0026787D02*
X0174028Y0026787D01*
X0174028Y0025789D02*
X0169480Y0025789D01*
X0160980Y0025789D02*
X0159980Y0025789D01*
X0159980Y0026787D02*
X0160980Y0026787D01*
X0160980Y0027786D02*
X0159980Y0027786D01*
X0159980Y0028784D02*
X0160980Y0028784D01*
X0160980Y0029783D02*
X0159980Y0029783D01*
X0159980Y0030781D02*
X0160980Y0030781D01*
X0160980Y0031780D02*
X0159980Y0031780D01*
X0147052Y0033777D02*
X0174028Y0033777D01*
X0174028Y0034775D02*
X0147150Y0034775D01*
X0147150Y0035818D02*
X0147150Y0035995D01*
X0146998Y0037341D01*
X0146696Y0038662D01*
X0146249Y0039941D01*
X0145661Y0041162D01*
X0144940Y0042309D01*
X0144095Y0043368D01*
X0143137Y0044326D01*
X0142078Y0045171D01*
X0140931Y0045892D01*
X0139710Y0046480D01*
X0138431Y0046927D01*
X0137110Y0047229D01*
X0135764Y0047381D01*
X0135587Y0047381D01*
X0135587Y0035818D01*
X0147150Y0035818D01*
X0147062Y0036772D02*
X0174028Y0036772D01*
X0174028Y0035774D02*
X0135587Y0035774D01*
X0135587Y0036772D02*
X0134587Y0036772D01*
X0134587Y0035774D02*
X0119397Y0035774D01*
X0119397Y0036772D02*
X0123111Y0036772D01*
X0123273Y0037771D02*
X0119172Y0037771D01*
X0118905Y0038769D02*
X0123514Y0038769D01*
X0123864Y0039768D02*
X0118637Y0039768D01*
X0118148Y0040766D02*
X0124322Y0040766D01*
X0124891Y0041765D02*
X0117572Y0041765D01*
X0116995Y0042763D02*
X0125595Y0042763D01*
X0126471Y0043762D02*
X0116032Y0043762D01*
X0115033Y0044760D02*
X0127580Y0044760D01*
X0129031Y0045759D02*
X0113575Y0045759D01*
X0111820Y0046758D02*
X0131256Y0046758D01*
X0134587Y0046758D02*
X0135587Y0046758D01*
X0135587Y0045759D02*
X0134587Y0045759D01*
X0134587Y0044760D02*
X0135587Y0044760D01*
X0135587Y0043762D02*
X0134587Y0043762D01*
X0134587Y0042763D02*
X0135587Y0042763D01*
X0135587Y0041765D02*
X0134587Y0041765D01*
X0134587Y0040766D02*
X0135587Y0040766D01*
X0135587Y0039768D02*
X0134587Y0039768D01*
X0134587Y0038769D02*
X0135587Y0038769D01*
X0135587Y0037771D02*
X0134587Y0037771D01*
X0134587Y0034818D02*
X0123024Y0034818D01*
X0123024Y0034640D01*
X0123175Y0033294D01*
X0123477Y0031973D01*
X0123924Y0030694D01*
X0124512Y0029473D01*
X0125233Y0028326D01*
X0126078Y0027267D01*
X0127036Y0026309D01*
X0128095Y0025464D01*
X0129242Y0024743D01*
X0130463Y0024155D01*
X0131742Y0023708D01*
X0133063Y0023406D01*
X0134409Y0023255D01*
X0134587Y0023255D01*
X0134587Y0034818D01*
X0134587Y0034775D02*
X0135587Y0034775D01*
X0135587Y0033777D02*
X0134587Y0033777D01*
X0134587Y0032778D02*
X0135587Y0032778D01*
X0135587Y0031780D02*
X0134587Y0031780D01*
X0134587Y0030781D02*
X0135587Y0030781D01*
X0135587Y0029783D02*
X0134587Y0029783D01*
X0134587Y0028784D02*
X0135587Y0028784D01*
X0135587Y0027786D02*
X0134587Y0027786D01*
X0134587Y0026787D02*
X0135587Y0026787D01*
X0135587Y0025789D02*
X0134587Y0025789D01*
X0134587Y0024790D02*
X0135587Y0024790D01*
X0135587Y0023792D02*
X0134587Y0023792D01*
X0131502Y0023792D02*
X0111499Y0023792D01*
X0113426Y0024790D02*
X0129167Y0024790D01*
X0127688Y0025789D02*
X0114948Y0025789D01*
X0115946Y0026787D02*
X0126557Y0026787D01*
X0125664Y0027786D02*
X0116945Y0027786D01*
X0117522Y0028784D02*
X0124945Y0028784D01*
X0124363Y0029783D02*
X0118098Y0029783D01*
X0118614Y0030781D02*
X0123894Y0030781D01*
X0123544Y0031780D02*
X0118881Y0031780D01*
X0119149Y0032778D02*
X0123293Y0032778D01*
X0123121Y0033777D02*
X0119397Y0033777D01*
X0119397Y0034775D02*
X0123024Y0034775D01*
X0143702Y0043762D02*
X0156380Y0043762D01*
X0156380Y0043304D02*
X0158782Y0040903D01*
X0160180Y0040903D01*
X0160180Y0044703D01*
X0156380Y0044703D01*
X0156380Y0043304D01*
X0156921Y0042763D02*
X0144578Y0042763D01*
X0145282Y0041765D02*
X0157920Y0041765D01*
X0160180Y0041765D02*
X0160780Y0041765D01*
X0160780Y0040903D02*
X0162179Y0040903D01*
X0164580Y0043304D01*
X0164580Y0044703D01*
X0160780Y0044703D01*
X0160780Y0045303D01*
X0160180Y0045303D01*
X0160180Y0049103D01*
X0158782Y0049103D01*
X0156380Y0046701D01*
X0156380Y0045303D01*
X0160180Y0045303D01*
X0160180Y0044703D01*
X0160780Y0044703D01*
X0160780Y0040903D01*
X0163041Y0041765D02*
X0174028Y0041765D01*
X0174028Y0042763D02*
X0164039Y0042763D01*
X0164580Y0043762D02*
X0174028Y0043762D01*
X0174028Y0044760D02*
X0160780Y0044760D01*
X0160780Y0045303D02*
X0164580Y0045303D01*
X0164580Y0046701D01*
X0162179Y0049103D01*
X0160780Y0049103D01*
X0160780Y0045303D01*
X0160780Y0045759D02*
X0160180Y0045759D01*
X0160180Y0046758D02*
X0160780Y0046758D01*
X0160780Y0047756D02*
X0160180Y0047756D01*
X0160180Y0048755D02*
X0160780Y0048755D01*
X0162527Y0048755D02*
X0174028Y0048755D01*
X0174028Y0049753D02*
X0059873Y0049753D01*
X0060206Y0050752D02*
X0174028Y0050752D01*
X0174028Y0051750D02*
X0060350Y0051750D01*
X0060493Y0052749D02*
X0174028Y0052749D01*
X0174028Y0053747D02*
X0060637Y0053747D01*
X0060780Y0054746D02*
X0174028Y0054746D01*
X0174028Y0055744D02*
X0060711Y0055744D01*
X0060567Y0056743D02*
X0174028Y0056743D01*
X0174028Y0057741D02*
X0060424Y0057741D01*
X0060280Y0058740D02*
X0174028Y0058740D01*
X0174028Y0059738D02*
X0060107Y0059738D01*
X0059651Y0060737D02*
X0079925Y0060737D01*
X0079959Y0060703D02*
X0083521Y0060703D01*
X0086040Y0063222D01*
X0086040Y0066784D01*
X0083521Y0069303D01*
X0079959Y0069303D01*
X0077440Y0066784D01*
X0077440Y0063222D01*
X0079959Y0060703D01*
X0078926Y0061735D02*
X0059195Y0061735D01*
X0058739Y0062734D02*
X0077928Y0062734D01*
X0077440Y0063732D02*
X0058283Y0063732D01*
X0057492Y0064731D02*
X0077440Y0064731D01*
X0077440Y0065729D02*
X0056626Y0065729D01*
X0055761Y0066728D02*
X0077440Y0066728D01*
X0078383Y0067726D02*
X0054710Y0067726D01*
X0055130Y0067456D02*
X0055130Y0067456D01*
X0053156Y0068725D02*
X0079381Y0068725D01*
X0084099Y0068725D02*
X0158121Y0068725D01*
X0158280Y0069723D02*
X0051603Y0069723D01*
X0048699Y0070722D02*
X0158280Y0070722D01*
X0158280Y0071720D02*
X0007500Y0071720D01*
X0007500Y0072719D02*
X0158280Y0072719D01*
X0158280Y0073717D02*
X0007500Y0073717D01*
X0007500Y0074716D02*
X0158280Y0074716D01*
X0158280Y0075714D02*
X0007500Y0075714D01*
X0007500Y0080707D02*
X0022847Y0080707D01*
X0022622Y0081705D02*
X0007500Y0081705D01*
X0007500Y0082704D02*
X0022622Y0082704D01*
X0022622Y0083702D02*
X0007500Y0083702D01*
X0007500Y0084701D02*
X0022622Y0084701D01*
X0022622Y0085699D02*
X0007500Y0085699D01*
X0048588Y0094686D02*
X0205444Y0094686D01*
X0203033Y0093688D02*
X0050999Y0093688D01*
X0051086Y0093651D02*
X0051086Y0093651D01*
X0052365Y0092689D02*
X0201667Y0092689D01*
X0202945Y0093651D02*
X0202945Y0093651D01*
X0199287Y0086698D02*
X0148803Y0086698D01*
X0149802Y0085699D02*
X0198392Y0085699D01*
X0198571Y0084701D02*
X0161452Y0084701D01*
X0162451Y0083702D02*
X0198898Y0083702D01*
X0199396Y0082704D02*
X0162680Y0082704D01*
X0162680Y0081705D02*
X0200099Y0081705D01*
X0201139Y0080707D02*
X0162680Y0080707D01*
X0162680Y0079708D02*
X0202583Y0079708D01*
X0202945Y0079346D02*
X0202945Y0079346D01*
X0204481Y0078710D02*
X0162680Y0078710D01*
X0162680Y0077711D02*
X0234720Y0077711D01*
X0234720Y0076713D02*
X0162680Y0076713D01*
X0162680Y0075714D02*
X0234720Y0075714D01*
X0234720Y0074716D02*
X0162680Y0074716D01*
X0162680Y0073717D02*
X0234720Y0073717D01*
X0234720Y0072719D02*
X0162680Y0072719D01*
X0162680Y0071720D02*
X0234720Y0071720D01*
X0234720Y0070722D02*
X0217991Y0070722D01*
X0215975Y0071314D02*
X0214525Y0071314D01*
X0195537Y0071314D01*
X0191036Y0069992D01*
X0187091Y0067456D01*
X0184019Y0063912D01*
X0182071Y0059645D01*
X0181403Y0055003D01*
X0181403Y0055003D01*
X0182071Y0050360D01*
X0184019Y0046094D01*
X0187091Y0042549D01*
X0191036Y0040013D01*
X0191036Y0040013D01*
X0195537Y0038692D01*
X0215975Y0038692D01*
X0220475Y0040013D01*
X0220475Y0040013D01*
X0224421Y0042549D01*
X0224421Y0042549D01*
X0227493Y0046094D01*
X0229441Y0050360D01*
X0230109Y0055003D01*
X0229441Y0059645D01*
X0229441Y0059645D01*
X0227493Y0063912D01*
X0224421Y0067456D01*
X0224421Y0067456D01*
X0220475Y0069992D01*
X0215975Y0071314D01*
X0220475Y0069992D02*
X0220475Y0069992D01*
X0220894Y0069723D02*
X0234720Y0069723D01*
X0234720Y0068725D02*
X0222448Y0068725D01*
X0224001Y0067726D02*
X0234720Y0067726D01*
X0234720Y0066728D02*
X0225053Y0066728D01*
X0224421Y0067456D02*
X0224421Y0067456D01*
X0225918Y0065729D02*
X0234720Y0065729D01*
X0234720Y0064731D02*
X0226783Y0064731D01*
X0227493Y0063912D02*
X0227493Y0063912D01*
X0227575Y0063732D02*
X0234720Y0063732D01*
X0234720Y0062734D02*
X0228031Y0062734D01*
X0228487Y0061735D02*
X0234720Y0061735D01*
X0234720Y0060737D02*
X0228943Y0060737D01*
X0229399Y0059738D02*
X0234720Y0059738D01*
X0234720Y0058740D02*
X0229571Y0058740D01*
X0229715Y0057741D02*
X0234720Y0057741D01*
X0234720Y0056743D02*
X0229858Y0056743D01*
X0230002Y0055744D02*
X0234720Y0055744D01*
X0234720Y0054746D02*
X0230072Y0054746D01*
X0230109Y0055003D02*
X0230109Y0055003D01*
X0229928Y0053747D02*
X0234720Y0053747D01*
X0234720Y0052749D02*
X0229785Y0052749D01*
X0229641Y0051750D02*
X0234720Y0051750D01*
X0234720Y0050752D02*
X0229497Y0050752D01*
X0229441Y0050360D02*
X0229441Y0050360D01*
X0229164Y0049753D02*
X0234720Y0049753D01*
X0234720Y0048755D02*
X0228708Y0048755D01*
X0228252Y0047756D02*
X0234720Y0047756D01*
X0234720Y0046758D02*
X0227796Y0046758D01*
X0227493Y0046094D02*
X0227493Y0046094D01*
X0227203Y0045759D02*
X0234720Y0045759D01*
X0234720Y0044760D02*
X0226338Y0044760D01*
X0225472Y0043762D02*
X0234720Y0043762D01*
X0234720Y0042763D02*
X0224607Y0042763D01*
X0223201Y0041765D02*
X0234720Y0041765D01*
X0234720Y0040766D02*
X0221648Y0040766D01*
X0219641Y0039768D02*
X0234720Y0039768D01*
X0234720Y0038769D02*
X0216240Y0038769D01*
X0234720Y0037771D02*
X0178428Y0037771D01*
X0178428Y0038769D02*
X0195272Y0038769D01*
X0191871Y0039768D02*
X0178428Y0039768D01*
X0178428Y0040766D02*
X0189864Y0040766D01*
X0188310Y0041765D02*
X0178428Y0041765D01*
X0178428Y0042763D02*
X0186905Y0042763D01*
X0187091Y0042549D02*
X0187091Y0042549D01*
X0186039Y0043762D02*
X0178428Y0043762D01*
X0178428Y0044760D02*
X0185174Y0044760D01*
X0184309Y0045759D02*
X0178428Y0045759D01*
X0178428Y0046758D02*
X0183716Y0046758D01*
X0183260Y0047756D02*
X0178428Y0047756D01*
X0178428Y0048755D02*
X0182804Y0048755D01*
X0182348Y0049753D02*
X0178428Y0049753D01*
X0178428Y0050752D02*
X0182014Y0050752D01*
X0181871Y0051750D02*
X0178428Y0051750D01*
X0178428Y0052749D02*
X0181727Y0052749D01*
X0181584Y0053747D02*
X0178428Y0053747D01*
X0178428Y0054746D02*
X0181440Y0054746D01*
X0181510Y0055744D02*
X0178428Y0055744D01*
X0178428Y0056743D02*
X0181653Y0056743D01*
X0181797Y0057741D02*
X0178428Y0057741D01*
X0178428Y0058740D02*
X0181940Y0058740D01*
X0182071Y0059645D02*
X0182071Y0059645D01*
X0182113Y0059738D02*
X0178428Y0059738D01*
X0178428Y0060737D02*
X0182569Y0060737D01*
X0183025Y0061735D02*
X0178428Y0061735D01*
X0178428Y0062734D02*
X0183481Y0062734D01*
X0183937Y0063732D02*
X0178428Y0063732D01*
X0178428Y0064731D02*
X0184729Y0064731D01*
X0184019Y0063912D02*
X0184019Y0063912D01*
X0185594Y0065729D02*
X0178428Y0065729D01*
X0177614Y0066728D02*
X0186459Y0066728D01*
X0187091Y0067456D02*
X0187091Y0067456D01*
X0187510Y0067726D02*
X0163838Y0067726D01*
X0162839Y0068725D02*
X0189064Y0068725D01*
X0190618Y0069723D02*
X0162680Y0069723D01*
X0162680Y0070722D02*
X0193521Y0070722D01*
X0191036Y0069992D02*
X0191036Y0069992D01*
X0174028Y0062734D02*
X0164292Y0062734D01*
X0163294Y0061735D02*
X0174028Y0061735D01*
X0174028Y0060737D02*
X0162295Y0060737D01*
X0158665Y0060737D02*
X0083555Y0060737D01*
X0084554Y0061735D02*
X0157667Y0061735D01*
X0156668Y0062734D02*
X0085552Y0062734D01*
X0086040Y0063732D02*
X0156180Y0063732D01*
X0156180Y0064731D02*
X0086040Y0064731D01*
X0086040Y0065729D02*
X0156180Y0065729D01*
X0156180Y0066728D02*
X0086040Y0066728D01*
X0085098Y0067726D02*
X0157123Y0067726D01*
X0127158Y0078710D02*
X0126558Y0078710D01*
X0126558Y0079708D02*
X0127158Y0079708D01*
X0127158Y0080707D02*
X0126558Y0080707D01*
X0130958Y0083702D02*
X0142558Y0083702D01*
X0142916Y0084701D02*
X0130517Y0084701D01*
X0070114Y0084701D02*
X0069114Y0084701D01*
X0069114Y0085699D02*
X0070114Y0085699D01*
X0070114Y0086698D02*
X0069114Y0086698D01*
X0069114Y0081705D02*
X0070114Y0081705D01*
X0070114Y0080707D02*
X0069114Y0080707D01*
X0069114Y0079708D02*
X0070114Y0079708D01*
X0070114Y0078710D02*
X0069114Y0078710D01*
X0066749Y0078710D02*
X0049550Y0078710D01*
X0051448Y0079708D02*
X0065754Y0079708D01*
X0065172Y0080707D02*
X0052892Y0080707D01*
X0053932Y0081705D02*
X0064890Y0081705D01*
X0059417Y0048755D02*
X0079694Y0048755D01*
X0080042Y0049103D02*
X0077640Y0046701D01*
X0077640Y0045303D01*
X0081440Y0045303D01*
X0081440Y0049103D01*
X0080042Y0049103D01*
X0081440Y0048755D02*
X0082040Y0048755D01*
X0082040Y0049103D02*
X0082040Y0045303D01*
X0081440Y0045303D01*
X0081440Y0044703D01*
X0077640Y0044703D01*
X0077640Y0043304D01*
X0080042Y0040903D01*
X0081440Y0040903D01*
X0081440Y0044703D01*
X0082040Y0044703D01*
X0082040Y0045303D01*
X0085840Y0045303D01*
X0085840Y0046701D01*
X0083438Y0049103D01*
X0082040Y0049103D01*
X0082040Y0047756D02*
X0081440Y0047756D01*
X0081440Y0046758D02*
X0082040Y0046758D01*
X0082040Y0045759D02*
X0081440Y0045759D01*
X0081440Y0044760D02*
X0057046Y0044760D01*
X0056181Y0043762D02*
X0077640Y0043762D01*
X0078181Y0042763D02*
X0055316Y0042763D01*
X0053910Y0041765D02*
X0079180Y0041765D01*
X0081440Y0041765D02*
X0082040Y0041765D01*
X0082040Y0040903D02*
X0083438Y0040903D01*
X0085840Y0043304D01*
X0085840Y0044703D01*
X0082040Y0044703D01*
X0082040Y0040903D01*
X0084301Y0041765D02*
X0096696Y0041765D01*
X0096120Y0040766D02*
X0052356Y0040766D01*
X0050349Y0039768D02*
X0095631Y0039768D01*
X0095363Y0038769D02*
X0046949Y0038769D01*
X0057911Y0045759D02*
X0077640Y0045759D01*
X0077697Y0046758D02*
X0058505Y0046758D01*
X0058961Y0047756D02*
X0078695Y0047756D01*
X0083787Y0048755D02*
X0158434Y0048755D01*
X0157435Y0047756D02*
X0084785Y0047756D01*
X0085784Y0046758D02*
X0102448Y0046758D01*
X0100693Y0045759D02*
X0085840Y0045759D01*
X0082040Y0044760D02*
X0099234Y0044760D01*
X0098236Y0043762D02*
X0085840Y0043762D01*
X0085299Y0042763D02*
X0097273Y0042763D01*
X0082040Y0042763D02*
X0081440Y0042763D01*
X0081440Y0043762D02*
X0082040Y0043762D01*
X0086478Y0031780D02*
X0095386Y0031780D01*
X0095654Y0030781D02*
X0087476Y0030781D01*
X0088475Y0029783D02*
X0096169Y0029783D01*
X0096746Y0028784D02*
X0089473Y0028784D01*
X0090472Y0027786D02*
X0097323Y0027786D01*
X0098322Y0026787D02*
X0090940Y0026787D01*
X0090940Y0025789D02*
X0099320Y0025789D01*
X0100842Y0024790D02*
X0090940Y0024790D01*
X0090940Y0023792D02*
X0102768Y0023792D01*
X0090940Y0022793D02*
X0151480Y0022793D01*
X0151480Y0021795D02*
X0090940Y0021795D01*
X0090940Y0020796D02*
X0151480Y0020796D01*
X0151480Y0019798D02*
X0090940Y0019798D01*
X0090044Y0018799D02*
X0152460Y0018799D01*
X0153458Y0017801D02*
X0089045Y0017801D01*
X0088047Y0016802D02*
X0154457Y0016802D01*
X0155455Y0015804D02*
X0087048Y0015804D01*
X0086049Y0014805D02*
X0156454Y0014805D01*
X0159980Y0014805D02*
X0160980Y0014805D01*
X0160980Y0015804D02*
X0159980Y0015804D01*
X0159980Y0016802D02*
X0160980Y0016802D01*
X0160980Y0017801D02*
X0159980Y0017801D01*
X0159980Y0018799D02*
X0160980Y0018799D01*
X0160980Y0019798D02*
X0159980Y0019798D01*
X0159980Y0020796D02*
X0160980Y0020796D01*
X0160980Y0021795D02*
X0159980Y0021795D01*
X0159980Y0022793D02*
X0160980Y0022793D01*
X0167502Y0017801D02*
X0188895Y0017801D01*
X0190257Y0016802D02*
X0166504Y0016802D01*
X0165505Y0015804D02*
X0192463Y0015804D01*
X0205466Y0015070D02*
X0205466Y0015070D01*
X0207238Y0015804D02*
X0234720Y0015804D01*
X0234720Y0016802D02*
X0209444Y0016802D01*
X0210806Y0017801D02*
X0211400Y0017801D01*
X0219797Y0017801D02*
X0234720Y0017801D01*
X0234720Y0018799D02*
X0219798Y0018799D01*
X0219798Y0019798D02*
X0234720Y0019798D01*
X0234720Y0020796D02*
X0219798Y0020796D01*
X0219798Y0021795D02*
X0234720Y0021795D01*
X0234720Y0022793D02*
X0219798Y0022793D01*
X0234720Y0014805D02*
X0164507Y0014805D01*
X0191134Y0030659D02*
X0191134Y0030659D01*
X0178428Y0033777D02*
X0234720Y0033777D01*
X0234720Y0034775D02*
X0178428Y0034775D01*
X0178428Y0035774D02*
X0234720Y0035774D01*
X0234720Y0036772D02*
X0178428Y0036772D01*
X0174028Y0037771D02*
X0146900Y0037771D01*
X0146659Y0038769D02*
X0174028Y0038769D01*
X0174028Y0039768D02*
X0146310Y0039768D01*
X0145851Y0040766D02*
X0174028Y0040766D01*
X0174028Y0045759D02*
X0164580Y0045759D01*
X0164524Y0046758D02*
X0174028Y0046758D01*
X0174028Y0047756D02*
X0163525Y0047756D01*
X0160180Y0044760D02*
X0142593Y0044760D01*
X0141143Y0045759D02*
X0156380Y0045759D01*
X0156437Y0046758D02*
X0138917Y0046758D01*
X0160180Y0043762D02*
X0160780Y0043762D01*
X0160780Y0042763D02*
X0160180Y0042763D01*
X0234720Y0013807D02*
X0007500Y0013807D01*
X0007500Y0014805D02*
X0077431Y0014805D01*
X0076432Y0015804D02*
X0037947Y0015804D01*
X0040153Y0016802D02*
X0075434Y0016802D01*
X0074435Y0017801D02*
X0041514Y0017801D01*
X0042513Y0018799D02*
X0073437Y0018799D01*
X0072540Y0019798D02*
X0043160Y0019798D01*
X0043574Y0020796D02*
X0072540Y0020796D01*
X0081740Y0023507D02*
X0030559Y0023507D01*
X0019604Y0017801D02*
X0019009Y0017801D01*
X0020965Y0016802D02*
X0007500Y0016802D01*
X0007500Y0015804D02*
X0023172Y0015804D01*
X0021843Y0016354D02*
X0021843Y0016354D01*
X0010613Y0017801D02*
X0007500Y0017801D01*
X0007500Y0018799D02*
X0010611Y0018799D01*
X0010611Y0019798D02*
X0007500Y0019798D01*
X0007500Y0020796D02*
X0010611Y0020796D01*
X0010611Y0021795D02*
X0007500Y0021795D01*
X0007500Y0022793D02*
X0010611Y0022793D01*
X0007500Y0012808D02*
X0234720Y0012808D01*
X0234720Y0011810D02*
X0007500Y0011810D01*
X0007500Y0010811D02*
X0234720Y0010811D01*
X0234720Y0009813D02*
X0007500Y0009813D01*
X0007500Y0008814D02*
X0234720Y0008814D01*
X0234720Y0078710D02*
X0218841Y0078710D01*
X0220378Y0079346D02*
X0220378Y0079346D01*
X0220740Y0079708D02*
X0234720Y0079708D01*
X0234720Y0080707D02*
X0231184Y0080707D01*
X0231409Y0081705D02*
X0234720Y0081705D01*
X0234720Y0082704D02*
X0231409Y0082704D01*
X0231409Y0083702D02*
X0234720Y0083702D01*
X0234720Y0084701D02*
X0231409Y0084701D01*
X0231409Y0085699D02*
X0234720Y0085699D01*
X0227909Y0085699D02*
X0226909Y0085699D01*
X0226909Y0084701D02*
X0227909Y0084701D01*
X0227909Y0083702D02*
X0226909Y0083702D01*
X0226909Y0082704D02*
X0227909Y0082704D01*
X0227909Y0081705D02*
X0226909Y0081705D01*
X0226909Y0080707D02*
X0227909Y0080707D01*
X0223635Y0080707D02*
X0222184Y0080707D01*
X0223223Y0081705D02*
X0223409Y0081705D01*
X0226909Y0087696D02*
X0227909Y0087696D01*
X0227909Y0088695D02*
X0226909Y0088695D01*
X0226909Y0089693D02*
X0227909Y0089693D01*
X0227909Y0090692D02*
X0226909Y0090692D01*
X0226909Y0091691D02*
X0227909Y0091691D01*
X0227909Y0092689D02*
X0226909Y0092689D01*
X0223978Y0092689D02*
X0221656Y0092689D01*
X0222848Y0091691D02*
X0223409Y0091691D01*
X0077003Y0031780D02*
X0036570Y0031780D01*
X0038980Y0030781D02*
X0076004Y0030781D01*
X0075006Y0029783D02*
X0040944Y0029783D01*
X0041943Y0028784D02*
X0074007Y0028784D01*
X0073009Y0027786D02*
X0042924Y0027786D01*
X0043338Y0026787D02*
X0072540Y0026787D01*
X0072540Y0025789D02*
X0043751Y0025789D01*
X0039275Y0030659D02*
X0039275Y0030659D01*
M02*
