G75*
%MOIN*%
%OFA0B0*%
%FSLAX25Y25*%
%IPPOS*%
%LPD*%
%AMOC8*
5,1,8,0,0,1.08239X$1,22.5*
%
%ADD10C,0.00000*%
%ADD11C,0.21126*%
%ADD12C,0.00984*%
%ADD13C,0.11811*%
%ADD14OC8,0.05200*%
%ADD15C,0.06600*%
%ADD16C,0.01000*%
D10*
X0003000Y0011696D02*
X0003000Y0098310D01*
X0239220Y0098310D01*
X0239220Y0011696D01*
X0003000Y0011696D01*
X0022685Y0031381D02*
X0030559Y0031381D01*
X0030683Y0031383D01*
X0030806Y0031389D01*
X0030930Y0031398D01*
X0031052Y0031412D01*
X0031175Y0031429D01*
X0031297Y0031451D01*
X0031418Y0031476D01*
X0031538Y0031505D01*
X0031657Y0031537D01*
X0031776Y0031574D01*
X0031893Y0031614D01*
X0032008Y0031657D01*
X0032123Y0031705D01*
X0032235Y0031756D01*
X0032346Y0031810D01*
X0032456Y0031868D01*
X0032563Y0031929D01*
X0032669Y0031994D01*
X0032772Y0032062D01*
X0032873Y0032133D01*
X0032972Y0032207D01*
X0033069Y0032284D01*
X0033163Y0032365D01*
X0033254Y0032448D01*
X0033343Y0032534D01*
X0033429Y0032623D01*
X0033512Y0032714D01*
X0033593Y0032808D01*
X0033670Y0032905D01*
X0033744Y0033004D01*
X0033815Y0033105D01*
X0033883Y0033208D01*
X0033948Y0033314D01*
X0034009Y0033421D01*
X0034067Y0033531D01*
X0034121Y0033642D01*
X0034172Y0033754D01*
X0034220Y0033869D01*
X0034263Y0033984D01*
X0034303Y0034101D01*
X0034340Y0034220D01*
X0034372Y0034339D01*
X0034401Y0034459D01*
X0034426Y0034580D01*
X0034448Y0034702D01*
X0034465Y0034825D01*
X0034479Y0034947D01*
X0034488Y0035071D01*
X0034494Y0035194D01*
X0034496Y0035318D01*
X0034494Y0035442D01*
X0034488Y0035565D01*
X0034479Y0035689D01*
X0034465Y0035811D01*
X0034448Y0035934D01*
X0034426Y0036056D01*
X0034401Y0036177D01*
X0034372Y0036297D01*
X0034340Y0036416D01*
X0034303Y0036535D01*
X0034263Y0036652D01*
X0034220Y0036767D01*
X0034172Y0036882D01*
X0034121Y0036994D01*
X0034067Y0037105D01*
X0034009Y0037215D01*
X0033948Y0037322D01*
X0033883Y0037428D01*
X0033815Y0037531D01*
X0033744Y0037632D01*
X0033670Y0037731D01*
X0033593Y0037828D01*
X0033512Y0037922D01*
X0033429Y0038013D01*
X0033343Y0038102D01*
X0033254Y0038188D01*
X0033163Y0038271D01*
X0033069Y0038352D01*
X0032972Y0038429D01*
X0032873Y0038503D01*
X0032772Y0038574D01*
X0032669Y0038642D01*
X0032563Y0038707D01*
X0032456Y0038768D01*
X0032346Y0038826D01*
X0032235Y0038880D01*
X0032123Y0038931D01*
X0032008Y0038979D01*
X0031893Y0039022D01*
X0031776Y0039062D01*
X0031657Y0039099D01*
X0031538Y0039131D01*
X0031418Y0039160D01*
X0031297Y0039185D01*
X0031175Y0039207D01*
X0031052Y0039224D01*
X0030930Y0039238D01*
X0030806Y0039247D01*
X0030683Y0039253D01*
X0030559Y0039255D01*
X0022685Y0039255D01*
X0022561Y0039253D01*
X0022438Y0039247D01*
X0022314Y0039238D01*
X0022192Y0039224D01*
X0022069Y0039207D01*
X0021947Y0039185D01*
X0021826Y0039160D01*
X0021706Y0039131D01*
X0021587Y0039099D01*
X0021468Y0039062D01*
X0021351Y0039022D01*
X0021236Y0038979D01*
X0021121Y0038931D01*
X0021009Y0038880D01*
X0020898Y0038826D01*
X0020788Y0038768D01*
X0020681Y0038707D01*
X0020575Y0038642D01*
X0020472Y0038574D01*
X0020371Y0038503D01*
X0020272Y0038429D01*
X0020175Y0038352D01*
X0020081Y0038271D01*
X0019990Y0038188D01*
X0019901Y0038102D01*
X0019815Y0038013D01*
X0019732Y0037922D01*
X0019651Y0037828D01*
X0019574Y0037731D01*
X0019500Y0037632D01*
X0019429Y0037531D01*
X0019361Y0037428D01*
X0019296Y0037322D01*
X0019235Y0037215D01*
X0019177Y0037105D01*
X0019123Y0036994D01*
X0019072Y0036882D01*
X0019024Y0036767D01*
X0018981Y0036652D01*
X0018941Y0036535D01*
X0018904Y0036416D01*
X0018872Y0036297D01*
X0018843Y0036177D01*
X0018818Y0036056D01*
X0018796Y0035934D01*
X0018779Y0035811D01*
X0018765Y0035689D01*
X0018756Y0035565D01*
X0018750Y0035442D01*
X0018748Y0035318D01*
X0018750Y0035194D01*
X0018756Y0035071D01*
X0018765Y0034947D01*
X0018779Y0034825D01*
X0018796Y0034702D01*
X0018818Y0034580D01*
X0018843Y0034459D01*
X0018872Y0034339D01*
X0018904Y0034220D01*
X0018941Y0034101D01*
X0018981Y0033984D01*
X0019024Y0033869D01*
X0019072Y0033754D01*
X0019123Y0033642D01*
X0019177Y0033531D01*
X0019235Y0033421D01*
X0019296Y0033314D01*
X0019361Y0033208D01*
X0019429Y0033105D01*
X0019500Y0033004D01*
X0019574Y0032905D01*
X0019651Y0032808D01*
X0019732Y0032714D01*
X0019815Y0032623D01*
X0019901Y0032534D01*
X0019990Y0032448D01*
X0020081Y0032365D01*
X0020175Y0032284D01*
X0020272Y0032207D01*
X0020371Y0032133D01*
X0020472Y0032062D01*
X0020575Y0031994D01*
X0020681Y0031929D01*
X0020788Y0031868D01*
X0020898Y0031810D01*
X0021009Y0031756D01*
X0021121Y0031705D01*
X0021236Y0031657D01*
X0021351Y0031614D01*
X0021468Y0031574D01*
X0021587Y0031537D01*
X0021706Y0031505D01*
X0021826Y0031476D01*
X0021947Y0031451D01*
X0022069Y0031429D01*
X0022192Y0031412D01*
X0022314Y0031398D01*
X0022438Y0031389D01*
X0022561Y0031383D01*
X0022685Y0031381D01*
X0024654Y0043192D02*
X0040402Y0043192D01*
X0040690Y0043196D01*
X0040977Y0043206D01*
X0041264Y0043224D01*
X0041551Y0043248D01*
X0041837Y0043279D01*
X0042122Y0043318D01*
X0042406Y0043363D01*
X0042689Y0043415D01*
X0042970Y0043475D01*
X0043250Y0043541D01*
X0043528Y0043613D01*
X0043805Y0043693D01*
X0044079Y0043779D01*
X0044351Y0043872D01*
X0044621Y0043971D01*
X0044889Y0044077D01*
X0045153Y0044190D01*
X0045415Y0044309D01*
X0045674Y0044434D01*
X0045930Y0044566D01*
X0046183Y0044703D01*
X0046432Y0044847D01*
X0046677Y0044997D01*
X0046919Y0045153D01*
X0047157Y0045314D01*
X0047391Y0045482D01*
X0047621Y0045655D01*
X0047846Y0045833D01*
X0048067Y0046017D01*
X0048284Y0046206D01*
X0048496Y0046401D01*
X0048703Y0046601D01*
X0048905Y0046805D01*
X0049102Y0047015D01*
X0049294Y0047229D01*
X0049480Y0047448D01*
X0049662Y0047671D01*
X0049838Y0047899D01*
X0050008Y0048131D01*
X0050172Y0048367D01*
X0050331Y0048606D01*
X0050484Y0048850D01*
X0050631Y0049098D01*
X0050771Y0049348D01*
X0050906Y0049603D01*
X0051034Y0049860D01*
X0051156Y0050120D01*
X0051272Y0050384D01*
X0051381Y0050650D01*
X0051484Y0050918D01*
X0051580Y0051189D01*
X0051670Y0051463D01*
X0051753Y0051738D01*
X0051829Y0052016D01*
X0051898Y0052295D01*
X0051961Y0052575D01*
X0052017Y0052858D01*
X0052065Y0053141D01*
X0052107Y0053426D01*
X0052142Y0053711D01*
X0052170Y0053997D01*
X0052191Y0054284D01*
X0052205Y0054572D01*
X0052212Y0054859D01*
X0052212Y0055147D01*
X0052205Y0055434D01*
X0052191Y0055722D01*
X0052170Y0056009D01*
X0052142Y0056295D01*
X0052107Y0056580D01*
X0052065Y0056865D01*
X0052017Y0057148D01*
X0051961Y0057431D01*
X0051898Y0057711D01*
X0051829Y0057990D01*
X0051753Y0058268D01*
X0051670Y0058543D01*
X0051580Y0058817D01*
X0051484Y0059088D01*
X0051381Y0059356D01*
X0051272Y0059622D01*
X0051156Y0059886D01*
X0051034Y0060146D01*
X0050906Y0060403D01*
X0050771Y0060658D01*
X0050631Y0060909D01*
X0050484Y0061156D01*
X0050331Y0061400D01*
X0050172Y0061639D01*
X0050008Y0061875D01*
X0049838Y0062107D01*
X0049662Y0062335D01*
X0049480Y0062558D01*
X0049294Y0062777D01*
X0049102Y0062991D01*
X0048905Y0063201D01*
X0048703Y0063405D01*
X0048496Y0063605D01*
X0048284Y0063800D01*
X0048067Y0063989D01*
X0047846Y0064173D01*
X0047621Y0064351D01*
X0047391Y0064524D01*
X0047157Y0064692D01*
X0046919Y0064853D01*
X0046677Y0065009D01*
X0046432Y0065159D01*
X0046183Y0065303D01*
X0045930Y0065440D01*
X0045674Y0065572D01*
X0045415Y0065697D01*
X0045153Y0065816D01*
X0044889Y0065929D01*
X0044621Y0066035D01*
X0044351Y0066134D01*
X0044079Y0066227D01*
X0043805Y0066313D01*
X0043528Y0066393D01*
X0043250Y0066465D01*
X0042970Y0066531D01*
X0042689Y0066591D01*
X0042406Y0066643D01*
X0042122Y0066688D01*
X0041837Y0066727D01*
X0041551Y0066758D01*
X0041264Y0066782D01*
X0040977Y0066800D01*
X0040690Y0066810D01*
X0040402Y0066814D01*
X0024654Y0066814D01*
X0034496Y0070751D02*
X0042370Y0070751D01*
X0042494Y0070753D01*
X0042617Y0070759D01*
X0042741Y0070768D01*
X0042863Y0070782D01*
X0042986Y0070799D01*
X0043108Y0070821D01*
X0043229Y0070846D01*
X0043349Y0070875D01*
X0043468Y0070907D01*
X0043587Y0070944D01*
X0043704Y0070984D01*
X0043819Y0071027D01*
X0043934Y0071075D01*
X0044046Y0071126D01*
X0044157Y0071180D01*
X0044267Y0071238D01*
X0044374Y0071299D01*
X0044480Y0071364D01*
X0044583Y0071432D01*
X0044684Y0071503D01*
X0044783Y0071577D01*
X0044880Y0071654D01*
X0044974Y0071735D01*
X0045065Y0071818D01*
X0045154Y0071904D01*
X0045240Y0071993D01*
X0045323Y0072084D01*
X0045404Y0072178D01*
X0045481Y0072275D01*
X0045555Y0072374D01*
X0045626Y0072475D01*
X0045694Y0072578D01*
X0045759Y0072684D01*
X0045820Y0072791D01*
X0045878Y0072901D01*
X0045932Y0073012D01*
X0045983Y0073124D01*
X0046031Y0073239D01*
X0046074Y0073354D01*
X0046114Y0073471D01*
X0046151Y0073590D01*
X0046183Y0073709D01*
X0046212Y0073829D01*
X0046237Y0073950D01*
X0046259Y0074072D01*
X0046276Y0074195D01*
X0046290Y0074317D01*
X0046299Y0074441D01*
X0046305Y0074564D01*
X0046307Y0074688D01*
X0046305Y0074812D01*
X0046299Y0074935D01*
X0046290Y0075059D01*
X0046276Y0075181D01*
X0046259Y0075304D01*
X0046237Y0075426D01*
X0046212Y0075547D01*
X0046183Y0075667D01*
X0046151Y0075786D01*
X0046114Y0075905D01*
X0046074Y0076022D01*
X0046031Y0076137D01*
X0045983Y0076252D01*
X0045932Y0076364D01*
X0045878Y0076475D01*
X0045820Y0076585D01*
X0045759Y0076692D01*
X0045694Y0076798D01*
X0045626Y0076901D01*
X0045555Y0077002D01*
X0045481Y0077101D01*
X0045404Y0077198D01*
X0045323Y0077292D01*
X0045240Y0077383D01*
X0045154Y0077472D01*
X0045065Y0077558D01*
X0044974Y0077641D01*
X0044880Y0077722D01*
X0044783Y0077799D01*
X0044684Y0077873D01*
X0044583Y0077944D01*
X0044480Y0078012D01*
X0044374Y0078077D01*
X0044267Y0078138D01*
X0044157Y0078196D01*
X0044046Y0078250D01*
X0043934Y0078301D01*
X0043819Y0078349D01*
X0043704Y0078392D01*
X0043587Y0078432D01*
X0043468Y0078469D01*
X0043349Y0078501D01*
X0043229Y0078530D01*
X0043108Y0078555D01*
X0042986Y0078577D01*
X0042863Y0078594D01*
X0042741Y0078608D01*
X0042617Y0078617D01*
X0042494Y0078623D01*
X0042370Y0078625D01*
X0034496Y0078625D01*
X0034372Y0078623D01*
X0034249Y0078617D01*
X0034125Y0078608D01*
X0034003Y0078594D01*
X0033880Y0078577D01*
X0033758Y0078555D01*
X0033637Y0078530D01*
X0033517Y0078501D01*
X0033398Y0078469D01*
X0033279Y0078432D01*
X0033162Y0078392D01*
X0033047Y0078349D01*
X0032932Y0078301D01*
X0032820Y0078250D01*
X0032709Y0078196D01*
X0032599Y0078138D01*
X0032492Y0078077D01*
X0032386Y0078012D01*
X0032283Y0077944D01*
X0032182Y0077873D01*
X0032083Y0077799D01*
X0031986Y0077722D01*
X0031892Y0077641D01*
X0031801Y0077558D01*
X0031712Y0077472D01*
X0031626Y0077383D01*
X0031543Y0077292D01*
X0031462Y0077198D01*
X0031385Y0077101D01*
X0031311Y0077002D01*
X0031240Y0076901D01*
X0031172Y0076798D01*
X0031107Y0076692D01*
X0031046Y0076585D01*
X0030988Y0076475D01*
X0030934Y0076364D01*
X0030883Y0076252D01*
X0030835Y0076137D01*
X0030792Y0076022D01*
X0030752Y0075905D01*
X0030715Y0075786D01*
X0030683Y0075667D01*
X0030654Y0075547D01*
X0030629Y0075426D01*
X0030607Y0075304D01*
X0030590Y0075181D01*
X0030576Y0075059D01*
X0030567Y0074935D01*
X0030561Y0074812D01*
X0030559Y0074688D01*
X0030561Y0074564D01*
X0030567Y0074441D01*
X0030576Y0074317D01*
X0030590Y0074195D01*
X0030607Y0074072D01*
X0030629Y0073950D01*
X0030654Y0073829D01*
X0030683Y0073709D01*
X0030715Y0073590D01*
X0030752Y0073471D01*
X0030792Y0073354D01*
X0030835Y0073239D01*
X0030883Y0073124D01*
X0030934Y0073012D01*
X0030988Y0072901D01*
X0031046Y0072791D01*
X0031107Y0072684D01*
X0031172Y0072578D01*
X0031240Y0072475D01*
X0031311Y0072374D01*
X0031385Y0072275D01*
X0031462Y0072178D01*
X0031543Y0072084D01*
X0031626Y0071993D01*
X0031712Y0071904D01*
X0031801Y0071818D01*
X0031892Y0071735D01*
X0031986Y0071654D01*
X0032083Y0071577D01*
X0032182Y0071503D01*
X0032283Y0071432D01*
X0032386Y0071364D01*
X0032492Y0071299D01*
X0032599Y0071238D01*
X0032709Y0071180D01*
X0032820Y0071126D01*
X0032932Y0071075D01*
X0033047Y0071027D01*
X0033162Y0070984D01*
X0033279Y0070944D01*
X0033398Y0070907D01*
X0033517Y0070875D01*
X0033637Y0070846D01*
X0033758Y0070821D01*
X0033880Y0070799D01*
X0034003Y0070782D01*
X0034125Y0070768D01*
X0034249Y0070759D01*
X0034372Y0070753D01*
X0034496Y0070751D01*
X0024654Y0066814D02*
X0024366Y0066810D01*
X0024079Y0066800D01*
X0023792Y0066782D01*
X0023505Y0066758D01*
X0023219Y0066727D01*
X0022934Y0066688D01*
X0022650Y0066643D01*
X0022367Y0066591D01*
X0022086Y0066531D01*
X0021806Y0066465D01*
X0021528Y0066393D01*
X0021251Y0066313D01*
X0020977Y0066227D01*
X0020705Y0066134D01*
X0020435Y0066035D01*
X0020167Y0065929D01*
X0019903Y0065816D01*
X0019641Y0065697D01*
X0019382Y0065572D01*
X0019126Y0065440D01*
X0018873Y0065303D01*
X0018624Y0065159D01*
X0018379Y0065009D01*
X0018137Y0064853D01*
X0017899Y0064692D01*
X0017665Y0064524D01*
X0017435Y0064351D01*
X0017210Y0064173D01*
X0016989Y0063989D01*
X0016772Y0063800D01*
X0016560Y0063605D01*
X0016353Y0063405D01*
X0016151Y0063201D01*
X0015954Y0062991D01*
X0015762Y0062777D01*
X0015576Y0062558D01*
X0015394Y0062335D01*
X0015218Y0062107D01*
X0015048Y0061875D01*
X0014884Y0061639D01*
X0014725Y0061400D01*
X0014572Y0061156D01*
X0014425Y0060908D01*
X0014285Y0060658D01*
X0014150Y0060403D01*
X0014022Y0060146D01*
X0013900Y0059886D01*
X0013784Y0059622D01*
X0013675Y0059356D01*
X0013572Y0059088D01*
X0013476Y0058817D01*
X0013386Y0058543D01*
X0013303Y0058268D01*
X0013227Y0057990D01*
X0013158Y0057711D01*
X0013095Y0057431D01*
X0013039Y0057148D01*
X0012991Y0056865D01*
X0012949Y0056580D01*
X0012914Y0056295D01*
X0012886Y0056009D01*
X0012865Y0055722D01*
X0012851Y0055434D01*
X0012844Y0055147D01*
X0012844Y0054859D01*
X0012851Y0054572D01*
X0012865Y0054284D01*
X0012886Y0053997D01*
X0012914Y0053711D01*
X0012949Y0053426D01*
X0012991Y0053141D01*
X0013039Y0052858D01*
X0013095Y0052575D01*
X0013158Y0052295D01*
X0013227Y0052016D01*
X0013303Y0051738D01*
X0013386Y0051463D01*
X0013476Y0051189D01*
X0013572Y0050918D01*
X0013675Y0050650D01*
X0013784Y0050384D01*
X0013900Y0050120D01*
X0014022Y0049860D01*
X0014150Y0049603D01*
X0014285Y0049348D01*
X0014425Y0049097D01*
X0014572Y0048850D01*
X0014725Y0048606D01*
X0014884Y0048367D01*
X0015048Y0048131D01*
X0015218Y0047899D01*
X0015394Y0047671D01*
X0015576Y0047448D01*
X0015762Y0047229D01*
X0015954Y0047015D01*
X0016151Y0046805D01*
X0016353Y0046601D01*
X0016560Y0046401D01*
X0016772Y0046206D01*
X0016989Y0046017D01*
X0017210Y0045833D01*
X0017435Y0045655D01*
X0017665Y0045482D01*
X0017899Y0045314D01*
X0018137Y0045153D01*
X0018379Y0044997D01*
X0018624Y0044847D01*
X0018873Y0044703D01*
X0019126Y0044566D01*
X0019382Y0044434D01*
X0019641Y0044309D01*
X0019903Y0044190D01*
X0020167Y0044077D01*
X0020435Y0043971D01*
X0020705Y0043872D01*
X0020977Y0043779D01*
X0021251Y0043693D01*
X0021528Y0043613D01*
X0021806Y0043541D01*
X0022086Y0043475D01*
X0022367Y0043415D01*
X0022650Y0043363D01*
X0022934Y0043318D01*
X0023219Y0043279D01*
X0023505Y0043248D01*
X0023792Y0043224D01*
X0024079Y0043206D01*
X0024366Y0043196D01*
X0024654Y0043192D01*
X0199850Y0039255D02*
X0207724Y0039255D01*
X0207848Y0039253D01*
X0207971Y0039247D01*
X0208095Y0039238D01*
X0208217Y0039224D01*
X0208340Y0039207D01*
X0208462Y0039185D01*
X0208583Y0039160D01*
X0208703Y0039131D01*
X0208822Y0039099D01*
X0208941Y0039062D01*
X0209058Y0039022D01*
X0209173Y0038979D01*
X0209288Y0038931D01*
X0209400Y0038880D01*
X0209511Y0038826D01*
X0209621Y0038768D01*
X0209728Y0038707D01*
X0209834Y0038642D01*
X0209937Y0038574D01*
X0210038Y0038503D01*
X0210137Y0038429D01*
X0210234Y0038352D01*
X0210328Y0038271D01*
X0210419Y0038188D01*
X0210508Y0038102D01*
X0210594Y0038013D01*
X0210677Y0037922D01*
X0210758Y0037828D01*
X0210835Y0037731D01*
X0210909Y0037632D01*
X0210980Y0037531D01*
X0211048Y0037428D01*
X0211113Y0037322D01*
X0211174Y0037215D01*
X0211232Y0037105D01*
X0211286Y0036994D01*
X0211337Y0036882D01*
X0211385Y0036767D01*
X0211428Y0036652D01*
X0211468Y0036535D01*
X0211505Y0036416D01*
X0211537Y0036297D01*
X0211566Y0036177D01*
X0211591Y0036056D01*
X0211613Y0035934D01*
X0211630Y0035811D01*
X0211644Y0035689D01*
X0211653Y0035565D01*
X0211659Y0035442D01*
X0211661Y0035318D01*
X0211659Y0035194D01*
X0211653Y0035071D01*
X0211644Y0034947D01*
X0211630Y0034825D01*
X0211613Y0034702D01*
X0211591Y0034580D01*
X0211566Y0034459D01*
X0211537Y0034339D01*
X0211505Y0034220D01*
X0211468Y0034101D01*
X0211428Y0033984D01*
X0211385Y0033869D01*
X0211337Y0033754D01*
X0211286Y0033642D01*
X0211232Y0033531D01*
X0211174Y0033421D01*
X0211113Y0033314D01*
X0211048Y0033208D01*
X0210980Y0033105D01*
X0210909Y0033004D01*
X0210835Y0032905D01*
X0210758Y0032808D01*
X0210677Y0032714D01*
X0210594Y0032623D01*
X0210508Y0032534D01*
X0210419Y0032448D01*
X0210328Y0032365D01*
X0210234Y0032284D01*
X0210137Y0032207D01*
X0210038Y0032133D01*
X0209937Y0032062D01*
X0209834Y0031994D01*
X0209728Y0031929D01*
X0209621Y0031868D01*
X0209511Y0031810D01*
X0209400Y0031756D01*
X0209288Y0031705D01*
X0209173Y0031657D01*
X0209058Y0031614D01*
X0208941Y0031574D01*
X0208822Y0031537D01*
X0208703Y0031505D01*
X0208583Y0031476D01*
X0208462Y0031451D01*
X0208340Y0031429D01*
X0208217Y0031412D01*
X0208095Y0031398D01*
X0207971Y0031389D01*
X0207848Y0031383D01*
X0207724Y0031381D01*
X0199850Y0031381D01*
X0199726Y0031383D01*
X0199603Y0031389D01*
X0199479Y0031398D01*
X0199357Y0031412D01*
X0199234Y0031429D01*
X0199112Y0031451D01*
X0198991Y0031476D01*
X0198871Y0031505D01*
X0198752Y0031537D01*
X0198633Y0031574D01*
X0198516Y0031614D01*
X0198401Y0031657D01*
X0198286Y0031705D01*
X0198174Y0031756D01*
X0198063Y0031810D01*
X0197953Y0031868D01*
X0197846Y0031929D01*
X0197740Y0031994D01*
X0197637Y0032062D01*
X0197536Y0032133D01*
X0197437Y0032207D01*
X0197340Y0032284D01*
X0197246Y0032365D01*
X0197155Y0032448D01*
X0197066Y0032534D01*
X0196980Y0032623D01*
X0196897Y0032714D01*
X0196816Y0032808D01*
X0196739Y0032905D01*
X0196665Y0033004D01*
X0196594Y0033105D01*
X0196526Y0033208D01*
X0196461Y0033314D01*
X0196400Y0033421D01*
X0196342Y0033531D01*
X0196288Y0033642D01*
X0196237Y0033754D01*
X0196189Y0033869D01*
X0196146Y0033984D01*
X0196106Y0034101D01*
X0196069Y0034220D01*
X0196037Y0034339D01*
X0196008Y0034459D01*
X0195983Y0034580D01*
X0195961Y0034702D01*
X0195944Y0034825D01*
X0195930Y0034947D01*
X0195921Y0035071D01*
X0195915Y0035194D01*
X0195913Y0035318D01*
X0195915Y0035442D01*
X0195921Y0035565D01*
X0195930Y0035689D01*
X0195944Y0035811D01*
X0195961Y0035934D01*
X0195983Y0036056D01*
X0196008Y0036177D01*
X0196037Y0036297D01*
X0196069Y0036416D01*
X0196106Y0036535D01*
X0196146Y0036652D01*
X0196189Y0036767D01*
X0196237Y0036882D01*
X0196288Y0036994D01*
X0196342Y0037105D01*
X0196400Y0037215D01*
X0196461Y0037322D01*
X0196526Y0037428D01*
X0196594Y0037531D01*
X0196665Y0037632D01*
X0196739Y0037731D01*
X0196816Y0037828D01*
X0196897Y0037922D01*
X0196980Y0038013D01*
X0197066Y0038102D01*
X0197155Y0038188D01*
X0197246Y0038271D01*
X0197340Y0038352D01*
X0197437Y0038429D01*
X0197536Y0038503D01*
X0197637Y0038574D01*
X0197740Y0038642D01*
X0197846Y0038707D01*
X0197953Y0038768D01*
X0198063Y0038826D01*
X0198174Y0038880D01*
X0198286Y0038931D01*
X0198401Y0038979D01*
X0198516Y0039022D01*
X0198633Y0039062D01*
X0198752Y0039099D01*
X0198871Y0039131D01*
X0198991Y0039160D01*
X0199112Y0039185D01*
X0199234Y0039207D01*
X0199357Y0039224D01*
X0199479Y0039238D01*
X0199603Y0039247D01*
X0199726Y0039253D01*
X0199850Y0039255D01*
X0201819Y0043192D02*
X0217567Y0043192D01*
X0217855Y0043196D01*
X0218142Y0043206D01*
X0218429Y0043224D01*
X0218716Y0043248D01*
X0219002Y0043279D01*
X0219287Y0043318D01*
X0219571Y0043363D01*
X0219854Y0043415D01*
X0220135Y0043475D01*
X0220415Y0043541D01*
X0220693Y0043613D01*
X0220970Y0043693D01*
X0221244Y0043779D01*
X0221516Y0043872D01*
X0221786Y0043971D01*
X0222054Y0044077D01*
X0222318Y0044190D01*
X0222580Y0044309D01*
X0222839Y0044434D01*
X0223095Y0044566D01*
X0223348Y0044703D01*
X0223597Y0044847D01*
X0223842Y0044997D01*
X0224084Y0045153D01*
X0224322Y0045314D01*
X0224556Y0045482D01*
X0224786Y0045655D01*
X0225011Y0045833D01*
X0225232Y0046017D01*
X0225449Y0046206D01*
X0225661Y0046401D01*
X0225868Y0046601D01*
X0226070Y0046805D01*
X0226267Y0047015D01*
X0226459Y0047229D01*
X0226645Y0047448D01*
X0226827Y0047671D01*
X0227003Y0047899D01*
X0227173Y0048131D01*
X0227337Y0048367D01*
X0227496Y0048606D01*
X0227649Y0048850D01*
X0227796Y0049098D01*
X0227936Y0049348D01*
X0228071Y0049603D01*
X0228199Y0049860D01*
X0228321Y0050120D01*
X0228437Y0050384D01*
X0228546Y0050650D01*
X0228649Y0050918D01*
X0228745Y0051189D01*
X0228835Y0051463D01*
X0228918Y0051738D01*
X0228994Y0052016D01*
X0229063Y0052295D01*
X0229126Y0052575D01*
X0229182Y0052858D01*
X0229230Y0053141D01*
X0229272Y0053426D01*
X0229307Y0053711D01*
X0229335Y0053997D01*
X0229356Y0054284D01*
X0229370Y0054572D01*
X0229377Y0054859D01*
X0229377Y0055147D01*
X0229370Y0055434D01*
X0229356Y0055722D01*
X0229335Y0056009D01*
X0229307Y0056295D01*
X0229272Y0056580D01*
X0229230Y0056865D01*
X0229182Y0057148D01*
X0229126Y0057431D01*
X0229063Y0057711D01*
X0228994Y0057990D01*
X0228918Y0058268D01*
X0228835Y0058543D01*
X0228745Y0058817D01*
X0228649Y0059088D01*
X0228546Y0059356D01*
X0228437Y0059622D01*
X0228321Y0059886D01*
X0228199Y0060146D01*
X0228071Y0060403D01*
X0227936Y0060658D01*
X0227796Y0060909D01*
X0227649Y0061156D01*
X0227496Y0061400D01*
X0227337Y0061639D01*
X0227173Y0061875D01*
X0227003Y0062107D01*
X0226827Y0062335D01*
X0226645Y0062558D01*
X0226459Y0062777D01*
X0226267Y0062991D01*
X0226070Y0063201D01*
X0225868Y0063405D01*
X0225661Y0063605D01*
X0225449Y0063800D01*
X0225232Y0063989D01*
X0225011Y0064173D01*
X0224786Y0064351D01*
X0224556Y0064524D01*
X0224322Y0064692D01*
X0224084Y0064853D01*
X0223842Y0065009D01*
X0223597Y0065159D01*
X0223348Y0065303D01*
X0223095Y0065440D01*
X0222839Y0065572D01*
X0222580Y0065697D01*
X0222318Y0065816D01*
X0222054Y0065929D01*
X0221786Y0066035D01*
X0221516Y0066134D01*
X0221244Y0066227D01*
X0220970Y0066313D01*
X0220693Y0066393D01*
X0220415Y0066465D01*
X0220135Y0066531D01*
X0219854Y0066591D01*
X0219571Y0066643D01*
X0219287Y0066688D01*
X0219002Y0066727D01*
X0218716Y0066758D01*
X0218429Y0066782D01*
X0218142Y0066800D01*
X0217855Y0066810D01*
X0217567Y0066814D01*
X0201819Y0066814D01*
X0211661Y0070751D02*
X0219535Y0070751D01*
X0219659Y0070753D01*
X0219782Y0070759D01*
X0219906Y0070768D01*
X0220028Y0070782D01*
X0220151Y0070799D01*
X0220273Y0070821D01*
X0220394Y0070846D01*
X0220514Y0070875D01*
X0220633Y0070907D01*
X0220752Y0070944D01*
X0220869Y0070984D01*
X0220984Y0071027D01*
X0221099Y0071075D01*
X0221211Y0071126D01*
X0221322Y0071180D01*
X0221432Y0071238D01*
X0221539Y0071299D01*
X0221645Y0071364D01*
X0221748Y0071432D01*
X0221849Y0071503D01*
X0221948Y0071577D01*
X0222045Y0071654D01*
X0222139Y0071735D01*
X0222230Y0071818D01*
X0222319Y0071904D01*
X0222405Y0071993D01*
X0222488Y0072084D01*
X0222569Y0072178D01*
X0222646Y0072275D01*
X0222720Y0072374D01*
X0222791Y0072475D01*
X0222859Y0072578D01*
X0222924Y0072684D01*
X0222985Y0072791D01*
X0223043Y0072901D01*
X0223097Y0073012D01*
X0223148Y0073124D01*
X0223196Y0073239D01*
X0223239Y0073354D01*
X0223279Y0073471D01*
X0223316Y0073590D01*
X0223348Y0073709D01*
X0223377Y0073829D01*
X0223402Y0073950D01*
X0223424Y0074072D01*
X0223441Y0074195D01*
X0223455Y0074317D01*
X0223464Y0074441D01*
X0223470Y0074564D01*
X0223472Y0074688D01*
X0223470Y0074812D01*
X0223464Y0074935D01*
X0223455Y0075059D01*
X0223441Y0075181D01*
X0223424Y0075304D01*
X0223402Y0075426D01*
X0223377Y0075547D01*
X0223348Y0075667D01*
X0223316Y0075786D01*
X0223279Y0075905D01*
X0223239Y0076022D01*
X0223196Y0076137D01*
X0223148Y0076252D01*
X0223097Y0076364D01*
X0223043Y0076475D01*
X0222985Y0076585D01*
X0222924Y0076692D01*
X0222859Y0076798D01*
X0222791Y0076901D01*
X0222720Y0077002D01*
X0222646Y0077101D01*
X0222569Y0077198D01*
X0222488Y0077292D01*
X0222405Y0077383D01*
X0222319Y0077472D01*
X0222230Y0077558D01*
X0222139Y0077641D01*
X0222045Y0077722D01*
X0221948Y0077799D01*
X0221849Y0077873D01*
X0221748Y0077944D01*
X0221645Y0078012D01*
X0221539Y0078077D01*
X0221432Y0078138D01*
X0221322Y0078196D01*
X0221211Y0078250D01*
X0221099Y0078301D01*
X0220984Y0078349D01*
X0220869Y0078392D01*
X0220752Y0078432D01*
X0220633Y0078469D01*
X0220514Y0078501D01*
X0220394Y0078530D01*
X0220273Y0078555D01*
X0220151Y0078577D01*
X0220028Y0078594D01*
X0219906Y0078608D01*
X0219782Y0078617D01*
X0219659Y0078623D01*
X0219535Y0078625D01*
X0211661Y0078625D01*
X0211537Y0078623D01*
X0211414Y0078617D01*
X0211290Y0078608D01*
X0211168Y0078594D01*
X0211045Y0078577D01*
X0210923Y0078555D01*
X0210802Y0078530D01*
X0210682Y0078501D01*
X0210563Y0078469D01*
X0210444Y0078432D01*
X0210327Y0078392D01*
X0210212Y0078349D01*
X0210097Y0078301D01*
X0209985Y0078250D01*
X0209874Y0078196D01*
X0209764Y0078138D01*
X0209657Y0078077D01*
X0209551Y0078012D01*
X0209448Y0077944D01*
X0209347Y0077873D01*
X0209248Y0077799D01*
X0209151Y0077722D01*
X0209057Y0077641D01*
X0208966Y0077558D01*
X0208877Y0077472D01*
X0208791Y0077383D01*
X0208708Y0077292D01*
X0208627Y0077198D01*
X0208550Y0077101D01*
X0208476Y0077002D01*
X0208405Y0076901D01*
X0208337Y0076798D01*
X0208272Y0076692D01*
X0208211Y0076585D01*
X0208153Y0076475D01*
X0208099Y0076364D01*
X0208048Y0076252D01*
X0208000Y0076137D01*
X0207957Y0076022D01*
X0207917Y0075905D01*
X0207880Y0075786D01*
X0207848Y0075667D01*
X0207819Y0075547D01*
X0207794Y0075426D01*
X0207772Y0075304D01*
X0207755Y0075181D01*
X0207741Y0075059D01*
X0207732Y0074935D01*
X0207726Y0074812D01*
X0207724Y0074688D01*
X0207726Y0074564D01*
X0207732Y0074441D01*
X0207741Y0074317D01*
X0207755Y0074195D01*
X0207772Y0074072D01*
X0207794Y0073950D01*
X0207819Y0073829D01*
X0207848Y0073709D01*
X0207880Y0073590D01*
X0207917Y0073471D01*
X0207957Y0073354D01*
X0208000Y0073239D01*
X0208048Y0073124D01*
X0208099Y0073012D01*
X0208153Y0072901D01*
X0208211Y0072791D01*
X0208272Y0072684D01*
X0208337Y0072578D01*
X0208405Y0072475D01*
X0208476Y0072374D01*
X0208550Y0072275D01*
X0208627Y0072178D01*
X0208708Y0072084D01*
X0208791Y0071993D01*
X0208877Y0071904D01*
X0208966Y0071818D01*
X0209057Y0071735D01*
X0209151Y0071654D01*
X0209248Y0071577D01*
X0209347Y0071503D01*
X0209448Y0071432D01*
X0209551Y0071364D01*
X0209657Y0071299D01*
X0209764Y0071238D01*
X0209874Y0071180D01*
X0209985Y0071126D01*
X0210097Y0071075D01*
X0210212Y0071027D01*
X0210327Y0070984D01*
X0210444Y0070944D01*
X0210563Y0070907D01*
X0210682Y0070875D01*
X0210802Y0070846D01*
X0210923Y0070821D01*
X0211045Y0070799D01*
X0211168Y0070782D01*
X0211290Y0070768D01*
X0211414Y0070759D01*
X0211537Y0070753D01*
X0211661Y0070751D01*
X0201819Y0066814D02*
X0201531Y0066810D01*
X0201244Y0066800D01*
X0200957Y0066782D01*
X0200670Y0066758D01*
X0200384Y0066727D01*
X0200099Y0066688D01*
X0199815Y0066643D01*
X0199532Y0066591D01*
X0199251Y0066531D01*
X0198971Y0066465D01*
X0198693Y0066393D01*
X0198416Y0066313D01*
X0198142Y0066227D01*
X0197870Y0066134D01*
X0197600Y0066035D01*
X0197332Y0065929D01*
X0197068Y0065816D01*
X0196806Y0065697D01*
X0196547Y0065572D01*
X0196291Y0065440D01*
X0196038Y0065303D01*
X0195789Y0065159D01*
X0195544Y0065009D01*
X0195302Y0064853D01*
X0195064Y0064692D01*
X0194830Y0064524D01*
X0194600Y0064351D01*
X0194375Y0064173D01*
X0194154Y0063989D01*
X0193937Y0063800D01*
X0193725Y0063605D01*
X0193518Y0063405D01*
X0193316Y0063201D01*
X0193119Y0062991D01*
X0192927Y0062777D01*
X0192741Y0062558D01*
X0192559Y0062335D01*
X0192383Y0062107D01*
X0192213Y0061875D01*
X0192049Y0061639D01*
X0191890Y0061400D01*
X0191737Y0061156D01*
X0191590Y0060908D01*
X0191450Y0060658D01*
X0191315Y0060403D01*
X0191187Y0060146D01*
X0191065Y0059886D01*
X0190949Y0059622D01*
X0190840Y0059356D01*
X0190737Y0059088D01*
X0190641Y0058817D01*
X0190551Y0058543D01*
X0190468Y0058268D01*
X0190392Y0057990D01*
X0190323Y0057711D01*
X0190260Y0057431D01*
X0190204Y0057148D01*
X0190156Y0056865D01*
X0190114Y0056580D01*
X0190079Y0056295D01*
X0190051Y0056009D01*
X0190030Y0055722D01*
X0190016Y0055434D01*
X0190009Y0055147D01*
X0190009Y0054859D01*
X0190016Y0054572D01*
X0190030Y0054284D01*
X0190051Y0053997D01*
X0190079Y0053711D01*
X0190114Y0053426D01*
X0190156Y0053141D01*
X0190204Y0052858D01*
X0190260Y0052575D01*
X0190323Y0052295D01*
X0190392Y0052016D01*
X0190468Y0051738D01*
X0190551Y0051463D01*
X0190641Y0051189D01*
X0190737Y0050918D01*
X0190840Y0050650D01*
X0190949Y0050384D01*
X0191065Y0050120D01*
X0191187Y0049860D01*
X0191315Y0049603D01*
X0191450Y0049348D01*
X0191590Y0049097D01*
X0191737Y0048850D01*
X0191890Y0048606D01*
X0192049Y0048367D01*
X0192213Y0048131D01*
X0192383Y0047899D01*
X0192559Y0047671D01*
X0192741Y0047448D01*
X0192927Y0047229D01*
X0193119Y0047015D01*
X0193316Y0046805D01*
X0193518Y0046601D01*
X0193725Y0046401D01*
X0193937Y0046206D01*
X0194154Y0046017D01*
X0194375Y0045833D01*
X0194600Y0045655D01*
X0194830Y0045482D01*
X0195064Y0045314D01*
X0195302Y0045153D01*
X0195544Y0044997D01*
X0195789Y0044847D01*
X0196038Y0044703D01*
X0196291Y0044566D01*
X0196547Y0044434D01*
X0196806Y0044309D01*
X0197068Y0044190D01*
X0197332Y0044077D01*
X0197600Y0043971D01*
X0197870Y0043872D01*
X0198142Y0043779D01*
X0198416Y0043693D01*
X0198693Y0043613D01*
X0198971Y0043541D01*
X0199251Y0043475D01*
X0199532Y0043415D01*
X0199815Y0043363D01*
X0200099Y0043318D01*
X0200384Y0043279D01*
X0200670Y0043248D01*
X0200957Y0043224D01*
X0201244Y0043206D01*
X0201531Y0043196D01*
X0201819Y0043192D01*
D11*
X0135087Y0035318D03*
X0107134Y0035318D03*
D12*
X0032528Y0029412D02*
X0032680Y0029414D01*
X0032832Y0029420D01*
X0032984Y0029430D01*
X0033135Y0029443D01*
X0033286Y0029461D01*
X0033437Y0029482D01*
X0033587Y0029508D01*
X0033736Y0029537D01*
X0033885Y0029570D01*
X0034032Y0029607D01*
X0034179Y0029647D01*
X0034324Y0029692D01*
X0034468Y0029740D01*
X0034611Y0029792D01*
X0034753Y0029847D01*
X0034893Y0029906D01*
X0035032Y0029969D01*
X0035169Y0030035D01*
X0035304Y0030105D01*
X0035437Y0030178D01*
X0035568Y0030255D01*
X0035698Y0030335D01*
X0035825Y0030418D01*
X0035950Y0030504D01*
X0036073Y0030594D01*
X0036193Y0030687D01*
X0036311Y0030783D01*
X0036427Y0030882D01*
X0036540Y0030984D01*
X0036650Y0031088D01*
X0036758Y0031196D01*
X0036862Y0031306D01*
X0036964Y0031419D01*
X0037063Y0031535D01*
X0037159Y0031653D01*
X0037252Y0031773D01*
X0037342Y0031896D01*
X0037428Y0032021D01*
X0037511Y0032148D01*
X0037591Y0032278D01*
X0037668Y0032409D01*
X0037741Y0032542D01*
X0037811Y0032677D01*
X0037877Y0032814D01*
X0037940Y0032953D01*
X0037999Y0033093D01*
X0038054Y0033235D01*
X0038106Y0033378D01*
X0038154Y0033522D01*
X0038199Y0033667D01*
X0038239Y0033814D01*
X0038276Y0033961D01*
X0038309Y0034110D01*
X0038338Y0034259D01*
X0038364Y0034409D01*
X0038385Y0034560D01*
X0038403Y0034711D01*
X0038416Y0034862D01*
X0038426Y0035014D01*
X0038432Y0035166D01*
X0038434Y0035318D01*
X0038432Y0035470D01*
X0038426Y0035622D01*
X0038416Y0035774D01*
X0038403Y0035925D01*
X0038385Y0036076D01*
X0038364Y0036227D01*
X0038338Y0036377D01*
X0038309Y0036526D01*
X0038276Y0036675D01*
X0038239Y0036822D01*
X0038199Y0036969D01*
X0038154Y0037114D01*
X0038106Y0037258D01*
X0038054Y0037401D01*
X0037999Y0037543D01*
X0037940Y0037683D01*
X0037877Y0037822D01*
X0037811Y0037959D01*
X0037741Y0038094D01*
X0037668Y0038227D01*
X0037591Y0038358D01*
X0037511Y0038488D01*
X0037428Y0038615D01*
X0037342Y0038740D01*
X0037252Y0038863D01*
X0037159Y0038983D01*
X0037063Y0039101D01*
X0036964Y0039217D01*
X0036862Y0039330D01*
X0036758Y0039440D01*
X0036650Y0039548D01*
X0036540Y0039652D01*
X0036427Y0039754D01*
X0036311Y0039853D01*
X0036193Y0039949D01*
X0036073Y0040042D01*
X0035950Y0040132D01*
X0035825Y0040218D01*
X0035698Y0040301D01*
X0035568Y0040381D01*
X0035437Y0040458D01*
X0035304Y0040531D01*
X0035169Y0040601D01*
X0035032Y0040667D01*
X0034893Y0040730D01*
X0034753Y0040789D01*
X0034611Y0040844D01*
X0034468Y0040896D01*
X0034324Y0040944D01*
X0034179Y0040989D01*
X0034032Y0041029D01*
X0033885Y0041066D01*
X0033736Y0041099D01*
X0033587Y0041128D01*
X0033437Y0041154D01*
X0033286Y0041175D01*
X0033135Y0041193D01*
X0032984Y0041206D01*
X0032832Y0041216D01*
X0032680Y0041222D01*
X0032528Y0041224D01*
X0032528Y0041223D02*
X0020717Y0041223D01*
X0020717Y0041224D02*
X0020565Y0041222D01*
X0020413Y0041216D01*
X0020261Y0041206D01*
X0020110Y0041193D01*
X0019959Y0041175D01*
X0019808Y0041154D01*
X0019658Y0041128D01*
X0019509Y0041099D01*
X0019360Y0041066D01*
X0019213Y0041029D01*
X0019066Y0040989D01*
X0018921Y0040944D01*
X0018777Y0040896D01*
X0018634Y0040844D01*
X0018492Y0040789D01*
X0018352Y0040730D01*
X0018213Y0040667D01*
X0018076Y0040601D01*
X0017941Y0040531D01*
X0017808Y0040458D01*
X0017677Y0040381D01*
X0017547Y0040301D01*
X0017420Y0040218D01*
X0017295Y0040132D01*
X0017172Y0040042D01*
X0017052Y0039949D01*
X0016934Y0039853D01*
X0016818Y0039754D01*
X0016705Y0039652D01*
X0016595Y0039548D01*
X0016487Y0039440D01*
X0016383Y0039330D01*
X0016281Y0039217D01*
X0016182Y0039101D01*
X0016086Y0038983D01*
X0015993Y0038863D01*
X0015903Y0038740D01*
X0015817Y0038615D01*
X0015734Y0038488D01*
X0015654Y0038358D01*
X0015577Y0038227D01*
X0015504Y0038094D01*
X0015434Y0037959D01*
X0015368Y0037822D01*
X0015305Y0037683D01*
X0015246Y0037543D01*
X0015191Y0037401D01*
X0015139Y0037258D01*
X0015091Y0037114D01*
X0015046Y0036969D01*
X0015006Y0036822D01*
X0014969Y0036675D01*
X0014936Y0036526D01*
X0014907Y0036377D01*
X0014881Y0036227D01*
X0014860Y0036076D01*
X0014842Y0035925D01*
X0014829Y0035774D01*
X0014819Y0035622D01*
X0014813Y0035470D01*
X0014811Y0035318D01*
X0014813Y0035166D01*
X0014819Y0035014D01*
X0014829Y0034862D01*
X0014842Y0034711D01*
X0014860Y0034560D01*
X0014881Y0034409D01*
X0014907Y0034259D01*
X0014936Y0034110D01*
X0014969Y0033961D01*
X0015006Y0033814D01*
X0015046Y0033667D01*
X0015091Y0033522D01*
X0015139Y0033378D01*
X0015191Y0033235D01*
X0015246Y0033093D01*
X0015305Y0032953D01*
X0015368Y0032814D01*
X0015434Y0032677D01*
X0015504Y0032542D01*
X0015577Y0032409D01*
X0015654Y0032278D01*
X0015734Y0032148D01*
X0015817Y0032021D01*
X0015903Y0031896D01*
X0015993Y0031773D01*
X0016086Y0031653D01*
X0016182Y0031535D01*
X0016281Y0031419D01*
X0016383Y0031306D01*
X0016487Y0031196D01*
X0016595Y0031088D01*
X0016705Y0030984D01*
X0016818Y0030882D01*
X0016934Y0030783D01*
X0017052Y0030687D01*
X0017172Y0030594D01*
X0017295Y0030504D01*
X0017420Y0030418D01*
X0017547Y0030335D01*
X0017677Y0030255D01*
X0017808Y0030178D01*
X0017941Y0030105D01*
X0018076Y0030035D01*
X0018213Y0029969D01*
X0018352Y0029906D01*
X0018492Y0029847D01*
X0018634Y0029792D01*
X0018777Y0029740D01*
X0018921Y0029692D01*
X0019066Y0029647D01*
X0019213Y0029607D01*
X0019360Y0029570D01*
X0019509Y0029537D01*
X0019658Y0029508D01*
X0019808Y0029482D01*
X0019959Y0029461D01*
X0020110Y0029443D01*
X0020261Y0029430D01*
X0020413Y0029420D01*
X0020565Y0029414D01*
X0020717Y0029412D01*
X0032528Y0029412D01*
X0032528Y0068782D02*
X0044339Y0068782D01*
X0044491Y0068784D01*
X0044643Y0068790D01*
X0044795Y0068800D01*
X0044946Y0068813D01*
X0045097Y0068831D01*
X0045248Y0068852D01*
X0045398Y0068878D01*
X0045547Y0068907D01*
X0045696Y0068940D01*
X0045843Y0068977D01*
X0045990Y0069017D01*
X0046135Y0069062D01*
X0046279Y0069110D01*
X0046422Y0069162D01*
X0046564Y0069217D01*
X0046704Y0069276D01*
X0046843Y0069339D01*
X0046980Y0069405D01*
X0047115Y0069475D01*
X0047248Y0069548D01*
X0047379Y0069625D01*
X0047509Y0069705D01*
X0047636Y0069788D01*
X0047761Y0069874D01*
X0047884Y0069964D01*
X0048004Y0070057D01*
X0048122Y0070153D01*
X0048238Y0070252D01*
X0048351Y0070354D01*
X0048461Y0070458D01*
X0048569Y0070566D01*
X0048673Y0070676D01*
X0048775Y0070789D01*
X0048874Y0070905D01*
X0048970Y0071023D01*
X0049063Y0071143D01*
X0049153Y0071266D01*
X0049239Y0071391D01*
X0049322Y0071518D01*
X0049402Y0071648D01*
X0049479Y0071779D01*
X0049552Y0071912D01*
X0049622Y0072047D01*
X0049688Y0072184D01*
X0049751Y0072323D01*
X0049810Y0072463D01*
X0049865Y0072605D01*
X0049917Y0072748D01*
X0049965Y0072892D01*
X0050010Y0073037D01*
X0050050Y0073184D01*
X0050087Y0073331D01*
X0050120Y0073480D01*
X0050149Y0073629D01*
X0050175Y0073779D01*
X0050196Y0073930D01*
X0050214Y0074081D01*
X0050227Y0074232D01*
X0050237Y0074384D01*
X0050243Y0074536D01*
X0050245Y0074688D01*
X0050243Y0074840D01*
X0050237Y0074992D01*
X0050227Y0075144D01*
X0050214Y0075295D01*
X0050196Y0075446D01*
X0050175Y0075597D01*
X0050149Y0075747D01*
X0050120Y0075896D01*
X0050087Y0076045D01*
X0050050Y0076192D01*
X0050010Y0076339D01*
X0049965Y0076484D01*
X0049917Y0076628D01*
X0049865Y0076771D01*
X0049810Y0076913D01*
X0049751Y0077053D01*
X0049688Y0077192D01*
X0049622Y0077329D01*
X0049552Y0077464D01*
X0049479Y0077597D01*
X0049402Y0077728D01*
X0049322Y0077858D01*
X0049239Y0077985D01*
X0049153Y0078110D01*
X0049063Y0078233D01*
X0048970Y0078353D01*
X0048874Y0078471D01*
X0048775Y0078587D01*
X0048673Y0078700D01*
X0048569Y0078810D01*
X0048461Y0078918D01*
X0048351Y0079022D01*
X0048238Y0079124D01*
X0048122Y0079223D01*
X0048004Y0079319D01*
X0047884Y0079412D01*
X0047761Y0079502D01*
X0047636Y0079588D01*
X0047509Y0079671D01*
X0047379Y0079751D01*
X0047248Y0079828D01*
X0047115Y0079901D01*
X0046980Y0079971D01*
X0046843Y0080037D01*
X0046704Y0080100D01*
X0046564Y0080159D01*
X0046422Y0080214D01*
X0046279Y0080266D01*
X0046135Y0080314D01*
X0045990Y0080359D01*
X0045843Y0080399D01*
X0045696Y0080436D01*
X0045547Y0080469D01*
X0045398Y0080498D01*
X0045248Y0080524D01*
X0045097Y0080545D01*
X0044946Y0080563D01*
X0044795Y0080576D01*
X0044643Y0080586D01*
X0044491Y0080592D01*
X0044339Y0080594D01*
X0044339Y0080593D02*
X0032528Y0080593D01*
X0032528Y0080594D02*
X0032376Y0080592D01*
X0032224Y0080586D01*
X0032072Y0080576D01*
X0031921Y0080563D01*
X0031770Y0080545D01*
X0031619Y0080524D01*
X0031469Y0080498D01*
X0031320Y0080469D01*
X0031171Y0080436D01*
X0031024Y0080399D01*
X0030877Y0080359D01*
X0030732Y0080314D01*
X0030588Y0080266D01*
X0030445Y0080214D01*
X0030303Y0080159D01*
X0030163Y0080100D01*
X0030024Y0080037D01*
X0029887Y0079971D01*
X0029752Y0079901D01*
X0029619Y0079828D01*
X0029488Y0079751D01*
X0029358Y0079671D01*
X0029231Y0079588D01*
X0029106Y0079502D01*
X0028983Y0079412D01*
X0028863Y0079319D01*
X0028745Y0079223D01*
X0028629Y0079124D01*
X0028516Y0079022D01*
X0028406Y0078918D01*
X0028298Y0078810D01*
X0028194Y0078700D01*
X0028092Y0078587D01*
X0027993Y0078471D01*
X0027897Y0078353D01*
X0027804Y0078233D01*
X0027714Y0078110D01*
X0027628Y0077985D01*
X0027545Y0077858D01*
X0027465Y0077728D01*
X0027388Y0077597D01*
X0027315Y0077464D01*
X0027245Y0077329D01*
X0027179Y0077192D01*
X0027116Y0077053D01*
X0027057Y0076913D01*
X0027002Y0076771D01*
X0026950Y0076628D01*
X0026902Y0076484D01*
X0026857Y0076339D01*
X0026817Y0076192D01*
X0026780Y0076045D01*
X0026747Y0075896D01*
X0026718Y0075747D01*
X0026692Y0075597D01*
X0026671Y0075446D01*
X0026653Y0075295D01*
X0026640Y0075144D01*
X0026630Y0074992D01*
X0026624Y0074840D01*
X0026622Y0074688D01*
X0026624Y0074536D01*
X0026630Y0074384D01*
X0026640Y0074232D01*
X0026653Y0074081D01*
X0026671Y0073930D01*
X0026692Y0073779D01*
X0026718Y0073629D01*
X0026747Y0073480D01*
X0026780Y0073331D01*
X0026817Y0073184D01*
X0026857Y0073037D01*
X0026902Y0072892D01*
X0026950Y0072748D01*
X0027002Y0072605D01*
X0027057Y0072463D01*
X0027116Y0072323D01*
X0027179Y0072184D01*
X0027245Y0072047D01*
X0027315Y0071912D01*
X0027388Y0071779D01*
X0027465Y0071648D01*
X0027545Y0071518D01*
X0027628Y0071391D01*
X0027714Y0071266D01*
X0027804Y0071143D01*
X0027897Y0071023D01*
X0027993Y0070905D01*
X0028092Y0070789D01*
X0028194Y0070676D01*
X0028298Y0070566D01*
X0028406Y0070458D01*
X0028516Y0070354D01*
X0028629Y0070252D01*
X0028745Y0070153D01*
X0028863Y0070057D01*
X0028983Y0069964D01*
X0029106Y0069874D01*
X0029231Y0069788D01*
X0029358Y0069705D01*
X0029488Y0069625D01*
X0029619Y0069548D01*
X0029752Y0069475D01*
X0029887Y0069405D01*
X0030024Y0069339D01*
X0030163Y0069276D01*
X0030303Y0069217D01*
X0030445Y0069162D01*
X0030588Y0069110D01*
X0030732Y0069062D01*
X0030877Y0069017D01*
X0031024Y0068977D01*
X0031171Y0068940D01*
X0031320Y0068907D01*
X0031469Y0068878D01*
X0031619Y0068852D01*
X0031770Y0068831D01*
X0031921Y0068813D01*
X0032072Y0068800D01*
X0032224Y0068790D01*
X0032376Y0068784D01*
X0032528Y0068782D01*
X0197882Y0041223D02*
X0209693Y0041223D01*
X0209693Y0041224D02*
X0209845Y0041222D01*
X0209997Y0041216D01*
X0210149Y0041206D01*
X0210300Y0041193D01*
X0210451Y0041175D01*
X0210602Y0041154D01*
X0210752Y0041128D01*
X0210901Y0041099D01*
X0211050Y0041066D01*
X0211197Y0041029D01*
X0211344Y0040989D01*
X0211489Y0040944D01*
X0211633Y0040896D01*
X0211776Y0040844D01*
X0211918Y0040789D01*
X0212058Y0040730D01*
X0212197Y0040667D01*
X0212334Y0040601D01*
X0212469Y0040531D01*
X0212602Y0040458D01*
X0212733Y0040381D01*
X0212863Y0040301D01*
X0212990Y0040218D01*
X0213115Y0040132D01*
X0213238Y0040042D01*
X0213358Y0039949D01*
X0213476Y0039853D01*
X0213592Y0039754D01*
X0213705Y0039652D01*
X0213815Y0039548D01*
X0213923Y0039440D01*
X0214027Y0039330D01*
X0214129Y0039217D01*
X0214228Y0039101D01*
X0214324Y0038983D01*
X0214417Y0038863D01*
X0214507Y0038740D01*
X0214593Y0038615D01*
X0214676Y0038488D01*
X0214756Y0038358D01*
X0214833Y0038227D01*
X0214906Y0038094D01*
X0214976Y0037959D01*
X0215042Y0037822D01*
X0215105Y0037683D01*
X0215164Y0037543D01*
X0215219Y0037401D01*
X0215271Y0037258D01*
X0215319Y0037114D01*
X0215364Y0036969D01*
X0215404Y0036822D01*
X0215441Y0036675D01*
X0215474Y0036526D01*
X0215503Y0036377D01*
X0215529Y0036227D01*
X0215550Y0036076D01*
X0215568Y0035925D01*
X0215581Y0035774D01*
X0215591Y0035622D01*
X0215597Y0035470D01*
X0215599Y0035318D01*
X0215597Y0035166D01*
X0215591Y0035014D01*
X0215581Y0034862D01*
X0215568Y0034711D01*
X0215550Y0034560D01*
X0215529Y0034409D01*
X0215503Y0034259D01*
X0215474Y0034110D01*
X0215441Y0033961D01*
X0215404Y0033814D01*
X0215364Y0033667D01*
X0215319Y0033522D01*
X0215271Y0033378D01*
X0215219Y0033235D01*
X0215164Y0033093D01*
X0215105Y0032953D01*
X0215042Y0032814D01*
X0214976Y0032677D01*
X0214906Y0032542D01*
X0214833Y0032409D01*
X0214756Y0032278D01*
X0214676Y0032148D01*
X0214593Y0032021D01*
X0214507Y0031896D01*
X0214417Y0031773D01*
X0214324Y0031653D01*
X0214228Y0031535D01*
X0214129Y0031419D01*
X0214027Y0031306D01*
X0213923Y0031196D01*
X0213815Y0031088D01*
X0213705Y0030984D01*
X0213592Y0030882D01*
X0213476Y0030783D01*
X0213358Y0030687D01*
X0213238Y0030594D01*
X0213115Y0030504D01*
X0212990Y0030418D01*
X0212863Y0030335D01*
X0212733Y0030255D01*
X0212602Y0030178D01*
X0212469Y0030105D01*
X0212334Y0030035D01*
X0212197Y0029969D01*
X0212058Y0029906D01*
X0211918Y0029847D01*
X0211776Y0029792D01*
X0211633Y0029740D01*
X0211489Y0029692D01*
X0211344Y0029647D01*
X0211197Y0029607D01*
X0211050Y0029570D01*
X0210901Y0029537D01*
X0210752Y0029508D01*
X0210602Y0029482D01*
X0210451Y0029461D01*
X0210300Y0029443D01*
X0210149Y0029430D01*
X0209997Y0029420D01*
X0209845Y0029414D01*
X0209693Y0029412D01*
X0197882Y0029412D01*
X0197730Y0029414D01*
X0197578Y0029420D01*
X0197426Y0029430D01*
X0197275Y0029443D01*
X0197124Y0029461D01*
X0196973Y0029482D01*
X0196823Y0029508D01*
X0196674Y0029537D01*
X0196525Y0029570D01*
X0196378Y0029607D01*
X0196231Y0029647D01*
X0196086Y0029692D01*
X0195942Y0029740D01*
X0195799Y0029792D01*
X0195657Y0029847D01*
X0195517Y0029906D01*
X0195378Y0029969D01*
X0195241Y0030035D01*
X0195106Y0030105D01*
X0194973Y0030178D01*
X0194842Y0030255D01*
X0194712Y0030335D01*
X0194585Y0030418D01*
X0194460Y0030504D01*
X0194337Y0030594D01*
X0194217Y0030687D01*
X0194099Y0030783D01*
X0193983Y0030882D01*
X0193870Y0030984D01*
X0193760Y0031088D01*
X0193652Y0031196D01*
X0193548Y0031306D01*
X0193446Y0031419D01*
X0193347Y0031535D01*
X0193251Y0031653D01*
X0193158Y0031773D01*
X0193068Y0031896D01*
X0192982Y0032021D01*
X0192899Y0032148D01*
X0192819Y0032278D01*
X0192742Y0032409D01*
X0192669Y0032542D01*
X0192599Y0032677D01*
X0192533Y0032814D01*
X0192470Y0032953D01*
X0192411Y0033093D01*
X0192356Y0033235D01*
X0192304Y0033378D01*
X0192256Y0033522D01*
X0192211Y0033667D01*
X0192171Y0033814D01*
X0192134Y0033961D01*
X0192101Y0034110D01*
X0192072Y0034259D01*
X0192046Y0034409D01*
X0192025Y0034560D01*
X0192007Y0034711D01*
X0191994Y0034862D01*
X0191984Y0035014D01*
X0191978Y0035166D01*
X0191976Y0035318D01*
X0191978Y0035470D01*
X0191984Y0035622D01*
X0191994Y0035774D01*
X0192007Y0035925D01*
X0192025Y0036076D01*
X0192046Y0036227D01*
X0192072Y0036377D01*
X0192101Y0036526D01*
X0192134Y0036675D01*
X0192171Y0036822D01*
X0192211Y0036969D01*
X0192256Y0037114D01*
X0192304Y0037258D01*
X0192356Y0037401D01*
X0192411Y0037543D01*
X0192470Y0037683D01*
X0192533Y0037822D01*
X0192599Y0037959D01*
X0192669Y0038094D01*
X0192742Y0038227D01*
X0192819Y0038358D01*
X0192899Y0038488D01*
X0192982Y0038615D01*
X0193068Y0038740D01*
X0193158Y0038863D01*
X0193251Y0038983D01*
X0193347Y0039101D01*
X0193446Y0039217D01*
X0193548Y0039330D01*
X0193652Y0039440D01*
X0193760Y0039548D01*
X0193870Y0039652D01*
X0193983Y0039754D01*
X0194099Y0039853D01*
X0194217Y0039949D01*
X0194337Y0040042D01*
X0194460Y0040132D01*
X0194585Y0040218D01*
X0194712Y0040301D01*
X0194842Y0040381D01*
X0194973Y0040458D01*
X0195106Y0040531D01*
X0195241Y0040601D01*
X0195378Y0040667D01*
X0195517Y0040730D01*
X0195657Y0040789D01*
X0195799Y0040844D01*
X0195942Y0040896D01*
X0196086Y0040944D01*
X0196231Y0040989D01*
X0196378Y0041029D01*
X0196525Y0041066D01*
X0196674Y0041099D01*
X0196823Y0041128D01*
X0196973Y0041154D01*
X0197124Y0041175D01*
X0197275Y0041193D01*
X0197426Y0041206D01*
X0197578Y0041216D01*
X0197730Y0041222D01*
X0197882Y0041224D01*
X0209693Y0068782D02*
X0221504Y0068782D01*
X0221656Y0068784D01*
X0221808Y0068790D01*
X0221960Y0068800D01*
X0222111Y0068813D01*
X0222262Y0068831D01*
X0222413Y0068852D01*
X0222563Y0068878D01*
X0222712Y0068907D01*
X0222861Y0068940D01*
X0223008Y0068977D01*
X0223155Y0069017D01*
X0223300Y0069062D01*
X0223444Y0069110D01*
X0223587Y0069162D01*
X0223729Y0069217D01*
X0223869Y0069276D01*
X0224008Y0069339D01*
X0224145Y0069405D01*
X0224280Y0069475D01*
X0224413Y0069548D01*
X0224544Y0069625D01*
X0224674Y0069705D01*
X0224801Y0069788D01*
X0224926Y0069874D01*
X0225049Y0069964D01*
X0225169Y0070057D01*
X0225287Y0070153D01*
X0225403Y0070252D01*
X0225516Y0070354D01*
X0225626Y0070458D01*
X0225734Y0070566D01*
X0225838Y0070676D01*
X0225940Y0070789D01*
X0226039Y0070905D01*
X0226135Y0071023D01*
X0226228Y0071143D01*
X0226318Y0071266D01*
X0226404Y0071391D01*
X0226487Y0071518D01*
X0226567Y0071648D01*
X0226644Y0071779D01*
X0226717Y0071912D01*
X0226787Y0072047D01*
X0226853Y0072184D01*
X0226916Y0072323D01*
X0226975Y0072463D01*
X0227030Y0072605D01*
X0227082Y0072748D01*
X0227130Y0072892D01*
X0227175Y0073037D01*
X0227215Y0073184D01*
X0227252Y0073331D01*
X0227285Y0073480D01*
X0227314Y0073629D01*
X0227340Y0073779D01*
X0227361Y0073930D01*
X0227379Y0074081D01*
X0227392Y0074232D01*
X0227402Y0074384D01*
X0227408Y0074536D01*
X0227410Y0074688D01*
X0227408Y0074840D01*
X0227402Y0074992D01*
X0227392Y0075144D01*
X0227379Y0075295D01*
X0227361Y0075446D01*
X0227340Y0075597D01*
X0227314Y0075747D01*
X0227285Y0075896D01*
X0227252Y0076045D01*
X0227215Y0076192D01*
X0227175Y0076339D01*
X0227130Y0076484D01*
X0227082Y0076628D01*
X0227030Y0076771D01*
X0226975Y0076913D01*
X0226916Y0077053D01*
X0226853Y0077192D01*
X0226787Y0077329D01*
X0226717Y0077464D01*
X0226644Y0077597D01*
X0226567Y0077728D01*
X0226487Y0077858D01*
X0226404Y0077985D01*
X0226318Y0078110D01*
X0226228Y0078233D01*
X0226135Y0078353D01*
X0226039Y0078471D01*
X0225940Y0078587D01*
X0225838Y0078700D01*
X0225734Y0078810D01*
X0225626Y0078918D01*
X0225516Y0079022D01*
X0225403Y0079124D01*
X0225287Y0079223D01*
X0225169Y0079319D01*
X0225049Y0079412D01*
X0224926Y0079502D01*
X0224801Y0079588D01*
X0224674Y0079671D01*
X0224544Y0079751D01*
X0224413Y0079828D01*
X0224280Y0079901D01*
X0224145Y0079971D01*
X0224008Y0080037D01*
X0223869Y0080100D01*
X0223729Y0080159D01*
X0223587Y0080214D01*
X0223444Y0080266D01*
X0223300Y0080314D01*
X0223155Y0080359D01*
X0223008Y0080399D01*
X0222861Y0080436D01*
X0222712Y0080469D01*
X0222563Y0080498D01*
X0222413Y0080524D01*
X0222262Y0080545D01*
X0222111Y0080563D01*
X0221960Y0080576D01*
X0221808Y0080586D01*
X0221656Y0080592D01*
X0221504Y0080594D01*
X0221504Y0080593D02*
X0209693Y0080593D01*
X0209693Y0080594D02*
X0209541Y0080592D01*
X0209389Y0080586D01*
X0209237Y0080576D01*
X0209086Y0080563D01*
X0208935Y0080545D01*
X0208784Y0080524D01*
X0208634Y0080498D01*
X0208485Y0080469D01*
X0208336Y0080436D01*
X0208189Y0080399D01*
X0208042Y0080359D01*
X0207897Y0080314D01*
X0207753Y0080266D01*
X0207610Y0080214D01*
X0207468Y0080159D01*
X0207328Y0080100D01*
X0207189Y0080037D01*
X0207052Y0079971D01*
X0206917Y0079901D01*
X0206784Y0079828D01*
X0206653Y0079751D01*
X0206523Y0079671D01*
X0206396Y0079588D01*
X0206271Y0079502D01*
X0206148Y0079412D01*
X0206028Y0079319D01*
X0205910Y0079223D01*
X0205794Y0079124D01*
X0205681Y0079022D01*
X0205571Y0078918D01*
X0205463Y0078810D01*
X0205359Y0078700D01*
X0205257Y0078587D01*
X0205158Y0078471D01*
X0205062Y0078353D01*
X0204969Y0078233D01*
X0204879Y0078110D01*
X0204793Y0077985D01*
X0204710Y0077858D01*
X0204630Y0077728D01*
X0204553Y0077597D01*
X0204480Y0077464D01*
X0204410Y0077329D01*
X0204344Y0077192D01*
X0204281Y0077053D01*
X0204222Y0076913D01*
X0204167Y0076771D01*
X0204115Y0076628D01*
X0204067Y0076484D01*
X0204022Y0076339D01*
X0203982Y0076192D01*
X0203945Y0076045D01*
X0203912Y0075896D01*
X0203883Y0075747D01*
X0203857Y0075597D01*
X0203836Y0075446D01*
X0203818Y0075295D01*
X0203805Y0075144D01*
X0203795Y0074992D01*
X0203789Y0074840D01*
X0203787Y0074688D01*
X0203789Y0074536D01*
X0203795Y0074384D01*
X0203805Y0074232D01*
X0203818Y0074081D01*
X0203836Y0073930D01*
X0203857Y0073779D01*
X0203883Y0073629D01*
X0203912Y0073480D01*
X0203945Y0073331D01*
X0203982Y0073184D01*
X0204022Y0073037D01*
X0204067Y0072892D01*
X0204115Y0072748D01*
X0204167Y0072605D01*
X0204222Y0072463D01*
X0204281Y0072323D01*
X0204344Y0072184D01*
X0204410Y0072047D01*
X0204480Y0071912D01*
X0204553Y0071779D01*
X0204630Y0071648D01*
X0204710Y0071518D01*
X0204793Y0071391D01*
X0204879Y0071266D01*
X0204969Y0071143D01*
X0205062Y0071023D01*
X0205158Y0070905D01*
X0205257Y0070789D01*
X0205359Y0070676D01*
X0205463Y0070566D01*
X0205571Y0070458D01*
X0205681Y0070354D01*
X0205794Y0070252D01*
X0205910Y0070153D01*
X0206028Y0070057D01*
X0206148Y0069964D01*
X0206271Y0069874D01*
X0206396Y0069788D01*
X0206523Y0069705D01*
X0206653Y0069625D01*
X0206784Y0069548D01*
X0206917Y0069475D01*
X0207052Y0069405D01*
X0207189Y0069339D01*
X0207328Y0069276D01*
X0207468Y0069217D01*
X0207610Y0069162D01*
X0207753Y0069110D01*
X0207897Y0069062D01*
X0208042Y0069017D01*
X0208189Y0068977D01*
X0208336Y0068940D01*
X0208485Y0068907D01*
X0208634Y0068878D01*
X0208784Y0068852D01*
X0208935Y0068831D01*
X0209086Y0068813D01*
X0209237Y0068800D01*
X0209389Y0068790D01*
X0209541Y0068784D01*
X0209693Y0068782D01*
D13*
X0209693Y0074688D02*
X0221504Y0074688D01*
X0209693Y0035318D02*
X0197882Y0035318D01*
X0044339Y0074688D02*
X0032528Y0074688D01*
X0032528Y0035318D02*
X0020717Y0035318D01*
D14*
X0069929Y0045003D03*
X0069929Y0065003D03*
X0138669Y0082562D03*
X0158669Y0082562D03*
X0172291Y0065003D03*
X0172291Y0045003D03*
D15*
X0121425Y0082562D03*
X0081425Y0082562D03*
D16*
X0076425Y0082590D02*
X0045339Y0082590D01*
X0044048Y0083125D02*
X0032818Y0083125D01*
X0029717Y0081840D01*
X0029187Y0081310D01*
X0028404Y0080858D01*
X0027634Y0080267D01*
X0026948Y0079581D01*
X0026357Y0078811D01*
X0025872Y0077970D01*
X0025500Y0077073D01*
X0025249Y0076136D01*
X0025124Y0075188D01*
X0026059Y0075188D01*
X0026059Y0074188D01*
X0025124Y0074188D01*
X0025249Y0073240D01*
X0025500Y0072302D01*
X0025872Y0071405D01*
X0025924Y0071314D01*
X0022308Y0071314D01*
X0017808Y0069992D01*
X0013862Y0067456D01*
X0010791Y0063912D01*
X0010791Y0063912D01*
X0008842Y0059645D01*
X0008175Y0055003D01*
X0008175Y0055003D01*
X0008842Y0050360D01*
X0010791Y0046094D01*
X0010791Y0046094D01*
X0013862Y0042549D01*
X0013862Y0042549D01*
X0013862Y0042549D01*
X0015889Y0041246D01*
X0014269Y0039626D01*
X0013111Y0036830D01*
X0013111Y0033805D01*
X0014269Y0031009D01*
X0016408Y0028870D01*
X0017761Y0028309D01*
X0017906Y0028165D01*
X0021007Y0026881D01*
X0032237Y0026881D01*
X0035338Y0028165D01*
X0035338Y0028165D01*
X0035483Y0028309D01*
X0036836Y0028870D01*
X0038975Y0031009D01*
X0040133Y0033805D01*
X0040133Y0036830D01*
X0039362Y0038692D01*
X0039506Y0038692D01*
X0042747Y0038692D01*
X0047247Y0040013D01*
X0047247Y0040013D01*
X0051193Y0042549D01*
X0054264Y0046094D01*
X0056213Y0050360D01*
X0056880Y0055003D01*
X0056213Y0059645D01*
X0056213Y0059645D01*
X0054264Y0063912D01*
X0051193Y0067456D01*
X0051193Y0067456D01*
X0048954Y0068895D01*
X0049232Y0069108D01*
X0049918Y0069794D01*
X0050509Y0070565D01*
X0050995Y0071405D01*
X0051366Y0072302D01*
X0051617Y0073240D01*
X0051742Y0074188D01*
X0050807Y0074188D01*
X0050807Y0075188D01*
X0051742Y0075188D01*
X0051617Y0076136D01*
X0051366Y0077073D01*
X0050995Y0077970D01*
X0050509Y0078811D01*
X0049918Y0079581D01*
X0049232Y0080267D01*
X0048462Y0080858D01*
X0047680Y0081310D01*
X0047149Y0081840D01*
X0044048Y0083125D01*
X0047149Y0081840D02*
X0047149Y0081840D01*
X0047398Y0081591D02*
X0076425Y0081591D01*
X0076425Y0081567D02*
X0077186Y0079729D01*
X0078593Y0078323D01*
X0080431Y0077562D01*
X0082420Y0077562D01*
X0084257Y0078323D01*
X0085664Y0079729D01*
X0086425Y0081567D01*
X0086425Y0083556D01*
X0085664Y0085394D01*
X0084257Y0086800D01*
X0082420Y0087562D01*
X0080431Y0087562D01*
X0078593Y0086800D01*
X0077186Y0085394D01*
X0076425Y0083556D01*
X0076425Y0081567D01*
X0076829Y0080593D02*
X0048808Y0080593D01*
X0049905Y0079594D02*
X0077321Y0079594D01*
X0078320Y0078596D02*
X0050633Y0078596D01*
X0051149Y0077597D02*
X0080345Y0077597D01*
X0082506Y0077597D02*
X0202882Y0077597D01*
X0203037Y0077970D02*
X0202665Y0077073D01*
X0202414Y0076136D01*
X0202289Y0075188D01*
X0203224Y0075188D01*
X0203224Y0074188D01*
X0202289Y0074188D01*
X0202414Y0073240D01*
X0202665Y0072302D01*
X0203037Y0071405D01*
X0203090Y0071314D01*
X0199474Y0071314D01*
X0194973Y0069992D01*
X0191028Y0067456D01*
X0187956Y0063912D01*
X0186008Y0059645D01*
X0185340Y0055003D01*
X0185340Y0055003D01*
X0186008Y0050360D01*
X0187956Y0046094D01*
X0187956Y0046094D01*
X0191028Y0042549D01*
X0193055Y0041246D01*
X0191434Y0039626D01*
X0190276Y0036830D01*
X0190276Y0033805D01*
X0191434Y0031009D01*
X0193574Y0028870D01*
X0194927Y0028309D01*
X0195071Y0028165D01*
X0195071Y0028165D01*
X0198172Y0026881D01*
X0209403Y0026881D01*
X0212504Y0028165D01*
X0212648Y0028309D01*
X0214001Y0028870D01*
X0216141Y0031009D01*
X0217298Y0033805D01*
X0217298Y0036830D01*
X0216527Y0038692D01*
X0218462Y0038692D01*
X0219912Y0038692D01*
X0224412Y0040013D01*
X0224412Y0040013D01*
X0228358Y0042549D01*
X0228358Y0042549D01*
X0231430Y0046094D01*
X0233378Y0050360D01*
X0234046Y0055003D01*
X0233378Y0059645D01*
X0233378Y0059645D01*
X0231430Y0063912D01*
X0228358Y0067456D01*
X0226120Y0068895D01*
X0226397Y0069108D01*
X0227084Y0069794D01*
X0227675Y0070565D01*
X0228160Y0071405D01*
X0228531Y0072302D01*
X0228783Y0073240D01*
X0228908Y0074188D01*
X0227972Y0074188D01*
X0227972Y0075188D01*
X0228908Y0075188D01*
X0228783Y0076136D01*
X0228531Y0077073D01*
X0228160Y0077970D01*
X0227675Y0078811D01*
X0227084Y0079581D01*
X0226397Y0080267D01*
X0225627Y0080858D01*
X0224845Y0081310D01*
X0224315Y0081840D01*
X0224315Y0081840D01*
X0221214Y0083125D01*
X0209983Y0083125D01*
X0206882Y0081840D01*
X0206352Y0081310D01*
X0205570Y0080858D01*
X0204800Y0080267D01*
X0204113Y0079581D01*
X0203522Y0078811D01*
X0203037Y0077970D01*
X0203398Y0078596D02*
X0160785Y0078596D01*
X0160450Y0078262D02*
X0162969Y0080781D01*
X0162969Y0084343D01*
X0160450Y0086862D01*
X0156888Y0086862D01*
X0154369Y0084343D01*
X0154369Y0080781D01*
X0156888Y0078262D01*
X0160450Y0078262D01*
X0161783Y0079594D02*
X0204127Y0079594D01*
X0205224Y0080593D02*
X0162782Y0080593D01*
X0162969Y0081591D02*
X0206633Y0081591D01*
X0206882Y0081840D02*
X0206882Y0081840D01*
X0208692Y0082590D02*
X0162969Y0082590D01*
X0162969Y0083588D02*
X0234720Y0083588D01*
X0234720Y0082590D02*
X0222505Y0082590D01*
X0224563Y0081591D02*
X0234720Y0081591D01*
X0234720Y0080593D02*
X0225973Y0080593D01*
X0227070Y0079594D02*
X0234720Y0079594D01*
X0234720Y0078596D02*
X0227799Y0078596D01*
X0228314Y0077597D02*
X0234720Y0077597D01*
X0234720Y0076599D02*
X0228659Y0076599D01*
X0228853Y0075600D02*
X0234720Y0075600D01*
X0234720Y0074602D02*
X0227972Y0074602D01*
X0228831Y0073603D02*
X0234720Y0073603D01*
X0234720Y0072605D02*
X0228613Y0072605D01*
X0228243Y0071606D02*
X0234720Y0071606D01*
X0234720Y0070608D02*
X0227700Y0070608D01*
X0226898Y0069609D02*
X0234720Y0069609D01*
X0234720Y0068611D02*
X0226562Y0068611D01*
X0228116Y0067612D02*
X0234720Y0067612D01*
X0234720Y0066614D02*
X0229088Y0066614D01*
X0228358Y0067456D02*
X0228358Y0067456D01*
X0228358Y0067456D01*
X0229954Y0065615D02*
X0234720Y0065615D01*
X0234720Y0064617D02*
X0230819Y0064617D01*
X0231430Y0063912D02*
X0231430Y0063912D01*
X0231564Y0063618D02*
X0234720Y0063618D01*
X0234720Y0062620D02*
X0232020Y0062620D01*
X0232476Y0061621D02*
X0234720Y0061621D01*
X0234720Y0060623D02*
X0232932Y0060623D01*
X0233381Y0059624D02*
X0234720Y0059624D01*
X0234720Y0058626D02*
X0233525Y0058626D01*
X0233668Y0057627D02*
X0234720Y0057627D01*
X0234720Y0056629D02*
X0233812Y0056629D01*
X0233955Y0055630D02*
X0234720Y0055630D01*
X0234046Y0055003D02*
X0234046Y0055003D01*
X0233992Y0054632D02*
X0234720Y0054632D01*
X0234720Y0053633D02*
X0233849Y0053633D01*
X0233705Y0052634D02*
X0234720Y0052634D01*
X0234720Y0051636D02*
X0233562Y0051636D01*
X0233418Y0050637D02*
X0234720Y0050637D01*
X0234720Y0049639D02*
X0233049Y0049639D01*
X0233378Y0050360D02*
X0233378Y0050360D01*
X0232593Y0048640D02*
X0234720Y0048640D01*
X0234720Y0047642D02*
X0232137Y0047642D01*
X0231681Y0046643D02*
X0234720Y0046643D01*
X0234720Y0045645D02*
X0231041Y0045645D01*
X0231430Y0046094D02*
X0231430Y0046094D01*
X0230176Y0044646D02*
X0234720Y0044646D01*
X0234720Y0043648D02*
X0229311Y0043648D01*
X0228445Y0042649D02*
X0234720Y0042649D01*
X0234720Y0041651D02*
X0226961Y0041651D01*
X0225407Y0040652D02*
X0234720Y0040652D01*
X0234720Y0039654D02*
X0223189Y0039654D01*
X0216956Y0037657D02*
X0234720Y0037657D01*
X0234720Y0038655D02*
X0216542Y0038655D01*
X0217298Y0036658D02*
X0234720Y0036658D01*
X0234720Y0035660D02*
X0217298Y0035660D01*
X0217298Y0034661D02*
X0234720Y0034661D01*
X0234720Y0033663D02*
X0217240Y0033663D01*
X0216826Y0032664D02*
X0234720Y0032664D01*
X0234720Y0031666D02*
X0216412Y0031666D01*
X0215798Y0030667D02*
X0234720Y0030667D01*
X0234720Y0029669D02*
X0214800Y0029669D01*
X0213519Y0028670D02*
X0234720Y0028670D01*
X0234720Y0027672D02*
X0211313Y0027672D01*
X0212504Y0028165D02*
X0212504Y0028165D01*
X0196262Y0027672D02*
X0144783Y0027672D01*
X0144899Y0027788D02*
X0146514Y0030584D01*
X0147350Y0033703D01*
X0147350Y0036932D01*
X0146514Y0040051D01*
X0144899Y0042847D01*
X0142616Y0045130D01*
X0139820Y0046745D01*
X0136701Y0047581D01*
X0133472Y0047581D01*
X0130353Y0046745D01*
X0127557Y0045130D01*
X0125274Y0042847D01*
X0123659Y0040051D01*
X0122824Y0036932D01*
X0122824Y0033703D01*
X0123659Y0030584D01*
X0125274Y0027788D01*
X0127557Y0025505D01*
X0130353Y0023890D01*
X0133472Y0023055D01*
X0136701Y0023055D01*
X0139820Y0023890D01*
X0142616Y0025505D01*
X0144899Y0027788D01*
X0145409Y0028670D02*
X0194056Y0028670D01*
X0192775Y0029669D02*
X0145985Y0029669D01*
X0146536Y0030667D02*
X0191776Y0030667D01*
X0191162Y0031666D02*
X0146804Y0031666D01*
X0147071Y0032664D02*
X0190749Y0032664D01*
X0190335Y0033663D02*
X0147339Y0033663D01*
X0147350Y0034661D02*
X0190276Y0034661D01*
X0190276Y0035660D02*
X0147350Y0035660D01*
X0147350Y0036658D02*
X0190276Y0036658D01*
X0190619Y0037657D02*
X0147155Y0037657D01*
X0146888Y0038655D02*
X0191032Y0038655D01*
X0191462Y0039654D02*
X0146620Y0039654D01*
X0146167Y0040652D02*
X0192461Y0040652D01*
X0192425Y0041651D02*
X0175021Y0041651D01*
X0174072Y0040703D02*
X0176591Y0043222D01*
X0176591Y0046784D01*
X0174072Y0049303D01*
X0170510Y0049303D01*
X0167991Y0046784D01*
X0167991Y0043222D01*
X0170510Y0040703D01*
X0174072Y0040703D01*
X0176019Y0042649D02*
X0190940Y0042649D01*
X0191028Y0042549D02*
X0191028Y0042549D01*
X0191028Y0042549D01*
X0190075Y0043648D02*
X0176591Y0043648D01*
X0176591Y0044646D02*
X0189210Y0044646D01*
X0188345Y0045645D02*
X0176591Y0045645D01*
X0176591Y0046643D02*
X0187705Y0046643D01*
X0187249Y0047642D02*
X0175733Y0047642D01*
X0174735Y0048640D02*
X0186793Y0048640D01*
X0186337Y0049639D02*
X0055884Y0049639D01*
X0056213Y0050360D02*
X0056213Y0050360D01*
X0056253Y0050637D02*
X0185968Y0050637D01*
X0186008Y0050360D02*
X0186008Y0050360D01*
X0185824Y0051636D02*
X0056396Y0051636D01*
X0056540Y0052634D02*
X0185681Y0052634D01*
X0185537Y0053633D02*
X0056683Y0053633D01*
X0056827Y0054632D02*
X0185393Y0054632D01*
X0185430Y0055630D02*
X0056790Y0055630D01*
X0056880Y0055003D02*
X0056880Y0055003D01*
X0056647Y0056629D02*
X0185574Y0056629D01*
X0185717Y0057627D02*
X0056503Y0057627D01*
X0056359Y0058626D02*
X0185861Y0058626D01*
X0186005Y0059624D02*
X0056216Y0059624D01*
X0055766Y0060623D02*
X0186454Y0060623D01*
X0186008Y0059645D02*
X0186008Y0059645D01*
X0186910Y0061621D02*
X0174708Y0061621D01*
X0173990Y0060903D02*
X0176391Y0063304D01*
X0176391Y0064703D01*
X0172591Y0064703D01*
X0172591Y0065303D01*
X0171991Y0065303D01*
X0171991Y0069103D01*
X0170593Y0069103D01*
X0168191Y0066701D01*
X0168191Y0065303D01*
X0171991Y0065303D01*
X0171991Y0064703D01*
X0168191Y0064703D01*
X0168191Y0063304D01*
X0170593Y0060903D01*
X0171991Y0060903D01*
X0171991Y0064703D01*
X0172591Y0064703D01*
X0172591Y0060903D01*
X0173990Y0060903D01*
X0172591Y0061621D02*
X0171991Y0061621D01*
X0171991Y0062620D02*
X0172591Y0062620D01*
X0172591Y0063618D02*
X0171991Y0063618D01*
X0171991Y0064617D02*
X0172591Y0064617D01*
X0172591Y0065303D02*
X0176391Y0065303D01*
X0176391Y0066701D01*
X0173990Y0069103D01*
X0172591Y0069103D01*
X0172591Y0065303D01*
X0172591Y0065615D02*
X0171991Y0065615D01*
X0171991Y0066614D02*
X0172591Y0066614D01*
X0172591Y0067612D02*
X0171991Y0067612D01*
X0171991Y0068611D02*
X0172591Y0068611D01*
X0174482Y0068611D02*
X0192824Y0068611D01*
X0194377Y0069609D02*
X0049733Y0069609D01*
X0049397Y0068611D02*
X0067739Y0068611D01*
X0068231Y0069103D02*
X0065829Y0066701D01*
X0065829Y0065303D01*
X0069629Y0065303D01*
X0069629Y0069103D01*
X0068231Y0069103D01*
X0069629Y0068611D02*
X0070229Y0068611D01*
X0070229Y0069103D02*
X0070229Y0065303D01*
X0069629Y0065303D01*
X0069629Y0064703D01*
X0065829Y0064703D01*
X0065829Y0063304D01*
X0068231Y0060903D01*
X0069629Y0060903D01*
X0069629Y0064703D01*
X0070229Y0064703D01*
X0070229Y0065303D01*
X0074029Y0065303D01*
X0074029Y0066701D01*
X0071627Y0069103D01*
X0070229Y0069103D01*
X0072119Y0068611D02*
X0170101Y0068611D01*
X0169103Y0067612D02*
X0073118Y0067612D01*
X0074029Y0066614D02*
X0168191Y0066614D01*
X0168191Y0065615D02*
X0074029Y0065615D01*
X0074029Y0064703D02*
X0070229Y0064703D01*
X0070229Y0060903D01*
X0071627Y0060903D01*
X0074029Y0063304D01*
X0074029Y0064703D01*
X0074029Y0064617D02*
X0168191Y0064617D01*
X0168191Y0063618D02*
X0074029Y0063618D01*
X0073344Y0062620D02*
X0168876Y0062620D01*
X0169875Y0061621D02*
X0072346Y0061621D01*
X0070229Y0061621D02*
X0069629Y0061621D01*
X0069629Y0062620D02*
X0070229Y0062620D01*
X0070229Y0063618D02*
X0069629Y0063618D01*
X0069629Y0064617D02*
X0070229Y0064617D01*
X0070229Y0065615D02*
X0069629Y0065615D01*
X0069629Y0066614D02*
X0070229Y0066614D01*
X0070229Y0067612D02*
X0069629Y0067612D01*
X0066740Y0067612D02*
X0050951Y0067612D01*
X0051193Y0067456D02*
X0051193Y0067456D01*
X0051923Y0066614D02*
X0065829Y0066614D01*
X0065829Y0065615D02*
X0052788Y0065615D01*
X0053654Y0064617D02*
X0065829Y0064617D01*
X0065829Y0063618D02*
X0054398Y0063618D01*
X0054264Y0063912D02*
X0054264Y0063912D01*
X0054854Y0062620D02*
X0066514Y0062620D01*
X0067512Y0061621D02*
X0055310Y0061621D01*
X0050534Y0070608D02*
X0197070Y0070608D01*
X0194973Y0069992D02*
X0194973Y0069992D01*
X0191270Y0067612D02*
X0175480Y0067612D01*
X0176391Y0066614D02*
X0190297Y0066614D01*
X0191028Y0067456D02*
X0191028Y0067456D01*
X0189432Y0065615D02*
X0176391Y0065615D01*
X0176391Y0064617D02*
X0188567Y0064617D01*
X0187956Y0063912D02*
X0187956Y0063912D01*
X0187822Y0063618D02*
X0176391Y0063618D01*
X0175707Y0062620D02*
X0187366Y0062620D01*
X0202954Y0071606D02*
X0051078Y0071606D01*
X0051447Y0072605D02*
X0202584Y0072605D01*
X0202366Y0073603D02*
X0051665Y0073603D01*
X0050807Y0074602D02*
X0203224Y0074602D01*
X0202344Y0075600D02*
X0051688Y0075600D01*
X0051493Y0076599D02*
X0202538Y0076599D01*
X0234720Y0084587D02*
X0162725Y0084587D01*
X0161727Y0085585D02*
X0234720Y0085585D01*
X0234720Y0086584D02*
X0160728Y0086584D01*
X0156610Y0086584D02*
X0140445Y0086584D01*
X0140368Y0086662D02*
X0138969Y0086662D01*
X0138969Y0082862D01*
X0138369Y0082862D01*
X0138369Y0086662D01*
X0136971Y0086662D01*
X0134569Y0084260D01*
X0134569Y0082862D01*
X0138369Y0082862D01*
X0138369Y0082262D01*
X0134569Y0082262D01*
X0134569Y0080863D01*
X0136971Y0078462D01*
X0138369Y0078462D01*
X0138369Y0082262D01*
X0138969Y0082262D01*
X0138969Y0078462D01*
X0140368Y0078462D01*
X0142769Y0080863D01*
X0142769Y0082262D01*
X0138969Y0082262D01*
X0138969Y0082862D01*
X0142769Y0082862D01*
X0142769Y0084260D01*
X0140368Y0086662D01*
X0138969Y0086584D02*
X0138369Y0086584D01*
X0138369Y0085585D02*
X0138969Y0085585D01*
X0138969Y0084587D02*
X0138369Y0084587D01*
X0138369Y0083588D02*
X0138969Y0083588D01*
X0138969Y0082590D02*
X0154369Y0082590D01*
X0154369Y0083588D02*
X0142769Y0083588D01*
X0142442Y0084587D02*
X0154613Y0084587D01*
X0155612Y0085585D02*
X0141444Y0085585D01*
X0136893Y0086584D02*
X0124055Y0086584D01*
X0123941Y0086667D02*
X0123268Y0087010D01*
X0122549Y0087243D01*
X0121925Y0087342D01*
X0121925Y0083062D01*
X0120925Y0083062D01*
X0120925Y0087342D01*
X0120301Y0087243D01*
X0119583Y0087010D01*
X0118909Y0086667D01*
X0118298Y0086223D01*
X0117764Y0085689D01*
X0117320Y0085077D01*
X0116977Y0084404D01*
X0116743Y0083686D01*
X0116645Y0083062D01*
X0120925Y0083062D01*
X0120925Y0082062D01*
X0116645Y0082062D01*
X0116743Y0081438D01*
X0116977Y0080719D01*
X0117320Y0080046D01*
X0117764Y0079435D01*
X0118298Y0078900D01*
X0118909Y0078456D01*
X0119583Y0078113D01*
X0120301Y0077880D01*
X0120925Y0077781D01*
X0120925Y0082062D01*
X0121925Y0082062D01*
X0121925Y0083062D01*
X0126206Y0083062D01*
X0126107Y0083686D01*
X0125874Y0084404D01*
X0125531Y0085077D01*
X0125086Y0085689D01*
X0124552Y0086223D01*
X0123941Y0086667D01*
X0125161Y0085585D02*
X0135895Y0085585D01*
X0134896Y0084587D02*
X0125780Y0084587D01*
X0126122Y0083588D02*
X0134569Y0083588D01*
X0134569Y0081591D02*
X0126131Y0081591D01*
X0126107Y0081438D02*
X0126206Y0082062D01*
X0121925Y0082062D01*
X0121925Y0077781D01*
X0122549Y0077880D01*
X0123268Y0078113D01*
X0123941Y0078456D01*
X0124552Y0078900D01*
X0125086Y0079435D01*
X0125531Y0080046D01*
X0125874Y0080719D01*
X0126107Y0081438D01*
X0125809Y0080593D02*
X0134840Y0080593D01*
X0135838Y0079594D02*
X0125202Y0079594D01*
X0124133Y0078596D02*
X0136837Y0078596D01*
X0138369Y0078596D02*
X0138969Y0078596D01*
X0138969Y0079594D02*
X0138369Y0079594D01*
X0138369Y0080593D02*
X0138969Y0080593D01*
X0138969Y0081591D02*
X0138369Y0081591D01*
X0138369Y0082590D02*
X0121925Y0082590D01*
X0121925Y0083588D02*
X0120925Y0083588D01*
X0120925Y0082590D02*
X0086425Y0082590D01*
X0086412Y0083588D02*
X0116728Y0083588D01*
X0117070Y0084587D02*
X0085998Y0084587D01*
X0085473Y0085585D02*
X0117689Y0085585D01*
X0118795Y0086584D02*
X0084474Y0086584D01*
X0078376Y0086584D02*
X0007500Y0086584D01*
X0007500Y0087582D02*
X0234720Y0087582D01*
X0234720Y0088581D02*
X0007500Y0088581D01*
X0007500Y0089579D02*
X0234720Y0089579D01*
X0234720Y0090578D02*
X0007500Y0090578D01*
X0007500Y0091576D02*
X0234720Y0091576D01*
X0234720Y0092575D02*
X0007500Y0092575D01*
X0007500Y0093573D02*
X0234720Y0093573D01*
X0234720Y0093810D02*
X0234720Y0016196D01*
X0007500Y0016196D01*
X0007500Y0093810D01*
X0234720Y0093810D01*
X0156554Y0078596D02*
X0140502Y0078596D01*
X0141500Y0079594D02*
X0155556Y0079594D01*
X0154557Y0080593D02*
X0142499Y0080593D01*
X0142769Y0081591D02*
X0154369Y0081591D01*
X0121925Y0081591D02*
X0120925Y0081591D01*
X0120925Y0080593D02*
X0121925Y0080593D01*
X0121925Y0079594D02*
X0120925Y0079594D01*
X0120925Y0078596D02*
X0121925Y0078596D01*
X0118718Y0078596D02*
X0084530Y0078596D01*
X0085529Y0079594D02*
X0117648Y0079594D01*
X0117041Y0080593D02*
X0086022Y0080593D01*
X0086425Y0081591D02*
X0116719Y0081591D01*
X0120925Y0084587D02*
X0121925Y0084587D01*
X0121925Y0085585D02*
X0120925Y0085585D01*
X0120925Y0086584D02*
X0121925Y0086584D01*
X0077378Y0085585D02*
X0007500Y0085585D01*
X0007500Y0084587D02*
X0076852Y0084587D01*
X0076439Y0083588D02*
X0007500Y0083588D01*
X0007500Y0082590D02*
X0031527Y0082590D01*
X0029717Y0081840D02*
X0029717Y0081840D01*
X0029468Y0081591D02*
X0007500Y0081591D01*
X0007500Y0080593D02*
X0028058Y0080593D01*
X0026961Y0079594D02*
X0007500Y0079594D01*
X0007500Y0078596D02*
X0026233Y0078596D01*
X0025717Y0077597D02*
X0007500Y0077597D01*
X0007500Y0076599D02*
X0025373Y0076599D01*
X0025178Y0075600D02*
X0007500Y0075600D01*
X0007500Y0074602D02*
X0026059Y0074602D01*
X0025201Y0073603D02*
X0007500Y0073603D01*
X0007500Y0072605D02*
X0025419Y0072605D01*
X0025788Y0071606D02*
X0007500Y0071606D01*
X0007500Y0070608D02*
X0019904Y0070608D01*
X0017808Y0069992D02*
X0017808Y0069992D01*
X0017212Y0069609D02*
X0007500Y0069609D01*
X0007500Y0068611D02*
X0015658Y0068611D01*
X0014105Y0067612D02*
X0007500Y0067612D01*
X0007500Y0066614D02*
X0013132Y0066614D01*
X0013862Y0067456D02*
X0013862Y0067456D01*
X0012267Y0065615D02*
X0007500Y0065615D01*
X0007500Y0064617D02*
X0011402Y0064617D01*
X0010657Y0063618D02*
X0007500Y0063618D01*
X0007500Y0062620D02*
X0010201Y0062620D01*
X0009745Y0061621D02*
X0007500Y0061621D01*
X0007500Y0060623D02*
X0009289Y0060623D01*
X0008842Y0059645D02*
X0008842Y0059645D01*
X0008839Y0059624D02*
X0007500Y0059624D01*
X0007500Y0058626D02*
X0008696Y0058626D01*
X0008552Y0057627D02*
X0007500Y0057627D01*
X0007500Y0056629D02*
X0008409Y0056629D01*
X0008265Y0055630D02*
X0007500Y0055630D01*
X0007500Y0054632D02*
X0008228Y0054632D01*
X0008372Y0053633D02*
X0007500Y0053633D01*
X0007500Y0052634D02*
X0008515Y0052634D01*
X0008659Y0051636D02*
X0007500Y0051636D01*
X0007500Y0050637D02*
X0008802Y0050637D01*
X0008842Y0050360D02*
X0008842Y0050360D01*
X0009172Y0049639D02*
X0007500Y0049639D01*
X0007500Y0048640D02*
X0009628Y0048640D01*
X0010084Y0047642D02*
X0007500Y0047642D01*
X0007500Y0046643D02*
X0010540Y0046643D01*
X0011179Y0045645D02*
X0007500Y0045645D01*
X0007500Y0044646D02*
X0012045Y0044646D01*
X0012910Y0043648D02*
X0007500Y0043648D01*
X0007500Y0042649D02*
X0013775Y0042649D01*
X0015259Y0041651D02*
X0007500Y0041651D01*
X0007500Y0040652D02*
X0015296Y0040652D01*
X0014297Y0039654D02*
X0007500Y0039654D01*
X0007500Y0038655D02*
X0013867Y0038655D01*
X0013453Y0037657D02*
X0007500Y0037657D01*
X0007500Y0036658D02*
X0013111Y0036658D01*
X0013111Y0035660D02*
X0007500Y0035660D01*
X0007500Y0034661D02*
X0013111Y0034661D01*
X0013170Y0033663D02*
X0007500Y0033663D01*
X0007500Y0032664D02*
X0013583Y0032664D01*
X0013997Y0031666D02*
X0007500Y0031666D01*
X0007500Y0030667D02*
X0014611Y0030667D01*
X0015610Y0029669D02*
X0007500Y0029669D01*
X0007500Y0028670D02*
X0016891Y0028670D01*
X0017906Y0028165D02*
X0017906Y0028165D01*
X0019097Y0027672D02*
X0007500Y0027672D01*
X0007500Y0026673D02*
X0098719Y0026673D01*
X0099083Y0026309D02*
X0100142Y0025464D01*
X0101290Y0024743D01*
X0102510Y0024155D01*
X0103789Y0023708D01*
X0105110Y0023406D01*
X0106456Y0023255D01*
X0106634Y0023255D01*
X0106634Y0034818D01*
X0095071Y0034818D01*
X0095071Y0034640D01*
X0095223Y0033294D01*
X0095524Y0031973D01*
X0095972Y0030694D01*
X0096559Y0029473D01*
X0097280Y0028326D01*
X0098125Y0027267D01*
X0099083Y0026309D01*
X0099878Y0025675D02*
X0007500Y0025675D01*
X0007500Y0024676D02*
X0101429Y0024676D01*
X0103921Y0023678D02*
X0007500Y0023678D01*
X0007500Y0022679D02*
X0234720Y0022679D01*
X0234720Y0021681D02*
X0007500Y0021681D01*
X0007500Y0020682D02*
X0234720Y0020682D01*
X0234720Y0019684D02*
X0007500Y0019684D01*
X0007500Y0018685D02*
X0234720Y0018685D01*
X0234720Y0017687D02*
X0007500Y0017687D01*
X0007500Y0016688D02*
X0234720Y0016688D01*
X0234720Y0023678D02*
X0139026Y0023678D01*
X0141181Y0024676D02*
X0234720Y0024676D01*
X0234720Y0025675D02*
X0142786Y0025675D01*
X0143785Y0026673D02*
X0234720Y0026673D01*
X0169562Y0041651D02*
X0145590Y0041651D01*
X0145014Y0042649D02*
X0168563Y0042649D01*
X0167991Y0043648D02*
X0144099Y0043648D01*
X0143100Y0044646D02*
X0167991Y0044646D01*
X0167991Y0045645D02*
X0141725Y0045645D01*
X0139996Y0046643D02*
X0167991Y0046643D01*
X0168850Y0047642D02*
X0073371Y0047642D01*
X0074229Y0046784D02*
X0071710Y0049303D01*
X0068148Y0049303D01*
X0065629Y0046784D01*
X0065629Y0043222D01*
X0068148Y0040703D01*
X0071710Y0040703D01*
X0074229Y0043222D01*
X0074229Y0046784D01*
X0074229Y0046643D02*
X0102978Y0046643D01*
X0102510Y0046480D02*
X0101290Y0045892D01*
X0100142Y0045171D01*
X0099083Y0044326D01*
X0098125Y0043368D01*
X0097280Y0042309D01*
X0096559Y0041162D01*
X0095972Y0039941D01*
X0095524Y0038662D01*
X0095223Y0037341D01*
X0095071Y0035995D01*
X0095071Y0035818D01*
X0106634Y0035818D01*
X0106634Y0047381D01*
X0106456Y0047381D01*
X0105110Y0047229D01*
X0103789Y0046927D01*
X0102510Y0046480D01*
X0100896Y0045645D02*
X0074229Y0045645D01*
X0074229Y0044646D02*
X0099484Y0044646D01*
X0098405Y0043648D02*
X0074229Y0043648D01*
X0073657Y0042649D02*
X0097552Y0042649D01*
X0096867Y0041651D02*
X0072658Y0041651D01*
X0067200Y0041651D02*
X0049796Y0041651D01*
X0051193Y0042549D02*
X0051193Y0042549D01*
X0051280Y0042649D02*
X0066201Y0042649D01*
X0065629Y0043648D02*
X0052145Y0043648D01*
X0053010Y0044646D02*
X0065629Y0044646D01*
X0065629Y0045645D02*
X0053876Y0045645D01*
X0054264Y0046094D02*
X0054264Y0046094D01*
X0054515Y0046643D02*
X0065629Y0046643D01*
X0066487Y0047642D02*
X0054971Y0047642D01*
X0055427Y0048640D02*
X0067486Y0048640D01*
X0072372Y0048640D02*
X0169848Y0048640D01*
X0130178Y0046643D02*
X0111290Y0046643D01*
X0111757Y0046480D02*
X0110479Y0046927D01*
X0109158Y0047229D01*
X0107811Y0047381D01*
X0107634Y0047381D01*
X0107634Y0035818D01*
X0106634Y0035818D01*
X0106634Y0034818D01*
X0107634Y0034818D01*
X0107634Y0035818D01*
X0119197Y0035818D01*
X0119197Y0035995D01*
X0119045Y0037341D01*
X0118744Y0038662D01*
X0118296Y0039941D01*
X0117708Y0041162D01*
X0116987Y0042309D01*
X0116143Y0043368D01*
X0115185Y0044326D01*
X0114125Y0045171D01*
X0112978Y0045892D01*
X0111757Y0046480D01*
X0113371Y0045645D02*
X0128448Y0045645D01*
X0127073Y0044646D02*
X0114783Y0044646D01*
X0115863Y0043648D02*
X0126074Y0043648D01*
X0125160Y0042649D02*
X0116716Y0042649D01*
X0117401Y0041651D02*
X0124583Y0041651D01*
X0124007Y0040652D02*
X0117954Y0040652D01*
X0118397Y0039654D02*
X0123553Y0039654D01*
X0123285Y0038655D02*
X0118745Y0038655D01*
X0118973Y0037657D02*
X0123018Y0037657D01*
X0122824Y0036658D02*
X0119122Y0036658D01*
X0119197Y0034818D02*
X0107634Y0034818D01*
X0107634Y0023255D01*
X0107811Y0023255D01*
X0109158Y0023406D01*
X0110479Y0023708D01*
X0111757Y0024155D01*
X0112978Y0024743D01*
X0114125Y0025464D01*
X0115185Y0026309D01*
X0116143Y0027267D01*
X0116987Y0028326D01*
X0117708Y0029473D01*
X0118296Y0030694D01*
X0118744Y0031973D01*
X0119045Y0033294D01*
X0119197Y0034640D01*
X0119197Y0034818D01*
X0119197Y0034661D02*
X0122824Y0034661D01*
X0122834Y0033663D02*
X0119087Y0033663D01*
X0118901Y0032664D02*
X0123102Y0032664D01*
X0123370Y0031666D02*
X0118636Y0031666D01*
X0118283Y0030667D02*
X0123637Y0030667D01*
X0124188Y0029669D02*
X0117802Y0029669D01*
X0117204Y0028670D02*
X0124764Y0028670D01*
X0125390Y0027672D02*
X0116466Y0027672D01*
X0115549Y0026673D02*
X0126388Y0026673D01*
X0127387Y0025675D02*
X0114390Y0025675D01*
X0112839Y0024676D02*
X0128992Y0024676D01*
X0131147Y0023678D02*
X0110347Y0023678D01*
X0107634Y0023678D02*
X0106634Y0023678D01*
X0106634Y0024676D02*
X0107634Y0024676D01*
X0107634Y0025675D02*
X0106634Y0025675D01*
X0106634Y0026673D02*
X0107634Y0026673D01*
X0107634Y0027672D02*
X0106634Y0027672D01*
X0106634Y0028670D02*
X0107634Y0028670D01*
X0107634Y0029669D02*
X0106634Y0029669D01*
X0106634Y0030667D02*
X0107634Y0030667D01*
X0107634Y0031666D02*
X0106634Y0031666D01*
X0106634Y0032664D02*
X0107634Y0032664D01*
X0107634Y0033663D02*
X0106634Y0033663D01*
X0106634Y0034661D02*
X0107634Y0034661D01*
X0107634Y0035660D02*
X0122824Y0035660D01*
X0107634Y0036658D02*
X0106634Y0036658D01*
X0106634Y0035660D02*
X0040133Y0035660D01*
X0040133Y0036658D02*
X0095146Y0036658D01*
X0095295Y0037657D02*
X0039791Y0037657D01*
X0039377Y0038655D02*
X0095522Y0038655D01*
X0095871Y0039654D02*
X0046024Y0039654D01*
X0048242Y0040652D02*
X0096314Y0040652D01*
X0106634Y0040652D02*
X0107634Y0040652D01*
X0107634Y0039654D02*
X0106634Y0039654D01*
X0106634Y0038655D02*
X0107634Y0038655D01*
X0107634Y0037657D02*
X0106634Y0037657D01*
X0106634Y0041651D02*
X0107634Y0041651D01*
X0107634Y0042649D02*
X0106634Y0042649D01*
X0106634Y0043648D02*
X0107634Y0043648D01*
X0107634Y0044646D02*
X0106634Y0044646D01*
X0106634Y0045645D02*
X0107634Y0045645D01*
X0107634Y0046643D02*
X0106634Y0046643D01*
X0095071Y0034661D02*
X0040133Y0034661D01*
X0040074Y0033663D02*
X0095181Y0033663D01*
X0095366Y0032664D02*
X0039661Y0032664D01*
X0039247Y0031666D02*
X0095631Y0031666D01*
X0095984Y0030667D02*
X0038633Y0030667D01*
X0037635Y0029669D02*
X0096465Y0029669D01*
X0097064Y0028670D02*
X0036354Y0028670D01*
X0034147Y0027672D02*
X0097802Y0027672D01*
M02*
