G75*
%MOIN*%
%OFA0B0*%
%FSLAX25Y25*%
%IPPOS*%
%LPD*%
%AMOC8*
5,1,8,0,0,1.08239X$1,22.5*
%
%ADD10C,0.00000*%
%ADD11C,0.00600*%
D10*
X0003000Y0011696D02*
X0003000Y0098310D01*
X0239220Y0098310D01*
X0239220Y0011696D01*
X0003000Y0011696D01*
X0022685Y0031381D02*
X0030559Y0031381D01*
X0030683Y0031383D01*
X0030806Y0031389D01*
X0030930Y0031398D01*
X0031052Y0031412D01*
X0031175Y0031429D01*
X0031297Y0031451D01*
X0031418Y0031476D01*
X0031538Y0031505D01*
X0031657Y0031537D01*
X0031776Y0031574D01*
X0031893Y0031614D01*
X0032008Y0031657D01*
X0032123Y0031705D01*
X0032235Y0031756D01*
X0032346Y0031810D01*
X0032456Y0031868D01*
X0032563Y0031929D01*
X0032669Y0031994D01*
X0032772Y0032062D01*
X0032873Y0032133D01*
X0032972Y0032207D01*
X0033069Y0032284D01*
X0033163Y0032365D01*
X0033254Y0032448D01*
X0033343Y0032534D01*
X0033429Y0032623D01*
X0033512Y0032714D01*
X0033593Y0032808D01*
X0033670Y0032905D01*
X0033744Y0033004D01*
X0033815Y0033105D01*
X0033883Y0033208D01*
X0033948Y0033314D01*
X0034009Y0033421D01*
X0034067Y0033531D01*
X0034121Y0033642D01*
X0034172Y0033754D01*
X0034220Y0033869D01*
X0034263Y0033984D01*
X0034303Y0034101D01*
X0034340Y0034220D01*
X0034372Y0034339D01*
X0034401Y0034459D01*
X0034426Y0034580D01*
X0034448Y0034702D01*
X0034465Y0034825D01*
X0034479Y0034947D01*
X0034488Y0035071D01*
X0034494Y0035194D01*
X0034496Y0035318D01*
X0034494Y0035442D01*
X0034488Y0035565D01*
X0034479Y0035689D01*
X0034465Y0035811D01*
X0034448Y0035934D01*
X0034426Y0036056D01*
X0034401Y0036177D01*
X0034372Y0036297D01*
X0034340Y0036416D01*
X0034303Y0036535D01*
X0034263Y0036652D01*
X0034220Y0036767D01*
X0034172Y0036882D01*
X0034121Y0036994D01*
X0034067Y0037105D01*
X0034009Y0037215D01*
X0033948Y0037322D01*
X0033883Y0037428D01*
X0033815Y0037531D01*
X0033744Y0037632D01*
X0033670Y0037731D01*
X0033593Y0037828D01*
X0033512Y0037922D01*
X0033429Y0038013D01*
X0033343Y0038102D01*
X0033254Y0038188D01*
X0033163Y0038271D01*
X0033069Y0038352D01*
X0032972Y0038429D01*
X0032873Y0038503D01*
X0032772Y0038574D01*
X0032669Y0038642D01*
X0032563Y0038707D01*
X0032456Y0038768D01*
X0032346Y0038826D01*
X0032235Y0038880D01*
X0032123Y0038931D01*
X0032008Y0038979D01*
X0031893Y0039022D01*
X0031776Y0039062D01*
X0031657Y0039099D01*
X0031538Y0039131D01*
X0031418Y0039160D01*
X0031297Y0039185D01*
X0031175Y0039207D01*
X0031052Y0039224D01*
X0030930Y0039238D01*
X0030806Y0039247D01*
X0030683Y0039253D01*
X0030559Y0039255D01*
X0022685Y0039255D01*
X0022561Y0039253D01*
X0022438Y0039247D01*
X0022314Y0039238D01*
X0022192Y0039224D01*
X0022069Y0039207D01*
X0021947Y0039185D01*
X0021826Y0039160D01*
X0021706Y0039131D01*
X0021587Y0039099D01*
X0021468Y0039062D01*
X0021351Y0039022D01*
X0021236Y0038979D01*
X0021121Y0038931D01*
X0021009Y0038880D01*
X0020898Y0038826D01*
X0020788Y0038768D01*
X0020681Y0038707D01*
X0020575Y0038642D01*
X0020472Y0038574D01*
X0020371Y0038503D01*
X0020272Y0038429D01*
X0020175Y0038352D01*
X0020081Y0038271D01*
X0019990Y0038188D01*
X0019901Y0038102D01*
X0019815Y0038013D01*
X0019732Y0037922D01*
X0019651Y0037828D01*
X0019574Y0037731D01*
X0019500Y0037632D01*
X0019429Y0037531D01*
X0019361Y0037428D01*
X0019296Y0037322D01*
X0019235Y0037215D01*
X0019177Y0037105D01*
X0019123Y0036994D01*
X0019072Y0036882D01*
X0019024Y0036767D01*
X0018981Y0036652D01*
X0018941Y0036535D01*
X0018904Y0036416D01*
X0018872Y0036297D01*
X0018843Y0036177D01*
X0018818Y0036056D01*
X0018796Y0035934D01*
X0018779Y0035811D01*
X0018765Y0035689D01*
X0018756Y0035565D01*
X0018750Y0035442D01*
X0018748Y0035318D01*
X0018750Y0035194D01*
X0018756Y0035071D01*
X0018765Y0034947D01*
X0018779Y0034825D01*
X0018796Y0034702D01*
X0018818Y0034580D01*
X0018843Y0034459D01*
X0018872Y0034339D01*
X0018904Y0034220D01*
X0018941Y0034101D01*
X0018981Y0033984D01*
X0019024Y0033869D01*
X0019072Y0033754D01*
X0019123Y0033642D01*
X0019177Y0033531D01*
X0019235Y0033421D01*
X0019296Y0033314D01*
X0019361Y0033208D01*
X0019429Y0033105D01*
X0019500Y0033004D01*
X0019574Y0032905D01*
X0019651Y0032808D01*
X0019732Y0032714D01*
X0019815Y0032623D01*
X0019901Y0032534D01*
X0019990Y0032448D01*
X0020081Y0032365D01*
X0020175Y0032284D01*
X0020272Y0032207D01*
X0020371Y0032133D01*
X0020472Y0032062D01*
X0020575Y0031994D01*
X0020681Y0031929D01*
X0020788Y0031868D01*
X0020898Y0031810D01*
X0021009Y0031756D01*
X0021121Y0031705D01*
X0021236Y0031657D01*
X0021351Y0031614D01*
X0021468Y0031574D01*
X0021587Y0031537D01*
X0021706Y0031505D01*
X0021826Y0031476D01*
X0021947Y0031451D01*
X0022069Y0031429D01*
X0022192Y0031412D01*
X0022314Y0031398D01*
X0022438Y0031389D01*
X0022561Y0031383D01*
X0022685Y0031381D01*
X0024654Y0043192D02*
X0040402Y0043192D01*
X0040690Y0043196D01*
X0040977Y0043206D01*
X0041264Y0043224D01*
X0041551Y0043248D01*
X0041837Y0043279D01*
X0042122Y0043318D01*
X0042406Y0043363D01*
X0042689Y0043415D01*
X0042970Y0043475D01*
X0043250Y0043541D01*
X0043528Y0043613D01*
X0043805Y0043693D01*
X0044079Y0043779D01*
X0044351Y0043872D01*
X0044621Y0043971D01*
X0044889Y0044077D01*
X0045153Y0044190D01*
X0045415Y0044309D01*
X0045674Y0044434D01*
X0045930Y0044566D01*
X0046183Y0044703D01*
X0046432Y0044847D01*
X0046677Y0044997D01*
X0046919Y0045153D01*
X0047157Y0045314D01*
X0047391Y0045482D01*
X0047621Y0045655D01*
X0047846Y0045833D01*
X0048067Y0046017D01*
X0048284Y0046206D01*
X0048496Y0046401D01*
X0048703Y0046601D01*
X0048905Y0046805D01*
X0049102Y0047015D01*
X0049294Y0047229D01*
X0049480Y0047448D01*
X0049662Y0047671D01*
X0049838Y0047899D01*
X0050008Y0048131D01*
X0050172Y0048367D01*
X0050331Y0048606D01*
X0050484Y0048850D01*
X0050631Y0049098D01*
X0050771Y0049348D01*
X0050906Y0049603D01*
X0051034Y0049860D01*
X0051156Y0050120D01*
X0051272Y0050384D01*
X0051381Y0050650D01*
X0051484Y0050918D01*
X0051580Y0051189D01*
X0051670Y0051463D01*
X0051753Y0051738D01*
X0051829Y0052016D01*
X0051898Y0052295D01*
X0051961Y0052575D01*
X0052017Y0052858D01*
X0052065Y0053141D01*
X0052107Y0053426D01*
X0052142Y0053711D01*
X0052170Y0053997D01*
X0052191Y0054284D01*
X0052205Y0054572D01*
X0052212Y0054859D01*
X0052212Y0055147D01*
X0052205Y0055434D01*
X0052191Y0055722D01*
X0052170Y0056009D01*
X0052142Y0056295D01*
X0052107Y0056580D01*
X0052065Y0056865D01*
X0052017Y0057148D01*
X0051961Y0057431D01*
X0051898Y0057711D01*
X0051829Y0057990D01*
X0051753Y0058268D01*
X0051670Y0058543D01*
X0051580Y0058817D01*
X0051484Y0059088D01*
X0051381Y0059356D01*
X0051272Y0059622D01*
X0051156Y0059886D01*
X0051034Y0060146D01*
X0050906Y0060403D01*
X0050771Y0060658D01*
X0050631Y0060909D01*
X0050484Y0061156D01*
X0050331Y0061400D01*
X0050172Y0061639D01*
X0050008Y0061875D01*
X0049838Y0062107D01*
X0049662Y0062335D01*
X0049480Y0062558D01*
X0049294Y0062777D01*
X0049102Y0062991D01*
X0048905Y0063201D01*
X0048703Y0063405D01*
X0048496Y0063605D01*
X0048284Y0063800D01*
X0048067Y0063989D01*
X0047846Y0064173D01*
X0047621Y0064351D01*
X0047391Y0064524D01*
X0047157Y0064692D01*
X0046919Y0064853D01*
X0046677Y0065009D01*
X0046432Y0065159D01*
X0046183Y0065303D01*
X0045930Y0065440D01*
X0045674Y0065572D01*
X0045415Y0065697D01*
X0045153Y0065816D01*
X0044889Y0065929D01*
X0044621Y0066035D01*
X0044351Y0066134D01*
X0044079Y0066227D01*
X0043805Y0066313D01*
X0043528Y0066393D01*
X0043250Y0066465D01*
X0042970Y0066531D01*
X0042689Y0066591D01*
X0042406Y0066643D01*
X0042122Y0066688D01*
X0041837Y0066727D01*
X0041551Y0066758D01*
X0041264Y0066782D01*
X0040977Y0066800D01*
X0040690Y0066810D01*
X0040402Y0066814D01*
X0024654Y0066814D01*
X0034496Y0070751D02*
X0042370Y0070751D01*
X0042494Y0070753D01*
X0042617Y0070759D01*
X0042741Y0070768D01*
X0042863Y0070782D01*
X0042986Y0070799D01*
X0043108Y0070821D01*
X0043229Y0070846D01*
X0043349Y0070875D01*
X0043468Y0070907D01*
X0043587Y0070944D01*
X0043704Y0070984D01*
X0043819Y0071027D01*
X0043934Y0071075D01*
X0044046Y0071126D01*
X0044157Y0071180D01*
X0044267Y0071238D01*
X0044374Y0071299D01*
X0044480Y0071364D01*
X0044583Y0071432D01*
X0044684Y0071503D01*
X0044783Y0071577D01*
X0044880Y0071654D01*
X0044974Y0071735D01*
X0045065Y0071818D01*
X0045154Y0071904D01*
X0045240Y0071993D01*
X0045323Y0072084D01*
X0045404Y0072178D01*
X0045481Y0072275D01*
X0045555Y0072374D01*
X0045626Y0072475D01*
X0045694Y0072578D01*
X0045759Y0072684D01*
X0045820Y0072791D01*
X0045878Y0072901D01*
X0045932Y0073012D01*
X0045983Y0073124D01*
X0046031Y0073239D01*
X0046074Y0073354D01*
X0046114Y0073471D01*
X0046151Y0073590D01*
X0046183Y0073709D01*
X0046212Y0073829D01*
X0046237Y0073950D01*
X0046259Y0074072D01*
X0046276Y0074195D01*
X0046290Y0074317D01*
X0046299Y0074441D01*
X0046305Y0074564D01*
X0046307Y0074688D01*
X0046305Y0074812D01*
X0046299Y0074935D01*
X0046290Y0075059D01*
X0046276Y0075181D01*
X0046259Y0075304D01*
X0046237Y0075426D01*
X0046212Y0075547D01*
X0046183Y0075667D01*
X0046151Y0075786D01*
X0046114Y0075905D01*
X0046074Y0076022D01*
X0046031Y0076137D01*
X0045983Y0076252D01*
X0045932Y0076364D01*
X0045878Y0076475D01*
X0045820Y0076585D01*
X0045759Y0076692D01*
X0045694Y0076798D01*
X0045626Y0076901D01*
X0045555Y0077002D01*
X0045481Y0077101D01*
X0045404Y0077198D01*
X0045323Y0077292D01*
X0045240Y0077383D01*
X0045154Y0077472D01*
X0045065Y0077558D01*
X0044974Y0077641D01*
X0044880Y0077722D01*
X0044783Y0077799D01*
X0044684Y0077873D01*
X0044583Y0077944D01*
X0044480Y0078012D01*
X0044374Y0078077D01*
X0044267Y0078138D01*
X0044157Y0078196D01*
X0044046Y0078250D01*
X0043934Y0078301D01*
X0043819Y0078349D01*
X0043704Y0078392D01*
X0043587Y0078432D01*
X0043468Y0078469D01*
X0043349Y0078501D01*
X0043229Y0078530D01*
X0043108Y0078555D01*
X0042986Y0078577D01*
X0042863Y0078594D01*
X0042741Y0078608D01*
X0042617Y0078617D01*
X0042494Y0078623D01*
X0042370Y0078625D01*
X0034496Y0078625D01*
X0034372Y0078623D01*
X0034249Y0078617D01*
X0034125Y0078608D01*
X0034003Y0078594D01*
X0033880Y0078577D01*
X0033758Y0078555D01*
X0033637Y0078530D01*
X0033517Y0078501D01*
X0033398Y0078469D01*
X0033279Y0078432D01*
X0033162Y0078392D01*
X0033047Y0078349D01*
X0032932Y0078301D01*
X0032820Y0078250D01*
X0032709Y0078196D01*
X0032599Y0078138D01*
X0032492Y0078077D01*
X0032386Y0078012D01*
X0032283Y0077944D01*
X0032182Y0077873D01*
X0032083Y0077799D01*
X0031986Y0077722D01*
X0031892Y0077641D01*
X0031801Y0077558D01*
X0031712Y0077472D01*
X0031626Y0077383D01*
X0031543Y0077292D01*
X0031462Y0077198D01*
X0031385Y0077101D01*
X0031311Y0077002D01*
X0031240Y0076901D01*
X0031172Y0076798D01*
X0031107Y0076692D01*
X0031046Y0076585D01*
X0030988Y0076475D01*
X0030934Y0076364D01*
X0030883Y0076252D01*
X0030835Y0076137D01*
X0030792Y0076022D01*
X0030752Y0075905D01*
X0030715Y0075786D01*
X0030683Y0075667D01*
X0030654Y0075547D01*
X0030629Y0075426D01*
X0030607Y0075304D01*
X0030590Y0075181D01*
X0030576Y0075059D01*
X0030567Y0074935D01*
X0030561Y0074812D01*
X0030559Y0074688D01*
X0030561Y0074564D01*
X0030567Y0074441D01*
X0030576Y0074317D01*
X0030590Y0074195D01*
X0030607Y0074072D01*
X0030629Y0073950D01*
X0030654Y0073829D01*
X0030683Y0073709D01*
X0030715Y0073590D01*
X0030752Y0073471D01*
X0030792Y0073354D01*
X0030835Y0073239D01*
X0030883Y0073124D01*
X0030934Y0073012D01*
X0030988Y0072901D01*
X0031046Y0072791D01*
X0031107Y0072684D01*
X0031172Y0072578D01*
X0031240Y0072475D01*
X0031311Y0072374D01*
X0031385Y0072275D01*
X0031462Y0072178D01*
X0031543Y0072084D01*
X0031626Y0071993D01*
X0031712Y0071904D01*
X0031801Y0071818D01*
X0031892Y0071735D01*
X0031986Y0071654D01*
X0032083Y0071577D01*
X0032182Y0071503D01*
X0032283Y0071432D01*
X0032386Y0071364D01*
X0032492Y0071299D01*
X0032599Y0071238D01*
X0032709Y0071180D01*
X0032820Y0071126D01*
X0032932Y0071075D01*
X0033047Y0071027D01*
X0033162Y0070984D01*
X0033279Y0070944D01*
X0033398Y0070907D01*
X0033517Y0070875D01*
X0033637Y0070846D01*
X0033758Y0070821D01*
X0033880Y0070799D01*
X0034003Y0070782D01*
X0034125Y0070768D01*
X0034249Y0070759D01*
X0034372Y0070753D01*
X0034496Y0070751D01*
X0024654Y0066814D02*
X0024366Y0066810D01*
X0024079Y0066800D01*
X0023792Y0066782D01*
X0023505Y0066758D01*
X0023219Y0066727D01*
X0022934Y0066688D01*
X0022650Y0066643D01*
X0022367Y0066591D01*
X0022086Y0066531D01*
X0021806Y0066465D01*
X0021528Y0066393D01*
X0021251Y0066313D01*
X0020977Y0066227D01*
X0020705Y0066134D01*
X0020435Y0066035D01*
X0020167Y0065929D01*
X0019903Y0065816D01*
X0019641Y0065697D01*
X0019382Y0065572D01*
X0019126Y0065440D01*
X0018873Y0065303D01*
X0018624Y0065159D01*
X0018379Y0065009D01*
X0018137Y0064853D01*
X0017899Y0064692D01*
X0017665Y0064524D01*
X0017435Y0064351D01*
X0017210Y0064173D01*
X0016989Y0063989D01*
X0016772Y0063800D01*
X0016560Y0063605D01*
X0016353Y0063405D01*
X0016151Y0063201D01*
X0015954Y0062991D01*
X0015762Y0062777D01*
X0015576Y0062558D01*
X0015394Y0062335D01*
X0015218Y0062107D01*
X0015048Y0061875D01*
X0014884Y0061639D01*
X0014725Y0061400D01*
X0014572Y0061156D01*
X0014425Y0060908D01*
X0014285Y0060658D01*
X0014150Y0060403D01*
X0014022Y0060146D01*
X0013900Y0059886D01*
X0013784Y0059622D01*
X0013675Y0059356D01*
X0013572Y0059088D01*
X0013476Y0058817D01*
X0013386Y0058543D01*
X0013303Y0058268D01*
X0013227Y0057990D01*
X0013158Y0057711D01*
X0013095Y0057431D01*
X0013039Y0057148D01*
X0012991Y0056865D01*
X0012949Y0056580D01*
X0012914Y0056295D01*
X0012886Y0056009D01*
X0012865Y0055722D01*
X0012851Y0055434D01*
X0012844Y0055147D01*
X0012844Y0054859D01*
X0012851Y0054572D01*
X0012865Y0054284D01*
X0012886Y0053997D01*
X0012914Y0053711D01*
X0012949Y0053426D01*
X0012991Y0053141D01*
X0013039Y0052858D01*
X0013095Y0052575D01*
X0013158Y0052295D01*
X0013227Y0052016D01*
X0013303Y0051738D01*
X0013386Y0051463D01*
X0013476Y0051189D01*
X0013572Y0050918D01*
X0013675Y0050650D01*
X0013784Y0050384D01*
X0013900Y0050120D01*
X0014022Y0049860D01*
X0014150Y0049603D01*
X0014285Y0049348D01*
X0014425Y0049097D01*
X0014572Y0048850D01*
X0014725Y0048606D01*
X0014884Y0048367D01*
X0015048Y0048131D01*
X0015218Y0047899D01*
X0015394Y0047671D01*
X0015576Y0047448D01*
X0015762Y0047229D01*
X0015954Y0047015D01*
X0016151Y0046805D01*
X0016353Y0046601D01*
X0016560Y0046401D01*
X0016772Y0046206D01*
X0016989Y0046017D01*
X0017210Y0045833D01*
X0017435Y0045655D01*
X0017665Y0045482D01*
X0017899Y0045314D01*
X0018137Y0045153D01*
X0018379Y0044997D01*
X0018624Y0044847D01*
X0018873Y0044703D01*
X0019126Y0044566D01*
X0019382Y0044434D01*
X0019641Y0044309D01*
X0019903Y0044190D01*
X0020167Y0044077D01*
X0020435Y0043971D01*
X0020705Y0043872D01*
X0020977Y0043779D01*
X0021251Y0043693D01*
X0021528Y0043613D01*
X0021806Y0043541D01*
X0022086Y0043475D01*
X0022367Y0043415D01*
X0022650Y0043363D01*
X0022934Y0043318D01*
X0023219Y0043279D01*
X0023505Y0043248D01*
X0023792Y0043224D01*
X0024079Y0043206D01*
X0024366Y0043196D01*
X0024654Y0043192D01*
X0199850Y0039255D02*
X0207724Y0039255D01*
X0207848Y0039253D01*
X0207971Y0039247D01*
X0208095Y0039238D01*
X0208217Y0039224D01*
X0208340Y0039207D01*
X0208462Y0039185D01*
X0208583Y0039160D01*
X0208703Y0039131D01*
X0208822Y0039099D01*
X0208941Y0039062D01*
X0209058Y0039022D01*
X0209173Y0038979D01*
X0209288Y0038931D01*
X0209400Y0038880D01*
X0209511Y0038826D01*
X0209621Y0038768D01*
X0209728Y0038707D01*
X0209834Y0038642D01*
X0209937Y0038574D01*
X0210038Y0038503D01*
X0210137Y0038429D01*
X0210234Y0038352D01*
X0210328Y0038271D01*
X0210419Y0038188D01*
X0210508Y0038102D01*
X0210594Y0038013D01*
X0210677Y0037922D01*
X0210758Y0037828D01*
X0210835Y0037731D01*
X0210909Y0037632D01*
X0210980Y0037531D01*
X0211048Y0037428D01*
X0211113Y0037322D01*
X0211174Y0037215D01*
X0211232Y0037105D01*
X0211286Y0036994D01*
X0211337Y0036882D01*
X0211385Y0036767D01*
X0211428Y0036652D01*
X0211468Y0036535D01*
X0211505Y0036416D01*
X0211537Y0036297D01*
X0211566Y0036177D01*
X0211591Y0036056D01*
X0211613Y0035934D01*
X0211630Y0035811D01*
X0211644Y0035689D01*
X0211653Y0035565D01*
X0211659Y0035442D01*
X0211661Y0035318D01*
X0211659Y0035194D01*
X0211653Y0035071D01*
X0211644Y0034947D01*
X0211630Y0034825D01*
X0211613Y0034702D01*
X0211591Y0034580D01*
X0211566Y0034459D01*
X0211537Y0034339D01*
X0211505Y0034220D01*
X0211468Y0034101D01*
X0211428Y0033984D01*
X0211385Y0033869D01*
X0211337Y0033754D01*
X0211286Y0033642D01*
X0211232Y0033531D01*
X0211174Y0033421D01*
X0211113Y0033314D01*
X0211048Y0033208D01*
X0210980Y0033105D01*
X0210909Y0033004D01*
X0210835Y0032905D01*
X0210758Y0032808D01*
X0210677Y0032714D01*
X0210594Y0032623D01*
X0210508Y0032534D01*
X0210419Y0032448D01*
X0210328Y0032365D01*
X0210234Y0032284D01*
X0210137Y0032207D01*
X0210038Y0032133D01*
X0209937Y0032062D01*
X0209834Y0031994D01*
X0209728Y0031929D01*
X0209621Y0031868D01*
X0209511Y0031810D01*
X0209400Y0031756D01*
X0209288Y0031705D01*
X0209173Y0031657D01*
X0209058Y0031614D01*
X0208941Y0031574D01*
X0208822Y0031537D01*
X0208703Y0031505D01*
X0208583Y0031476D01*
X0208462Y0031451D01*
X0208340Y0031429D01*
X0208217Y0031412D01*
X0208095Y0031398D01*
X0207971Y0031389D01*
X0207848Y0031383D01*
X0207724Y0031381D01*
X0199850Y0031381D01*
X0199726Y0031383D01*
X0199603Y0031389D01*
X0199479Y0031398D01*
X0199357Y0031412D01*
X0199234Y0031429D01*
X0199112Y0031451D01*
X0198991Y0031476D01*
X0198871Y0031505D01*
X0198752Y0031537D01*
X0198633Y0031574D01*
X0198516Y0031614D01*
X0198401Y0031657D01*
X0198286Y0031705D01*
X0198174Y0031756D01*
X0198063Y0031810D01*
X0197953Y0031868D01*
X0197846Y0031929D01*
X0197740Y0031994D01*
X0197637Y0032062D01*
X0197536Y0032133D01*
X0197437Y0032207D01*
X0197340Y0032284D01*
X0197246Y0032365D01*
X0197155Y0032448D01*
X0197066Y0032534D01*
X0196980Y0032623D01*
X0196897Y0032714D01*
X0196816Y0032808D01*
X0196739Y0032905D01*
X0196665Y0033004D01*
X0196594Y0033105D01*
X0196526Y0033208D01*
X0196461Y0033314D01*
X0196400Y0033421D01*
X0196342Y0033531D01*
X0196288Y0033642D01*
X0196237Y0033754D01*
X0196189Y0033869D01*
X0196146Y0033984D01*
X0196106Y0034101D01*
X0196069Y0034220D01*
X0196037Y0034339D01*
X0196008Y0034459D01*
X0195983Y0034580D01*
X0195961Y0034702D01*
X0195944Y0034825D01*
X0195930Y0034947D01*
X0195921Y0035071D01*
X0195915Y0035194D01*
X0195913Y0035318D01*
X0195915Y0035442D01*
X0195921Y0035565D01*
X0195930Y0035689D01*
X0195944Y0035811D01*
X0195961Y0035934D01*
X0195983Y0036056D01*
X0196008Y0036177D01*
X0196037Y0036297D01*
X0196069Y0036416D01*
X0196106Y0036535D01*
X0196146Y0036652D01*
X0196189Y0036767D01*
X0196237Y0036882D01*
X0196288Y0036994D01*
X0196342Y0037105D01*
X0196400Y0037215D01*
X0196461Y0037322D01*
X0196526Y0037428D01*
X0196594Y0037531D01*
X0196665Y0037632D01*
X0196739Y0037731D01*
X0196816Y0037828D01*
X0196897Y0037922D01*
X0196980Y0038013D01*
X0197066Y0038102D01*
X0197155Y0038188D01*
X0197246Y0038271D01*
X0197340Y0038352D01*
X0197437Y0038429D01*
X0197536Y0038503D01*
X0197637Y0038574D01*
X0197740Y0038642D01*
X0197846Y0038707D01*
X0197953Y0038768D01*
X0198063Y0038826D01*
X0198174Y0038880D01*
X0198286Y0038931D01*
X0198401Y0038979D01*
X0198516Y0039022D01*
X0198633Y0039062D01*
X0198752Y0039099D01*
X0198871Y0039131D01*
X0198991Y0039160D01*
X0199112Y0039185D01*
X0199234Y0039207D01*
X0199357Y0039224D01*
X0199479Y0039238D01*
X0199603Y0039247D01*
X0199726Y0039253D01*
X0199850Y0039255D01*
X0201819Y0043192D02*
X0217567Y0043192D01*
X0217855Y0043196D01*
X0218142Y0043206D01*
X0218429Y0043224D01*
X0218716Y0043248D01*
X0219002Y0043279D01*
X0219287Y0043318D01*
X0219571Y0043363D01*
X0219854Y0043415D01*
X0220135Y0043475D01*
X0220415Y0043541D01*
X0220693Y0043613D01*
X0220970Y0043693D01*
X0221244Y0043779D01*
X0221516Y0043872D01*
X0221786Y0043971D01*
X0222054Y0044077D01*
X0222318Y0044190D01*
X0222580Y0044309D01*
X0222839Y0044434D01*
X0223095Y0044566D01*
X0223348Y0044703D01*
X0223597Y0044847D01*
X0223842Y0044997D01*
X0224084Y0045153D01*
X0224322Y0045314D01*
X0224556Y0045482D01*
X0224786Y0045655D01*
X0225011Y0045833D01*
X0225232Y0046017D01*
X0225449Y0046206D01*
X0225661Y0046401D01*
X0225868Y0046601D01*
X0226070Y0046805D01*
X0226267Y0047015D01*
X0226459Y0047229D01*
X0226645Y0047448D01*
X0226827Y0047671D01*
X0227003Y0047899D01*
X0227173Y0048131D01*
X0227337Y0048367D01*
X0227496Y0048606D01*
X0227649Y0048850D01*
X0227796Y0049098D01*
X0227936Y0049348D01*
X0228071Y0049603D01*
X0228199Y0049860D01*
X0228321Y0050120D01*
X0228437Y0050384D01*
X0228546Y0050650D01*
X0228649Y0050918D01*
X0228745Y0051189D01*
X0228835Y0051463D01*
X0228918Y0051738D01*
X0228994Y0052016D01*
X0229063Y0052295D01*
X0229126Y0052575D01*
X0229182Y0052858D01*
X0229230Y0053141D01*
X0229272Y0053426D01*
X0229307Y0053711D01*
X0229335Y0053997D01*
X0229356Y0054284D01*
X0229370Y0054572D01*
X0229377Y0054859D01*
X0229377Y0055147D01*
X0229370Y0055434D01*
X0229356Y0055722D01*
X0229335Y0056009D01*
X0229307Y0056295D01*
X0229272Y0056580D01*
X0229230Y0056865D01*
X0229182Y0057148D01*
X0229126Y0057431D01*
X0229063Y0057711D01*
X0228994Y0057990D01*
X0228918Y0058268D01*
X0228835Y0058543D01*
X0228745Y0058817D01*
X0228649Y0059088D01*
X0228546Y0059356D01*
X0228437Y0059622D01*
X0228321Y0059886D01*
X0228199Y0060146D01*
X0228071Y0060403D01*
X0227936Y0060658D01*
X0227796Y0060909D01*
X0227649Y0061156D01*
X0227496Y0061400D01*
X0227337Y0061639D01*
X0227173Y0061875D01*
X0227003Y0062107D01*
X0226827Y0062335D01*
X0226645Y0062558D01*
X0226459Y0062777D01*
X0226267Y0062991D01*
X0226070Y0063201D01*
X0225868Y0063405D01*
X0225661Y0063605D01*
X0225449Y0063800D01*
X0225232Y0063989D01*
X0225011Y0064173D01*
X0224786Y0064351D01*
X0224556Y0064524D01*
X0224322Y0064692D01*
X0224084Y0064853D01*
X0223842Y0065009D01*
X0223597Y0065159D01*
X0223348Y0065303D01*
X0223095Y0065440D01*
X0222839Y0065572D01*
X0222580Y0065697D01*
X0222318Y0065816D01*
X0222054Y0065929D01*
X0221786Y0066035D01*
X0221516Y0066134D01*
X0221244Y0066227D01*
X0220970Y0066313D01*
X0220693Y0066393D01*
X0220415Y0066465D01*
X0220135Y0066531D01*
X0219854Y0066591D01*
X0219571Y0066643D01*
X0219287Y0066688D01*
X0219002Y0066727D01*
X0218716Y0066758D01*
X0218429Y0066782D01*
X0218142Y0066800D01*
X0217855Y0066810D01*
X0217567Y0066814D01*
X0201819Y0066814D01*
X0211661Y0070751D02*
X0219535Y0070751D01*
X0219659Y0070753D01*
X0219782Y0070759D01*
X0219906Y0070768D01*
X0220028Y0070782D01*
X0220151Y0070799D01*
X0220273Y0070821D01*
X0220394Y0070846D01*
X0220514Y0070875D01*
X0220633Y0070907D01*
X0220752Y0070944D01*
X0220869Y0070984D01*
X0220984Y0071027D01*
X0221099Y0071075D01*
X0221211Y0071126D01*
X0221322Y0071180D01*
X0221432Y0071238D01*
X0221539Y0071299D01*
X0221645Y0071364D01*
X0221748Y0071432D01*
X0221849Y0071503D01*
X0221948Y0071577D01*
X0222045Y0071654D01*
X0222139Y0071735D01*
X0222230Y0071818D01*
X0222319Y0071904D01*
X0222405Y0071993D01*
X0222488Y0072084D01*
X0222569Y0072178D01*
X0222646Y0072275D01*
X0222720Y0072374D01*
X0222791Y0072475D01*
X0222859Y0072578D01*
X0222924Y0072684D01*
X0222985Y0072791D01*
X0223043Y0072901D01*
X0223097Y0073012D01*
X0223148Y0073124D01*
X0223196Y0073239D01*
X0223239Y0073354D01*
X0223279Y0073471D01*
X0223316Y0073590D01*
X0223348Y0073709D01*
X0223377Y0073829D01*
X0223402Y0073950D01*
X0223424Y0074072D01*
X0223441Y0074195D01*
X0223455Y0074317D01*
X0223464Y0074441D01*
X0223470Y0074564D01*
X0223472Y0074688D01*
X0223470Y0074812D01*
X0223464Y0074935D01*
X0223455Y0075059D01*
X0223441Y0075181D01*
X0223424Y0075304D01*
X0223402Y0075426D01*
X0223377Y0075547D01*
X0223348Y0075667D01*
X0223316Y0075786D01*
X0223279Y0075905D01*
X0223239Y0076022D01*
X0223196Y0076137D01*
X0223148Y0076252D01*
X0223097Y0076364D01*
X0223043Y0076475D01*
X0222985Y0076585D01*
X0222924Y0076692D01*
X0222859Y0076798D01*
X0222791Y0076901D01*
X0222720Y0077002D01*
X0222646Y0077101D01*
X0222569Y0077198D01*
X0222488Y0077292D01*
X0222405Y0077383D01*
X0222319Y0077472D01*
X0222230Y0077558D01*
X0222139Y0077641D01*
X0222045Y0077722D01*
X0221948Y0077799D01*
X0221849Y0077873D01*
X0221748Y0077944D01*
X0221645Y0078012D01*
X0221539Y0078077D01*
X0221432Y0078138D01*
X0221322Y0078196D01*
X0221211Y0078250D01*
X0221099Y0078301D01*
X0220984Y0078349D01*
X0220869Y0078392D01*
X0220752Y0078432D01*
X0220633Y0078469D01*
X0220514Y0078501D01*
X0220394Y0078530D01*
X0220273Y0078555D01*
X0220151Y0078577D01*
X0220028Y0078594D01*
X0219906Y0078608D01*
X0219782Y0078617D01*
X0219659Y0078623D01*
X0219535Y0078625D01*
X0211661Y0078625D01*
X0211537Y0078623D01*
X0211414Y0078617D01*
X0211290Y0078608D01*
X0211168Y0078594D01*
X0211045Y0078577D01*
X0210923Y0078555D01*
X0210802Y0078530D01*
X0210682Y0078501D01*
X0210563Y0078469D01*
X0210444Y0078432D01*
X0210327Y0078392D01*
X0210212Y0078349D01*
X0210097Y0078301D01*
X0209985Y0078250D01*
X0209874Y0078196D01*
X0209764Y0078138D01*
X0209657Y0078077D01*
X0209551Y0078012D01*
X0209448Y0077944D01*
X0209347Y0077873D01*
X0209248Y0077799D01*
X0209151Y0077722D01*
X0209057Y0077641D01*
X0208966Y0077558D01*
X0208877Y0077472D01*
X0208791Y0077383D01*
X0208708Y0077292D01*
X0208627Y0077198D01*
X0208550Y0077101D01*
X0208476Y0077002D01*
X0208405Y0076901D01*
X0208337Y0076798D01*
X0208272Y0076692D01*
X0208211Y0076585D01*
X0208153Y0076475D01*
X0208099Y0076364D01*
X0208048Y0076252D01*
X0208000Y0076137D01*
X0207957Y0076022D01*
X0207917Y0075905D01*
X0207880Y0075786D01*
X0207848Y0075667D01*
X0207819Y0075547D01*
X0207794Y0075426D01*
X0207772Y0075304D01*
X0207755Y0075181D01*
X0207741Y0075059D01*
X0207732Y0074935D01*
X0207726Y0074812D01*
X0207724Y0074688D01*
X0207726Y0074564D01*
X0207732Y0074441D01*
X0207741Y0074317D01*
X0207755Y0074195D01*
X0207772Y0074072D01*
X0207794Y0073950D01*
X0207819Y0073829D01*
X0207848Y0073709D01*
X0207880Y0073590D01*
X0207917Y0073471D01*
X0207957Y0073354D01*
X0208000Y0073239D01*
X0208048Y0073124D01*
X0208099Y0073012D01*
X0208153Y0072901D01*
X0208211Y0072791D01*
X0208272Y0072684D01*
X0208337Y0072578D01*
X0208405Y0072475D01*
X0208476Y0072374D01*
X0208550Y0072275D01*
X0208627Y0072178D01*
X0208708Y0072084D01*
X0208791Y0071993D01*
X0208877Y0071904D01*
X0208966Y0071818D01*
X0209057Y0071735D01*
X0209151Y0071654D01*
X0209248Y0071577D01*
X0209347Y0071503D01*
X0209448Y0071432D01*
X0209551Y0071364D01*
X0209657Y0071299D01*
X0209764Y0071238D01*
X0209874Y0071180D01*
X0209985Y0071126D01*
X0210097Y0071075D01*
X0210212Y0071027D01*
X0210327Y0070984D01*
X0210444Y0070944D01*
X0210563Y0070907D01*
X0210682Y0070875D01*
X0210802Y0070846D01*
X0210923Y0070821D01*
X0211045Y0070799D01*
X0211168Y0070782D01*
X0211290Y0070768D01*
X0211414Y0070759D01*
X0211537Y0070753D01*
X0211661Y0070751D01*
X0201819Y0066814D02*
X0201531Y0066810D01*
X0201244Y0066800D01*
X0200957Y0066782D01*
X0200670Y0066758D01*
X0200384Y0066727D01*
X0200099Y0066688D01*
X0199815Y0066643D01*
X0199532Y0066591D01*
X0199251Y0066531D01*
X0198971Y0066465D01*
X0198693Y0066393D01*
X0198416Y0066313D01*
X0198142Y0066227D01*
X0197870Y0066134D01*
X0197600Y0066035D01*
X0197332Y0065929D01*
X0197068Y0065816D01*
X0196806Y0065697D01*
X0196547Y0065572D01*
X0196291Y0065440D01*
X0196038Y0065303D01*
X0195789Y0065159D01*
X0195544Y0065009D01*
X0195302Y0064853D01*
X0195064Y0064692D01*
X0194830Y0064524D01*
X0194600Y0064351D01*
X0194375Y0064173D01*
X0194154Y0063989D01*
X0193937Y0063800D01*
X0193725Y0063605D01*
X0193518Y0063405D01*
X0193316Y0063201D01*
X0193119Y0062991D01*
X0192927Y0062777D01*
X0192741Y0062558D01*
X0192559Y0062335D01*
X0192383Y0062107D01*
X0192213Y0061875D01*
X0192049Y0061639D01*
X0191890Y0061400D01*
X0191737Y0061156D01*
X0191590Y0060908D01*
X0191450Y0060658D01*
X0191315Y0060403D01*
X0191187Y0060146D01*
X0191065Y0059886D01*
X0190949Y0059622D01*
X0190840Y0059356D01*
X0190737Y0059088D01*
X0190641Y0058817D01*
X0190551Y0058543D01*
X0190468Y0058268D01*
X0190392Y0057990D01*
X0190323Y0057711D01*
X0190260Y0057431D01*
X0190204Y0057148D01*
X0190156Y0056865D01*
X0190114Y0056580D01*
X0190079Y0056295D01*
X0190051Y0056009D01*
X0190030Y0055722D01*
X0190016Y0055434D01*
X0190009Y0055147D01*
X0190009Y0054859D01*
X0190016Y0054572D01*
X0190030Y0054284D01*
X0190051Y0053997D01*
X0190079Y0053711D01*
X0190114Y0053426D01*
X0190156Y0053141D01*
X0190204Y0052858D01*
X0190260Y0052575D01*
X0190323Y0052295D01*
X0190392Y0052016D01*
X0190468Y0051738D01*
X0190551Y0051463D01*
X0190641Y0051189D01*
X0190737Y0050918D01*
X0190840Y0050650D01*
X0190949Y0050384D01*
X0191065Y0050120D01*
X0191187Y0049860D01*
X0191315Y0049603D01*
X0191450Y0049348D01*
X0191590Y0049097D01*
X0191737Y0048850D01*
X0191890Y0048606D01*
X0192049Y0048367D01*
X0192213Y0048131D01*
X0192383Y0047899D01*
X0192559Y0047671D01*
X0192741Y0047448D01*
X0192927Y0047229D01*
X0193119Y0047015D01*
X0193316Y0046805D01*
X0193518Y0046601D01*
X0193725Y0046401D01*
X0193937Y0046206D01*
X0194154Y0046017D01*
X0194375Y0045833D01*
X0194600Y0045655D01*
X0194830Y0045482D01*
X0195064Y0045314D01*
X0195302Y0045153D01*
X0195544Y0044997D01*
X0195789Y0044847D01*
X0196038Y0044703D01*
X0196291Y0044566D01*
X0196547Y0044434D01*
X0196806Y0044309D01*
X0197068Y0044190D01*
X0197332Y0044077D01*
X0197600Y0043971D01*
X0197870Y0043872D01*
X0198142Y0043779D01*
X0198416Y0043693D01*
X0198693Y0043613D01*
X0198971Y0043541D01*
X0199251Y0043475D01*
X0199532Y0043415D01*
X0199815Y0043363D01*
X0200099Y0043318D01*
X0200384Y0043279D01*
X0200670Y0043248D01*
X0200957Y0043224D01*
X0201244Y0043206D01*
X0201531Y0043196D01*
X0201819Y0043192D01*
D11*
X0154887Y0061801D02*
X0154887Y0065929D01*
X0152823Y0065929D01*
X0152135Y0065241D01*
X0152135Y0063865D01*
X0152823Y0063177D01*
X0154887Y0063177D01*
X0156485Y0063865D02*
X0156485Y0066617D01*
X0157173Y0067305D01*
X0158549Y0067305D01*
X0159237Y0066617D01*
X0159237Y0063865D01*
X0158549Y0063177D01*
X0157173Y0063177D01*
X0156485Y0063865D01*
X0160761Y0063177D02*
X0162137Y0063177D01*
X0162137Y0067305D01*
X0160761Y0067305D01*
X0161086Y0070263D02*
X0161086Y0073015D01*
X0161774Y0073015D01*
X0161086Y0074391D02*
X0161086Y0075079D01*
X0158874Y0073015D02*
X0157498Y0073015D01*
X0158186Y0073703D02*
X0158186Y0070951D01*
X0157498Y0070263D01*
X0155974Y0070263D02*
X0155974Y0074391D01*
X0153222Y0070263D01*
X0153222Y0074391D01*
X0151624Y0072327D02*
X0150936Y0073015D01*
X0149560Y0073015D01*
X0148872Y0072327D01*
X0148872Y0071639D01*
X0151624Y0071639D01*
X0151624Y0070951D02*
X0151624Y0072327D01*
X0151624Y0070951D02*
X0150936Y0070263D01*
X0149560Y0070263D01*
X0147274Y0070263D02*
X0147274Y0073015D01*
X0147274Y0071639D02*
X0145898Y0073015D01*
X0145210Y0073015D01*
X0143649Y0072327D02*
X0142273Y0072327D01*
X0142961Y0073703D02*
X0142273Y0074391D01*
X0142961Y0073703D02*
X0142961Y0070263D01*
X0146948Y0067993D02*
X0146948Y0067305D01*
X0146948Y0065929D02*
X0146948Y0063177D01*
X0147636Y0063177D02*
X0146260Y0063177D01*
X0144736Y0063865D02*
X0144048Y0063177D01*
X0142672Y0063177D01*
X0141984Y0063865D01*
X0141984Y0065241D01*
X0142672Y0065929D01*
X0144048Y0065929D01*
X0144736Y0065241D01*
X0144736Y0063865D01*
X0149160Y0063177D02*
X0149848Y0063865D01*
X0149848Y0066617D01*
X0150536Y0065929D02*
X0149160Y0065929D01*
X0147636Y0065929D02*
X0146948Y0065929D01*
X0140386Y0065929D02*
X0140386Y0063177D01*
X0137634Y0063177D02*
X0137634Y0065241D01*
X0138322Y0065929D01*
X0140386Y0065929D01*
X0136036Y0063865D02*
X0135348Y0064553D01*
X0133284Y0064553D01*
X0133284Y0065241D02*
X0133284Y0063177D01*
X0135348Y0063177D01*
X0136036Y0063865D01*
X0133972Y0065929D02*
X0133284Y0065241D01*
X0133972Y0065929D02*
X0135348Y0065929D01*
X0131686Y0067305D02*
X0130998Y0067305D01*
X0130998Y0063177D01*
X0131686Y0063177D02*
X0130310Y0063177D01*
X0124435Y0063865D02*
X0124435Y0066617D01*
X0123747Y0067305D01*
X0122371Y0067305D01*
X0121683Y0066617D01*
X0120085Y0065241D02*
X0120085Y0063865D01*
X0119397Y0063177D01*
X0118021Y0063177D01*
X0117333Y0063865D01*
X0117333Y0065241D01*
X0118021Y0065929D01*
X0119397Y0065929D01*
X0120085Y0065241D01*
X0115735Y0065929D02*
X0115047Y0065929D01*
X0114359Y0065241D01*
X0113671Y0065929D01*
X0112983Y0065241D01*
X0112983Y0063177D01*
X0114359Y0063177D02*
X0114359Y0065241D01*
X0115735Y0065929D02*
X0115735Y0063177D01*
X0111385Y0063177D02*
X0109321Y0063177D01*
X0108633Y0063865D01*
X0108633Y0065241D01*
X0109321Y0065929D01*
X0111385Y0065929D01*
X0111385Y0061801D01*
X0107035Y0063865D02*
X0106347Y0063177D01*
X0104971Y0063177D01*
X0104283Y0063865D01*
X0104283Y0065241D01*
X0104971Y0065929D01*
X0106347Y0065929D01*
X0107035Y0065241D01*
X0107035Y0063865D01*
X0102685Y0063177D02*
X0102685Y0065929D01*
X0100621Y0065929D01*
X0099933Y0065241D01*
X0099933Y0063177D01*
X0098334Y0063865D02*
X0098334Y0065241D01*
X0097646Y0065929D01*
X0096270Y0065929D01*
X0095582Y0065241D01*
X0095582Y0064553D01*
X0098334Y0064553D01*
X0098334Y0063865D02*
X0097646Y0063177D01*
X0096270Y0063177D01*
X0093984Y0063177D02*
X0093984Y0065929D01*
X0091920Y0065929D01*
X0091232Y0065241D01*
X0091232Y0063177D01*
X0088946Y0063865D02*
X0088258Y0063177D01*
X0088946Y0063865D02*
X0088946Y0066617D01*
X0089634Y0065929D02*
X0088258Y0065929D01*
X0086734Y0065241D02*
X0086046Y0065929D01*
X0083982Y0065929D01*
X0082384Y0067305D02*
X0081008Y0067305D01*
X0081008Y0063177D01*
X0082384Y0063177D01*
X0083982Y0063865D02*
X0084670Y0064553D01*
X0086046Y0064553D01*
X0086734Y0065241D01*
X0086734Y0063177D02*
X0084670Y0063177D01*
X0083982Y0063865D01*
X0085720Y0070263D02*
X0084345Y0073015D01*
X0082746Y0073703D02*
X0082058Y0074391D01*
X0080682Y0074391D01*
X0079994Y0073703D01*
X0082746Y0070951D01*
X0082058Y0070263D01*
X0080682Y0070263D01*
X0079994Y0070951D01*
X0079994Y0073703D01*
X0082746Y0073703D02*
X0082746Y0070951D01*
X0085720Y0070263D02*
X0087096Y0073015D01*
X0093045Y0073015D02*
X0095109Y0073015D01*
X0095797Y0072327D01*
X0095797Y0070951D01*
X0095109Y0070263D01*
X0093045Y0070263D01*
X0093045Y0074391D01*
X0097358Y0073015D02*
X0098046Y0073015D01*
X0099422Y0071639D01*
X0099422Y0070263D02*
X0099422Y0073015D01*
X0101020Y0072327D02*
X0101020Y0070263D01*
X0103084Y0070263D01*
X0103772Y0070951D01*
X0103084Y0071639D01*
X0101020Y0071639D01*
X0101020Y0072327D02*
X0101708Y0073015D01*
X0103084Y0073015D01*
X0105370Y0072327D02*
X0106058Y0073015D01*
X0107434Y0073015D01*
X0108122Y0072327D01*
X0108122Y0070951D01*
X0107434Y0070263D01*
X0106058Y0070263D01*
X0105370Y0070951D01*
X0105370Y0072327D01*
X0109721Y0071639D02*
X0109721Y0070951D01*
X0110409Y0070263D01*
X0112472Y0070263D01*
X0112472Y0074391D01*
X0110409Y0074391D01*
X0109721Y0073703D01*
X0109721Y0073015D01*
X0110409Y0072327D01*
X0112472Y0072327D01*
X0110409Y0072327D02*
X0109721Y0071639D01*
X0118384Y0073015D02*
X0119072Y0073015D01*
X0120448Y0071639D01*
X0120448Y0070263D02*
X0120448Y0073015D01*
X0122046Y0072327D02*
X0122734Y0073015D01*
X0124110Y0073015D01*
X0124798Y0072327D01*
X0124798Y0070951D01*
X0124110Y0070263D01*
X0122734Y0070263D01*
X0122046Y0070951D01*
X0122046Y0072327D01*
X0126322Y0073015D02*
X0127698Y0073015D01*
X0127010Y0073703D02*
X0127010Y0070951D01*
X0126322Y0070263D01*
X0129296Y0070951D02*
X0129296Y0072327D01*
X0129984Y0073015D01*
X0131360Y0073015D01*
X0132048Y0072327D01*
X0132048Y0070951D01*
X0131360Y0070263D01*
X0129984Y0070263D01*
X0129296Y0070951D01*
X0133646Y0070263D02*
X0133646Y0074391D01*
X0135022Y0073015D01*
X0136398Y0074391D01*
X0136398Y0070263D01*
X0124435Y0063865D02*
X0123747Y0063177D01*
X0122371Y0063177D01*
X0121683Y0063865D01*
X0160398Y0070263D02*
X0161774Y0070263D01*
X0164024Y0073015D02*
X0165400Y0071639D01*
X0165400Y0070263D02*
X0165400Y0073015D01*
X0164024Y0073015D02*
X0163336Y0073015D01*
X0166998Y0073015D02*
X0167686Y0072327D01*
X0169750Y0072327D01*
X0167686Y0072327D02*
X0166998Y0071639D01*
X0166998Y0070951D01*
X0167686Y0070263D01*
X0169750Y0070263D01*
X0169750Y0074391D01*
X0167686Y0074391D01*
X0166998Y0073703D01*
X0166998Y0073015D01*
X0078396Y0070951D02*
X0078396Y0070263D01*
X0077708Y0070263D01*
X0077708Y0070951D01*
X0078396Y0070951D01*
X0076221Y0070263D02*
X0073469Y0070263D01*
X0074845Y0070263D02*
X0074845Y0074391D01*
X0076221Y0073015D01*
M02*
