G75*
%MOIN*%
%OFA0B0*%
%FSLAX25Y25*%
%IPPOS*%
%LPD*%
%AMOC8*
5,1,8,0,0,1.08239X$1,22.5*
%
%ADD10C,0.00000*%
%ADD11C,0.00500*%
%ADD12C,0.00600*%
%ADD13C,0.00300*%
%ADD14C,0.01200*%
%ADD15R,0.00315X0.00039*%
%ADD16R,0.00394X0.00039*%
%ADD17R,0.00433X0.00039*%
%ADD18R,0.00472X0.00039*%
%ADD19R,0.00551X0.00039*%
%ADD20R,0.00709X0.00039*%
%ADD21R,0.00669X0.00039*%
%ADD22R,0.00748X0.00039*%
%ADD23R,0.00512X0.00039*%
%ADD24R,0.01142X0.00039*%
%ADD25R,0.00866X0.00039*%
%ADD26R,0.00906X0.00039*%
%ADD27R,0.01220X0.00039*%
%ADD28R,0.00945X0.00039*%
%ADD29R,0.00787X0.00039*%
%ADD30R,0.01024X0.00039*%
%ADD31R,0.01260X0.00039*%
%ADD32R,0.01102X0.00039*%
%ADD33R,0.01299X0.00039*%
%ADD34R,0.01063X0.00039*%
%ADD35R,0.01339X0.00039*%
%ADD36R,0.00591X0.00039*%
%ADD37R,0.01181X0.00039*%
%ADD38R,0.00827X0.00039*%
%ADD39R,0.01378X0.00039*%
%ADD40R,0.00630X0.00039*%
%ADD41R,0.00118X0.00039*%
%ADD42R,0.00197X0.00039*%
%ADD43R,0.00079X0.00039*%
%ADD44R,0.00354X0.00039*%
%ADD45R,0.00984X0.00039*%
%ADD46R,0.00157X0.00039*%
%ADD47R,0.01417X0.00039*%
%ADD48R,0.00276X0.00039*%
%ADD49R,0.04921X0.00039*%
%ADD50R,0.02441X0.00039*%
%ADD51R,0.02913X0.00039*%
%ADD52R,0.04449X0.00039*%
%ADD53R,0.05433X0.00039*%
%ADD54R,0.03307X0.00039*%
%ADD55R,0.03701X0.00039*%
%ADD56R,0.04961X0.00039*%
%ADD57R,0.05709X0.00039*%
%ADD58R,0.04173X0.00039*%
%ADD59R,0.05197X0.00039*%
%ADD60R,0.05906X0.00039*%
%ADD61R,0.04094X0.00039*%
%ADD62R,0.04488X0.00039*%
%ADD63R,0.05394X0.00039*%
%ADD64R,0.06063X0.00039*%
%ADD65R,0.04331X0.00039*%
%ADD66R,0.04764X0.00039*%
%ADD67R,0.05512X0.00039*%
%ADD68R,0.06181X0.00039*%
%ADD69R,0.04567X0.00039*%
%ADD70R,0.05630X0.00039*%
%ADD71R,0.06260X0.00039*%
%ADD72R,0.04724X0.00039*%
%ADD73R,0.05118X0.00039*%
%ADD74R,0.05748X0.00039*%
%ADD75R,0.06339X0.00039*%
%ADD76R,0.04882X0.00039*%
%ADD77R,0.05315X0.00039*%
%ADD78R,0.05827X0.00039*%
%ADD79R,0.06417X0.00039*%
%ADD80R,0.05039X0.00039*%
%ADD81R,0.06496X0.00039*%
%ADD82R,0.05591X0.00039*%
%ADD83R,0.05945X0.00039*%
%ADD84R,0.06535X0.00039*%
%ADD85R,0.05276X0.00039*%
%ADD86R,0.05669X0.00039*%
%ADD87R,0.06024X0.00039*%
%ADD88R,0.06614X0.00039*%
%ADD89R,0.05354X0.00039*%
%ADD90R,0.05787X0.00039*%
%ADD91R,0.06654X0.00039*%
%ADD92R,0.05866X0.00039*%
%ADD93R,0.06102X0.00039*%
%ADD94R,0.06693X0.00039*%
%ADD95R,0.05984X0.00039*%
%ADD96R,0.06142X0.00039*%
%ADD97R,0.06732X0.00039*%
%ADD98R,0.06772X0.00039*%
%ADD99R,0.06811X0.00039*%
%ADD100R,0.06220X0.00039*%
%ADD101R,0.06850X0.00039*%
%ADD102R,0.06890X0.00039*%
%ADD103R,0.06299X0.00039*%
%ADD104R,0.01732X0.00039*%
%ADD105R,0.01693X0.00039*%
%ADD106R,0.01850X0.00039*%
%ADD107R,0.01535X0.00039*%
%ADD108R,0.01496X0.00039*%
%ADD109R,0.01457X0.00039*%
%ADD110R,0.01654X0.00039*%
%ADD111R,0.06378X0.00039*%
%ADD112R,0.06575X0.00039*%
%ADD113R,0.06457X0.00039*%
%ADD114R,0.01772X0.00039*%
%ADD115R,0.02717X0.00039*%
%ADD116R,0.02992X0.00039*%
%ADD117R,0.02795X0.00039*%
%ADD118R,0.03071X0.00039*%
%ADD119R,0.02835X0.00039*%
%ADD120R,0.03031X0.00039*%
%ADD121R,0.02874X0.00039*%
%ADD122R,0.02953X0.00039*%
%ADD123R,0.02756X0.00039*%
%ADD124R,0.02677X0.00039*%
%ADD125R,0.02638X0.00039*%
%ADD126R,0.02520X0.00039*%
%ADD127R,0.02362X0.00039*%
%ADD128R,0.02205X0.00039*%
%ADD129R,0.02008X0.00039*%
%ADD130R,0.05157X0.00039*%
%ADD131R,0.02480X0.00039*%
%ADD132R,0.01811X0.00039*%
%ADD133R,0.02598X0.00039*%
%ADD134R,0.02559X0.00039*%
%ADD135R,0.02402X0.00039*%
%ADD136R,0.02283X0.00039*%
%ADD137R,0.02087X0.00039*%
%ADD138R,0.01890X0.00039*%
%ADD139C,0.00800*%
%ADD140R,0.02000X0.10000*%
%ADD141R,0.07500X0.03000*%
D10*
X0001727Y0011499D02*
X0001727Y0011538D01*
X0001754Y0011564D01*
X0001754Y0011577D01*
X0001773Y0011551D02*
X0001773Y0011538D01*
X0001787Y0011538D01*
X0001787Y0011551D01*
X0001773Y0011551D01*
X0001773Y0011512D02*
X0001773Y0011499D01*
X0001787Y0011499D01*
X0001787Y0011512D01*
X0001773Y0011512D01*
X0001810Y0011499D02*
X0001862Y0011577D01*
X0001882Y0011577D02*
X0001922Y0011577D01*
X0001935Y0011564D01*
X0001935Y0011551D01*
X0001922Y0011538D01*
X0001882Y0011538D01*
X0001882Y0011499D02*
X0001922Y0011499D01*
X0001935Y0011512D01*
X0001935Y0011525D01*
X0001922Y0011538D01*
X0001955Y0011538D02*
X0001955Y0011512D01*
X0001968Y0011499D01*
X0001994Y0011499D01*
X0002007Y0011512D01*
X0002007Y0011538D01*
X0001994Y0011551D01*
X0001968Y0011551D01*
X0001955Y0011538D01*
X0002027Y0011538D02*
X0002054Y0011538D01*
X0002076Y0011538D02*
X0002102Y0011538D01*
X0002089Y0011564D02*
X0002102Y0011577D01*
X0002089Y0011564D02*
X0002089Y0011499D01*
X0002040Y0011499D02*
X0002040Y0011564D01*
X0002054Y0011577D01*
X0002124Y0011577D02*
X0002176Y0011577D01*
X0002150Y0011577D02*
X0002150Y0011499D01*
X0002196Y0011512D02*
X0002210Y0011525D01*
X0002249Y0011525D01*
X0002249Y0011538D02*
X0002249Y0011499D01*
X0002210Y0011499D01*
X0002196Y0011512D01*
X0002210Y0011551D02*
X0002236Y0011551D01*
X0002249Y0011538D01*
X0002269Y0011538D02*
X0002269Y0011512D01*
X0002282Y0011499D01*
X0002321Y0011499D01*
X0002341Y0011499D02*
X0002394Y0011577D01*
X0002414Y0011577D02*
X0002414Y0011499D01*
X0002466Y0011499D01*
X0002486Y0011512D02*
X0002500Y0011499D01*
X0002526Y0011499D01*
X0002539Y0011512D01*
X0002539Y0011538D01*
X0002526Y0011551D01*
X0002500Y0011551D01*
X0002486Y0011538D01*
X0002486Y0011512D01*
X0002559Y0011512D02*
X0002572Y0011499D01*
X0002611Y0011499D01*
X0002611Y0011486D02*
X0002611Y0011551D01*
X0002572Y0011551D01*
X0002559Y0011538D01*
X0002559Y0011512D01*
X0002585Y0011472D02*
X0002598Y0011472D01*
X0002611Y0011486D01*
X0002631Y0011512D02*
X0002645Y0011499D01*
X0002671Y0011499D01*
X0002684Y0011512D01*
X0002684Y0011538D01*
X0002671Y0011551D01*
X0002645Y0011551D01*
X0002631Y0011538D01*
X0002631Y0011512D01*
X0002704Y0011499D02*
X0002756Y0011577D01*
X0002776Y0011551D02*
X0002790Y0011551D01*
X0002803Y0011538D01*
X0002816Y0011551D01*
X0002829Y0011538D01*
X0002829Y0011499D01*
X0002849Y0011512D02*
X0002862Y0011499D01*
X0002888Y0011499D01*
X0002901Y0011512D01*
X0002901Y0011538D01*
X0002888Y0011551D01*
X0002862Y0011551D01*
X0002849Y0011538D01*
X0002849Y0011512D01*
X0002803Y0011499D02*
X0002803Y0011538D01*
X0002776Y0011551D02*
X0002776Y0011499D01*
X0002921Y0011499D02*
X0002921Y0011551D01*
X0002961Y0011551D01*
X0002974Y0011538D01*
X0002974Y0011499D01*
X0002994Y0011512D02*
X0003007Y0011499D01*
X0003033Y0011499D01*
X0003046Y0011512D01*
X0003046Y0011538D01*
X0003033Y0011551D01*
X0003007Y0011551D01*
X0002994Y0011538D01*
X0002994Y0011512D01*
X0003066Y0011499D02*
X0003093Y0011499D01*
X0003080Y0011499D02*
X0003080Y0011577D01*
X0003066Y0011577D01*
X0003115Y0011538D02*
X0003115Y0011512D01*
X0003128Y0011499D01*
X0003154Y0011499D01*
X0003167Y0011512D01*
X0003167Y0011538D01*
X0003154Y0011551D01*
X0003128Y0011551D01*
X0003115Y0011538D01*
X0003187Y0011538D02*
X0003187Y0011512D01*
X0003200Y0011499D01*
X0003240Y0011499D01*
X0003240Y0011486D02*
X0003240Y0011551D01*
X0003200Y0011551D01*
X0003187Y0011538D01*
X0003214Y0011472D02*
X0003227Y0011472D01*
X0003240Y0011486D01*
X0003260Y0011512D02*
X0003273Y0011499D01*
X0003299Y0011499D01*
X0003312Y0011512D01*
X0003312Y0011538D01*
X0003299Y0011551D01*
X0003273Y0011551D01*
X0003260Y0011538D01*
X0003260Y0011512D01*
X0003332Y0011538D02*
X0003385Y0011538D01*
X0003405Y0011551D02*
X0003405Y0011512D01*
X0003418Y0011499D01*
X0003431Y0011512D01*
X0003444Y0011499D01*
X0003457Y0011512D01*
X0003457Y0011551D01*
X0003477Y0011538D02*
X0003530Y0011538D01*
X0003550Y0011512D02*
X0003563Y0011525D01*
X0003602Y0011525D01*
X0003602Y0011538D02*
X0003602Y0011499D01*
X0003563Y0011499D01*
X0003550Y0011512D01*
X0003563Y0011551D02*
X0003589Y0011551D01*
X0003602Y0011538D01*
X0003622Y0011538D02*
X0003635Y0011551D01*
X0003675Y0011551D01*
X0003695Y0011538D02*
X0003708Y0011551D01*
X0003747Y0011551D01*
X0003767Y0011551D02*
X0003767Y0011499D01*
X0003747Y0011499D02*
X0003708Y0011499D01*
X0003695Y0011512D01*
X0003695Y0011538D01*
X0003675Y0011499D02*
X0003635Y0011499D01*
X0003622Y0011512D01*
X0003622Y0011538D01*
X0003675Y0011577D02*
X0003675Y0011499D01*
X0003747Y0011499D02*
X0003747Y0011577D01*
X0003794Y0011551D02*
X0003807Y0011551D01*
X0003794Y0011551D02*
X0003767Y0011525D01*
X0003828Y0011525D02*
X0003880Y0011525D01*
X0003880Y0011538D01*
X0003867Y0011551D01*
X0003841Y0011551D01*
X0003828Y0011538D01*
X0003828Y0011512D01*
X0003841Y0011499D01*
X0003867Y0011499D01*
X0003900Y0011499D02*
X0003940Y0011499D01*
X0003953Y0011512D01*
X0003940Y0011525D01*
X0003913Y0011525D01*
X0003900Y0011538D01*
X0003913Y0011551D01*
X0003953Y0011551D01*
X0003973Y0011538D02*
X0003986Y0011551D01*
X0004025Y0011551D01*
X0004012Y0011525D02*
X0003986Y0011525D01*
X0003973Y0011538D01*
X0003973Y0011499D02*
X0004012Y0011499D01*
X0004025Y0011512D01*
X0004012Y0011525D01*
X0004045Y0011512D02*
X0004058Y0011512D01*
X0004058Y0011499D01*
X0004045Y0011499D01*
X0004045Y0011512D01*
X0004081Y0011499D02*
X0004121Y0011499D01*
X0004134Y0011512D01*
X0004134Y0011538D01*
X0004121Y0011551D01*
X0004081Y0011551D01*
X0004081Y0011577D02*
X0004081Y0011499D01*
X0004154Y0011499D02*
X0004154Y0011551D01*
X0004167Y0011551D01*
X0004180Y0011538D01*
X0004193Y0011551D01*
X0004206Y0011538D01*
X0004206Y0011499D01*
X0004226Y0011499D02*
X0004266Y0011499D01*
X0004279Y0011512D01*
X0004279Y0011538D01*
X0004266Y0011551D01*
X0004226Y0011551D01*
X0004226Y0011472D01*
X0004180Y0011499D02*
X0004180Y0011538D01*
X0003000Y0011696D02*
X0003000Y0098310D01*
X0239220Y0098310D01*
X0239220Y0011696D01*
X0003000Y0011696D01*
X0002321Y0011551D02*
X0002282Y0011551D01*
X0002269Y0011538D01*
X0001882Y0011499D02*
X0001882Y0011577D01*
X0001727Y0011538D02*
X0001701Y0011564D01*
X0001701Y0011577D01*
X0022685Y0031381D02*
X0030559Y0031381D01*
X0030683Y0031383D01*
X0030806Y0031389D01*
X0030930Y0031398D01*
X0031052Y0031412D01*
X0031175Y0031429D01*
X0031297Y0031451D01*
X0031418Y0031476D01*
X0031538Y0031505D01*
X0031657Y0031537D01*
X0031776Y0031574D01*
X0031893Y0031614D01*
X0032008Y0031657D01*
X0032123Y0031705D01*
X0032235Y0031756D01*
X0032346Y0031810D01*
X0032456Y0031868D01*
X0032563Y0031929D01*
X0032669Y0031994D01*
X0032772Y0032062D01*
X0032873Y0032133D01*
X0032972Y0032207D01*
X0033069Y0032284D01*
X0033163Y0032365D01*
X0033254Y0032448D01*
X0033343Y0032534D01*
X0033429Y0032623D01*
X0033512Y0032714D01*
X0033593Y0032808D01*
X0033670Y0032905D01*
X0033744Y0033004D01*
X0033815Y0033105D01*
X0033883Y0033208D01*
X0033948Y0033314D01*
X0034009Y0033421D01*
X0034067Y0033531D01*
X0034121Y0033642D01*
X0034172Y0033754D01*
X0034220Y0033869D01*
X0034263Y0033984D01*
X0034303Y0034101D01*
X0034340Y0034220D01*
X0034372Y0034339D01*
X0034401Y0034459D01*
X0034426Y0034580D01*
X0034448Y0034702D01*
X0034465Y0034825D01*
X0034479Y0034947D01*
X0034488Y0035071D01*
X0034494Y0035194D01*
X0034496Y0035318D01*
X0034494Y0035442D01*
X0034488Y0035565D01*
X0034479Y0035689D01*
X0034465Y0035811D01*
X0034448Y0035934D01*
X0034426Y0036056D01*
X0034401Y0036177D01*
X0034372Y0036297D01*
X0034340Y0036416D01*
X0034303Y0036535D01*
X0034263Y0036652D01*
X0034220Y0036767D01*
X0034172Y0036882D01*
X0034121Y0036994D01*
X0034067Y0037105D01*
X0034009Y0037215D01*
X0033948Y0037322D01*
X0033883Y0037428D01*
X0033815Y0037531D01*
X0033744Y0037632D01*
X0033670Y0037731D01*
X0033593Y0037828D01*
X0033512Y0037922D01*
X0033429Y0038013D01*
X0033343Y0038102D01*
X0033254Y0038188D01*
X0033163Y0038271D01*
X0033069Y0038352D01*
X0032972Y0038429D01*
X0032873Y0038503D01*
X0032772Y0038574D01*
X0032669Y0038642D01*
X0032563Y0038707D01*
X0032456Y0038768D01*
X0032346Y0038826D01*
X0032235Y0038880D01*
X0032123Y0038931D01*
X0032008Y0038979D01*
X0031893Y0039022D01*
X0031776Y0039062D01*
X0031657Y0039099D01*
X0031538Y0039131D01*
X0031418Y0039160D01*
X0031297Y0039185D01*
X0031175Y0039207D01*
X0031052Y0039224D01*
X0030930Y0039238D01*
X0030806Y0039247D01*
X0030683Y0039253D01*
X0030559Y0039255D01*
X0022685Y0039255D01*
X0022561Y0039253D01*
X0022438Y0039247D01*
X0022314Y0039238D01*
X0022192Y0039224D01*
X0022069Y0039207D01*
X0021947Y0039185D01*
X0021826Y0039160D01*
X0021706Y0039131D01*
X0021587Y0039099D01*
X0021468Y0039062D01*
X0021351Y0039022D01*
X0021236Y0038979D01*
X0021121Y0038931D01*
X0021009Y0038880D01*
X0020898Y0038826D01*
X0020788Y0038768D01*
X0020681Y0038707D01*
X0020575Y0038642D01*
X0020472Y0038574D01*
X0020371Y0038503D01*
X0020272Y0038429D01*
X0020175Y0038352D01*
X0020081Y0038271D01*
X0019990Y0038188D01*
X0019901Y0038102D01*
X0019815Y0038013D01*
X0019732Y0037922D01*
X0019651Y0037828D01*
X0019574Y0037731D01*
X0019500Y0037632D01*
X0019429Y0037531D01*
X0019361Y0037428D01*
X0019296Y0037322D01*
X0019235Y0037215D01*
X0019177Y0037105D01*
X0019123Y0036994D01*
X0019072Y0036882D01*
X0019024Y0036767D01*
X0018981Y0036652D01*
X0018941Y0036535D01*
X0018904Y0036416D01*
X0018872Y0036297D01*
X0018843Y0036177D01*
X0018818Y0036056D01*
X0018796Y0035934D01*
X0018779Y0035811D01*
X0018765Y0035689D01*
X0018756Y0035565D01*
X0018750Y0035442D01*
X0018748Y0035318D01*
X0018750Y0035194D01*
X0018756Y0035071D01*
X0018765Y0034947D01*
X0018779Y0034825D01*
X0018796Y0034702D01*
X0018818Y0034580D01*
X0018843Y0034459D01*
X0018872Y0034339D01*
X0018904Y0034220D01*
X0018941Y0034101D01*
X0018981Y0033984D01*
X0019024Y0033869D01*
X0019072Y0033754D01*
X0019123Y0033642D01*
X0019177Y0033531D01*
X0019235Y0033421D01*
X0019296Y0033314D01*
X0019361Y0033208D01*
X0019429Y0033105D01*
X0019500Y0033004D01*
X0019574Y0032905D01*
X0019651Y0032808D01*
X0019732Y0032714D01*
X0019815Y0032623D01*
X0019901Y0032534D01*
X0019990Y0032448D01*
X0020081Y0032365D01*
X0020175Y0032284D01*
X0020272Y0032207D01*
X0020371Y0032133D01*
X0020472Y0032062D01*
X0020575Y0031994D01*
X0020681Y0031929D01*
X0020788Y0031868D01*
X0020898Y0031810D01*
X0021009Y0031756D01*
X0021121Y0031705D01*
X0021236Y0031657D01*
X0021351Y0031614D01*
X0021468Y0031574D01*
X0021587Y0031537D01*
X0021706Y0031505D01*
X0021826Y0031476D01*
X0021947Y0031451D01*
X0022069Y0031429D01*
X0022192Y0031412D01*
X0022314Y0031398D01*
X0022438Y0031389D01*
X0022561Y0031383D01*
X0022685Y0031381D01*
X0024654Y0043192D02*
X0040402Y0043192D01*
X0040690Y0043196D01*
X0040977Y0043206D01*
X0041264Y0043224D01*
X0041551Y0043248D01*
X0041837Y0043279D01*
X0042122Y0043318D01*
X0042406Y0043363D01*
X0042689Y0043415D01*
X0042970Y0043475D01*
X0043250Y0043541D01*
X0043528Y0043613D01*
X0043805Y0043693D01*
X0044079Y0043779D01*
X0044351Y0043872D01*
X0044621Y0043971D01*
X0044889Y0044077D01*
X0045153Y0044190D01*
X0045415Y0044309D01*
X0045674Y0044434D01*
X0045930Y0044566D01*
X0046183Y0044703D01*
X0046432Y0044847D01*
X0046677Y0044997D01*
X0046919Y0045153D01*
X0047157Y0045314D01*
X0047391Y0045482D01*
X0047621Y0045655D01*
X0047846Y0045833D01*
X0048067Y0046017D01*
X0048284Y0046206D01*
X0048496Y0046401D01*
X0048703Y0046601D01*
X0048905Y0046805D01*
X0049102Y0047015D01*
X0049294Y0047229D01*
X0049480Y0047448D01*
X0049662Y0047671D01*
X0049838Y0047899D01*
X0050008Y0048131D01*
X0050172Y0048367D01*
X0050331Y0048606D01*
X0050484Y0048850D01*
X0050631Y0049098D01*
X0050771Y0049348D01*
X0050906Y0049603D01*
X0051034Y0049860D01*
X0051156Y0050120D01*
X0051272Y0050384D01*
X0051381Y0050650D01*
X0051484Y0050918D01*
X0051580Y0051189D01*
X0051670Y0051463D01*
X0051753Y0051738D01*
X0051829Y0052016D01*
X0051898Y0052295D01*
X0051961Y0052575D01*
X0052017Y0052858D01*
X0052065Y0053141D01*
X0052107Y0053426D01*
X0052142Y0053711D01*
X0052170Y0053997D01*
X0052191Y0054284D01*
X0052205Y0054572D01*
X0052212Y0054859D01*
X0052212Y0055147D01*
X0052205Y0055434D01*
X0052191Y0055722D01*
X0052170Y0056009D01*
X0052142Y0056295D01*
X0052107Y0056580D01*
X0052065Y0056865D01*
X0052017Y0057148D01*
X0051961Y0057431D01*
X0051898Y0057711D01*
X0051829Y0057990D01*
X0051753Y0058268D01*
X0051670Y0058543D01*
X0051580Y0058817D01*
X0051484Y0059088D01*
X0051381Y0059356D01*
X0051272Y0059622D01*
X0051156Y0059886D01*
X0051034Y0060146D01*
X0050906Y0060403D01*
X0050771Y0060658D01*
X0050631Y0060909D01*
X0050484Y0061156D01*
X0050331Y0061400D01*
X0050172Y0061639D01*
X0050008Y0061875D01*
X0049838Y0062107D01*
X0049662Y0062335D01*
X0049480Y0062558D01*
X0049294Y0062777D01*
X0049102Y0062991D01*
X0048905Y0063201D01*
X0048703Y0063405D01*
X0048496Y0063605D01*
X0048284Y0063800D01*
X0048067Y0063989D01*
X0047846Y0064173D01*
X0047621Y0064351D01*
X0047391Y0064524D01*
X0047157Y0064692D01*
X0046919Y0064853D01*
X0046677Y0065009D01*
X0046432Y0065159D01*
X0046183Y0065303D01*
X0045930Y0065440D01*
X0045674Y0065572D01*
X0045415Y0065697D01*
X0045153Y0065816D01*
X0044889Y0065929D01*
X0044621Y0066035D01*
X0044351Y0066134D01*
X0044079Y0066227D01*
X0043805Y0066313D01*
X0043528Y0066393D01*
X0043250Y0066465D01*
X0042970Y0066531D01*
X0042689Y0066591D01*
X0042406Y0066643D01*
X0042122Y0066688D01*
X0041837Y0066727D01*
X0041551Y0066758D01*
X0041264Y0066782D01*
X0040977Y0066800D01*
X0040690Y0066810D01*
X0040402Y0066814D01*
X0024654Y0066814D01*
X0034496Y0070751D02*
X0042370Y0070751D01*
X0042494Y0070753D01*
X0042617Y0070759D01*
X0042741Y0070768D01*
X0042863Y0070782D01*
X0042986Y0070799D01*
X0043108Y0070821D01*
X0043229Y0070846D01*
X0043349Y0070875D01*
X0043468Y0070907D01*
X0043587Y0070944D01*
X0043704Y0070984D01*
X0043819Y0071027D01*
X0043934Y0071075D01*
X0044046Y0071126D01*
X0044157Y0071180D01*
X0044267Y0071238D01*
X0044374Y0071299D01*
X0044480Y0071364D01*
X0044583Y0071432D01*
X0044684Y0071503D01*
X0044783Y0071577D01*
X0044880Y0071654D01*
X0044974Y0071735D01*
X0045065Y0071818D01*
X0045154Y0071904D01*
X0045240Y0071993D01*
X0045323Y0072084D01*
X0045404Y0072178D01*
X0045481Y0072275D01*
X0045555Y0072374D01*
X0045626Y0072475D01*
X0045694Y0072578D01*
X0045759Y0072684D01*
X0045820Y0072791D01*
X0045878Y0072901D01*
X0045932Y0073012D01*
X0045983Y0073124D01*
X0046031Y0073239D01*
X0046074Y0073354D01*
X0046114Y0073471D01*
X0046151Y0073590D01*
X0046183Y0073709D01*
X0046212Y0073829D01*
X0046237Y0073950D01*
X0046259Y0074072D01*
X0046276Y0074195D01*
X0046290Y0074317D01*
X0046299Y0074441D01*
X0046305Y0074564D01*
X0046307Y0074688D01*
X0046305Y0074812D01*
X0046299Y0074935D01*
X0046290Y0075059D01*
X0046276Y0075181D01*
X0046259Y0075304D01*
X0046237Y0075426D01*
X0046212Y0075547D01*
X0046183Y0075667D01*
X0046151Y0075786D01*
X0046114Y0075905D01*
X0046074Y0076022D01*
X0046031Y0076137D01*
X0045983Y0076252D01*
X0045932Y0076364D01*
X0045878Y0076475D01*
X0045820Y0076585D01*
X0045759Y0076692D01*
X0045694Y0076798D01*
X0045626Y0076901D01*
X0045555Y0077002D01*
X0045481Y0077101D01*
X0045404Y0077198D01*
X0045323Y0077292D01*
X0045240Y0077383D01*
X0045154Y0077472D01*
X0045065Y0077558D01*
X0044974Y0077641D01*
X0044880Y0077722D01*
X0044783Y0077799D01*
X0044684Y0077873D01*
X0044583Y0077944D01*
X0044480Y0078012D01*
X0044374Y0078077D01*
X0044267Y0078138D01*
X0044157Y0078196D01*
X0044046Y0078250D01*
X0043934Y0078301D01*
X0043819Y0078349D01*
X0043704Y0078392D01*
X0043587Y0078432D01*
X0043468Y0078469D01*
X0043349Y0078501D01*
X0043229Y0078530D01*
X0043108Y0078555D01*
X0042986Y0078577D01*
X0042863Y0078594D01*
X0042741Y0078608D01*
X0042617Y0078617D01*
X0042494Y0078623D01*
X0042370Y0078625D01*
X0034496Y0078625D01*
X0034372Y0078623D01*
X0034249Y0078617D01*
X0034125Y0078608D01*
X0034003Y0078594D01*
X0033880Y0078577D01*
X0033758Y0078555D01*
X0033637Y0078530D01*
X0033517Y0078501D01*
X0033398Y0078469D01*
X0033279Y0078432D01*
X0033162Y0078392D01*
X0033047Y0078349D01*
X0032932Y0078301D01*
X0032820Y0078250D01*
X0032709Y0078196D01*
X0032599Y0078138D01*
X0032492Y0078077D01*
X0032386Y0078012D01*
X0032283Y0077944D01*
X0032182Y0077873D01*
X0032083Y0077799D01*
X0031986Y0077722D01*
X0031892Y0077641D01*
X0031801Y0077558D01*
X0031712Y0077472D01*
X0031626Y0077383D01*
X0031543Y0077292D01*
X0031462Y0077198D01*
X0031385Y0077101D01*
X0031311Y0077002D01*
X0031240Y0076901D01*
X0031172Y0076798D01*
X0031107Y0076692D01*
X0031046Y0076585D01*
X0030988Y0076475D01*
X0030934Y0076364D01*
X0030883Y0076252D01*
X0030835Y0076137D01*
X0030792Y0076022D01*
X0030752Y0075905D01*
X0030715Y0075786D01*
X0030683Y0075667D01*
X0030654Y0075547D01*
X0030629Y0075426D01*
X0030607Y0075304D01*
X0030590Y0075181D01*
X0030576Y0075059D01*
X0030567Y0074935D01*
X0030561Y0074812D01*
X0030559Y0074688D01*
X0030561Y0074564D01*
X0030567Y0074441D01*
X0030576Y0074317D01*
X0030590Y0074195D01*
X0030607Y0074072D01*
X0030629Y0073950D01*
X0030654Y0073829D01*
X0030683Y0073709D01*
X0030715Y0073590D01*
X0030752Y0073471D01*
X0030792Y0073354D01*
X0030835Y0073239D01*
X0030883Y0073124D01*
X0030934Y0073012D01*
X0030988Y0072901D01*
X0031046Y0072791D01*
X0031107Y0072684D01*
X0031172Y0072578D01*
X0031240Y0072475D01*
X0031311Y0072374D01*
X0031385Y0072275D01*
X0031462Y0072178D01*
X0031543Y0072084D01*
X0031626Y0071993D01*
X0031712Y0071904D01*
X0031801Y0071818D01*
X0031892Y0071735D01*
X0031986Y0071654D01*
X0032083Y0071577D01*
X0032182Y0071503D01*
X0032283Y0071432D01*
X0032386Y0071364D01*
X0032492Y0071299D01*
X0032599Y0071238D01*
X0032709Y0071180D01*
X0032820Y0071126D01*
X0032932Y0071075D01*
X0033047Y0071027D01*
X0033162Y0070984D01*
X0033279Y0070944D01*
X0033398Y0070907D01*
X0033517Y0070875D01*
X0033637Y0070846D01*
X0033758Y0070821D01*
X0033880Y0070799D01*
X0034003Y0070782D01*
X0034125Y0070768D01*
X0034249Y0070759D01*
X0034372Y0070753D01*
X0034496Y0070751D01*
X0024654Y0066814D02*
X0024366Y0066810D01*
X0024079Y0066800D01*
X0023792Y0066782D01*
X0023505Y0066758D01*
X0023219Y0066727D01*
X0022934Y0066688D01*
X0022650Y0066643D01*
X0022367Y0066591D01*
X0022086Y0066531D01*
X0021806Y0066465D01*
X0021528Y0066393D01*
X0021251Y0066313D01*
X0020977Y0066227D01*
X0020705Y0066134D01*
X0020435Y0066035D01*
X0020167Y0065929D01*
X0019903Y0065816D01*
X0019641Y0065697D01*
X0019382Y0065572D01*
X0019126Y0065440D01*
X0018873Y0065303D01*
X0018624Y0065159D01*
X0018379Y0065009D01*
X0018137Y0064853D01*
X0017899Y0064692D01*
X0017665Y0064524D01*
X0017435Y0064351D01*
X0017210Y0064173D01*
X0016989Y0063989D01*
X0016772Y0063800D01*
X0016560Y0063605D01*
X0016353Y0063405D01*
X0016151Y0063201D01*
X0015954Y0062991D01*
X0015762Y0062777D01*
X0015576Y0062558D01*
X0015394Y0062335D01*
X0015218Y0062107D01*
X0015048Y0061875D01*
X0014884Y0061639D01*
X0014725Y0061400D01*
X0014572Y0061156D01*
X0014425Y0060908D01*
X0014285Y0060658D01*
X0014150Y0060403D01*
X0014022Y0060146D01*
X0013900Y0059886D01*
X0013784Y0059622D01*
X0013675Y0059356D01*
X0013572Y0059088D01*
X0013476Y0058817D01*
X0013386Y0058543D01*
X0013303Y0058268D01*
X0013227Y0057990D01*
X0013158Y0057711D01*
X0013095Y0057431D01*
X0013039Y0057148D01*
X0012991Y0056865D01*
X0012949Y0056580D01*
X0012914Y0056295D01*
X0012886Y0056009D01*
X0012865Y0055722D01*
X0012851Y0055434D01*
X0012844Y0055147D01*
X0012844Y0054859D01*
X0012851Y0054572D01*
X0012865Y0054284D01*
X0012886Y0053997D01*
X0012914Y0053711D01*
X0012949Y0053426D01*
X0012991Y0053141D01*
X0013039Y0052858D01*
X0013095Y0052575D01*
X0013158Y0052295D01*
X0013227Y0052016D01*
X0013303Y0051738D01*
X0013386Y0051463D01*
X0013476Y0051189D01*
X0013572Y0050918D01*
X0013675Y0050650D01*
X0013784Y0050384D01*
X0013900Y0050120D01*
X0014022Y0049860D01*
X0014150Y0049603D01*
X0014285Y0049348D01*
X0014425Y0049097D01*
X0014572Y0048850D01*
X0014725Y0048606D01*
X0014884Y0048367D01*
X0015048Y0048131D01*
X0015218Y0047899D01*
X0015394Y0047671D01*
X0015576Y0047448D01*
X0015762Y0047229D01*
X0015954Y0047015D01*
X0016151Y0046805D01*
X0016353Y0046601D01*
X0016560Y0046401D01*
X0016772Y0046206D01*
X0016989Y0046017D01*
X0017210Y0045833D01*
X0017435Y0045655D01*
X0017665Y0045482D01*
X0017899Y0045314D01*
X0018137Y0045153D01*
X0018379Y0044997D01*
X0018624Y0044847D01*
X0018873Y0044703D01*
X0019126Y0044566D01*
X0019382Y0044434D01*
X0019641Y0044309D01*
X0019903Y0044190D01*
X0020167Y0044077D01*
X0020435Y0043971D01*
X0020705Y0043872D01*
X0020977Y0043779D01*
X0021251Y0043693D01*
X0021528Y0043613D01*
X0021806Y0043541D01*
X0022086Y0043475D01*
X0022367Y0043415D01*
X0022650Y0043363D01*
X0022934Y0043318D01*
X0023219Y0043279D01*
X0023505Y0043248D01*
X0023792Y0043224D01*
X0024079Y0043206D01*
X0024366Y0043196D01*
X0024654Y0043192D01*
X0199850Y0039255D02*
X0207724Y0039255D01*
X0207848Y0039253D01*
X0207971Y0039247D01*
X0208095Y0039238D01*
X0208217Y0039224D01*
X0208340Y0039207D01*
X0208462Y0039185D01*
X0208583Y0039160D01*
X0208703Y0039131D01*
X0208822Y0039099D01*
X0208941Y0039062D01*
X0209058Y0039022D01*
X0209173Y0038979D01*
X0209288Y0038931D01*
X0209400Y0038880D01*
X0209511Y0038826D01*
X0209621Y0038768D01*
X0209728Y0038707D01*
X0209834Y0038642D01*
X0209937Y0038574D01*
X0210038Y0038503D01*
X0210137Y0038429D01*
X0210234Y0038352D01*
X0210328Y0038271D01*
X0210419Y0038188D01*
X0210508Y0038102D01*
X0210594Y0038013D01*
X0210677Y0037922D01*
X0210758Y0037828D01*
X0210835Y0037731D01*
X0210909Y0037632D01*
X0210980Y0037531D01*
X0211048Y0037428D01*
X0211113Y0037322D01*
X0211174Y0037215D01*
X0211232Y0037105D01*
X0211286Y0036994D01*
X0211337Y0036882D01*
X0211385Y0036767D01*
X0211428Y0036652D01*
X0211468Y0036535D01*
X0211505Y0036416D01*
X0211537Y0036297D01*
X0211566Y0036177D01*
X0211591Y0036056D01*
X0211613Y0035934D01*
X0211630Y0035811D01*
X0211644Y0035689D01*
X0211653Y0035565D01*
X0211659Y0035442D01*
X0211661Y0035318D01*
X0211659Y0035194D01*
X0211653Y0035071D01*
X0211644Y0034947D01*
X0211630Y0034825D01*
X0211613Y0034702D01*
X0211591Y0034580D01*
X0211566Y0034459D01*
X0211537Y0034339D01*
X0211505Y0034220D01*
X0211468Y0034101D01*
X0211428Y0033984D01*
X0211385Y0033869D01*
X0211337Y0033754D01*
X0211286Y0033642D01*
X0211232Y0033531D01*
X0211174Y0033421D01*
X0211113Y0033314D01*
X0211048Y0033208D01*
X0210980Y0033105D01*
X0210909Y0033004D01*
X0210835Y0032905D01*
X0210758Y0032808D01*
X0210677Y0032714D01*
X0210594Y0032623D01*
X0210508Y0032534D01*
X0210419Y0032448D01*
X0210328Y0032365D01*
X0210234Y0032284D01*
X0210137Y0032207D01*
X0210038Y0032133D01*
X0209937Y0032062D01*
X0209834Y0031994D01*
X0209728Y0031929D01*
X0209621Y0031868D01*
X0209511Y0031810D01*
X0209400Y0031756D01*
X0209288Y0031705D01*
X0209173Y0031657D01*
X0209058Y0031614D01*
X0208941Y0031574D01*
X0208822Y0031537D01*
X0208703Y0031505D01*
X0208583Y0031476D01*
X0208462Y0031451D01*
X0208340Y0031429D01*
X0208217Y0031412D01*
X0208095Y0031398D01*
X0207971Y0031389D01*
X0207848Y0031383D01*
X0207724Y0031381D01*
X0199850Y0031381D01*
X0199726Y0031383D01*
X0199603Y0031389D01*
X0199479Y0031398D01*
X0199357Y0031412D01*
X0199234Y0031429D01*
X0199112Y0031451D01*
X0198991Y0031476D01*
X0198871Y0031505D01*
X0198752Y0031537D01*
X0198633Y0031574D01*
X0198516Y0031614D01*
X0198401Y0031657D01*
X0198286Y0031705D01*
X0198174Y0031756D01*
X0198063Y0031810D01*
X0197953Y0031868D01*
X0197846Y0031929D01*
X0197740Y0031994D01*
X0197637Y0032062D01*
X0197536Y0032133D01*
X0197437Y0032207D01*
X0197340Y0032284D01*
X0197246Y0032365D01*
X0197155Y0032448D01*
X0197066Y0032534D01*
X0196980Y0032623D01*
X0196897Y0032714D01*
X0196816Y0032808D01*
X0196739Y0032905D01*
X0196665Y0033004D01*
X0196594Y0033105D01*
X0196526Y0033208D01*
X0196461Y0033314D01*
X0196400Y0033421D01*
X0196342Y0033531D01*
X0196288Y0033642D01*
X0196237Y0033754D01*
X0196189Y0033869D01*
X0196146Y0033984D01*
X0196106Y0034101D01*
X0196069Y0034220D01*
X0196037Y0034339D01*
X0196008Y0034459D01*
X0195983Y0034580D01*
X0195961Y0034702D01*
X0195944Y0034825D01*
X0195930Y0034947D01*
X0195921Y0035071D01*
X0195915Y0035194D01*
X0195913Y0035318D01*
X0195915Y0035442D01*
X0195921Y0035565D01*
X0195930Y0035689D01*
X0195944Y0035811D01*
X0195961Y0035934D01*
X0195983Y0036056D01*
X0196008Y0036177D01*
X0196037Y0036297D01*
X0196069Y0036416D01*
X0196106Y0036535D01*
X0196146Y0036652D01*
X0196189Y0036767D01*
X0196237Y0036882D01*
X0196288Y0036994D01*
X0196342Y0037105D01*
X0196400Y0037215D01*
X0196461Y0037322D01*
X0196526Y0037428D01*
X0196594Y0037531D01*
X0196665Y0037632D01*
X0196739Y0037731D01*
X0196816Y0037828D01*
X0196897Y0037922D01*
X0196980Y0038013D01*
X0197066Y0038102D01*
X0197155Y0038188D01*
X0197246Y0038271D01*
X0197340Y0038352D01*
X0197437Y0038429D01*
X0197536Y0038503D01*
X0197637Y0038574D01*
X0197740Y0038642D01*
X0197846Y0038707D01*
X0197953Y0038768D01*
X0198063Y0038826D01*
X0198174Y0038880D01*
X0198286Y0038931D01*
X0198401Y0038979D01*
X0198516Y0039022D01*
X0198633Y0039062D01*
X0198752Y0039099D01*
X0198871Y0039131D01*
X0198991Y0039160D01*
X0199112Y0039185D01*
X0199234Y0039207D01*
X0199357Y0039224D01*
X0199479Y0039238D01*
X0199603Y0039247D01*
X0199726Y0039253D01*
X0199850Y0039255D01*
X0201819Y0043192D02*
X0217567Y0043192D01*
X0217855Y0043196D01*
X0218142Y0043206D01*
X0218429Y0043224D01*
X0218716Y0043248D01*
X0219002Y0043279D01*
X0219287Y0043318D01*
X0219571Y0043363D01*
X0219854Y0043415D01*
X0220135Y0043475D01*
X0220415Y0043541D01*
X0220693Y0043613D01*
X0220970Y0043693D01*
X0221244Y0043779D01*
X0221516Y0043872D01*
X0221786Y0043971D01*
X0222054Y0044077D01*
X0222318Y0044190D01*
X0222580Y0044309D01*
X0222839Y0044434D01*
X0223095Y0044566D01*
X0223348Y0044703D01*
X0223597Y0044847D01*
X0223842Y0044997D01*
X0224084Y0045153D01*
X0224322Y0045314D01*
X0224556Y0045482D01*
X0224786Y0045655D01*
X0225011Y0045833D01*
X0225232Y0046017D01*
X0225449Y0046206D01*
X0225661Y0046401D01*
X0225868Y0046601D01*
X0226070Y0046805D01*
X0226267Y0047015D01*
X0226459Y0047229D01*
X0226645Y0047448D01*
X0226827Y0047671D01*
X0227003Y0047899D01*
X0227173Y0048131D01*
X0227337Y0048367D01*
X0227496Y0048606D01*
X0227649Y0048850D01*
X0227796Y0049098D01*
X0227936Y0049348D01*
X0228071Y0049603D01*
X0228199Y0049860D01*
X0228321Y0050120D01*
X0228437Y0050384D01*
X0228546Y0050650D01*
X0228649Y0050918D01*
X0228745Y0051189D01*
X0228835Y0051463D01*
X0228918Y0051738D01*
X0228994Y0052016D01*
X0229063Y0052295D01*
X0229126Y0052575D01*
X0229182Y0052858D01*
X0229230Y0053141D01*
X0229272Y0053426D01*
X0229307Y0053711D01*
X0229335Y0053997D01*
X0229356Y0054284D01*
X0229370Y0054572D01*
X0229377Y0054859D01*
X0229377Y0055147D01*
X0229370Y0055434D01*
X0229356Y0055722D01*
X0229335Y0056009D01*
X0229307Y0056295D01*
X0229272Y0056580D01*
X0229230Y0056865D01*
X0229182Y0057148D01*
X0229126Y0057431D01*
X0229063Y0057711D01*
X0228994Y0057990D01*
X0228918Y0058268D01*
X0228835Y0058543D01*
X0228745Y0058817D01*
X0228649Y0059088D01*
X0228546Y0059356D01*
X0228437Y0059622D01*
X0228321Y0059886D01*
X0228199Y0060146D01*
X0228071Y0060403D01*
X0227936Y0060658D01*
X0227796Y0060909D01*
X0227649Y0061156D01*
X0227496Y0061400D01*
X0227337Y0061639D01*
X0227173Y0061875D01*
X0227003Y0062107D01*
X0226827Y0062335D01*
X0226645Y0062558D01*
X0226459Y0062777D01*
X0226267Y0062991D01*
X0226070Y0063201D01*
X0225868Y0063405D01*
X0225661Y0063605D01*
X0225449Y0063800D01*
X0225232Y0063989D01*
X0225011Y0064173D01*
X0224786Y0064351D01*
X0224556Y0064524D01*
X0224322Y0064692D01*
X0224084Y0064853D01*
X0223842Y0065009D01*
X0223597Y0065159D01*
X0223348Y0065303D01*
X0223095Y0065440D01*
X0222839Y0065572D01*
X0222580Y0065697D01*
X0222318Y0065816D01*
X0222054Y0065929D01*
X0221786Y0066035D01*
X0221516Y0066134D01*
X0221244Y0066227D01*
X0220970Y0066313D01*
X0220693Y0066393D01*
X0220415Y0066465D01*
X0220135Y0066531D01*
X0219854Y0066591D01*
X0219571Y0066643D01*
X0219287Y0066688D01*
X0219002Y0066727D01*
X0218716Y0066758D01*
X0218429Y0066782D01*
X0218142Y0066800D01*
X0217855Y0066810D01*
X0217567Y0066814D01*
X0201819Y0066814D01*
X0211661Y0070751D02*
X0219535Y0070751D01*
X0219659Y0070753D01*
X0219782Y0070759D01*
X0219906Y0070768D01*
X0220028Y0070782D01*
X0220151Y0070799D01*
X0220273Y0070821D01*
X0220394Y0070846D01*
X0220514Y0070875D01*
X0220633Y0070907D01*
X0220752Y0070944D01*
X0220869Y0070984D01*
X0220984Y0071027D01*
X0221099Y0071075D01*
X0221211Y0071126D01*
X0221322Y0071180D01*
X0221432Y0071238D01*
X0221539Y0071299D01*
X0221645Y0071364D01*
X0221748Y0071432D01*
X0221849Y0071503D01*
X0221948Y0071577D01*
X0222045Y0071654D01*
X0222139Y0071735D01*
X0222230Y0071818D01*
X0222319Y0071904D01*
X0222405Y0071993D01*
X0222488Y0072084D01*
X0222569Y0072178D01*
X0222646Y0072275D01*
X0222720Y0072374D01*
X0222791Y0072475D01*
X0222859Y0072578D01*
X0222924Y0072684D01*
X0222985Y0072791D01*
X0223043Y0072901D01*
X0223097Y0073012D01*
X0223148Y0073124D01*
X0223196Y0073239D01*
X0223239Y0073354D01*
X0223279Y0073471D01*
X0223316Y0073590D01*
X0223348Y0073709D01*
X0223377Y0073829D01*
X0223402Y0073950D01*
X0223424Y0074072D01*
X0223441Y0074195D01*
X0223455Y0074317D01*
X0223464Y0074441D01*
X0223470Y0074564D01*
X0223472Y0074688D01*
X0223470Y0074812D01*
X0223464Y0074935D01*
X0223455Y0075059D01*
X0223441Y0075181D01*
X0223424Y0075304D01*
X0223402Y0075426D01*
X0223377Y0075547D01*
X0223348Y0075667D01*
X0223316Y0075786D01*
X0223279Y0075905D01*
X0223239Y0076022D01*
X0223196Y0076137D01*
X0223148Y0076252D01*
X0223097Y0076364D01*
X0223043Y0076475D01*
X0222985Y0076585D01*
X0222924Y0076692D01*
X0222859Y0076798D01*
X0222791Y0076901D01*
X0222720Y0077002D01*
X0222646Y0077101D01*
X0222569Y0077198D01*
X0222488Y0077292D01*
X0222405Y0077383D01*
X0222319Y0077472D01*
X0222230Y0077558D01*
X0222139Y0077641D01*
X0222045Y0077722D01*
X0221948Y0077799D01*
X0221849Y0077873D01*
X0221748Y0077944D01*
X0221645Y0078012D01*
X0221539Y0078077D01*
X0221432Y0078138D01*
X0221322Y0078196D01*
X0221211Y0078250D01*
X0221099Y0078301D01*
X0220984Y0078349D01*
X0220869Y0078392D01*
X0220752Y0078432D01*
X0220633Y0078469D01*
X0220514Y0078501D01*
X0220394Y0078530D01*
X0220273Y0078555D01*
X0220151Y0078577D01*
X0220028Y0078594D01*
X0219906Y0078608D01*
X0219782Y0078617D01*
X0219659Y0078623D01*
X0219535Y0078625D01*
X0211661Y0078625D01*
X0211537Y0078623D01*
X0211414Y0078617D01*
X0211290Y0078608D01*
X0211168Y0078594D01*
X0211045Y0078577D01*
X0210923Y0078555D01*
X0210802Y0078530D01*
X0210682Y0078501D01*
X0210563Y0078469D01*
X0210444Y0078432D01*
X0210327Y0078392D01*
X0210212Y0078349D01*
X0210097Y0078301D01*
X0209985Y0078250D01*
X0209874Y0078196D01*
X0209764Y0078138D01*
X0209657Y0078077D01*
X0209551Y0078012D01*
X0209448Y0077944D01*
X0209347Y0077873D01*
X0209248Y0077799D01*
X0209151Y0077722D01*
X0209057Y0077641D01*
X0208966Y0077558D01*
X0208877Y0077472D01*
X0208791Y0077383D01*
X0208708Y0077292D01*
X0208627Y0077198D01*
X0208550Y0077101D01*
X0208476Y0077002D01*
X0208405Y0076901D01*
X0208337Y0076798D01*
X0208272Y0076692D01*
X0208211Y0076585D01*
X0208153Y0076475D01*
X0208099Y0076364D01*
X0208048Y0076252D01*
X0208000Y0076137D01*
X0207957Y0076022D01*
X0207917Y0075905D01*
X0207880Y0075786D01*
X0207848Y0075667D01*
X0207819Y0075547D01*
X0207794Y0075426D01*
X0207772Y0075304D01*
X0207755Y0075181D01*
X0207741Y0075059D01*
X0207732Y0074935D01*
X0207726Y0074812D01*
X0207724Y0074688D01*
X0207726Y0074564D01*
X0207732Y0074441D01*
X0207741Y0074317D01*
X0207755Y0074195D01*
X0207772Y0074072D01*
X0207794Y0073950D01*
X0207819Y0073829D01*
X0207848Y0073709D01*
X0207880Y0073590D01*
X0207917Y0073471D01*
X0207957Y0073354D01*
X0208000Y0073239D01*
X0208048Y0073124D01*
X0208099Y0073012D01*
X0208153Y0072901D01*
X0208211Y0072791D01*
X0208272Y0072684D01*
X0208337Y0072578D01*
X0208405Y0072475D01*
X0208476Y0072374D01*
X0208550Y0072275D01*
X0208627Y0072178D01*
X0208708Y0072084D01*
X0208791Y0071993D01*
X0208877Y0071904D01*
X0208966Y0071818D01*
X0209057Y0071735D01*
X0209151Y0071654D01*
X0209248Y0071577D01*
X0209347Y0071503D01*
X0209448Y0071432D01*
X0209551Y0071364D01*
X0209657Y0071299D01*
X0209764Y0071238D01*
X0209874Y0071180D01*
X0209985Y0071126D01*
X0210097Y0071075D01*
X0210212Y0071027D01*
X0210327Y0070984D01*
X0210444Y0070944D01*
X0210563Y0070907D01*
X0210682Y0070875D01*
X0210802Y0070846D01*
X0210923Y0070821D01*
X0211045Y0070799D01*
X0211168Y0070782D01*
X0211290Y0070768D01*
X0211414Y0070759D01*
X0211537Y0070753D01*
X0211661Y0070751D01*
X0201819Y0066814D02*
X0201531Y0066810D01*
X0201244Y0066800D01*
X0200957Y0066782D01*
X0200670Y0066758D01*
X0200384Y0066727D01*
X0200099Y0066688D01*
X0199815Y0066643D01*
X0199532Y0066591D01*
X0199251Y0066531D01*
X0198971Y0066465D01*
X0198693Y0066393D01*
X0198416Y0066313D01*
X0198142Y0066227D01*
X0197870Y0066134D01*
X0197600Y0066035D01*
X0197332Y0065929D01*
X0197068Y0065816D01*
X0196806Y0065697D01*
X0196547Y0065572D01*
X0196291Y0065440D01*
X0196038Y0065303D01*
X0195789Y0065159D01*
X0195544Y0065009D01*
X0195302Y0064853D01*
X0195064Y0064692D01*
X0194830Y0064524D01*
X0194600Y0064351D01*
X0194375Y0064173D01*
X0194154Y0063989D01*
X0193937Y0063800D01*
X0193725Y0063605D01*
X0193518Y0063405D01*
X0193316Y0063201D01*
X0193119Y0062991D01*
X0192927Y0062777D01*
X0192741Y0062558D01*
X0192559Y0062335D01*
X0192383Y0062107D01*
X0192213Y0061875D01*
X0192049Y0061639D01*
X0191890Y0061400D01*
X0191737Y0061156D01*
X0191590Y0060908D01*
X0191450Y0060658D01*
X0191315Y0060403D01*
X0191187Y0060146D01*
X0191065Y0059886D01*
X0190949Y0059622D01*
X0190840Y0059356D01*
X0190737Y0059088D01*
X0190641Y0058817D01*
X0190551Y0058543D01*
X0190468Y0058268D01*
X0190392Y0057990D01*
X0190323Y0057711D01*
X0190260Y0057431D01*
X0190204Y0057148D01*
X0190156Y0056865D01*
X0190114Y0056580D01*
X0190079Y0056295D01*
X0190051Y0056009D01*
X0190030Y0055722D01*
X0190016Y0055434D01*
X0190009Y0055147D01*
X0190009Y0054859D01*
X0190016Y0054572D01*
X0190030Y0054284D01*
X0190051Y0053997D01*
X0190079Y0053711D01*
X0190114Y0053426D01*
X0190156Y0053141D01*
X0190204Y0052858D01*
X0190260Y0052575D01*
X0190323Y0052295D01*
X0190392Y0052016D01*
X0190468Y0051738D01*
X0190551Y0051463D01*
X0190641Y0051189D01*
X0190737Y0050918D01*
X0190840Y0050650D01*
X0190949Y0050384D01*
X0191065Y0050120D01*
X0191187Y0049860D01*
X0191315Y0049603D01*
X0191450Y0049348D01*
X0191590Y0049097D01*
X0191737Y0048850D01*
X0191890Y0048606D01*
X0192049Y0048367D01*
X0192213Y0048131D01*
X0192383Y0047899D01*
X0192559Y0047671D01*
X0192741Y0047448D01*
X0192927Y0047229D01*
X0193119Y0047015D01*
X0193316Y0046805D01*
X0193518Y0046601D01*
X0193725Y0046401D01*
X0193937Y0046206D01*
X0194154Y0046017D01*
X0194375Y0045833D01*
X0194600Y0045655D01*
X0194830Y0045482D01*
X0195064Y0045314D01*
X0195302Y0045153D01*
X0195544Y0044997D01*
X0195789Y0044847D01*
X0196038Y0044703D01*
X0196291Y0044566D01*
X0196547Y0044434D01*
X0196806Y0044309D01*
X0197068Y0044190D01*
X0197332Y0044077D01*
X0197600Y0043971D01*
X0197870Y0043872D01*
X0198142Y0043779D01*
X0198416Y0043693D01*
X0198693Y0043613D01*
X0198971Y0043541D01*
X0199251Y0043475D01*
X0199532Y0043415D01*
X0199815Y0043363D01*
X0200099Y0043318D01*
X0200384Y0043279D01*
X0200670Y0043248D01*
X0200957Y0043224D01*
X0201244Y0043206D01*
X0201531Y0043196D01*
X0201819Y0043192D01*
D11*
X0166136Y0046794D02*
X0162696Y0046794D01*
X0163269Y0048002D02*
X0165563Y0048002D01*
X0166136Y0048576D01*
X0166136Y0049722D01*
X0165563Y0050296D01*
X0166136Y0051627D02*
X0163843Y0051627D01*
X0162696Y0052774D01*
X0163843Y0053921D01*
X0166136Y0053921D01*
X0166136Y0055253D02*
X0162696Y0055253D01*
X0162696Y0056973D01*
X0163269Y0057546D01*
X0164416Y0057546D01*
X0164989Y0056973D01*
X0164989Y0055253D01*
X0164416Y0053921D02*
X0164416Y0051627D01*
X0163269Y0050296D02*
X0162696Y0049722D01*
X0162696Y0048576D01*
X0163269Y0048002D01*
X0152085Y0053585D02*
X0152085Y0017050D01*
X0101219Y0017050D01*
X0090136Y0029688D01*
X0090136Y0040948D01*
X0101219Y0053585D01*
X0152085Y0053585D01*
X0162696Y0059451D02*
X0163269Y0058878D01*
X0162696Y0059451D02*
X0162696Y0060598D01*
X0163269Y0061171D01*
X0163843Y0061171D01*
X0164416Y0060598D01*
X0164989Y0061171D01*
X0165563Y0061171D01*
X0166136Y0060598D01*
X0166136Y0059451D01*
X0165563Y0058878D01*
X0164416Y0060024D02*
X0164416Y0060598D01*
X0162696Y0062503D02*
X0166136Y0062503D01*
X0164416Y0067336D02*
X0164416Y0069630D01*
X0166136Y0070961D02*
X0166136Y0072108D01*
X0162696Y0072108D01*
X0162696Y0070961D01*
X0164628Y0088717D02*
X0165775Y0088717D01*
X0165775Y0092157D01*
X0164628Y0092157D01*
X0163296Y0090437D02*
X0161003Y0090437D01*
X0156170Y0092157D02*
X0156170Y0088717D01*
X0154838Y0088717D02*
X0152544Y0088717D01*
X0153691Y0088717D02*
X0153691Y0092157D01*
X0152544Y0091010D01*
X0151213Y0090437D02*
X0150639Y0089864D01*
X0148919Y0089864D01*
X0147587Y0090437D02*
X0145294Y0090437D01*
X0145294Y0091010D02*
X0146441Y0092157D01*
X0147587Y0091010D01*
X0147587Y0088717D01*
X0148919Y0088717D02*
X0148919Y0092157D01*
X0150639Y0092157D01*
X0151213Y0091584D01*
X0151213Y0090437D01*
X0145294Y0091010D02*
X0145294Y0088717D01*
X0143962Y0089291D02*
X0143389Y0088717D01*
X0142242Y0088717D01*
X0141669Y0089291D01*
X0141669Y0091584D01*
X0142242Y0092157D01*
X0143389Y0092157D01*
X0143962Y0091584D01*
X0140461Y0092157D02*
X0140461Y0088717D01*
X0135504Y0090437D02*
X0133210Y0090437D01*
X0134357Y0089291D02*
X0134357Y0091584D01*
X0131940Y0092157D02*
X0130794Y0092157D01*
X0130794Y0088717D01*
X0131940Y0088717D01*
X0124875Y0088717D02*
X0124875Y0092157D01*
X0123728Y0092157D01*
X0122396Y0090437D02*
X0121823Y0091010D01*
X0120676Y0091010D01*
X0120103Y0090437D01*
X0120103Y0089291D01*
X0120676Y0088717D01*
X0121823Y0088717D01*
X0123728Y0088717D02*
X0124875Y0088717D01*
X0122396Y0089864D02*
X0120103Y0089864D01*
X0118771Y0091010D02*
X0117051Y0091010D01*
X0116478Y0090437D01*
X0116478Y0089291D01*
X0117051Y0088717D01*
X0118771Y0088717D01*
X0118771Y0092157D01*
X0115146Y0090437D02*
X0114573Y0091010D01*
X0113426Y0091010D01*
X0112853Y0090437D01*
X0112853Y0089291D01*
X0113426Y0088717D01*
X0114573Y0088717D01*
X0115146Y0089291D01*
X0115146Y0090437D01*
X0111009Y0091010D02*
X0111009Y0088717D01*
X0110436Y0088717D02*
X0111583Y0088717D01*
X0109104Y0089291D02*
X0109104Y0091584D01*
X0108531Y0092157D01*
X0106811Y0092157D01*
X0106811Y0088717D01*
X0108531Y0088717D01*
X0109104Y0089291D01*
X0110436Y0091010D02*
X0111009Y0091010D01*
X0111009Y0092157D02*
X0111009Y0092730D01*
X0101885Y0091010D02*
X0100165Y0089864D01*
X0101885Y0088717D01*
X0100165Y0088717D02*
X0100165Y0092157D01*
X0098833Y0091010D02*
X0097113Y0091010D01*
X0096540Y0090437D01*
X0096540Y0089291D01*
X0097113Y0088717D01*
X0098833Y0088717D01*
X0095208Y0088717D02*
X0095208Y0090437D01*
X0094634Y0091010D01*
X0093488Y0091010D01*
X0093488Y0089864D02*
X0095208Y0089864D01*
X0093488Y0089864D02*
X0092914Y0089291D01*
X0093488Y0088717D01*
X0095208Y0088717D01*
X0091583Y0089291D02*
X0091583Y0090437D01*
X0091009Y0091010D01*
X0089289Y0091010D01*
X0089289Y0092157D02*
X0089289Y0088717D01*
X0091009Y0088717D01*
X0091583Y0089291D01*
X0087957Y0088717D02*
X0086237Y0088717D01*
X0085664Y0089291D01*
X0085664Y0091010D01*
X0083821Y0092157D02*
X0083821Y0088717D01*
X0084394Y0088717D02*
X0083247Y0088717D01*
X0079622Y0088717D02*
X0079622Y0092157D01*
X0081916Y0092157D01*
X0083247Y0092157D02*
X0083821Y0092157D01*
X0080769Y0090437D02*
X0079622Y0090437D01*
X0078352Y0088717D02*
X0077205Y0088717D01*
X0077205Y0092157D01*
X0078352Y0092157D01*
X0087957Y0091010D02*
X0087957Y0088144D01*
X0087384Y0087571D01*
X0086811Y0087571D01*
X0122396Y0089864D02*
X0122396Y0090437D01*
X0079522Y0072108D02*
X0076082Y0072108D01*
X0076082Y0070961D01*
X0077802Y0069630D02*
X0077802Y0067336D01*
X0079522Y0070961D02*
X0079522Y0072108D01*
X0079522Y0062503D02*
X0076082Y0062503D01*
X0076655Y0061171D02*
X0076082Y0060598D01*
X0076082Y0059451D01*
X0076655Y0058878D01*
X0076655Y0057546D02*
X0077802Y0057546D01*
X0078375Y0056973D01*
X0078375Y0055253D01*
X0079522Y0055253D02*
X0076082Y0055253D01*
X0076082Y0056973D01*
X0076655Y0057546D01*
X0079522Y0058878D02*
X0077228Y0061171D01*
X0076655Y0061171D01*
X0079522Y0061171D02*
X0079522Y0058878D01*
X0079522Y0053921D02*
X0077228Y0053921D01*
X0076082Y0052774D01*
X0077228Y0051627D01*
X0079522Y0051627D01*
X0078948Y0050296D02*
X0079522Y0049722D01*
X0079522Y0048576D01*
X0078948Y0048002D01*
X0076655Y0048002D01*
X0076082Y0048576D01*
X0076082Y0049722D01*
X0076655Y0050296D01*
X0077802Y0051627D02*
X0077802Y0053921D01*
X0076082Y0046794D02*
X0079522Y0046794D01*
X0077802Y0041837D02*
X0077802Y0039544D01*
X0078948Y0040690D02*
X0076655Y0040690D01*
X0076082Y0038274D02*
X0076082Y0037127D01*
X0079522Y0037127D01*
X0079522Y0038274D01*
X0162696Y0038274D02*
X0162696Y0037127D01*
X0166136Y0037127D01*
X0166136Y0038274D01*
X0164416Y0039544D02*
X0164416Y0041837D01*
X0163269Y0040690D02*
X0165563Y0040690D01*
D12*
X0167791Y0048503D02*
X0167791Y0061503D01*
X0167793Y0061590D01*
X0167799Y0061677D01*
X0167808Y0061764D01*
X0167821Y0061850D01*
X0167838Y0061936D01*
X0167859Y0062021D01*
X0167884Y0062104D01*
X0167912Y0062187D01*
X0167943Y0062268D01*
X0167978Y0062348D01*
X0168017Y0062426D01*
X0168059Y0062503D01*
X0168104Y0062578D01*
X0168153Y0062650D01*
X0168204Y0062721D01*
X0168259Y0062789D01*
X0168316Y0062854D01*
X0168377Y0062917D01*
X0168440Y0062978D01*
X0168505Y0063035D01*
X0168573Y0063090D01*
X0168644Y0063141D01*
X0168716Y0063190D01*
X0168791Y0063235D01*
X0168868Y0063277D01*
X0168946Y0063316D01*
X0169026Y0063351D01*
X0169107Y0063382D01*
X0169190Y0063410D01*
X0169273Y0063435D01*
X0169358Y0063456D01*
X0169444Y0063473D01*
X0169530Y0063486D01*
X0169617Y0063495D01*
X0169704Y0063501D01*
X0169791Y0063503D01*
X0174791Y0063503D02*
X0174878Y0063501D01*
X0174965Y0063495D01*
X0175052Y0063486D01*
X0175138Y0063473D01*
X0175224Y0063456D01*
X0175309Y0063435D01*
X0175392Y0063410D01*
X0175475Y0063382D01*
X0175556Y0063351D01*
X0175636Y0063316D01*
X0175714Y0063277D01*
X0175791Y0063235D01*
X0175866Y0063190D01*
X0175938Y0063141D01*
X0176009Y0063090D01*
X0176077Y0063035D01*
X0176142Y0062978D01*
X0176205Y0062917D01*
X0176266Y0062854D01*
X0176323Y0062789D01*
X0176378Y0062721D01*
X0176429Y0062650D01*
X0176478Y0062578D01*
X0176523Y0062503D01*
X0176565Y0062426D01*
X0176604Y0062348D01*
X0176639Y0062268D01*
X0176670Y0062187D01*
X0176698Y0062104D01*
X0176723Y0062021D01*
X0176744Y0061936D01*
X0176761Y0061850D01*
X0176774Y0061764D01*
X0176783Y0061677D01*
X0176789Y0061590D01*
X0176791Y0061503D01*
X0176791Y0048503D01*
X0176789Y0048416D01*
X0176783Y0048329D01*
X0176774Y0048242D01*
X0176761Y0048156D01*
X0176744Y0048070D01*
X0176723Y0047985D01*
X0176698Y0047902D01*
X0176670Y0047819D01*
X0176639Y0047738D01*
X0176604Y0047658D01*
X0176565Y0047580D01*
X0176523Y0047503D01*
X0176478Y0047428D01*
X0176429Y0047356D01*
X0176378Y0047285D01*
X0176323Y0047217D01*
X0176266Y0047152D01*
X0176205Y0047089D01*
X0176142Y0047028D01*
X0176077Y0046971D01*
X0176009Y0046916D01*
X0175938Y0046865D01*
X0175866Y0046816D01*
X0175791Y0046771D01*
X0175714Y0046729D01*
X0175636Y0046690D01*
X0175556Y0046655D01*
X0175475Y0046624D01*
X0175392Y0046596D01*
X0175309Y0046571D01*
X0175224Y0046550D01*
X0175138Y0046533D01*
X0175052Y0046520D01*
X0174965Y0046511D01*
X0174878Y0046505D01*
X0174791Y0046503D01*
X0169791Y0046503D02*
X0169704Y0046505D01*
X0169617Y0046511D01*
X0169530Y0046520D01*
X0169444Y0046533D01*
X0169358Y0046550D01*
X0169273Y0046571D01*
X0169190Y0046596D01*
X0169107Y0046624D01*
X0169026Y0046655D01*
X0168946Y0046690D01*
X0168868Y0046729D01*
X0168791Y0046771D01*
X0168716Y0046816D01*
X0168644Y0046865D01*
X0168573Y0046916D01*
X0168505Y0046971D01*
X0168440Y0047028D01*
X0168377Y0047089D01*
X0168316Y0047152D01*
X0168259Y0047217D01*
X0168204Y0047285D01*
X0168153Y0047356D01*
X0168104Y0047428D01*
X0168059Y0047503D01*
X0168017Y0047580D01*
X0167978Y0047658D01*
X0167943Y0047738D01*
X0167912Y0047819D01*
X0167884Y0047902D01*
X0167859Y0047985D01*
X0167838Y0048070D01*
X0167821Y0048156D01*
X0167808Y0048242D01*
X0167799Y0048329D01*
X0167793Y0048416D01*
X0167791Y0048503D01*
X0172291Y0050003D02*
X0172291Y0053803D01*
X0172291Y0056303D02*
X0172291Y0060003D01*
X0131487Y0051557D02*
X0131487Y0047429D01*
X0130111Y0047429D01*
X0128512Y0048117D02*
X0127824Y0047429D01*
X0126448Y0047429D01*
X0125760Y0048117D01*
X0128512Y0050869D01*
X0128512Y0048117D01*
X0125760Y0048117D02*
X0125760Y0050869D01*
X0126448Y0051557D01*
X0127824Y0051557D01*
X0128512Y0050869D01*
X0130111Y0051557D02*
X0131487Y0051557D01*
X0124162Y0051557D02*
X0122786Y0050869D01*
X0121410Y0049493D01*
X0123474Y0049493D01*
X0124162Y0048805D01*
X0124162Y0048117D01*
X0123474Y0047429D01*
X0122098Y0047429D01*
X0121410Y0048117D01*
X0121410Y0049493D01*
X0119812Y0051557D02*
X0117060Y0051557D01*
X0118436Y0051557D02*
X0118436Y0047429D01*
X0115462Y0047429D02*
X0112710Y0051557D01*
X0111186Y0051557D02*
X0109810Y0051557D01*
X0109810Y0047429D01*
X0111186Y0047429D01*
X0112710Y0047429D02*
X0115462Y0051557D01*
X0074429Y0048503D02*
X0074429Y0061503D01*
X0074427Y0061590D01*
X0074421Y0061677D01*
X0074412Y0061764D01*
X0074399Y0061850D01*
X0074382Y0061936D01*
X0074361Y0062021D01*
X0074336Y0062104D01*
X0074308Y0062187D01*
X0074277Y0062268D01*
X0074242Y0062348D01*
X0074203Y0062426D01*
X0074161Y0062503D01*
X0074116Y0062578D01*
X0074067Y0062650D01*
X0074016Y0062721D01*
X0073961Y0062789D01*
X0073904Y0062854D01*
X0073843Y0062917D01*
X0073780Y0062978D01*
X0073715Y0063035D01*
X0073647Y0063090D01*
X0073576Y0063141D01*
X0073504Y0063190D01*
X0073429Y0063235D01*
X0073352Y0063277D01*
X0073274Y0063316D01*
X0073194Y0063351D01*
X0073113Y0063382D01*
X0073030Y0063410D01*
X0072947Y0063435D01*
X0072862Y0063456D01*
X0072776Y0063473D01*
X0072690Y0063486D01*
X0072603Y0063495D01*
X0072516Y0063501D01*
X0072429Y0063503D01*
X0067429Y0063503D02*
X0067342Y0063501D01*
X0067255Y0063495D01*
X0067168Y0063486D01*
X0067082Y0063473D01*
X0066996Y0063456D01*
X0066911Y0063435D01*
X0066828Y0063410D01*
X0066745Y0063382D01*
X0066664Y0063351D01*
X0066584Y0063316D01*
X0066506Y0063277D01*
X0066429Y0063235D01*
X0066354Y0063190D01*
X0066282Y0063141D01*
X0066211Y0063090D01*
X0066143Y0063035D01*
X0066078Y0062978D01*
X0066015Y0062917D01*
X0065954Y0062854D01*
X0065897Y0062789D01*
X0065842Y0062721D01*
X0065791Y0062650D01*
X0065742Y0062578D01*
X0065697Y0062503D01*
X0065655Y0062426D01*
X0065616Y0062348D01*
X0065581Y0062268D01*
X0065550Y0062187D01*
X0065522Y0062104D01*
X0065497Y0062021D01*
X0065476Y0061936D01*
X0065459Y0061850D01*
X0065446Y0061764D01*
X0065437Y0061677D01*
X0065431Y0061590D01*
X0065429Y0061503D01*
X0065429Y0048503D01*
X0065431Y0048416D01*
X0065437Y0048329D01*
X0065446Y0048242D01*
X0065459Y0048156D01*
X0065476Y0048070D01*
X0065497Y0047985D01*
X0065522Y0047902D01*
X0065550Y0047819D01*
X0065581Y0047738D01*
X0065616Y0047658D01*
X0065655Y0047580D01*
X0065697Y0047503D01*
X0065742Y0047428D01*
X0065791Y0047356D01*
X0065842Y0047285D01*
X0065897Y0047217D01*
X0065954Y0047152D01*
X0066015Y0047089D01*
X0066078Y0047028D01*
X0066143Y0046971D01*
X0066211Y0046916D01*
X0066282Y0046865D01*
X0066354Y0046816D01*
X0066429Y0046771D01*
X0066506Y0046729D01*
X0066584Y0046690D01*
X0066664Y0046655D01*
X0066745Y0046624D01*
X0066828Y0046596D01*
X0066911Y0046571D01*
X0066996Y0046550D01*
X0067082Y0046533D01*
X0067168Y0046520D01*
X0067255Y0046511D01*
X0067342Y0046505D01*
X0067429Y0046503D01*
X0072429Y0046503D02*
X0072516Y0046505D01*
X0072603Y0046511D01*
X0072690Y0046520D01*
X0072776Y0046533D01*
X0072862Y0046550D01*
X0072947Y0046571D01*
X0073030Y0046596D01*
X0073113Y0046624D01*
X0073194Y0046655D01*
X0073274Y0046690D01*
X0073352Y0046729D01*
X0073429Y0046771D01*
X0073504Y0046816D01*
X0073576Y0046865D01*
X0073647Y0046916D01*
X0073715Y0046971D01*
X0073780Y0047028D01*
X0073843Y0047089D01*
X0073904Y0047152D01*
X0073961Y0047217D01*
X0074016Y0047285D01*
X0074067Y0047356D01*
X0074116Y0047428D01*
X0074161Y0047503D01*
X0074203Y0047580D01*
X0074242Y0047658D01*
X0074277Y0047738D01*
X0074308Y0047819D01*
X0074336Y0047902D01*
X0074361Y0047985D01*
X0074382Y0048070D01*
X0074399Y0048156D01*
X0074412Y0048242D01*
X0074421Y0048329D01*
X0074427Y0048416D01*
X0074429Y0048503D01*
X0069929Y0050003D02*
X0069929Y0053703D01*
X0069929Y0056203D02*
X0069929Y0060003D01*
X0093425Y0077562D02*
X0093425Y0087562D01*
X0109425Y0087562D01*
X0109425Y0077562D01*
X0093425Y0077562D01*
X0101425Y0080062D02*
X0101425Y0082562D01*
X0101425Y0085062D01*
X0101425Y0082562D02*
X0105425Y0085062D01*
X0105425Y0080062D01*
X0101425Y0082562D01*
X0107425Y0082562D01*
X0101425Y0082562D02*
X0098925Y0082562D01*
X0061474Y0091519D02*
X0060098Y0092895D01*
X0058722Y0091519D01*
X0057124Y0091519D02*
X0055748Y0092895D01*
X0054372Y0091519D01*
X0052774Y0091519D02*
X0051398Y0092895D01*
X0050022Y0091519D01*
X0044073Y0092895D02*
X0041321Y0092895D01*
X0042697Y0092895D02*
X0042697Y0088767D01*
X0039723Y0088767D02*
X0039723Y0092895D01*
X0036971Y0092895D02*
X0039723Y0088767D01*
X0036971Y0088767D02*
X0036971Y0092895D01*
X0035373Y0092207D02*
X0034685Y0092895D01*
X0033309Y0092895D01*
X0032621Y0092207D01*
X0032621Y0089455D01*
X0033309Y0088767D01*
X0034685Y0088767D01*
X0035373Y0089455D01*
X0035373Y0092207D01*
X0031023Y0092207D02*
X0031023Y0090831D01*
X0030335Y0090143D01*
X0028271Y0090143D01*
X0029647Y0090143D02*
X0031023Y0088767D01*
X0028271Y0088767D02*
X0028271Y0092895D01*
X0030335Y0092895D01*
X0031023Y0092207D01*
X0026673Y0092895D02*
X0023921Y0092895D01*
X0023921Y0088767D01*
X0023921Y0090831D02*
X0025297Y0090831D01*
X0017972Y0091519D02*
X0016596Y0092895D01*
X0015220Y0091519D01*
X0013622Y0091519D02*
X0012246Y0092895D01*
X0010870Y0091519D01*
X0009272Y0091519D02*
X0007896Y0092895D01*
X0006520Y0091519D01*
X0142169Y0087062D02*
X0155169Y0087062D01*
X0155256Y0087060D01*
X0155343Y0087054D01*
X0155430Y0087045D01*
X0155516Y0087032D01*
X0155602Y0087015D01*
X0155687Y0086994D01*
X0155770Y0086969D01*
X0155853Y0086941D01*
X0155934Y0086910D01*
X0156014Y0086875D01*
X0156092Y0086836D01*
X0156169Y0086794D01*
X0156244Y0086749D01*
X0156316Y0086700D01*
X0156387Y0086649D01*
X0156455Y0086594D01*
X0156520Y0086537D01*
X0156583Y0086476D01*
X0156644Y0086413D01*
X0156701Y0086348D01*
X0156756Y0086280D01*
X0156807Y0086209D01*
X0156856Y0086137D01*
X0156901Y0086062D01*
X0156943Y0085985D01*
X0156982Y0085907D01*
X0157017Y0085827D01*
X0157048Y0085746D01*
X0157076Y0085663D01*
X0157101Y0085580D01*
X0157122Y0085495D01*
X0157139Y0085409D01*
X0157152Y0085323D01*
X0157161Y0085236D01*
X0157167Y0085149D01*
X0157169Y0085062D01*
X0153669Y0082562D02*
X0149969Y0082562D01*
X0147469Y0082562D02*
X0143669Y0082562D01*
X0140169Y0080062D02*
X0140171Y0079975D01*
X0140177Y0079888D01*
X0140186Y0079801D01*
X0140199Y0079715D01*
X0140216Y0079629D01*
X0140237Y0079544D01*
X0140262Y0079461D01*
X0140290Y0079378D01*
X0140321Y0079297D01*
X0140356Y0079217D01*
X0140395Y0079139D01*
X0140437Y0079062D01*
X0140482Y0078987D01*
X0140531Y0078915D01*
X0140582Y0078844D01*
X0140637Y0078776D01*
X0140694Y0078711D01*
X0140755Y0078648D01*
X0140818Y0078587D01*
X0140883Y0078530D01*
X0140951Y0078475D01*
X0141022Y0078424D01*
X0141094Y0078375D01*
X0141169Y0078330D01*
X0141246Y0078288D01*
X0141324Y0078249D01*
X0141404Y0078214D01*
X0141485Y0078183D01*
X0141568Y0078155D01*
X0141651Y0078130D01*
X0141736Y0078109D01*
X0141822Y0078092D01*
X0141908Y0078079D01*
X0141995Y0078070D01*
X0142082Y0078064D01*
X0142169Y0078062D01*
X0155169Y0078062D01*
X0155256Y0078064D01*
X0155343Y0078070D01*
X0155430Y0078079D01*
X0155516Y0078092D01*
X0155602Y0078109D01*
X0155687Y0078130D01*
X0155770Y0078155D01*
X0155853Y0078183D01*
X0155934Y0078214D01*
X0156014Y0078249D01*
X0156092Y0078288D01*
X0156169Y0078330D01*
X0156244Y0078375D01*
X0156316Y0078424D01*
X0156387Y0078475D01*
X0156455Y0078530D01*
X0156520Y0078587D01*
X0156583Y0078648D01*
X0156644Y0078711D01*
X0156701Y0078776D01*
X0156756Y0078844D01*
X0156807Y0078915D01*
X0156856Y0078987D01*
X0156901Y0079062D01*
X0156943Y0079139D01*
X0156982Y0079217D01*
X0157017Y0079297D01*
X0157048Y0079378D01*
X0157076Y0079461D01*
X0157101Y0079544D01*
X0157122Y0079629D01*
X0157139Y0079715D01*
X0157152Y0079801D01*
X0157161Y0079888D01*
X0157167Y0079975D01*
X0157169Y0080062D01*
X0142169Y0087062D02*
X0142082Y0087060D01*
X0141995Y0087054D01*
X0141908Y0087045D01*
X0141822Y0087032D01*
X0141736Y0087015D01*
X0141651Y0086994D01*
X0141568Y0086969D01*
X0141485Y0086941D01*
X0141404Y0086910D01*
X0141324Y0086875D01*
X0141246Y0086836D01*
X0141169Y0086794D01*
X0141094Y0086749D01*
X0141022Y0086700D01*
X0140951Y0086649D01*
X0140883Y0086594D01*
X0140818Y0086537D01*
X0140755Y0086476D01*
X0140694Y0086413D01*
X0140637Y0086348D01*
X0140582Y0086280D01*
X0140531Y0086209D01*
X0140482Y0086137D01*
X0140437Y0086062D01*
X0140395Y0085985D01*
X0140356Y0085907D01*
X0140321Y0085827D01*
X0140290Y0085746D01*
X0140262Y0085663D01*
X0140237Y0085580D01*
X0140216Y0085495D01*
X0140199Y0085409D01*
X0140186Y0085323D01*
X0140177Y0085236D01*
X0140171Y0085149D01*
X0140169Y0085062D01*
X0179748Y0091519D02*
X0181124Y0092895D01*
X0182500Y0091519D01*
X0184098Y0091519D02*
X0185474Y0092895D01*
X0186850Y0091519D01*
X0188449Y0091519D02*
X0189825Y0092895D01*
X0191201Y0091519D01*
X0197149Y0090831D02*
X0198525Y0090831D01*
X0201499Y0090143D02*
X0203563Y0090143D01*
X0204251Y0090831D01*
X0204251Y0092207D01*
X0203563Y0092895D01*
X0201499Y0092895D01*
X0201499Y0088767D01*
X0202875Y0090143D02*
X0204251Y0088767D01*
X0205849Y0089455D02*
X0206537Y0088767D01*
X0207913Y0088767D01*
X0208601Y0089455D01*
X0208601Y0092207D01*
X0207913Y0092895D01*
X0206537Y0092895D01*
X0205849Y0092207D01*
X0205849Y0089455D01*
X0210199Y0088767D02*
X0210199Y0092895D01*
X0212951Y0088767D01*
X0212951Y0092895D01*
X0214550Y0092895D02*
X0217302Y0092895D01*
X0215926Y0092895D02*
X0215926Y0088767D01*
X0223250Y0091519D02*
X0224626Y0092895D01*
X0226002Y0091519D01*
X0227600Y0091519D02*
X0228976Y0092895D01*
X0230352Y0091519D01*
X0231950Y0091519D02*
X0233326Y0092895D01*
X0234702Y0091519D01*
X0199901Y0092895D02*
X0197149Y0092895D01*
X0197149Y0088767D01*
X0139848Y0022029D02*
X0139848Y0017901D01*
X0145648Y0019965D02*
X0148400Y0019965D01*
X0147024Y0021341D02*
X0147024Y0018589D01*
X0133899Y0022029D02*
X0131147Y0022029D01*
X0132523Y0022029D02*
X0132523Y0017901D01*
X0129549Y0018589D02*
X0128861Y0017901D01*
X0127485Y0017901D01*
X0126797Y0018589D01*
X0126797Y0022029D01*
X0125199Y0021341D02*
X0125199Y0019965D01*
X0124511Y0019277D01*
X0122447Y0019277D01*
X0122447Y0017901D02*
X0122447Y0022029D01*
X0124511Y0022029D01*
X0125199Y0021341D01*
X0129549Y0022029D02*
X0129549Y0018589D01*
X0120849Y0017901D02*
X0120849Y0022029D01*
X0118097Y0022029D02*
X0120849Y0017901D01*
X0118097Y0017901D02*
X0118097Y0022029D01*
X0116573Y0022029D02*
X0115197Y0022029D01*
X0115885Y0022029D02*
X0115885Y0017901D01*
X0115197Y0017901D02*
X0116573Y0017901D01*
X0109397Y0017901D02*
X0109397Y0022029D01*
X0103448Y0019965D02*
X0100696Y0019965D01*
D13*
X0149554Y0054465D02*
X0149898Y0054465D01*
X0150242Y0054809D01*
X0150242Y0056529D01*
X0149210Y0056529D01*
X0148866Y0056185D01*
X0148866Y0055497D01*
X0149210Y0055153D01*
X0150242Y0055153D01*
X0148067Y0055153D02*
X0148067Y0056185D01*
X0147723Y0056529D01*
X0146691Y0056529D01*
X0146691Y0055153D01*
X0145929Y0055153D02*
X0145241Y0055153D01*
X0145585Y0055153D02*
X0145585Y0056529D01*
X0145241Y0056529D01*
X0145585Y0057217D02*
X0145585Y0057561D01*
X0144442Y0056529D02*
X0143410Y0056529D01*
X0143066Y0056185D01*
X0143410Y0055841D01*
X0144098Y0055841D01*
X0144442Y0055497D01*
X0144098Y0055153D01*
X0143066Y0055153D01*
X0142267Y0055153D02*
X0142267Y0056529D01*
X0142267Y0055153D02*
X0141235Y0055153D01*
X0140891Y0055497D01*
X0140891Y0056529D01*
X0137953Y0056529D02*
X0137265Y0056529D01*
X0137609Y0056873D02*
X0137609Y0055497D01*
X0137953Y0055153D01*
X0136466Y0055497D02*
X0136466Y0056185D01*
X0136122Y0056529D01*
X0135434Y0056529D01*
X0135090Y0056185D01*
X0135090Y0055497D01*
X0135434Y0055153D01*
X0136122Y0055153D01*
X0136466Y0055497D01*
X0134291Y0055153D02*
X0134291Y0056185D01*
X0133947Y0056529D01*
X0132915Y0056529D01*
X0132915Y0055153D01*
X0129978Y0056185D02*
X0129290Y0056185D01*
X0129634Y0056873D02*
X0129978Y0057217D01*
X0129634Y0056873D02*
X0129634Y0055153D01*
X0128528Y0055153D02*
X0127840Y0055153D01*
X0128184Y0055153D02*
X0128184Y0056529D01*
X0127840Y0056529D01*
X0128184Y0057217D02*
X0128184Y0057561D01*
X0124903Y0056529D02*
X0124215Y0056529D01*
X0124559Y0056873D02*
X0124559Y0055497D01*
X0124903Y0055153D01*
X0123416Y0055153D02*
X0122384Y0055153D01*
X0122040Y0055497D01*
X0122040Y0056185D01*
X0122384Y0056529D01*
X0123416Y0056529D01*
X0121241Y0056185D02*
X0121241Y0055841D01*
X0119865Y0055841D01*
X0119865Y0055497D02*
X0119865Y0056185D01*
X0120209Y0056529D01*
X0120897Y0056529D01*
X0121241Y0056185D01*
X0120897Y0055153D02*
X0120209Y0055153D01*
X0119865Y0055497D01*
X0119084Y0056529D02*
X0118740Y0056529D01*
X0118052Y0055841D01*
X0118052Y0055153D02*
X0118052Y0056529D01*
X0116946Y0056529D02*
X0116946Y0055153D01*
X0116602Y0055153D02*
X0117290Y0055153D01*
X0116946Y0056529D02*
X0116602Y0056529D01*
X0116946Y0057217D02*
X0116946Y0057561D01*
X0115803Y0057217D02*
X0115803Y0055153D01*
X0114771Y0055153D01*
X0114427Y0055497D01*
X0114427Y0056185D01*
X0114771Y0056529D01*
X0115803Y0056529D01*
X0111471Y0056529D02*
X0111127Y0056529D01*
X0110439Y0055841D01*
X0110439Y0055153D02*
X0110439Y0056529D01*
X0109640Y0056185D02*
X0109640Y0055841D01*
X0108264Y0055841D01*
X0108264Y0055497D02*
X0108264Y0056185D01*
X0108608Y0056529D01*
X0109296Y0056529D01*
X0109640Y0056185D01*
X0109296Y0055153D02*
X0108608Y0055153D01*
X0108264Y0055497D01*
X0107465Y0055153D02*
X0106433Y0055153D01*
X0106089Y0055497D01*
X0106089Y0056185D01*
X0106433Y0056529D01*
X0107465Y0056529D01*
X0107465Y0057217D02*
X0107465Y0055153D01*
X0105327Y0055153D02*
X0104639Y0055153D01*
X0104983Y0055153D02*
X0104983Y0057217D01*
X0104639Y0057217D01*
X0103840Y0056185D02*
X0103496Y0056529D01*
X0102808Y0056529D01*
X0102464Y0056185D01*
X0102464Y0055497D01*
X0102808Y0055153D01*
X0103496Y0055153D01*
X0103840Y0055497D01*
X0103840Y0056185D01*
X0101665Y0055841D02*
X0101665Y0055497D01*
X0101321Y0055153D01*
X0100633Y0055153D01*
X0100289Y0055497D01*
X0100633Y0056185D02*
X0101321Y0056185D01*
X0101665Y0055841D01*
X0101665Y0056873D02*
X0101321Y0057217D01*
X0100633Y0057217D01*
X0100289Y0056873D01*
X0100289Y0056529D01*
X0100633Y0056185D01*
X0153216Y0057217D02*
X0154592Y0055153D01*
X0153216Y0055153D02*
X0154592Y0057217D01*
X0155391Y0057217D02*
X0156767Y0057217D01*
X0156079Y0057217D02*
X0156079Y0055153D01*
X0157566Y0055497D02*
X0157566Y0056185D01*
X0158598Y0056185D01*
X0158942Y0055841D01*
X0158942Y0055497D01*
X0158598Y0055153D01*
X0157910Y0055153D01*
X0157566Y0055497D01*
X0157566Y0056185D02*
X0158254Y0056873D01*
X0158942Y0057217D01*
X0159741Y0056873D02*
X0160085Y0057217D01*
X0160773Y0057217D01*
X0161117Y0056873D01*
X0159741Y0055497D01*
X0160085Y0055153D01*
X0160773Y0055153D01*
X0161117Y0055497D01*
X0161117Y0056873D01*
X0159741Y0056873D02*
X0159741Y0055497D01*
D14*
X0169291Y0056303D02*
X0172291Y0056303D01*
X0175291Y0056303D01*
X0175291Y0053803D02*
X0172291Y0053803D01*
X0169291Y0053803D01*
X0157464Y0038205D02*
X0157464Y0032438D01*
X0154580Y0035321D02*
X0160347Y0035321D01*
X0085673Y0037153D02*
X0085673Y0031386D01*
X0072929Y0053703D02*
X0069929Y0053703D01*
X0066929Y0053703D01*
X0066929Y0056203D02*
X0069929Y0056203D01*
X0072929Y0056203D01*
X0147469Y0079562D02*
X0147469Y0082562D01*
X0147469Y0085562D01*
X0149969Y0085562D02*
X0149969Y0082562D01*
X0149969Y0079562D01*
D15*
X0128571Y0063073D03*
X0128571Y0062286D03*
X0126169Y0062286D03*
X0126169Y0063073D03*
X0123807Y0061971D03*
X0117469Y0061971D03*
X0117547Y0063388D03*
X0114594Y0062522D03*
X0114594Y0062483D03*
X0114555Y0062640D03*
X0114516Y0062759D03*
X0114516Y0062798D03*
X0114122Y0062837D03*
X0114122Y0062877D03*
X0114083Y0062798D03*
X0114083Y0062759D03*
X0114083Y0062719D03*
X0114043Y0062640D03*
X0114043Y0062601D03*
X0114043Y0062562D03*
X0114004Y0062522D03*
X0114004Y0062483D03*
X0112114Y0062483D03*
X0112114Y0062522D03*
X0112075Y0062640D03*
X0112035Y0062759D03*
X0112035Y0062798D03*
X0111642Y0062837D03*
X0111642Y0062877D03*
X0111602Y0062798D03*
X0111602Y0062759D03*
X0111602Y0062719D03*
X0111563Y0062640D03*
X0111563Y0062601D03*
X0111563Y0062562D03*
X0111524Y0062522D03*
X0111524Y0062483D03*
X0109634Y0062483D03*
X0109634Y0062522D03*
X0109594Y0062640D03*
X0109555Y0062759D03*
X0109555Y0062798D03*
X0109161Y0062837D03*
X0109161Y0062877D03*
X0109122Y0062798D03*
X0109122Y0062759D03*
X0109122Y0062719D03*
X0109083Y0062640D03*
X0109083Y0062601D03*
X0109083Y0062562D03*
X0109043Y0062522D03*
X0109043Y0062483D03*
X0132114Y0061971D03*
D16*
X0129673Y0061971D03*
X0129673Y0063388D03*
X0119083Y0063388D03*
X0119083Y0061971D03*
X0115146Y0062955D03*
X0115106Y0062837D03*
X0115106Y0062798D03*
X0115067Y0062719D03*
X0115067Y0062680D03*
X0115067Y0062640D03*
X0115028Y0062601D03*
X0115028Y0062562D03*
X0115028Y0062522D03*
X0115028Y0062483D03*
X0114319Y0063349D03*
X0113531Y0062719D03*
X0113571Y0062601D03*
X0113571Y0062562D03*
X0112626Y0062798D03*
X0112626Y0062837D03*
X0112587Y0062719D03*
X0112587Y0062680D03*
X0112587Y0062640D03*
X0112547Y0062601D03*
X0112547Y0062562D03*
X0112547Y0062522D03*
X0112547Y0062483D03*
X0112665Y0062955D03*
X0111839Y0063349D03*
X0111051Y0062719D03*
X0111091Y0062601D03*
X0111091Y0062562D03*
X0110146Y0062798D03*
X0110146Y0062837D03*
X0110106Y0062719D03*
X0110106Y0062680D03*
X0110106Y0062640D03*
X0110067Y0062601D03*
X0110067Y0062562D03*
X0110067Y0062522D03*
X0110067Y0062483D03*
X0110185Y0062955D03*
X0109358Y0063349D03*
X0108571Y0062719D03*
X0108610Y0062601D03*
X0108610Y0062562D03*
D17*
X0108630Y0062522D03*
X0108630Y0062483D03*
X0108591Y0062640D03*
X0108591Y0062680D03*
X0108551Y0062759D03*
X0108551Y0062798D03*
X0108551Y0062837D03*
X0108512Y0062877D03*
X0108512Y0062916D03*
X0108512Y0062955D03*
X0108472Y0063034D03*
X0108472Y0063073D03*
X0108472Y0063113D03*
X0108433Y0063192D03*
X0108433Y0063231D03*
X0108394Y0063349D03*
X0109339Y0063310D03*
X0110205Y0063073D03*
X0110205Y0063034D03*
X0110205Y0062995D03*
X0110165Y0062916D03*
X0110165Y0062877D03*
X0110126Y0062759D03*
X0110244Y0063113D03*
X0110244Y0063152D03*
X0110244Y0063192D03*
X0110244Y0063231D03*
X0110283Y0063310D03*
X0110283Y0063349D03*
X0110874Y0063349D03*
X0110913Y0063231D03*
X0110913Y0063192D03*
X0110953Y0063113D03*
X0110953Y0063073D03*
X0110953Y0063034D03*
X0110992Y0062955D03*
X0110992Y0062916D03*
X0110992Y0062877D03*
X0111031Y0062837D03*
X0111031Y0062798D03*
X0111031Y0062759D03*
X0111071Y0062680D03*
X0111071Y0062640D03*
X0111110Y0062522D03*
X0111110Y0062483D03*
X0111819Y0063310D03*
X0112685Y0063073D03*
X0112685Y0063034D03*
X0112685Y0062995D03*
X0112646Y0062916D03*
X0112646Y0062877D03*
X0112606Y0062759D03*
X0112724Y0063113D03*
X0112724Y0063152D03*
X0112724Y0063192D03*
X0112724Y0063231D03*
X0112764Y0063310D03*
X0112764Y0063349D03*
X0113354Y0063349D03*
X0113394Y0063231D03*
X0113394Y0063192D03*
X0113433Y0063113D03*
X0113433Y0063073D03*
X0113433Y0063034D03*
X0113472Y0062955D03*
X0113472Y0062916D03*
X0113472Y0062877D03*
X0113512Y0062837D03*
X0113512Y0062798D03*
X0113512Y0062759D03*
X0113551Y0062680D03*
X0113551Y0062640D03*
X0113591Y0062522D03*
X0113591Y0062483D03*
X0114299Y0063310D03*
X0115165Y0063073D03*
X0115165Y0063034D03*
X0115165Y0062995D03*
X0115126Y0062916D03*
X0115126Y0062877D03*
X0115087Y0062759D03*
X0115205Y0063113D03*
X0115205Y0063152D03*
X0115205Y0063192D03*
X0115205Y0063231D03*
X0115244Y0063310D03*
X0115244Y0063349D03*
X0115992Y0062444D03*
X0115992Y0062404D03*
X0115992Y0062365D03*
X0115992Y0062325D03*
X0115992Y0062286D03*
X0115992Y0062247D03*
X0115992Y0062207D03*
X0115992Y0062168D03*
X0115992Y0062129D03*
X0115992Y0062089D03*
X0115992Y0062050D03*
X0115992Y0062010D03*
X0116858Y0062010D03*
X0117843Y0062444D03*
X0117882Y0062601D03*
X0117882Y0062640D03*
X0117882Y0062680D03*
X0117882Y0062719D03*
X0117882Y0062759D03*
X0118551Y0062759D03*
X0118551Y0062719D03*
X0118551Y0062680D03*
X0118551Y0062640D03*
X0118551Y0062601D03*
X0118591Y0062444D03*
X0118591Y0062916D03*
X0119575Y0062916D03*
X0119614Y0062759D03*
X0119614Y0062719D03*
X0119614Y0062680D03*
X0119614Y0062640D03*
X0119614Y0062601D03*
X0119575Y0062444D03*
X0120402Y0062444D03*
X0120402Y0062483D03*
X0120402Y0062522D03*
X0120402Y0062562D03*
X0120402Y0062601D03*
X0120402Y0062640D03*
X0120402Y0062680D03*
X0120402Y0062719D03*
X0120402Y0062759D03*
X0120402Y0062798D03*
X0120402Y0062837D03*
X0120402Y0062877D03*
X0120402Y0062916D03*
X0120402Y0062955D03*
X0120402Y0062995D03*
X0120402Y0063034D03*
X0120402Y0063388D03*
X0120402Y0063428D03*
X0120402Y0063467D03*
X0120402Y0063507D03*
X0120441Y0063546D03*
X0121465Y0063507D03*
X0121465Y0063467D03*
X0121465Y0063428D03*
X0121465Y0063388D03*
X0121504Y0063546D03*
X0121465Y0063034D03*
X0121465Y0062995D03*
X0121465Y0062955D03*
X0121465Y0062916D03*
X0121465Y0062877D03*
X0121465Y0062837D03*
X0121465Y0062798D03*
X0121465Y0062759D03*
X0121465Y0062719D03*
X0121465Y0062680D03*
X0121465Y0062640D03*
X0121465Y0062601D03*
X0121465Y0062562D03*
X0121465Y0062522D03*
X0121465Y0062483D03*
X0121465Y0062444D03*
X0121465Y0062404D03*
X0121465Y0062365D03*
X0121465Y0062325D03*
X0121465Y0062286D03*
X0121465Y0062247D03*
X0121465Y0062207D03*
X0121465Y0062168D03*
X0121465Y0062129D03*
X0121465Y0062089D03*
X0121465Y0062050D03*
X0121465Y0062010D03*
X0120402Y0062010D03*
X0120402Y0062050D03*
X0120402Y0062089D03*
X0120402Y0062129D03*
X0120402Y0062168D03*
X0120402Y0062207D03*
X0120402Y0062247D03*
X0120402Y0062286D03*
X0120402Y0062325D03*
X0120402Y0062365D03*
X0120402Y0062404D03*
X0122528Y0062404D03*
X0122528Y0062444D03*
X0122528Y0062483D03*
X0122528Y0062522D03*
X0122528Y0062562D03*
X0122528Y0062601D03*
X0122528Y0062640D03*
X0122528Y0062680D03*
X0122528Y0062719D03*
X0122528Y0062759D03*
X0122528Y0062798D03*
X0122528Y0062837D03*
X0122528Y0062877D03*
X0122528Y0062916D03*
X0122528Y0062955D03*
X0122528Y0062995D03*
X0122528Y0063034D03*
X0122528Y0063388D03*
X0122528Y0063428D03*
X0122528Y0063467D03*
X0122528Y0063507D03*
X0122528Y0063546D03*
X0122528Y0063585D03*
X0122528Y0063625D03*
X0122528Y0063664D03*
X0122528Y0063703D03*
X0122528Y0063743D03*
X0123551Y0062483D03*
X0123551Y0062444D03*
X0123551Y0062404D03*
X0123551Y0062365D03*
X0122843Y0061971D03*
X0124496Y0062010D03*
X0124496Y0062050D03*
X0124496Y0062089D03*
X0124496Y0062365D03*
X0124496Y0062404D03*
X0124496Y0062444D03*
X0124496Y0062483D03*
X0124496Y0062522D03*
X0124496Y0062562D03*
X0124496Y0062601D03*
X0124496Y0062916D03*
X0124496Y0062955D03*
X0125244Y0062719D03*
X0125244Y0062680D03*
X0125244Y0062640D03*
X0125835Y0061971D03*
X0126858Y0062010D03*
X0126858Y0062050D03*
X0126858Y0062089D03*
X0126858Y0062129D03*
X0126858Y0062168D03*
X0126858Y0062207D03*
X0126858Y0062247D03*
X0126858Y0062286D03*
X0126858Y0062325D03*
X0126858Y0062365D03*
X0126858Y0062404D03*
X0126858Y0062444D03*
X0127646Y0062640D03*
X0127646Y0062680D03*
X0127646Y0062719D03*
X0128236Y0063388D03*
X0129181Y0062916D03*
X0129142Y0062759D03*
X0129142Y0062719D03*
X0129142Y0062680D03*
X0129142Y0062640D03*
X0129142Y0062601D03*
X0129181Y0062444D03*
X0130165Y0062444D03*
X0130205Y0062601D03*
X0130205Y0062640D03*
X0130205Y0062680D03*
X0130205Y0062719D03*
X0130205Y0062759D03*
X0130165Y0062916D03*
X0130992Y0062444D03*
X0130992Y0062404D03*
X0130992Y0062365D03*
X0130992Y0062325D03*
X0130992Y0062286D03*
X0130992Y0062247D03*
X0130992Y0062207D03*
X0130992Y0062168D03*
X0130992Y0062129D03*
X0130992Y0062089D03*
X0130992Y0062050D03*
X0130992Y0062010D03*
X0131858Y0062562D03*
X0131858Y0062601D03*
X0131858Y0062640D03*
X0131858Y0062680D03*
X0131858Y0062719D03*
X0131858Y0062759D03*
X0131858Y0062798D03*
X0131858Y0062837D03*
X0131858Y0062877D03*
X0131858Y0062916D03*
X0131858Y0062955D03*
X0131858Y0062995D03*
X0131858Y0063034D03*
X0131858Y0063073D03*
X0131858Y0063113D03*
X0131858Y0063152D03*
X0131858Y0063192D03*
X0131858Y0063231D03*
X0131858Y0063270D03*
X0131858Y0063310D03*
X0131858Y0063349D03*
X0128236Y0061971D03*
X0125835Y0063388D03*
D18*
X0125303Y0062955D03*
X0125303Y0062916D03*
X0125264Y0062877D03*
X0125264Y0062837D03*
X0125264Y0062798D03*
X0125264Y0062759D03*
X0125264Y0062601D03*
X0125264Y0062562D03*
X0125264Y0062522D03*
X0125264Y0062483D03*
X0125303Y0062444D03*
X0125303Y0062404D03*
X0124476Y0062325D03*
X0124476Y0062995D03*
X0123571Y0062522D03*
X0123571Y0062325D03*
X0122547Y0062325D03*
X0122547Y0062365D03*
X0121524Y0063585D03*
X0121839Y0063900D03*
X0120776Y0063900D03*
X0120461Y0063585D03*
X0119555Y0062995D03*
X0119555Y0062955D03*
X0119594Y0062877D03*
X0119594Y0062837D03*
X0119594Y0062798D03*
X0119594Y0062562D03*
X0119594Y0062522D03*
X0119594Y0062483D03*
X0119555Y0062404D03*
X0119555Y0062365D03*
X0119516Y0062325D03*
X0119516Y0063034D03*
X0118650Y0063034D03*
X0118610Y0062995D03*
X0118610Y0062955D03*
X0118571Y0062877D03*
X0118571Y0062837D03*
X0118571Y0062798D03*
X0118571Y0062562D03*
X0118571Y0062522D03*
X0118571Y0062483D03*
X0118610Y0062404D03*
X0118610Y0062365D03*
X0118650Y0062325D03*
X0117862Y0062483D03*
X0117862Y0062522D03*
X0117862Y0062562D03*
X0117823Y0062404D03*
X0117862Y0062798D03*
X0117862Y0062837D03*
X0117862Y0062877D03*
X0117862Y0062916D03*
X0117823Y0062955D03*
X0116878Y0062955D03*
X0116878Y0062916D03*
X0116878Y0062877D03*
X0116878Y0062837D03*
X0116878Y0062798D03*
X0116878Y0062759D03*
X0116878Y0062719D03*
X0116878Y0062680D03*
X0116878Y0062640D03*
X0116878Y0062601D03*
X0116878Y0062562D03*
X0116878Y0062522D03*
X0116878Y0062483D03*
X0116878Y0062444D03*
X0116878Y0062404D03*
X0116878Y0062365D03*
X0116878Y0062325D03*
X0116878Y0062286D03*
X0116878Y0062995D03*
X0116878Y0063270D03*
X0116878Y0063310D03*
X0116878Y0063349D03*
X0116878Y0063388D03*
X0116878Y0063428D03*
X0116878Y0063467D03*
X0116878Y0063507D03*
X0116878Y0063546D03*
X0116878Y0063585D03*
X0116878Y0063625D03*
X0116878Y0063664D03*
X0116878Y0063703D03*
X0116878Y0063743D03*
X0116878Y0063782D03*
X0116878Y0063822D03*
X0116878Y0063861D03*
X0116878Y0063900D03*
X0115224Y0063270D03*
X0114319Y0063270D03*
X0114319Y0063231D03*
X0114319Y0063192D03*
X0113453Y0062995D03*
X0113413Y0063152D03*
X0113374Y0063270D03*
X0113374Y0063310D03*
X0112744Y0063270D03*
X0111839Y0063270D03*
X0111839Y0063231D03*
X0111839Y0063192D03*
X0110972Y0062995D03*
X0110933Y0063152D03*
X0110894Y0063270D03*
X0110894Y0063310D03*
X0110264Y0063270D03*
X0109358Y0063270D03*
X0109358Y0063231D03*
X0109358Y0063192D03*
X0108492Y0062995D03*
X0108453Y0063152D03*
X0108413Y0063270D03*
X0108413Y0063310D03*
X0108807Y0062010D03*
X0109870Y0062010D03*
X0111287Y0062010D03*
X0112350Y0062010D03*
X0113768Y0062010D03*
X0114831Y0062010D03*
X0127665Y0062483D03*
X0127665Y0062522D03*
X0127665Y0062562D03*
X0127665Y0062601D03*
X0127665Y0062759D03*
X0127665Y0062798D03*
X0127665Y0062837D03*
X0127665Y0062877D03*
X0127705Y0062916D03*
X0127705Y0062955D03*
X0127705Y0062444D03*
X0127705Y0062404D03*
X0129161Y0062483D03*
X0129161Y0062522D03*
X0129161Y0062562D03*
X0129201Y0062404D03*
X0129201Y0062365D03*
X0129240Y0062325D03*
X0129161Y0062798D03*
X0129161Y0062837D03*
X0129161Y0062877D03*
X0129201Y0062955D03*
X0129201Y0062995D03*
X0129240Y0063034D03*
X0130106Y0063034D03*
X0130146Y0062995D03*
X0130146Y0062955D03*
X0130185Y0062877D03*
X0130185Y0062837D03*
X0130185Y0062798D03*
X0130185Y0062562D03*
X0130185Y0062522D03*
X0130185Y0062483D03*
X0130146Y0062404D03*
X0130146Y0062365D03*
X0130106Y0062325D03*
X0131878Y0062404D03*
X0131878Y0062444D03*
X0131878Y0062483D03*
X0131878Y0062522D03*
X0132823Y0062522D03*
X0132823Y0062483D03*
X0132823Y0062444D03*
X0132823Y0062404D03*
X0132823Y0062562D03*
X0132823Y0062601D03*
X0132823Y0062640D03*
X0132823Y0062680D03*
X0132823Y0062719D03*
X0132823Y0062759D03*
X0132823Y0062798D03*
X0132823Y0062837D03*
X0132823Y0062877D03*
X0132823Y0062916D03*
X0132823Y0062955D03*
X0132823Y0062995D03*
X0132823Y0063034D03*
X0132823Y0063073D03*
X0132823Y0063113D03*
X0132823Y0063152D03*
X0132823Y0063192D03*
X0132823Y0063231D03*
X0132823Y0063270D03*
X0132823Y0063310D03*
X0132823Y0063349D03*
X0133689Y0063349D03*
X0133689Y0063310D03*
X0133689Y0063270D03*
X0133689Y0063231D03*
X0133689Y0063192D03*
X0133689Y0063152D03*
X0133689Y0063113D03*
X0133689Y0063073D03*
X0133689Y0063034D03*
X0133689Y0062995D03*
X0133689Y0062955D03*
X0133689Y0062916D03*
X0133689Y0062877D03*
X0133689Y0062837D03*
X0133689Y0062483D03*
X0133689Y0062444D03*
X0133689Y0062404D03*
X0133689Y0062365D03*
X0133689Y0062325D03*
X0133689Y0062286D03*
X0133689Y0062247D03*
X0133689Y0062207D03*
X0133689Y0062168D03*
X0133689Y0062129D03*
X0133689Y0062089D03*
X0133689Y0062050D03*
X0133689Y0062010D03*
X0134398Y0062404D03*
X0134358Y0062483D03*
X0134319Y0062522D03*
X0134476Y0062286D03*
X0134555Y0062168D03*
X0134201Y0062837D03*
X0134240Y0062877D03*
X0134280Y0062916D03*
X0134319Y0062955D03*
X0134398Y0063073D03*
X0134437Y0063113D03*
X0134594Y0063310D03*
X0133689Y0063388D03*
X0133689Y0063428D03*
X0133689Y0063467D03*
X0133689Y0063507D03*
X0133689Y0063546D03*
X0133689Y0063585D03*
X0133689Y0063625D03*
X0133689Y0063664D03*
X0133689Y0063703D03*
X0133689Y0063743D03*
X0133689Y0063782D03*
X0133689Y0063822D03*
X0133689Y0063861D03*
X0133689Y0063900D03*
X0132823Y0062089D03*
X0132823Y0062050D03*
X0132823Y0062010D03*
D19*
X0133728Y0062562D03*
X0130067Y0062286D03*
X0129280Y0062286D03*
X0129280Y0063073D03*
X0130067Y0063073D03*
X0124398Y0063073D03*
X0124004Y0063388D03*
X0123807Y0062010D03*
X0119476Y0062286D03*
X0118689Y0062286D03*
X0118689Y0063073D03*
X0119476Y0063073D03*
X0117469Y0062010D03*
X0114831Y0062129D03*
X0113768Y0062129D03*
X0114319Y0063073D03*
X0114319Y0063113D03*
X0112350Y0062129D03*
X0111287Y0062129D03*
X0111839Y0063073D03*
X0111839Y0063113D03*
X0109870Y0062129D03*
X0108807Y0062129D03*
X0109358Y0063073D03*
X0109358Y0063113D03*
D20*
X0109870Y0062404D03*
X0109870Y0062365D03*
X0108807Y0062365D03*
X0108807Y0062404D03*
X0111287Y0062404D03*
X0111287Y0062365D03*
X0112350Y0062365D03*
X0112350Y0062404D03*
X0113768Y0062404D03*
X0113768Y0062365D03*
X0114831Y0062365D03*
X0114831Y0062404D03*
X0119083Y0062010D03*
X0119083Y0063349D03*
X0124358Y0062877D03*
X0129673Y0063349D03*
X0129673Y0062010D03*
D21*
X0132134Y0062050D03*
X0125953Y0065869D03*
X0121780Y0063822D03*
X0120717Y0063822D03*
X0122843Y0062010D03*
X0123827Y0062050D03*
X0123709Y0062601D03*
X0120047Y0065869D03*
X0116583Y0065869D03*
X0114299Y0062916D03*
X0113787Y0062325D03*
X0113787Y0062286D03*
X0114811Y0062286D03*
X0114811Y0062325D03*
X0112331Y0062325D03*
X0112331Y0062286D03*
X0111819Y0062916D03*
X0111307Y0062325D03*
X0111307Y0062286D03*
X0109850Y0062286D03*
X0109850Y0062325D03*
X0109339Y0062916D03*
X0108827Y0062325D03*
X0108827Y0062286D03*
D22*
X0108827Y0062444D03*
X0109850Y0062444D03*
X0111307Y0062444D03*
X0112331Y0062444D03*
X0113787Y0062444D03*
X0114811Y0062444D03*
X0117528Y0063270D03*
X0120677Y0063743D03*
X0120677Y0063782D03*
X0121740Y0063782D03*
X0121740Y0063743D03*
X0122803Y0062050D03*
X0123827Y0062089D03*
X0125835Y0062010D03*
X0125835Y0063349D03*
X0128236Y0063349D03*
X0128236Y0062010D03*
X0132134Y0062089D03*
D23*
X0132134Y0062010D03*
X0131937Y0062325D03*
X0131898Y0062365D03*
X0132803Y0062365D03*
X0133709Y0062522D03*
X0134299Y0062562D03*
X0134378Y0062444D03*
X0134417Y0062365D03*
X0134457Y0062325D03*
X0134496Y0062247D03*
X0134535Y0062207D03*
X0134575Y0062129D03*
X0134614Y0062089D03*
X0134654Y0062050D03*
X0134654Y0062010D03*
X0134339Y0062995D03*
X0134378Y0063034D03*
X0134457Y0063152D03*
X0134496Y0063192D03*
X0134535Y0063231D03*
X0134575Y0063270D03*
X0134614Y0063349D03*
X0127764Y0063034D03*
X0127724Y0062995D03*
X0127724Y0062365D03*
X0127764Y0062325D03*
X0125362Y0062325D03*
X0125323Y0062365D03*
X0125323Y0062995D03*
X0125362Y0063034D03*
X0124457Y0063034D03*
X0123630Y0062562D03*
X0123591Y0062286D03*
X0122567Y0062286D03*
X0117803Y0062365D03*
X0117764Y0062325D03*
X0117803Y0062995D03*
X0117567Y0063349D03*
X0114811Y0062089D03*
X0114811Y0062050D03*
X0113787Y0062050D03*
X0113787Y0062089D03*
X0114299Y0063152D03*
X0112331Y0062089D03*
X0112331Y0062050D03*
X0111307Y0062050D03*
X0111307Y0062089D03*
X0111819Y0063152D03*
X0109850Y0062089D03*
X0109850Y0062050D03*
X0108827Y0062050D03*
X0108827Y0062089D03*
X0109339Y0063152D03*
D24*
X0117213Y0062050D03*
X0124024Y0063231D03*
X0125756Y0063152D03*
X0125756Y0062207D03*
X0128157Y0062207D03*
X0128157Y0063152D03*
X0130087Y0066892D03*
X0130126Y0068034D03*
X0135441Y0069333D03*
X0135480Y0066892D03*
X0137331Y0066892D03*
X0120165Y0070593D03*
X0116701Y0070593D03*
X0114811Y0066892D03*
X0109890Y0066892D03*
X0108118Y0066932D03*
X0108079Y0066892D03*
X0108118Y0067995D03*
X0108079Y0068034D03*
X0108000Y0069294D03*
X0108039Y0070514D03*
X0108000Y0070554D03*
D25*
X0116563Y0065948D03*
X0120028Y0065948D03*
X0119083Y0063310D03*
X0119083Y0062050D03*
X0122744Y0062247D03*
X0129673Y0062050D03*
X0129673Y0063310D03*
D26*
X0128236Y0063310D03*
X0128236Y0062050D03*
X0125835Y0062050D03*
X0125835Y0063310D03*
X0125953Y0065948D03*
X0120047Y0065987D03*
X0116583Y0065987D03*
D27*
X0114772Y0066814D03*
X0109929Y0066814D03*
X0108039Y0066853D03*
X0108000Y0066814D03*
X0108039Y0068113D03*
X0109929Y0069333D03*
X0107961Y0070593D03*
X0114772Y0069333D03*
X0116780Y0070672D03*
X0120244Y0070672D03*
X0130165Y0068073D03*
X0130165Y0066814D03*
X0135402Y0066814D03*
X0137370Y0066814D03*
X0137370Y0069333D03*
X0135402Y0069373D03*
X0124063Y0063152D03*
X0124063Y0063113D03*
X0124102Y0062719D03*
X0119102Y0062207D03*
X0117252Y0062089D03*
X0129693Y0062207D03*
D28*
X0129673Y0062089D03*
X0129673Y0063270D03*
X0133925Y0062798D03*
X0133925Y0062759D03*
X0125972Y0065987D03*
X0123965Y0063349D03*
X0124240Y0062837D03*
X0119083Y0063270D03*
X0119083Y0062089D03*
X0120028Y0066026D03*
X0116563Y0066026D03*
D29*
X0116563Y0065908D03*
X0120028Y0065908D03*
X0120657Y0063703D03*
X0121720Y0063703D03*
X0122783Y0062129D03*
X0122783Y0062089D03*
D30*
X0125815Y0062089D03*
X0125815Y0063270D03*
X0128217Y0063270D03*
X0128217Y0062089D03*
X0133965Y0062640D03*
X0133965Y0062680D03*
X0125972Y0066066D03*
X0125972Y0066105D03*
X0125972Y0066144D03*
X0125972Y0066184D03*
X0125972Y0066223D03*
X0125972Y0066262D03*
X0125972Y0066302D03*
X0125972Y0066341D03*
X0125972Y0066381D03*
X0125972Y0066420D03*
X0125972Y0066459D03*
X0125972Y0066499D03*
X0125972Y0066538D03*
X0125972Y0066577D03*
X0125972Y0066617D03*
X0125972Y0066656D03*
X0125972Y0066696D03*
X0125972Y0066735D03*
X0125972Y0066774D03*
X0125972Y0066814D03*
X0125972Y0066853D03*
X0125972Y0066892D03*
X0125972Y0066932D03*
X0125972Y0066971D03*
X0125972Y0067010D03*
X0125972Y0067050D03*
X0125972Y0067089D03*
X0125972Y0067129D03*
X0125972Y0067168D03*
X0125972Y0067207D03*
X0125972Y0067247D03*
X0125972Y0067286D03*
X0125972Y0067325D03*
X0125972Y0067365D03*
X0125972Y0067404D03*
X0125972Y0067444D03*
X0125972Y0067483D03*
X0125972Y0067522D03*
X0125972Y0067562D03*
X0125972Y0067601D03*
X0125972Y0067640D03*
X0125972Y0067680D03*
X0125972Y0067719D03*
X0125972Y0067759D03*
X0125972Y0067798D03*
X0125972Y0067837D03*
X0125972Y0067877D03*
X0125972Y0067916D03*
X0125972Y0067955D03*
X0125972Y0067995D03*
X0125972Y0068034D03*
X0125972Y0068073D03*
X0125972Y0068113D03*
X0125972Y0068152D03*
X0125972Y0068192D03*
X0125972Y0068231D03*
X0125972Y0068270D03*
X0125972Y0068310D03*
X0125972Y0068349D03*
X0125972Y0068388D03*
X0125972Y0068428D03*
X0125972Y0068467D03*
X0125972Y0068507D03*
X0125972Y0068546D03*
X0125972Y0068585D03*
X0125972Y0068625D03*
X0125972Y0068664D03*
X0125972Y0068703D03*
X0125972Y0068743D03*
X0125972Y0068782D03*
X0125972Y0068822D03*
X0125972Y0068861D03*
X0125972Y0068900D03*
X0125972Y0068940D03*
X0125972Y0068979D03*
X0125972Y0069018D03*
X0125972Y0069058D03*
X0125972Y0069097D03*
X0125972Y0069136D03*
X0125972Y0069176D03*
X0125972Y0069215D03*
X0125972Y0069255D03*
X0125972Y0069294D03*
X0125972Y0069333D03*
X0125972Y0069373D03*
X0125972Y0069412D03*
X0125972Y0069451D03*
X0125972Y0069491D03*
X0125972Y0069530D03*
X0125972Y0069570D03*
X0125972Y0069609D03*
X0125972Y0069648D03*
X0125972Y0069688D03*
X0125972Y0069727D03*
X0125972Y0069766D03*
X0125972Y0069806D03*
X0125972Y0069845D03*
X0125972Y0069885D03*
X0125972Y0069924D03*
X0125972Y0069963D03*
X0125972Y0070003D03*
X0125972Y0070042D03*
X0125972Y0070081D03*
X0125972Y0070121D03*
X0125972Y0070160D03*
X0125972Y0070199D03*
X0125972Y0070239D03*
X0125972Y0070278D03*
X0125972Y0070318D03*
X0125972Y0070357D03*
X0125972Y0070396D03*
X0125972Y0070436D03*
X0125972Y0070475D03*
X0125972Y0070514D03*
X0125972Y0070554D03*
X0125972Y0070593D03*
X0125972Y0070633D03*
X0125972Y0070672D03*
X0121760Y0071538D03*
X0120067Y0070436D03*
X0120067Y0070396D03*
X0118295Y0071538D03*
X0116602Y0070436D03*
X0116602Y0070396D03*
X0114909Y0069097D03*
X0114909Y0069058D03*
X0114909Y0067089D03*
X0114909Y0067050D03*
X0109791Y0067050D03*
X0109791Y0067089D03*
X0108217Y0067325D03*
X0108217Y0067365D03*
X0108217Y0067404D03*
X0108217Y0067444D03*
X0108217Y0067483D03*
X0108217Y0067522D03*
X0108217Y0067562D03*
X0108098Y0069451D03*
X0108098Y0069491D03*
X0108138Y0069530D03*
X0108138Y0069570D03*
X0108138Y0069609D03*
X0108177Y0069845D03*
X0108177Y0069885D03*
X0108177Y0069924D03*
X0108177Y0069963D03*
X0108177Y0070003D03*
X0108177Y0070042D03*
X0108138Y0070239D03*
X0108138Y0070278D03*
X0108138Y0070318D03*
X0108098Y0070396D03*
X0109791Y0069097D03*
X0109791Y0069058D03*
X0102154Y0069176D03*
X0102154Y0069215D03*
X0102154Y0069255D03*
X0102154Y0069294D03*
X0102154Y0069333D03*
X0102154Y0069373D03*
X0102154Y0069412D03*
X0102154Y0069451D03*
X0102154Y0069491D03*
X0102154Y0069530D03*
X0102154Y0069570D03*
X0102154Y0069609D03*
X0102154Y0069648D03*
X0102154Y0069688D03*
X0102154Y0069727D03*
X0102154Y0069766D03*
X0102154Y0069806D03*
X0102154Y0069845D03*
X0102154Y0069885D03*
X0102154Y0069924D03*
X0102154Y0069963D03*
X0102154Y0070003D03*
X0102154Y0070042D03*
X0102154Y0070081D03*
X0102154Y0070121D03*
X0102154Y0070160D03*
X0102154Y0070199D03*
X0102154Y0070239D03*
X0102154Y0070278D03*
X0102154Y0070318D03*
X0102154Y0070357D03*
X0102154Y0070396D03*
X0102154Y0070436D03*
X0102154Y0070475D03*
X0102154Y0070514D03*
X0102154Y0070554D03*
X0102154Y0070593D03*
X0102154Y0070633D03*
X0102154Y0070672D03*
X0102154Y0068270D03*
X0102154Y0068231D03*
X0102154Y0068192D03*
X0102154Y0068152D03*
X0102154Y0068113D03*
X0102154Y0068073D03*
X0102154Y0068034D03*
X0102154Y0067995D03*
X0102154Y0067955D03*
X0102154Y0067916D03*
X0102154Y0067877D03*
X0102154Y0067837D03*
X0102154Y0067798D03*
X0102154Y0067759D03*
X0102154Y0067719D03*
X0102154Y0067680D03*
X0102154Y0067640D03*
X0102154Y0067601D03*
X0102154Y0067562D03*
X0102154Y0067522D03*
X0102154Y0067483D03*
X0102154Y0067444D03*
X0102154Y0067404D03*
X0102154Y0067365D03*
X0102154Y0067325D03*
X0102154Y0067286D03*
X0102154Y0067247D03*
X0102154Y0067207D03*
X0102154Y0067168D03*
X0102154Y0067129D03*
X0102154Y0067089D03*
X0102154Y0067050D03*
X0102154Y0067010D03*
X0102154Y0066971D03*
X0102154Y0066932D03*
X0102154Y0066892D03*
X0102154Y0066853D03*
X0102154Y0066814D03*
X0102154Y0066774D03*
X0102154Y0066735D03*
X0102154Y0066696D03*
X0130028Y0067010D03*
X0130028Y0067050D03*
X0130028Y0067837D03*
X0130028Y0067877D03*
X0135539Y0067010D03*
X0135579Y0067050D03*
X0135579Y0067089D03*
X0135579Y0067129D03*
X0137232Y0067089D03*
X0137232Y0067050D03*
X0137232Y0069058D03*
X0137232Y0069097D03*
X0135579Y0069097D03*
X0135539Y0069215D03*
D31*
X0133610Y0070278D03*
X0130224Y0068113D03*
X0129673Y0063152D03*
X0129673Y0063113D03*
X0129673Y0062247D03*
X0124083Y0062680D03*
X0119083Y0063113D03*
X0119083Y0063152D03*
X0119083Y0062247D03*
X0117272Y0062129D03*
X0107980Y0068152D03*
D32*
X0108138Y0067955D03*
X0108138Y0067916D03*
X0108177Y0067837D03*
X0108177Y0067089D03*
X0108138Y0067010D03*
X0108138Y0066971D03*
X0109831Y0066932D03*
X0109831Y0069215D03*
X0109870Y0069255D03*
X0108059Y0069373D03*
X0108020Y0069333D03*
X0108059Y0070475D03*
X0114831Y0069255D03*
X0114870Y0069215D03*
X0116681Y0070554D03*
X0120146Y0070554D03*
X0114870Y0066932D03*
X0119083Y0063231D03*
X0119083Y0062129D03*
X0124004Y0063270D03*
X0124161Y0062798D03*
X0125776Y0063192D03*
X0125776Y0062168D03*
X0128177Y0062168D03*
X0128177Y0063192D03*
X0129673Y0063231D03*
X0129673Y0062129D03*
X0130067Y0066932D03*
X0130067Y0067955D03*
X0130106Y0067995D03*
X0135500Y0066932D03*
X0137272Y0066932D03*
X0137272Y0069215D03*
X0137311Y0069255D03*
X0135500Y0069294D03*
D33*
X0135362Y0069412D03*
X0137409Y0069373D03*
X0137409Y0066774D03*
X0135362Y0066774D03*
X0130205Y0066774D03*
X0124063Y0062640D03*
X0124063Y0062129D03*
X0117291Y0062168D03*
X0117291Y0063231D03*
X0114732Y0066774D03*
X0109969Y0066774D03*
X0109969Y0069373D03*
X0107882Y0069215D03*
X0114732Y0069373D03*
D34*
X0114890Y0069176D03*
X0114890Y0069136D03*
X0116622Y0070475D03*
X0116661Y0070514D03*
X0120087Y0070475D03*
X0120126Y0070514D03*
X0125953Y0070711D03*
X0130047Y0067916D03*
X0130047Y0066971D03*
X0135520Y0066971D03*
X0137252Y0066971D03*
X0137252Y0067010D03*
X0137252Y0069136D03*
X0137252Y0069176D03*
X0135520Y0069255D03*
X0128197Y0063231D03*
X0128197Y0062129D03*
X0125795Y0062129D03*
X0125795Y0063231D03*
X0123984Y0063310D03*
X0122646Y0063310D03*
X0122646Y0063349D03*
X0122646Y0063270D03*
X0122646Y0063231D03*
X0122646Y0063192D03*
X0122646Y0063152D03*
X0122646Y0063113D03*
X0122646Y0063073D03*
X0114890Y0066971D03*
X0114890Y0067010D03*
X0109811Y0067010D03*
X0109811Y0066971D03*
X0108197Y0067129D03*
X0108197Y0067168D03*
X0108197Y0067207D03*
X0108197Y0067247D03*
X0108197Y0067286D03*
X0108157Y0067050D03*
X0108197Y0067601D03*
X0108197Y0067640D03*
X0108197Y0067680D03*
X0108197Y0067719D03*
X0108197Y0067759D03*
X0108197Y0067798D03*
X0108157Y0067877D03*
X0108079Y0069412D03*
X0108118Y0070357D03*
X0108079Y0070436D03*
X0109811Y0069176D03*
X0109811Y0069136D03*
X0102173Y0069136D03*
X0102173Y0070711D03*
X0133984Y0062601D03*
D35*
X0132390Y0062168D03*
X0132390Y0062129D03*
X0124043Y0062168D03*
X0124043Y0062207D03*
X0117311Y0062207D03*
X0117311Y0062247D03*
X0117311Y0063192D03*
X0107941Y0066774D03*
X0107941Y0068192D03*
X0107902Y0070633D03*
X0116839Y0070711D03*
X0120303Y0070711D03*
D36*
X0117764Y0063034D03*
X0117724Y0062286D03*
X0116937Y0063034D03*
X0114811Y0062207D03*
X0114811Y0062168D03*
X0114299Y0063034D03*
X0113787Y0062207D03*
X0113787Y0062168D03*
X0112331Y0062168D03*
X0112331Y0062207D03*
X0111819Y0063034D03*
X0111307Y0062207D03*
X0111307Y0062168D03*
X0109850Y0062168D03*
X0109850Y0062207D03*
X0109339Y0063034D03*
X0108827Y0062207D03*
X0108827Y0062168D03*
X0124417Y0062286D03*
X0125402Y0062286D03*
X0125402Y0063073D03*
X0127803Y0063073D03*
X0127803Y0062286D03*
X0132764Y0062325D03*
D37*
X0129673Y0062168D03*
X0129673Y0063192D03*
X0128138Y0063113D03*
X0128138Y0062247D03*
X0125736Y0062247D03*
X0125736Y0063113D03*
X0124122Y0062759D03*
X0124043Y0063192D03*
X0119083Y0063192D03*
X0119083Y0062168D03*
X0114791Y0066853D03*
X0109909Y0066853D03*
X0108059Y0068073D03*
X0107941Y0069255D03*
X0109909Y0069294D03*
X0114791Y0069294D03*
X0116720Y0070633D03*
X0120185Y0070633D03*
X0130146Y0066853D03*
X0135461Y0066853D03*
X0137350Y0066853D03*
X0137350Y0069294D03*
D38*
X0125953Y0065908D03*
X0121701Y0063664D03*
X0121701Y0063625D03*
X0120638Y0063625D03*
X0120638Y0063664D03*
X0122764Y0062207D03*
X0122764Y0062168D03*
D39*
X0124024Y0062247D03*
X0117331Y0063113D03*
X0117331Y0063152D03*
X0114654Y0066735D03*
X0110047Y0066735D03*
X0110047Y0069412D03*
X0114654Y0069412D03*
X0130283Y0068152D03*
X0130283Y0066735D03*
X0135323Y0066735D03*
X0137488Y0066735D03*
X0137488Y0069412D03*
X0132370Y0062286D03*
X0132370Y0062247D03*
X0132370Y0062207D03*
D40*
X0121799Y0063861D03*
X0120736Y0063861D03*
X0117547Y0063310D03*
X0114831Y0062247D03*
X0114319Y0062955D03*
X0114319Y0062995D03*
X0113768Y0062247D03*
X0112350Y0062247D03*
X0111839Y0062955D03*
X0111839Y0062995D03*
X0111287Y0062247D03*
X0109870Y0062247D03*
X0109358Y0062955D03*
X0109358Y0062995D03*
X0108807Y0062247D03*
D41*
X0123118Y0062286D03*
X0123512Y0063034D03*
X0126268Y0062365D03*
X0128669Y0062365D03*
D42*
X0128630Y0062325D03*
X0128630Y0063034D03*
X0126228Y0063034D03*
X0126228Y0062325D03*
X0125953Y0065829D03*
X0120047Y0065829D03*
X0116583Y0065829D03*
D43*
X0121012Y0063585D03*
X0122075Y0063585D03*
X0126287Y0062955D03*
X0126287Y0062404D03*
X0128689Y0062404D03*
X0128689Y0062955D03*
D44*
X0114575Y0062601D03*
X0114575Y0062562D03*
X0114535Y0062680D03*
X0114535Y0062719D03*
X0114496Y0062837D03*
X0114496Y0062877D03*
X0114063Y0062680D03*
X0112094Y0062601D03*
X0112094Y0062562D03*
X0112055Y0062680D03*
X0112055Y0062719D03*
X0112016Y0062837D03*
X0112016Y0062877D03*
X0111583Y0062680D03*
X0109614Y0062601D03*
X0109614Y0062562D03*
X0109575Y0062680D03*
X0109575Y0062719D03*
X0109535Y0062837D03*
X0109535Y0062877D03*
X0109102Y0062680D03*
D45*
X0116583Y0066066D03*
X0116583Y0066105D03*
X0116583Y0066144D03*
X0116583Y0066184D03*
X0116583Y0066223D03*
X0116583Y0066262D03*
X0116583Y0066302D03*
X0116583Y0066341D03*
X0116583Y0066381D03*
X0116583Y0066420D03*
X0116583Y0066459D03*
X0116583Y0066499D03*
X0116583Y0066538D03*
X0116583Y0066577D03*
X0116583Y0066617D03*
X0116583Y0066656D03*
X0116583Y0066696D03*
X0116583Y0066735D03*
X0116583Y0066774D03*
X0116583Y0066814D03*
X0116583Y0066853D03*
X0116583Y0066892D03*
X0116583Y0066932D03*
X0116583Y0066971D03*
X0116583Y0067010D03*
X0116583Y0067050D03*
X0116583Y0067089D03*
X0116583Y0067129D03*
X0116583Y0067168D03*
X0116583Y0067207D03*
X0116583Y0067247D03*
X0116583Y0067286D03*
X0116583Y0067325D03*
X0116583Y0067365D03*
X0116583Y0067404D03*
X0116583Y0067444D03*
X0116583Y0067483D03*
X0116583Y0067522D03*
X0116583Y0067562D03*
X0116583Y0067601D03*
X0116583Y0067640D03*
X0116583Y0067680D03*
X0116583Y0067719D03*
X0116583Y0067759D03*
X0116583Y0067798D03*
X0116583Y0067837D03*
X0116583Y0067877D03*
X0116583Y0067916D03*
X0116583Y0067955D03*
X0116583Y0067995D03*
X0116583Y0068034D03*
X0116583Y0068073D03*
X0116583Y0068113D03*
X0116583Y0068152D03*
X0116583Y0068192D03*
X0116583Y0068231D03*
X0116583Y0068270D03*
X0116583Y0068310D03*
X0116583Y0068349D03*
X0116583Y0068388D03*
X0116583Y0068428D03*
X0116583Y0068467D03*
X0116583Y0068507D03*
X0116583Y0068546D03*
X0116583Y0068585D03*
X0116583Y0068625D03*
X0116583Y0068664D03*
X0116583Y0068703D03*
X0116583Y0068743D03*
X0116583Y0068782D03*
X0116583Y0068822D03*
X0116583Y0068861D03*
X0116583Y0068900D03*
X0116583Y0068940D03*
X0116583Y0068979D03*
X0116583Y0069018D03*
X0116583Y0069058D03*
X0116583Y0069097D03*
X0116583Y0069136D03*
X0116583Y0069176D03*
X0116583Y0069215D03*
X0116583Y0069255D03*
X0116583Y0069294D03*
X0116583Y0069333D03*
X0116583Y0069373D03*
X0116583Y0069412D03*
X0116583Y0069451D03*
X0116583Y0069491D03*
X0116583Y0070318D03*
X0116583Y0070357D03*
X0114929Y0069018D03*
X0114929Y0068979D03*
X0114929Y0068940D03*
X0114929Y0068900D03*
X0114929Y0068861D03*
X0114929Y0068822D03*
X0114929Y0068782D03*
X0114929Y0068743D03*
X0114929Y0068703D03*
X0114929Y0068664D03*
X0114929Y0068625D03*
X0114929Y0068585D03*
X0114929Y0068546D03*
X0114929Y0068507D03*
X0114929Y0068467D03*
X0114929Y0068428D03*
X0114929Y0068388D03*
X0114929Y0068349D03*
X0114929Y0068310D03*
X0114929Y0068270D03*
X0114929Y0068231D03*
X0114929Y0068192D03*
X0114929Y0068152D03*
X0114929Y0068113D03*
X0114929Y0068073D03*
X0114929Y0068034D03*
X0114929Y0067995D03*
X0114929Y0067955D03*
X0114929Y0067916D03*
X0114929Y0067877D03*
X0114929Y0067837D03*
X0114929Y0067798D03*
X0114929Y0067759D03*
X0114929Y0067719D03*
X0114929Y0067680D03*
X0114929Y0067640D03*
X0114929Y0067601D03*
X0114929Y0067562D03*
X0114929Y0067522D03*
X0114929Y0067483D03*
X0114929Y0067444D03*
X0114929Y0067404D03*
X0114929Y0067365D03*
X0114929Y0067325D03*
X0114929Y0067286D03*
X0114929Y0067247D03*
X0114929Y0067207D03*
X0114929Y0067168D03*
X0114929Y0067129D03*
X0120047Y0067129D03*
X0120047Y0067168D03*
X0120047Y0067207D03*
X0120047Y0067247D03*
X0120047Y0067286D03*
X0120047Y0067325D03*
X0120047Y0067365D03*
X0120047Y0067404D03*
X0120047Y0067444D03*
X0120047Y0067483D03*
X0120047Y0067522D03*
X0120047Y0067562D03*
X0120047Y0067601D03*
X0120047Y0067640D03*
X0120047Y0067680D03*
X0120047Y0067719D03*
X0120047Y0067759D03*
X0120047Y0067798D03*
X0120047Y0067837D03*
X0120047Y0067877D03*
X0120047Y0067916D03*
X0120047Y0067955D03*
X0120047Y0067995D03*
X0120047Y0068034D03*
X0120047Y0068073D03*
X0120047Y0068113D03*
X0120047Y0068152D03*
X0120047Y0068192D03*
X0120047Y0068231D03*
X0120047Y0068270D03*
X0120047Y0068310D03*
X0120047Y0068349D03*
X0120047Y0068388D03*
X0120047Y0068428D03*
X0120047Y0068467D03*
X0120047Y0068507D03*
X0120047Y0068546D03*
X0120047Y0068585D03*
X0120047Y0068625D03*
X0120047Y0068664D03*
X0120047Y0068703D03*
X0120047Y0068743D03*
X0120047Y0068782D03*
X0120047Y0068822D03*
X0120047Y0068861D03*
X0120047Y0068900D03*
X0120047Y0068940D03*
X0120047Y0068979D03*
X0120047Y0069018D03*
X0120047Y0069058D03*
X0120047Y0069097D03*
X0120047Y0069136D03*
X0120047Y0069176D03*
X0120047Y0069215D03*
X0120047Y0069255D03*
X0120047Y0069294D03*
X0120047Y0069333D03*
X0120047Y0069373D03*
X0120047Y0069412D03*
X0120047Y0069451D03*
X0120047Y0069491D03*
X0120047Y0070318D03*
X0120047Y0070357D03*
X0120047Y0067089D03*
X0120047Y0067050D03*
X0120047Y0067010D03*
X0120047Y0066971D03*
X0120047Y0066932D03*
X0120047Y0066892D03*
X0120047Y0066853D03*
X0120047Y0066814D03*
X0120047Y0066774D03*
X0120047Y0066735D03*
X0120047Y0066696D03*
X0120047Y0066656D03*
X0120047Y0066617D03*
X0120047Y0066577D03*
X0120047Y0066538D03*
X0120047Y0066499D03*
X0120047Y0066459D03*
X0120047Y0066420D03*
X0120047Y0066381D03*
X0120047Y0066341D03*
X0120047Y0066302D03*
X0120047Y0066262D03*
X0120047Y0066223D03*
X0120047Y0066184D03*
X0120047Y0066144D03*
X0120047Y0066105D03*
X0120047Y0066066D03*
X0120480Y0063349D03*
X0120480Y0063310D03*
X0120480Y0063270D03*
X0120480Y0063231D03*
X0120480Y0063192D03*
X0120480Y0063152D03*
X0120480Y0063113D03*
X0120480Y0063073D03*
X0121543Y0063073D03*
X0121543Y0063113D03*
X0121543Y0063152D03*
X0121543Y0063192D03*
X0121543Y0063231D03*
X0121543Y0063270D03*
X0121543Y0063310D03*
X0121543Y0063349D03*
X0125953Y0066026D03*
X0130008Y0067089D03*
X0130008Y0067129D03*
X0130008Y0067168D03*
X0130008Y0067207D03*
X0130008Y0067247D03*
X0130008Y0067286D03*
X0130008Y0067325D03*
X0130008Y0067365D03*
X0130008Y0067404D03*
X0130008Y0067444D03*
X0130008Y0067483D03*
X0130008Y0067522D03*
X0130008Y0067562D03*
X0130008Y0067601D03*
X0130008Y0067640D03*
X0130008Y0067680D03*
X0130008Y0067719D03*
X0130008Y0067759D03*
X0130008Y0067798D03*
X0135598Y0067798D03*
X0135598Y0067837D03*
X0135598Y0067877D03*
X0135598Y0067916D03*
X0135598Y0067955D03*
X0135598Y0067995D03*
X0135598Y0068034D03*
X0135598Y0068073D03*
X0135598Y0068113D03*
X0135598Y0068152D03*
X0135598Y0068192D03*
X0135598Y0068231D03*
X0135598Y0067759D03*
X0135598Y0067719D03*
X0135598Y0067680D03*
X0135598Y0067640D03*
X0135598Y0067601D03*
X0135598Y0067562D03*
X0135598Y0067522D03*
X0135598Y0067483D03*
X0135598Y0067444D03*
X0135598Y0067404D03*
X0135598Y0067365D03*
X0135598Y0067325D03*
X0135598Y0067286D03*
X0135598Y0067247D03*
X0135598Y0067207D03*
X0135598Y0067168D03*
X0137213Y0067168D03*
X0137213Y0067207D03*
X0137213Y0067247D03*
X0137213Y0067286D03*
X0137213Y0067325D03*
X0137213Y0067365D03*
X0137213Y0067404D03*
X0137213Y0067444D03*
X0137213Y0067483D03*
X0137213Y0067522D03*
X0137213Y0067562D03*
X0137213Y0067601D03*
X0137213Y0067640D03*
X0137213Y0067680D03*
X0137213Y0067719D03*
X0137213Y0067759D03*
X0137213Y0067798D03*
X0137213Y0067837D03*
X0137213Y0067877D03*
X0137213Y0067916D03*
X0137213Y0067955D03*
X0137213Y0067995D03*
X0137213Y0068034D03*
X0137213Y0068073D03*
X0137213Y0068113D03*
X0137213Y0068152D03*
X0137213Y0068192D03*
X0137213Y0068231D03*
X0137213Y0068270D03*
X0137213Y0068310D03*
X0137213Y0068349D03*
X0137213Y0068388D03*
X0137213Y0068428D03*
X0137213Y0068467D03*
X0137213Y0068507D03*
X0137213Y0068546D03*
X0137213Y0068585D03*
X0137213Y0068625D03*
X0137213Y0068664D03*
X0137213Y0068703D03*
X0137213Y0068743D03*
X0137213Y0068782D03*
X0137213Y0068822D03*
X0137213Y0068861D03*
X0137213Y0068900D03*
X0137213Y0068940D03*
X0137213Y0068979D03*
X0137213Y0069018D03*
X0135598Y0069018D03*
X0135598Y0069058D03*
X0135559Y0069136D03*
X0135559Y0069176D03*
X0137213Y0067129D03*
X0133945Y0062719D03*
X0109772Y0067129D03*
X0109772Y0067168D03*
X0109772Y0067207D03*
X0109772Y0067247D03*
X0109772Y0067286D03*
X0109772Y0067325D03*
X0109772Y0067365D03*
X0109772Y0067404D03*
X0109772Y0067444D03*
X0109772Y0067483D03*
X0109772Y0067522D03*
X0109772Y0067562D03*
X0109772Y0067601D03*
X0109772Y0067640D03*
X0109772Y0067680D03*
X0109772Y0067719D03*
X0109772Y0067759D03*
X0109772Y0067798D03*
X0109772Y0067837D03*
X0109772Y0067877D03*
X0109772Y0067916D03*
X0109772Y0067955D03*
X0109772Y0067995D03*
X0109772Y0068034D03*
X0109772Y0068073D03*
X0109772Y0068113D03*
X0109772Y0068152D03*
X0109772Y0068192D03*
X0109772Y0068231D03*
X0109772Y0068270D03*
X0109772Y0068310D03*
X0109772Y0068349D03*
X0109772Y0068388D03*
X0109772Y0068428D03*
X0109772Y0068467D03*
X0109772Y0068507D03*
X0109772Y0068546D03*
X0109772Y0068585D03*
X0109772Y0068625D03*
X0109772Y0068664D03*
X0109772Y0068703D03*
X0109772Y0068743D03*
X0109772Y0068782D03*
X0109772Y0068822D03*
X0109772Y0068861D03*
X0109772Y0068900D03*
X0109772Y0068940D03*
X0109772Y0068979D03*
X0109772Y0069018D03*
X0108157Y0069648D03*
X0108157Y0069688D03*
X0108157Y0069727D03*
X0108157Y0069766D03*
X0108157Y0069806D03*
X0108157Y0070081D03*
X0108157Y0070121D03*
X0108157Y0070160D03*
X0108157Y0070199D03*
D46*
X0126248Y0062995D03*
X0128650Y0062995D03*
D47*
X0117350Y0063073D03*
X0107823Y0069176D03*
X0135264Y0069451D03*
D48*
X0123591Y0063073D03*
D49*
X0140598Y0070239D03*
X0104299Y0071538D03*
X0104299Y0065869D03*
D50*
X0112350Y0065869D03*
X0134043Y0070081D03*
D51*
X0134280Y0069806D03*
X0132783Y0065869D03*
D52*
X0140795Y0065869D03*
X0140756Y0070278D03*
D53*
X0133374Y0068900D03*
X0132783Y0066184D03*
X0112350Y0066341D03*
X0112350Y0069806D03*
X0104476Y0071499D03*
X0104476Y0065908D03*
D54*
X0112350Y0065908D03*
X0112350Y0070239D03*
D55*
X0112350Y0070199D03*
X0112350Y0065948D03*
X0132783Y0065908D03*
D56*
X0132783Y0066066D03*
X0140618Y0065908D03*
D57*
X0133236Y0068822D03*
X0140283Y0070042D03*
X0104575Y0071459D03*
X0104575Y0065948D03*
D58*
X0132783Y0065948D03*
D59*
X0133492Y0068940D03*
X0140539Y0065948D03*
D60*
X0140224Y0066184D03*
X0133138Y0068743D03*
X0140185Y0069924D03*
X0112350Y0069530D03*
X0112350Y0066617D03*
X0104634Y0065987D03*
X0104634Y0071420D03*
D61*
X0112350Y0070160D03*
X0112350Y0065987D03*
D62*
X0132783Y0065987D03*
D63*
X0140441Y0065987D03*
X0140441Y0070160D03*
D64*
X0140106Y0069806D03*
X0140146Y0066302D03*
X0125972Y0071538D03*
X0104673Y0071381D03*
X0104673Y0066026D03*
D65*
X0112350Y0066026D03*
X0112350Y0070121D03*
D66*
X0132803Y0066026D03*
D67*
X0140382Y0066026D03*
X0140382Y0070121D03*
X0112350Y0069766D03*
X0112350Y0066381D03*
D68*
X0104732Y0066066D03*
X0104732Y0071341D03*
X0139929Y0069530D03*
X0140047Y0069688D03*
X0139929Y0066617D03*
X0140047Y0066459D03*
X0140087Y0066420D03*
D69*
X0112350Y0066066D03*
X0112350Y0070081D03*
D70*
X0140323Y0070081D03*
X0140323Y0066066D03*
D71*
X0140008Y0066538D03*
X0132803Y0066577D03*
X0132961Y0068507D03*
X0125953Y0070790D03*
X0125953Y0071459D03*
X0104772Y0071302D03*
X0104772Y0066105D03*
D72*
X0112350Y0066105D03*
X0112350Y0070042D03*
D73*
X0112350Y0069924D03*
X0112350Y0066223D03*
X0132783Y0066105D03*
D74*
X0140303Y0066105D03*
X0112350Y0066499D03*
X0112350Y0069648D03*
D75*
X0104811Y0068703D03*
X0104811Y0066144D03*
X0104811Y0071262D03*
X0125953Y0071381D03*
X0125953Y0070908D03*
X0125953Y0070869D03*
X0132921Y0068428D03*
X0132921Y0068388D03*
D76*
X0133650Y0068979D03*
X0112350Y0070003D03*
X0112350Y0066144D03*
D77*
X0132803Y0066144D03*
D78*
X0140264Y0066144D03*
X0112350Y0066538D03*
X0112350Y0066577D03*
X0112350Y0069570D03*
X0112350Y0069609D03*
D79*
X0104850Y0068743D03*
X0104850Y0066184D03*
X0104850Y0071223D03*
X0132882Y0068310D03*
X0132882Y0068270D03*
D80*
X0112350Y0069963D03*
X0112350Y0066184D03*
D81*
X0104890Y0066223D03*
X0104890Y0068782D03*
D82*
X0112350Y0069727D03*
X0112350Y0066420D03*
X0132783Y0066223D03*
X0133295Y0068861D03*
D83*
X0140205Y0066223D03*
D84*
X0104909Y0066262D03*
X0104909Y0068585D03*
X0104909Y0068822D03*
X0104909Y0071144D03*
D85*
X0112350Y0069885D03*
X0112350Y0066262D03*
D86*
X0112350Y0066459D03*
X0112350Y0069688D03*
X0132783Y0066262D03*
D87*
X0132803Y0066420D03*
X0133079Y0068664D03*
X0140126Y0069845D03*
X0140165Y0066262D03*
D88*
X0104949Y0066302D03*
X0104949Y0068861D03*
X0104949Y0071066D03*
D89*
X0112350Y0069845D03*
X0112350Y0066302D03*
D90*
X0132803Y0066302D03*
X0133197Y0068782D03*
X0140244Y0070003D03*
D91*
X0104969Y0071026D03*
X0104969Y0068900D03*
X0104969Y0068507D03*
X0104969Y0066341D03*
D92*
X0132803Y0066341D03*
X0140205Y0069963D03*
D93*
X0140087Y0069766D03*
X0140126Y0066341D03*
X0132803Y0066459D03*
X0133039Y0068625D03*
D94*
X0104988Y0068467D03*
X0104988Y0068940D03*
X0104988Y0070987D03*
X0104988Y0066381D03*
D95*
X0132783Y0066381D03*
X0133098Y0068703D03*
X0140146Y0069885D03*
D96*
X0140067Y0069727D03*
X0140106Y0066381D03*
X0132783Y0066499D03*
X0133020Y0068585D03*
X0125972Y0070751D03*
D97*
X0105008Y0070948D03*
X0105008Y0068979D03*
X0105008Y0068428D03*
X0105008Y0066420D03*
D98*
X0105028Y0066459D03*
X0105028Y0069018D03*
X0105028Y0070869D03*
X0105028Y0070908D03*
D99*
X0105047Y0070829D03*
X0105047Y0069097D03*
X0105047Y0069058D03*
X0105047Y0068388D03*
X0105047Y0066538D03*
X0105047Y0066499D03*
D100*
X0125972Y0071499D03*
X0132980Y0068546D03*
X0132783Y0066538D03*
X0139988Y0066577D03*
X0140028Y0066499D03*
X0139988Y0069570D03*
X0139988Y0069609D03*
X0140028Y0069648D03*
D101*
X0105067Y0070751D03*
X0105067Y0070790D03*
X0105067Y0068349D03*
X0105067Y0068310D03*
X0105067Y0066577D03*
D102*
X0105087Y0066617D03*
X0105087Y0066656D03*
D103*
X0125972Y0070829D03*
X0125972Y0071420D03*
X0132941Y0068467D03*
X0132783Y0066617D03*
D104*
X0135106Y0066656D03*
X0137705Y0066656D03*
X0137705Y0069491D03*
X0133768Y0070239D03*
X0121524Y0071459D03*
X0118059Y0071459D03*
X0114437Y0069491D03*
X0110264Y0069491D03*
X0110264Y0066656D03*
X0114437Y0066656D03*
D105*
X0130480Y0066656D03*
X0130480Y0068231D03*
X0135126Y0069491D03*
D106*
X0107646Y0066696D03*
D107*
X0110126Y0066696D03*
X0114575Y0066696D03*
X0116976Y0070751D03*
X0120441Y0070751D03*
X0137567Y0066696D03*
D108*
X0135224Y0066696D03*
X0130343Y0066696D03*
X0130343Y0068192D03*
X0137547Y0069451D03*
X0121602Y0071499D03*
X0118138Y0071499D03*
X0114594Y0069451D03*
X0110106Y0069451D03*
X0107862Y0066735D03*
D109*
X0107843Y0068231D03*
X0107803Y0070672D03*
D110*
X0107705Y0068270D03*
D111*
X0104831Y0068664D03*
X0125972Y0070948D03*
X0125972Y0070987D03*
X0125972Y0071026D03*
X0125972Y0071066D03*
X0125972Y0071105D03*
X0125972Y0071144D03*
X0125972Y0071184D03*
X0125972Y0071223D03*
X0125972Y0071262D03*
X0125972Y0071302D03*
X0125972Y0071341D03*
X0132902Y0068349D03*
D112*
X0104929Y0068546D03*
X0104929Y0071105D03*
D113*
X0104870Y0071184D03*
X0104870Y0068625D03*
D114*
X0107606Y0069136D03*
D115*
X0117449Y0069530D03*
X0117449Y0070278D03*
X0120913Y0070278D03*
X0120913Y0069530D03*
D116*
X0134319Y0069727D03*
X0134437Y0069530D03*
D117*
X0134220Y0069885D03*
X0120953Y0069570D03*
X0120953Y0070239D03*
X0117488Y0070239D03*
X0117488Y0069570D03*
D118*
X0134398Y0069570D03*
D119*
X0120972Y0069609D03*
X0120972Y0069648D03*
X0120972Y0069688D03*
X0120972Y0070081D03*
X0120972Y0070121D03*
X0120972Y0070160D03*
X0120972Y0070199D03*
X0117508Y0070199D03*
X0117508Y0070160D03*
X0117508Y0070121D03*
X0117508Y0070081D03*
X0117508Y0069688D03*
X0117508Y0069648D03*
X0117508Y0069609D03*
D120*
X0134339Y0069648D03*
X0134339Y0069688D03*
X0134378Y0069609D03*
D121*
X0134260Y0069845D03*
X0120992Y0069845D03*
X0120992Y0069806D03*
X0120992Y0069766D03*
X0120992Y0069727D03*
X0120992Y0069885D03*
X0120992Y0069924D03*
X0120992Y0069963D03*
X0120992Y0070003D03*
X0120992Y0070042D03*
X0117528Y0070042D03*
X0117528Y0070003D03*
X0117528Y0069963D03*
X0117528Y0069924D03*
X0117528Y0069885D03*
X0117528Y0069845D03*
X0117528Y0069806D03*
X0117528Y0069766D03*
X0117528Y0069727D03*
D122*
X0134299Y0069766D03*
D123*
X0134201Y0069924D03*
D124*
X0134161Y0069963D03*
X0121051Y0070869D03*
X0117587Y0070869D03*
D125*
X0117606Y0070908D03*
X0117606Y0070948D03*
X0117646Y0070987D03*
X0117567Y0070829D03*
X0121031Y0070829D03*
X0121071Y0070908D03*
X0121071Y0070948D03*
X0121110Y0070987D03*
X0134142Y0070003D03*
D126*
X0134083Y0070042D03*
X0121169Y0071105D03*
X0117705Y0071105D03*
D127*
X0117783Y0071223D03*
X0121248Y0071223D03*
X0134004Y0070121D03*
D128*
X0133925Y0070160D03*
X0121327Y0071302D03*
X0117862Y0071302D03*
D129*
X0117921Y0071381D03*
X0121386Y0071381D03*
X0133866Y0070199D03*
D130*
X0140520Y0070199D03*
D131*
X0121189Y0071144D03*
X0117724Y0071144D03*
X0112331Y0070278D03*
D132*
X0107626Y0070711D03*
D133*
X0117508Y0070790D03*
X0117665Y0071026D03*
X0120972Y0070790D03*
X0121130Y0071026D03*
D134*
X0121150Y0071066D03*
X0117685Y0071066D03*
D135*
X0117764Y0071184D03*
X0121228Y0071184D03*
D136*
X0121287Y0071262D03*
X0117823Y0071262D03*
D137*
X0117882Y0071341D03*
X0121346Y0071341D03*
D138*
X0121445Y0071420D03*
X0117980Y0071420D03*
D139*
X0134936Y0012407D02*
X0134936Y0006268D01*
X0131867Y0009337D02*
X0138006Y0009337D01*
X0109659Y0009337D02*
X0103520Y0009337D01*
D140*
X0095925Y0082562D03*
D141*
X0089675Y0082562D03*
X0113175Y0082562D03*
M02*
