G75*
%MOIN*%
%OFA0B0*%
%FSLAX25Y25*%
%IPPOS*%
%LPD*%
%AMOC8*
5,1,8,0,0,1.08239X$1,22.5*
%
%ADD10C,0.00000*%
%ADD11C,0.21126*%
%ADD12OC8,0.05200*%
%ADD13C,0.06600*%
%ADD14R,0.05000X0.10000*%
%ADD15C,0.00984*%
%ADD16C,0.11811*%
%ADD17OC8,0.15000*%
%ADD18C,0.01000*%
D10*
X0003000Y0003822D02*
X0003000Y0106184D01*
X0239220Y0106184D01*
X0239220Y0003822D01*
X0003000Y0003822D01*
X0036465Y0015633D02*
X0044339Y0015633D01*
X0044463Y0015635D01*
X0044586Y0015641D01*
X0044710Y0015650D01*
X0044832Y0015664D01*
X0044955Y0015681D01*
X0045077Y0015703D01*
X0045198Y0015728D01*
X0045318Y0015757D01*
X0045437Y0015789D01*
X0045556Y0015826D01*
X0045673Y0015866D01*
X0045788Y0015909D01*
X0045903Y0015957D01*
X0046015Y0016008D01*
X0046126Y0016062D01*
X0046236Y0016120D01*
X0046343Y0016181D01*
X0046449Y0016246D01*
X0046552Y0016314D01*
X0046653Y0016385D01*
X0046752Y0016459D01*
X0046849Y0016536D01*
X0046943Y0016617D01*
X0047034Y0016700D01*
X0047123Y0016786D01*
X0047209Y0016875D01*
X0047292Y0016966D01*
X0047373Y0017060D01*
X0047450Y0017157D01*
X0047524Y0017256D01*
X0047595Y0017357D01*
X0047663Y0017460D01*
X0047728Y0017566D01*
X0047789Y0017673D01*
X0047847Y0017783D01*
X0047901Y0017894D01*
X0047952Y0018006D01*
X0048000Y0018121D01*
X0048043Y0018236D01*
X0048083Y0018353D01*
X0048120Y0018472D01*
X0048152Y0018591D01*
X0048181Y0018711D01*
X0048206Y0018832D01*
X0048228Y0018954D01*
X0048245Y0019077D01*
X0048259Y0019199D01*
X0048268Y0019323D01*
X0048274Y0019446D01*
X0048276Y0019570D01*
X0048274Y0019694D01*
X0048268Y0019817D01*
X0048259Y0019941D01*
X0048245Y0020063D01*
X0048228Y0020186D01*
X0048206Y0020308D01*
X0048181Y0020429D01*
X0048152Y0020549D01*
X0048120Y0020668D01*
X0048083Y0020787D01*
X0048043Y0020904D01*
X0048000Y0021019D01*
X0047952Y0021134D01*
X0047901Y0021246D01*
X0047847Y0021357D01*
X0047789Y0021467D01*
X0047728Y0021574D01*
X0047663Y0021680D01*
X0047595Y0021783D01*
X0047524Y0021884D01*
X0047450Y0021983D01*
X0047373Y0022080D01*
X0047292Y0022174D01*
X0047209Y0022265D01*
X0047123Y0022354D01*
X0047034Y0022440D01*
X0046943Y0022523D01*
X0046849Y0022604D01*
X0046752Y0022681D01*
X0046653Y0022755D01*
X0046552Y0022826D01*
X0046449Y0022894D01*
X0046343Y0022959D01*
X0046236Y0023020D01*
X0046126Y0023078D01*
X0046015Y0023132D01*
X0045903Y0023183D01*
X0045788Y0023231D01*
X0045673Y0023274D01*
X0045556Y0023314D01*
X0045437Y0023351D01*
X0045318Y0023383D01*
X0045198Y0023412D01*
X0045077Y0023437D01*
X0044955Y0023459D01*
X0044832Y0023476D01*
X0044710Y0023490D01*
X0044586Y0023499D01*
X0044463Y0023505D01*
X0044339Y0023507D01*
X0036465Y0023507D01*
X0036341Y0023505D01*
X0036218Y0023499D01*
X0036094Y0023490D01*
X0035972Y0023476D01*
X0035849Y0023459D01*
X0035727Y0023437D01*
X0035606Y0023412D01*
X0035486Y0023383D01*
X0035367Y0023351D01*
X0035248Y0023314D01*
X0035131Y0023274D01*
X0035016Y0023231D01*
X0034901Y0023183D01*
X0034789Y0023132D01*
X0034678Y0023078D01*
X0034568Y0023020D01*
X0034461Y0022959D01*
X0034355Y0022894D01*
X0034252Y0022826D01*
X0034151Y0022755D01*
X0034052Y0022681D01*
X0033955Y0022604D01*
X0033861Y0022523D01*
X0033770Y0022440D01*
X0033681Y0022354D01*
X0033595Y0022265D01*
X0033512Y0022174D01*
X0033431Y0022080D01*
X0033354Y0021983D01*
X0033280Y0021884D01*
X0033209Y0021783D01*
X0033141Y0021680D01*
X0033076Y0021574D01*
X0033015Y0021467D01*
X0032957Y0021357D01*
X0032903Y0021246D01*
X0032852Y0021134D01*
X0032804Y0021019D01*
X0032761Y0020904D01*
X0032721Y0020787D01*
X0032684Y0020668D01*
X0032652Y0020549D01*
X0032623Y0020429D01*
X0032598Y0020308D01*
X0032576Y0020186D01*
X0032559Y0020063D01*
X0032545Y0019941D01*
X0032536Y0019817D01*
X0032530Y0019694D01*
X0032528Y0019570D01*
X0032530Y0019446D01*
X0032536Y0019323D01*
X0032545Y0019199D01*
X0032559Y0019077D01*
X0032576Y0018954D01*
X0032598Y0018832D01*
X0032623Y0018711D01*
X0032652Y0018591D01*
X0032684Y0018472D01*
X0032721Y0018353D01*
X0032761Y0018236D01*
X0032804Y0018121D01*
X0032852Y0018006D01*
X0032903Y0017894D01*
X0032957Y0017783D01*
X0033015Y0017673D01*
X0033076Y0017566D01*
X0033141Y0017460D01*
X0033209Y0017357D01*
X0033280Y0017256D01*
X0033354Y0017157D01*
X0033431Y0017060D01*
X0033512Y0016966D01*
X0033595Y0016875D01*
X0033681Y0016786D01*
X0033770Y0016700D01*
X0033861Y0016617D01*
X0033955Y0016536D01*
X0034052Y0016459D01*
X0034151Y0016385D01*
X0034252Y0016314D01*
X0034355Y0016246D01*
X0034461Y0016181D01*
X0034568Y0016120D01*
X0034678Y0016062D01*
X0034789Y0016008D01*
X0034901Y0015957D01*
X0035016Y0015909D01*
X0035131Y0015866D01*
X0035248Y0015826D01*
X0035367Y0015789D01*
X0035486Y0015757D01*
X0035606Y0015728D01*
X0035727Y0015703D01*
X0035849Y0015681D01*
X0035972Y0015664D01*
X0036094Y0015650D01*
X0036218Y0015641D01*
X0036341Y0015635D01*
X0036465Y0015633D01*
X0042370Y0043192D02*
X0026622Y0043192D01*
X0026334Y0043196D01*
X0026047Y0043206D01*
X0025760Y0043224D01*
X0025473Y0043248D01*
X0025187Y0043279D01*
X0024902Y0043318D01*
X0024618Y0043363D01*
X0024335Y0043415D01*
X0024054Y0043475D01*
X0023774Y0043541D01*
X0023496Y0043613D01*
X0023219Y0043693D01*
X0022945Y0043779D01*
X0022673Y0043872D01*
X0022403Y0043971D01*
X0022135Y0044077D01*
X0021871Y0044190D01*
X0021609Y0044309D01*
X0021350Y0044434D01*
X0021094Y0044566D01*
X0020841Y0044703D01*
X0020592Y0044847D01*
X0020347Y0044997D01*
X0020105Y0045153D01*
X0019867Y0045314D01*
X0019633Y0045482D01*
X0019403Y0045655D01*
X0019178Y0045833D01*
X0018957Y0046017D01*
X0018740Y0046206D01*
X0018528Y0046401D01*
X0018321Y0046601D01*
X0018119Y0046805D01*
X0017922Y0047015D01*
X0017730Y0047229D01*
X0017544Y0047448D01*
X0017362Y0047671D01*
X0017186Y0047899D01*
X0017016Y0048131D01*
X0016852Y0048367D01*
X0016693Y0048606D01*
X0016540Y0048850D01*
X0016393Y0049097D01*
X0016253Y0049348D01*
X0016118Y0049603D01*
X0015990Y0049860D01*
X0015868Y0050120D01*
X0015752Y0050384D01*
X0015643Y0050650D01*
X0015540Y0050918D01*
X0015444Y0051189D01*
X0015354Y0051463D01*
X0015271Y0051738D01*
X0015195Y0052016D01*
X0015126Y0052295D01*
X0015063Y0052575D01*
X0015007Y0052858D01*
X0014959Y0053141D01*
X0014917Y0053426D01*
X0014882Y0053711D01*
X0014854Y0053997D01*
X0014833Y0054284D01*
X0014819Y0054572D01*
X0014812Y0054859D01*
X0014812Y0055147D01*
X0014819Y0055434D01*
X0014833Y0055722D01*
X0014854Y0056009D01*
X0014882Y0056295D01*
X0014917Y0056580D01*
X0014959Y0056865D01*
X0015007Y0057148D01*
X0015063Y0057431D01*
X0015126Y0057711D01*
X0015195Y0057990D01*
X0015271Y0058268D01*
X0015354Y0058543D01*
X0015444Y0058817D01*
X0015540Y0059088D01*
X0015643Y0059356D01*
X0015752Y0059622D01*
X0015868Y0059886D01*
X0015990Y0060146D01*
X0016118Y0060403D01*
X0016253Y0060658D01*
X0016393Y0060908D01*
X0016540Y0061156D01*
X0016693Y0061400D01*
X0016852Y0061639D01*
X0017016Y0061875D01*
X0017186Y0062107D01*
X0017362Y0062335D01*
X0017544Y0062558D01*
X0017730Y0062777D01*
X0017922Y0062991D01*
X0018119Y0063201D01*
X0018321Y0063405D01*
X0018528Y0063605D01*
X0018740Y0063800D01*
X0018957Y0063989D01*
X0019178Y0064173D01*
X0019403Y0064351D01*
X0019633Y0064524D01*
X0019867Y0064692D01*
X0020105Y0064853D01*
X0020347Y0065009D01*
X0020592Y0065159D01*
X0020841Y0065303D01*
X0021094Y0065440D01*
X0021350Y0065572D01*
X0021609Y0065697D01*
X0021871Y0065816D01*
X0022135Y0065929D01*
X0022403Y0066035D01*
X0022673Y0066134D01*
X0022945Y0066227D01*
X0023219Y0066313D01*
X0023496Y0066393D01*
X0023774Y0066465D01*
X0024054Y0066531D01*
X0024335Y0066591D01*
X0024618Y0066643D01*
X0024902Y0066688D01*
X0025187Y0066727D01*
X0025473Y0066758D01*
X0025760Y0066782D01*
X0026047Y0066800D01*
X0026334Y0066810D01*
X0026622Y0066814D01*
X0042370Y0066814D01*
X0042658Y0066810D01*
X0042945Y0066800D01*
X0043232Y0066782D01*
X0043519Y0066758D01*
X0043805Y0066727D01*
X0044090Y0066688D01*
X0044374Y0066643D01*
X0044657Y0066591D01*
X0044938Y0066531D01*
X0045218Y0066465D01*
X0045496Y0066393D01*
X0045773Y0066313D01*
X0046047Y0066227D01*
X0046319Y0066134D01*
X0046589Y0066035D01*
X0046857Y0065929D01*
X0047121Y0065816D01*
X0047383Y0065697D01*
X0047642Y0065572D01*
X0047898Y0065440D01*
X0048151Y0065303D01*
X0048400Y0065159D01*
X0048645Y0065009D01*
X0048887Y0064853D01*
X0049125Y0064692D01*
X0049359Y0064524D01*
X0049589Y0064351D01*
X0049814Y0064173D01*
X0050035Y0063989D01*
X0050252Y0063800D01*
X0050464Y0063605D01*
X0050671Y0063405D01*
X0050873Y0063201D01*
X0051070Y0062991D01*
X0051262Y0062777D01*
X0051448Y0062558D01*
X0051630Y0062335D01*
X0051806Y0062107D01*
X0051976Y0061875D01*
X0052140Y0061639D01*
X0052299Y0061400D01*
X0052452Y0061156D01*
X0052599Y0060909D01*
X0052739Y0060658D01*
X0052874Y0060403D01*
X0053002Y0060146D01*
X0053124Y0059886D01*
X0053240Y0059622D01*
X0053349Y0059356D01*
X0053452Y0059088D01*
X0053548Y0058817D01*
X0053638Y0058543D01*
X0053721Y0058268D01*
X0053797Y0057990D01*
X0053866Y0057711D01*
X0053929Y0057431D01*
X0053985Y0057148D01*
X0054033Y0056865D01*
X0054075Y0056580D01*
X0054110Y0056295D01*
X0054138Y0056009D01*
X0054159Y0055722D01*
X0054173Y0055434D01*
X0054180Y0055147D01*
X0054180Y0054859D01*
X0054173Y0054572D01*
X0054159Y0054284D01*
X0054138Y0053997D01*
X0054110Y0053711D01*
X0054075Y0053426D01*
X0054033Y0053141D01*
X0053985Y0052858D01*
X0053929Y0052575D01*
X0053866Y0052295D01*
X0053797Y0052016D01*
X0053721Y0051738D01*
X0053638Y0051463D01*
X0053548Y0051189D01*
X0053452Y0050918D01*
X0053349Y0050650D01*
X0053240Y0050384D01*
X0053124Y0050120D01*
X0053002Y0049860D01*
X0052874Y0049603D01*
X0052739Y0049348D01*
X0052599Y0049098D01*
X0052452Y0048850D01*
X0052299Y0048606D01*
X0052140Y0048367D01*
X0051976Y0048131D01*
X0051806Y0047899D01*
X0051630Y0047671D01*
X0051448Y0047448D01*
X0051262Y0047229D01*
X0051070Y0047015D01*
X0050873Y0046805D01*
X0050671Y0046601D01*
X0050464Y0046401D01*
X0050252Y0046206D01*
X0050035Y0046017D01*
X0049814Y0045833D01*
X0049589Y0045655D01*
X0049359Y0045482D01*
X0049125Y0045314D01*
X0048887Y0045153D01*
X0048645Y0044997D01*
X0048400Y0044847D01*
X0048151Y0044703D01*
X0047898Y0044566D01*
X0047642Y0044434D01*
X0047383Y0044309D01*
X0047121Y0044190D01*
X0046857Y0044077D01*
X0046589Y0043971D01*
X0046319Y0043872D01*
X0046047Y0043779D01*
X0045773Y0043693D01*
X0045496Y0043613D01*
X0045218Y0043541D01*
X0044938Y0043475D01*
X0044657Y0043415D01*
X0044374Y0043363D01*
X0044090Y0043318D01*
X0043805Y0043279D01*
X0043519Y0043248D01*
X0043232Y0043224D01*
X0042945Y0043206D01*
X0042658Y0043196D01*
X0042370Y0043192D01*
X0032528Y0086499D02*
X0024654Y0086499D01*
X0024530Y0086501D01*
X0024407Y0086507D01*
X0024283Y0086516D01*
X0024161Y0086530D01*
X0024038Y0086547D01*
X0023916Y0086569D01*
X0023795Y0086594D01*
X0023675Y0086623D01*
X0023556Y0086655D01*
X0023437Y0086692D01*
X0023320Y0086732D01*
X0023205Y0086775D01*
X0023090Y0086823D01*
X0022978Y0086874D01*
X0022867Y0086928D01*
X0022757Y0086986D01*
X0022650Y0087047D01*
X0022544Y0087112D01*
X0022441Y0087180D01*
X0022340Y0087251D01*
X0022241Y0087325D01*
X0022144Y0087402D01*
X0022050Y0087483D01*
X0021959Y0087566D01*
X0021870Y0087652D01*
X0021784Y0087741D01*
X0021701Y0087832D01*
X0021620Y0087926D01*
X0021543Y0088023D01*
X0021469Y0088122D01*
X0021398Y0088223D01*
X0021330Y0088326D01*
X0021265Y0088432D01*
X0021204Y0088539D01*
X0021146Y0088649D01*
X0021092Y0088760D01*
X0021041Y0088872D01*
X0020993Y0088987D01*
X0020950Y0089102D01*
X0020910Y0089219D01*
X0020873Y0089338D01*
X0020841Y0089457D01*
X0020812Y0089577D01*
X0020787Y0089698D01*
X0020765Y0089820D01*
X0020748Y0089943D01*
X0020734Y0090065D01*
X0020725Y0090189D01*
X0020719Y0090312D01*
X0020717Y0090436D01*
X0020719Y0090560D01*
X0020725Y0090683D01*
X0020734Y0090807D01*
X0020748Y0090929D01*
X0020765Y0091052D01*
X0020787Y0091174D01*
X0020812Y0091295D01*
X0020841Y0091415D01*
X0020873Y0091534D01*
X0020910Y0091653D01*
X0020950Y0091770D01*
X0020993Y0091885D01*
X0021041Y0092000D01*
X0021092Y0092112D01*
X0021146Y0092223D01*
X0021204Y0092333D01*
X0021265Y0092440D01*
X0021330Y0092546D01*
X0021398Y0092649D01*
X0021469Y0092750D01*
X0021543Y0092849D01*
X0021620Y0092946D01*
X0021701Y0093040D01*
X0021784Y0093131D01*
X0021870Y0093220D01*
X0021959Y0093306D01*
X0022050Y0093389D01*
X0022144Y0093470D01*
X0022241Y0093547D01*
X0022340Y0093621D01*
X0022441Y0093692D01*
X0022544Y0093760D01*
X0022650Y0093825D01*
X0022757Y0093886D01*
X0022867Y0093944D01*
X0022978Y0093998D01*
X0023090Y0094049D01*
X0023205Y0094097D01*
X0023320Y0094140D01*
X0023437Y0094180D01*
X0023556Y0094217D01*
X0023675Y0094249D01*
X0023795Y0094278D01*
X0023916Y0094303D01*
X0024038Y0094325D01*
X0024161Y0094342D01*
X0024283Y0094356D01*
X0024407Y0094365D01*
X0024530Y0094371D01*
X0024654Y0094373D01*
X0032528Y0094373D01*
X0032652Y0094371D01*
X0032775Y0094365D01*
X0032899Y0094356D01*
X0033021Y0094342D01*
X0033144Y0094325D01*
X0033266Y0094303D01*
X0033387Y0094278D01*
X0033507Y0094249D01*
X0033626Y0094217D01*
X0033745Y0094180D01*
X0033862Y0094140D01*
X0033977Y0094097D01*
X0034092Y0094049D01*
X0034204Y0093998D01*
X0034315Y0093944D01*
X0034425Y0093886D01*
X0034532Y0093825D01*
X0034638Y0093760D01*
X0034741Y0093692D01*
X0034842Y0093621D01*
X0034941Y0093547D01*
X0035038Y0093470D01*
X0035132Y0093389D01*
X0035223Y0093306D01*
X0035312Y0093220D01*
X0035398Y0093131D01*
X0035481Y0093040D01*
X0035562Y0092946D01*
X0035639Y0092849D01*
X0035713Y0092750D01*
X0035784Y0092649D01*
X0035852Y0092546D01*
X0035917Y0092440D01*
X0035978Y0092333D01*
X0036036Y0092223D01*
X0036090Y0092112D01*
X0036141Y0092000D01*
X0036189Y0091885D01*
X0036232Y0091770D01*
X0036272Y0091653D01*
X0036309Y0091534D01*
X0036341Y0091415D01*
X0036370Y0091295D01*
X0036395Y0091174D01*
X0036417Y0091052D01*
X0036434Y0090929D01*
X0036448Y0090807D01*
X0036457Y0090683D01*
X0036463Y0090560D01*
X0036465Y0090436D01*
X0036463Y0090312D01*
X0036457Y0090189D01*
X0036448Y0090065D01*
X0036434Y0089943D01*
X0036417Y0089820D01*
X0036395Y0089698D01*
X0036370Y0089577D01*
X0036341Y0089457D01*
X0036309Y0089338D01*
X0036272Y0089219D01*
X0036232Y0089102D01*
X0036189Y0088987D01*
X0036141Y0088872D01*
X0036090Y0088760D01*
X0036036Y0088649D01*
X0035978Y0088539D01*
X0035917Y0088432D01*
X0035852Y0088326D01*
X0035784Y0088223D01*
X0035713Y0088122D01*
X0035639Y0088023D01*
X0035562Y0087926D01*
X0035481Y0087832D01*
X0035398Y0087741D01*
X0035312Y0087652D01*
X0035223Y0087566D01*
X0035132Y0087483D01*
X0035038Y0087402D01*
X0034941Y0087325D01*
X0034842Y0087251D01*
X0034741Y0087180D01*
X0034638Y0087112D01*
X0034532Y0087047D01*
X0034425Y0086986D01*
X0034315Y0086928D01*
X0034204Y0086874D01*
X0034092Y0086823D01*
X0033977Y0086775D01*
X0033862Y0086732D01*
X0033745Y0086692D01*
X0033626Y0086655D01*
X0033507Y0086623D01*
X0033387Y0086594D01*
X0033266Y0086569D01*
X0033144Y0086547D01*
X0033021Y0086530D01*
X0032899Y0086516D01*
X0032775Y0086507D01*
X0032652Y0086501D01*
X0032528Y0086499D01*
X0193945Y0086499D02*
X0201819Y0086499D01*
X0201943Y0086501D01*
X0202066Y0086507D01*
X0202190Y0086516D01*
X0202312Y0086530D01*
X0202435Y0086547D01*
X0202557Y0086569D01*
X0202678Y0086594D01*
X0202798Y0086623D01*
X0202917Y0086655D01*
X0203036Y0086692D01*
X0203153Y0086732D01*
X0203268Y0086775D01*
X0203383Y0086823D01*
X0203495Y0086874D01*
X0203606Y0086928D01*
X0203716Y0086986D01*
X0203823Y0087047D01*
X0203929Y0087112D01*
X0204032Y0087180D01*
X0204133Y0087251D01*
X0204232Y0087325D01*
X0204329Y0087402D01*
X0204423Y0087483D01*
X0204514Y0087566D01*
X0204603Y0087652D01*
X0204689Y0087741D01*
X0204772Y0087832D01*
X0204853Y0087926D01*
X0204930Y0088023D01*
X0205004Y0088122D01*
X0205075Y0088223D01*
X0205143Y0088326D01*
X0205208Y0088432D01*
X0205269Y0088539D01*
X0205327Y0088649D01*
X0205381Y0088760D01*
X0205432Y0088872D01*
X0205480Y0088987D01*
X0205523Y0089102D01*
X0205563Y0089219D01*
X0205600Y0089338D01*
X0205632Y0089457D01*
X0205661Y0089577D01*
X0205686Y0089698D01*
X0205708Y0089820D01*
X0205725Y0089943D01*
X0205739Y0090065D01*
X0205748Y0090189D01*
X0205754Y0090312D01*
X0205756Y0090436D01*
X0205754Y0090560D01*
X0205748Y0090683D01*
X0205739Y0090807D01*
X0205725Y0090929D01*
X0205708Y0091052D01*
X0205686Y0091174D01*
X0205661Y0091295D01*
X0205632Y0091415D01*
X0205600Y0091534D01*
X0205563Y0091653D01*
X0205523Y0091770D01*
X0205480Y0091885D01*
X0205432Y0092000D01*
X0205381Y0092112D01*
X0205327Y0092223D01*
X0205269Y0092333D01*
X0205208Y0092440D01*
X0205143Y0092546D01*
X0205075Y0092649D01*
X0205004Y0092750D01*
X0204930Y0092849D01*
X0204853Y0092946D01*
X0204772Y0093040D01*
X0204689Y0093131D01*
X0204603Y0093220D01*
X0204514Y0093306D01*
X0204423Y0093389D01*
X0204329Y0093470D01*
X0204232Y0093547D01*
X0204133Y0093621D01*
X0204032Y0093692D01*
X0203929Y0093760D01*
X0203823Y0093825D01*
X0203716Y0093886D01*
X0203606Y0093944D01*
X0203495Y0093998D01*
X0203383Y0094049D01*
X0203268Y0094097D01*
X0203153Y0094140D01*
X0203036Y0094180D01*
X0202917Y0094217D01*
X0202798Y0094249D01*
X0202678Y0094278D01*
X0202557Y0094303D01*
X0202435Y0094325D01*
X0202312Y0094342D01*
X0202190Y0094356D01*
X0202066Y0094365D01*
X0201943Y0094371D01*
X0201819Y0094373D01*
X0193945Y0094373D01*
X0193821Y0094371D01*
X0193698Y0094365D01*
X0193574Y0094356D01*
X0193452Y0094342D01*
X0193329Y0094325D01*
X0193207Y0094303D01*
X0193086Y0094278D01*
X0192966Y0094249D01*
X0192847Y0094217D01*
X0192728Y0094180D01*
X0192611Y0094140D01*
X0192496Y0094097D01*
X0192381Y0094049D01*
X0192269Y0093998D01*
X0192158Y0093944D01*
X0192048Y0093886D01*
X0191941Y0093825D01*
X0191835Y0093760D01*
X0191732Y0093692D01*
X0191631Y0093621D01*
X0191532Y0093547D01*
X0191435Y0093470D01*
X0191341Y0093389D01*
X0191250Y0093306D01*
X0191161Y0093220D01*
X0191075Y0093131D01*
X0190992Y0093040D01*
X0190911Y0092946D01*
X0190834Y0092849D01*
X0190760Y0092750D01*
X0190689Y0092649D01*
X0190621Y0092546D01*
X0190556Y0092440D01*
X0190495Y0092333D01*
X0190437Y0092223D01*
X0190383Y0092112D01*
X0190332Y0092000D01*
X0190284Y0091885D01*
X0190241Y0091770D01*
X0190201Y0091653D01*
X0190164Y0091534D01*
X0190132Y0091415D01*
X0190103Y0091295D01*
X0190078Y0091174D01*
X0190056Y0091052D01*
X0190039Y0090929D01*
X0190025Y0090807D01*
X0190016Y0090683D01*
X0190010Y0090560D01*
X0190008Y0090436D01*
X0190010Y0090312D01*
X0190016Y0090189D01*
X0190025Y0090065D01*
X0190039Y0089943D01*
X0190056Y0089820D01*
X0190078Y0089698D01*
X0190103Y0089577D01*
X0190132Y0089457D01*
X0190164Y0089338D01*
X0190201Y0089219D01*
X0190241Y0089102D01*
X0190284Y0088987D01*
X0190332Y0088872D01*
X0190383Y0088760D01*
X0190437Y0088649D01*
X0190495Y0088539D01*
X0190556Y0088432D01*
X0190621Y0088326D01*
X0190689Y0088223D01*
X0190760Y0088122D01*
X0190834Y0088023D01*
X0190911Y0087926D01*
X0190992Y0087832D01*
X0191075Y0087741D01*
X0191161Y0087652D01*
X0191250Y0087566D01*
X0191341Y0087483D01*
X0191435Y0087402D01*
X0191532Y0087325D01*
X0191631Y0087251D01*
X0191732Y0087180D01*
X0191835Y0087112D01*
X0191941Y0087047D01*
X0192048Y0086986D01*
X0192158Y0086928D01*
X0192269Y0086874D01*
X0192381Y0086823D01*
X0192496Y0086775D01*
X0192611Y0086732D01*
X0192728Y0086692D01*
X0192847Y0086655D01*
X0192966Y0086623D01*
X0193086Y0086594D01*
X0193207Y0086569D01*
X0193329Y0086547D01*
X0193452Y0086530D01*
X0193574Y0086516D01*
X0193698Y0086507D01*
X0193821Y0086501D01*
X0193945Y0086499D01*
X0195913Y0066814D02*
X0211661Y0066814D01*
X0211949Y0066810D01*
X0212236Y0066800D01*
X0212523Y0066782D01*
X0212810Y0066758D01*
X0213096Y0066727D01*
X0213381Y0066688D01*
X0213665Y0066643D01*
X0213948Y0066591D01*
X0214229Y0066531D01*
X0214509Y0066465D01*
X0214787Y0066393D01*
X0215064Y0066313D01*
X0215338Y0066227D01*
X0215610Y0066134D01*
X0215880Y0066035D01*
X0216148Y0065929D01*
X0216412Y0065816D01*
X0216674Y0065697D01*
X0216933Y0065572D01*
X0217189Y0065440D01*
X0217442Y0065303D01*
X0217691Y0065159D01*
X0217936Y0065009D01*
X0218178Y0064853D01*
X0218416Y0064692D01*
X0218650Y0064524D01*
X0218880Y0064351D01*
X0219105Y0064173D01*
X0219326Y0063989D01*
X0219543Y0063800D01*
X0219755Y0063605D01*
X0219962Y0063405D01*
X0220164Y0063201D01*
X0220361Y0062991D01*
X0220553Y0062777D01*
X0220739Y0062558D01*
X0220921Y0062335D01*
X0221097Y0062107D01*
X0221267Y0061875D01*
X0221431Y0061639D01*
X0221590Y0061400D01*
X0221743Y0061156D01*
X0221890Y0060909D01*
X0222030Y0060658D01*
X0222165Y0060403D01*
X0222293Y0060146D01*
X0222415Y0059886D01*
X0222531Y0059622D01*
X0222640Y0059356D01*
X0222743Y0059088D01*
X0222839Y0058817D01*
X0222929Y0058543D01*
X0223012Y0058268D01*
X0223088Y0057990D01*
X0223157Y0057711D01*
X0223220Y0057431D01*
X0223276Y0057148D01*
X0223324Y0056865D01*
X0223366Y0056580D01*
X0223401Y0056295D01*
X0223429Y0056009D01*
X0223450Y0055722D01*
X0223464Y0055434D01*
X0223471Y0055147D01*
X0223471Y0054859D01*
X0223464Y0054572D01*
X0223450Y0054284D01*
X0223429Y0053997D01*
X0223401Y0053711D01*
X0223366Y0053426D01*
X0223324Y0053141D01*
X0223276Y0052858D01*
X0223220Y0052575D01*
X0223157Y0052295D01*
X0223088Y0052016D01*
X0223012Y0051738D01*
X0222929Y0051463D01*
X0222839Y0051189D01*
X0222743Y0050918D01*
X0222640Y0050650D01*
X0222531Y0050384D01*
X0222415Y0050120D01*
X0222293Y0049860D01*
X0222165Y0049603D01*
X0222030Y0049348D01*
X0221890Y0049098D01*
X0221743Y0048850D01*
X0221590Y0048606D01*
X0221431Y0048367D01*
X0221267Y0048131D01*
X0221097Y0047899D01*
X0220921Y0047671D01*
X0220739Y0047448D01*
X0220553Y0047229D01*
X0220361Y0047015D01*
X0220164Y0046805D01*
X0219962Y0046601D01*
X0219755Y0046401D01*
X0219543Y0046206D01*
X0219326Y0046017D01*
X0219105Y0045833D01*
X0218880Y0045655D01*
X0218650Y0045482D01*
X0218416Y0045314D01*
X0218178Y0045153D01*
X0217936Y0044997D01*
X0217691Y0044847D01*
X0217442Y0044703D01*
X0217189Y0044566D01*
X0216933Y0044434D01*
X0216674Y0044309D01*
X0216412Y0044190D01*
X0216148Y0044077D01*
X0215880Y0043971D01*
X0215610Y0043872D01*
X0215338Y0043779D01*
X0215064Y0043693D01*
X0214787Y0043613D01*
X0214509Y0043541D01*
X0214229Y0043475D01*
X0213948Y0043415D01*
X0213665Y0043363D01*
X0213381Y0043318D01*
X0213096Y0043279D01*
X0212810Y0043248D01*
X0212523Y0043224D01*
X0212236Y0043206D01*
X0211949Y0043196D01*
X0211661Y0043192D01*
X0195913Y0043192D01*
X0195625Y0043196D01*
X0195338Y0043206D01*
X0195051Y0043224D01*
X0194764Y0043248D01*
X0194478Y0043279D01*
X0194193Y0043318D01*
X0193909Y0043363D01*
X0193626Y0043415D01*
X0193345Y0043475D01*
X0193065Y0043541D01*
X0192787Y0043613D01*
X0192510Y0043693D01*
X0192236Y0043779D01*
X0191964Y0043872D01*
X0191694Y0043971D01*
X0191426Y0044077D01*
X0191162Y0044190D01*
X0190900Y0044309D01*
X0190641Y0044434D01*
X0190385Y0044566D01*
X0190132Y0044703D01*
X0189883Y0044847D01*
X0189638Y0044997D01*
X0189396Y0045153D01*
X0189158Y0045314D01*
X0188924Y0045482D01*
X0188694Y0045655D01*
X0188469Y0045833D01*
X0188248Y0046017D01*
X0188031Y0046206D01*
X0187819Y0046401D01*
X0187612Y0046601D01*
X0187410Y0046805D01*
X0187213Y0047015D01*
X0187021Y0047229D01*
X0186835Y0047448D01*
X0186653Y0047671D01*
X0186477Y0047899D01*
X0186307Y0048131D01*
X0186143Y0048367D01*
X0185984Y0048606D01*
X0185831Y0048850D01*
X0185684Y0049097D01*
X0185544Y0049348D01*
X0185409Y0049603D01*
X0185281Y0049860D01*
X0185159Y0050120D01*
X0185043Y0050384D01*
X0184934Y0050650D01*
X0184831Y0050918D01*
X0184735Y0051189D01*
X0184645Y0051463D01*
X0184562Y0051738D01*
X0184486Y0052016D01*
X0184417Y0052295D01*
X0184354Y0052575D01*
X0184298Y0052858D01*
X0184250Y0053141D01*
X0184208Y0053426D01*
X0184173Y0053711D01*
X0184145Y0053997D01*
X0184124Y0054284D01*
X0184110Y0054572D01*
X0184103Y0054859D01*
X0184103Y0055147D01*
X0184110Y0055434D01*
X0184124Y0055722D01*
X0184145Y0056009D01*
X0184173Y0056295D01*
X0184208Y0056580D01*
X0184250Y0056865D01*
X0184298Y0057148D01*
X0184354Y0057431D01*
X0184417Y0057711D01*
X0184486Y0057990D01*
X0184562Y0058268D01*
X0184645Y0058543D01*
X0184735Y0058817D01*
X0184831Y0059088D01*
X0184934Y0059356D01*
X0185043Y0059622D01*
X0185159Y0059886D01*
X0185281Y0060146D01*
X0185409Y0060403D01*
X0185544Y0060658D01*
X0185684Y0060908D01*
X0185831Y0061156D01*
X0185984Y0061400D01*
X0186143Y0061639D01*
X0186307Y0061875D01*
X0186477Y0062107D01*
X0186653Y0062335D01*
X0186835Y0062558D01*
X0187021Y0062777D01*
X0187213Y0062991D01*
X0187410Y0063201D01*
X0187612Y0063405D01*
X0187819Y0063605D01*
X0188031Y0063800D01*
X0188248Y0063989D01*
X0188469Y0064173D01*
X0188694Y0064351D01*
X0188924Y0064524D01*
X0189158Y0064692D01*
X0189396Y0064853D01*
X0189638Y0065009D01*
X0189883Y0065159D01*
X0190132Y0065303D01*
X0190385Y0065440D01*
X0190641Y0065572D01*
X0190900Y0065697D01*
X0191162Y0065816D01*
X0191426Y0065929D01*
X0191694Y0066035D01*
X0191964Y0066134D01*
X0192236Y0066227D01*
X0192510Y0066313D01*
X0192787Y0066393D01*
X0193065Y0066465D01*
X0193345Y0066531D01*
X0193626Y0066591D01*
X0193909Y0066643D01*
X0194193Y0066688D01*
X0194478Y0066727D01*
X0194764Y0066758D01*
X0195051Y0066782D01*
X0195338Y0066800D01*
X0195625Y0066810D01*
X0195913Y0066814D01*
X0205756Y0023507D02*
X0213630Y0023507D01*
X0213754Y0023505D01*
X0213877Y0023499D01*
X0214001Y0023490D01*
X0214123Y0023476D01*
X0214246Y0023459D01*
X0214368Y0023437D01*
X0214489Y0023412D01*
X0214609Y0023383D01*
X0214728Y0023351D01*
X0214847Y0023314D01*
X0214964Y0023274D01*
X0215079Y0023231D01*
X0215194Y0023183D01*
X0215306Y0023132D01*
X0215417Y0023078D01*
X0215527Y0023020D01*
X0215634Y0022959D01*
X0215740Y0022894D01*
X0215843Y0022826D01*
X0215944Y0022755D01*
X0216043Y0022681D01*
X0216140Y0022604D01*
X0216234Y0022523D01*
X0216325Y0022440D01*
X0216414Y0022354D01*
X0216500Y0022265D01*
X0216583Y0022174D01*
X0216664Y0022080D01*
X0216741Y0021983D01*
X0216815Y0021884D01*
X0216886Y0021783D01*
X0216954Y0021680D01*
X0217019Y0021574D01*
X0217080Y0021467D01*
X0217138Y0021357D01*
X0217192Y0021246D01*
X0217243Y0021134D01*
X0217291Y0021019D01*
X0217334Y0020904D01*
X0217374Y0020787D01*
X0217411Y0020668D01*
X0217443Y0020549D01*
X0217472Y0020429D01*
X0217497Y0020308D01*
X0217519Y0020186D01*
X0217536Y0020063D01*
X0217550Y0019941D01*
X0217559Y0019817D01*
X0217565Y0019694D01*
X0217567Y0019570D01*
X0217565Y0019446D01*
X0217559Y0019323D01*
X0217550Y0019199D01*
X0217536Y0019077D01*
X0217519Y0018954D01*
X0217497Y0018832D01*
X0217472Y0018711D01*
X0217443Y0018591D01*
X0217411Y0018472D01*
X0217374Y0018353D01*
X0217334Y0018236D01*
X0217291Y0018121D01*
X0217243Y0018006D01*
X0217192Y0017894D01*
X0217138Y0017783D01*
X0217080Y0017673D01*
X0217019Y0017566D01*
X0216954Y0017460D01*
X0216886Y0017357D01*
X0216815Y0017256D01*
X0216741Y0017157D01*
X0216664Y0017060D01*
X0216583Y0016966D01*
X0216500Y0016875D01*
X0216414Y0016786D01*
X0216325Y0016700D01*
X0216234Y0016617D01*
X0216140Y0016536D01*
X0216043Y0016459D01*
X0215944Y0016385D01*
X0215843Y0016314D01*
X0215740Y0016246D01*
X0215634Y0016181D01*
X0215527Y0016120D01*
X0215417Y0016062D01*
X0215306Y0016008D01*
X0215194Y0015957D01*
X0215079Y0015909D01*
X0214964Y0015866D01*
X0214847Y0015826D01*
X0214728Y0015789D01*
X0214609Y0015757D01*
X0214489Y0015728D01*
X0214368Y0015703D01*
X0214246Y0015681D01*
X0214123Y0015664D01*
X0214001Y0015650D01*
X0213877Y0015641D01*
X0213754Y0015635D01*
X0213630Y0015633D01*
X0205756Y0015633D01*
X0205632Y0015635D01*
X0205509Y0015641D01*
X0205385Y0015650D01*
X0205263Y0015664D01*
X0205140Y0015681D01*
X0205018Y0015703D01*
X0204897Y0015728D01*
X0204777Y0015757D01*
X0204658Y0015789D01*
X0204539Y0015826D01*
X0204422Y0015866D01*
X0204307Y0015909D01*
X0204192Y0015957D01*
X0204080Y0016008D01*
X0203969Y0016062D01*
X0203859Y0016120D01*
X0203752Y0016181D01*
X0203646Y0016246D01*
X0203543Y0016314D01*
X0203442Y0016385D01*
X0203343Y0016459D01*
X0203246Y0016536D01*
X0203152Y0016617D01*
X0203061Y0016700D01*
X0202972Y0016786D01*
X0202886Y0016875D01*
X0202803Y0016966D01*
X0202722Y0017060D01*
X0202645Y0017157D01*
X0202571Y0017256D01*
X0202500Y0017357D01*
X0202432Y0017460D01*
X0202367Y0017566D01*
X0202306Y0017673D01*
X0202248Y0017783D01*
X0202194Y0017894D01*
X0202143Y0018006D01*
X0202095Y0018121D01*
X0202052Y0018236D01*
X0202012Y0018353D01*
X0201975Y0018472D01*
X0201943Y0018591D01*
X0201914Y0018711D01*
X0201889Y0018832D01*
X0201867Y0018954D01*
X0201850Y0019077D01*
X0201836Y0019199D01*
X0201827Y0019323D01*
X0201821Y0019446D01*
X0201819Y0019570D01*
X0201821Y0019694D01*
X0201827Y0019817D01*
X0201836Y0019941D01*
X0201850Y0020063D01*
X0201867Y0020186D01*
X0201889Y0020308D01*
X0201914Y0020429D01*
X0201943Y0020549D01*
X0201975Y0020668D01*
X0202012Y0020787D01*
X0202052Y0020904D01*
X0202095Y0021019D01*
X0202143Y0021134D01*
X0202194Y0021246D01*
X0202248Y0021357D01*
X0202306Y0021467D01*
X0202367Y0021574D01*
X0202432Y0021680D01*
X0202500Y0021783D01*
X0202571Y0021884D01*
X0202645Y0021983D01*
X0202722Y0022080D01*
X0202803Y0022174D01*
X0202886Y0022265D01*
X0202972Y0022354D01*
X0203061Y0022440D01*
X0203152Y0022523D01*
X0203246Y0022604D01*
X0203343Y0022681D01*
X0203442Y0022755D01*
X0203543Y0022826D01*
X0203646Y0022894D01*
X0203752Y0022959D01*
X0203859Y0023020D01*
X0203969Y0023078D01*
X0204080Y0023132D01*
X0204192Y0023183D01*
X0204307Y0023231D01*
X0204422Y0023274D01*
X0204539Y0023314D01*
X0204658Y0023351D01*
X0204777Y0023383D01*
X0204897Y0023412D01*
X0205018Y0023437D01*
X0205140Y0023459D01*
X0205263Y0023476D01*
X0205385Y0023490D01*
X0205509Y0023499D01*
X0205632Y0023505D01*
X0205756Y0023507D01*
D11*
X0135087Y0035318D03*
X0107134Y0035318D03*
D12*
X0081740Y0045003D03*
X0081740Y0065003D03*
X0126858Y0082562D03*
X0146858Y0082562D03*
X0160480Y0065003D03*
X0160480Y0045003D03*
D13*
X0109614Y0082562D03*
X0069614Y0082562D03*
D14*
X0010874Y0090436D03*
X0022685Y0019570D03*
X0215598Y0090436D03*
X0227409Y0019570D03*
D15*
X0215598Y0013664D02*
X0215750Y0013666D01*
X0215902Y0013672D01*
X0216054Y0013682D01*
X0216205Y0013695D01*
X0216356Y0013713D01*
X0216507Y0013734D01*
X0216657Y0013760D01*
X0216806Y0013789D01*
X0216955Y0013822D01*
X0217102Y0013859D01*
X0217249Y0013899D01*
X0217394Y0013944D01*
X0217538Y0013992D01*
X0217681Y0014044D01*
X0217823Y0014099D01*
X0217963Y0014158D01*
X0218102Y0014221D01*
X0218239Y0014287D01*
X0218374Y0014357D01*
X0218507Y0014430D01*
X0218638Y0014507D01*
X0218768Y0014587D01*
X0218895Y0014670D01*
X0219020Y0014756D01*
X0219143Y0014846D01*
X0219263Y0014939D01*
X0219381Y0015035D01*
X0219497Y0015134D01*
X0219610Y0015236D01*
X0219720Y0015340D01*
X0219828Y0015448D01*
X0219932Y0015558D01*
X0220034Y0015671D01*
X0220133Y0015787D01*
X0220229Y0015905D01*
X0220322Y0016025D01*
X0220412Y0016148D01*
X0220498Y0016273D01*
X0220581Y0016400D01*
X0220661Y0016530D01*
X0220738Y0016661D01*
X0220811Y0016794D01*
X0220881Y0016929D01*
X0220947Y0017066D01*
X0221010Y0017205D01*
X0221069Y0017345D01*
X0221124Y0017487D01*
X0221176Y0017630D01*
X0221224Y0017774D01*
X0221269Y0017919D01*
X0221309Y0018066D01*
X0221346Y0018213D01*
X0221379Y0018362D01*
X0221408Y0018511D01*
X0221434Y0018661D01*
X0221455Y0018812D01*
X0221473Y0018963D01*
X0221486Y0019114D01*
X0221496Y0019266D01*
X0221502Y0019418D01*
X0221504Y0019570D01*
X0221502Y0019722D01*
X0221496Y0019874D01*
X0221486Y0020026D01*
X0221473Y0020177D01*
X0221455Y0020328D01*
X0221434Y0020479D01*
X0221408Y0020629D01*
X0221379Y0020778D01*
X0221346Y0020927D01*
X0221309Y0021074D01*
X0221269Y0021221D01*
X0221224Y0021366D01*
X0221176Y0021510D01*
X0221124Y0021653D01*
X0221069Y0021795D01*
X0221010Y0021935D01*
X0220947Y0022074D01*
X0220881Y0022211D01*
X0220811Y0022346D01*
X0220738Y0022479D01*
X0220661Y0022610D01*
X0220581Y0022740D01*
X0220498Y0022867D01*
X0220412Y0022992D01*
X0220322Y0023115D01*
X0220229Y0023235D01*
X0220133Y0023353D01*
X0220034Y0023469D01*
X0219932Y0023582D01*
X0219828Y0023692D01*
X0219720Y0023800D01*
X0219610Y0023904D01*
X0219497Y0024006D01*
X0219381Y0024105D01*
X0219263Y0024201D01*
X0219143Y0024294D01*
X0219020Y0024384D01*
X0218895Y0024470D01*
X0218768Y0024553D01*
X0218638Y0024633D01*
X0218507Y0024710D01*
X0218374Y0024783D01*
X0218239Y0024853D01*
X0218102Y0024919D01*
X0217963Y0024982D01*
X0217823Y0025041D01*
X0217681Y0025096D01*
X0217538Y0025148D01*
X0217394Y0025196D01*
X0217249Y0025241D01*
X0217102Y0025281D01*
X0216955Y0025318D01*
X0216806Y0025351D01*
X0216657Y0025380D01*
X0216507Y0025406D01*
X0216356Y0025427D01*
X0216205Y0025445D01*
X0216054Y0025458D01*
X0215902Y0025468D01*
X0215750Y0025474D01*
X0215598Y0025476D01*
X0215598Y0025475D02*
X0203787Y0025475D01*
X0203787Y0025476D02*
X0203635Y0025474D01*
X0203483Y0025468D01*
X0203331Y0025458D01*
X0203180Y0025445D01*
X0203029Y0025427D01*
X0202878Y0025406D01*
X0202728Y0025380D01*
X0202579Y0025351D01*
X0202430Y0025318D01*
X0202283Y0025281D01*
X0202136Y0025241D01*
X0201991Y0025196D01*
X0201847Y0025148D01*
X0201704Y0025096D01*
X0201562Y0025041D01*
X0201422Y0024982D01*
X0201283Y0024919D01*
X0201146Y0024853D01*
X0201011Y0024783D01*
X0200878Y0024710D01*
X0200747Y0024633D01*
X0200617Y0024553D01*
X0200490Y0024470D01*
X0200365Y0024384D01*
X0200242Y0024294D01*
X0200122Y0024201D01*
X0200004Y0024105D01*
X0199888Y0024006D01*
X0199775Y0023904D01*
X0199665Y0023800D01*
X0199557Y0023692D01*
X0199453Y0023582D01*
X0199351Y0023469D01*
X0199252Y0023353D01*
X0199156Y0023235D01*
X0199063Y0023115D01*
X0198973Y0022992D01*
X0198887Y0022867D01*
X0198804Y0022740D01*
X0198724Y0022610D01*
X0198647Y0022479D01*
X0198574Y0022346D01*
X0198504Y0022211D01*
X0198438Y0022074D01*
X0198375Y0021935D01*
X0198316Y0021795D01*
X0198261Y0021653D01*
X0198209Y0021510D01*
X0198161Y0021366D01*
X0198116Y0021221D01*
X0198076Y0021074D01*
X0198039Y0020927D01*
X0198006Y0020778D01*
X0197977Y0020629D01*
X0197951Y0020479D01*
X0197930Y0020328D01*
X0197912Y0020177D01*
X0197899Y0020026D01*
X0197889Y0019874D01*
X0197883Y0019722D01*
X0197881Y0019570D01*
X0197883Y0019418D01*
X0197889Y0019266D01*
X0197899Y0019114D01*
X0197912Y0018963D01*
X0197930Y0018812D01*
X0197951Y0018661D01*
X0197977Y0018511D01*
X0198006Y0018362D01*
X0198039Y0018213D01*
X0198076Y0018066D01*
X0198116Y0017919D01*
X0198161Y0017774D01*
X0198209Y0017630D01*
X0198261Y0017487D01*
X0198316Y0017345D01*
X0198375Y0017205D01*
X0198438Y0017066D01*
X0198504Y0016929D01*
X0198574Y0016794D01*
X0198647Y0016661D01*
X0198724Y0016530D01*
X0198804Y0016400D01*
X0198887Y0016273D01*
X0198973Y0016148D01*
X0199063Y0016025D01*
X0199156Y0015905D01*
X0199252Y0015787D01*
X0199351Y0015671D01*
X0199453Y0015558D01*
X0199557Y0015448D01*
X0199665Y0015340D01*
X0199775Y0015236D01*
X0199888Y0015134D01*
X0200004Y0015035D01*
X0200122Y0014939D01*
X0200242Y0014846D01*
X0200365Y0014756D01*
X0200490Y0014670D01*
X0200617Y0014587D01*
X0200747Y0014507D01*
X0200878Y0014430D01*
X0201011Y0014357D01*
X0201146Y0014287D01*
X0201283Y0014221D01*
X0201422Y0014158D01*
X0201562Y0014099D01*
X0201704Y0014044D01*
X0201847Y0013992D01*
X0201991Y0013944D01*
X0202136Y0013899D01*
X0202283Y0013859D01*
X0202430Y0013822D01*
X0202579Y0013789D01*
X0202728Y0013760D01*
X0202878Y0013734D01*
X0203029Y0013713D01*
X0203180Y0013695D01*
X0203331Y0013682D01*
X0203483Y0013672D01*
X0203635Y0013666D01*
X0203787Y0013664D01*
X0215598Y0013664D01*
X0203787Y0084530D02*
X0191976Y0084530D01*
X0191824Y0084532D01*
X0191672Y0084538D01*
X0191520Y0084548D01*
X0191369Y0084561D01*
X0191218Y0084579D01*
X0191067Y0084600D01*
X0190917Y0084626D01*
X0190768Y0084655D01*
X0190619Y0084688D01*
X0190472Y0084725D01*
X0190325Y0084765D01*
X0190180Y0084810D01*
X0190036Y0084858D01*
X0189893Y0084910D01*
X0189751Y0084965D01*
X0189611Y0085024D01*
X0189472Y0085087D01*
X0189335Y0085153D01*
X0189200Y0085223D01*
X0189067Y0085296D01*
X0188936Y0085373D01*
X0188806Y0085453D01*
X0188679Y0085536D01*
X0188554Y0085622D01*
X0188431Y0085712D01*
X0188311Y0085805D01*
X0188193Y0085901D01*
X0188077Y0086000D01*
X0187964Y0086102D01*
X0187854Y0086206D01*
X0187746Y0086314D01*
X0187642Y0086424D01*
X0187540Y0086537D01*
X0187441Y0086653D01*
X0187345Y0086771D01*
X0187252Y0086891D01*
X0187162Y0087014D01*
X0187076Y0087139D01*
X0186993Y0087266D01*
X0186913Y0087396D01*
X0186836Y0087527D01*
X0186763Y0087660D01*
X0186693Y0087795D01*
X0186627Y0087932D01*
X0186564Y0088071D01*
X0186505Y0088211D01*
X0186450Y0088353D01*
X0186398Y0088496D01*
X0186350Y0088640D01*
X0186305Y0088785D01*
X0186265Y0088932D01*
X0186228Y0089079D01*
X0186195Y0089228D01*
X0186166Y0089377D01*
X0186140Y0089527D01*
X0186119Y0089678D01*
X0186101Y0089829D01*
X0186088Y0089980D01*
X0186078Y0090132D01*
X0186072Y0090284D01*
X0186070Y0090436D01*
X0186072Y0090588D01*
X0186078Y0090740D01*
X0186088Y0090892D01*
X0186101Y0091043D01*
X0186119Y0091194D01*
X0186140Y0091345D01*
X0186166Y0091495D01*
X0186195Y0091644D01*
X0186228Y0091793D01*
X0186265Y0091940D01*
X0186305Y0092087D01*
X0186350Y0092232D01*
X0186398Y0092376D01*
X0186450Y0092519D01*
X0186505Y0092661D01*
X0186564Y0092801D01*
X0186627Y0092940D01*
X0186693Y0093077D01*
X0186763Y0093212D01*
X0186836Y0093345D01*
X0186913Y0093476D01*
X0186993Y0093606D01*
X0187076Y0093733D01*
X0187162Y0093858D01*
X0187252Y0093981D01*
X0187345Y0094101D01*
X0187441Y0094219D01*
X0187540Y0094335D01*
X0187642Y0094448D01*
X0187746Y0094558D01*
X0187854Y0094666D01*
X0187964Y0094770D01*
X0188077Y0094872D01*
X0188193Y0094971D01*
X0188311Y0095067D01*
X0188431Y0095160D01*
X0188554Y0095250D01*
X0188679Y0095336D01*
X0188806Y0095419D01*
X0188936Y0095499D01*
X0189067Y0095576D01*
X0189200Y0095649D01*
X0189335Y0095719D01*
X0189472Y0095785D01*
X0189611Y0095848D01*
X0189751Y0095907D01*
X0189893Y0095962D01*
X0190036Y0096014D01*
X0190180Y0096062D01*
X0190325Y0096107D01*
X0190472Y0096147D01*
X0190619Y0096184D01*
X0190768Y0096217D01*
X0190917Y0096246D01*
X0191067Y0096272D01*
X0191218Y0096293D01*
X0191369Y0096311D01*
X0191520Y0096324D01*
X0191672Y0096334D01*
X0191824Y0096340D01*
X0191976Y0096342D01*
X0191976Y0096341D02*
X0203787Y0096341D01*
X0203787Y0096342D02*
X0203939Y0096340D01*
X0204091Y0096334D01*
X0204243Y0096324D01*
X0204394Y0096311D01*
X0204545Y0096293D01*
X0204696Y0096272D01*
X0204846Y0096246D01*
X0204995Y0096217D01*
X0205144Y0096184D01*
X0205291Y0096147D01*
X0205438Y0096107D01*
X0205583Y0096062D01*
X0205727Y0096014D01*
X0205870Y0095962D01*
X0206012Y0095907D01*
X0206152Y0095848D01*
X0206291Y0095785D01*
X0206428Y0095719D01*
X0206563Y0095649D01*
X0206696Y0095576D01*
X0206827Y0095499D01*
X0206957Y0095419D01*
X0207084Y0095336D01*
X0207209Y0095250D01*
X0207332Y0095160D01*
X0207452Y0095067D01*
X0207570Y0094971D01*
X0207686Y0094872D01*
X0207799Y0094770D01*
X0207909Y0094666D01*
X0208017Y0094558D01*
X0208121Y0094448D01*
X0208223Y0094335D01*
X0208322Y0094219D01*
X0208418Y0094101D01*
X0208511Y0093981D01*
X0208601Y0093858D01*
X0208687Y0093733D01*
X0208770Y0093606D01*
X0208850Y0093476D01*
X0208927Y0093345D01*
X0209000Y0093212D01*
X0209070Y0093077D01*
X0209136Y0092940D01*
X0209199Y0092801D01*
X0209258Y0092661D01*
X0209313Y0092519D01*
X0209365Y0092376D01*
X0209413Y0092232D01*
X0209458Y0092087D01*
X0209498Y0091940D01*
X0209535Y0091793D01*
X0209568Y0091644D01*
X0209597Y0091495D01*
X0209623Y0091345D01*
X0209644Y0091194D01*
X0209662Y0091043D01*
X0209675Y0090892D01*
X0209685Y0090740D01*
X0209691Y0090588D01*
X0209693Y0090436D01*
X0209691Y0090284D01*
X0209685Y0090132D01*
X0209675Y0089980D01*
X0209662Y0089829D01*
X0209644Y0089678D01*
X0209623Y0089527D01*
X0209597Y0089377D01*
X0209568Y0089228D01*
X0209535Y0089079D01*
X0209498Y0088932D01*
X0209458Y0088785D01*
X0209413Y0088640D01*
X0209365Y0088496D01*
X0209313Y0088353D01*
X0209258Y0088211D01*
X0209199Y0088071D01*
X0209136Y0087932D01*
X0209070Y0087795D01*
X0209000Y0087660D01*
X0208927Y0087527D01*
X0208850Y0087396D01*
X0208770Y0087266D01*
X0208687Y0087139D01*
X0208601Y0087014D01*
X0208511Y0086891D01*
X0208418Y0086771D01*
X0208322Y0086653D01*
X0208223Y0086537D01*
X0208121Y0086424D01*
X0208017Y0086314D01*
X0207909Y0086206D01*
X0207799Y0086102D01*
X0207686Y0086000D01*
X0207570Y0085901D01*
X0207452Y0085805D01*
X0207332Y0085712D01*
X0207209Y0085622D01*
X0207084Y0085536D01*
X0206957Y0085453D01*
X0206827Y0085373D01*
X0206696Y0085296D01*
X0206563Y0085223D01*
X0206428Y0085153D01*
X0206291Y0085087D01*
X0206152Y0085024D01*
X0206012Y0084965D01*
X0205870Y0084910D01*
X0205727Y0084858D01*
X0205583Y0084810D01*
X0205438Y0084765D01*
X0205291Y0084725D01*
X0205144Y0084688D01*
X0204995Y0084655D01*
X0204846Y0084626D01*
X0204696Y0084600D01*
X0204545Y0084579D01*
X0204394Y0084561D01*
X0204243Y0084548D01*
X0204091Y0084538D01*
X0203939Y0084532D01*
X0203787Y0084530D01*
X0046307Y0025475D02*
X0034496Y0025475D01*
X0034496Y0025476D02*
X0034344Y0025474D01*
X0034192Y0025468D01*
X0034040Y0025458D01*
X0033889Y0025445D01*
X0033738Y0025427D01*
X0033587Y0025406D01*
X0033437Y0025380D01*
X0033288Y0025351D01*
X0033139Y0025318D01*
X0032992Y0025281D01*
X0032845Y0025241D01*
X0032700Y0025196D01*
X0032556Y0025148D01*
X0032413Y0025096D01*
X0032271Y0025041D01*
X0032131Y0024982D01*
X0031992Y0024919D01*
X0031855Y0024853D01*
X0031720Y0024783D01*
X0031587Y0024710D01*
X0031456Y0024633D01*
X0031326Y0024553D01*
X0031199Y0024470D01*
X0031074Y0024384D01*
X0030951Y0024294D01*
X0030831Y0024201D01*
X0030713Y0024105D01*
X0030597Y0024006D01*
X0030484Y0023904D01*
X0030374Y0023800D01*
X0030266Y0023692D01*
X0030162Y0023582D01*
X0030060Y0023469D01*
X0029961Y0023353D01*
X0029865Y0023235D01*
X0029772Y0023115D01*
X0029682Y0022992D01*
X0029596Y0022867D01*
X0029513Y0022740D01*
X0029433Y0022610D01*
X0029356Y0022479D01*
X0029283Y0022346D01*
X0029213Y0022211D01*
X0029147Y0022074D01*
X0029084Y0021935D01*
X0029025Y0021795D01*
X0028970Y0021653D01*
X0028918Y0021510D01*
X0028870Y0021366D01*
X0028825Y0021221D01*
X0028785Y0021074D01*
X0028748Y0020927D01*
X0028715Y0020778D01*
X0028686Y0020629D01*
X0028660Y0020479D01*
X0028639Y0020328D01*
X0028621Y0020177D01*
X0028608Y0020026D01*
X0028598Y0019874D01*
X0028592Y0019722D01*
X0028590Y0019570D01*
X0028592Y0019418D01*
X0028598Y0019266D01*
X0028608Y0019114D01*
X0028621Y0018963D01*
X0028639Y0018812D01*
X0028660Y0018661D01*
X0028686Y0018511D01*
X0028715Y0018362D01*
X0028748Y0018213D01*
X0028785Y0018066D01*
X0028825Y0017919D01*
X0028870Y0017774D01*
X0028918Y0017630D01*
X0028970Y0017487D01*
X0029025Y0017345D01*
X0029084Y0017205D01*
X0029147Y0017066D01*
X0029213Y0016929D01*
X0029283Y0016794D01*
X0029356Y0016661D01*
X0029433Y0016530D01*
X0029513Y0016400D01*
X0029596Y0016273D01*
X0029682Y0016148D01*
X0029772Y0016025D01*
X0029865Y0015905D01*
X0029961Y0015787D01*
X0030060Y0015671D01*
X0030162Y0015558D01*
X0030266Y0015448D01*
X0030374Y0015340D01*
X0030484Y0015236D01*
X0030597Y0015134D01*
X0030713Y0015035D01*
X0030831Y0014939D01*
X0030951Y0014846D01*
X0031074Y0014756D01*
X0031199Y0014670D01*
X0031326Y0014587D01*
X0031456Y0014507D01*
X0031587Y0014430D01*
X0031720Y0014357D01*
X0031855Y0014287D01*
X0031992Y0014221D01*
X0032131Y0014158D01*
X0032271Y0014099D01*
X0032413Y0014044D01*
X0032556Y0013992D01*
X0032700Y0013944D01*
X0032845Y0013899D01*
X0032992Y0013859D01*
X0033139Y0013822D01*
X0033288Y0013789D01*
X0033437Y0013760D01*
X0033587Y0013734D01*
X0033738Y0013713D01*
X0033889Y0013695D01*
X0034040Y0013682D01*
X0034192Y0013672D01*
X0034344Y0013666D01*
X0034496Y0013664D01*
X0046307Y0013664D01*
X0046459Y0013666D01*
X0046611Y0013672D01*
X0046763Y0013682D01*
X0046914Y0013695D01*
X0047065Y0013713D01*
X0047216Y0013734D01*
X0047366Y0013760D01*
X0047515Y0013789D01*
X0047664Y0013822D01*
X0047811Y0013859D01*
X0047958Y0013899D01*
X0048103Y0013944D01*
X0048247Y0013992D01*
X0048390Y0014044D01*
X0048532Y0014099D01*
X0048672Y0014158D01*
X0048811Y0014221D01*
X0048948Y0014287D01*
X0049083Y0014357D01*
X0049216Y0014430D01*
X0049347Y0014507D01*
X0049477Y0014587D01*
X0049604Y0014670D01*
X0049729Y0014756D01*
X0049852Y0014846D01*
X0049972Y0014939D01*
X0050090Y0015035D01*
X0050206Y0015134D01*
X0050319Y0015236D01*
X0050429Y0015340D01*
X0050537Y0015448D01*
X0050641Y0015558D01*
X0050743Y0015671D01*
X0050842Y0015787D01*
X0050938Y0015905D01*
X0051031Y0016025D01*
X0051121Y0016148D01*
X0051207Y0016273D01*
X0051290Y0016400D01*
X0051370Y0016530D01*
X0051447Y0016661D01*
X0051520Y0016794D01*
X0051590Y0016929D01*
X0051656Y0017066D01*
X0051719Y0017205D01*
X0051778Y0017345D01*
X0051833Y0017487D01*
X0051885Y0017630D01*
X0051933Y0017774D01*
X0051978Y0017919D01*
X0052018Y0018066D01*
X0052055Y0018213D01*
X0052088Y0018362D01*
X0052117Y0018511D01*
X0052143Y0018661D01*
X0052164Y0018812D01*
X0052182Y0018963D01*
X0052195Y0019114D01*
X0052205Y0019266D01*
X0052211Y0019418D01*
X0052213Y0019570D01*
X0052211Y0019722D01*
X0052205Y0019874D01*
X0052195Y0020026D01*
X0052182Y0020177D01*
X0052164Y0020328D01*
X0052143Y0020479D01*
X0052117Y0020629D01*
X0052088Y0020778D01*
X0052055Y0020927D01*
X0052018Y0021074D01*
X0051978Y0021221D01*
X0051933Y0021366D01*
X0051885Y0021510D01*
X0051833Y0021653D01*
X0051778Y0021795D01*
X0051719Y0021935D01*
X0051656Y0022074D01*
X0051590Y0022211D01*
X0051520Y0022346D01*
X0051447Y0022479D01*
X0051370Y0022610D01*
X0051290Y0022740D01*
X0051207Y0022867D01*
X0051121Y0022992D01*
X0051031Y0023115D01*
X0050938Y0023235D01*
X0050842Y0023353D01*
X0050743Y0023469D01*
X0050641Y0023582D01*
X0050537Y0023692D01*
X0050429Y0023800D01*
X0050319Y0023904D01*
X0050206Y0024006D01*
X0050090Y0024105D01*
X0049972Y0024201D01*
X0049852Y0024294D01*
X0049729Y0024384D01*
X0049604Y0024470D01*
X0049477Y0024553D01*
X0049347Y0024633D01*
X0049216Y0024710D01*
X0049083Y0024783D01*
X0048948Y0024853D01*
X0048811Y0024919D01*
X0048672Y0024982D01*
X0048532Y0025041D01*
X0048390Y0025096D01*
X0048247Y0025148D01*
X0048103Y0025196D01*
X0047958Y0025241D01*
X0047811Y0025281D01*
X0047664Y0025318D01*
X0047515Y0025351D01*
X0047366Y0025380D01*
X0047216Y0025406D01*
X0047065Y0025427D01*
X0046914Y0025445D01*
X0046763Y0025458D01*
X0046611Y0025468D01*
X0046459Y0025474D01*
X0046307Y0025476D01*
X0034496Y0084530D02*
X0022685Y0084530D01*
X0022533Y0084532D01*
X0022381Y0084538D01*
X0022229Y0084548D01*
X0022078Y0084561D01*
X0021927Y0084579D01*
X0021776Y0084600D01*
X0021626Y0084626D01*
X0021477Y0084655D01*
X0021328Y0084688D01*
X0021181Y0084725D01*
X0021034Y0084765D01*
X0020889Y0084810D01*
X0020745Y0084858D01*
X0020602Y0084910D01*
X0020460Y0084965D01*
X0020320Y0085024D01*
X0020181Y0085087D01*
X0020044Y0085153D01*
X0019909Y0085223D01*
X0019776Y0085296D01*
X0019645Y0085373D01*
X0019515Y0085453D01*
X0019388Y0085536D01*
X0019263Y0085622D01*
X0019140Y0085712D01*
X0019020Y0085805D01*
X0018902Y0085901D01*
X0018786Y0086000D01*
X0018673Y0086102D01*
X0018563Y0086206D01*
X0018455Y0086314D01*
X0018351Y0086424D01*
X0018249Y0086537D01*
X0018150Y0086653D01*
X0018054Y0086771D01*
X0017961Y0086891D01*
X0017871Y0087014D01*
X0017785Y0087139D01*
X0017702Y0087266D01*
X0017622Y0087396D01*
X0017545Y0087527D01*
X0017472Y0087660D01*
X0017402Y0087795D01*
X0017336Y0087932D01*
X0017273Y0088071D01*
X0017214Y0088211D01*
X0017159Y0088353D01*
X0017107Y0088496D01*
X0017059Y0088640D01*
X0017014Y0088785D01*
X0016974Y0088932D01*
X0016937Y0089079D01*
X0016904Y0089228D01*
X0016875Y0089377D01*
X0016849Y0089527D01*
X0016828Y0089678D01*
X0016810Y0089829D01*
X0016797Y0089980D01*
X0016787Y0090132D01*
X0016781Y0090284D01*
X0016779Y0090436D01*
X0016781Y0090588D01*
X0016787Y0090740D01*
X0016797Y0090892D01*
X0016810Y0091043D01*
X0016828Y0091194D01*
X0016849Y0091345D01*
X0016875Y0091495D01*
X0016904Y0091644D01*
X0016937Y0091793D01*
X0016974Y0091940D01*
X0017014Y0092087D01*
X0017059Y0092232D01*
X0017107Y0092376D01*
X0017159Y0092519D01*
X0017214Y0092661D01*
X0017273Y0092801D01*
X0017336Y0092940D01*
X0017402Y0093077D01*
X0017472Y0093212D01*
X0017545Y0093345D01*
X0017622Y0093476D01*
X0017702Y0093606D01*
X0017785Y0093733D01*
X0017871Y0093858D01*
X0017961Y0093981D01*
X0018054Y0094101D01*
X0018150Y0094219D01*
X0018249Y0094335D01*
X0018351Y0094448D01*
X0018455Y0094558D01*
X0018563Y0094666D01*
X0018673Y0094770D01*
X0018786Y0094872D01*
X0018902Y0094971D01*
X0019020Y0095067D01*
X0019140Y0095160D01*
X0019263Y0095250D01*
X0019388Y0095336D01*
X0019515Y0095419D01*
X0019645Y0095499D01*
X0019776Y0095576D01*
X0019909Y0095649D01*
X0020044Y0095719D01*
X0020181Y0095785D01*
X0020320Y0095848D01*
X0020460Y0095907D01*
X0020602Y0095962D01*
X0020745Y0096014D01*
X0020889Y0096062D01*
X0021034Y0096107D01*
X0021181Y0096147D01*
X0021328Y0096184D01*
X0021477Y0096217D01*
X0021626Y0096246D01*
X0021776Y0096272D01*
X0021927Y0096293D01*
X0022078Y0096311D01*
X0022229Y0096324D01*
X0022381Y0096334D01*
X0022533Y0096340D01*
X0022685Y0096342D01*
X0022685Y0096341D02*
X0034496Y0096341D01*
X0034496Y0096342D02*
X0034648Y0096340D01*
X0034800Y0096334D01*
X0034952Y0096324D01*
X0035103Y0096311D01*
X0035254Y0096293D01*
X0035405Y0096272D01*
X0035555Y0096246D01*
X0035704Y0096217D01*
X0035853Y0096184D01*
X0036000Y0096147D01*
X0036147Y0096107D01*
X0036292Y0096062D01*
X0036436Y0096014D01*
X0036579Y0095962D01*
X0036721Y0095907D01*
X0036861Y0095848D01*
X0037000Y0095785D01*
X0037137Y0095719D01*
X0037272Y0095649D01*
X0037405Y0095576D01*
X0037536Y0095499D01*
X0037666Y0095419D01*
X0037793Y0095336D01*
X0037918Y0095250D01*
X0038041Y0095160D01*
X0038161Y0095067D01*
X0038279Y0094971D01*
X0038395Y0094872D01*
X0038508Y0094770D01*
X0038618Y0094666D01*
X0038726Y0094558D01*
X0038830Y0094448D01*
X0038932Y0094335D01*
X0039031Y0094219D01*
X0039127Y0094101D01*
X0039220Y0093981D01*
X0039310Y0093858D01*
X0039396Y0093733D01*
X0039479Y0093606D01*
X0039559Y0093476D01*
X0039636Y0093345D01*
X0039709Y0093212D01*
X0039779Y0093077D01*
X0039845Y0092940D01*
X0039908Y0092801D01*
X0039967Y0092661D01*
X0040022Y0092519D01*
X0040074Y0092376D01*
X0040122Y0092232D01*
X0040167Y0092087D01*
X0040207Y0091940D01*
X0040244Y0091793D01*
X0040277Y0091644D01*
X0040306Y0091495D01*
X0040332Y0091345D01*
X0040353Y0091194D01*
X0040371Y0091043D01*
X0040384Y0090892D01*
X0040394Y0090740D01*
X0040400Y0090588D01*
X0040402Y0090436D01*
X0040400Y0090284D01*
X0040394Y0090132D01*
X0040384Y0089980D01*
X0040371Y0089829D01*
X0040353Y0089678D01*
X0040332Y0089527D01*
X0040306Y0089377D01*
X0040277Y0089228D01*
X0040244Y0089079D01*
X0040207Y0088932D01*
X0040167Y0088785D01*
X0040122Y0088640D01*
X0040074Y0088496D01*
X0040022Y0088353D01*
X0039967Y0088211D01*
X0039908Y0088071D01*
X0039845Y0087932D01*
X0039779Y0087795D01*
X0039709Y0087660D01*
X0039636Y0087527D01*
X0039559Y0087396D01*
X0039479Y0087266D01*
X0039396Y0087139D01*
X0039310Y0087014D01*
X0039220Y0086891D01*
X0039127Y0086771D01*
X0039031Y0086653D01*
X0038932Y0086537D01*
X0038830Y0086424D01*
X0038726Y0086314D01*
X0038618Y0086206D01*
X0038508Y0086102D01*
X0038395Y0086000D01*
X0038279Y0085901D01*
X0038161Y0085805D01*
X0038041Y0085712D01*
X0037918Y0085622D01*
X0037793Y0085536D01*
X0037666Y0085453D01*
X0037536Y0085373D01*
X0037405Y0085296D01*
X0037272Y0085223D01*
X0037137Y0085153D01*
X0037000Y0085087D01*
X0036861Y0085024D01*
X0036721Y0084965D01*
X0036579Y0084910D01*
X0036436Y0084858D01*
X0036292Y0084810D01*
X0036147Y0084765D01*
X0036000Y0084725D01*
X0035853Y0084688D01*
X0035704Y0084655D01*
X0035555Y0084626D01*
X0035405Y0084600D01*
X0035254Y0084579D01*
X0035103Y0084561D01*
X0034952Y0084548D01*
X0034800Y0084538D01*
X0034648Y0084532D01*
X0034496Y0084530D01*
D16*
X0034496Y0090436D02*
X0022685Y0090436D01*
X0034496Y0019570D02*
X0046307Y0019570D01*
X0203787Y0019570D02*
X0215598Y0019570D01*
X0203787Y0090436D02*
X0191976Y0090436D01*
D17*
X0160480Y0023507D03*
X0081740Y0023507D03*
D18*
X0072540Y0023678D02*
X0052486Y0023678D01*
X0052478Y0023693D02*
X0051887Y0024463D01*
X0051200Y0025149D01*
X0050430Y0025740D01*
X0049648Y0026192D01*
X0049118Y0026722D01*
X0049118Y0026722D01*
X0046017Y0028007D01*
X0034786Y0028007D01*
X0031685Y0026722D01*
X0031155Y0026192D01*
X0030373Y0025740D01*
X0029603Y0025149D01*
X0028916Y0024463D01*
X0028325Y0023693D01*
X0027840Y0022852D01*
X0027469Y0021955D01*
X0027217Y0021017D01*
X0027092Y0020070D01*
X0028028Y0020070D01*
X0028028Y0019070D01*
X0027092Y0019070D01*
X0027217Y0018122D01*
X0027469Y0017184D01*
X0027840Y0016287D01*
X0028325Y0015446D01*
X0028916Y0014676D01*
X0029603Y0013990D01*
X0030373Y0013399D01*
X0031155Y0012947D01*
X0031685Y0012417D01*
X0031685Y0012417D01*
X0034786Y0011133D01*
X0037360Y0011133D01*
X0043443Y0011133D01*
X0046017Y0011133D01*
X0049118Y0012417D01*
X0049648Y0012947D01*
X0050430Y0013399D01*
X0051200Y0013990D01*
X0051887Y0014676D01*
X0052478Y0015446D01*
X0052963Y0016287D01*
X0053335Y0017184D01*
X0053586Y0018122D01*
X0053711Y0019070D01*
X0052776Y0019070D01*
X0052776Y0020070D01*
X0053711Y0020070D01*
X0053586Y0021017D01*
X0053335Y0021955D01*
X0052963Y0022852D01*
X0052478Y0023693D01*
X0053035Y0022679D02*
X0072540Y0022679D01*
X0072540Y0021681D02*
X0053408Y0021681D01*
X0053630Y0020682D02*
X0072540Y0020682D01*
X0072540Y0019696D02*
X0077929Y0014307D01*
X0085551Y0014307D01*
X0090940Y0019696D01*
X0090940Y0027317D01*
X0085551Y0032707D01*
X0077929Y0032707D01*
X0072540Y0027317D01*
X0072540Y0019696D01*
X0072552Y0019684D02*
X0052776Y0019684D01*
X0053660Y0018685D02*
X0073551Y0018685D01*
X0074549Y0017687D02*
X0053469Y0017687D01*
X0053129Y0016688D02*
X0075548Y0016688D01*
X0076546Y0015690D02*
X0052618Y0015690D01*
X0051898Y0014691D02*
X0077545Y0014691D01*
X0085935Y0014691D02*
X0156568Y0014691D01*
X0156752Y0014507D02*
X0159980Y0014507D01*
X0159980Y0023006D01*
X0160980Y0023006D01*
X0160980Y0014507D01*
X0164208Y0014507D01*
X0169480Y0019779D01*
X0169480Y0023007D01*
X0160980Y0023007D01*
X0160980Y0024007D01*
X0159980Y0024007D01*
X0159980Y0032507D01*
X0156752Y0032507D01*
X0151480Y0027234D01*
X0151480Y0024007D01*
X0159980Y0024007D01*
X0159980Y0023007D01*
X0151480Y0023007D01*
X0151480Y0019779D01*
X0156752Y0014507D01*
X0155569Y0015690D02*
X0086934Y0015690D01*
X0087932Y0016688D02*
X0154571Y0016688D01*
X0153572Y0017687D02*
X0088931Y0017687D01*
X0089929Y0018685D02*
X0152574Y0018685D01*
X0151575Y0019684D02*
X0090928Y0019684D01*
X0090940Y0020682D02*
X0151480Y0020682D01*
X0151480Y0021681D02*
X0090940Y0021681D01*
X0090940Y0022679D02*
X0151480Y0022679D01*
X0151480Y0024676D02*
X0140792Y0024676D01*
X0140931Y0024743D02*
X0142078Y0025464D01*
X0143137Y0026309D01*
X0144095Y0027267D01*
X0144940Y0028326D01*
X0145661Y0029473D01*
X0146249Y0030694D01*
X0146696Y0031973D01*
X0146998Y0033294D01*
X0147150Y0034640D01*
X0147150Y0034818D01*
X0135587Y0034818D01*
X0135587Y0035818D01*
X0134587Y0035818D01*
X0134587Y0047381D01*
X0134409Y0047381D01*
X0133063Y0047229D01*
X0131742Y0046927D01*
X0130463Y0046480D01*
X0129242Y0045892D01*
X0128095Y0045171D01*
X0127036Y0044326D01*
X0126078Y0043368D01*
X0125233Y0042309D01*
X0124512Y0041162D01*
X0123924Y0039941D01*
X0123477Y0038662D01*
X0123175Y0037341D01*
X0123024Y0035995D01*
X0123024Y0035818D01*
X0134587Y0035818D01*
X0134587Y0034818D01*
X0135587Y0034818D01*
X0135587Y0023255D01*
X0135764Y0023255D01*
X0137110Y0023406D01*
X0138431Y0023708D01*
X0139710Y0024155D01*
X0140931Y0024743D01*
X0142342Y0025675D02*
X0151480Y0025675D01*
X0151480Y0026673D02*
X0143502Y0026673D01*
X0144418Y0027672D02*
X0151918Y0027672D01*
X0152916Y0028670D02*
X0145156Y0028670D01*
X0145755Y0029669D02*
X0153915Y0029669D01*
X0154913Y0030667D02*
X0146236Y0030667D01*
X0146589Y0031666D02*
X0155912Y0031666D01*
X0159980Y0031666D02*
X0160980Y0031666D01*
X0160980Y0032507D02*
X0164208Y0032507D01*
X0169480Y0027234D01*
X0169480Y0024007D01*
X0160980Y0024007D01*
X0160980Y0032507D01*
X0160980Y0030667D02*
X0159980Y0030667D01*
X0159980Y0029669D02*
X0160980Y0029669D01*
X0160980Y0028670D02*
X0159980Y0028670D01*
X0159980Y0027672D02*
X0160980Y0027672D01*
X0160980Y0026673D02*
X0159980Y0026673D01*
X0159980Y0025675D02*
X0160980Y0025675D01*
X0160980Y0024676D02*
X0159980Y0024676D01*
X0159980Y0023678D02*
X0138299Y0023678D01*
X0135587Y0023678D02*
X0134587Y0023678D01*
X0134587Y0023255D02*
X0134587Y0034818D01*
X0123024Y0034818D01*
X0123024Y0034640D01*
X0123175Y0033294D01*
X0123477Y0031973D01*
X0123924Y0030694D01*
X0124512Y0029473D01*
X0125233Y0028326D01*
X0126078Y0027267D01*
X0127036Y0026309D01*
X0128095Y0025464D01*
X0129242Y0024743D01*
X0130463Y0024155D01*
X0131742Y0023708D01*
X0133063Y0023406D01*
X0134409Y0023255D01*
X0134587Y0023255D01*
X0134587Y0024676D02*
X0135587Y0024676D01*
X0135587Y0025675D02*
X0134587Y0025675D01*
X0134587Y0026673D02*
X0135587Y0026673D01*
X0135587Y0027672D02*
X0134587Y0027672D01*
X0134587Y0028670D02*
X0135587Y0028670D01*
X0135587Y0029669D02*
X0134587Y0029669D01*
X0134587Y0030667D02*
X0135587Y0030667D01*
X0135587Y0031666D02*
X0134587Y0031666D01*
X0134587Y0032664D02*
X0135587Y0032664D01*
X0135587Y0033663D02*
X0134587Y0033663D01*
X0134587Y0034661D02*
X0135587Y0034661D01*
X0135587Y0035660D02*
X0234720Y0035660D01*
X0234720Y0036658D02*
X0147075Y0036658D01*
X0147150Y0035995D02*
X0146998Y0037341D01*
X0146696Y0038662D01*
X0146249Y0039941D01*
X0145661Y0041162D01*
X0144940Y0042309D01*
X0144095Y0043368D01*
X0143137Y0044326D01*
X0142078Y0045171D01*
X0140931Y0045892D01*
X0139710Y0046480D01*
X0138431Y0046927D01*
X0137110Y0047229D01*
X0135764Y0047381D01*
X0135587Y0047381D01*
X0135587Y0035818D01*
X0147150Y0035818D01*
X0147150Y0035995D01*
X0147150Y0034661D02*
X0234720Y0034661D01*
X0234720Y0033663D02*
X0147039Y0033663D01*
X0146854Y0032664D02*
X0234720Y0032664D01*
X0234720Y0031666D02*
X0165049Y0031666D01*
X0166048Y0030667D02*
X0234720Y0030667D01*
X0234720Y0029669D02*
X0167046Y0029669D01*
X0168045Y0028670D02*
X0234720Y0028670D01*
X0234720Y0027672D02*
X0216116Y0027672D01*
X0215308Y0028007D02*
X0204078Y0028007D01*
X0200977Y0026722D01*
X0200977Y0026722D01*
X0200446Y0026192D01*
X0199664Y0025740D01*
X0198894Y0025149D01*
X0198208Y0024463D01*
X0197617Y0023693D01*
X0197131Y0022852D01*
X0196760Y0021955D01*
X0196509Y0021017D01*
X0196384Y0020070D01*
X0197319Y0020070D01*
X0197319Y0019070D01*
X0196384Y0019070D01*
X0196509Y0018122D01*
X0196760Y0017184D01*
X0197131Y0016287D01*
X0197617Y0015446D01*
X0198208Y0014676D01*
X0198894Y0013990D01*
X0199664Y0013399D01*
X0200446Y0012947D01*
X0200977Y0012417D01*
X0204078Y0011133D01*
X0204861Y0011133D01*
X0215308Y0011133D01*
X0218409Y0012417D01*
X0218409Y0012417D01*
X0218939Y0012947D01*
X0219722Y0013399D01*
X0220492Y0013990D01*
X0221178Y0014676D01*
X0221769Y0015446D01*
X0222254Y0016287D01*
X0222626Y0017184D01*
X0222877Y0018122D01*
X0223002Y0019070D01*
X0222067Y0019070D01*
X0222067Y0020070D01*
X0223002Y0020070D01*
X0222877Y0021017D01*
X0222626Y0021955D01*
X0222254Y0022852D01*
X0221769Y0023693D01*
X0221178Y0024463D01*
X0220492Y0025149D01*
X0219722Y0025740D01*
X0218939Y0026192D01*
X0218409Y0026722D01*
X0215308Y0028007D01*
X0218409Y0026722D02*
X0218409Y0026722D01*
X0218458Y0026673D02*
X0234720Y0026673D01*
X0234720Y0025675D02*
X0230926Y0025675D01*
X0230830Y0025770D02*
X0230488Y0025967D01*
X0230107Y0026070D01*
X0227909Y0026070D01*
X0227909Y0020070D01*
X0226909Y0020070D01*
X0226909Y0026070D01*
X0224712Y0026070D01*
X0224330Y0025967D01*
X0223988Y0025770D01*
X0223709Y0025491D01*
X0223512Y0025149D01*
X0223409Y0024767D01*
X0223409Y0020070D01*
X0226909Y0020070D01*
X0226909Y0019070D01*
X0223409Y0019070D01*
X0223409Y0014372D01*
X0223512Y0013991D01*
X0223709Y0013649D01*
X0223988Y0013369D01*
X0224330Y0013172D01*
X0224712Y0013070D01*
X0226909Y0013070D01*
X0226909Y0019070D01*
X0227909Y0019070D01*
X0227909Y0013070D01*
X0230107Y0013070D01*
X0230488Y0013172D01*
X0230830Y0013369D01*
X0231110Y0013649D01*
X0231307Y0013991D01*
X0231409Y0014372D01*
X0231409Y0019070D01*
X0227909Y0019070D01*
X0227909Y0020070D01*
X0231409Y0020070D01*
X0231409Y0024767D01*
X0231307Y0025149D01*
X0231110Y0025491D01*
X0230830Y0025770D01*
X0231409Y0024676D02*
X0234720Y0024676D01*
X0234720Y0023678D02*
X0231409Y0023678D01*
X0231409Y0022679D02*
X0234720Y0022679D01*
X0234720Y0021681D02*
X0231409Y0021681D01*
X0231409Y0020682D02*
X0234720Y0020682D01*
X0234720Y0019684D02*
X0227909Y0019684D01*
X0227409Y0019570D02*
X0209693Y0019570D01*
X0220965Y0024676D02*
X0223409Y0024676D01*
X0223409Y0023678D02*
X0221778Y0023678D01*
X0222326Y0022679D02*
X0223409Y0022679D01*
X0223409Y0021681D02*
X0222699Y0021681D01*
X0222921Y0020682D02*
X0223409Y0020682D01*
X0222067Y0019684D02*
X0226909Y0019684D01*
X0226909Y0020682D02*
X0227909Y0020682D01*
X0227909Y0021681D02*
X0226909Y0021681D01*
X0226909Y0022679D02*
X0227909Y0022679D01*
X0227909Y0023678D02*
X0226909Y0023678D01*
X0226909Y0024676D02*
X0227909Y0024676D01*
X0227909Y0025675D02*
X0226909Y0025675D01*
X0223893Y0025675D02*
X0219807Y0025675D01*
X0222951Y0018685D02*
X0223409Y0018685D01*
X0223409Y0017687D02*
X0222761Y0017687D01*
X0222421Y0016688D02*
X0223409Y0016688D01*
X0223409Y0015690D02*
X0221909Y0015690D01*
X0221189Y0014691D02*
X0223409Y0014691D01*
X0223684Y0013693D02*
X0220104Y0013693D01*
X0218686Y0012694D02*
X0234720Y0012694D01*
X0234720Y0011696D02*
X0216667Y0011696D01*
X0226909Y0013693D02*
X0227909Y0013693D01*
X0227909Y0014691D02*
X0226909Y0014691D01*
X0226909Y0015690D02*
X0227909Y0015690D01*
X0227909Y0016688D02*
X0226909Y0016688D01*
X0226909Y0017687D02*
X0227909Y0017687D01*
X0227909Y0018685D02*
X0226909Y0018685D01*
X0231409Y0018685D02*
X0234720Y0018685D01*
X0234720Y0017687D02*
X0231409Y0017687D01*
X0231409Y0016688D02*
X0234720Y0016688D01*
X0234720Y0015690D02*
X0231409Y0015690D01*
X0231409Y0014691D02*
X0234720Y0014691D01*
X0234720Y0013693D02*
X0231135Y0013693D01*
X0234720Y0010697D02*
X0007500Y0010697D01*
X0007500Y0009699D02*
X0234720Y0009699D01*
X0234720Y0008700D02*
X0007500Y0008700D01*
X0007500Y0008322D02*
X0007500Y0083906D01*
X0007670Y0083736D01*
X0014078Y0083736D01*
X0015074Y0084732D01*
X0015074Y0088236D01*
X0015364Y0088236D01*
X0016237Y0086128D01*
X0018377Y0083988D01*
X0019730Y0083428D01*
X0019874Y0083283D01*
X0019874Y0083283D01*
X0022975Y0081999D01*
X0023758Y0081999D01*
X0034206Y0081999D01*
X0037307Y0083283D01*
X0037451Y0083428D01*
X0038804Y0083988D01*
X0040944Y0086128D01*
X0042102Y0088923D01*
X0042102Y0091949D01*
X0040944Y0094744D01*
X0038804Y0096883D01*
X0037451Y0097444D01*
X0037307Y0097588D01*
X0037307Y0097588D01*
X0034206Y0098873D01*
X0022975Y0098873D01*
X0019874Y0097588D01*
X0019730Y0097444D01*
X0018377Y0096883D01*
X0016237Y0094744D01*
X0015364Y0092636D01*
X0015074Y0092636D01*
X0015074Y0096140D01*
X0014078Y0097136D01*
X0007670Y0097136D01*
X0007500Y0096966D01*
X0007500Y0101684D01*
X0234720Y0101684D01*
X0234720Y0008322D01*
X0007500Y0008322D01*
X0007500Y0011696D02*
X0033427Y0011696D01*
X0031408Y0012694D02*
X0007500Y0012694D01*
X0007500Y0013693D02*
X0018959Y0013693D01*
X0018985Y0013649D02*
X0019264Y0013369D01*
X0019606Y0013172D01*
X0019988Y0013070D01*
X0022185Y0013070D01*
X0022185Y0019070D01*
X0018685Y0019070D01*
X0018685Y0014372D01*
X0018787Y0013991D01*
X0018985Y0013649D01*
X0018685Y0014691D02*
X0007500Y0014691D01*
X0007500Y0015690D02*
X0018685Y0015690D01*
X0018685Y0016688D02*
X0007500Y0016688D01*
X0007500Y0017687D02*
X0018685Y0017687D01*
X0018685Y0018685D02*
X0007500Y0018685D01*
X0007500Y0019684D02*
X0022185Y0019684D01*
X0022185Y0020070D02*
X0022185Y0019070D01*
X0023185Y0019070D01*
X0023185Y0020070D01*
X0022185Y0020070D01*
X0022185Y0026070D01*
X0019988Y0026070D01*
X0019606Y0025967D01*
X0019264Y0025770D01*
X0018985Y0025491D01*
X0018787Y0025149D01*
X0018685Y0024767D01*
X0018685Y0020070D01*
X0022185Y0020070D01*
X0022185Y0020682D02*
X0023185Y0020682D01*
X0023185Y0020070D02*
X0023185Y0026070D01*
X0025383Y0026070D01*
X0025764Y0025967D01*
X0026106Y0025770D01*
X0026385Y0025491D01*
X0026583Y0025149D01*
X0026685Y0024767D01*
X0026685Y0020070D01*
X0023185Y0020070D01*
X0023185Y0019684D02*
X0028028Y0019684D01*
X0027173Y0020682D02*
X0026685Y0020682D01*
X0026685Y0021681D02*
X0027395Y0021681D01*
X0027768Y0022679D02*
X0026685Y0022679D01*
X0026685Y0023678D02*
X0028317Y0023678D01*
X0029130Y0024676D02*
X0026685Y0024676D01*
X0026201Y0025675D02*
X0030288Y0025675D01*
X0031637Y0026673D02*
X0007500Y0026673D01*
X0007500Y0025675D02*
X0019169Y0025675D01*
X0018685Y0024676D02*
X0007500Y0024676D01*
X0007500Y0023678D02*
X0018685Y0023678D01*
X0018685Y0022679D02*
X0007500Y0022679D01*
X0007500Y0021681D02*
X0018685Y0021681D01*
X0018685Y0020682D02*
X0007500Y0020682D01*
X0007500Y0027672D02*
X0033978Y0027672D01*
X0031685Y0026722D02*
X0031685Y0026722D01*
X0023185Y0025675D02*
X0022185Y0025675D01*
X0022185Y0024676D02*
X0023185Y0024676D01*
X0023185Y0023678D02*
X0022185Y0023678D01*
X0022185Y0022679D02*
X0023185Y0022679D01*
X0023185Y0021681D02*
X0022185Y0021681D01*
X0022685Y0019570D02*
X0040402Y0019570D01*
X0050516Y0025675D02*
X0072540Y0025675D01*
X0072540Y0026673D02*
X0049167Y0026673D01*
X0046825Y0027672D02*
X0072895Y0027672D01*
X0073893Y0028670D02*
X0007500Y0028670D01*
X0007500Y0029669D02*
X0074892Y0029669D01*
X0075890Y0030667D02*
X0007500Y0030667D01*
X0007500Y0031666D02*
X0076889Y0031666D01*
X0077887Y0032664D02*
X0007500Y0032664D01*
X0007500Y0033663D02*
X0094882Y0033663D01*
X0094871Y0033703D02*
X0095707Y0030584D01*
X0097321Y0027788D01*
X0099604Y0025505D01*
X0102401Y0023890D01*
X0105519Y0023055D01*
X0108748Y0023055D01*
X0111867Y0023890D01*
X0114664Y0025505D01*
X0116947Y0027788D01*
X0118561Y0030584D01*
X0119397Y0033703D01*
X0119397Y0036932D01*
X0118561Y0040051D01*
X0116947Y0042847D01*
X0114664Y0045130D01*
X0111867Y0046745D01*
X0108748Y0047581D01*
X0105519Y0047581D01*
X0102401Y0046745D01*
X0099604Y0045130D01*
X0097321Y0042847D01*
X0095707Y0040051D01*
X0094871Y0036932D01*
X0094871Y0033703D01*
X0094871Y0034661D02*
X0007500Y0034661D01*
X0007500Y0035660D02*
X0094871Y0035660D01*
X0094871Y0036658D02*
X0007500Y0036658D01*
X0007500Y0037657D02*
X0095065Y0037657D01*
X0095333Y0038655D02*
X0007500Y0038655D01*
X0007500Y0039654D02*
X0021000Y0039654D01*
X0019777Y0040013D02*
X0024277Y0038692D01*
X0025727Y0038692D01*
X0044715Y0038692D01*
X0049216Y0040013D01*
X0053161Y0042549D01*
X0053161Y0042549D01*
X0056233Y0046094D01*
X0058181Y0050360D01*
X0058849Y0055003D01*
X0058181Y0059645D01*
X0058181Y0059645D01*
X0056233Y0063912D01*
X0053161Y0067456D01*
X0053161Y0067456D01*
X0049216Y0069992D01*
X0049216Y0069992D01*
X0044715Y0071314D01*
X0024277Y0071314D01*
X0019777Y0069992D01*
X0019777Y0069992D01*
X0015831Y0067456D01*
X0015831Y0067456D01*
X0012759Y0063912D01*
X0012759Y0063912D01*
X0010811Y0059645D01*
X0010143Y0055003D01*
X0010143Y0055003D01*
X0010811Y0050360D01*
X0012759Y0046094D01*
X0012759Y0046094D01*
X0015831Y0042549D01*
X0019777Y0040013D01*
X0018782Y0040652D02*
X0007500Y0040652D01*
X0007500Y0041651D02*
X0017228Y0041651D01*
X0015831Y0042549D02*
X0015831Y0042549D01*
X0015831Y0042549D01*
X0015744Y0042649D02*
X0007500Y0042649D01*
X0007500Y0043648D02*
X0014878Y0043648D01*
X0014013Y0044646D02*
X0007500Y0044646D01*
X0007500Y0045645D02*
X0013148Y0045645D01*
X0012508Y0046643D02*
X0007500Y0046643D01*
X0007500Y0047642D02*
X0012052Y0047642D01*
X0011596Y0048640D02*
X0007500Y0048640D01*
X0007500Y0049639D02*
X0011140Y0049639D01*
X0010811Y0050360D02*
X0010811Y0050360D01*
X0010771Y0050637D02*
X0007500Y0050637D01*
X0007500Y0051636D02*
X0010627Y0051636D01*
X0010484Y0052634D02*
X0007500Y0052634D01*
X0007500Y0053633D02*
X0010340Y0053633D01*
X0010197Y0054632D02*
X0007500Y0054632D01*
X0007500Y0055630D02*
X0010234Y0055630D01*
X0010377Y0056629D02*
X0007500Y0056629D01*
X0007500Y0057627D02*
X0010521Y0057627D01*
X0010664Y0058626D02*
X0007500Y0058626D01*
X0007500Y0059624D02*
X0010808Y0059624D01*
X0010811Y0059645D02*
X0010811Y0059645D01*
X0011257Y0060623D02*
X0007500Y0060623D01*
X0007500Y0061621D02*
X0011713Y0061621D01*
X0012169Y0062620D02*
X0007500Y0062620D01*
X0007500Y0063618D02*
X0012625Y0063618D01*
X0013370Y0064617D02*
X0007500Y0064617D01*
X0007500Y0065615D02*
X0014235Y0065615D01*
X0015101Y0066614D02*
X0007500Y0066614D01*
X0007500Y0067612D02*
X0016073Y0067612D01*
X0017627Y0068611D02*
X0007500Y0068611D01*
X0007500Y0069609D02*
X0019181Y0069609D01*
X0021873Y0070608D02*
X0007500Y0070608D01*
X0007500Y0071606D02*
X0234720Y0071606D01*
X0234720Y0070608D02*
X0216411Y0070608D01*
X0218507Y0069992D02*
X0214007Y0071314D01*
X0193568Y0071314D01*
X0189068Y0069992D01*
X0185122Y0067456D01*
X0182051Y0063912D01*
X0182051Y0063912D01*
X0180102Y0059645D01*
X0179435Y0055003D01*
X0180102Y0050360D01*
X0182051Y0046094D01*
X0185122Y0042549D01*
X0185122Y0042549D01*
X0185122Y0042549D01*
X0189068Y0040013D01*
X0193568Y0038692D01*
X0195018Y0038692D01*
X0214007Y0038692D01*
X0218507Y0040013D01*
X0222453Y0042549D01*
X0225524Y0046094D01*
X0227473Y0050360D01*
X0228140Y0055003D01*
X0227473Y0059645D01*
X0225524Y0063912D01*
X0222453Y0067456D01*
X0222453Y0067456D01*
X0218507Y0069992D01*
X0218507Y0069992D01*
X0219103Y0069609D02*
X0234720Y0069609D01*
X0234720Y0068611D02*
X0220657Y0068611D01*
X0222210Y0067612D02*
X0234720Y0067612D01*
X0234720Y0066614D02*
X0223183Y0066614D01*
X0222453Y0067456D02*
X0222453Y0067456D01*
X0224048Y0065615D02*
X0234720Y0065615D01*
X0234720Y0064617D02*
X0224913Y0064617D01*
X0225524Y0063912D02*
X0225524Y0063912D01*
X0225658Y0063618D02*
X0234720Y0063618D01*
X0234720Y0062620D02*
X0226114Y0062620D01*
X0226570Y0061621D02*
X0234720Y0061621D01*
X0234720Y0060623D02*
X0227026Y0060623D01*
X0227473Y0059645D02*
X0227473Y0059645D01*
X0227476Y0059624D02*
X0234720Y0059624D01*
X0234720Y0058626D02*
X0227619Y0058626D01*
X0227763Y0057627D02*
X0234720Y0057627D01*
X0234720Y0056629D02*
X0227906Y0056629D01*
X0228050Y0055630D02*
X0234720Y0055630D01*
X0234720Y0054632D02*
X0228087Y0054632D01*
X0228140Y0055003D02*
X0228140Y0055003D01*
X0227943Y0053633D02*
X0234720Y0053633D01*
X0234720Y0052634D02*
X0227800Y0052634D01*
X0227656Y0051636D02*
X0234720Y0051636D01*
X0234720Y0050637D02*
X0227513Y0050637D01*
X0227473Y0050360D02*
X0227473Y0050360D01*
X0227143Y0049639D02*
X0234720Y0049639D01*
X0234720Y0048640D02*
X0226687Y0048640D01*
X0226231Y0047642D02*
X0234720Y0047642D01*
X0234720Y0046643D02*
X0225775Y0046643D01*
X0225524Y0046094D02*
X0225524Y0046094D01*
X0225135Y0045645D02*
X0234720Y0045645D01*
X0234720Y0044646D02*
X0224270Y0044646D01*
X0223405Y0043648D02*
X0234720Y0043648D01*
X0234720Y0042649D02*
X0222540Y0042649D01*
X0222453Y0042549D02*
X0222453Y0042549D01*
X0221055Y0041651D02*
X0234720Y0041651D01*
X0234720Y0040652D02*
X0219502Y0040652D01*
X0218507Y0040013D02*
X0218507Y0040013D01*
X0217284Y0039654D02*
X0234720Y0039654D01*
X0234720Y0038655D02*
X0146698Y0038655D01*
X0146926Y0037657D02*
X0234720Y0037657D01*
X0203269Y0027672D02*
X0169043Y0027672D01*
X0169480Y0026673D02*
X0200928Y0026673D01*
X0199579Y0025675D02*
X0169480Y0025675D01*
X0169480Y0024676D02*
X0198421Y0024676D01*
X0197608Y0023678D02*
X0160980Y0023678D01*
X0160980Y0022679D02*
X0159980Y0022679D01*
X0159980Y0021681D02*
X0160980Y0021681D01*
X0160980Y0020682D02*
X0159980Y0020682D01*
X0159980Y0019684D02*
X0160980Y0019684D01*
X0160980Y0018685D02*
X0159980Y0018685D01*
X0159980Y0017687D02*
X0160980Y0017687D01*
X0160980Y0016688D02*
X0159980Y0016688D01*
X0159980Y0015690D02*
X0160980Y0015690D01*
X0160980Y0014691D02*
X0159980Y0014691D01*
X0164393Y0014691D02*
X0198196Y0014691D01*
X0197476Y0015690D02*
X0165391Y0015690D01*
X0166390Y0016688D02*
X0196965Y0016688D01*
X0196625Y0017687D02*
X0167388Y0017687D01*
X0168387Y0018685D02*
X0196434Y0018685D01*
X0197319Y0019684D02*
X0169385Y0019684D01*
X0169480Y0020682D02*
X0196464Y0020682D01*
X0196686Y0021681D02*
X0169480Y0021681D01*
X0169480Y0022679D02*
X0197060Y0022679D01*
X0199282Y0013693D02*
X0050813Y0013693D01*
X0049395Y0012694D02*
X0200700Y0012694D01*
X0202718Y0011696D02*
X0047376Y0011696D01*
X0049118Y0012417D02*
X0049118Y0012417D01*
X0029990Y0013693D02*
X0026411Y0013693D01*
X0026385Y0013649D02*
X0026583Y0013991D01*
X0026685Y0014372D01*
X0026685Y0019070D01*
X0023185Y0019070D01*
X0023185Y0013070D01*
X0025383Y0013070D01*
X0025764Y0013172D01*
X0026106Y0013369D01*
X0026385Y0013649D01*
X0026685Y0014691D02*
X0028905Y0014691D01*
X0028185Y0015690D02*
X0026685Y0015690D01*
X0026685Y0016688D02*
X0027674Y0016688D01*
X0027334Y0017687D02*
X0026685Y0017687D01*
X0026685Y0018685D02*
X0027143Y0018685D01*
X0023185Y0018685D02*
X0022185Y0018685D01*
X0022185Y0017687D02*
X0023185Y0017687D01*
X0023185Y0016688D02*
X0022185Y0016688D01*
X0022185Y0015690D02*
X0023185Y0015690D01*
X0023185Y0014691D02*
X0022185Y0014691D01*
X0022185Y0013693D02*
X0023185Y0013693D01*
X0051673Y0024676D02*
X0072540Y0024676D01*
X0087590Y0030667D02*
X0095684Y0030667D01*
X0095417Y0031666D02*
X0086592Y0031666D01*
X0085593Y0032664D02*
X0095149Y0032664D01*
X0096235Y0029669D02*
X0088589Y0029669D01*
X0089587Y0028670D02*
X0096812Y0028670D01*
X0097437Y0027672D02*
X0090586Y0027672D01*
X0090940Y0026673D02*
X0098436Y0026673D01*
X0099434Y0025675D02*
X0090940Y0025675D01*
X0090940Y0024676D02*
X0101039Y0024676D01*
X0103194Y0023678D02*
X0090940Y0023678D01*
X0111074Y0023678D02*
X0131874Y0023678D01*
X0129381Y0024676D02*
X0113228Y0024676D01*
X0114833Y0025675D02*
X0127831Y0025675D01*
X0126671Y0026673D02*
X0115832Y0026673D01*
X0116830Y0027672D02*
X0125755Y0027672D01*
X0125017Y0028670D02*
X0117456Y0028670D01*
X0118033Y0029669D02*
X0124418Y0029669D01*
X0123937Y0030667D02*
X0118583Y0030667D01*
X0118851Y0031666D02*
X0123584Y0031666D01*
X0123319Y0032664D02*
X0119118Y0032664D01*
X0119386Y0033663D02*
X0123134Y0033663D01*
X0123024Y0034661D02*
X0119397Y0034661D01*
X0119397Y0035660D02*
X0134587Y0035660D01*
X0134587Y0036658D02*
X0135587Y0036658D01*
X0135587Y0037657D02*
X0134587Y0037657D01*
X0134587Y0038655D02*
X0135587Y0038655D01*
X0135587Y0039654D02*
X0134587Y0039654D01*
X0134587Y0040652D02*
X0135587Y0040652D01*
X0135587Y0041651D02*
X0134587Y0041651D01*
X0134587Y0042649D02*
X0135587Y0042649D01*
X0135587Y0043648D02*
X0134587Y0043648D01*
X0134587Y0044646D02*
X0135587Y0044646D01*
X0135587Y0045645D02*
X0134587Y0045645D01*
X0134587Y0046643D02*
X0135587Y0046643D01*
X0139243Y0046643D02*
X0156380Y0046643D01*
X0156380Y0046701D02*
X0156380Y0045303D01*
X0160180Y0045303D01*
X0160180Y0049103D01*
X0158782Y0049103D01*
X0156380Y0046701D01*
X0156380Y0045645D02*
X0141324Y0045645D01*
X0142736Y0044646D02*
X0156380Y0044646D01*
X0156380Y0044703D02*
X0156380Y0043304D01*
X0158782Y0040903D01*
X0160180Y0040903D01*
X0160180Y0044703D01*
X0156380Y0044703D01*
X0156380Y0043648D02*
X0143816Y0043648D01*
X0144669Y0042649D02*
X0157035Y0042649D01*
X0158034Y0041651D02*
X0145354Y0041651D01*
X0145906Y0040652D02*
X0188073Y0040652D01*
X0189068Y0040013D02*
X0189068Y0040013D01*
X0190291Y0039654D02*
X0146349Y0039654D01*
X0160180Y0041651D02*
X0160780Y0041651D01*
X0160780Y0040903D02*
X0162179Y0040903D01*
X0164580Y0043304D01*
X0164580Y0044703D01*
X0160780Y0044703D01*
X0160780Y0045303D01*
X0160180Y0045303D01*
X0160180Y0044703D01*
X0160780Y0044703D01*
X0160780Y0040903D01*
X0162927Y0041651D02*
X0186519Y0041651D01*
X0185035Y0042649D02*
X0163925Y0042649D01*
X0164580Y0043648D02*
X0184170Y0043648D01*
X0183305Y0044646D02*
X0164580Y0044646D01*
X0164580Y0045303D02*
X0164580Y0046701D01*
X0162179Y0049103D01*
X0160780Y0049103D01*
X0160780Y0045303D01*
X0164580Y0045303D01*
X0164580Y0045645D02*
X0182439Y0045645D01*
X0182051Y0046094D02*
X0182051Y0046094D01*
X0181799Y0046643D02*
X0164580Y0046643D01*
X0163639Y0047642D02*
X0181343Y0047642D01*
X0180887Y0048640D02*
X0162641Y0048640D01*
X0160780Y0048640D02*
X0160180Y0048640D01*
X0160180Y0047642D02*
X0160780Y0047642D01*
X0160780Y0046643D02*
X0160180Y0046643D01*
X0160180Y0045645D02*
X0160780Y0045645D01*
X0160780Y0044646D02*
X0160180Y0044646D01*
X0160180Y0043648D02*
X0160780Y0043648D01*
X0160780Y0042649D02*
X0160180Y0042649D01*
X0157321Y0047642D02*
X0084899Y0047642D01*
X0085840Y0046701D02*
X0083438Y0049103D01*
X0082040Y0049103D01*
X0082040Y0045303D01*
X0081440Y0045303D01*
X0081440Y0049103D01*
X0080042Y0049103D01*
X0077640Y0046701D01*
X0077640Y0045303D01*
X0081440Y0045303D01*
X0081440Y0044703D01*
X0077640Y0044703D01*
X0077640Y0043304D01*
X0080042Y0040903D01*
X0081440Y0040903D01*
X0081440Y0044703D01*
X0082040Y0044703D01*
X0082040Y0045303D01*
X0085840Y0045303D01*
X0085840Y0046701D01*
X0085840Y0046643D02*
X0102225Y0046643D01*
X0100495Y0045645D02*
X0085840Y0045645D01*
X0085840Y0044703D02*
X0082040Y0044703D01*
X0082040Y0040903D01*
X0083438Y0040903D01*
X0085840Y0043304D01*
X0085840Y0044703D01*
X0085840Y0044646D02*
X0099120Y0044646D01*
X0098122Y0043648D02*
X0085840Y0043648D01*
X0085185Y0042649D02*
X0097207Y0042649D01*
X0096630Y0041651D02*
X0084187Y0041651D01*
X0082040Y0041651D02*
X0081440Y0041651D01*
X0081440Y0042649D02*
X0082040Y0042649D01*
X0082040Y0043648D02*
X0081440Y0043648D01*
X0081440Y0044646D02*
X0082040Y0044646D01*
X0082040Y0045645D02*
X0081440Y0045645D01*
X0081440Y0046643D02*
X0082040Y0046643D01*
X0082040Y0047642D02*
X0081440Y0047642D01*
X0081440Y0048640D02*
X0082040Y0048640D01*
X0083901Y0048640D02*
X0158320Y0048640D01*
X0179919Y0051636D02*
X0058365Y0051636D01*
X0058508Y0052634D02*
X0179775Y0052634D01*
X0179632Y0053633D02*
X0058652Y0053633D01*
X0058795Y0054632D02*
X0179488Y0054632D01*
X0179435Y0055003D02*
X0179435Y0055003D01*
X0179525Y0055630D02*
X0058759Y0055630D01*
X0058849Y0055003D02*
X0058849Y0055003D01*
X0058615Y0056629D02*
X0179668Y0056629D01*
X0179812Y0057627D02*
X0058471Y0057627D01*
X0058328Y0058626D02*
X0179956Y0058626D01*
X0180099Y0059624D02*
X0058184Y0059624D01*
X0057735Y0060623D02*
X0180548Y0060623D01*
X0180102Y0059645D02*
X0180102Y0059645D01*
X0181005Y0061621D02*
X0163180Y0061621D01*
X0162261Y0060703D02*
X0164780Y0063222D01*
X0164780Y0066784D01*
X0162261Y0069303D01*
X0158699Y0069303D01*
X0156180Y0066784D01*
X0156180Y0063222D01*
X0158699Y0060703D01*
X0162261Y0060703D01*
X0164178Y0062620D02*
X0181461Y0062620D01*
X0181917Y0063618D02*
X0164780Y0063618D01*
X0164780Y0064617D02*
X0182661Y0064617D01*
X0183527Y0065615D02*
X0164780Y0065615D01*
X0164780Y0066614D02*
X0184392Y0066614D01*
X0185122Y0067456D02*
X0185122Y0067456D01*
X0185364Y0067612D02*
X0163952Y0067612D01*
X0162953Y0068611D02*
X0186918Y0068611D01*
X0188472Y0069609D02*
X0049812Y0069609D01*
X0051365Y0068611D02*
X0079267Y0068611D01*
X0079959Y0069303D02*
X0077440Y0066784D01*
X0077440Y0063222D01*
X0079959Y0060703D01*
X0083521Y0060703D01*
X0086040Y0063222D01*
X0086040Y0066784D01*
X0083521Y0069303D01*
X0079959Y0069303D01*
X0084213Y0068611D02*
X0158007Y0068611D01*
X0157009Y0067612D02*
X0085212Y0067612D01*
X0086040Y0066614D02*
X0156180Y0066614D01*
X0156180Y0065615D02*
X0086040Y0065615D01*
X0086040Y0064617D02*
X0156180Y0064617D01*
X0156180Y0063618D02*
X0086040Y0063618D01*
X0085438Y0062620D02*
X0156782Y0062620D01*
X0157781Y0061621D02*
X0084440Y0061621D01*
X0079041Y0061621D02*
X0057279Y0061621D01*
X0056823Y0062620D02*
X0078042Y0062620D01*
X0077440Y0063618D02*
X0056367Y0063618D01*
X0056233Y0063912D02*
X0056233Y0063912D01*
X0055622Y0064617D02*
X0077440Y0064617D01*
X0077440Y0065615D02*
X0054757Y0065615D01*
X0053892Y0066614D02*
X0077440Y0066614D01*
X0078269Y0067612D02*
X0052919Y0067612D01*
X0053161Y0067456D02*
X0053161Y0067456D01*
X0047119Y0070608D02*
X0191164Y0070608D01*
X0189068Y0069992D02*
X0189068Y0069992D01*
X0192267Y0081999D02*
X0203497Y0081999D01*
X0206598Y0083283D01*
X0206743Y0083428D01*
X0208096Y0083988D01*
X0210235Y0086128D01*
X0211108Y0088236D01*
X0211398Y0088236D01*
X0211398Y0084732D01*
X0212394Y0083736D01*
X0218803Y0083736D01*
X0219798Y0084732D01*
X0219798Y0096140D01*
X0218803Y0097136D01*
X0212394Y0097136D01*
X0211398Y0096140D01*
X0211398Y0092636D01*
X0211108Y0092636D01*
X0210235Y0094744D01*
X0208096Y0096883D01*
X0206743Y0097444D01*
X0206598Y0097588D01*
X0203497Y0098873D01*
X0192267Y0098873D01*
X0189166Y0097588D01*
X0189166Y0097588D01*
X0189021Y0097444D01*
X0187668Y0096883D01*
X0185529Y0094744D01*
X0184371Y0091949D01*
X0184371Y0088923D01*
X0185529Y0086128D01*
X0187668Y0083988D01*
X0189021Y0083428D01*
X0189166Y0083283D01*
X0192267Y0081999D01*
X0190839Y0082590D02*
X0151158Y0082590D01*
X0151158Y0083588D02*
X0188633Y0083588D01*
X0189166Y0083283D02*
X0189166Y0083283D01*
X0187069Y0084587D02*
X0150914Y0084587D01*
X0151158Y0084343D02*
X0148639Y0086862D01*
X0145077Y0086862D01*
X0142558Y0084343D01*
X0142558Y0080781D01*
X0145077Y0078262D01*
X0148639Y0078262D01*
X0151158Y0080781D01*
X0151158Y0084343D01*
X0149916Y0085585D02*
X0186071Y0085585D01*
X0185340Y0086584D02*
X0148917Y0086584D01*
X0144799Y0086584D02*
X0128634Y0086584D01*
X0128557Y0086662D02*
X0127158Y0086662D01*
X0127158Y0082862D01*
X0126558Y0082862D01*
X0126558Y0086662D01*
X0125160Y0086662D01*
X0122758Y0084260D01*
X0122758Y0082862D01*
X0126558Y0082862D01*
X0126558Y0082262D01*
X0122758Y0082262D01*
X0122758Y0080863D01*
X0125160Y0078462D01*
X0126558Y0078462D01*
X0126558Y0082262D01*
X0127158Y0082262D01*
X0127158Y0082862D01*
X0130958Y0082862D01*
X0130958Y0084260D01*
X0128557Y0086662D01*
X0127158Y0086584D02*
X0126558Y0086584D01*
X0126558Y0085585D02*
X0127158Y0085585D01*
X0127158Y0084587D02*
X0126558Y0084587D01*
X0126558Y0083588D02*
X0127158Y0083588D01*
X0127158Y0082590D02*
X0142558Y0082590D01*
X0142558Y0083588D02*
X0130958Y0083588D01*
X0130631Y0084587D02*
X0142802Y0084587D01*
X0143801Y0085585D02*
X0129633Y0085585D01*
X0125082Y0086584D02*
X0112663Y0086584D01*
X0112446Y0086800D02*
X0110609Y0087562D01*
X0108620Y0087562D01*
X0106782Y0086800D01*
X0105375Y0085394D01*
X0104614Y0083556D01*
X0104614Y0081567D01*
X0105375Y0079729D01*
X0106782Y0078323D01*
X0108620Y0077562D01*
X0110609Y0077562D01*
X0112446Y0078323D01*
X0113853Y0079729D01*
X0114614Y0081567D01*
X0114614Y0083556D01*
X0113853Y0085394D01*
X0112446Y0086800D01*
X0113662Y0085585D02*
X0124084Y0085585D01*
X0123085Y0084587D02*
X0114187Y0084587D01*
X0114601Y0083588D02*
X0122758Y0083588D01*
X0122758Y0081591D02*
X0114614Y0081591D01*
X0114614Y0082590D02*
X0126558Y0082590D01*
X0127158Y0082262D02*
X0127158Y0078462D01*
X0128557Y0078462D01*
X0130958Y0080863D01*
X0130958Y0082262D01*
X0127158Y0082262D01*
X0127158Y0081591D02*
X0126558Y0081591D01*
X0126558Y0080593D02*
X0127158Y0080593D01*
X0127158Y0079594D02*
X0126558Y0079594D01*
X0126558Y0078596D02*
X0127158Y0078596D01*
X0128691Y0078596D02*
X0144743Y0078596D01*
X0143745Y0079594D02*
X0129689Y0079594D01*
X0130688Y0080593D02*
X0142746Y0080593D01*
X0142558Y0081591D02*
X0130958Y0081591D01*
X0125026Y0078596D02*
X0112719Y0078596D01*
X0113718Y0079594D02*
X0124027Y0079594D01*
X0123029Y0080593D02*
X0114211Y0080593D01*
X0110695Y0077597D02*
X0234720Y0077597D01*
X0234720Y0076599D02*
X0007500Y0076599D01*
X0007500Y0077597D02*
X0108534Y0077597D01*
X0106509Y0078596D02*
X0072322Y0078596D01*
X0072130Y0078456D02*
X0072741Y0078900D01*
X0073275Y0079435D01*
X0073719Y0080046D01*
X0074063Y0080719D01*
X0074296Y0081438D01*
X0074395Y0082062D01*
X0070114Y0082062D01*
X0070114Y0083062D01*
X0069114Y0083062D01*
X0069114Y0087342D01*
X0068490Y0087243D01*
X0067772Y0087010D01*
X0067098Y0086667D01*
X0066487Y0086223D01*
X0065953Y0085689D01*
X0065509Y0085077D01*
X0065166Y0084404D01*
X0064932Y0083686D01*
X0064834Y0083062D01*
X0069114Y0083062D01*
X0069114Y0082062D01*
X0064834Y0082062D01*
X0064932Y0081438D01*
X0065166Y0080719D01*
X0065509Y0080046D01*
X0065953Y0079435D01*
X0066487Y0078900D01*
X0067098Y0078456D01*
X0067772Y0078113D01*
X0068490Y0077880D01*
X0069114Y0077781D01*
X0069114Y0082062D01*
X0070114Y0082062D01*
X0070114Y0077781D01*
X0070738Y0077880D01*
X0071457Y0078113D01*
X0072130Y0078456D01*
X0073391Y0079594D02*
X0105510Y0079594D01*
X0105018Y0080593D02*
X0073998Y0080593D01*
X0074320Y0081591D02*
X0104614Y0081591D01*
X0104614Y0082590D02*
X0070114Y0082590D01*
X0070114Y0083062D02*
X0074395Y0083062D01*
X0074296Y0083686D01*
X0074063Y0084404D01*
X0073719Y0085077D01*
X0073275Y0085689D01*
X0072741Y0086223D01*
X0072130Y0086667D01*
X0071457Y0087010D01*
X0070738Y0087243D01*
X0070114Y0087342D01*
X0070114Y0083062D01*
X0070114Y0083588D02*
X0069114Y0083588D01*
X0069114Y0082590D02*
X0035633Y0082590D01*
X0037307Y0083283D02*
X0037307Y0083283D01*
X0037839Y0083588D02*
X0064917Y0083588D01*
X0065259Y0084587D02*
X0039403Y0084587D01*
X0040402Y0085585D02*
X0065878Y0085585D01*
X0066984Y0086584D02*
X0041133Y0086584D01*
X0041546Y0087582D02*
X0184926Y0087582D01*
X0184512Y0088581D02*
X0041960Y0088581D01*
X0042102Y0089579D02*
X0184371Y0089579D01*
X0184371Y0090578D02*
X0042102Y0090578D01*
X0042102Y0091576D02*
X0184371Y0091576D01*
X0184630Y0092575D02*
X0041842Y0092575D01*
X0041428Y0093573D02*
X0185044Y0093573D01*
X0185458Y0094572D02*
X0041015Y0094572D01*
X0040117Y0095570D02*
X0186355Y0095570D01*
X0187354Y0096569D02*
X0039119Y0096569D01*
X0037327Y0097568D02*
X0189145Y0097568D01*
X0191526Y0098566D02*
X0034946Y0098566D01*
X0022235Y0098566D02*
X0007500Y0098566D01*
X0007500Y0097568D02*
X0019854Y0097568D01*
X0019874Y0097588D02*
X0019874Y0097588D01*
X0018063Y0096569D02*
X0014645Y0096569D01*
X0015074Y0095570D02*
X0017064Y0095570D01*
X0016166Y0094572D02*
X0015074Y0094572D01*
X0015074Y0093573D02*
X0015753Y0093573D01*
X0010874Y0090436D02*
X0028591Y0090436D01*
X0017778Y0084587D02*
X0014929Y0084587D01*
X0015074Y0085585D02*
X0016780Y0085585D01*
X0016048Y0086584D02*
X0015074Y0086584D01*
X0015074Y0087582D02*
X0015635Y0087582D01*
X0019342Y0083588D02*
X0007500Y0083588D01*
X0007500Y0082590D02*
X0021548Y0082590D01*
X0007500Y0081591D02*
X0064908Y0081591D01*
X0065230Y0080593D02*
X0007500Y0080593D01*
X0007500Y0079594D02*
X0065837Y0079594D01*
X0066906Y0078596D02*
X0007500Y0078596D01*
X0007500Y0075600D02*
X0234720Y0075600D01*
X0234720Y0074602D02*
X0007500Y0074602D01*
X0007500Y0073603D02*
X0234720Y0073603D01*
X0234720Y0072605D02*
X0007500Y0072605D01*
X0058221Y0050637D02*
X0180062Y0050637D01*
X0180102Y0050360D02*
X0180102Y0050360D01*
X0180431Y0049639D02*
X0057852Y0049639D01*
X0058181Y0050360D02*
X0058181Y0050360D01*
X0057396Y0048640D02*
X0079580Y0048640D01*
X0078581Y0047642D02*
X0056940Y0047642D01*
X0056484Y0046643D02*
X0077640Y0046643D01*
X0077640Y0045645D02*
X0055844Y0045645D01*
X0056233Y0046094D02*
X0056233Y0046094D01*
X0054979Y0044646D02*
X0077640Y0044646D01*
X0077640Y0043648D02*
X0054114Y0043648D01*
X0053248Y0042649D02*
X0078295Y0042649D01*
X0079294Y0041651D02*
X0051764Y0041651D01*
X0050210Y0040652D02*
X0096054Y0040652D01*
X0095600Y0039654D02*
X0047992Y0039654D01*
X0049216Y0040013D02*
X0049216Y0040013D01*
X0112043Y0046643D02*
X0130930Y0046643D01*
X0128849Y0045645D02*
X0113772Y0045645D01*
X0115148Y0044646D02*
X0127437Y0044646D01*
X0126357Y0043648D02*
X0116146Y0043648D01*
X0117061Y0042649D02*
X0125504Y0042649D01*
X0124819Y0041651D02*
X0117637Y0041651D01*
X0118214Y0040652D02*
X0124267Y0040652D01*
X0123824Y0039654D02*
X0118668Y0039654D01*
X0118935Y0038655D02*
X0123475Y0038655D01*
X0123247Y0037657D02*
X0119203Y0037657D01*
X0119397Y0036658D02*
X0123098Y0036658D01*
X0148973Y0078596D02*
X0234720Y0078596D01*
X0234720Y0079594D02*
X0149972Y0079594D01*
X0150971Y0080593D02*
X0234720Y0080593D01*
X0234720Y0081591D02*
X0151158Y0081591D01*
X0106565Y0086584D02*
X0072244Y0086584D01*
X0073350Y0085585D02*
X0105567Y0085585D01*
X0105041Y0084587D02*
X0073969Y0084587D01*
X0074311Y0083588D02*
X0104627Y0083588D01*
X0070114Y0084587D02*
X0069114Y0084587D01*
X0069114Y0085585D02*
X0070114Y0085585D01*
X0070114Y0086584D02*
X0069114Y0086584D01*
X0069114Y0081591D02*
X0070114Y0081591D01*
X0070114Y0080593D02*
X0069114Y0080593D01*
X0069114Y0079594D02*
X0070114Y0079594D01*
X0070114Y0078596D02*
X0069114Y0078596D01*
X0007500Y0099565D02*
X0234720Y0099565D01*
X0234720Y0100563D02*
X0007500Y0100563D01*
X0007500Y0101562D02*
X0234720Y0101562D01*
X0234720Y0098566D02*
X0204237Y0098566D01*
X0206598Y0097588D02*
X0206598Y0097588D01*
X0206619Y0097568D02*
X0234720Y0097568D01*
X0234720Y0096569D02*
X0219369Y0096569D01*
X0219798Y0095570D02*
X0234720Y0095570D01*
X0234720Y0094572D02*
X0219798Y0094572D01*
X0219798Y0093573D02*
X0234720Y0093573D01*
X0234720Y0092575D02*
X0219798Y0092575D01*
X0219798Y0091576D02*
X0234720Y0091576D01*
X0234720Y0090578D02*
X0219798Y0090578D01*
X0219798Y0089579D02*
X0234720Y0089579D01*
X0234720Y0088581D02*
X0219798Y0088581D01*
X0219798Y0087582D02*
X0234720Y0087582D01*
X0234720Y0086584D02*
X0219798Y0086584D01*
X0219798Y0085585D02*
X0234720Y0085585D01*
X0234720Y0084587D02*
X0219654Y0084587D01*
X0211543Y0084587D02*
X0208694Y0084587D01*
X0209693Y0085585D02*
X0211398Y0085585D01*
X0211398Y0086584D02*
X0210424Y0086584D01*
X0210838Y0087582D02*
X0211398Y0087582D01*
X0215598Y0090436D02*
X0197882Y0090436D01*
X0209408Y0095570D02*
X0211398Y0095570D01*
X0211398Y0094572D02*
X0210306Y0094572D01*
X0210720Y0093573D02*
X0211398Y0093573D01*
X0211828Y0096569D02*
X0208410Y0096569D01*
X0207131Y0083588D02*
X0234720Y0083588D01*
X0234720Y0082590D02*
X0204924Y0082590D01*
X0206598Y0083283D02*
X0206598Y0083283D01*
M02*
