G75*
%MOIN*%
%OFA0B0*%
%FSLAX25Y25*%
%IPPOS*%
%LPD*%
%AMOC8*
5,1,8,0,0,1.08239X$1,22.5*
%
%ADD10C,0.00000*%
%ADD11C,0.00500*%
%ADD12C,0.00600*%
%ADD13C,0.00300*%
%ADD14C,0.01200*%
%ADD15R,0.00315X0.00039*%
%ADD16R,0.00394X0.00039*%
%ADD17R,0.00433X0.00039*%
%ADD18R,0.00472X0.00039*%
%ADD19R,0.00551X0.00039*%
%ADD20R,0.00709X0.00039*%
%ADD21R,0.00669X0.00039*%
%ADD22R,0.00748X0.00039*%
%ADD23R,0.00512X0.00039*%
%ADD24R,0.01142X0.00039*%
%ADD25R,0.00866X0.00039*%
%ADD26R,0.00906X0.00039*%
%ADD27R,0.01220X0.00039*%
%ADD28R,0.00945X0.00039*%
%ADD29R,0.00787X0.00039*%
%ADD30R,0.01024X0.00039*%
%ADD31R,0.01260X0.00039*%
%ADD32R,0.01102X0.00039*%
%ADD33R,0.01299X0.00039*%
%ADD34R,0.01063X0.00039*%
%ADD35R,0.01339X0.00039*%
%ADD36R,0.00591X0.00039*%
%ADD37R,0.01181X0.00039*%
%ADD38R,0.00827X0.00039*%
%ADD39R,0.01378X0.00039*%
%ADD40R,0.00630X0.00039*%
%ADD41R,0.00118X0.00039*%
%ADD42R,0.00197X0.00039*%
%ADD43R,0.00079X0.00039*%
%ADD44R,0.00354X0.00039*%
%ADD45R,0.00984X0.00039*%
%ADD46R,0.00157X0.00039*%
%ADD47R,0.01417X0.00039*%
%ADD48R,0.00276X0.00039*%
%ADD49R,0.04921X0.00039*%
%ADD50R,0.02441X0.00039*%
%ADD51R,0.02913X0.00039*%
%ADD52R,0.04449X0.00039*%
%ADD53R,0.05433X0.00039*%
%ADD54R,0.03307X0.00039*%
%ADD55R,0.03701X0.00039*%
%ADD56R,0.04961X0.00039*%
%ADD57R,0.05709X0.00039*%
%ADD58R,0.04173X0.00039*%
%ADD59R,0.05197X0.00039*%
%ADD60R,0.05906X0.00039*%
%ADD61R,0.04094X0.00039*%
%ADD62R,0.04488X0.00039*%
%ADD63R,0.05394X0.00039*%
%ADD64R,0.06063X0.00039*%
%ADD65R,0.04331X0.00039*%
%ADD66R,0.04764X0.00039*%
%ADD67R,0.05512X0.00039*%
%ADD68R,0.06181X0.00039*%
%ADD69R,0.04567X0.00039*%
%ADD70R,0.05630X0.00039*%
%ADD71R,0.06260X0.00039*%
%ADD72R,0.04724X0.00039*%
%ADD73R,0.05118X0.00039*%
%ADD74R,0.05748X0.00039*%
%ADD75R,0.06339X0.00039*%
%ADD76R,0.04882X0.00039*%
%ADD77R,0.05315X0.00039*%
%ADD78R,0.05827X0.00039*%
%ADD79R,0.06417X0.00039*%
%ADD80R,0.05039X0.00039*%
%ADD81R,0.06496X0.00039*%
%ADD82R,0.05591X0.00039*%
%ADD83R,0.05945X0.00039*%
%ADD84R,0.06535X0.00039*%
%ADD85R,0.05276X0.00039*%
%ADD86R,0.05669X0.00039*%
%ADD87R,0.06024X0.00039*%
%ADD88R,0.06614X0.00039*%
%ADD89R,0.05354X0.00039*%
%ADD90R,0.05787X0.00039*%
%ADD91R,0.06654X0.00039*%
%ADD92R,0.05866X0.00039*%
%ADD93R,0.06102X0.00039*%
%ADD94R,0.06693X0.00039*%
%ADD95R,0.05984X0.00039*%
%ADD96R,0.06142X0.00039*%
%ADD97R,0.06732X0.00039*%
%ADD98R,0.06772X0.00039*%
%ADD99R,0.06811X0.00039*%
%ADD100R,0.06220X0.00039*%
%ADD101R,0.06850X0.00039*%
%ADD102R,0.06890X0.00039*%
%ADD103R,0.06299X0.00039*%
%ADD104R,0.01732X0.00039*%
%ADD105R,0.01693X0.00039*%
%ADD106R,0.01850X0.00039*%
%ADD107R,0.01535X0.00039*%
%ADD108R,0.01496X0.00039*%
%ADD109R,0.01457X0.00039*%
%ADD110R,0.01654X0.00039*%
%ADD111R,0.06378X0.00039*%
%ADD112R,0.06575X0.00039*%
%ADD113R,0.06457X0.00039*%
%ADD114R,0.01772X0.00039*%
%ADD115R,0.02717X0.00039*%
%ADD116R,0.02992X0.00039*%
%ADD117R,0.02795X0.00039*%
%ADD118R,0.03071X0.00039*%
%ADD119R,0.02835X0.00039*%
%ADD120R,0.03031X0.00039*%
%ADD121R,0.02874X0.00039*%
%ADD122R,0.02953X0.00039*%
%ADD123R,0.02756X0.00039*%
%ADD124R,0.02677X0.00039*%
%ADD125R,0.02638X0.00039*%
%ADD126R,0.02520X0.00039*%
%ADD127R,0.02362X0.00039*%
%ADD128R,0.02205X0.00039*%
%ADD129R,0.02008X0.00039*%
%ADD130R,0.05157X0.00039*%
%ADD131R,0.02480X0.00039*%
%ADD132R,0.01811X0.00039*%
%ADD133R,0.02598X0.00039*%
%ADD134R,0.02559X0.00039*%
%ADD135R,0.02402X0.00039*%
%ADD136R,0.02283X0.00039*%
%ADD137R,0.02087X0.00039*%
%ADD138R,0.01890X0.00039*%
%ADD139C,0.00800*%
%ADD140R,0.02000X0.10000*%
%ADD141R,0.07500X0.03000*%
D10*
X0003000Y0003822D02*
X0003000Y0106184D01*
X0239220Y0106184D01*
X0239220Y0003822D01*
X0003000Y0003822D01*
X0003214Y0011472D02*
X0003227Y0011472D01*
X0003240Y0011486D01*
X0003240Y0011551D01*
X0003200Y0011551D01*
X0003187Y0011538D01*
X0003187Y0011512D01*
X0003200Y0011499D01*
X0003240Y0011499D01*
X0003260Y0011512D02*
X0003273Y0011499D01*
X0003299Y0011499D01*
X0003312Y0011512D01*
X0003312Y0011538D01*
X0003299Y0011551D01*
X0003273Y0011551D01*
X0003260Y0011538D01*
X0003260Y0011512D01*
X0003332Y0011538D02*
X0003385Y0011538D01*
X0003405Y0011551D02*
X0003405Y0011512D01*
X0003418Y0011499D01*
X0003431Y0011512D01*
X0003444Y0011499D01*
X0003457Y0011512D01*
X0003457Y0011551D01*
X0003477Y0011538D02*
X0003530Y0011538D01*
X0003550Y0011512D02*
X0003563Y0011525D01*
X0003602Y0011525D01*
X0003602Y0011538D02*
X0003602Y0011499D01*
X0003563Y0011499D01*
X0003550Y0011512D01*
X0003563Y0011551D02*
X0003589Y0011551D01*
X0003602Y0011538D01*
X0003622Y0011538D02*
X0003635Y0011551D01*
X0003675Y0011551D01*
X0003695Y0011538D02*
X0003708Y0011551D01*
X0003747Y0011551D01*
X0003767Y0011551D02*
X0003767Y0011499D01*
X0003747Y0011499D02*
X0003708Y0011499D01*
X0003695Y0011512D01*
X0003695Y0011538D01*
X0003675Y0011499D02*
X0003635Y0011499D01*
X0003622Y0011512D01*
X0003622Y0011538D01*
X0003675Y0011577D02*
X0003675Y0011499D01*
X0003747Y0011499D02*
X0003747Y0011577D01*
X0003794Y0011551D02*
X0003807Y0011551D01*
X0003794Y0011551D02*
X0003767Y0011525D01*
X0003828Y0011525D02*
X0003880Y0011525D01*
X0003880Y0011538D01*
X0003867Y0011551D01*
X0003841Y0011551D01*
X0003828Y0011538D01*
X0003828Y0011512D01*
X0003841Y0011499D01*
X0003867Y0011499D01*
X0003900Y0011499D02*
X0003940Y0011499D01*
X0003953Y0011512D01*
X0003940Y0011525D01*
X0003913Y0011525D01*
X0003900Y0011538D01*
X0003913Y0011551D01*
X0003953Y0011551D01*
X0003973Y0011538D02*
X0003986Y0011551D01*
X0004025Y0011551D01*
X0004012Y0011525D02*
X0003986Y0011525D01*
X0003973Y0011538D01*
X0003973Y0011499D02*
X0004012Y0011499D01*
X0004025Y0011512D01*
X0004012Y0011525D01*
X0004045Y0011512D02*
X0004058Y0011512D01*
X0004058Y0011499D01*
X0004045Y0011499D01*
X0004045Y0011512D01*
X0004081Y0011499D02*
X0004121Y0011499D01*
X0004134Y0011512D01*
X0004134Y0011538D01*
X0004121Y0011551D01*
X0004081Y0011551D01*
X0004081Y0011577D02*
X0004081Y0011499D01*
X0004154Y0011499D02*
X0004154Y0011551D01*
X0004167Y0011551D01*
X0004180Y0011538D01*
X0004193Y0011551D01*
X0004206Y0011538D01*
X0004206Y0011499D01*
X0004226Y0011499D02*
X0004266Y0011499D01*
X0004279Y0011512D01*
X0004279Y0011538D01*
X0004266Y0011551D01*
X0004226Y0011551D01*
X0004226Y0011472D01*
X0004180Y0011499D02*
X0004180Y0011538D01*
X0003167Y0011538D02*
X0003154Y0011551D01*
X0003128Y0011551D01*
X0003115Y0011538D01*
X0003115Y0011512D01*
X0003128Y0011499D01*
X0003154Y0011499D01*
X0003167Y0011512D01*
X0003167Y0011538D01*
X0003093Y0011499D02*
X0003066Y0011499D01*
X0003080Y0011499D02*
X0003080Y0011577D01*
X0003066Y0011577D01*
X0003033Y0011551D02*
X0003007Y0011551D01*
X0002994Y0011538D01*
X0002994Y0011512D01*
X0003007Y0011499D01*
X0003033Y0011499D01*
X0003046Y0011512D01*
X0003046Y0011538D01*
X0003033Y0011551D01*
X0002974Y0011538D02*
X0002974Y0011499D01*
X0002974Y0011538D02*
X0002961Y0011551D01*
X0002921Y0011551D01*
X0002921Y0011499D01*
X0002901Y0011512D02*
X0002901Y0011538D01*
X0002888Y0011551D01*
X0002862Y0011551D01*
X0002849Y0011538D01*
X0002849Y0011512D01*
X0002862Y0011499D01*
X0002888Y0011499D01*
X0002901Y0011512D01*
X0002829Y0011499D02*
X0002829Y0011538D01*
X0002816Y0011551D01*
X0002803Y0011538D01*
X0002803Y0011499D01*
X0002776Y0011499D02*
X0002776Y0011551D01*
X0002790Y0011551D01*
X0002803Y0011538D01*
X0002756Y0011577D02*
X0002704Y0011499D01*
X0002684Y0011512D02*
X0002684Y0011538D01*
X0002671Y0011551D01*
X0002645Y0011551D01*
X0002631Y0011538D01*
X0002631Y0011512D01*
X0002645Y0011499D01*
X0002671Y0011499D01*
X0002684Y0011512D01*
X0002611Y0011499D02*
X0002572Y0011499D01*
X0002559Y0011512D01*
X0002559Y0011538D01*
X0002572Y0011551D01*
X0002611Y0011551D01*
X0002611Y0011486D01*
X0002598Y0011472D01*
X0002585Y0011472D01*
X0002539Y0011512D02*
X0002539Y0011538D01*
X0002526Y0011551D01*
X0002500Y0011551D01*
X0002486Y0011538D01*
X0002486Y0011512D01*
X0002500Y0011499D01*
X0002526Y0011499D01*
X0002539Y0011512D01*
X0002466Y0011499D02*
X0002414Y0011499D01*
X0002414Y0011577D01*
X0002394Y0011577D02*
X0002341Y0011499D01*
X0002321Y0011499D02*
X0002282Y0011499D01*
X0002269Y0011512D01*
X0002269Y0011538D01*
X0002282Y0011551D01*
X0002321Y0011551D01*
X0002249Y0011538D02*
X0002249Y0011499D01*
X0002210Y0011499D01*
X0002196Y0011512D01*
X0002210Y0011525D01*
X0002249Y0011525D01*
X0002249Y0011538D02*
X0002236Y0011551D01*
X0002210Y0011551D01*
X0002176Y0011577D02*
X0002124Y0011577D01*
X0002102Y0011577D02*
X0002089Y0011564D01*
X0002089Y0011499D01*
X0002076Y0011538D02*
X0002102Y0011538D01*
X0002054Y0011538D02*
X0002027Y0011538D01*
X0002007Y0011538D02*
X0001994Y0011551D01*
X0001968Y0011551D01*
X0001955Y0011538D01*
X0001955Y0011512D01*
X0001968Y0011499D01*
X0001994Y0011499D01*
X0002007Y0011512D01*
X0002007Y0011538D01*
X0002040Y0011564D02*
X0002054Y0011577D01*
X0002040Y0011564D02*
X0002040Y0011499D01*
X0001935Y0011512D02*
X0001922Y0011499D01*
X0001882Y0011499D01*
X0001882Y0011577D01*
X0001922Y0011577D01*
X0001935Y0011564D01*
X0001935Y0011551D01*
X0001922Y0011538D01*
X0001882Y0011538D01*
X0001922Y0011538D02*
X0001935Y0011525D01*
X0001935Y0011512D01*
X0001862Y0011577D02*
X0001810Y0011499D01*
X0001787Y0011499D02*
X0001773Y0011499D01*
X0001773Y0011512D01*
X0001787Y0011512D01*
X0001787Y0011499D01*
X0001787Y0011538D02*
X0001773Y0011538D01*
X0001773Y0011551D01*
X0001787Y0011551D01*
X0001787Y0011538D01*
X0001754Y0011564D02*
X0001754Y0011577D01*
X0001754Y0011564D02*
X0001727Y0011538D01*
X0001727Y0011499D01*
X0001727Y0011538D02*
X0001701Y0011564D01*
X0001701Y0011577D01*
X0002150Y0011577D02*
X0002150Y0011499D01*
X0026622Y0019570D02*
X0034496Y0019570D01*
X0034620Y0019572D01*
X0034743Y0019578D01*
X0034867Y0019587D01*
X0034989Y0019601D01*
X0035112Y0019618D01*
X0035234Y0019640D01*
X0035355Y0019665D01*
X0035475Y0019694D01*
X0035594Y0019726D01*
X0035713Y0019763D01*
X0035830Y0019803D01*
X0035945Y0019846D01*
X0036060Y0019894D01*
X0036172Y0019945D01*
X0036283Y0019999D01*
X0036393Y0020057D01*
X0036500Y0020118D01*
X0036606Y0020183D01*
X0036709Y0020251D01*
X0036810Y0020322D01*
X0036909Y0020396D01*
X0037006Y0020473D01*
X0037100Y0020554D01*
X0037191Y0020637D01*
X0037280Y0020723D01*
X0037366Y0020812D01*
X0037449Y0020903D01*
X0037530Y0020997D01*
X0037607Y0021094D01*
X0037681Y0021193D01*
X0037752Y0021294D01*
X0037820Y0021397D01*
X0037885Y0021503D01*
X0037946Y0021610D01*
X0038004Y0021720D01*
X0038058Y0021831D01*
X0038109Y0021943D01*
X0038157Y0022058D01*
X0038200Y0022173D01*
X0038240Y0022290D01*
X0038277Y0022409D01*
X0038309Y0022528D01*
X0038338Y0022648D01*
X0038363Y0022769D01*
X0038385Y0022891D01*
X0038402Y0023014D01*
X0038416Y0023136D01*
X0038425Y0023260D01*
X0038431Y0023383D01*
X0038433Y0023507D01*
X0038431Y0023631D01*
X0038425Y0023754D01*
X0038416Y0023878D01*
X0038402Y0024000D01*
X0038385Y0024123D01*
X0038363Y0024245D01*
X0038338Y0024366D01*
X0038309Y0024486D01*
X0038277Y0024605D01*
X0038240Y0024724D01*
X0038200Y0024841D01*
X0038157Y0024956D01*
X0038109Y0025071D01*
X0038058Y0025183D01*
X0038004Y0025294D01*
X0037946Y0025404D01*
X0037885Y0025511D01*
X0037820Y0025617D01*
X0037752Y0025720D01*
X0037681Y0025821D01*
X0037607Y0025920D01*
X0037530Y0026017D01*
X0037449Y0026111D01*
X0037366Y0026202D01*
X0037280Y0026291D01*
X0037191Y0026377D01*
X0037100Y0026460D01*
X0037006Y0026541D01*
X0036909Y0026618D01*
X0036810Y0026692D01*
X0036709Y0026763D01*
X0036606Y0026831D01*
X0036500Y0026896D01*
X0036393Y0026957D01*
X0036283Y0027015D01*
X0036172Y0027069D01*
X0036060Y0027120D01*
X0035945Y0027168D01*
X0035830Y0027211D01*
X0035713Y0027251D01*
X0035594Y0027288D01*
X0035475Y0027320D01*
X0035355Y0027349D01*
X0035234Y0027374D01*
X0035112Y0027396D01*
X0034989Y0027413D01*
X0034867Y0027427D01*
X0034743Y0027436D01*
X0034620Y0027442D01*
X0034496Y0027444D01*
X0026622Y0027444D01*
X0026498Y0027442D01*
X0026375Y0027436D01*
X0026251Y0027427D01*
X0026129Y0027413D01*
X0026006Y0027396D01*
X0025884Y0027374D01*
X0025763Y0027349D01*
X0025643Y0027320D01*
X0025524Y0027288D01*
X0025405Y0027251D01*
X0025288Y0027211D01*
X0025173Y0027168D01*
X0025058Y0027120D01*
X0024946Y0027069D01*
X0024835Y0027015D01*
X0024725Y0026957D01*
X0024618Y0026896D01*
X0024512Y0026831D01*
X0024409Y0026763D01*
X0024308Y0026692D01*
X0024209Y0026618D01*
X0024112Y0026541D01*
X0024018Y0026460D01*
X0023927Y0026377D01*
X0023838Y0026291D01*
X0023752Y0026202D01*
X0023669Y0026111D01*
X0023588Y0026017D01*
X0023511Y0025920D01*
X0023437Y0025821D01*
X0023366Y0025720D01*
X0023298Y0025617D01*
X0023233Y0025511D01*
X0023172Y0025404D01*
X0023114Y0025294D01*
X0023060Y0025183D01*
X0023009Y0025071D01*
X0022961Y0024956D01*
X0022918Y0024841D01*
X0022878Y0024724D01*
X0022841Y0024605D01*
X0022809Y0024486D01*
X0022780Y0024366D01*
X0022755Y0024245D01*
X0022733Y0024123D01*
X0022716Y0024000D01*
X0022702Y0023878D01*
X0022693Y0023754D01*
X0022687Y0023631D01*
X0022685Y0023507D01*
X0022687Y0023383D01*
X0022693Y0023260D01*
X0022702Y0023136D01*
X0022716Y0023014D01*
X0022733Y0022891D01*
X0022755Y0022769D01*
X0022780Y0022648D01*
X0022809Y0022528D01*
X0022841Y0022409D01*
X0022878Y0022290D01*
X0022918Y0022173D01*
X0022961Y0022058D01*
X0023009Y0021943D01*
X0023060Y0021831D01*
X0023114Y0021720D01*
X0023172Y0021610D01*
X0023233Y0021503D01*
X0023298Y0021397D01*
X0023366Y0021294D01*
X0023437Y0021193D01*
X0023511Y0021094D01*
X0023588Y0020997D01*
X0023669Y0020903D01*
X0023752Y0020812D01*
X0023838Y0020723D01*
X0023927Y0020637D01*
X0024018Y0020554D01*
X0024112Y0020473D01*
X0024209Y0020396D01*
X0024308Y0020322D01*
X0024409Y0020251D01*
X0024512Y0020183D01*
X0024618Y0020118D01*
X0024725Y0020057D01*
X0024835Y0019999D01*
X0024946Y0019945D01*
X0025058Y0019894D01*
X0025173Y0019846D01*
X0025288Y0019803D01*
X0025405Y0019763D01*
X0025524Y0019726D01*
X0025643Y0019694D01*
X0025763Y0019665D01*
X0025884Y0019640D01*
X0026006Y0019618D01*
X0026129Y0019601D01*
X0026251Y0019587D01*
X0026375Y0019578D01*
X0026498Y0019572D01*
X0026622Y0019570D01*
X0028591Y0043192D02*
X0044339Y0043192D01*
X0044627Y0043196D01*
X0044914Y0043206D01*
X0045201Y0043224D01*
X0045488Y0043248D01*
X0045774Y0043279D01*
X0046059Y0043318D01*
X0046343Y0043363D01*
X0046626Y0043415D01*
X0046907Y0043475D01*
X0047187Y0043541D01*
X0047465Y0043613D01*
X0047742Y0043693D01*
X0048016Y0043779D01*
X0048288Y0043872D01*
X0048558Y0043971D01*
X0048826Y0044077D01*
X0049090Y0044190D01*
X0049352Y0044309D01*
X0049611Y0044434D01*
X0049867Y0044566D01*
X0050120Y0044703D01*
X0050369Y0044847D01*
X0050614Y0044997D01*
X0050856Y0045153D01*
X0051094Y0045314D01*
X0051328Y0045482D01*
X0051558Y0045655D01*
X0051783Y0045833D01*
X0052004Y0046017D01*
X0052221Y0046206D01*
X0052433Y0046401D01*
X0052640Y0046601D01*
X0052842Y0046805D01*
X0053039Y0047015D01*
X0053231Y0047229D01*
X0053417Y0047448D01*
X0053599Y0047671D01*
X0053775Y0047899D01*
X0053945Y0048131D01*
X0054109Y0048367D01*
X0054268Y0048606D01*
X0054421Y0048850D01*
X0054568Y0049098D01*
X0054708Y0049348D01*
X0054843Y0049603D01*
X0054971Y0049860D01*
X0055093Y0050120D01*
X0055209Y0050384D01*
X0055318Y0050650D01*
X0055421Y0050918D01*
X0055517Y0051189D01*
X0055607Y0051463D01*
X0055690Y0051738D01*
X0055766Y0052016D01*
X0055835Y0052295D01*
X0055898Y0052575D01*
X0055954Y0052858D01*
X0056002Y0053141D01*
X0056044Y0053426D01*
X0056079Y0053711D01*
X0056107Y0053997D01*
X0056128Y0054284D01*
X0056142Y0054572D01*
X0056149Y0054859D01*
X0056149Y0055147D01*
X0056142Y0055434D01*
X0056128Y0055722D01*
X0056107Y0056009D01*
X0056079Y0056295D01*
X0056044Y0056580D01*
X0056002Y0056865D01*
X0055954Y0057148D01*
X0055898Y0057431D01*
X0055835Y0057711D01*
X0055766Y0057990D01*
X0055690Y0058268D01*
X0055607Y0058543D01*
X0055517Y0058817D01*
X0055421Y0059088D01*
X0055318Y0059356D01*
X0055209Y0059622D01*
X0055093Y0059886D01*
X0054971Y0060146D01*
X0054843Y0060403D01*
X0054708Y0060658D01*
X0054568Y0060909D01*
X0054421Y0061156D01*
X0054268Y0061400D01*
X0054109Y0061639D01*
X0053945Y0061875D01*
X0053775Y0062107D01*
X0053599Y0062335D01*
X0053417Y0062558D01*
X0053231Y0062777D01*
X0053039Y0062991D01*
X0052842Y0063201D01*
X0052640Y0063405D01*
X0052433Y0063605D01*
X0052221Y0063800D01*
X0052004Y0063989D01*
X0051783Y0064173D01*
X0051558Y0064351D01*
X0051328Y0064524D01*
X0051094Y0064692D01*
X0050856Y0064853D01*
X0050614Y0065009D01*
X0050369Y0065159D01*
X0050120Y0065303D01*
X0049867Y0065440D01*
X0049611Y0065572D01*
X0049352Y0065697D01*
X0049090Y0065816D01*
X0048826Y0065929D01*
X0048558Y0066035D01*
X0048288Y0066134D01*
X0048016Y0066227D01*
X0047742Y0066313D01*
X0047465Y0066393D01*
X0047187Y0066465D01*
X0046907Y0066531D01*
X0046626Y0066591D01*
X0046343Y0066643D01*
X0046059Y0066688D01*
X0045774Y0066727D01*
X0045488Y0066758D01*
X0045201Y0066782D01*
X0044914Y0066800D01*
X0044627Y0066810D01*
X0044339Y0066814D01*
X0028591Y0066814D01*
X0028303Y0066810D01*
X0028016Y0066800D01*
X0027729Y0066782D01*
X0027442Y0066758D01*
X0027156Y0066727D01*
X0026871Y0066688D01*
X0026587Y0066643D01*
X0026304Y0066591D01*
X0026023Y0066531D01*
X0025743Y0066465D01*
X0025465Y0066393D01*
X0025188Y0066313D01*
X0024914Y0066227D01*
X0024642Y0066134D01*
X0024372Y0066035D01*
X0024104Y0065929D01*
X0023840Y0065816D01*
X0023578Y0065697D01*
X0023319Y0065572D01*
X0023063Y0065440D01*
X0022810Y0065303D01*
X0022561Y0065159D01*
X0022316Y0065009D01*
X0022074Y0064853D01*
X0021836Y0064692D01*
X0021602Y0064524D01*
X0021372Y0064351D01*
X0021147Y0064173D01*
X0020926Y0063989D01*
X0020709Y0063800D01*
X0020497Y0063605D01*
X0020290Y0063405D01*
X0020088Y0063201D01*
X0019891Y0062991D01*
X0019699Y0062777D01*
X0019513Y0062558D01*
X0019331Y0062335D01*
X0019155Y0062107D01*
X0018985Y0061875D01*
X0018821Y0061639D01*
X0018662Y0061400D01*
X0018509Y0061156D01*
X0018362Y0060908D01*
X0018222Y0060658D01*
X0018087Y0060403D01*
X0017959Y0060146D01*
X0017837Y0059886D01*
X0017721Y0059622D01*
X0017612Y0059356D01*
X0017509Y0059088D01*
X0017413Y0058817D01*
X0017323Y0058543D01*
X0017240Y0058268D01*
X0017164Y0057990D01*
X0017095Y0057711D01*
X0017032Y0057431D01*
X0016976Y0057148D01*
X0016928Y0056865D01*
X0016886Y0056580D01*
X0016851Y0056295D01*
X0016823Y0056009D01*
X0016802Y0055722D01*
X0016788Y0055434D01*
X0016781Y0055147D01*
X0016781Y0054859D01*
X0016788Y0054572D01*
X0016802Y0054284D01*
X0016823Y0053997D01*
X0016851Y0053711D01*
X0016886Y0053426D01*
X0016928Y0053141D01*
X0016976Y0052858D01*
X0017032Y0052575D01*
X0017095Y0052295D01*
X0017164Y0052016D01*
X0017240Y0051738D01*
X0017323Y0051463D01*
X0017413Y0051189D01*
X0017509Y0050918D01*
X0017612Y0050650D01*
X0017721Y0050384D01*
X0017837Y0050120D01*
X0017959Y0049860D01*
X0018087Y0049603D01*
X0018222Y0049348D01*
X0018362Y0049097D01*
X0018509Y0048850D01*
X0018662Y0048606D01*
X0018821Y0048367D01*
X0018985Y0048131D01*
X0019155Y0047899D01*
X0019331Y0047671D01*
X0019513Y0047448D01*
X0019699Y0047229D01*
X0019891Y0047015D01*
X0020088Y0046805D01*
X0020290Y0046601D01*
X0020497Y0046401D01*
X0020709Y0046206D01*
X0020926Y0046017D01*
X0021147Y0045833D01*
X0021372Y0045655D01*
X0021602Y0045482D01*
X0021836Y0045314D01*
X0022074Y0045153D01*
X0022316Y0044997D01*
X0022561Y0044847D01*
X0022810Y0044703D01*
X0023063Y0044566D01*
X0023319Y0044434D01*
X0023578Y0044309D01*
X0023840Y0044190D01*
X0024104Y0044077D01*
X0024372Y0043971D01*
X0024642Y0043872D01*
X0024914Y0043779D01*
X0025188Y0043693D01*
X0025465Y0043613D01*
X0025743Y0043541D01*
X0026023Y0043475D01*
X0026304Y0043415D01*
X0026587Y0043363D01*
X0026871Y0043318D01*
X0027156Y0043279D01*
X0027442Y0043248D01*
X0027729Y0043224D01*
X0028016Y0043206D01*
X0028303Y0043196D01*
X0028591Y0043192D01*
X0038433Y0082562D02*
X0046307Y0082562D01*
X0046431Y0082564D01*
X0046554Y0082570D01*
X0046678Y0082579D01*
X0046800Y0082593D01*
X0046923Y0082610D01*
X0047045Y0082632D01*
X0047166Y0082657D01*
X0047286Y0082686D01*
X0047405Y0082718D01*
X0047524Y0082755D01*
X0047641Y0082795D01*
X0047756Y0082838D01*
X0047871Y0082886D01*
X0047983Y0082937D01*
X0048094Y0082991D01*
X0048204Y0083049D01*
X0048311Y0083110D01*
X0048417Y0083175D01*
X0048520Y0083243D01*
X0048621Y0083314D01*
X0048720Y0083388D01*
X0048817Y0083465D01*
X0048911Y0083546D01*
X0049002Y0083629D01*
X0049091Y0083715D01*
X0049177Y0083804D01*
X0049260Y0083895D01*
X0049341Y0083989D01*
X0049418Y0084086D01*
X0049492Y0084185D01*
X0049563Y0084286D01*
X0049631Y0084389D01*
X0049696Y0084495D01*
X0049757Y0084602D01*
X0049815Y0084712D01*
X0049869Y0084823D01*
X0049920Y0084935D01*
X0049968Y0085050D01*
X0050011Y0085165D01*
X0050051Y0085282D01*
X0050088Y0085401D01*
X0050120Y0085520D01*
X0050149Y0085640D01*
X0050174Y0085761D01*
X0050196Y0085883D01*
X0050213Y0086006D01*
X0050227Y0086128D01*
X0050236Y0086252D01*
X0050242Y0086375D01*
X0050244Y0086499D01*
X0050242Y0086623D01*
X0050236Y0086746D01*
X0050227Y0086870D01*
X0050213Y0086992D01*
X0050196Y0087115D01*
X0050174Y0087237D01*
X0050149Y0087358D01*
X0050120Y0087478D01*
X0050088Y0087597D01*
X0050051Y0087716D01*
X0050011Y0087833D01*
X0049968Y0087948D01*
X0049920Y0088063D01*
X0049869Y0088175D01*
X0049815Y0088286D01*
X0049757Y0088396D01*
X0049696Y0088503D01*
X0049631Y0088609D01*
X0049563Y0088712D01*
X0049492Y0088813D01*
X0049418Y0088912D01*
X0049341Y0089009D01*
X0049260Y0089103D01*
X0049177Y0089194D01*
X0049091Y0089283D01*
X0049002Y0089369D01*
X0048911Y0089452D01*
X0048817Y0089533D01*
X0048720Y0089610D01*
X0048621Y0089684D01*
X0048520Y0089755D01*
X0048417Y0089823D01*
X0048311Y0089888D01*
X0048204Y0089949D01*
X0048094Y0090007D01*
X0047983Y0090061D01*
X0047871Y0090112D01*
X0047756Y0090160D01*
X0047641Y0090203D01*
X0047524Y0090243D01*
X0047405Y0090280D01*
X0047286Y0090312D01*
X0047166Y0090341D01*
X0047045Y0090366D01*
X0046923Y0090388D01*
X0046800Y0090405D01*
X0046678Y0090419D01*
X0046554Y0090428D01*
X0046431Y0090434D01*
X0046307Y0090436D01*
X0038433Y0090436D01*
X0038309Y0090434D01*
X0038186Y0090428D01*
X0038062Y0090419D01*
X0037940Y0090405D01*
X0037817Y0090388D01*
X0037695Y0090366D01*
X0037574Y0090341D01*
X0037454Y0090312D01*
X0037335Y0090280D01*
X0037216Y0090243D01*
X0037099Y0090203D01*
X0036984Y0090160D01*
X0036869Y0090112D01*
X0036757Y0090061D01*
X0036646Y0090007D01*
X0036536Y0089949D01*
X0036429Y0089888D01*
X0036323Y0089823D01*
X0036220Y0089755D01*
X0036119Y0089684D01*
X0036020Y0089610D01*
X0035923Y0089533D01*
X0035829Y0089452D01*
X0035738Y0089369D01*
X0035649Y0089283D01*
X0035563Y0089194D01*
X0035480Y0089103D01*
X0035399Y0089009D01*
X0035322Y0088912D01*
X0035248Y0088813D01*
X0035177Y0088712D01*
X0035109Y0088609D01*
X0035044Y0088503D01*
X0034983Y0088396D01*
X0034925Y0088286D01*
X0034871Y0088175D01*
X0034820Y0088063D01*
X0034772Y0087948D01*
X0034729Y0087833D01*
X0034689Y0087716D01*
X0034652Y0087597D01*
X0034620Y0087478D01*
X0034591Y0087358D01*
X0034566Y0087237D01*
X0034544Y0087115D01*
X0034527Y0086992D01*
X0034513Y0086870D01*
X0034504Y0086746D01*
X0034498Y0086623D01*
X0034496Y0086499D01*
X0034498Y0086375D01*
X0034504Y0086252D01*
X0034513Y0086128D01*
X0034527Y0086006D01*
X0034544Y0085883D01*
X0034566Y0085761D01*
X0034591Y0085640D01*
X0034620Y0085520D01*
X0034652Y0085401D01*
X0034689Y0085282D01*
X0034729Y0085165D01*
X0034772Y0085050D01*
X0034820Y0084935D01*
X0034871Y0084823D01*
X0034925Y0084712D01*
X0034983Y0084602D01*
X0035044Y0084495D01*
X0035109Y0084389D01*
X0035177Y0084286D01*
X0035248Y0084185D01*
X0035322Y0084086D01*
X0035399Y0083989D01*
X0035480Y0083895D01*
X0035563Y0083804D01*
X0035649Y0083715D01*
X0035738Y0083629D01*
X0035829Y0083546D01*
X0035923Y0083465D01*
X0036020Y0083388D01*
X0036119Y0083314D01*
X0036220Y0083243D01*
X0036323Y0083175D01*
X0036429Y0083110D01*
X0036536Y0083049D01*
X0036646Y0082991D01*
X0036757Y0082937D01*
X0036869Y0082886D01*
X0036984Y0082838D01*
X0037099Y0082795D01*
X0037216Y0082755D01*
X0037335Y0082718D01*
X0037454Y0082686D01*
X0037574Y0082657D01*
X0037695Y0082632D01*
X0037817Y0082610D01*
X0037940Y0082593D01*
X0038062Y0082579D01*
X0038186Y0082570D01*
X0038309Y0082564D01*
X0038433Y0082562D01*
X0195913Y0027444D02*
X0203787Y0027444D01*
X0203911Y0027442D01*
X0204034Y0027436D01*
X0204158Y0027427D01*
X0204280Y0027413D01*
X0204403Y0027396D01*
X0204525Y0027374D01*
X0204646Y0027349D01*
X0204766Y0027320D01*
X0204885Y0027288D01*
X0205004Y0027251D01*
X0205121Y0027211D01*
X0205236Y0027168D01*
X0205351Y0027120D01*
X0205463Y0027069D01*
X0205574Y0027015D01*
X0205684Y0026957D01*
X0205791Y0026896D01*
X0205897Y0026831D01*
X0206000Y0026763D01*
X0206101Y0026692D01*
X0206200Y0026618D01*
X0206297Y0026541D01*
X0206391Y0026460D01*
X0206482Y0026377D01*
X0206571Y0026291D01*
X0206657Y0026202D01*
X0206740Y0026111D01*
X0206821Y0026017D01*
X0206898Y0025920D01*
X0206972Y0025821D01*
X0207043Y0025720D01*
X0207111Y0025617D01*
X0207176Y0025511D01*
X0207237Y0025404D01*
X0207295Y0025294D01*
X0207349Y0025183D01*
X0207400Y0025071D01*
X0207448Y0024956D01*
X0207491Y0024841D01*
X0207531Y0024724D01*
X0207568Y0024605D01*
X0207600Y0024486D01*
X0207629Y0024366D01*
X0207654Y0024245D01*
X0207676Y0024123D01*
X0207693Y0024000D01*
X0207707Y0023878D01*
X0207716Y0023754D01*
X0207722Y0023631D01*
X0207724Y0023507D01*
X0207722Y0023383D01*
X0207716Y0023260D01*
X0207707Y0023136D01*
X0207693Y0023014D01*
X0207676Y0022891D01*
X0207654Y0022769D01*
X0207629Y0022648D01*
X0207600Y0022528D01*
X0207568Y0022409D01*
X0207531Y0022290D01*
X0207491Y0022173D01*
X0207448Y0022058D01*
X0207400Y0021943D01*
X0207349Y0021831D01*
X0207295Y0021720D01*
X0207237Y0021610D01*
X0207176Y0021503D01*
X0207111Y0021397D01*
X0207043Y0021294D01*
X0206972Y0021193D01*
X0206898Y0021094D01*
X0206821Y0020997D01*
X0206740Y0020903D01*
X0206657Y0020812D01*
X0206571Y0020723D01*
X0206482Y0020637D01*
X0206391Y0020554D01*
X0206297Y0020473D01*
X0206200Y0020396D01*
X0206101Y0020322D01*
X0206000Y0020251D01*
X0205897Y0020183D01*
X0205791Y0020118D01*
X0205684Y0020057D01*
X0205574Y0019999D01*
X0205463Y0019945D01*
X0205351Y0019894D01*
X0205236Y0019846D01*
X0205121Y0019803D01*
X0205004Y0019763D01*
X0204885Y0019726D01*
X0204766Y0019694D01*
X0204646Y0019665D01*
X0204525Y0019640D01*
X0204403Y0019618D01*
X0204280Y0019601D01*
X0204158Y0019587D01*
X0204034Y0019578D01*
X0203911Y0019572D01*
X0203787Y0019570D01*
X0195913Y0019570D01*
X0195789Y0019572D01*
X0195666Y0019578D01*
X0195542Y0019587D01*
X0195420Y0019601D01*
X0195297Y0019618D01*
X0195175Y0019640D01*
X0195054Y0019665D01*
X0194934Y0019694D01*
X0194815Y0019726D01*
X0194696Y0019763D01*
X0194579Y0019803D01*
X0194464Y0019846D01*
X0194349Y0019894D01*
X0194237Y0019945D01*
X0194126Y0019999D01*
X0194016Y0020057D01*
X0193909Y0020118D01*
X0193803Y0020183D01*
X0193700Y0020251D01*
X0193599Y0020322D01*
X0193500Y0020396D01*
X0193403Y0020473D01*
X0193309Y0020554D01*
X0193218Y0020637D01*
X0193129Y0020723D01*
X0193043Y0020812D01*
X0192960Y0020903D01*
X0192879Y0020997D01*
X0192802Y0021094D01*
X0192728Y0021193D01*
X0192657Y0021294D01*
X0192589Y0021397D01*
X0192524Y0021503D01*
X0192463Y0021610D01*
X0192405Y0021720D01*
X0192351Y0021831D01*
X0192300Y0021943D01*
X0192252Y0022058D01*
X0192209Y0022173D01*
X0192169Y0022290D01*
X0192132Y0022409D01*
X0192100Y0022528D01*
X0192071Y0022648D01*
X0192046Y0022769D01*
X0192024Y0022891D01*
X0192007Y0023014D01*
X0191993Y0023136D01*
X0191984Y0023260D01*
X0191978Y0023383D01*
X0191976Y0023507D01*
X0191978Y0023631D01*
X0191984Y0023754D01*
X0191993Y0023878D01*
X0192007Y0024000D01*
X0192024Y0024123D01*
X0192046Y0024245D01*
X0192071Y0024366D01*
X0192100Y0024486D01*
X0192132Y0024605D01*
X0192169Y0024724D01*
X0192209Y0024841D01*
X0192252Y0024956D01*
X0192300Y0025071D01*
X0192351Y0025183D01*
X0192405Y0025294D01*
X0192463Y0025404D01*
X0192524Y0025511D01*
X0192589Y0025617D01*
X0192657Y0025720D01*
X0192728Y0025821D01*
X0192802Y0025920D01*
X0192879Y0026017D01*
X0192960Y0026111D01*
X0193043Y0026202D01*
X0193129Y0026291D01*
X0193218Y0026377D01*
X0193309Y0026460D01*
X0193403Y0026541D01*
X0193500Y0026618D01*
X0193599Y0026692D01*
X0193700Y0026763D01*
X0193803Y0026831D01*
X0193909Y0026896D01*
X0194016Y0026957D01*
X0194126Y0027015D01*
X0194237Y0027069D01*
X0194349Y0027120D01*
X0194464Y0027168D01*
X0194579Y0027211D01*
X0194696Y0027251D01*
X0194815Y0027288D01*
X0194934Y0027320D01*
X0195054Y0027349D01*
X0195175Y0027374D01*
X0195297Y0027396D01*
X0195420Y0027413D01*
X0195542Y0027427D01*
X0195666Y0027436D01*
X0195789Y0027442D01*
X0195913Y0027444D01*
X0197882Y0043192D02*
X0213630Y0043192D01*
X0213918Y0043196D01*
X0214205Y0043206D01*
X0214492Y0043224D01*
X0214779Y0043248D01*
X0215065Y0043279D01*
X0215350Y0043318D01*
X0215634Y0043363D01*
X0215917Y0043415D01*
X0216198Y0043475D01*
X0216478Y0043541D01*
X0216756Y0043613D01*
X0217033Y0043693D01*
X0217307Y0043779D01*
X0217579Y0043872D01*
X0217849Y0043971D01*
X0218117Y0044077D01*
X0218381Y0044190D01*
X0218643Y0044309D01*
X0218902Y0044434D01*
X0219158Y0044566D01*
X0219411Y0044703D01*
X0219660Y0044847D01*
X0219905Y0044997D01*
X0220147Y0045153D01*
X0220385Y0045314D01*
X0220619Y0045482D01*
X0220849Y0045655D01*
X0221074Y0045833D01*
X0221295Y0046017D01*
X0221512Y0046206D01*
X0221724Y0046401D01*
X0221931Y0046601D01*
X0222133Y0046805D01*
X0222330Y0047015D01*
X0222522Y0047229D01*
X0222708Y0047448D01*
X0222890Y0047671D01*
X0223066Y0047899D01*
X0223236Y0048131D01*
X0223400Y0048367D01*
X0223559Y0048606D01*
X0223712Y0048850D01*
X0223859Y0049098D01*
X0223999Y0049348D01*
X0224134Y0049603D01*
X0224262Y0049860D01*
X0224384Y0050120D01*
X0224500Y0050384D01*
X0224609Y0050650D01*
X0224712Y0050918D01*
X0224808Y0051189D01*
X0224898Y0051463D01*
X0224981Y0051738D01*
X0225057Y0052016D01*
X0225126Y0052295D01*
X0225189Y0052575D01*
X0225245Y0052858D01*
X0225293Y0053141D01*
X0225335Y0053426D01*
X0225370Y0053711D01*
X0225398Y0053997D01*
X0225419Y0054284D01*
X0225433Y0054572D01*
X0225440Y0054859D01*
X0225440Y0055147D01*
X0225433Y0055434D01*
X0225419Y0055722D01*
X0225398Y0056009D01*
X0225370Y0056295D01*
X0225335Y0056580D01*
X0225293Y0056865D01*
X0225245Y0057148D01*
X0225189Y0057431D01*
X0225126Y0057711D01*
X0225057Y0057990D01*
X0224981Y0058268D01*
X0224898Y0058543D01*
X0224808Y0058817D01*
X0224712Y0059088D01*
X0224609Y0059356D01*
X0224500Y0059622D01*
X0224384Y0059886D01*
X0224262Y0060146D01*
X0224134Y0060403D01*
X0223999Y0060658D01*
X0223859Y0060909D01*
X0223712Y0061156D01*
X0223559Y0061400D01*
X0223400Y0061639D01*
X0223236Y0061875D01*
X0223066Y0062107D01*
X0222890Y0062335D01*
X0222708Y0062558D01*
X0222522Y0062777D01*
X0222330Y0062991D01*
X0222133Y0063201D01*
X0221931Y0063405D01*
X0221724Y0063605D01*
X0221512Y0063800D01*
X0221295Y0063989D01*
X0221074Y0064173D01*
X0220849Y0064351D01*
X0220619Y0064524D01*
X0220385Y0064692D01*
X0220147Y0064853D01*
X0219905Y0065009D01*
X0219660Y0065159D01*
X0219411Y0065303D01*
X0219158Y0065440D01*
X0218902Y0065572D01*
X0218643Y0065697D01*
X0218381Y0065816D01*
X0218117Y0065929D01*
X0217849Y0066035D01*
X0217579Y0066134D01*
X0217307Y0066227D01*
X0217033Y0066313D01*
X0216756Y0066393D01*
X0216478Y0066465D01*
X0216198Y0066531D01*
X0215917Y0066591D01*
X0215634Y0066643D01*
X0215350Y0066688D01*
X0215065Y0066727D01*
X0214779Y0066758D01*
X0214492Y0066782D01*
X0214205Y0066800D01*
X0213918Y0066810D01*
X0213630Y0066814D01*
X0197882Y0066814D01*
X0197594Y0066810D01*
X0197307Y0066800D01*
X0197020Y0066782D01*
X0196733Y0066758D01*
X0196447Y0066727D01*
X0196162Y0066688D01*
X0195878Y0066643D01*
X0195595Y0066591D01*
X0195314Y0066531D01*
X0195034Y0066465D01*
X0194756Y0066393D01*
X0194479Y0066313D01*
X0194205Y0066227D01*
X0193933Y0066134D01*
X0193663Y0066035D01*
X0193395Y0065929D01*
X0193131Y0065816D01*
X0192869Y0065697D01*
X0192610Y0065572D01*
X0192354Y0065440D01*
X0192101Y0065303D01*
X0191852Y0065159D01*
X0191607Y0065009D01*
X0191365Y0064853D01*
X0191127Y0064692D01*
X0190893Y0064524D01*
X0190663Y0064351D01*
X0190438Y0064173D01*
X0190217Y0063989D01*
X0190000Y0063800D01*
X0189788Y0063605D01*
X0189581Y0063405D01*
X0189379Y0063201D01*
X0189182Y0062991D01*
X0188990Y0062777D01*
X0188804Y0062558D01*
X0188622Y0062335D01*
X0188446Y0062107D01*
X0188276Y0061875D01*
X0188112Y0061639D01*
X0187953Y0061400D01*
X0187800Y0061156D01*
X0187653Y0060908D01*
X0187513Y0060658D01*
X0187378Y0060403D01*
X0187250Y0060146D01*
X0187128Y0059886D01*
X0187012Y0059622D01*
X0186903Y0059356D01*
X0186800Y0059088D01*
X0186704Y0058817D01*
X0186614Y0058543D01*
X0186531Y0058268D01*
X0186455Y0057990D01*
X0186386Y0057711D01*
X0186323Y0057431D01*
X0186267Y0057148D01*
X0186219Y0056865D01*
X0186177Y0056580D01*
X0186142Y0056295D01*
X0186114Y0056009D01*
X0186093Y0055722D01*
X0186079Y0055434D01*
X0186072Y0055147D01*
X0186072Y0054859D01*
X0186079Y0054572D01*
X0186093Y0054284D01*
X0186114Y0053997D01*
X0186142Y0053711D01*
X0186177Y0053426D01*
X0186219Y0053141D01*
X0186267Y0052858D01*
X0186323Y0052575D01*
X0186386Y0052295D01*
X0186455Y0052016D01*
X0186531Y0051738D01*
X0186614Y0051463D01*
X0186704Y0051189D01*
X0186800Y0050918D01*
X0186903Y0050650D01*
X0187012Y0050384D01*
X0187128Y0050120D01*
X0187250Y0049860D01*
X0187378Y0049603D01*
X0187513Y0049348D01*
X0187653Y0049097D01*
X0187800Y0048850D01*
X0187953Y0048606D01*
X0188112Y0048367D01*
X0188276Y0048131D01*
X0188446Y0047899D01*
X0188622Y0047671D01*
X0188804Y0047448D01*
X0188990Y0047229D01*
X0189182Y0047015D01*
X0189379Y0046805D01*
X0189581Y0046601D01*
X0189788Y0046401D01*
X0190000Y0046206D01*
X0190217Y0046017D01*
X0190438Y0045833D01*
X0190663Y0045655D01*
X0190893Y0045482D01*
X0191127Y0045314D01*
X0191365Y0045153D01*
X0191607Y0044997D01*
X0191852Y0044847D01*
X0192101Y0044703D01*
X0192354Y0044566D01*
X0192610Y0044434D01*
X0192869Y0044309D01*
X0193131Y0044190D01*
X0193395Y0044077D01*
X0193663Y0043971D01*
X0193933Y0043872D01*
X0194205Y0043779D01*
X0194479Y0043693D01*
X0194756Y0043613D01*
X0195034Y0043541D01*
X0195314Y0043475D01*
X0195595Y0043415D01*
X0195878Y0043363D01*
X0196162Y0043318D01*
X0196447Y0043279D01*
X0196733Y0043248D01*
X0197020Y0043224D01*
X0197307Y0043206D01*
X0197594Y0043196D01*
X0197882Y0043192D01*
X0207724Y0082562D02*
X0215598Y0082562D01*
X0215722Y0082564D01*
X0215845Y0082570D01*
X0215969Y0082579D01*
X0216091Y0082593D01*
X0216214Y0082610D01*
X0216336Y0082632D01*
X0216457Y0082657D01*
X0216577Y0082686D01*
X0216696Y0082718D01*
X0216815Y0082755D01*
X0216932Y0082795D01*
X0217047Y0082838D01*
X0217162Y0082886D01*
X0217274Y0082937D01*
X0217385Y0082991D01*
X0217495Y0083049D01*
X0217602Y0083110D01*
X0217708Y0083175D01*
X0217811Y0083243D01*
X0217912Y0083314D01*
X0218011Y0083388D01*
X0218108Y0083465D01*
X0218202Y0083546D01*
X0218293Y0083629D01*
X0218382Y0083715D01*
X0218468Y0083804D01*
X0218551Y0083895D01*
X0218632Y0083989D01*
X0218709Y0084086D01*
X0218783Y0084185D01*
X0218854Y0084286D01*
X0218922Y0084389D01*
X0218987Y0084495D01*
X0219048Y0084602D01*
X0219106Y0084712D01*
X0219160Y0084823D01*
X0219211Y0084935D01*
X0219259Y0085050D01*
X0219302Y0085165D01*
X0219342Y0085282D01*
X0219379Y0085401D01*
X0219411Y0085520D01*
X0219440Y0085640D01*
X0219465Y0085761D01*
X0219487Y0085883D01*
X0219504Y0086006D01*
X0219518Y0086128D01*
X0219527Y0086252D01*
X0219533Y0086375D01*
X0219535Y0086499D01*
X0219533Y0086623D01*
X0219527Y0086746D01*
X0219518Y0086870D01*
X0219504Y0086992D01*
X0219487Y0087115D01*
X0219465Y0087237D01*
X0219440Y0087358D01*
X0219411Y0087478D01*
X0219379Y0087597D01*
X0219342Y0087716D01*
X0219302Y0087833D01*
X0219259Y0087948D01*
X0219211Y0088063D01*
X0219160Y0088175D01*
X0219106Y0088286D01*
X0219048Y0088396D01*
X0218987Y0088503D01*
X0218922Y0088609D01*
X0218854Y0088712D01*
X0218783Y0088813D01*
X0218709Y0088912D01*
X0218632Y0089009D01*
X0218551Y0089103D01*
X0218468Y0089194D01*
X0218382Y0089283D01*
X0218293Y0089369D01*
X0218202Y0089452D01*
X0218108Y0089533D01*
X0218011Y0089610D01*
X0217912Y0089684D01*
X0217811Y0089755D01*
X0217708Y0089823D01*
X0217602Y0089888D01*
X0217495Y0089949D01*
X0217385Y0090007D01*
X0217274Y0090061D01*
X0217162Y0090112D01*
X0217047Y0090160D01*
X0216932Y0090203D01*
X0216815Y0090243D01*
X0216696Y0090280D01*
X0216577Y0090312D01*
X0216457Y0090341D01*
X0216336Y0090366D01*
X0216214Y0090388D01*
X0216091Y0090405D01*
X0215969Y0090419D01*
X0215845Y0090428D01*
X0215722Y0090434D01*
X0215598Y0090436D01*
X0207724Y0090436D01*
X0207600Y0090434D01*
X0207477Y0090428D01*
X0207353Y0090419D01*
X0207231Y0090405D01*
X0207108Y0090388D01*
X0206986Y0090366D01*
X0206865Y0090341D01*
X0206745Y0090312D01*
X0206626Y0090280D01*
X0206507Y0090243D01*
X0206390Y0090203D01*
X0206275Y0090160D01*
X0206160Y0090112D01*
X0206048Y0090061D01*
X0205937Y0090007D01*
X0205827Y0089949D01*
X0205720Y0089888D01*
X0205614Y0089823D01*
X0205511Y0089755D01*
X0205410Y0089684D01*
X0205311Y0089610D01*
X0205214Y0089533D01*
X0205120Y0089452D01*
X0205029Y0089369D01*
X0204940Y0089283D01*
X0204854Y0089194D01*
X0204771Y0089103D01*
X0204690Y0089009D01*
X0204613Y0088912D01*
X0204539Y0088813D01*
X0204468Y0088712D01*
X0204400Y0088609D01*
X0204335Y0088503D01*
X0204274Y0088396D01*
X0204216Y0088286D01*
X0204162Y0088175D01*
X0204111Y0088063D01*
X0204063Y0087948D01*
X0204020Y0087833D01*
X0203980Y0087716D01*
X0203943Y0087597D01*
X0203911Y0087478D01*
X0203882Y0087358D01*
X0203857Y0087237D01*
X0203835Y0087115D01*
X0203818Y0086992D01*
X0203804Y0086870D01*
X0203795Y0086746D01*
X0203789Y0086623D01*
X0203787Y0086499D01*
X0203789Y0086375D01*
X0203795Y0086252D01*
X0203804Y0086128D01*
X0203818Y0086006D01*
X0203835Y0085883D01*
X0203857Y0085761D01*
X0203882Y0085640D01*
X0203911Y0085520D01*
X0203943Y0085401D01*
X0203980Y0085282D01*
X0204020Y0085165D01*
X0204063Y0085050D01*
X0204111Y0084935D01*
X0204162Y0084823D01*
X0204216Y0084712D01*
X0204274Y0084602D01*
X0204335Y0084495D01*
X0204400Y0084389D01*
X0204468Y0084286D01*
X0204539Y0084185D01*
X0204613Y0084086D01*
X0204690Y0083989D01*
X0204771Y0083895D01*
X0204854Y0083804D01*
X0204940Y0083715D01*
X0205029Y0083629D01*
X0205120Y0083546D01*
X0205214Y0083465D01*
X0205311Y0083388D01*
X0205410Y0083314D01*
X0205511Y0083243D01*
X0205614Y0083175D01*
X0205720Y0083110D01*
X0205827Y0083049D01*
X0205937Y0082991D01*
X0206048Y0082937D01*
X0206160Y0082886D01*
X0206275Y0082838D01*
X0206390Y0082795D01*
X0206507Y0082755D01*
X0206626Y0082718D01*
X0206745Y0082686D01*
X0206865Y0082657D01*
X0206986Y0082632D01*
X0207108Y0082610D01*
X0207231Y0082593D01*
X0207353Y0082579D01*
X0207477Y0082570D01*
X0207600Y0082564D01*
X0207724Y0082562D01*
D11*
X0170073Y0072108D02*
X0170073Y0070961D01*
X0170073Y0072108D02*
X0166633Y0072108D01*
X0166633Y0070961D01*
X0168353Y0069630D02*
X0168353Y0067336D01*
X0166633Y0062503D02*
X0170073Y0062503D01*
X0169500Y0061171D02*
X0170073Y0060598D01*
X0170073Y0059451D01*
X0169500Y0058878D01*
X0168353Y0060024D02*
X0168353Y0060598D01*
X0168926Y0061171D01*
X0169500Y0061171D01*
X0168353Y0060598D02*
X0167780Y0061171D01*
X0167206Y0061171D01*
X0166633Y0060598D01*
X0166633Y0059451D01*
X0167206Y0058878D01*
X0167206Y0057546D02*
X0168353Y0057546D01*
X0168926Y0056973D01*
X0168926Y0055253D01*
X0170073Y0055253D02*
X0166633Y0055253D01*
X0166633Y0056973D01*
X0167206Y0057546D01*
X0167780Y0053921D02*
X0170073Y0053921D01*
X0168353Y0053921D02*
X0168353Y0051627D01*
X0167780Y0051627D02*
X0166633Y0052774D01*
X0167780Y0053921D01*
X0167780Y0051627D02*
X0170073Y0051627D01*
X0169500Y0050296D02*
X0170073Y0049722D01*
X0170073Y0048576D01*
X0169500Y0048002D01*
X0167206Y0048002D01*
X0166633Y0048576D01*
X0166633Y0049722D01*
X0167206Y0050296D01*
X0166633Y0046794D02*
X0170073Y0046794D01*
X0168353Y0041837D02*
X0168353Y0039544D01*
X0167206Y0040690D02*
X0169500Y0040690D01*
X0170073Y0038274D02*
X0170073Y0037127D01*
X0166633Y0037127D01*
X0166633Y0038274D01*
X0170570Y0031488D02*
X0170570Y0029194D01*
X0170570Y0030341D02*
X0174010Y0030341D01*
X0170570Y0027862D02*
X0170570Y0025569D01*
X0170570Y0026716D02*
X0174010Y0026716D01*
X0174010Y0024237D02*
X0171717Y0024237D01*
X0170570Y0023091D01*
X0171717Y0021944D01*
X0174010Y0021944D01*
X0173437Y0020612D02*
X0172863Y0020612D01*
X0172290Y0020039D01*
X0172290Y0018319D01*
X0172290Y0020039D02*
X0171717Y0020612D01*
X0171143Y0020612D01*
X0170570Y0020039D01*
X0170570Y0018319D01*
X0174010Y0018319D01*
X0174010Y0020039D01*
X0173437Y0020612D01*
X0172290Y0021944D02*
X0172290Y0024237D01*
X0172863Y0016987D02*
X0170570Y0016987D01*
X0172863Y0016987D02*
X0174010Y0015840D01*
X0172863Y0014694D01*
X0170570Y0014694D01*
X0152085Y0017050D02*
X0152085Y0053585D01*
X0101219Y0053585D01*
X0090136Y0040948D01*
X0090136Y0029688D01*
X0101219Y0017050D01*
X0152085Y0017050D01*
X0075585Y0037127D02*
X0072145Y0037127D01*
X0072145Y0038274D01*
X0073865Y0039544D02*
X0073865Y0041837D01*
X0075011Y0040690D02*
X0072718Y0040690D01*
X0075585Y0038274D02*
X0075585Y0037127D01*
X0075585Y0046794D02*
X0072145Y0046794D01*
X0072718Y0048002D02*
X0075011Y0048002D01*
X0075585Y0048576D01*
X0075585Y0049722D01*
X0075011Y0050296D01*
X0075585Y0051627D02*
X0073291Y0051627D01*
X0072145Y0052774D01*
X0073291Y0053921D01*
X0075585Y0053921D01*
X0075585Y0055253D02*
X0072145Y0055253D01*
X0072145Y0056973D01*
X0072718Y0057546D01*
X0073865Y0057546D01*
X0074438Y0056973D01*
X0074438Y0055253D01*
X0073865Y0053921D02*
X0073865Y0051627D01*
X0072718Y0050296D02*
X0072145Y0049722D01*
X0072145Y0048576D01*
X0072718Y0048002D01*
X0072718Y0058878D02*
X0072145Y0059451D01*
X0072145Y0060598D01*
X0072718Y0061171D01*
X0073291Y0061171D01*
X0075585Y0058878D01*
X0075585Y0061171D01*
X0075585Y0062503D02*
X0072145Y0062503D01*
X0073865Y0067336D02*
X0073865Y0069630D01*
X0075585Y0070961D02*
X0075585Y0072108D01*
X0072145Y0072108D01*
X0072145Y0070961D01*
X0075000Y0087571D02*
X0075573Y0087571D01*
X0076146Y0088144D01*
X0076146Y0091010D01*
X0077478Y0091010D02*
X0079198Y0091010D01*
X0079772Y0090437D01*
X0079772Y0089291D01*
X0079198Y0088717D01*
X0077478Y0088717D01*
X0077478Y0092157D01*
X0081677Y0091010D02*
X0082823Y0091010D01*
X0083397Y0090437D01*
X0083397Y0088717D01*
X0081677Y0088717D01*
X0081103Y0089291D01*
X0081677Y0089864D01*
X0083397Y0089864D01*
X0084729Y0090437D02*
X0084729Y0089291D01*
X0085302Y0088717D01*
X0087022Y0088717D01*
X0088354Y0088717D02*
X0088354Y0092157D01*
X0087022Y0091010D02*
X0085302Y0091010D01*
X0084729Y0090437D01*
X0088354Y0089864D02*
X0090074Y0091010D01*
X0088354Y0089864D02*
X0090074Y0088717D01*
X0095000Y0088717D02*
X0096720Y0088717D01*
X0097293Y0089291D01*
X0097293Y0091584D01*
X0096720Y0092157D01*
X0095000Y0092157D01*
X0095000Y0088717D01*
X0098625Y0088717D02*
X0099772Y0088717D01*
X0099198Y0088717D02*
X0099198Y0091010D01*
X0098625Y0091010D01*
X0099198Y0092157D02*
X0099198Y0092730D01*
X0101042Y0090437D02*
X0101615Y0091010D01*
X0102762Y0091010D01*
X0103335Y0090437D01*
X0103335Y0089291D01*
X0102762Y0088717D01*
X0101615Y0088717D01*
X0101042Y0089291D01*
X0101042Y0090437D01*
X0104667Y0090437D02*
X0104667Y0089291D01*
X0105240Y0088717D01*
X0106960Y0088717D01*
X0106960Y0092157D01*
X0106960Y0091010D02*
X0105240Y0091010D01*
X0104667Y0090437D01*
X0108292Y0090437D02*
X0108292Y0089291D01*
X0108865Y0088717D01*
X0110012Y0088717D01*
X0110585Y0089864D02*
X0108292Y0089864D01*
X0108292Y0090437D02*
X0108865Y0091010D01*
X0110012Y0091010D01*
X0110585Y0090437D01*
X0110585Y0089864D01*
X0111917Y0088717D02*
X0113064Y0088717D01*
X0113064Y0092157D01*
X0111917Y0092157D01*
X0118983Y0092157D02*
X0118983Y0088717D01*
X0120129Y0088717D01*
X0121399Y0090437D02*
X0123693Y0090437D01*
X0122546Y0089291D02*
X0122546Y0091584D01*
X0120129Y0092157D02*
X0118983Y0092157D01*
X0128650Y0092157D02*
X0128650Y0088717D01*
X0129858Y0089291D02*
X0130431Y0088717D01*
X0131578Y0088717D01*
X0132151Y0089291D01*
X0133483Y0088717D02*
X0133483Y0091010D01*
X0134630Y0092157D01*
X0135776Y0091010D01*
X0135776Y0088717D01*
X0137108Y0088717D02*
X0137108Y0092157D01*
X0138828Y0092157D01*
X0139402Y0091584D01*
X0139402Y0090437D01*
X0138828Y0089864D01*
X0137108Y0089864D01*
X0135776Y0090437D02*
X0133483Y0090437D01*
X0132151Y0091584D02*
X0131578Y0092157D01*
X0130431Y0092157D01*
X0129858Y0091584D01*
X0129858Y0089291D01*
X0140733Y0088717D02*
X0143027Y0088717D01*
X0141880Y0088717D02*
X0141880Y0092157D01*
X0140733Y0091010D01*
X0144358Y0092157D02*
X0144358Y0088717D01*
X0149192Y0090437D02*
X0151485Y0090437D01*
X0152817Y0088717D02*
X0153964Y0088717D01*
X0153964Y0092157D01*
X0152817Y0092157D01*
X0076146Y0088717D02*
X0074426Y0088717D01*
X0073853Y0089291D01*
X0073853Y0091010D01*
X0072010Y0092157D02*
X0072010Y0088717D01*
X0072583Y0088717D02*
X0071436Y0088717D01*
X0068958Y0090437D02*
X0067811Y0090437D01*
X0067811Y0088717D02*
X0067811Y0092157D01*
X0070105Y0092157D01*
X0071436Y0092157D02*
X0072010Y0092157D01*
X0066541Y0092157D02*
X0065394Y0092157D01*
X0065394Y0088717D01*
X0066541Y0088717D01*
X0068781Y0027862D02*
X0068208Y0027289D01*
X0068208Y0025569D01*
X0071648Y0025569D01*
X0071648Y0027289D01*
X0071074Y0027862D01*
X0068781Y0027862D01*
X0068208Y0024237D02*
X0071648Y0024237D01*
X0068208Y0021944D01*
X0071648Y0021944D01*
X0071074Y0020612D02*
X0069928Y0020612D01*
X0069928Y0019465D01*
X0071074Y0018319D02*
X0068781Y0018319D01*
X0068208Y0018892D01*
X0068208Y0020039D01*
X0068781Y0020612D01*
X0071074Y0020612D02*
X0071648Y0020039D01*
X0071648Y0018892D01*
X0071074Y0018319D01*
D12*
X0074240Y0018507D02*
X0074240Y0016007D01*
X0076740Y0016007D01*
X0086740Y0016007D02*
X0089240Y0016007D01*
X0089240Y0018507D01*
X0100696Y0019965D02*
X0103448Y0019965D01*
X0109397Y0022029D02*
X0109397Y0017901D01*
X0115197Y0017901D02*
X0116573Y0017901D01*
X0115885Y0017901D02*
X0115885Y0022029D01*
X0115197Y0022029D02*
X0116573Y0022029D01*
X0118097Y0022029D02*
X0120849Y0017901D01*
X0120849Y0022029D01*
X0122447Y0022029D02*
X0124511Y0022029D01*
X0125199Y0021341D01*
X0125199Y0019965D01*
X0124511Y0019277D01*
X0122447Y0019277D01*
X0122447Y0017901D02*
X0122447Y0022029D01*
X0118097Y0022029D02*
X0118097Y0017901D01*
X0126797Y0018589D02*
X0127485Y0017901D01*
X0128861Y0017901D01*
X0129549Y0018589D01*
X0129549Y0022029D01*
X0131147Y0022029D02*
X0133899Y0022029D01*
X0132523Y0022029D02*
X0132523Y0017901D01*
X0126797Y0018589D02*
X0126797Y0022029D01*
X0139848Y0022029D02*
X0139848Y0017901D01*
X0145648Y0019965D02*
X0148400Y0019965D01*
X0147024Y0021341D02*
X0147024Y0018589D01*
X0152980Y0018507D02*
X0152980Y0016007D01*
X0155480Y0016007D01*
X0165480Y0016007D02*
X0167980Y0016007D01*
X0167980Y0018507D01*
X0167980Y0028507D02*
X0167980Y0031007D01*
X0165480Y0031007D01*
X0155480Y0031007D02*
X0152980Y0031007D01*
X0152980Y0028507D01*
X0131487Y0047429D02*
X0131487Y0051557D01*
X0130111Y0051557D01*
X0128512Y0050869D02*
X0125760Y0048117D01*
X0126448Y0047429D01*
X0127824Y0047429D01*
X0128512Y0048117D01*
X0128512Y0050869D01*
X0127824Y0051557D01*
X0126448Y0051557D01*
X0125760Y0050869D01*
X0125760Y0048117D01*
X0124162Y0048117D02*
X0124162Y0048805D01*
X0123474Y0049493D01*
X0121410Y0049493D01*
X0121410Y0048117D01*
X0122098Y0047429D01*
X0123474Y0047429D01*
X0124162Y0048117D01*
X0122786Y0050869D02*
X0121410Y0049493D01*
X0118436Y0047429D02*
X0118436Y0051557D01*
X0117060Y0051557D02*
X0119812Y0051557D01*
X0122786Y0050869D02*
X0124162Y0051557D01*
X0130111Y0047429D02*
X0131487Y0047429D01*
X0115462Y0047429D02*
X0112710Y0051557D01*
X0111186Y0051557D02*
X0109810Y0051557D01*
X0109810Y0047429D01*
X0111186Y0047429D01*
X0112710Y0047429D02*
X0115462Y0051557D01*
X0086240Y0048503D02*
X0086240Y0061503D01*
X0086238Y0061590D01*
X0086232Y0061677D01*
X0086223Y0061764D01*
X0086210Y0061850D01*
X0086193Y0061936D01*
X0086172Y0062021D01*
X0086147Y0062104D01*
X0086119Y0062187D01*
X0086088Y0062268D01*
X0086053Y0062348D01*
X0086014Y0062426D01*
X0085972Y0062503D01*
X0085927Y0062578D01*
X0085878Y0062650D01*
X0085827Y0062721D01*
X0085772Y0062789D01*
X0085715Y0062854D01*
X0085654Y0062917D01*
X0085591Y0062978D01*
X0085526Y0063035D01*
X0085458Y0063090D01*
X0085387Y0063141D01*
X0085315Y0063190D01*
X0085240Y0063235D01*
X0085163Y0063277D01*
X0085085Y0063316D01*
X0085005Y0063351D01*
X0084924Y0063382D01*
X0084841Y0063410D01*
X0084758Y0063435D01*
X0084673Y0063456D01*
X0084587Y0063473D01*
X0084501Y0063486D01*
X0084414Y0063495D01*
X0084327Y0063501D01*
X0084240Y0063503D01*
X0079240Y0063503D02*
X0079153Y0063501D01*
X0079066Y0063495D01*
X0078979Y0063486D01*
X0078893Y0063473D01*
X0078807Y0063456D01*
X0078722Y0063435D01*
X0078639Y0063410D01*
X0078556Y0063382D01*
X0078475Y0063351D01*
X0078395Y0063316D01*
X0078317Y0063277D01*
X0078240Y0063235D01*
X0078165Y0063190D01*
X0078093Y0063141D01*
X0078022Y0063090D01*
X0077954Y0063035D01*
X0077889Y0062978D01*
X0077826Y0062917D01*
X0077765Y0062854D01*
X0077708Y0062789D01*
X0077653Y0062721D01*
X0077602Y0062650D01*
X0077553Y0062578D01*
X0077508Y0062503D01*
X0077466Y0062426D01*
X0077427Y0062348D01*
X0077392Y0062268D01*
X0077361Y0062187D01*
X0077333Y0062104D01*
X0077308Y0062021D01*
X0077287Y0061936D01*
X0077270Y0061850D01*
X0077257Y0061764D01*
X0077248Y0061677D01*
X0077242Y0061590D01*
X0077240Y0061503D01*
X0077240Y0048503D01*
X0077242Y0048416D01*
X0077248Y0048329D01*
X0077257Y0048242D01*
X0077270Y0048156D01*
X0077287Y0048070D01*
X0077308Y0047985D01*
X0077333Y0047902D01*
X0077361Y0047819D01*
X0077392Y0047738D01*
X0077427Y0047658D01*
X0077466Y0047580D01*
X0077508Y0047503D01*
X0077553Y0047428D01*
X0077602Y0047356D01*
X0077653Y0047285D01*
X0077708Y0047217D01*
X0077765Y0047152D01*
X0077826Y0047089D01*
X0077889Y0047028D01*
X0077954Y0046971D01*
X0078022Y0046916D01*
X0078093Y0046865D01*
X0078165Y0046816D01*
X0078240Y0046771D01*
X0078317Y0046729D01*
X0078395Y0046690D01*
X0078475Y0046655D01*
X0078556Y0046624D01*
X0078639Y0046596D01*
X0078722Y0046571D01*
X0078807Y0046550D01*
X0078893Y0046533D01*
X0078979Y0046520D01*
X0079066Y0046511D01*
X0079153Y0046505D01*
X0079240Y0046503D01*
X0084240Y0046503D02*
X0084327Y0046505D01*
X0084414Y0046511D01*
X0084501Y0046520D01*
X0084587Y0046533D01*
X0084673Y0046550D01*
X0084758Y0046571D01*
X0084841Y0046596D01*
X0084924Y0046624D01*
X0085005Y0046655D01*
X0085085Y0046690D01*
X0085163Y0046729D01*
X0085240Y0046771D01*
X0085315Y0046816D01*
X0085387Y0046865D01*
X0085458Y0046916D01*
X0085526Y0046971D01*
X0085591Y0047028D01*
X0085654Y0047089D01*
X0085715Y0047152D01*
X0085772Y0047217D01*
X0085827Y0047285D01*
X0085878Y0047356D01*
X0085927Y0047428D01*
X0085972Y0047503D01*
X0086014Y0047580D01*
X0086053Y0047658D01*
X0086088Y0047738D01*
X0086119Y0047819D01*
X0086147Y0047902D01*
X0086172Y0047985D01*
X0086193Y0048070D01*
X0086210Y0048156D01*
X0086223Y0048242D01*
X0086232Y0048329D01*
X0086238Y0048416D01*
X0086240Y0048503D01*
X0081740Y0050003D02*
X0081740Y0053803D01*
X0081740Y0056303D02*
X0081740Y0060003D01*
X0081614Y0077562D02*
X0081614Y0087562D01*
X0097614Y0087562D01*
X0097614Y0077562D01*
X0081614Y0077562D01*
X0087114Y0082562D02*
X0089614Y0082562D01*
X0089614Y0080062D01*
X0089614Y0082562D02*
X0093614Y0080062D01*
X0093614Y0085062D01*
X0089614Y0082562D01*
X0089614Y0085062D01*
X0089614Y0082562D02*
X0095614Y0082562D01*
X0061474Y0095456D02*
X0060098Y0096832D01*
X0058722Y0095456D01*
X0057124Y0095456D02*
X0055748Y0096832D01*
X0054372Y0095456D01*
X0052774Y0095456D02*
X0051398Y0096832D01*
X0050022Y0095456D01*
X0044073Y0096832D02*
X0041321Y0096832D01*
X0042697Y0096832D02*
X0042697Y0092704D01*
X0039723Y0092704D02*
X0039723Y0096832D01*
X0036971Y0096832D02*
X0039723Y0092704D01*
X0036971Y0092704D02*
X0036971Y0096832D01*
X0035373Y0096144D02*
X0034685Y0096832D01*
X0033309Y0096832D01*
X0032621Y0096144D01*
X0032621Y0093392D01*
X0033309Y0092704D01*
X0034685Y0092704D01*
X0035373Y0093392D01*
X0035373Y0096144D01*
X0031023Y0096144D02*
X0031023Y0094768D01*
X0030335Y0094080D01*
X0028271Y0094080D01*
X0029647Y0094080D02*
X0031023Y0092704D01*
X0028271Y0092704D02*
X0028271Y0096832D01*
X0030335Y0096832D01*
X0031023Y0096144D01*
X0026673Y0096832D02*
X0023921Y0096832D01*
X0023921Y0092704D01*
X0023921Y0094768D02*
X0025297Y0094768D01*
X0017972Y0095456D02*
X0016596Y0096832D01*
X0015220Y0095456D01*
X0013622Y0095456D02*
X0012246Y0096832D01*
X0010870Y0095456D01*
X0009272Y0095456D02*
X0007896Y0096832D01*
X0006520Y0095456D01*
X0130358Y0087062D02*
X0143358Y0087062D01*
X0143445Y0087060D01*
X0143532Y0087054D01*
X0143619Y0087045D01*
X0143705Y0087032D01*
X0143791Y0087015D01*
X0143876Y0086994D01*
X0143959Y0086969D01*
X0144042Y0086941D01*
X0144123Y0086910D01*
X0144203Y0086875D01*
X0144281Y0086836D01*
X0144358Y0086794D01*
X0144433Y0086749D01*
X0144505Y0086700D01*
X0144576Y0086649D01*
X0144644Y0086594D01*
X0144709Y0086537D01*
X0144772Y0086476D01*
X0144833Y0086413D01*
X0144890Y0086348D01*
X0144945Y0086280D01*
X0144996Y0086209D01*
X0145045Y0086137D01*
X0145090Y0086062D01*
X0145132Y0085985D01*
X0145171Y0085907D01*
X0145206Y0085827D01*
X0145237Y0085746D01*
X0145265Y0085663D01*
X0145290Y0085580D01*
X0145311Y0085495D01*
X0145328Y0085409D01*
X0145341Y0085323D01*
X0145350Y0085236D01*
X0145356Y0085149D01*
X0145358Y0085062D01*
X0141858Y0082562D02*
X0138158Y0082562D01*
X0135658Y0082562D02*
X0131858Y0082562D01*
X0128358Y0085062D02*
X0128360Y0085149D01*
X0128366Y0085236D01*
X0128375Y0085323D01*
X0128388Y0085409D01*
X0128405Y0085495D01*
X0128426Y0085580D01*
X0128451Y0085663D01*
X0128479Y0085746D01*
X0128510Y0085827D01*
X0128545Y0085907D01*
X0128584Y0085985D01*
X0128626Y0086062D01*
X0128671Y0086137D01*
X0128720Y0086209D01*
X0128771Y0086280D01*
X0128826Y0086348D01*
X0128883Y0086413D01*
X0128944Y0086476D01*
X0129007Y0086537D01*
X0129072Y0086594D01*
X0129140Y0086649D01*
X0129211Y0086700D01*
X0129283Y0086749D01*
X0129358Y0086794D01*
X0129435Y0086836D01*
X0129513Y0086875D01*
X0129593Y0086910D01*
X0129674Y0086941D01*
X0129757Y0086969D01*
X0129840Y0086994D01*
X0129925Y0087015D01*
X0130011Y0087032D01*
X0130097Y0087045D01*
X0130184Y0087054D01*
X0130271Y0087060D01*
X0130358Y0087062D01*
X0128358Y0080062D02*
X0128360Y0079975D01*
X0128366Y0079888D01*
X0128375Y0079801D01*
X0128388Y0079715D01*
X0128405Y0079629D01*
X0128426Y0079544D01*
X0128451Y0079461D01*
X0128479Y0079378D01*
X0128510Y0079297D01*
X0128545Y0079217D01*
X0128584Y0079139D01*
X0128626Y0079062D01*
X0128671Y0078987D01*
X0128720Y0078915D01*
X0128771Y0078844D01*
X0128826Y0078776D01*
X0128883Y0078711D01*
X0128944Y0078648D01*
X0129007Y0078587D01*
X0129072Y0078530D01*
X0129140Y0078475D01*
X0129211Y0078424D01*
X0129283Y0078375D01*
X0129358Y0078330D01*
X0129435Y0078288D01*
X0129513Y0078249D01*
X0129593Y0078214D01*
X0129674Y0078183D01*
X0129757Y0078155D01*
X0129840Y0078130D01*
X0129925Y0078109D01*
X0130011Y0078092D01*
X0130097Y0078079D01*
X0130184Y0078070D01*
X0130271Y0078064D01*
X0130358Y0078062D01*
X0143358Y0078062D01*
X0143445Y0078064D01*
X0143532Y0078070D01*
X0143619Y0078079D01*
X0143705Y0078092D01*
X0143791Y0078109D01*
X0143876Y0078130D01*
X0143959Y0078155D01*
X0144042Y0078183D01*
X0144123Y0078214D01*
X0144203Y0078249D01*
X0144281Y0078288D01*
X0144358Y0078330D01*
X0144433Y0078375D01*
X0144505Y0078424D01*
X0144576Y0078475D01*
X0144644Y0078530D01*
X0144709Y0078587D01*
X0144772Y0078648D01*
X0144833Y0078711D01*
X0144890Y0078776D01*
X0144945Y0078844D01*
X0144996Y0078915D01*
X0145045Y0078987D01*
X0145090Y0079062D01*
X0145132Y0079139D01*
X0145171Y0079217D01*
X0145206Y0079297D01*
X0145237Y0079378D01*
X0145265Y0079461D01*
X0145290Y0079544D01*
X0145311Y0079629D01*
X0145328Y0079715D01*
X0145341Y0079801D01*
X0145350Y0079888D01*
X0145356Y0079975D01*
X0145358Y0080062D01*
X0179748Y0095456D02*
X0181124Y0096832D01*
X0182500Y0095456D01*
X0184098Y0095456D02*
X0185474Y0096832D01*
X0186850Y0095456D01*
X0188449Y0095456D02*
X0189825Y0096832D01*
X0191201Y0095456D01*
X0197149Y0094768D02*
X0198525Y0094768D01*
X0197149Y0092704D02*
X0197149Y0096832D01*
X0199901Y0096832D01*
X0201499Y0096832D02*
X0203563Y0096832D01*
X0204251Y0096144D01*
X0204251Y0094768D01*
X0203563Y0094080D01*
X0201499Y0094080D01*
X0201499Y0092704D02*
X0201499Y0096832D01*
X0202875Y0094080D02*
X0204251Y0092704D01*
X0205849Y0093392D02*
X0206537Y0092704D01*
X0207913Y0092704D01*
X0208601Y0093392D01*
X0208601Y0096144D01*
X0207913Y0096832D01*
X0206537Y0096832D01*
X0205849Y0096144D01*
X0205849Y0093392D01*
X0210199Y0092704D02*
X0210199Y0096832D01*
X0212951Y0092704D01*
X0212951Y0096832D01*
X0214550Y0096832D02*
X0217302Y0096832D01*
X0215926Y0096832D02*
X0215926Y0092704D01*
X0223250Y0095456D02*
X0224626Y0096832D01*
X0226002Y0095456D01*
X0227600Y0095456D02*
X0228976Y0096832D01*
X0230352Y0095456D01*
X0231950Y0095456D02*
X0233326Y0096832D01*
X0234702Y0095456D01*
X0164980Y0061503D02*
X0164980Y0048503D01*
X0164978Y0048416D01*
X0164972Y0048329D01*
X0164963Y0048242D01*
X0164950Y0048156D01*
X0164933Y0048070D01*
X0164912Y0047985D01*
X0164887Y0047902D01*
X0164859Y0047819D01*
X0164828Y0047738D01*
X0164793Y0047658D01*
X0164754Y0047580D01*
X0164712Y0047503D01*
X0164667Y0047428D01*
X0164618Y0047356D01*
X0164567Y0047285D01*
X0164512Y0047217D01*
X0164455Y0047152D01*
X0164394Y0047089D01*
X0164331Y0047028D01*
X0164266Y0046971D01*
X0164198Y0046916D01*
X0164127Y0046865D01*
X0164055Y0046816D01*
X0163980Y0046771D01*
X0163903Y0046729D01*
X0163825Y0046690D01*
X0163745Y0046655D01*
X0163664Y0046624D01*
X0163581Y0046596D01*
X0163498Y0046571D01*
X0163413Y0046550D01*
X0163327Y0046533D01*
X0163241Y0046520D01*
X0163154Y0046511D01*
X0163067Y0046505D01*
X0162980Y0046503D01*
X0157980Y0046503D02*
X0157893Y0046505D01*
X0157806Y0046511D01*
X0157719Y0046520D01*
X0157633Y0046533D01*
X0157547Y0046550D01*
X0157462Y0046571D01*
X0157379Y0046596D01*
X0157296Y0046624D01*
X0157215Y0046655D01*
X0157135Y0046690D01*
X0157057Y0046729D01*
X0156980Y0046771D01*
X0156905Y0046816D01*
X0156833Y0046865D01*
X0156762Y0046916D01*
X0156694Y0046971D01*
X0156629Y0047028D01*
X0156566Y0047089D01*
X0156505Y0047152D01*
X0156448Y0047217D01*
X0156393Y0047285D01*
X0156342Y0047356D01*
X0156293Y0047428D01*
X0156248Y0047503D01*
X0156206Y0047580D01*
X0156167Y0047658D01*
X0156132Y0047738D01*
X0156101Y0047819D01*
X0156073Y0047902D01*
X0156048Y0047985D01*
X0156027Y0048070D01*
X0156010Y0048156D01*
X0155997Y0048242D01*
X0155988Y0048329D01*
X0155982Y0048416D01*
X0155980Y0048503D01*
X0155980Y0061503D01*
X0155982Y0061590D01*
X0155988Y0061677D01*
X0155997Y0061764D01*
X0156010Y0061850D01*
X0156027Y0061936D01*
X0156048Y0062021D01*
X0156073Y0062104D01*
X0156101Y0062187D01*
X0156132Y0062268D01*
X0156167Y0062348D01*
X0156206Y0062426D01*
X0156248Y0062503D01*
X0156293Y0062578D01*
X0156342Y0062650D01*
X0156393Y0062721D01*
X0156448Y0062789D01*
X0156505Y0062854D01*
X0156566Y0062917D01*
X0156629Y0062978D01*
X0156694Y0063035D01*
X0156762Y0063090D01*
X0156833Y0063141D01*
X0156905Y0063190D01*
X0156980Y0063235D01*
X0157057Y0063277D01*
X0157135Y0063316D01*
X0157215Y0063351D01*
X0157296Y0063382D01*
X0157379Y0063410D01*
X0157462Y0063435D01*
X0157547Y0063456D01*
X0157633Y0063473D01*
X0157719Y0063486D01*
X0157806Y0063495D01*
X0157893Y0063501D01*
X0157980Y0063503D01*
X0162980Y0063503D02*
X0163067Y0063501D01*
X0163154Y0063495D01*
X0163241Y0063486D01*
X0163327Y0063473D01*
X0163413Y0063456D01*
X0163498Y0063435D01*
X0163581Y0063410D01*
X0163664Y0063382D01*
X0163745Y0063351D01*
X0163825Y0063316D01*
X0163903Y0063277D01*
X0163980Y0063235D01*
X0164055Y0063190D01*
X0164127Y0063141D01*
X0164198Y0063090D01*
X0164266Y0063035D01*
X0164331Y0062978D01*
X0164394Y0062917D01*
X0164455Y0062854D01*
X0164512Y0062789D01*
X0164567Y0062721D01*
X0164618Y0062650D01*
X0164667Y0062578D01*
X0164712Y0062503D01*
X0164754Y0062426D01*
X0164793Y0062348D01*
X0164828Y0062268D01*
X0164859Y0062187D01*
X0164887Y0062104D01*
X0164912Y0062021D01*
X0164933Y0061936D01*
X0164950Y0061850D01*
X0164963Y0061764D01*
X0164972Y0061677D01*
X0164978Y0061590D01*
X0164980Y0061503D01*
X0160480Y0060003D02*
X0160480Y0056303D01*
X0160480Y0053803D02*
X0160480Y0050003D01*
X0089240Y0031007D02*
X0089240Y0028507D01*
X0089240Y0031007D02*
X0086740Y0031007D01*
X0076740Y0031007D02*
X0074240Y0031007D01*
X0074240Y0028507D01*
D13*
X0112690Y0054465D02*
X0112690Y0056529D01*
X0113722Y0056529D01*
X0114066Y0056185D01*
X0114066Y0055497D01*
X0113722Y0055153D01*
X0112690Y0055153D01*
X0114866Y0055497D02*
X0115210Y0055841D01*
X0116242Y0055841D01*
X0116242Y0056185D02*
X0116242Y0055153D01*
X0115210Y0055153D01*
X0114866Y0055497D01*
X0115210Y0056529D02*
X0115898Y0056529D01*
X0116242Y0056185D01*
X0117041Y0056185D02*
X0117385Y0056529D01*
X0118417Y0056529D01*
X0118417Y0057217D02*
X0118417Y0055153D01*
X0117385Y0055153D01*
X0117041Y0055497D01*
X0117041Y0056185D01*
X0119216Y0056185D02*
X0119560Y0055841D01*
X0120248Y0055841D01*
X0120592Y0055497D01*
X0120248Y0055153D01*
X0119216Y0055153D01*
X0119216Y0056185D02*
X0119560Y0056529D01*
X0120592Y0056529D01*
X0123566Y0056529D02*
X0123910Y0056529D01*
X0123910Y0055153D01*
X0123566Y0055153D02*
X0124254Y0055153D01*
X0125360Y0055153D02*
X0125360Y0056873D01*
X0125704Y0057217D01*
X0125704Y0056185D02*
X0125016Y0056185D01*
X0123910Y0057217D02*
X0123910Y0057561D01*
X0128641Y0056529D02*
X0128641Y0055153D01*
X0128641Y0056529D02*
X0129673Y0056529D01*
X0130017Y0056185D01*
X0130017Y0055153D01*
X0130816Y0055497D02*
X0131160Y0055153D01*
X0131848Y0055153D01*
X0132192Y0055497D01*
X0132192Y0056185D01*
X0131848Y0056529D01*
X0131160Y0056529D01*
X0130816Y0056185D01*
X0130816Y0055497D01*
X0132991Y0056529D02*
X0133679Y0056529D01*
X0133335Y0056873D02*
X0133335Y0055497D01*
X0133679Y0055153D01*
X0136616Y0055497D02*
X0136616Y0056529D01*
X0136616Y0055497D02*
X0136960Y0055153D01*
X0137992Y0055153D01*
X0137992Y0056529D01*
X0138791Y0056185D02*
X0139135Y0056529D01*
X0140167Y0056529D01*
X0139823Y0055841D02*
X0139135Y0055841D01*
X0138791Y0056185D01*
X0138791Y0055153D02*
X0139823Y0055153D01*
X0140167Y0055497D01*
X0139823Y0055841D01*
X0140967Y0056529D02*
X0141311Y0056529D01*
X0141311Y0055153D01*
X0140967Y0055153D02*
X0141655Y0055153D01*
X0142417Y0055153D02*
X0142417Y0056529D01*
X0143449Y0056529D01*
X0143793Y0056185D01*
X0143793Y0055153D01*
X0144592Y0055497D02*
X0144592Y0056185D01*
X0144936Y0056529D01*
X0145968Y0056529D01*
X0145968Y0054809D01*
X0145624Y0054465D01*
X0145280Y0054465D01*
X0144936Y0055153D02*
X0145968Y0055153D01*
X0144936Y0055153D02*
X0144592Y0055497D01*
X0148942Y0055153D02*
X0150318Y0057217D01*
X0151117Y0057217D02*
X0152493Y0057217D01*
X0151805Y0057217D02*
X0151805Y0055153D01*
X0150318Y0055153D02*
X0148942Y0057217D01*
X0153292Y0056185D02*
X0153292Y0055497D01*
X0153636Y0055153D01*
X0154324Y0055153D01*
X0154668Y0055497D01*
X0154668Y0055841D01*
X0154324Y0056185D01*
X0153292Y0056185D01*
X0153980Y0056873D01*
X0154668Y0057217D01*
X0155467Y0056873D02*
X0155811Y0057217D01*
X0156499Y0057217D01*
X0156843Y0056873D01*
X0155467Y0055497D01*
X0155811Y0055153D01*
X0156499Y0055153D01*
X0156843Y0055497D01*
X0156843Y0056873D01*
X0155467Y0056873D02*
X0155467Y0055497D01*
X0141311Y0057217D02*
X0141311Y0057561D01*
X0109716Y0056185D02*
X0109716Y0055497D01*
X0109372Y0055153D01*
X0108684Y0055153D01*
X0108340Y0055497D01*
X0108340Y0056185D01*
X0108684Y0056529D01*
X0109372Y0056529D01*
X0109716Y0056185D01*
X0107578Y0056529D02*
X0106890Y0056529D01*
X0107234Y0056873D02*
X0107234Y0055497D01*
X0107578Y0055153D01*
X0103935Y0056529D02*
X0103591Y0056529D01*
X0102903Y0055841D01*
X0102903Y0055153D02*
X0102903Y0056529D01*
X0102103Y0056185D02*
X0102103Y0055841D01*
X0100728Y0055841D01*
X0100728Y0055497D02*
X0100728Y0056185D01*
X0101071Y0056529D01*
X0101759Y0056529D01*
X0102103Y0056185D01*
X0101759Y0055153D02*
X0101071Y0055153D01*
X0100728Y0055497D01*
X0099928Y0055153D02*
X0098896Y0055153D01*
X0098552Y0055497D01*
X0098552Y0056185D01*
X0098896Y0056529D01*
X0099928Y0056529D01*
X0099928Y0057217D02*
X0099928Y0055153D01*
X0097790Y0055153D02*
X0097102Y0055153D01*
X0097446Y0055153D02*
X0097446Y0057217D01*
X0097102Y0057217D01*
X0096303Y0056185D02*
X0095959Y0056529D01*
X0095271Y0056529D01*
X0094927Y0056185D01*
X0094927Y0055497D01*
X0095271Y0055153D01*
X0095959Y0055153D01*
X0096303Y0055497D01*
X0096303Y0056185D01*
X0094128Y0055841D02*
X0094128Y0055497D01*
X0093784Y0055153D01*
X0093096Y0055153D01*
X0092752Y0055497D01*
X0093096Y0056185D02*
X0093784Y0056185D01*
X0094128Y0055841D01*
X0094128Y0056873D02*
X0093784Y0057217D01*
X0093096Y0057217D01*
X0092752Y0056873D01*
X0092752Y0056529D01*
X0093096Y0056185D01*
D14*
X0084740Y0056303D02*
X0081740Y0056303D01*
X0078740Y0056303D01*
X0078740Y0053803D02*
X0081740Y0053803D01*
X0084740Y0053803D01*
X0085673Y0037153D02*
X0085673Y0031386D01*
X0154580Y0035321D02*
X0160347Y0035321D01*
X0157464Y0038205D02*
X0157464Y0032438D01*
X0157480Y0053803D02*
X0160480Y0053803D01*
X0163480Y0053803D01*
X0163480Y0056303D02*
X0160480Y0056303D01*
X0157480Y0056303D01*
X0138158Y0079562D02*
X0138158Y0082562D01*
X0138158Y0085562D01*
X0135658Y0085562D02*
X0135658Y0082562D01*
X0135658Y0079562D01*
D15*
X0128571Y0063073D03*
X0128571Y0062286D03*
X0126169Y0062286D03*
X0126169Y0063073D03*
X0123807Y0061971D03*
X0117469Y0061971D03*
X0117547Y0063388D03*
X0114594Y0062522D03*
X0114594Y0062483D03*
X0114555Y0062640D03*
X0114516Y0062759D03*
X0114516Y0062798D03*
X0114122Y0062837D03*
X0114122Y0062877D03*
X0114083Y0062798D03*
X0114083Y0062759D03*
X0114083Y0062719D03*
X0114043Y0062640D03*
X0114043Y0062601D03*
X0114043Y0062562D03*
X0114004Y0062522D03*
X0114004Y0062483D03*
X0112114Y0062483D03*
X0112114Y0062522D03*
X0112075Y0062640D03*
X0112035Y0062759D03*
X0112035Y0062798D03*
X0111642Y0062837D03*
X0111642Y0062877D03*
X0111602Y0062798D03*
X0111602Y0062759D03*
X0111602Y0062719D03*
X0111563Y0062640D03*
X0111563Y0062601D03*
X0111563Y0062562D03*
X0111524Y0062522D03*
X0111524Y0062483D03*
X0109634Y0062483D03*
X0109634Y0062522D03*
X0109594Y0062640D03*
X0109555Y0062759D03*
X0109555Y0062798D03*
X0109161Y0062837D03*
X0109161Y0062877D03*
X0109122Y0062798D03*
X0109122Y0062759D03*
X0109122Y0062719D03*
X0109083Y0062640D03*
X0109083Y0062601D03*
X0109083Y0062562D03*
X0109043Y0062522D03*
X0109043Y0062483D03*
X0132114Y0061971D03*
D16*
X0129673Y0061971D03*
X0129673Y0063388D03*
X0119083Y0063388D03*
X0119083Y0061971D03*
X0115146Y0062955D03*
X0115106Y0062837D03*
X0115106Y0062798D03*
X0115067Y0062719D03*
X0115067Y0062680D03*
X0115067Y0062640D03*
X0115028Y0062601D03*
X0115028Y0062562D03*
X0115028Y0062522D03*
X0115028Y0062483D03*
X0114319Y0063349D03*
X0113531Y0062719D03*
X0113571Y0062601D03*
X0113571Y0062562D03*
X0112626Y0062798D03*
X0112626Y0062837D03*
X0112587Y0062719D03*
X0112587Y0062680D03*
X0112587Y0062640D03*
X0112547Y0062601D03*
X0112547Y0062562D03*
X0112547Y0062522D03*
X0112547Y0062483D03*
X0112665Y0062955D03*
X0111839Y0063349D03*
X0111051Y0062719D03*
X0111091Y0062601D03*
X0111091Y0062562D03*
X0110146Y0062798D03*
X0110146Y0062837D03*
X0110106Y0062719D03*
X0110106Y0062680D03*
X0110106Y0062640D03*
X0110067Y0062601D03*
X0110067Y0062562D03*
X0110067Y0062522D03*
X0110067Y0062483D03*
X0110185Y0062955D03*
X0109358Y0063349D03*
X0108571Y0062719D03*
X0108610Y0062601D03*
X0108610Y0062562D03*
D17*
X0108630Y0062522D03*
X0108630Y0062483D03*
X0108591Y0062640D03*
X0108591Y0062680D03*
X0108551Y0062759D03*
X0108551Y0062798D03*
X0108551Y0062837D03*
X0108512Y0062877D03*
X0108512Y0062916D03*
X0108512Y0062955D03*
X0108472Y0063034D03*
X0108472Y0063073D03*
X0108472Y0063113D03*
X0108433Y0063192D03*
X0108433Y0063231D03*
X0108394Y0063349D03*
X0109339Y0063310D03*
X0110205Y0063073D03*
X0110205Y0063034D03*
X0110205Y0062995D03*
X0110165Y0062916D03*
X0110165Y0062877D03*
X0110126Y0062759D03*
X0110244Y0063113D03*
X0110244Y0063152D03*
X0110244Y0063192D03*
X0110244Y0063231D03*
X0110283Y0063310D03*
X0110283Y0063349D03*
X0110874Y0063349D03*
X0110913Y0063231D03*
X0110913Y0063192D03*
X0110953Y0063113D03*
X0110953Y0063073D03*
X0110953Y0063034D03*
X0110992Y0062955D03*
X0110992Y0062916D03*
X0110992Y0062877D03*
X0111031Y0062837D03*
X0111031Y0062798D03*
X0111031Y0062759D03*
X0111071Y0062680D03*
X0111071Y0062640D03*
X0111110Y0062522D03*
X0111110Y0062483D03*
X0111819Y0063310D03*
X0112685Y0063073D03*
X0112685Y0063034D03*
X0112685Y0062995D03*
X0112646Y0062916D03*
X0112646Y0062877D03*
X0112606Y0062759D03*
X0112724Y0063113D03*
X0112724Y0063152D03*
X0112724Y0063192D03*
X0112724Y0063231D03*
X0112764Y0063310D03*
X0112764Y0063349D03*
X0113354Y0063349D03*
X0113394Y0063231D03*
X0113394Y0063192D03*
X0113433Y0063113D03*
X0113433Y0063073D03*
X0113433Y0063034D03*
X0113472Y0062955D03*
X0113472Y0062916D03*
X0113472Y0062877D03*
X0113512Y0062837D03*
X0113512Y0062798D03*
X0113512Y0062759D03*
X0113551Y0062680D03*
X0113551Y0062640D03*
X0113591Y0062522D03*
X0113591Y0062483D03*
X0114299Y0063310D03*
X0115165Y0063073D03*
X0115165Y0063034D03*
X0115165Y0062995D03*
X0115126Y0062916D03*
X0115126Y0062877D03*
X0115087Y0062759D03*
X0115205Y0063113D03*
X0115205Y0063152D03*
X0115205Y0063192D03*
X0115205Y0063231D03*
X0115244Y0063310D03*
X0115244Y0063349D03*
X0115992Y0062444D03*
X0115992Y0062404D03*
X0115992Y0062365D03*
X0115992Y0062325D03*
X0115992Y0062286D03*
X0115992Y0062247D03*
X0115992Y0062207D03*
X0115992Y0062168D03*
X0115992Y0062129D03*
X0115992Y0062089D03*
X0115992Y0062050D03*
X0115992Y0062010D03*
X0116858Y0062010D03*
X0117843Y0062444D03*
X0117882Y0062601D03*
X0117882Y0062640D03*
X0117882Y0062680D03*
X0117882Y0062719D03*
X0117882Y0062759D03*
X0118551Y0062759D03*
X0118551Y0062719D03*
X0118551Y0062680D03*
X0118551Y0062640D03*
X0118551Y0062601D03*
X0118591Y0062444D03*
X0118591Y0062916D03*
X0119575Y0062916D03*
X0119614Y0062759D03*
X0119614Y0062719D03*
X0119614Y0062680D03*
X0119614Y0062640D03*
X0119614Y0062601D03*
X0119575Y0062444D03*
X0120402Y0062444D03*
X0120402Y0062483D03*
X0120402Y0062522D03*
X0120402Y0062562D03*
X0120402Y0062601D03*
X0120402Y0062640D03*
X0120402Y0062680D03*
X0120402Y0062719D03*
X0120402Y0062759D03*
X0120402Y0062798D03*
X0120402Y0062837D03*
X0120402Y0062877D03*
X0120402Y0062916D03*
X0120402Y0062955D03*
X0120402Y0062995D03*
X0120402Y0063034D03*
X0120402Y0063388D03*
X0120402Y0063428D03*
X0120402Y0063467D03*
X0120402Y0063507D03*
X0120441Y0063546D03*
X0121465Y0063507D03*
X0121465Y0063467D03*
X0121465Y0063428D03*
X0121465Y0063388D03*
X0121504Y0063546D03*
X0121465Y0063034D03*
X0121465Y0062995D03*
X0121465Y0062955D03*
X0121465Y0062916D03*
X0121465Y0062877D03*
X0121465Y0062837D03*
X0121465Y0062798D03*
X0121465Y0062759D03*
X0121465Y0062719D03*
X0121465Y0062680D03*
X0121465Y0062640D03*
X0121465Y0062601D03*
X0121465Y0062562D03*
X0121465Y0062522D03*
X0121465Y0062483D03*
X0121465Y0062444D03*
X0121465Y0062404D03*
X0121465Y0062365D03*
X0121465Y0062325D03*
X0121465Y0062286D03*
X0121465Y0062247D03*
X0121465Y0062207D03*
X0121465Y0062168D03*
X0121465Y0062129D03*
X0121465Y0062089D03*
X0121465Y0062050D03*
X0121465Y0062010D03*
X0120402Y0062010D03*
X0120402Y0062050D03*
X0120402Y0062089D03*
X0120402Y0062129D03*
X0120402Y0062168D03*
X0120402Y0062207D03*
X0120402Y0062247D03*
X0120402Y0062286D03*
X0120402Y0062325D03*
X0120402Y0062365D03*
X0120402Y0062404D03*
X0122528Y0062404D03*
X0122528Y0062444D03*
X0122528Y0062483D03*
X0122528Y0062522D03*
X0122528Y0062562D03*
X0122528Y0062601D03*
X0122528Y0062640D03*
X0122528Y0062680D03*
X0122528Y0062719D03*
X0122528Y0062759D03*
X0122528Y0062798D03*
X0122528Y0062837D03*
X0122528Y0062877D03*
X0122528Y0062916D03*
X0122528Y0062955D03*
X0122528Y0062995D03*
X0122528Y0063034D03*
X0122528Y0063388D03*
X0122528Y0063428D03*
X0122528Y0063467D03*
X0122528Y0063507D03*
X0122528Y0063546D03*
X0122528Y0063585D03*
X0122528Y0063625D03*
X0122528Y0063664D03*
X0122528Y0063703D03*
X0122528Y0063743D03*
X0123551Y0062483D03*
X0123551Y0062444D03*
X0123551Y0062404D03*
X0123551Y0062365D03*
X0122843Y0061971D03*
X0124496Y0062010D03*
X0124496Y0062050D03*
X0124496Y0062089D03*
X0124496Y0062365D03*
X0124496Y0062404D03*
X0124496Y0062444D03*
X0124496Y0062483D03*
X0124496Y0062522D03*
X0124496Y0062562D03*
X0124496Y0062601D03*
X0124496Y0062916D03*
X0124496Y0062955D03*
X0125244Y0062719D03*
X0125244Y0062680D03*
X0125244Y0062640D03*
X0125835Y0061971D03*
X0126858Y0062010D03*
X0126858Y0062050D03*
X0126858Y0062089D03*
X0126858Y0062129D03*
X0126858Y0062168D03*
X0126858Y0062207D03*
X0126858Y0062247D03*
X0126858Y0062286D03*
X0126858Y0062325D03*
X0126858Y0062365D03*
X0126858Y0062404D03*
X0126858Y0062444D03*
X0127646Y0062640D03*
X0127646Y0062680D03*
X0127646Y0062719D03*
X0128236Y0063388D03*
X0129181Y0062916D03*
X0129142Y0062759D03*
X0129142Y0062719D03*
X0129142Y0062680D03*
X0129142Y0062640D03*
X0129142Y0062601D03*
X0129181Y0062444D03*
X0130165Y0062444D03*
X0130205Y0062601D03*
X0130205Y0062640D03*
X0130205Y0062680D03*
X0130205Y0062719D03*
X0130205Y0062759D03*
X0130165Y0062916D03*
X0130992Y0062444D03*
X0130992Y0062404D03*
X0130992Y0062365D03*
X0130992Y0062325D03*
X0130992Y0062286D03*
X0130992Y0062247D03*
X0130992Y0062207D03*
X0130992Y0062168D03*
X0130992Y0062129D03*
X0130992Y0062089D03*
X0130992Y0062050D03*
X0130992Y0062010D03*
X0131858Y0062562D03*
X0131858Y0062601D03*
X0131858Y0062640D03*
X0131858Y0062680D03*
X0131858Y0062719D03*
X0131858Y0062759D03*
X0131858Y0062798D03*
X0131858Y0062837D03*
X0131858Y0062877D03*
X0131858Y0062916D03*
X0131858Y0062955D03*
X0131858Y0062995D03*
X0131858Y0063034D03*
X0131858Y0063073D03*
X0131858Y0063113D03*
X0131858Y0063152D03*
X0131858Y0063192D03*
X0131858Y0063231D03*
X0131858Y0063270D03*
X0131858Y0063310D03*
X0131858Y0063349D03*
X0128236Y0061971D03*
X0125835Y0063388D03*
D18*
X0125303Y0062955D03*
X0125303Y0062916D03*
X0125264Y0062877D03*
X0125264Y0062837D03*
X0125264Y0062798D03*
X0125264Y0062759D03*
X0125264Y0062601D03*
X0125264Y0062562D03*
X0125264Y0062522D03*
X0125264Y0062483D03*
X0125303Y0062444D03*
X0125303Y0062404D03*
X0124476Y0062325D03*
X0124476Y0062995D03*
X0123571Y0062522D03*
X0123571Y0062325D03*
X0122547Y0062325D03*
X0122547Y0062365D03*
X0119594Y0062483D03*
X0119594Y0062522D03*
X0119594Y0062562D03*
X0119555Y0062404D03*
X0119555Y0062365D03*
X0119516Y0062325D03*
X0119594Y0062798D03*
X0119594Y0062837D03*
X0119594Y0062877D03*
X0119555Y0062955D03*
X0119555Y0062995D03*
X0119516Y0063034D03*
X0118650Y0063034D03*
X0118610Y0062995D03*
X0118610Y0062955D03*
X0118571Y0062877D03*
X0118571Y0062837D03*
X0118571Y0062798D03*
X0118571Y0062562D03*
X0118571Y0062522D03*
X0118571Y0062483D03*
X0118610Y0062404D03*
X0118610Y0062365D03*
X0118650Y0062325D03*
X0117862Y0062483D03*
X0117862Y0062522D03*
X0117862Y0062562D03*
X0117823Y0062404D03*
X0117862Y0062798D03*
X0117862Y0062837D03*
X0117862Y0062877D03*
X0117862Y0062916D03*
X0117823Y0062955D03*
X0116878Y0062955D03*
X0116878Y0062916D03*
X0116878Y0062877D03*
X0116878Y0062837D03*
X0116878Y0062798D03*
X0116878Y0062759D03*
X0116878Y0062719D03*
X0116878Y0062680D03*
X0116878Y0062640D03*
X0116878Y0062601D03*
X0116878Y0062562D03*
X0116878Y0062522D03*
X0116878Y0062483D03*
X0116878Y0062444D03*
X0116878Y0062404D03*
X0116878Y0062365D03*
X0116878Y0062325D03*
X0116878Y0062286D03*
X0116878Y0062995D03*
X0116878Y0063270D03*
X0116878Y0063310D03*
X0116878Y0063349D03*
X0116878Y0063388D03*
X0116878Y0063428D03*
X0116878Y0063467D03*
X0116878Y0063507D03*
X0116878Y0063546D03*
X0116878Y0063585D03*
X0116878Y0063625D03*
X0116878Y0063664D03*
X0116878Y0063703D03*
X0116878Y0063743D03*
X0116878Y0063782D03*
X0116878Y0063822D03*
X0116878Y0063861D03*
X0116878Y0063900D03*
X0115224Y0063270D03*
X0114319Y0063270D03*
X0114319Y0063231D03*
X0114319Y0063192D03*
X0113453Y0062995D03*
X0113413Y0063152D03*
X0113374Y0063270D03*
X0113374Y0063310D03*
X0112744Y0063270D03*
X0111839Y0063270D03*
X0111839Y0063231D03*
X0111839Y0063192D03*
X0110972Y0062995D03*
X0110933Y0063152D03*
X0110894Y0063270D03*
X0110894Y0063310D03*
X0110264Y0063270D03*
X0109358Y0063270D03*
X0109358Y0063231D03*
X0109358Y0063192D03*
X0108492Y0062995D03*
X0108453Y0063152D03*
X0108413Y0063270D03*
X0108413Y0063310D03*
X0108807Y0062010D03*
X0109870Y0062010D03*
X0111287Y0062010D03*
X0112350Y0062010D03*
X0113768Y0062010D03*
X0114831Y0062010D03*
X0120461Y0063585D03*
X0120776Y0063900D03*
X0121524Y0063585D03*
X0121839Y0063900D03*
X0127665Y0062877D03*
X0127665Y0062837D03*
X0127665Y0062798D03*
X0127665Y0062759D03*
X0127665Y0062601D03*
X0127665Y0062562D03*
X0127665Y0062522D03*
X0127665Y0062483D03*
X0127705Y0062444D03*
X0127705Y0062404D03*
X0127705Y0062916D03*
X0127705Y0062955D03*
X0129161Y0062877D03*
X0129161Y0062837D03*
X0129161Y0062798D03*
X0129201Y0062955D03*
X0129201Y0062995D03*
X0129240Y0063034D03*
X0129161Y0062562D03*
X0129161Y0062522D03*
X0129161Y0062483D03*
X0129201Y0062404D03*
X0129201Y0062365D03*
X0129240Y0062325D03*
X0130106Y0062325D03*
X0130146Y0062365D03*
X0130146Y0062404D03*
X0130185Y0062483D03*
X0130185Y0062522D03*
X0130185Y0062562D03*
X0130185Y0062798D03*
X0130185Y0062837D03*
X0130185Y0062877D03*
X0130146Y0062955D03*
X0130146Y0062995D03*
X0130106Y0063034D03*
X0131878Y0062522D03*
X0131878Y0062483D03*
X0131878Y0062444D03*
X0131878Y0062404D03*
X0132823Y0062404D03*
X0132823Y0062444D03*
X0132823Y0062483D03*
X0132823Y0062522D03*
X0132823Y0062562D03*
X0132823Y0062601D03*
X0132823Y0062640D03*
X0132823Y0062680D03*
X0132823Y0062719D03*
X0132823Y0062759D03*
X0132823Y0062798D03*
X0132823Y0062837D03*
X0132823Y0062877D03*
X0132823Y0062916D03*
X0132823Y0062955D03*
X0132823Y0062995D03*
X0132823Y0063034D03*
X0132823Y0063073D03*
X0132823Y0063113D03*
X0132823Y0063152D03*
X0132823Y0063192D03*
X0132823Y0063231D03*
X0132823Y0063270D03*
X0132823Y0063310D03*
X0132823Y0063349D03*
X0133689Y0063349D03*
X0133689Y0063310D03*
X0133689Y0063270D03*
X0133689Y0063231D03*
X0133689Y0063192D03*
X0133689Y0063152D03*
X0133689Y0063113D03*
X0133689Y0063073D03*
X0133689Y0063034D03*
X0133689Y0062995D03*
X0133689Y0062955D03*
X0133689Y0062916D03*
X0133689Y0062877D03*
X0133689Y0062837D03*
X0133689Y0062483D03*
X0133689Y0062444D03*
X0133689Y0062404D03*
X0133689Y0062365D03*
X0133689Y0062325D03*
X0133689Y0062286D03*
X0133689Y0062247D03*
X0133689Y0062207D03*
X0133689Y0062168D03*
X0133689Y0062129D03*
X0133689Y0062089D03*
X0133689Y0062050D03*
X0133689Y0062010D03*
X0134398Y0062404D03*
X0134358Y0062483D03*
X0134319Y0062522D03*
X0134476Y0062286D03*
X0134555Y0062168D03*
X0134201Y0062837D03*
X0134240Y0062877D03*
X0134280Y0062916D03*
X0134319Y0062955D03*
X0134398Y0063073D03*
X0134437Y0063113D03*
X0134594Y0063310D03*
X0133689Y0063388D03*
X0133689Y0063428D03*
X0133689Y0063467D03*
X0133689Y0063507D03*
X0133689Y0063546D03*
X0133689Y0063585D03*
X0133689Y0063625D03*
X0133689Y0063664D03*
X0133689Y0063703D03*
X0133689Y0063743D03*
X0133689Y0063782D03*
X0133689Y0063822D03*
X0133689Y0063861D03*
X0133689Y0063900D03*
X0132823Y0062089D03*
X0132823Y0062050D03*
X0132823Y0062010D03*
D19*
X0133728Y0062562D03*
X0130067Y0062286D03*
X0129280Y0062286D03*
X0129280Y0063073D03*
X0130067Y0063073D03*
X0124398Y0063073D03*
X0124004Y0063388D03*
X0123807Y0062010D03*
X0119476Y0062286D03*
X0118689Y0062286D03*
X0118689Y0063073D03*
X0119476Y0063073D03*
X0117469Y0062010D03*
X0114831Y0062129D03*
X0113768Y0062129D03*
X0114319Y0063073D03*
X0114319Y0063113D03*
X0112350Y0062129D03*
X0111287Y0062129D03*
X0111839Y0063073D03*
X0111839Y0063113D03*
X0109870Y0062129D03*
X0108807Y0062129D03*
X0109358Y0063073D03*
X0109358Y0063113D03*
D20*
X0109870Y0062404D03*
X0109870Y0062365D03*
X0108807Y0062365D03*
X0108807Y0062404D03*
X0111287Y0062404D03*
X0111287Y0062365D03*
X0112350Y0062365D03*
X0112350Y0062404D03*
X0113768Y0062404D03*
X0113768Y0062365D03*
X0114831Y0062365D03*
X0114831Y0062404D03*
X0119083Y0062010D03*
X0119083Y0063349D03*
X0124358Y0062877D03*
X0129673Y0063349D03*
X0129673Y0062010D03*
D21*
X0132134Y0062050D03*
X0123827Y0062050D03*
X0123709Y0062601D03*
X0122843Y0062010D03*
X0121780Y0063822D03*
X0120717Y0063822D03*
X0120047Y0065869D03*
X0116583Y0065869D03*
X0114299Y0062916D03*
X0113787Y0062325D03*
X0113787Y0062286D03*
X0114811Y0062286D03*
X0114811Y0062325D03*
X0112331Y0062325D03*
X0112331Y0062286D03*
X0111819Y0062916D03*
X0111307Y0062325D03*
X0111307Y0062286D03*
X0109850Y0062286D03*
X0109850Y0062325D03*
X0109339Y0062916D03*
X0108827Y0062325D03*
X0108827Y0062286D03*
X0125953Y0065869D03*
D22*
X0121740Y0063782D03*
X0121740Y0063743D03*
X0120677Y0063743D03*
X0120677Y0063782D03*
X0122803Y0062050D03*
X0123827Y0062089D03*
X0125835Y0062010D03*
X0125835Y0063349D03*
X0128236Y0063349D03*
X0128236Y0062010D03*
X0132134Y0062089D03*
X0117528Y0063270D03*
X0114811Y0062444D03*
X0113787Y0062444D03*
X0112331Y0062444D03*
X0111307Y0062444D03*
X0109850Y0062444D03*
X0108827Y0062444D03*
D23*
X0108827Y0062089D03*
X0108827Y0062050D03*
X0109850Y0062050D03*
X0109850Y0062089D03*
X0109339Y0063152D03*
X0111307Y0062089D03*
X0111307Y0062050D03*
X0112331Y0062050D03*
X0112331Y0062089D03*
X0111819Y0063152D03*
X0113787Y0062089D03*
X0113787Y0062050D03*
X0114811Y0062050D03*
X0114811Y0062089D03*
X0114299Y0063152D03*
X0117567Y0063349D03*
X0117803Y0062995D03*
X0117803Y0062365D03*
X0117764Y0062325D03*
X0122567Y0062286D03*
X0123591Y0062286D03*
X0123630Y0062562D03*
X0124457Y0063034D03*
X0125323Y0062995D03*
X0125362Y0063034D03*
X0125323Y0062365D03*
X0125362Y0062325D03*
X0127724Y0062365D03*
X0127764Y0062325D03*
X0127724Y0062995D03*
X0127764Y0063034D03*
X0131898Y0062365D03*
X0131937Y0062325D03*
X0132134Y0062010D03*
X0132803Y0062365D03*
X0133709Y0062522D03*
X0134299Y0062562D03*
X0134378Y0062444D03*
X0134417Y0062365D03*
X0134457Y0062325D03*
X0134496Y0062247D03*
X0134535Y0062207D03*
X0134575Y0062129D03*
X0134614Y0062089D03*
X0134654Y0062050D03*
X0134654Y0062010D03*
X0134339Y0062995D03*
X0134378Y0063034D03*
X0134457Y0063152D03*
X0134496Y0063192D03*
X0134535Y0063231D03*
X0134575Y0063270D03*
X0134614Y0063349D03*
D24*
X0128157Y0063152D03*
X0128157Y0062207D03*
X0125756Y0062207D03*
X0125756Y0063152D03*
X0124024Y0063231D03*
X0117213Y0062050D03*
X0114811Y0066892D03*
X0109890Y0066892D03*
X0108118Y0066932D03*
X0108079Y0066892D03*
X0108118Y0067995D03*
X0108079Y0068034D03*
X0108000Y0069294D03*
X0108039Y0070514D03*
X0108000Y0070554D03*
X0116701Y0070593D03*
X0120165Y0070593D03*
X0130126Y0068034D03*
X0130087Y0066892D03*
X0135480Y0066892D03*
X0137331Y0066892D03*
X0135441Y0069333D03*
D25*
X0129673Y0063310D03*
X0129673Y0062050D03*
X0122744Y0062247D03*
X0119083Y0062050D03*
X0119083Y0063310D03*
X0120028Y0065948D03*
X0116563Y0065948D03*
D26*
X0116583Y0065987D03*
X0120047Y0065987D03*
X0125953Y0065948D03*
X0125835Y0063310D03*
X0125835Y0062050D03*
X0128236Y0062050D03*
X0128236Y0063310D03*
D27*
X0129693Y0062207D03*
X0124102Y0062719D03*
X0124063Y0063113D03*
X0124063Y0063152D03*
X0119102Y0062207D03*
X0117252Y0062089D03*
X0114772Y0066814D03*
X0114772Y0069333D03*
X0116780Y0070672D03*
X0120244Y0070672D03*
X0109929Y0069333D03*
X0108039Y0068113D03*
X0108039Y0066853D03*
X0108000Y0066814D03*
X0109929Y0066814D03*
X0107961Y0070593D03*
X0130165Y0068073D03*
X0130165Y0066814D03*
X0135402Y0066814D03*
X0137370Y0066814D03*
X0137370Y0069333D03*
X0135402Y0069373D03*
D28*
X0125972Y0065987D03*
X0123965Y0063349D03*
X0124240Y0062837D03*
X0119083Y0063270D03*
X0119083Y0062089D03*
X0120028Y0066026D03*
X0116563Y0066026D03*
X0129673Y0063270D03*
X0129673Y0062089D03*
X0133925Y0062759D03*
X0133925Y0062798D03*
D29*
X0122783Y0062129D03*
X0122783Y0062089D03*
X0121720Y0063703D03*
X0120657Y0063703D03*
X0120028Y0065908D03*
X0116563Y0065908D03*
D30*
X0114909Y0067050D03*
X0114909Y0067089D03*
X0114909Y0069058D03*
X0114909Y0069097D03*
X0116602Y0070396D03*
X0116602Y0070436D03*
X0118295Y0071538D03*
X0120067Y0070436D03*
X0120067Y0070396D03*
X0121760Y0071538D03*
X0125972Y0070672D03*
X0125972Y0070633D03*
X0125972Y0070593D03*
X0125972Y0070554D03*
X0125972Y0070514D03*
X0125972Y0070475D03*
X0125972Y0070436D03*
X0125972Y0070396D03*
X0125972Y0070357D03*
X0125972Y0070318D03*
X0125972Y0070278D03*
X0125972Y0070239D03*
X0125972Y0070199D03*
X0125972Y0070160D03*
X0125972Y0070121D03*
X0125972Y0070081D03*
X0125972Y0070042D03*
X0125972Y0070003D03*
X0125972Y0069963D03*
X0125972Y0069924D03*
X0125972Y0069885D03*
X0125972Y0069845D03*
X0125972Y0069806D03*
X0125972Y0069766D03*
X0125972Y0069727D03*
X0125972Y0069688D03*
X0125972Y0069648D03*
X0125972Y0069609D03*
X0125972Y0069570D03*
X0125972Y0069530D03*
X0125972Y0069491D03*
X0125972Y0069451D03*
X0125972Y0069412D03*
X0125972Y0069373D03*
X0125972Y0069333D03*
X0125972Y0069294D03*
X0125972Y0069255D03*
X0125972Y0069215D03*
X0125972Y0069176D03*
X0125972Y0069136D03*
X0125972Y0069097D03*
X0125972Y0069058D03*
X0125972Y0069018D03*
X0125972Y0068979D03*
X0125972Y0068940D03*
X0125972Y0068900D03*
X0125972Y0068861D03*
X0125972Y0068822D03*
X0125972Y0068782D03*
X0125972Y0068743D03*
X0125972Y0068703D03*
X0125972Y0068664D03*
X0125972Y0068625D03*
X0125972Y0068585D03*
X0125972Y0068546D03*
X0125972Y0068507D03*
X0125972Y0068467D03*
X0125972Y0068428D03*
X0125972Y0068388D03*
X0125972Y0068349D03*
X0125972Y0068310D03*
X0125972Y0068270D03*
X0125972Y0068231D03*
X0125972Y0068192D03*
X0125972Y0068152D03*
X0125972Y0068113D03*
X0125972Y0068073D03*
X0125972Y0068034D03*
X0125972Y0067995D03*
X0125972Y0067955D03*
X0125972Y0067916D03*
X0125972Y0067877D03*
X0125972Y0067837D03*
X0125972Y0067798D03*
X0125972Y0067759D03*
X0125972Y0067719D03*
X0125972Y0067680D03*
X0125972Y0067640D03*
X0125972Y0067601D03*
X0125972Y0067562D03*
X0125972Y0067522D03*
X0125972Y0067483D03*
X0125972Y0067444D03*
X0125972Y0067404D03*
X0125972Y0067365D03*
X0125972Y0067325D03*
X0125972Y0067286D03*
X0125972Y0067247D03*
X0125972Y0067207D03*
X0125972Y0067168D03*
X0125972Y0067129D03*
X0125972Y0067089D03*
X0125972Y0067050D03*
X0125972Y0067010D03*
X0125972Y0066971D03*
X0125972Y0066932D03*
X0125972Y0066892D03*
X0125972Y0066853D03*
X0125972Y0066814D03*
X0125972Y0066774D03*
X0125972Y0066735D03*
X0125972Y0066696D03*
X0125972Y0066656D03*
X0125972Y0066617D03*
X0125972Y0066577D03*
X0125972Y0066538D03*
X0125972Y0066499D03*
X0125972Y0066459D03*
X0125972Y0066420D03*
X0125972Y0066381D03*
X0125972Y0066341D03*
X0125972Y0066302D03*
X0125972Y0066262D03*
X0125972Y0066223D03*
X0125972Y0066184D03*
X0125972Y0066144D03*
X0125972Y0066105D03*
X0125972Y0066066D03*
X0130028Y0067010D03*
X0130028Y0067050D03*
X0130028Y0067837D03*
X0130028Y0067877D03*
X0135539Y0067010D03*
X0135579Y0067050D03*
X0135579Y0067089D03*
X0135579Y0067129D03*
X0137232Y0067089D03*
X0137232Y0067050D03*
X0137232Y0069058D03*
X0137232Y0069097D03*
X0135579Y0069097D03*
X0135539Y0069215D03*
X0133965Y0062680D03*
X0133965Y0062640D03*
X0128217Y0062089D03*
X0128217Y0063270D03*
X0125815Y0063270D03*
X0125815Y0062089D03*
X0109791Y0067050D03*
X0109791Y0067089D03*
X0108217Y0067325D03*
X0108217Y0067365D03*
X0108217Y0067404D03*
X0108217Y0067444D03*
X0108217Y0067483D03*
X0108217Y0067522D03*
X0108217Y0067562D03*
X0108098Y0069451D03*
X0108098Y0069491D03*
X0108138Y0069530D03*
X0108138Y0069570D03*
X0108138Y0069609D03*
X0108177Y0069845D03*
X0108177Y0069885D03*
X0108177Y0069924D03*
X0108177Y0069963D03*
X0108177Y0070003D03*
X0108177Y0070042D03*
X0108138Y0070239D03*
X0108138Y0070278D03*
X0108138Y0070318D03*
X0108098Y0070396D03*
X0109791Y0069097D03*
X0109791Y0069058D03*
X0102154Y0069176D03*
X0102154Y0069215D03*
X0102154Y0069255D03*
X0102154Y0069294D03*
X0102154Y0069333D03*
X0102154Y0069373D03*
X0102154Y0069412D03*
X0102154Y0069451D03*
X0102154Y0069491D03*
X0102154Y0069530D03*
X0102154Y0069570D03*
X0102154Y0069609D03*
X0102154Y0069648D03*
X0102154Y0069688D03*
X0102154Y0069727D03*
X0102154Y0069766D03*
X0102154Y0069806D03*
X0102154Y0069845D03*
X0102154Y0069885D03*
X0102154Y0069924D03*
X0102154Y0069963D03*
X0102154Y0070003D03*
X0102154Y0070042D03*
X0102154Y0070081D03*
X0102154Y0070121D03*
X0102154Y0070160D03*
X0102154Y0070199D03*
X0102154Y0070239D03*
X0102154Y0070278D03*
X0102154Y0070318D03*
X0102154Y0070357D03*
X0102154Y0070396D03*
X0102154Y0070436D03*
X0102154Y0070475D03*
X0102154Y0070514D03*
X0102154Y0070554D03*
X0102154Y0070593D03*
X0102154Y0070633D03*
X0102154Y0070672D03*
X0102154Y0068270D03*
X0102154Y0068231D03*
X0102154Y0068192D03*
X0102154Y0068152D03*
X0102154Y0068113D03*
X0102154Y0068073D03*
X0102154Y0068034D03*
X0102154Y0067995D03*
X0102154Y0067955D03*
X0102154Y0067916D03*
X0102154Y0067877D03*
X0102154Y0067837D03*
X0102154Y0067798D03*
X0102154Y0067759D03*
X0102154Y0067719D03*
X0102154Y0067680D03*
X0102154Y0067640D03*
X0102154Y0067601D03*
X0102154Y0067562D03*
X0102154Y0067522D03*
X0102154Y0067483D03*
X0102154Y0067444D03*
X0102154Y0067404D03*
X0102154Y0067365D03*
X0102154Y0067325D03*
X0102154Y0067286D03*
X0102154Y0067247D03*
X0102154Y0067207D03*
X0102154Y0067168D03*
X0102154Y0067129D03*
X0102154Y0067089D03*
X0102154Y0067050D03*
X0102154Y0067010D03*
X0102154Y0066971D03*
X0102154Y0066932D03*
X0102154Y0066892D03*
X0102154Y0066853D03*
X0102154Y0066814D03*
X0102154Y0066774D03*
X0102154Y0066735D03*
X0102154Y0066696D03*
D31*
X0107980Y0068152D03*
X0119083Y0063152D03*
X0119083Y0063113D03*
X0119083Y0062247D03*
X0117272Y0062129D03*
X0124083Y0062680D03*
X0129673Y0063113D03*
X0129673Y0063152D03*
X0129673Y0062247D03*
X0130224Y0068113D03*
X0133610Y0070278D03*
D32*
X0135500Y0069294D03*
X0137272Y0069215D03*
X0137311Y0069255D03*
X0137272Y0066932D03*
X0135500Y0066932D03*
X0130067Y0066932D03*
X0130067Y0067955D03*
X0130106Y0067995D03*
X0129673Y0063231D03*
X0129673Y0062129D03*
X0128177Y0062168D03*
X0128177Y0063192D03*
X0125776Y0063192D03*
X0125776Y0062168D03*
X0124161Y0062798D03*
X0124004Y0063270D03*
X0119083Y0063231D03*
X0119083Y0062129D03*
X0114870Y0066932D03*
X0114870Y0069215D03*
X0114831Y0069255D03*
X0116681Y0070554D03*
X0120146Y0070554D03*
X0109870Y0069255D03*
X0109831Y0069215D03*
X0108059Y0069373D03*
X0108020Y0069333D03*
X0108059Y0070475D03*
X0108138Y0067955D03*
X0108138Y0067916D03*
X0108177Y0067837D03*
X0108177Y0067089D03*
X0108138Y0067010D03*
X0108138Y0066971D03*
X0109831Y0066932D03*
D33*
X0109969Y0066774D03*
X0109969Y0069373D03*
X0107882Y0069215D03*
X0114732Y0069373D03*
X0114732Y0066774D03*
X0117291Y0063231D03*
X0117291Y0062168D03*
X0124063Y0062129D03*
X0124063Y0062640D03*
X0130205Y0066774D03*
X0135362Y0066774D03*
X0137409Y0066774D03*
X0137409Y0069373D03*
X0135362Y0069412D03*
D34*
X0135520Y0069255D03*
X0137252Y0069176D03*
X0137252Y0069136D03*
X0137252Y0067010D03*
X0137252Y0066971D03*
X0135520Y0066971D03*
X0130047Y0066971D03*
X0130047Y0067916D03*
X0125953Y0070711D03*
X0120126Y0070514D03*
X0120087Y0070475D03*
X0116661Y0070514D03*
X0116622Y0070475D03*
X0114890Y0069176D03*
X0114890Y0069136D03*
X0114890Y0067010D03*
X0114890Y0066971D03*
X0109811Y0066971D03*
X0109811Y0067010D03*
X0108197Y0067129D03*
X0108197Y0067168D03*
X0108197Y0067207D03*
X0108197Y0067247D03*
X0108197Y0067286D03*
X0108157Y0067050D03*
X0108197Y0067601D03*
X0108197Y0067640D03*
X0108197Y0067680D03*
X0108197Y0067719D03*
X0108197Y0067759D03*
X0108197Y0067798D03*
X0108157Y0067877D03*
X0108079Y0069412D03*
X0108118Y0070357D03*
X0108079Y0070436D03*
X0109811Y0069176D03*
X0109811Y0069136D03*
X0102173Y0069136D03*
X0102173Y0070711D03*
X0122646Y0063349D03*
X0122646Y0063310D03*
X0122646Y0063270D03*
X0122646Y0063231D03*
X0122646Y0063192D03*
X0122646Y0063152D03*
X0122646Y0063113D03*
X0122646Y0063073D03*
X0123984Y0063310D03*
X0125795Y0063231D03*
X0125795Y0062129D03*
X0128197Y0062129D03*
X0128197Y0063231D03*
X0133984Y0062601D03*
D35*
X0132390Y0062168D03*
X0132390Y0062129D03*
X0124043Y0062168D03*
X0124043Y0062207D03*
X0117311Y0062207D03*
X0117311Y0062247D03*
X0117311Y0063192D03*
X0107941Y0066774D03*
X0107941Y0068192D03*
X0107902Y0070633D03*
X0116839Y0070711D03*
X0120303Y0070711D03*
D36*
X0117764Y0063034D03*
X0117724Y0062286D03*
X0116937Y0063034D03*
X0114811Y0062207D03*
X0114811Y0062168D03*
X0114299Y0063034D03*
X0113787Y0062207D03*
X0113787Y0062168D03*
X0112331Y0062168D03*
X0112331Y0062207D03*
X0111819Y0063034D03*
X0111307Y0062207D03*
X0111307Y0062168D03*
X0109850Y0062168D03*
X0109850Y0062207D03*
X0109339Y0063034D03*
X0108827Y0062207D03*
X0108827Y0062168D03*
X0124417Y0062286D03*
X0125402Y0062286D03*
X0125402Y0063073D03*
X0127803Y0063073D03*
X0127803Y0062286D03*
X0132764Y0062325D03*
D37*
X0129673Y0062168D03*
X0129673Y0063192D03*
X0128138Y0063113D03*
X0128138Y0062247D03*
X0125736Y0062247D03*
X0125736Y0063113D03*
X0124122Y0062759D03*
X0124043Y0063192D03*
X0119083Y0063192D03*
X0119083Y0062168D03*
X0114791Y0066853D03*
X0114791Y0069294D03*
X0116720Y0070633D03*
X0120185Y0070633D03*
X0109909Y0069294D03*
X0107941Y0069255D03*
X0108059Y0068073D03*
X0109909Y0066853D03*
X0130146Y0066853D03*
X0135461Y0066853D03*
X0137350Y0066853D03*
X0137350Y0069294D03*
D38*
X0125953Y0065908D03*
X0121701Y0063664D03*
X0121701Y0063625D03*
X0120638Y0063625D03*
X0120638Y0063664D03*
X0122764Y0062207D03*
X0122764Y0062168D03*
D39*
X0124024Y0062247D03*
X0117331Y0063113D03*
X0117331Y0063152D03*
X0114654Y0066735D03*
X0110047Y0066735D03*
X0110047Y0069412D03*
X0114654Y0069412D03*
X0130283Y0068152D03*
X0130283Y0066735D03*
X0135323Y0066735D03*
X0137488Y0066735D03*
X0137488Y0069412D03*
X0132370Y0062286D03*
X0132370Y0062247D03*
X0132370Y0062207D03*
D40*
X0121799Y0063861D03*
X0120736Y0063861D03*
X0117547Y0063310D03*
X0114831Y0062247D03*
X0114319Y0062955D03*
X0114319Y0062995D03*
X0113768Y0062247D03*
X0112350Y0062247D03*
X0111839Y0062955D03*
X0111839Y0062995D03*
X0111287Y0062247D03*
X0109870Y0062247D03*
X0109358Y0062955D03*
X0109358Y0062995D03*
X0108807Y0062247D03*
D41*
X0123118Y0062286D03*
X0123512Y0063034D03*
X0126268Y0062365D03*
X0128669Y0062365D03*
D42*
X0128630Y0062325D03*
X0128630Y0063034D03*
X0126228Y0063034D03*
X0126228Y0062325D03*
X0125953Y0065829D03*
X0120047Y0065829D03*
X0116583Y0065829D03*
D43*
X0121012Y0063585D03*
X0122075Y0063585D03*
X0126287Y0062955D03*
X0126287Y0062404D03*
X0128689Y0062404D03*
X0128689Y0062955D03*
D44*
X0114575Y0062601D03*
X0114575Y0062562D03*
X0114535Y0062680D03*
X0114535Y0062719D03*
X0114496Y0062837D03*
X0114496Y0062877D03*
X0114063Y0062680D03*
X0112094Y0062601D03*
X0112094Y0062562D03*
X0112055Y0062680D03*
X0112055Y0062719D03*
X0112016Y0062837D03*
X0112016Y0062877D03*
X0111583Y0062680D03*
X0109614Y0062601D03*
X0109614Y0062562D03*
X0109575Y0062680D03*
X0109575Y0062719D03*
X0109535Y0062837D03*
X0109535Y0062877D03*
X0109102Y0062680D03*
D45*
X0116583Y0066066D03*
X0116583Y0066105D03*
X0116583Y0066144D03*
X0116583Y0066184D03*
X0116583Y0066223D03*
X0116583Y0066262D03*
X0116583Y0066302D03*
X0116583Y0066341D03*
X0116583Y0066381D03*
X0116583Y0066420D03*
X0116583Y0066459D03*
X0116583Y0066499D03*
X0116583Y0066538D03*
X0116583Y0066577D03*
X0116583Y0066617D03*
X0116583Y0066656D03*
X0116583Y0066696D03*
X0116583Y0066735D03*
X0116583Y0066774D03*
X0116583Y0066814D03*
X0116583Y0066853D03*
X0116583Y0066892D03*
X0116583Y0066932D03*
X0116583Y0066971D03*
X0116583Y0067010D03*
X0116583Y0067050D03*
X0116583Y0067089D03*
X0116583Y0067129D03*
X0116583Y0067168D03*
X0116583Y0067207D03*
X0116583Y0067247D03*
X0116583Y0067286D03*
X0116583Y0067325D03*
X0116583Y0067365D03*
X0116583Y0067404D03*
X0116583Y0067444D03*
X0116583Y0067483D03*
X0116583Y0067522D03*
X0116583Y0067562D03*
X0116583Y0067601D03*
X0116583Y0067640D03*
X0116583Y0067680D03*
X0116583Y0067719D03*
X0116583Y0067759D03*
X0116583Y0067798D03*
X0116583Y0067837D03*
X0116583Y0067877D03*
X0116583Y0067916D03*
X0116583Y0067955D03*
X0116583Y0067995D03*
X0116583Y0068034D03*
X0116583Y0068073D03*
X0116583Y0068113D03*
X0116583Y0068152D03*
X0116583Y0068192D03*
X0116583Y0068231D03*
X0116583Y0068270D03*
X0116583Y0068310D03*
X0116583Y0068349D03*
X0116583Y0068388D03*
X0116583Y0068428D03*
X0116583Y0068467D03*
X0116583Y0068507D03*
X0116583Y0068546D03*
X0116583Y0068585D03*
X0116583Y0068625D03*
X0116583Y0068664D03*
X0116583Y0068703D03*
X0116583Y0068743D03*
X0116583Y0068782D03*
X0116583Y0068822D03*
X0116583Y0068861D03*
X0116583Y0068900D03*
X0116583Y0068940D03*
X0116583Y0068979D03*
X0116583Y0069018D03*
X0116583Y0069058D03*
X0116583Y0069097D03*
X0116583Y0069136D03*
X0116583Y0069176D03*
X0116583Y0069215D03*
X0116583Y0069255D03*
X0116583Y0069294D03*
X0116583Y0069333D03*
X0116583Y0069373D03*
X0116583Y0069412D03*
X0116583Y0069451D03*
X0116583Y0069491D03*
X0116583Y0070318D03*
X0116583Y0070357D03*
X0114929Y0069018D03*
X0114929Y0068979D03*
X0114929Y0068940D03*
X0114929Y0068900D03*
X0114929Y0068861D03*
X0114929Y0068822D03*
X0114929Y0068782D03*
X0114929Y0068743D03*
X0114929Y0068703D03*
X0114929Y0068664D03*
X0114929Y0068625D03*
X0114929Y0068585D03*
X0114929Y0068546D03*
X0114929Y0068507D03*
X0114929Y0068467D03*
X0114929Y0068428D03*
X0114929Y0068388D03*
X0114929Y0068349D03*
X0114929Y0068310D03*
X0114929Y0068270D03*
X0114929Y0068231D03*
X0114929Y0068192D03*
X0114929Y0068152D03*
X0114929Y0068113D03*
X0114929Y0068073D03*
X0114929Y0068034D03*
X0114929Y0067995D03*
X0114929Y0067955D03*
X0114929Y0067916D03*
X0114929Y0067877D03*
X0114929Y0067837D03*
X0114929Y0067798D03*
X0114929Y0067759D03*
X0114929Y0067719D03*
X0114929Y0067680D03*
X0114929Y0067640D03*
X0114929Y0067601D03*
X0114929Y0067562D03*
X0114929Y0067522D03*
X0114929Y0067483D03*
X0114929Y0067444D03*
X0114929Y0067404D03*
X0114929Y0067365D03*
X0114929Y0067325D03*
X0114929Y0067286D03*
X0114929Y0067247D03*
X0114929Y0067207D03*
X0114929Y0067168D03*
X0114929Y0067129D03*
X0120047Y0067129D03*
X0120047Y0067168D03*
X0120047Y0067207D03*
X0120047Y0067247D03*
X0120047Y0067286D03*
X0120047Y0067325D03*
X0120047Y0067365D03*
X0120047Y0067404D03*
X0120047Y0067444D03*
X0120047Y0067483D03*
X0120047Y0067522D03*
X0120047Y0067562D03*
X0120047Y0067601D03*
X0120047Y0067640D03*
X0120047Y0067680D03*
X0120047Y0067719D03*
X0120047Y0067759D03*
X0120047Y0067798D03*
X0120047Y0067837D03*
X0120047Y0067877D03*
X0120047Y0067916D03*
X0120047Y0067955D03*
X0120047Y0067995D03*
X0120047Y0068034D03*
X0120047Y0068073D03*
X0120047Y0068113D03*
X0120047Y0068152D03*
X0120047Y0068192D03*
X0120047Y0068231D03*
X0120047Y0068270D03*
X0120047Y0068310D03*
X0120047Y0068349D03*
X0120047Y0068388D03*
X0120047Y0068428D03*
X0120047Y0068467D03*
X0120047Y0068507D03*
X0120047Y0068546D03*
X0120047Y0068585D03*
X0120047Y0068625D03*
X0120047Y0068664D03*
X0120047Y0068703D03*
X0120047Y0068743D03*
X0120047Y0068782D03*
X0120047Y0068822D03*
X0120047Y0068861D03*
X0120047Y0068900D03*
X0120047Y0068940D03*
X0120047Y0068979D03*
X0120047Y0069018D03*
X0120047Y0069058D03*
X0120047Y0069097D03*
X0120047Y0069136D03*
X0120047Y0069176D03*
X0120047Y0069215D03*
X0120047Y0069255D03*
X0120047Y0069294D03*
X0120047Y0069333D03*
X0120047Y0069373D03*
X0120047Y0069412D03*
X0120047Y0069451D03*
X0120047Y0069491D03*
X0120047Y0070318D03*
X0120047Y0070357D03*
X0120047Y0067089D03*
X0120047Y0067050D03*
X0120047Y0067010D03*
X0120047Y0066971D03*
X0120047Y0066932D03*
X0120047Y0066892D03*
X0120047Y0066853D03*
X0120047Y0066814D03*
X0120047Y0066774D03*
X0120047Y0066735D03*
X0120047Y0066696D03*
X0120047Y0066656D03*
X0120047Y0066617D03*
X0120047Y0066577D03*
X0120047Y0066538D03*
X0120047Y0066499D03*
X0120047Y0066459D03*
X0120047Y0066420D03*
X0120047Y0066381D03*
X0120047Y0066341D03*
X0120047Y0066302D03*
X0120047Y0066262D03*
X0120047Y0066223D03*
X0120047Y0066184D03*
X0120047Y0066144D03*
X0120047Y0066105D03*
X0120047Y0066066D03*
X0120480Y0063349D03*
X0120480Y0063310D03*
X0120480Y0063270D03*
X0120480Y0063231D03*
X0120480Y0063192D03*
X0120480Y0063152D03*
X0120480Y0063113D03*
X0120480Y0063073D03*
X0121543Y0063073D03*
X0121543Y0063113D03*
X0121543Y0063152D03*
X0121543Y0063192D03*
X0121543Y0063231D03*
X0121543Y0063270D03*
X0121543Y0063310D03*
X0121543Y0063349D03*
X0125953Y0066026D03*
X0130008Y0067089D03*
X0130008Y0067129D03*
X0130008Y0067168D03*
X0130008Y0067207D03*
X0130008Y0067247D03*
X0130008Y0067286D03*
X0130008Y0067325D03*
X0130008Y0067365D03*
X0130008Y0067404D03*
X0130008Y0067444D03*
X0130008Y0067483D03*
X0130008Y0067522D03*
X0130008Y0067562D03*
X0130008Y0067601D03*
X0130008Y0067640D03*
X0130008Y0067680D03*
X0130008Y0067719D03*
X0130008Y0067759D03*
X0130008Y0067798D03*
X0135598Y0067798D03*
X0135598Y0067837D03*
X0135598Y0067877D03*
X0135598Y0067916D03*
X0135598Y0067955D03*
X0135598Y0067995D03*
X0135598Y0068034D03*
X0135598Y0068073D03*
X0135598Y0068113D03*
X0135598Y0068152D03*
X0135598Y0068192D03*
X0135598Y0068231D03*
X0135598Y0067759D03*
X0135598Y0067719D03*
X0135598Y0067680D03*
X0135598Y0067640D03*
X0135598Y0067601D03*
X0135598Y0067562D03*
X0135598Y0067522D03*
X0135598Y0067483D03*
X0135598Y0067444D03*
X0135598Y0067404D03*
X0135598Y0067365D03*
X0135598Y0067325D03*
X0135598Y0067286D03*
X0135598Y0067247D03*
X0135598Y0067207D03*
X0135598Y0067168D03*
X0137213Y0067168D03*
X0137213Y0067207D03*
X0137213Y0067247D03*
X0137213Y0067286D03*
X0137213Y0067325D03*
X0137213Y0067365D03*
X0137213Y0067404D03*
X0137213Y0067444D03*
X0137213Y0067483D03*
X0137213Y0067522D03*
X0137213Y0067562D03*
X0137213Y0067601D03*
X0137213Y0067640D03*
X0137213Y0067680D03*
X0137213Y0067719D03*
X0137213Y0067759D03*
X0137213Y0067798D03*
X0137213Y0067837D03*
X0137213Y0067877D03*
X0137213Y0067916D03*
X0137213Y0067955D03*
X0137213Y0067995D03*
X0137213Y0068034D03*
X0137213Y0068073D03*
X0137213Y0068113D03*
X0137213Y0068152D03*
X0137213Y0068192D03*
X0137213Y0068231D03*
X0137213Y0068270D03*
X0137213Y0068310D03*
X0137213Y0068349D03*
X0137213Y0068388D03*
X0137213Y0068428D03*
X0137213Y0068467D03*
X0137213Y0068507D03*
X0137213Y0068546D03*
X0137213Y0068585D03*
X0137213Y0068625D03*
X0137213Y0068664D03*
X0137213Y0068703D03*
X0137213Y0068743D03*
X0137213Y0068782D03*
X0137213Y0068822D03*
X0137213Y0068861D03*
X0137213Y0068900D03*
X0137213Y0068940D03*
X0137213Y0068979D03*
X0137213Y0069018D03*
X0135598Y0069018D03*
X0135598Y0069058D03*
X0135559Y0069136D03*
X0135559Y0069176D03*
X0137213Y0067129D03*
X0133945Y0062719D03*
X0109772Y0067129D03*
X0109772Y0067168D03*
X0109772Y0067207D03*
X0109772Y0067247D03*
X0109772Y0067286D03*
X0109772Y0067325D03*
X0109772Y0067365D03*
X0109772Y0067404D03*
X0109772Y0067444D03*
X0109772Y0067483D03*
X0109772Y0067522D03*
X0109772Y0067562D03*
X0109772Y0067601D03*
X0109772Y0067640D03*
X0109772Y0067680D03*
X0109772Y0067719D03*
X0109772Y0067759D03*
X0109772Y0067798D03*
X0109772Y0067837D03*
X0109772Y0067877D03*
X0109772Y0067916D03*
X0109772Y0067955D03*
X0109772Y0067995D03*
X0109772Y0068034D03*
X0109772Y0068073D03*
X0109772Y0068113D03*
X0109772Y0068152D03*
X0109772Y0068192D03*
X0109772Y0068231D03*
X0109772Y0068270D03*
X0109772Y0068310D03*
X0109772Y0068349D03*
X0109772Y0068388D03*
X0109772Y0068428D03*
X0109772Y0068467D03*
X0109772Y0068507D03*
X0109772Y0068546D03*
X0109772Y0068585D03*
X0109772Y0068625D03*
X0109772Y0068664D03*
X0109772Y0068703D03*
X0109772Y0068743D03*
X0109772Y0068782D03*
X0109772Y0068822D03*
X0109772Y0068861D03*
X0109772Y0068900D03*
X0109772Y0068940D03*
X0109772Y0068979D03*
X0109772Y0069018D03*
X0108157Y0069648D03*
X0108157Y0069688D03*
X0108157Y0069727D03*
X0108157Y0069766D03*
X0108157Y0069806D03*
X0108157Y0070081D03*
X0108157Y0070121D03*
X0108157Y0070160D03*
X0108157Y0070199D03*
D46*
X0126248Y0062995D03*
X0128650Y0062995D03*
D47*
X0117350Y0063073D03*
X0107823Y0069176D03*
X0135264Y0069451D03*
D48*
X0123591Y0063073D03*
D49*
X0140598Y0070239D03*
X0104299Y0071538D03*
X0104299Y0065869D03*
D50*
X0112350Y0065869D03*
X0134043Y0070081D03*
D51*
X0134280Y0069806D03*
X0132783Y0065869D03*
D52*
X0140795Y0065869D03*
X0140756Y0070278D03*
D53*
X0133374Y0068900D03*
X0132783Y0066184D03*
X0112350Y0066341D03*
X0112350Y0069806D03*
X0104476Y0071499D03*
X0104476Y0065908D03*
D54*
X0112350Y0065908D03*
X0112350Y0070239D03*
D55*
X0112350Y0070199D03*
X0112350Y0065948D03*
X0132783Y0065908D03*
D56*
X0132783Y0066066D03*
X0140618Y0065908D03*
D57*
X0133236Y0068822D03*
X0140283Y0070042D03*
X0104575Y0071459D03*
X0104575Y0065948D03*
D58*
X0132783Y0065948D03*
D59*
X0133492Y0068940D03*
X0140539Y0065948D03*
D60*
X0140224Y0066184D03*
X0140185Y0069924D03*
X0133138Y0068743D03*
X0112350Y0069530D03*
X0112350Y0066617D03*
X0104634Y0065987D03*
X0104634Y0071420D03*
D61*
X0112350Y0070160D03*
X0112350Y0065987D03*
D62*
X0132783Y0065987D03*
D63*
X0140441Y0065987D03*
X0140441Y0070160D03*
D64*
X0140106Y0069806D03*
X0140146Y0066302D03*
X0125972Y0071538D03*
X0104673Y0071381D03*
X0104673Y0066026D03*
D65*
X0112350Y0066026D03*
X0112350Y0070121D03*
D66*
X0132803Y0066026D03*
D67*
X0140382Y0066026D03*
X0140382Y0070121D03*
X0112350Y0069766D03*
X0112350Y0066381D03*
D68*
X0104732Y0066066D03*
X0104732Y0071341D03*
X0139929Y0069530D03*
X0140047Y0069688D03*
X0139929Y0066617D03*
X0140047Y0066459D03*
X0140087Y0066420D03*
D69*
X0112350Y0066066D03*
X0112350Y0070081D03*
D70*
X0140323Y0070081D03*
X0140323Y0066066D03*
D71*
X0140008Y0066538D03*
X0132803Y0066577D03*
X0132961Y0068507D03*
X0125953Y0070790D03*
X0125953Y0071459D03*
X0104772Y0071302D03*
X0104772Y0066105D03*
D72*
X0112350Y0066105D03*
X0112350Y0070042D03*
D73*
X0112350Y0069924D03*
X0112350Y0066223D03*
X0132783Y0066105D03*
D74*
X0140303Y0066105D03*
X0112350Y0066499D03*
X0112350Y0069648D03*
D75*
X0104811Y0068703D03*
X0104811Y0066144D03*
X0104811Y0071262D03*
X0125953Y0071381D03*
X0125953Y0070908D03*
X0125953Y0070869D03*
X0132921Y0068428D03*
X0132921Y0068388D03*
D76*
X0133650Y0068979D03*
X0112350Y0070003D03*
X0112350Y0066144D03*
D77*
X0132803Y0066144D03*
D78*
X0140264Y0066144D03*
X0112350Y0066538D03*
X0112350Y0066577D03*
X0112350Y0069570D03*
X0112350Y0069609D03*
D79*
X0104850Y0068743D03*
X0104850Y0066184D03*
X0104850Y0071223D03*
X0132882Y0068310D03*
X0132882Y0068270D03*
D80*
X0112350Y0069963D03*
X0112350Y0066184D03*
D81*
X0104890Y0066223D03*
X0104890Y0068782D03*
D82*
X0112350Y0069727D03*
X0112350Y0066420D03*
X0132783Y0066223D03*
X0133295Y0068861D03*
D83*
X0140205Y0066223D03*
D84*
X0104909Y0066262D03*
X0104909Y0068585D03*
X0104909Y0068822D03*
X0104909Y0071144D03*
D85*
X0112350Y0069885D03*
X0112350Y0066262D03*
D86*
X0112350Y0066459D03*
X0112350Y0069688D03*
X0132783Y0066262D03*
D87*
X0132803Y0066420D03*
X0133079Y0068664D03*
X0140126Y0069845D03*
X0140165Y0066262D03*
D88*
X0104949Y0066302D03*
X0104949Y0068861D03*
X0104949Y0071066D03*
D89*
X0112350Y0069845D03*
X0112350Y0066302D03*
D90*
X0132803Y0066302D03*
X0133197Y0068782D03*
X0140244Y0070003D03*
D91*
X0104969Y0071026D03*
X0104969Y0068900D03*
X0104969Y0068507D03*
X0104969Y0066341D03*
D92*
X0132803Y0066341D03*
X0140205Y0069963D03*
D93*
X0140087Y0069766D03*
X0140126Y0066341D03*
X0132803Y0066459D03*
X0133039Y0068625D03*
D94*
X0104988Y0068467D03*
X0104988Y0068940D03*
X0104988Y0070987D03*
X0104988Y0066381D03*
D95*
X0132783Y0066381D03*
X0133098Y0068703D03*
X0140146Y0069885D03*
D96*
X0140067Y0069727D03*
X0140106Y0066381D03*
X0132783Y0066499D03*
X0133020Y0068585D03*
X0125972Y0070751D03*
D97*
X0105008Y0070948D03*
X0105008Y0068979D03*
X0105008Y0068428D03*
X0105008Y0066420D03*
D98*
X0105028Y0066459D03*
X0105028Y0069018D03*
X0105028Y0070869D03*
X0105028Y0070908D03*
D99*
X0105047Y0070829D03*
X0105047Y0069097D03*
X0105047Y0069058D03*
X0105047Y0068388D03*
X0105047Y0066538D03*
X0105047Y0066499D03*
D100*
X0125972Y0071499D03*
X0132980Y0068546D03*
X0132783Y0066538D03*
X0139988Y0066577D03*
X0140028Y0066499D03*
X0139988Y0069570D03*
X0139988Y0069609D03*
X0140028Y0069648D03*
D101*
X0105067Y0070751D03*
X0105067Y0070790D03*
X0105067Y0068349D03*
X0105067Y0068310D03*
X0105067Y0066577D03*
D102*
X0105087Y0066617D03*
X0105087Y0066656D03*
D103*
X0125972Y0070829D03*
X0125972Y0071420D03*
X0132941Y0068467D03*
X0132783Y0066617D03*
D104*
X0135106Y0066656D03*
X0137705Y0066656D03*
X0137705Y0069491D03*
X0133768Y0070239D03*
X0121524Y0071459D03*
X0118059Y0071459D03*
X0114437Y0069491D03*
X0110264Y0069491D03*
X0110264Y0066656D03*
X0114437Y0066656D03*
D105*
X0130480Y0066656D03*
X0130480Y0068231D03*
X0135126Y0069491D03*
D106*
X0107646Y0066696D03*
D107*
X0110126Y0066696D03*
X0114575Y0066696D03*
X0116976Y0070751D03*
X0120441Y0070751D03*
X0137567Y0066696D03*
D108*
X0135224Y0066696D03*
X0130343Y0066696D03*
X0130343Y0068192D03*
X0137547Y0069451D03*
X0121602Y0071499D03*
X0118138Y0071499D03*
X0114594Y0069451D03*
X0110106Y0069451D03*
X0107862Y0066735D03*
D109*
X0107843Y0068231D03*
X0107803Y0070672D03*
D110*
X0107705Y0068270D03*
D111*
X0104831Y0068664D03*
X0125972Y0070948D03*
X0125972Y0070987D03*
X0125972Y0071026D03*
X0125972Y0071066D03*
X0125972Y0071105D03*
X0125972Y0071144D03*
X0125972Y0071184D03*
X0125972Y0071223D03*
X0125972Y0071262D03*
X0125972Y0071302D03*
X0125972Y0071341D03*
X0132902Y0068349D03*
D112*
X0104929Y0068546D03*
X0104929Y0071105D03*
D113*
X0104870Y0071184D03*
X0104870Y0068625D03*
D114*
X0107606Y0069136D03*
D115*
X0117449Y0069530D03*
X0117449Y0070278D03*
X0120913Y0070278D03*
X0120913Y0069530D03*
D116*
X0134319Y0069727D03*
X0134437Y0069530D03*
D117*
X0134220Y0069885D03*
X0120953Y0069570D03*
X0120953Y0070239D03*
X0117488Y0070239D03*
X0117488Y0069570D03*
D118*
X0134398Y0069570D03*
D119*
X0120972Y0069609D03*
X0120972Y0069648D03*
X0120972Y0069688D03*
X0120972Y0070081D03*
X0120972Y0070121D03*
X0120972Y0070160D03*
X0120972Y0070199D03*
X0117508Y0070199D03*
X0117508Y0070160D03*
X0117508Y0070121D03*
X0117508Y0070081D03*
X0117508Y0069688D03*
X0117508Y0069648D03*
X0117508Y0069609D03*
D120*
X0134339Y0069648D03*
X0134339Y0069688D03*
X0134378Y0069609D03*
D121*
X0134260Y0069845D03*
X0120992Y0069845D03*
X0120992Y0069806D03*
X0120992Y0069766D03*
X0120992Y0069727D03*
X0120992Y0069885D03*
X0120992Y0069924D03*
X0120992Y0069963D03*
X0120992Y0070003D03*
X0120992Y0070042D03*
X0117528Y0070042D03*
X0117528Y0070003D03*
X0117528Y0069963D03*
X0117528Y0069924D03*
X0117528Y0069885D03*
X0117528Y0069845D03*
X0117528Y0069806D03*
X0117528Y0069766D03*
X0117528Y0069727D03*
D122*
X0134299Y0069766D03*
D123*
X0134201Y0069924D03*
D124*
X0134161Y0069963D03*
X0121051Y0070869D03*
X0117587Y0070869D03*
D125*
X0117606Y0070908D03*
X0117606Y0070948D03*
X0117646Y0070987D03*
X0117567Y0070829D03*
X0121031Y0070829D03*
X0121071Y0070908D03*
X0121071Y0070948D03*
X0121110Y0070987D03*
X0134142Y0070003D03*
D126*
X0134083Y0070042D03*
X0121169Y0071105D03*
X0117705Y0071105D03*
D127*
X0117783Y0071223D03*
X0121248Y0071223D03*
X0134004Y0070121D03*
D128*
X0133925Y0070160D03*
X0121327Y0071302D03*
X0117862Y0071302D03*
D129*
X0117921Y0071381D03*
X0121386Y0071381D03*
X0133866Y0070199D03*
D130*
X0140520Y0070199D03*
D131*
X0121189Y0071144D03*
X0117724Y0071144D03*
X0112331Y0070278D03*
D132*
X0107626Y0070711D03*
D133*
X0117508Y0070790D03*
X0117665Y0071026D03*
X0120972Y0070790D03*
X0121130Y0071026D03*
D134*
X0121150Y0071066D03*
X0117685Y0071066D03*
D135*
X0117764Y0071184D03*
X0121228Y0071184D03*
D136*
X0121287Y0071262D03*
X0117823Y0071262D03*
D137*
X0117882Y0071341D03*
X0121346Y0071341D03*
D138*
X0121445Y0071420D03*
X0117980Y0071420D03*
D139*
X0134936Y0012407D02*
X0134936Y0006268D01*
X0131867Y0009337D02*
X0138006Y0009337D01*
X0109659Y0009337D02*
X0103520Y0009337D01*
D140*
X0084114Y0082562D03*
D141*
X0077864Y0082562D03*
X0101364Y0082562D03*
M02*
