G75*
%MOIN*%
%OFA0B0*%
%FSLAX25Y25*%
%IPPOS*%
%LPD*%
%AMOC8*
5,1,8,0,0,1.08239X$1,22.5*
%
%ADD10C,0.00000*%
%ADD11C,0.21126*%
%ADD12OC8,0.05200*%
%ADD13C,0.06600*%
%ADD14R,0.05000X0.10000*%
%ADD15C,0.00984*%
%ADD16C,0.11811*%
%ADD17OC8,0.15000*%
%ADD18C,0.01000*%
D10*
X0003000Y0011696D02*
X0003000Y0102247D01*
X0239220Y0102247D01*
X0239220Y0011696D01*
X0003000Y0011696D01*
X0036465Y0023507D02*
X0044339Y0023507D01*
X0044463Y0023509D01*
X0044586Y0023515D01*
X0044710Y0023524D01*
X0044832Y0023538D01*
X0044955Y0023555D01*
X0045077Y0023577D01*
X0045198Y0023602D01*
X0045318Y0023631D01*
X0045437Y0023663D01*
X0045556Y0023700D01*
X0045673Y0023740D01*
X0045788Y0023783D01*
X0045903Y0023831D01*
X0046015Y0023882D01*
X0046126Y0023936D01*
X0046236Y0023994D01*
X0046343Y0024055D01*
X0046449Y0024120D01*
X0046552Y0024188D01*
X0046653Y0024259D01*
X0046752Y0024333D01*
X0046849Y0024410D01*
X0046943Y0024491D01*
X0047034Y0024574D01*
X0047123Y0024660D01*
X0047209Y0024749D01*
X0047292Y0024840D01*
X0047373Y0024934D01*
X0047450Y0025031D01*
X0047524Y0025130D01*
X0047595Y0025231D01*
X0047663Y0025334D01*
X0047728Y0025440D01*
X0047789Y0025547D01*
X0047847Y0025657D01*
X0047901Y0025768D01*
X0047952Y0025880D01*
X0048000Y0025995D01*
X0048043Y0026110D01*
X0048083Y0026227D01*
X0048120Y0026346D01*
X0048152Y0026465D01*
X0048181Y0026585D01*
X0048206Y0026706D01*
X0048228Y0026828D01*
X0048245Y0026951D01*
X0048259Y0027073D01*
X0048268Y0027197D01*
X0048274Y0027320D01*
X0048276Y0027444D01*
X0048274Y0027568D01*
X0048268Y0027691D01*
X0048259Y0027815D01*
X0048245Y0027937D01*
X0048228Y0028060D01*
X0048206Y0028182D01*
X0048181Y0028303D01*
X0048152Y0028423D01*
X0048120Y0028542D01*
X0048083Y0028661D01*
X0048043Y0028778D01*
X0048000Y0028893D01*
X0047952Y0029008D01*
X0047901Y0029120D01*
X0047847Y0029231D01*
X0047789Y0029341D01*
X0047728Y0029448D01*
X0047663Y0029554D01*
X0047595Y0029657D01*
X0047524Y0029758D01*
X0047450Y0029857D01*
X0047373Y0029954D01*
X0047292Y0030048D01*
X0047209Y0030139D01*
X0047123Y0030228D01*
X0047034Y0030314D01*
X0046943Y0030397D01*
X0046849Y0030478D01*
X0046752Y0030555D01*
X0046653Y0030629D01*
X0046552Y0030700D01*
X0046449Y0030768D01*
X0046343Y0030833D01*
X0046236Y0030894D01*
X0046126Y0030952D01*
X0046015Y0031006D01*
X0045903Y0031057D01*
X0045788Y0031105D01*
X0045673Y0031148D01*
X0045556Y0031188D01*
X0045437Y0031225D01*
X0045318Y0031257D01*
X0045198Y0031286D01*
X0045077Y0031311D01*
X0044955Y0031333D01*
X0044832Y0031350D01*
X0044710Y0031364D01*
X0044586Y0031373D01*
X0044463Y0031379D01*
X0044339Y0031381D01*
X0036465Y0031381D01*
X0036341Y0031379D01*
X0036218Y0031373D01*
X0036094Y0031364D01*
X0035972Y0031350D01*
X0035849Y0031333D01*
X0035727Y0031311D01*
X0035606Y0031286D01*
X0035486Y0031257D01*
X0035367Y0031225D01*
X0035248Y0031188D01*
X0035131Y0031148D01*
X0035016Y0031105D01*
X0034901Y0031057D01*
X0034789Y0031006D01*
X0034678Y0030952D01*
X0034568Y0030894D01*
X0034461Y0030833D01*
X0034355Y0030768D01*
X0034252Y0030700D01*
X0034151Y0030629D01*
X0034052Y0030555D01*
X0033955Y0030478D01*
X0033861Y0030397D01*
X0033770Y0030314D01*
X0033681Y0030228D01*
X0033595Y0030139D01*
X0033512Y0030048D01*
X0033431Y0029954D01*
X0033354Y0029857D01*
X0033280Y0029758D01*
X0033209Y0029657D01*
X0033141Y0029554D01*
X0033076Y0029448D01*
X0033015Y0029341D01*
X0032957Y0029231D01*
X0032903Y0029120D01*
X0032852Y0029008D01*
X0032804Y0028893D01*
X0032761Y0028778D01*
X0032721Y0028661D01*
X0032684Y0028542D01*
X0032652Y0028423D01*
X0032623Y0028303D01*
X0032598Y0028182D01*
X0032576Y0028060D01*
X0032559Y0027937D01*
X0032545Y0027815D01*
X0032536Y0027691D01*
X0032530Y0027568D01*
X0032528Y0027444D01*
X0032530Y0027320D01*
X0032536Y0027197D01*
X0032545Y0027073D01*
X0032559Y0026951D01*
X0032576Y0026828D01*
X0032598Y0026706D01*
X0032623Y0026585D01*
X0032652Y0026465D01*
X0032684Y0026346D01*
X0032721Y0026227D01*
X0032761Y0026110D01*
X0032804Y0025995D01*
X0032852Y0025880D01*
X0032903Y0025768D01*
X0032957Y0025657D01*
X0033015Y0025547D01*
X0033076Y0025440D01*
X0033141Y0025334D01*
X0033209Y0025231D01*
X0033280Y0025130D01*
X0033354Y0025031D01*
X0033431Y0024934D01*
X0033512Y0024840D01*
X0033595Y0024749D01*
X0033681Y0024660D01*
X0033770Y0024574D01*
X0033861Y0024491D01*
X0033955Y0024410D01*
X0034052Y0024333D01*
X0034151Y0024259D01*
X0034252Y0024188D01*
X0034355Y0024120D01*
X0034461Y0024055D01*
X0034568Y0023994D01*
X0034678Y0023936D01*
X0034789Y0023882D01*
X0034901Y0023831D01*
X0035016Y0023783D01*
X0035131Y0023740D01*
X0035248Y0023700D01*
X0035367Y0023663D01*
X0035486Y0023631D01*
X0035606Y0023602D01*
X0035727Y0023577D01*
X0035849Y0023555D01*
X0035972Y0023538D01*
X0036094Y0023524D01*
X0036218Y0023515D01*
X0036341Y0023509D01*
X0036465Y0023507D01*
X0042370Y0043192D02*
X0026622Y0043192D01*
X0026334Y0043196D01*
X0026047Y0043206D01*
X0025760Y0043224D01*
X0025473Y0043248D01*
X0025187Y0043279D01*
X0024902Y0043318D01*
X0024618Y0043363D01*
X0024335Y0043415D01*
X0024054Y0043475D01*
X0023774Y0043541D01*
X0023496Y0043613D01*
X0023219Y0043693D01*
X0022945Y0043779D01*
X0022673Y0043872D01*
X0022403Y0043971D01*
X0022135Y0044077D01*
X0021871Y0044190D01*
X0021609Y0044309D01*
X0021350Y0044434D01*
X0021094Y0044566D01*
X0020841Y0044703D01*
X0020592Y0044847D01*
X0020347Y0044997D01*
X0020105Y0045153D01*
X0019867Y0045314D01*
X0019633Y0045482D01*
X0019403Y0045655D01*
X0019178Y0045833D01*
X0018957Y0046017D01*
X0018740Y0046206D01*
X0018528Y0046401D01*
X0018321Y0046601D01*
X0018119Y0046805D01*
X0017922Y0047015D01*
X0017730Y0047229D01*
X0017544Y0047448D01*
X0017362Y0047671D01*
X0017186Y0047899D01*
X0017016Y0048131D01*
X0016852Y0048367D01*
X0016693Y0048606D01*
X0016540Y0048850D01*
X0016393Y0049097D01*
X0016253Y0049348D01*
X0016118Y0049603D01*
X0015990Y0049860D01*
X0015868Y0050120D01*
X0015752Y0050384D01*
X0015643Y0050650D01*
X0015540Y0050918D01*
X0015444Y0051189D01*
X0015354Y0051463D01*
X0015271Y0051738D01*
X0015195Y0052016D01*
X0015126Y0052295D01*
X0015063Y0052575D01*
X0015007Y0052858D01*
X0014959Y0053141D01*
X0014917Y0053426D01*
X0014882Y0053711D01*
X0014854Y0053997D01*
X0014833Y0054284D01*
X0014819Y0054572D01*
X0014812Y0054859D01*
X0014812Y0055147D01*
X0014819Y0055434D01*
X0014833Y0055722D01*
X0014854Y0056009D01*
X0014882Y0056295D01*
X0014917Y0056580D01*
X0014959Y0056865D01*
X0015007Y0057148D01*
X0015063Y0057431D01*
X0015126Y0057711D01*
X0015195Y0057990D01*
X0015271Y0058268D01*
X0015354Y0058543D01*
X0015444Y0058817D01*
X0015540Y0059088D01*
X0015643Y0059356D01*
X0015752Y0059622D01*
X0015868Y0059886D01*
X0015990Y0060146D01*
X0016118Y0060403D01*
X0016253Y0060658D01*
X0016393Y0060908D01*
X0016540Y0061156D01*
X0016693Y0061400D01*
X0016852Y0061639D01*
X0017016Y0061875D01*
X0017186Y0062107D01*
X0017362Y0062335D01*
X0017544Y0062558D01*
X0017730Y0062777D01*
X0017922Y0062991D01*
X0018119Y0063201D01*
X0018321Y0063405D01*
X0018528Y0063605D01*
X0018740Y0063800D01*
X0018957Y0063989D01*
X0019178Y0064173D01*
X0019403Y0064351D01*
X0019633Y0064524D01*
X0019867Y0064692D01*
X0020105Y0064853D01*
X0020347Y0065009D01*
X0020592Y0065159D01*
X0020841Y0065303D01*
X0021094Y0065440D01*
X0021350Y0065572D01*
X0021609Y0065697D01*
X0021871Y0065816D01*
X0022135Y0065929D01*
X0022403Y0066035D01*
X0022673Y0066134D01*
X0022945Y0066227D01*
X0023219Y0066313D01*
X0023496Y0066393D01*
X0023774Y0066465D01*
X0024054Y0066531D01*
X0024335Y0066591D01*
X0024618Y0066643D01*
X0024902Y0066688D01*
X0025187Y0066727D01*
X0025473Y0066758D01*
X0025760Y0066782D01*
X0026047Y0066800D01*
X0026334Y0066810D01*
X0026622Y0066814D01*
X0042370Y0066814D01*
X0042658Y0066810D01*
X0042945Y0066800D01*
X0043232Y0066782D01*
X0043519Y0066758D01*
X0043805Y0066727D01*
X0044090Y0066688D01*
X0044374Y0066643D01*
X0044657Y0066591D01*
X0044938Y0066531D01*
X0045218Y0066465D01*
X0045496Y0066393D01*
X0045773Y0066313D01*
X0046047Y0066227D01*
X0046319Y0066134D01*
X0046589Y0066035D01*
X0046857Y0065929D01*
X0047121Y0065816D01*
X0047383Y0065697D01*
X0047642Y0065572D01*
X0047898Y0065440D01*
X0048151Y0065303D01*
X0048400Y0065159D01*
X0048645Y0065009D01*
X0048887Y0064853D01*
X0049125Y0064692D01*
X0049359Y0064524D01*
X0049589Y0064351D01*
X0049814Y0064173D01*
X0050035Y0063989D01*
X0050252Y0063800D01*
X0050464Y0063605D01*
X0050671Y0063405D01*
X0050873Y0063201D01*
X0051070Y0062991D01*
X0051262Y0062777D01*
X0051448Y0062558D01*
X0051630Y0062335D01*
X0051806Y0062107D01*
X0051976Y0061875D01*
X0052140Y0061639D01*
X0052299Y0061400D01*
X0052452Y0061156D01*
X0052599Y0060909D01*
X0052739Y0060658D01*
X0052874Y0060403D01*
X0053002Y0060146D01*
X0053124Y0059886D01*
X0053240Y0059622D01*
X0053349Y0059356D01*
X0053452Y0059088D01*
X0053548Y0058817D01*
X0053638Y0058543D01*
X0053721Y0058268D01*
X0053797Y0057990D01*
X0053866Y0057711D01*
X0053929Y0057431D01*
X0053985Y0057148D01*
X0054033Y0056865D01*
X0054075Y0056580D01*
X0054110Y0056295D01*
X0054138Y0056009D01*
X0054159Y0055722D01*
X0054173Y0055434D01*
X0054180Y0055147D01*
X0054180Y0054859D01*
X0054173Y0054572D01*
X0054159Y0054284D01*
X0054138Y0053997D01*
X0054110Y0053711D01*
X0054075Y0053426D01*
X0054033Y0053141D01*
X0053985Y0052858D01*
X0053929Y0052575D01*
X0053866Y0052295D01*
X0053797Y0052016D01*
X0053721Y0051738D01*
X0053638Y0051463D01*
X0053548Y0051189D01*
X0053452Y0050918D01*
X0053349Y0050650D01*
X0053240Y0050384D01*
X0053124Y0050120D01*
X0053002Y0049860D01*
X0052874Y0049603D01*
X0052739Y0049348D01*
X0052599Y0049098D01*
X0052452Y0048850D01*
X0052299Y0048606D01*
X0052140Y0048367D01*
X0051976Y0048131D01*
X0051806Y0047899D01*
X0051630Y0047671D01*
X0051448Y0047448D01*
X0051262Y0047229D01*
X0051070Y0047015D01*
X0050873Y0046805D01*
X0050671Y0046601D01*
X0050464Y0046401D01*
X0050252Y0046206D01*
X0050035Y0046017D01*
X0049814Y0045833D01*
X0049589Y0045655D01*
X0049359Y0045482D01*
X0049125Y0045314D01*
X0048887Y0045153D01*
X0048645Y0044997D01*
X0048400Y0044847D01*
X0048151Y0044703D01*
X0047898Y0044566D01*
X0047642Y0044434D01*
X0047383Y0044309D01*
X0047121Y0044190D01*
X0046857Y0044077D01*
X0046589Y0043971D01*
X0046319Y0043872D01*
X0046047Y0043779D01*
X0045773Y0043693D01*
X0045496Y0043613D01*
X0045218Y0043541D01*
X0044938Y0043475D01*
X0044657Y0043415D01*
X0044374Y0043363D01*
X0044090Y0043318D01*
X0043805Y0043279D01*
X0043519Y0043248D01*
X0043232Y0043224D01*
X0042945Y0043206D01*
X0042658Y0043196D01*
X0042370Y0043192D01*
X0032528Y0078625D02*
X0024654Y0078625D01*
X0024530Y0078627D01*
X0024407Y0078633D01*
X0024283Y0078642D01*
X0024161Y0078656D01*
X0024038Y0078673D01*
X0023916Y0078695D01*
X0023795Y0078720D01*
X0023675Y0078749D01*
X0023556Y0078781D01*
X0023437Y0078818D01*
X0023320Y0078858D01*
X0023205Y0078901D01*
X0023090Y0078949D01*
X0022978Y0079000D01*
X0022867Y0079054D01*
X0022757Y0079112D01*
X0022650Y0079173D01*
X0022544Y0079238D01*
X0022441Y0079306D01*
X0022340Y0079377D01*
X0022241Y0079451D01*
X0022144Y0079528D01*
X0022050Y0079609D01*
X0021959Y0079692D01*
X0021870Y0079778D01*
X0021784Y0079867D01*
X0021701Y0079958D01*
X0021620Y0080052D01*
X0021543Y0080149D01*
X0021469Y0080248D01*
X0021398Y0080349D01*
X0021330Y0080452D01*
X0021265Y0080558D01*
X0021204Y0080665D01*
X0021146Y0080775D01*
X0021092Y0080886D01*
X0021041Y0080998D01*
X0020993Y0081113D01*
X0020950Y0081228D01*
X0020910Y0081345D01*
X0020873Y0081464D01*
X0020841Y0081583D01*
X0020812Y0081703D01*
X0020787Y0081824D01*
X0020765Y0081946D01*
X0020748Y0082069D01*
X0020734Y0082191D01*
X0020725Y0082315D01*
X0020719Y0082438D01*
X0020717Y0082562D01*
X0020719Y0082686D01*
X0020725Y0082809D01*
X0020734Y0082933D01*
X0020748Y0083055D01*
X0020765Y0083178D01*
X0020787Y0083300D01*
X0020812Y0083421D01*
X0020841Y0083541D01*
X0020873Y0083660D01*
X0020910Y0083779D01*
X0020950Y0083896D01*
X0020993Y0084011D01*
X0021041Y0084126D01*
X0021092Y0084238D01*
X0021146Y0084349D01*
X0021204Y0084459D01*
X0021265Y0084566D01*
X0021330Y0084672D01*
X0021398Y0084775D01*
X0021469Y0084876D01*
X0021543Y0084975D01*
X0021620Y0085072D01*
X0021701Y0085166D01*
X0021784Y0085257D01*
X0021870Y0085346D01*
X0021959Y0085432D01*
X0022050Y0085515D01*
X0022144Y0085596D01*
X0022241Y0085673D01*
X0022340Y0085747D01*
X0022441Y0085818D01*
X0022544Y0085886D01*
X0022650Y0085951D01*
X0022757Y0086012D01*
X0022867Y0086070D01*
X0022978Y0086124D01*
X0023090Y0086175D01*
X0023205Y0086223D01*
X0023320Y0086266D01*
X0023437Y0086306D01*
X0023556Y0086343D01*
X0023675Y0086375D01*
X0023795Y0086404D01*
X0023916Y0086429D01*
X0024038Y0086451D01*
X0024161Y0086468D01*
X0024283Y0086482D01*
X0024407Y0086491D01*
X0024530Y0086497D01*
X0024654Y0086499D01*
X0032528Y0086499D01*
X0032652Y0086497D01*
X0032775Y0086491D01*
X0032899Y0086482D01*
X0033021Y0086468D01*
X0033144Y0086451D01*
X0033266Y0086429D01*
X0033387Y0086404D01*
X0033507Y0086375D01*
X0033626Y0086343D01*
X0033745Y0086306D01*
X0033862Y0086266D01*
X0033977Y0086223D01*
X0034092Y0086175D01*
X0034204Y0086124D01*
X0034315Y0086070D01*
X0034425Y0086012D01*
X0034532Y0085951D01*
X0034638Y0085886D01*
X0034741Y0085818D01*
X0034842Y0085747D01*
X0034941Y0085673D01*
X0035038Y0085596D01*
X0035132Y0085515D01*
X0035223Y0085432D01*
X0035312Y0085346D01*
X0035398Y0085257D01*
X0035481Y0085166D01*
X0035562Y0085072D01*
X0035639Y0084975D01*
X0035713Y0084876D01*
X0035784Y0084775D01*
X0035852Y0084672D01*
X0035917Y0084566D01*
X0035978Y0084459D01*
X0036036Y0084349D01*
X0036090Y0084238D01*
X0036141Y0084126D01*
X0036189Y0084011D01*
X0036232Y0083896D01*
X0036272Y0083779D01*
X0036309Y0083660D01*
X0036341Y0083541D01*
X0036370Y0083421D01*
X0036395Y0083300D01*
X0036417Y0083178D01*
X0036434Y0083055D01*
X0036448Y0082933D01*
X0036457Y0082809D01*
X0036463Y0082686D01*
X0036465Y0082562D01*
X0036463Y0082438D01*
X0036457Y0082315D01*
X0036448Y0082191D01*
X0036434Y0082069D01*
X0036417Y0081946D01*
X0036395Y0081824D01*
X0036370Y0081703D01*
X0036341Y0081583D01*
X0036309Y0081464D01*
X0036272Y0081345D01*
X0036232Y0081228D01*
X0036189Y0081113D01*
X0036141Y0080998D01*
X0036090Y0080886D01*
X0036036Y0080775D01*
X0035978Y0080665D01*
X0035917Y0080558D01*
X0035852Y0080452D01*
X0035784Y0080349D01*
X0035713Y0080248D01*
X0035639Y0080149D01*
X0035562Y0080052D01*
X0035481Y0079958D01*
X0035398Y0079867D01*
X0035312Y0079778D01*
X0035223Y0079692D01*
X0035132Y0079609D01*
X0035038Y0079528D01*
X0034941Y0079451D01*
X0034842Y0079377D01*
X0034741Y0079306D01*
X0034638Y0079238D01*
X0034532Y0079173D01*
X0034425Y0079112D01*
X0034315Y0079054D01*
X0034204Y0079000D01*
X0034092Y0078949D01*
X0033977Y0078901D01*
X0033862Y0078858D01*
X0033745Y0078818D01*
X0033626Y0078781D01*
X0033507Y0078749D01*
X0033387Y0078720D01*
X0033266Y0078695D01*
X0033144Y0078673D01*
X0033021Y0078656D01*
X0032899Y0078642D01*
X0032775Y0078633D01*
X0032652Y0078627D01*
X0032528Y0078625D01*
X0193945Y0078625D02*
X0201819Y0078625D01*
X0201943Y0078627D01*
X0202066Y0078633D01*
X0202190Y0078642D01*
X0202312Y0078656D01*
X0202435Y0078673D01*
X0202557Y0078695D01*
X0202678Y0078720D01*
X0202798Y0078749D01*
X0202917Y0078781D01*
X0203036Y0078818D01*
X0203153Y0078858D01*
X0203268Y0078901D01*
X0203383Y0078949D01*
X0203495Y0079000D01*
X0203606Y0079054D01*
X0203716Y0079112D01*
X0203823Y0079173D01*
X0203929Y0079238D01*
X0204032Y0079306D01*
X0204133Y0079377D01*
X0204232Y0079451D01*
X0204329Y0079528D01*
X0204423Y0079609D01*
X0204514Y0079692D01*
X0204603Y0079778D01*
X0204689Y0079867D01*
X0204772Y0079958D01*
X0204853Y0080052D01*
X0204930Y0080149D01*
X0205004Y0080248D01*
X0205075Y0080349D01*
X0205143Y0080452D01*
X0205208Y0080558D01*
X0205269Y0080665D01*
X0205327Y0080775D01*
X0205381Y0080886D01*
X0205432Y0080998D01*
X0205480Y0081113D01*
X0205523Y0081228D01*
X0205563Y0081345D01*
X0205600Y0081464D01*
X0205632Y0081583D01*
X0205661Y0081703D01*
X0205686Y0081824D01*
X0205708Y0081946D01*
X0205725Y0082069D01*
X0205739Y0082191D01*
X0205748Y0082315D01*
X0205754Y0082438D01*
X0205756Y0082562D01*
X0205754Y0082686D01*
X0205748Y0082809D01*
X0205739Y0082933D01*
X0205725Y0083055D01*
X0205708Y0083178D01*
X0205686Y0083300D01*
X0205661Y0083421D01*
X0205632Y0083541D01*
X0205600Y0083660D01*
X0205563Y0083779D01*
X0205523Y0083896D01*
X0205480Y0084011D01*
X0205432Y0084126D01*
X0205381Y0084238D01*
X0205327Y0084349D01*
X0205269Y0084459D01*
X0205208Y0084566D01*
X0205143Y0084672D01*
X0205075Y0084775D01*
X0205004Y0084876D01*
X0204930Y0084975D01*
X0204853Y0085072D01*
X0204772Y0085166D01*
X0204689Y0085257D01*
X0204603Y0085346D01*
X0204514Y0085432D01*
X0204423Y0085515D01*
X0204329Y0085596D01*
X0204232Y0085673D01*
X0204133Y0085747D01*
X0204032Y0085818D01*
X0203929Y0085886D01*
X0203823Y0085951D01*
X0203716Y0086012D01*
X0203606Y0086070D01*
X0203495Y0086124D01*
X0203383Y0086175D01*
X0203268Y0086223D01*
X0203153Y0086266D01*
X0203036Y0086306D01*
X0202917Y0086343D01*
X0202798Y0086375D01*
X0202678Y0086404D01*
X0202557Y0086429D01*
X0202435Y0086451D01*
X0202312Y0086468D01*
X0202190Y0086482D01*
X0202066Y0086491D01*
X0201943Y0086497D01*
X0201819Y0086499D01*
X0193945Y0086499D01*
X0193821Y0086497D01*
X0193698Y0086491D01*
X0193574Y0086482D01*
X0193452Y0086468D01*
X0193329Y0086451D01*
X0193207Y0086429D01*
X0193086Y0086404D01*
X0192966Y0086375D01*
X0192847Y0086343D01*
X0192728Y0086306D01*
X0192611Y0086266D01*
X0192496Y0086223D01*
X0192381Y0086175D01*
X0192269Y0086124D01*
X0192158Y0086070D01*
X0192048Y0086012D01*
X0191941Y0085951D01*
X0191835Y0085886D01*
X0191732Y0085818D01*
X0191631Y0085747D01*
X0191532Y0085673D01*
X0191435Y0085596D01*
X0191341Y0085515D01*
X0191250Y0085432D01*
X0191161Y0085346D01*
X0191075Y0085257D01*
X0190992Y0085166D01*
X0190911Y0085072D01*
X0190834Y0084975D01*
X0190760Y0084876D01*
X0190689Y0084775D01*
X0190621Y0084672D01*
X0190556Y0084566D01*
X0190495Y0084459D01*
X0190437Y0084349D01*
X0190383Y0084238D01*
X0190332Y0084126D01*
X0190284Y0084011D01*
X0190241Y0083896D01*
X0190201Y0083779D01*
X0190164Y0083660D01*
X0190132Y0083541D01*
X0190103Y0083421D01*
X0190078Y0083300D01*
X0190056Y0083178D01*
X0190039Y0083055D01*
X0190025Y0082933D01*
X0190016Y0082809D01*
X0190010Y0082686D01*
X0190008Y0082562D01*
X0190010Y0082438D01*
X0190016Y0082315D01*
X0190025Y0082191D01*
X0190039Y0082069D01*
X0190056Y0081946D01*
X0190078Y0081824D01*
X0190103Y0081703D01*
X0190132Y0081583D01*
X0190164Y0081464D01*
X0190201Y0081345D01*
X0190241Y0081228D01*
X0190284Y0081113D01*
X0190332Y0080998D01*
X0190383Y0080886D01*
X0190437Y0080775D01*
X0190495Y0080665D01*
X0190556Y0080558D01*
X0190621Y0080452D01*
X0190689Y0080349D01*
X0190760Y0080248D01*
X0190834Y0080149D01*
X0190911Y0080052D01*
X0190992Y0079958D01*
X0191075Y0079867D01*
X0191161Y0079778D01*
X0191250Y0079692D01*
X0191341Y0079609D01*
X0191435Y0079528D01*
X0191532Y0079451D01*
X0191631Y0079377D01*
X0191732Y0079306D01*
X0191835Y0079238D01*
X0191941Y0079173D01*
X0192048Y0079112D01*
X0192158Y0079054D01*
X0192269Y0079000D01*
X0192381Y0078949D01*
X0192496Y0078901D01*
X0192611Y0078858D01*
X0192728Y0078818D01*
X0192847Y0078781D01*
X0192966Y0078749D01*
X0193086Y0078720D01*
X0193207Y0078695D01*
X0193329Y0078673D01*
X0193452Y0078656D01*
X0193574Y0078642D01*
X0193698Y0078633D01*
X0193821Y0078627D01*
X0193945Y0078625D01*
X0195913Y0066814D02*
X0211661Y0066814D01*
X0211949Y0066810D01*
X0212236Y0066800D01*
X0212523Y0066782D01*
X0212810Y0066758D01*
X0213096Y0066727D01*
X0213381Y0066688D01*
X0213665Y0066643D01*
X0213948Y0066591D01*
X0214229Y0066531D01*
X0214509Y0066465D01*
X0214787Y0066393D01*
X0215064Y0066313D01*
X0215338Y0066227D01*
X0215610Y0066134D01*
X0215880Y0066035D01*
X0216148Y0065929D01*
X0216412Y0065816D01*
X0216674Y0065697D01*
X0216933Y0065572D01*
X0217189Y0065440D01*
X0217442Y0065303D01*
X0217691Y0065159D01*
X0217936Y0065009D01*
X0218178Y0064853D01*
X0218416Y0064692D01*
X0218650Y0064524D01*
X0218880Y0064351D01*
X0219105Y0064173D01*
X0219326Y0063989D01*
X0219543Y0063800D01*
X0219755Y0063605D01*
X0219962Y0063405D01*
X0220164Y0063201D01*
X0220361Y0062991D01*
X0220553Y0062777D01*
X0220739Y0062558D01*
X0220921Y0062335D01*
X0221097Y0062107D01*
X0221267Y0061875D01*
X0221431Y0061639D01*
X0221590Y0061400D01*
X0221743Y0061156D01*
X0221890Y0060909D01*
X0222030Y0060658D01*
X0222165Y0060403D01*
X0222293Y0060146D01*
X0222415Y0059886D01*
X0222531Y0059622D01*
X0222640Y0059356D01*
X0222743Y0059088D01*
X0222839Y0058817D01*
X0222929Y0058543D01*
X0223012Y0058268D01*
X0223088Y0057990D01*
X0223157Y0057711D01*
X0223220Y0057431D01*
X0223276Y0057148D01*
X0223324Y0056865D01*
X0223366Y0056580D01*
X0223401Y0056295D01*
X0223429Y0056009D01*
X0223450Y0055722D01*
X0223464Y0055434D01*
X0223471Y0055147D01*
X0223471Y0054859D01*
X0223464Y0054572D01*
X0223450Y0054284D01*
X0223429Y0053997D01*
X0223401Y0053711D01*
X0223366Y0053426D01*
X0223324Y0053141D01*
X0223276Y0052858D01*
X0223220Y0052575D01*
X0223157Y0052295D01*
X0223088Y0052016D01*
X0223012Y0051738D01*
X0222929Y0051463D01*
X0222839Y0051189D01*
X0222743Y0050918D01*
X0222640Y0050650D01*
X0222531Y0050384D01*
X0222415Y0050120D01*
X0222293Y0049860D01*
X0222165Y0049603D01*
X0222030Y0049348D01*
X0221890Y0049098D01*
X0221743Y0048850D01*
X0221590Y0048606D01*
X0221431Y0048367D01*
X0221267Y0048131D01*
X0221097Y0047899D01*
X0220921Y0047671D01*
X0220739Y0047448D01*
X0220553Y0047229D01*
X0220361Y0047015D01*
X0220164Y0046805D01*
X0219962Y0046601D01*
X0219755Y0046401D01*
X0219543Y0046206D01*
X0219326Y0046017D01*
X0219105Y0045833D01*
X0218880Y0045655D01*
X0218650Y0045482D01*
X0218416Y0045314D01*
X0218178Y0045153D01*
X0217936Y0044997D01*
X0217691Y0044847D01*
X0217442Y0044703D01*
X0217189Y0044566D01*
X0216933Y0044434D01*
X0216674Y0044309D01*
X0216412Y0044190D01*
X0216148Y0044077D01*
X0215880Y0043971D01*
X0215610Y0043872D01*
X0215338Y0043779D01*
X0215064Y0043693D01*
X0214787Y0043613D01*
X0214509Y0043541D01*
X0214229Y0043475D01*
X0213948Y0043415D01*
X0213665Y0043363D01*
X0213381Y0043318D01*
X0213096Y0043279D01*
X0212810Y0043248D01*
X0212523Y0043224D01*
X0212236Y0043206D01*
X0211949Y0043196D01*
X0211661Y0043192D01*
X0195913Y0043192D01*
X0195625Y0043196D01*
X0195338Y0043206D01*
X0195051Y0043224D01*
X0194764Y0043248D01*
X0194478Y0043279D01*
X0194193Y0043318D01*
X0193909Y0043363D01*
X0193626Y0043415D01*
X0193345Y0043475D01*
X0193065Y0043541D01*
X0192787Y0043613D01*
X0192510Y0043693D01*
X0192236Y0043779D01*
X0191964Y0043872D01*
X0191694Y0043971D01*
X0191426Y0044077D01*
X0191162Y0044190D01*
X0190900Y0044309D01*
X0190641Y0044434D01*
X0190385Y0044566D01*
X0190132Y0044703D01*
X0189883Y0044847D01*
X0189638Y0044997D01*
X0189396Y0045153D01*
X0189158Y0045314D01*
X0188924Y0045482D01*
X0188694Y0045655D01*
X0188469Y0045833D01*
X0188248Y0046017D01*
X0188031Y0046206D01*
X0187819Y0046401D01*
X0187612Y0046601D01*
X0187410Y0046805D01*
X0187213Y0047015D01*
X0187021Y0047229D01*
X0186835Y0047448D01*
X0186653Y0047671D01*
X0186477Y0047899D01*
X0186307Y0048131D01*
X0186143Y0048367D01*
X0185984Y0048606D01*
X0185831Y0048850D01*
X0185684Y0049097D01*
X0185544Y0049348D01*
X0185409Y0049603D01*
X0185281Y0049860D01*
X0185159Y0050120D01*
X0185043Y0050384D01*
X0184934Y0050650D01*
X0184831Y0050918D01*
X0184735Y0051189D01*
X0184645Y0051463D01*
X0184562Y0051738D01*
X0184486Y0052016D01*
X0184417Y0052295D01*
X0184354Y0052575D01*
X0184298Y0052858D01*
X0184250Y0053141D01*
X0184208Y0053426D01*
X0184173Y0053711D01*
X0184145Y0053997D01*
X0184124Y0054284D01*
X0184110Y0054572D01*
X0184103Y0054859D01*
X0184103Y0055147D01*
X0184110Y0055434D01*
X0184124Y0055722D01*
X0184145Y0056009D01*
X0184173Y0056295D01*
X0184208Y0056580D01*
X0184250Y0056865D01*
X0184298Y0057148D01*
X0184354Y0057431D01*
X0184417Y0057711D01*
X0184486Y0057990D01*
X0184562Y0058268D01*
X0184645Y0058543D01*
X0184735Y0058817D01*
X0184831Y0059088D01*
X0184934Y0059356D01*
X0185043Y0059622D01*
X0185159Y0059886D01*
X0185281Y0060146D01*
X0185409Y0060403D01*
X0185544Y0060658D01*
X0185684Y0060908D01*
X0185831Y0061156D01*
X0185984Y0061400D01*
X0186143Y0061639D01*
X0186307Y0061875D01*
X0186477Y0062107D01*
X0186653Y0062335D01*
X0186835Y0062558D01*
X0187021Y0062777D01*
X0187213Y0062991D01*
X0187410Y0063201D01*
X0187612Y0063405D01*
X0187819Y0063605D01*
X0188031Y0063800D01*
X0188248Y0063989D01*
X0188469Y0064173D01*
X0188694Y0064351D01*
X0188924Y0064524D01*
X0189158Y0064692D01*
X0189396Y0064853D01*
X0189638Y0065009D01*
X0189883Y0065159D01*
X0190132Y0065303D01*
X0190385Y0065440D01*
X0190641Y0065572D01*
X0190900Y0065697D01*
X0191162Y0065816D01*
X0191426Y0065929D01*
X0191694Y0066035D01*
X0191964Y0066134D01*
X0192236Y0066227D01*
X0192510Y0066313D01*
X0192787Y0066393D01*
X0193065Y0066465D01*
X0193345Y0066531D01*
X0193626Y0066591D01*
X0193909Y0066643D01*
X0194193Y0066688D01*
X0194478Y0066727D01*
X0194764Y0066758D01*
X0195051Y0066782D01*
X0195338Y0066800D01*
X0195625Y0066810D01*
X0195913Y0066814D01*
X0205756Y0031381D02*
X0213630Y0031381D01*
X0213754Y0031379D01*
X0213877Y0031373D01*
X0214001Y0031364D01*
X0214123Y0031350D01*
X0214246Y0031333D01*
X0214368Y0031311D01*
X0214489Y0031286D01*
X0214609Y0031257D01*
X0214728Y0031225D01*
X0214847Y0031188D01*
X0214964Y0031148D01*
X0215079Y0031105D01*
X0215194Y0031057D01*
X0215306Y0031006D01*
X0215417Y0030952D01*
X0215527Y0030894D01*
X0215634Y0030833D01*
X0215740Y0030768D01*
X0215843Y0030700D01*
X0215944Y0030629D01*
X0216043Y0030555D01*
X0216140Y0030478D01*
X0216234Y0030397D01*
X0216325Y0030314D01*
X0216414Y0030228D01*
X0216500Y0030139D01*
X0216583Y0030048D01*
X0216664Y0029954D01*
X0216741Y0029857D01*
X0216815Y0029758D01*
X0216886Y0029657D01*
X0216954Y0029554D01*
X0217019Y0029448D01*
X0217080Y0029341D01*
X0217138Y0029231D01*
X0217192Y0029120D01*
X0217243Y0029008D01*
X0217291Y0028893D01*
X0217334Y0028778D01*
X0217374Y0028661D01*
X0217411Y0028542D01*
X0217443Y0028423D01*
X0217472Y0028303D01*
X0217497Y0028182D01*
X0217519Y0028060D01*
X0217536Y0027937D01*
X0217550Y0027815D01*
X0217559Y0027691D01*
X0217565Y0027568D01*
X0217567Y0027444D01*
X0217565Y0027320D01*
X0217559Y0027197D01*
X0217550Y0027073D01*
X0217536Y0026951D01*
X0217519Y0026828D01*
X0217497Y0026706D01*
X0217472Y0026585D01*
X0217443Y0026465D01*
X0217411Y0026346D01*
X0217374Y0026227D01*
X0217334Y0026110D01*
X0217291Y0025995D01*
X0217243Y0025880D01*
X0217192Y0025768D01*
X0217138Y0025657D01*
X0217080Y0025547D01*
X0217019Y0025440D01*
X0216954Y0025334D01*
X0216886Y0025231D01*
X0216815Y0025130D01*
X0216741Y0025031D01*
X0216664Y0024934D01*
X0216583Y0024840D01*
X0216500Y0024749D01*
X0216414Y0024660D01*
X0216325Y0024574D01*
X0216234Y0024491D01*
X0216140Y0024410D01*
X0216043Y0024333D01*
X0215944Y0024259D01*
X0215843Y0024188D01*
X0215740Y0024120D01*
X0215634Y0024055D01*
X0215527Y0023994D01*
X0215417Y0023936D01*
X0215306Y0023882D01*
X0215194Y0023831D01*
X0215079Y0023783D01*
X0214964Y0023740D01*
X0214847Y0023700D01*
X0214728Y0023663D01*
X0214609Y0023631D01*
X0214489Y0023602D01*
X0214368Y0023577D01*
X0214246Y0023555D01*
X0214123Y0023538D01*
X0214001Y0023524D01*
X0213877Y0023515D01*
X0213754Y0023509D01*
X0213630Y0023507D01*
X0205756Y0023507D01*
X0205632Y0023509D01*
X0205509Y0023515D01*
X0205385Y0023524D01*
X0205263Y0023538D01*
X0205140Y0023555D01*
X0205018Y0023577D01*
X0204897Y0023602D01*
X0204777Y0023631D01*
X0204658Y0023663D01*
X0204539Y0023700D01*
X0204422Y0023740D01*
X0204307Y0023783D01*
X0204192Y0023831D01*
X0204080Y0023882D01*
X0203969Y0023936D01*
X0203859Y0023994D01*
X0203752Y0024055D01*
X0203646Y0024120D01*
X0203543Y0024188D01*
X0203442Y0024259D01*
X0203343Y0024333D01*
X0203246Y0024410D01*
X0203152Y0024491D01*
X0203061Y0024574D01*
X0202972Y0024660D01*
X0202886Y0024749D01*
X0202803Y0024840D01*
X0202722Y0024934D01*
X0202645Y0025031D01*
X0202571Y0025130D01*
X0202500Y0025231D01*
X0202432Y0025334D01*
X0202367Y0025440D01*
X0202306Y0025547D01*
X0202248Y0025657D01*
X0202194Y0025768D01*
X0202143Y0025880D01*
X0202095Y0025995D01*
X0202052Y0026110D01*
X0202012Y0026227D01*
X0201975Y0026346D01*
X0201943Y0026465D01*
X0201914Y0026585D01*
X0201889Y0026706D01*
X0201867Y0026828D01*
X0201850Y0026951D01*
X0201836Y0027073D01*
X0201827Y0027197D01*
X0201821Y0027320D01*
X0201819Y0027444D01*
X0201821Y0027568D01*
X0201827Y0027691D01*
X0201836Y0027815D01*
X0201850Y0027937D01*
X0201867Y0028060D01*
X0201889Y0028182D01*
X0201914Y0028303D01*
X0201943Y0028423D01*
X0201975Y0028542D01*
X0202012Y0028661D01*
X0202052Y0028778D01*
X0202095Y0028893D01*
X0202143Y0029008D01*
X0202194Y0029120D01*
X0202248Y0029231D01*
X0202306Y0029341D01*
X0202367Y0029448D01*
X0202432Y0029554D01*
X0202500Y0029657D01*
X0202571Y0029758D01*
X0202645Y0029857D01*
X0202722Y0029954D01*
X0202803Y0030048D01*
X0202886Y0030139D01*
X0202972Y0030228D01*
X0203061Y0030314D01*
X0203152Y0030397D01*
X0203246Y0030478D01*
X0203343Y0030555D01*
X0203442Y0030629D01*
X0203543Y0030700D01*
X0203646Y0030768D01*
X0203752Y0030833D01*
X0203859Y0030894D01*
X0203969Y0030952D01*
X0204080Y0031006D01*
X0204192Y0031057D01*
X0204307Y0031105D01*
X0204422Y0031148D01*
X0204539Y0031188D01*
X0204658Y0031225D01*
X0204777Y0031257D01*
X0204897Y0031286D01*
X0205018Y0031311D01*
X0205140Y0031333D01*
X0205263Y0031350D01*
X0205385Y0031364D01*
X0205509Y0031373D01*
X0205632Y0031379D01*
X0205756Y0031381D01*
D11*
X0135087Y0035318D03*
X0107134Y0035318D03*
D12*
X0069929Y0045003D03*
X0069929Y0065003D03*
X0138669Y0082562D03*
X0158669Y0082562D03*
X0172291Y0065003D03*
X0172291Y0045003D03*
D13*
X0121425Y0082562D03*
X0081425Y0082562D03*
D14*
X0010874Y0082562D03*
X0010874Y0027444D03*
X0231346Y0027444D03*
X0231346Y0082562D03*
D15*
X0203787Y0076656D02*
X0203939Y0076658D01*
X0204091Y0076664D01*
X0204243Y0076674D01*
X0204394Y0076687D01*
X0204545Y0076705D01*
X0204696Y0076726D01*
X0204846Y0076752D01*
X0204995Y0076781D01*
X0205144Y0076814D01*
X0205291Y0076851D01*
X0205438Y0076891D01*
X0205583Y0076936D01*
X0205727Y0076984D01*
X0205870Y0077036D01*
X0206012Y0077091D01*
X0206152Y0077150D01*
X0206291Y0077213D01*
X0206428Y0077279D01*
X0206563Y0077349D01*
X0206696Y0077422D01*
X0206827Y0077499D01*
X0206957Y0077579D01*
X0207084Y0077662D01*
X0207209Y0077748D01*
X0207332Y0077838D01*
X0207452Y0077931D01*
X0207570Y0078027D01*
X0207686Y0078126D01*
X0207799Y0078228D01*
X0207909Y0078332D01*
X0208017Y0078440D01*
X0208121Y0078550D01*
X0208223Y0078663D01*
X0208322Y0078779D01*
X0208418Y0078897D01*
X0208511Y0079017D01*
X0208601Y0079140D01*
X0208687Y0079265D01*
X0208770Y0079392D01*
X0208850Y0079522D01*
X0208927Y0079653D01*
X0209000Y0079786D01*
X0209070Y0079921D01*
X0209136Y0080058D01*
X0209199Y0080197D01*
X0209258Y0080337D01*
X0209313Y0080479D01*
X0209365Y0080622D01*
X0209413Y0080766D01*
X0209458Y0080911D01*
X0209498Y0081058D01*
X0209535Y0081205D01*
X0209568Y0081354D01*
X0209597Y0081503D01*
X0209623Y0081653D01*
X0209644Y0081804D01*
X0209662Y0081955D01*
X0209675Y0082106D01*
X0209685Y0082258D01*
X0209691Y0082410D01*
X0209693Y0082562D01*
X0209691Y0082714D01*
X0209685Y0082866D01*
X0209675Y0083018D01*
X0209662Y0083169D01*
X0209644Y0083320D01*
X0209623Y0083471D01*
X0209597Y0083621D01*
X0209568Y0083770D01*
X0209535Y0083919D01*
X0209498Y0084066D01*
X0209458Y0084213D01*
X0209413Y0084358D01*
X0209365Y0084502D01*
X0209313Y0084645D01*
X0209258Y0084787D01*
X0209199Y0084927D01*
X0209136Y0085066D01*
X0209070Y0085203D01*
X0209000Y0085338D01*
X0208927Y0085471D01*
X0208850Y0085602D01*
X0208770Y0085732D01*
X0208687Y0085859D01*
X0208601Y0085984D01*
X0208511Y0086107D01*
X0208418Y0086227D01*
X0208322Y0086345D01*
X0208223Y0086461D01*
X0208121Y0086574D01*
X0208017Y0086684D01*
X0207909Y0086792D01*
X0207799Y0086896D01*
X0207686Y0086998D01*
X0207570Y0087097D01*
X0207452Y0087193D01*
X0207332Y0087286D01*
X0207209Y0087376D01*
X0207084Y0087462D01*
X0206957Y0087545D01*
X0206827Y0087625D01*
X0206696Y0087702D01*
X0206563Y0087775D01*
X0206428Y0087845D01*
X0206291Y0087911D01*
X0206152Y0087974D01*
X0206012Y0088033D01*
X0205870Y0088088D01*
X0205727Y0088140D01*
X0205583Y0088188D01*
X0205438Y0088233D01*
X0205291Y0088273D01*
X0205144Y0088310D01*
X0204995Y0088343D01*
X0204846Y0088372D01*
X0204696Y0088398D01*
X0204545Y0088419D01*
X0204394Y0088437D01*
X0204243Y0088450D01*
X0204091Y0088460D01*
X0203939Y0088466D01*
X0203787Y0088468D01*
X0203787Y0088467D02*
X0191976Y0088467D01*
X0191976Y0088468D02*
X0191824Y0088466D01*
X0191672Y0088460D01*
X0191520Y0088450D01*
X0191369Y0088437D01*
X0191218Y0088419D01*
X0191067Y0088398D01*
X0190917Y0088372D01*
X0190768Y0088343D01*
X0190619Y0088310D01*
X0190472Y0088273D01*
X0190325Y0088233D01*
X0190180Y0088188D01*
X0190036Y0088140D01*
X0189893Y0088088D01*
X0189751Y0088033D01*
X0189611Y0087974D01*
X0189472Y0087911D01*
X0189335Y0087845D01*
X0189200Y0087775D01*
X0189067Y0087702D01*
X0188936Y0087625D01*
X0188806Y0087545D01*
X0188679Y0087462D01*
X0188554Y0087376D01*
X0188431Y0087286D01*
X0188311Y0087193D01*
X0188193Y0087097D01*
X0188077Y0086998D01*
X0187964Y0086896D01*
X0187854Y0086792D01*
X0187746Y0086684D01*
X0187642Y0086574D01*
X0187540Y0086461D01*
X0187441Y0086345D01*
X0187345Y0086227D01*
X0187252Y0086107D01*
X0187162Y0085984D01*
X0187076Y0085859D01*
X0186993Y0085732D01*
X0186913Y0085602D01*
X0186836Y0085471D01*
X0186763Y0085338D01*
X0186693Y0085203D01*
X0186627Y0085066D01*
X0186564Y0084927D01*
X0186505Y0084787D01*
X0186450Y0084645D01*
X0186398Y0084502D01*
X0186350Y0084358D01*
X0186305Y0084213D01*
X0186265Y0084066D01*
X0186228Y0083919D01*
X0186195Y0083770D01*
X0186166Y0083621D01*
X0186140Y0083471D01*
X0186119Y0083320D01*
X0186101Y0083169D01*
X0186088Y0083018D01*
X0186078Y0082866D01*
X0186072Y0082714D01*
X0186070Y0082562D01*
X0186072Y0082410D01*
X0186078Y0082258D01*
X0186088Y0082106D01*
X0186101Y0081955D01*
X0186119Y0081804D01*
X0186140Y0081653D01*
X0186166Y0081503D01*
X0186195Y0081354D01*
X0186228Y0081205D01*
X0186265Y0081058D01*
X0186305Y0080911D01*
X0186350Y0080766D01*
X0186398Y0080622D01*
X0186450Y0080479D01*
X0186505Y0080337D01*
X0186564Y0080197D01*
X0186627Y0080058D01*
X0186693Y0079921D01*
X0186763Y0079786D01*
X0186836Y0079653D01*
X0186913Y0079522D01*
X0186993Y0079392D01*
X0187076Y0079265D01*
X0187162Y0079140D01*
X0187252Y0079017D01*
X0187345Y0078897D01*
X0187441Y0078779D01*
X0187540Y0078663D01*
X0187642Y0078550D01*
X0187746Y0078440D01*
X0187854Y0078332D01*
X0187964Y0078228D01*
X0188077Y0078126D01*
X0188193Y0078027D01*
X0188311Y0077931D01*
X0188431Y0077838D01*
X0188554Y0077748D01*
X0188679Y0077662D01*
X0188806Y0077579D01*
X0188936Y0077499D01*
X0189067Y0077422D01*
X0189200Y0077349D01*
X0189335Y0077279D01*
X0189472Y0077213D01*
X0189611Y0077150D01*
X0189751Y0077091D01*
X0189893Y0077036D01*
X0190036Y0076984D01*
X0190180Y0076936D01*
X0190325Y0076891D01*
X0190472Y0076851D01*
X0190619Y0076814D01*
X0190768Y0076781D01*
X0190917Y0076752D01*
X0191067Y0076726D01*
X0191218Y0076705D01*
X0191369Y0076687D01*
X0191520Y0076674D01*
X0191672Y0076664D01*
X0191824Y0076658D01*
X0191976Y0076656D01*
X0203787Y0076656D01*
X0203787Y0033349D02*
X0215598Y0033349D01*
X0215598Y0033350D02*
X0215750Y0033348D01*
X0215902Y0033342D01*
X0216054Y0033332D01*
X0216205Y0033319D01*
X0216356Y0033301D01*
X0216507Y0033280D01*
X0216657Y0033254D01*
X0216806Y0033225D01*
X0216955Y0033192D01*
X0217102Y0033155D01*
X0217249Y0033115D01*
X0217394Y0033070D01*
X0217538Y0033022D01*
X0217681Y0032970D01*
X0217823Y0032915D01*
X0217963Y0032856D01*
X0218102Y0032793D01*
X0218239Y0032727D01*
X0218374Y0032657D01*
X0218507Y0032584D01*
X0218638Y0032507D01*
X0218768Y0032427D01*
X0218895Y0032344D01*
X0219020Y0032258D01*
X0219143Y0032168D01*
X0219263Y0032075D01*
X0219381Y0031979D01*
X0219497Y0031880D01*
X0219610Y0031778D01*
X0219720Y0031674D01*
X0219828Y0031566D01*
X0219932Y0031456D01*
X0220034Y0031343D01*
X0220133Y0031227D01*
X0220229Y0031109D01*
X0220322Y0030989D01*
X0220412Y0030866D01*
X0220498Y0030741D01*
X0220581Y0030614D01*
X0220661Y0030484D01*
X0220738Y0030353D01*
X0220811Y0030220D01*
X0220881Y0030085D01*
X0220947Y0029948D01*
X0221010Y0029809D01*
X0221069Y0029669D01*
X0221124Y0029527D01*
X0221176Y0029384D01*
X0221224Y0029240D01*
X0221269Y0029095D01*
X0221309Y0028948D01*
X0221346Y0028801D01*
X0221379Y0028652D01*
X0221408Y0028503D01*
X0221434Y0028353D01*
X0221455Y0028202D01*
X0221473Y0028051D01*
X0221486Y0027900D01*
X0221496Y0027748D01*
X0221502Y0027596D01*
X0221504Y0027444D01*
X0221502Y0027292D01*
X0221496Y0027140D01*
X0221486Y0026988D01*
X0221473Y0026837D01*
X0221455Y0026686D01*
X0221434Y0026535D01*
X0221408Y0026385D01*
X0221379Y0026236D01*
X0221346Y0026087D01*
X0221309Y0025940D01*
X0221269Y0025793D01*
X0221224Y0025648D01*
X0221176Y0025504D01*
X0221124Y0025361D01*
X0221069Y0025219D01*
X0221010Y0025079D01*
X0220947Y0024940D01*
X0220881Y0024803D01*
X0220811Y0024668D01*
X0220738Y0024535D01*
X0220661Y0024404D01*
X0220581Y0024274D01*
X0220498Y0024147D01*
X0220412Y0024022D01*
X0220322Y0023899D01*
X0220229Y0023779D01*
X0220133Y0023661D01*
X0220034Y0023545D01*
X0219932Y0023432D01*
X0219828Y0023322D01*
X0219720Y0023214D01*
X0219610Y0023110D01*
X0219497Y0023008D01*
X0219381Y0022909D01*
X0219263Y0022813D01*
X0219143Y0022720D01*
X0219020Y0022630D01*
X0218895Y0022544D01*
X0218768Y0022461D01*
X0218638Y0022381D01*
X0218507Y0022304D01*
X0218374Y0022231D01*
X0218239Y0022161D01*
X0218102Y0022095D01*
X0217963Y0022032D01*
X0217823Y0021973D01*
X0217681Y0021918D01*
X0217538Y0021866D01*
X0217394Y0021818D01*
X0217249Y0021773D01*
X0217102Y0021733D01*
X0216955Y0021696D01*
X0216806Y0021663D01*
X0216657Y0021634D01*
X0216507Y0021608D01*
X0216356Y0021587D01*
X0216205Y0021569D01*
X0216054Y0021556D01*
X0215902Y0021546D01*
X0215750Y0021540D01*
X0215598Y0021538D01*
X0203787Y0021538D01*
X0203635Y0021540D01*
X0203483Y0021546D01*
X0203331Y0021556D01*
X0203180Y0021569D01*
X0203029Y0021587D01*
X0202878Y0021608D01*
X0202728Y0021634D01*
X0202579Y0021663D01*
X0202430Y0021696D01*
X0202283Y0021733D01*
X0202136Y0021773D01*
X0201991Y0021818D01*
X0201847Y0021866D01*
X0201704Y0021918D01*
X0201562Y0021973D01*
X0201422Y0022032D01*
X0201283Y0022095D01*
X0201146Y0022161D01*
X0201011Y0022231D01*
X0200878Y0022304D01*
X0200747Y0022381D01*
X0200617Y0022461D01*
X0200490Y0022544D01*
X0200365Y0022630D01*
X0200242Y0022720D01*
X0200122Y0022813D01*
X0200004Y0022909D01*
X0199888Y0023008D01*
X0199775Y0023110D01*
X0199665Y0023214D01*
X0199557Y0023322D01*
X0199453Y0023432D01*
X0199351Y0023545D01*
X0199252Y0023661D01*
X0199156Y0023779D01*
X0199063Y0023899D01*
X0198973Y0024022D01*
X0198887Y0024147D01*
X0198804Y0024274D01*
X0198724Y0024404D01*
X0198647Y0024535D01*
X0198574Y0024668D01*
X0198504Y0024803D01*
X0198438Y0024940D01*
X0198375Y0025079D01*
X0198316Y0025219D01*
X0198261Y0025361D01*
X0198209Y0025504D01*
X0198161Y0025648D01*
X0198116Y0025793D01*
X0198076Y0025940D01*
X0198039Y0026087D01*
X0198006Y0026236D01*
X0197977Y0026385D01*
X0197951Y0026535D01*
X0197930Y0026686D01*
X0197912Y0026837D01*
X0197899Y0026988D01*
X0197889Y0027140D01*
X0197883Y0027292D01*
X0197881Y0027444D01*
X0197883Y0027596D01*
X0197889Y0027748D01*
X0197899Y0027900D01*
X0197912Y0028051D01*
X0197930Y0028202D01*
X0197951Y0028353D01*
X0197977Y0028503D01*
X0198006Y0028652D01*
X0198039Y0028801D01*
X0198076Y0028948D01*
X0198116Y0029095D01*
X0198161Y0029240D01*
X0198209Y0029384D01*
X0198261Y0029527D01*
X0198316Y0029669D01*
X0198375Y0029809D01*
X0198438Y0029948D01*
X0198504Y0030085D01*
X0198574Y0030220D01*
X0198647Y0030353D01*
X0198724Y0030484D01*
X0198804Y0030614D01*
X0198887Y0030741D01*
X0198973Y0030866D01*
X0199063Y0030989D01*
X0199156Y0031109D01*
X0199252Y0031227D01*
X0199351Y0031343D01*
X0199453Y0031456D01*
X0199557Y0031566D01*
X0199665Y0031674D01*
X0199775Y0031778D01*
X0199888Y0031880D01*
X0200004Y0031979D01*
X0200122Y0032075D01*
X0200242Y0032168D01*
X0200365Y0032258D01*
X0200490Y0032344D01*
X0200617Y0032427D01*
X0200747Y0032507D01*
X0200878Y0032584D01*
X0201011Y0032657D01*
X0201146Y0032727D01*
X0201283Y0032793D01*
X0201422Y0032856D01*
X0201562Y0032915D01*
X0201704Y0032970D01*
X0201847Y0033022D01*
X0201991Y0033070D01*
X0202136Y0033115D01*
X0202283Y0033155D01*
X0202430Y0033192D01*
X0202579Y0033225D01*
X0202728Y0033254D01*
X0202878Y0033280D01*
X0203029Y0033301D01*
X0203180Y0033319D01*
X0203331Y0033332D01*
X0203483Y0033342D01*
X0203635Y0033348D01*
X0203787Y0033350D01*
X0046307Y0033349D02*
X0034496Y0033349D01*
X0034496Y0033350D02*
X0034344Y0033348D01*
X0034192Y0033342D01*
X0034040Y0033332D01*
X0033889Y0033319D01*
X0033738Y0033301D01*
X0033587Y0033280D01*
X0033437Y0033254D01*
X0033288Y0033225D01*
X0033139Y0033192D01*
X0032992Y0033155D01*
X0032845Y0033115D01*
X0032700Y0033070D01*
X0032556Y0033022D01*
X0032413Y0032970D01*
X0032271Y0032915D01*
X0032131Y0032856D01*
X0031992Y0032793D01*
X0031855Y0032727D01*
X0031720Y0032657D01*
X0031587Y0032584D01*
X0031456Y0032507D01*
X0031326Y0032427D01*
X0031199Y0032344D01*
X0031074Y0032258D01*
X0030951Y0032168D01*
X0030831Y0032075D01*
X0030713Y0031979D01*
X0030597Y0031880D01*
X0030484Y0031778D01*
X0030374Y0031674D01*
X0030266Y0031566D01*
X0030162Y0031456D01*
X0030060Y0031343D01*
X0029961Y0031227D01*
X0029865Y0031109D01*
X0029772Y0030989D01*
X0029682Y0030866D01*
X0029596Y0030741D01*
X0029513Y0030614D01*
X0029433Y0030484D01*
X0029356Y0030353D01*
X0029283Y0030220D01*
X0029213Y0030085D01*
X0029147Y0029948D01*
X0029084Y0029809D01*
X0029025Y0029669D01*
X0028970Y0029527D01*
X0028918Y0029384D01*
X0028870Y0029240D01*
X0028825Y0029095D01*
X0028785Y0028948D01*
X0028748Y0028801D01*
X0028715Y0028652D01*
X0028686Y0028503D01*
X0028660Y0028353D01*
X0028639Y0028202D01*
X0028621Y0028051D01*
X0028608Y0027900D01*
X0028598Y0027748D01*
X0028592Y0027596D01*
X0028590Y0027444D01*
X0028592Y0027292D01*
X0028598Y0027140D01*
X0028608Y0026988D01*
X0028621Y0026837D01*
X0028639Y0026686D01*
X0028660Y0026535D01*
X0028686Y0026385D01*
X0028715Y0026236D01*
X0028748Y0026087D01*
X0028785Y0025940D01*
X0028825Y0025793D01*
X0028870Y0025648D01*
X0028918Y0025504D01*
X0028970Y0025361D01*
X0029025Y0025219D01*
X0029084Y0025079D01*
X0029147Y0024940D01*
X0029213Y0024803D01*
X0029283Y0024668D01*
X0029356Y0024535D01*
X0029433Y0024404D01*
X0029513Y0024274D01*
X0029596Y0024147D01*
X0029682Y0024022D01*
X0029772Y0023899D01*
X0029865Y0023779D01*
X0029961Y0023661D01*
X0030060Y0023545D01*
X0030162Y0023432D01*
X0030266Y0023322D01*
X0030374Y0023214D01*
X0030484Y0023110D01*
X0030597Y0023008D01*
X0030713Y0022909D01*
X0030831Y0022813D01*
X0030951Y0022720D01*
X0031074Y0022630D01*
X0031199Y0022544D01*
X0031326Y0022461D01*
X0031456Y0022381D01*
X0031587Y0022304D01*
X0031720Y0022231D01*
X0031855Y0022161D01*
X0031992Y0022095D01*
X0032131Y0022032D01*
X0032271Y0021973D01*
X0032413Y0021918D01*
X0032556Y0021866D01*
X0032700Y0021818D01*
X0032845Y0021773D01*
X0032992Y0021733D01*
X0033139Y0021696D01*
X0033288Y0021663D01*
X0033437Y0021634D01*
X0033587Y0021608D01*
X0033738Y0021587D01*
X0033889Y0021569D01*
X0034040Y0021556D01*
X0034192Y0021546D01*
X0034344Y0021540D01*
X0034496Y0021538D01*
X0046307Y0021538D01*
X0046459Y0021540D01*
X0046611Y0021546D01*
X0046763Y0021556D01*
X0046914Y0021569D01*
X0047065Y0021587D01*
X0047216Y0021608D01*
X0047366Y0021634D01*
X0047515Y0021663D01*
X0047664Y0021696D01*
X0047811Y0021733D01*
X0047958Y0021773D01*
X0048103Y0021818D01*
X0048247Y0021866D01*
X0048390Y0021918D01*
X0048532Y0021973D01*
X0048672Y0022032D01*
X0048811Y0022095D01*
X0048948Y0022161D01*
X0049083Y0022231D01*
X0049216Y0022304D01*
X0049347Y0022381D01*
X0049477Y0022461D01*
X0049604Y0022544D01*
X0049729Y0022630D01*
X0049852Y0022720D01*
X0049972Y0022813D01*
X0050090Y0022909D01*
X0050206Y0023008D01*
X0050319Y0023110D01*
X0050429Y0023214D01*
X0050537Y0023322D01*
X0050641Y0023432D01*
X0050743Y0023545D01*
X0050842Y0023661D01*
X0050938Y0023779D01*
X0051031Y0023899D01*
X0051121Y0024022D01*
X0051207Y0024147D01*
X0051290Y0024274D01*
X0051370Y0024404D01*
X0051447Y0024535D01*
X0051520Y0024668D01*
X0051590Y0024803D01*
X0051656Y0024940D01*
X0051719Y0025079D01*
X0051778Y0025219D01*
X0051833Y0025361D01*
X0051885Y0025504D01*
X0051933Y0025648D01*
X0051978Y0025793D01*
X0052018Y0025940D01*
X0052055Y0026087D01*
X0052088Y0026236D01*
X0052117Y0026385D01*
X0052143Y0026535D01*
X0052164Y0026686D01*
X0052182Y0026837D01*
X0052195Y0026988D01*
X0052205Y0027140D01*
X0052211Y0027292D01*
X0052213Y0027444D01*
X0052211Y0027596D01*
X0052205Y0027748D01*
X0052195Y0027900D01*
X0052182Y0028051D01*
X0052164Y0028202D01*
X0052143Y0028353D01*
X0052117Y0028503D01*
X0052088Y0028652D01*
X0052055Y0028801D01*
X0052018Y0028948D01*
X0051978Y0029095D01*
X0051933Y0029240D01*
X0051885Y0029384D01*
X0051833Y0029527D01*
X0051778Y0029669D01*
X0051719Y0029809D01*
X0051656Y0029948D01*
X0051590Y0030085D01*
X0051520Y0030220D01*
X0051447Y0030353D01*
X0051370Y0030484D01*
X0051290Y0030614D01*
X0051207Y0030741D01*
X0051121Y0030866D01*
X0051031Y0030989D01*
X0050938Y0031109D01*
X0050842Y0031227D01*
X0050743Y0031343D01*
X0050641Y0031456D01*
X0050537Y0031566D01*
X0050429Y0031674D01*
X0050319Y0031778D01*
X0050206Y0031880D01*
X0050090Y0031979D01*
X0049972Y0032075D01*
X0049852Y0032168D01*
X0049729Y0032258D01*
X0049604Y0032344D01*
X0049477Y0032427D01*
X0049347Y0032507D01*
X0049216Y0032584D01*
X0049083Y0032657D01*
X0048948Y0032727D01*
X0048811Y0032793D01*
X0048672Y0032856D01*
X0048532Y0032915D01*
X0048390Y0032970D01*
X0048247Y0033022D01*
X0048103Y0033070D01*
X0047958Y0033115D01*
X0047811Y0033155D01*
X0047664Y0033192D01*
X0047515Y0033225D01*
X0047366Y0033254D01*
X0047216Y0033280D01*
X0047065Y0033301D01*
X0046914Y0033319D01*
X0046763Y0033332D01*
X0046611Y0033342D01*
X0046459Y0033348D01*
X0046307Y0033350D01*
X0034496Y0076656D02*
X0022685Y0076656D01*
X0022533Y0076658D01*
X0022381Y0076664D01*
X0022229Y0076674D01*
X0022078Y0076687D01*
X0021927Y0076705D01*
X0021776Y0076726D01*
X0021626Y0076752D01*
X0021477Y0076781D01*
X0021328Y0076814D01*
X0021181Y0076851D01*
X0021034Y0076891D01*
X0020889Y0076936D01*
X0020745Y0076984D01*
X0020602Y0077036D01*
X0020460Y0077091D01*
X0020320Y0077150D01*
X0020181Y0077213D01*
X0020044Y0077279D01*
X0019909Y0077349D01*
X0019776Y0077422D01*
X0019645Y0077499D01*
X0019515Y0077579D01*
X0019388Y0077662D01*
X0019263Y0077748D01*
X0019140Y0077838D01*
X0019020Y0077931D01*
X0018902Y0078027D01*
X0018786Y0078126D01*
X0018673Y0078228D01*
X0018563Y0078332D01*
X0018455Y0078440D01*
X0018351Y0078550D01*
X0018249Y0078663D01*
X0018150Y0078779D01*
X0018054Y0078897D01*
X0017961Y0079017D01*
X0017871Y0079140D01*
X0017785Y0079265D01*
X0017702Y0079392D01*
X0017622Y0079522D01*
X0017545Y0079653D01*
X0017472Y0079786D01*
X0017402Y0079921D01*
X0017336Y0080058D01*
X0017273Y0080197D01*
X0017214Y0080337D01*
X0017159Y0080479D01*
X0017107Y0080622D01*
X0017059Y0080766D01*
X0017014Y0080911D01*
X0016974Y0081058D01*
X0016937Y0081205D01*
X0016904Y0081354D01*
X0016875Y0081503D01*
X0016849Y0081653D01*
X0016828Y0081804D01*
X0016810Y0081955D01*
X0016797Y0082106D01*
X0016787Y0082258D01*
X0016781Y0082410D01*
X0016779Y0082562D01*
X0016781Y0082714D01*
X0016787Y0082866D01*
X0016797Y0083018D01*
X0016810Y0083169D01*
X0016828Y0083320D01*
X0016849Y0083471D01*
X0016875Y0083621D01*
X0016904Y0083770D01*
X0016937Y0083919D01*
X0016974Y0084066D01*
X0017014Y0084213D01*
X0017059Y0084358D01*
X0017107Y0084502D01*
X0017159Y0084645D01*
X0017214Y0084787D01*
X0017273Y0084927D01*
X0017336Y0085066D01*
X0017402Y0085203D01*
X0017472Y0085338D01*
X0017545Y0085471D01*
X0017622Y0085602D01*
X0017702Y0085732D01*
X0017785Y0085859D01*
X0017871Y0085984D01*
X0017961Y0086107D01*
X0018054Y0086227D01*
X0018150Y0086345D01*
X0018249Y0086461D01*
X0018351Y0086574D01*
X0018455Y0086684D01*
X0018563Y0086792D01*
X0018673Y0086896D01*
X0018786Y0086998D01*
X0018902Y0087097D01*
X0019020Y0087193D01*
X0019140Y0087286D01*
X0019263Y0087376D01*
X0019388Y0087462D01*
X0019515Y0087545D01*
X0019645Y0087625D01*
X0019776Y0087702D01*
X0019909Y0087775D01*
X0020044Y0087845D01*
X0020181Y0087911D01*
X0020320Y0087974D01*
X0020460Y0088033D01*
X0020602Y0088088D01*
X0020745Y0088140D01*
X0020889Y0088188D01*
X0021034Y0088233D01*
X0021181Y0088273D01*
X0021328Y0088310D01*
X0021477Y0088343D01*
X0021626Y0088372D01*
X0021776Y0088398D01*
X0021927Y0088419D01*
X0022078Y0088437D01*
X0022229Y0088450D01*
X0022381Y0088460D01*
X0022533Y0088466D01*
X0022685Y0088468D01*
X0022685Y0088467D02*
X0034496Y0088467D01*
X0034496Y0088468D02*
X0034648Y0088466D01*
X0034800Y0088460D01*
X0034952Y0088450D01*
X0035103Y0088437D01*
X0035254Y0088419D01*
X0035405Y0088398D01*
X0035555Y0088372D01*
X0035704Y0088343D01*
X0035853Y0088310D01*
X0036000Y0088273D01*
X0036147Y0088233D01*
X0036292Y0088188D01*
X0036436Y0088140D01*
X0036579Y0088088D01*
X0036721Y0088033D01*
X0036861Y0087974D01*
X0037000Y0087911D01*
X0037137Y0087845D01*
X0037272Y0087775D01*
X0037405Y0087702D01*
X0037536Y0087625D01*
X0037666Y0087545D01*
X0037793Y0087462D01*
X0037918Y0087376D01*
X0038041Y0087286D01*
X0038161Y0087193D01*
X0038279Y0087097D01*
X0038395Y0086998D01*
X0038508Y0086896D01*
X0038618Y0086792D01*
X0038726Y0086684D01*
X0038830Y0086574D01*
X0038932Y0086461D01*
X0039031Y0086345D01*
X0039127Y0086227D01*
X0039220Y0086107D01*
X0039310Y0085984D01*
X0039396Y0085859D01*
X0039479Y0085732D01*
X0039559Y0085602D01*
X0039636Y0085471D01*
X0039709Y0085338D01*
X0039779Y0085203D01*
X0039845Y0085066D01*
X0039908Y0084927D01*
X0039967Y0084787D01*
X0040022Y0084645D01*
X0040074Y0084502D01*
X0040122Y0084358D01*
X0040167Y0084213D01*
X0040207Y0084066D01*
X0040244Y0083919D01*
X0040277Y0083770D01*
X0040306Y0083621D01*
X0040332Y0083471D01*
X0040353Y0083320D01*
X0040371Y0083169D01*
X0040384Y0083018D01*
X0040394Y0082866D01*
X0040400Y0082714D01*
X0040402Y0082562D01*
X0040400Y0082410D01*
X0040394Y0082258D01*
X0040384Y0082106D01*
X0040371Y0081955D01*
X0040353Y0081804D01*
X0040332Y0081653D01*
X0040306Y0081503D01*
X0040277Y0081354D01*
X0040244Y0081205D01*
X0040207Y0081058D01*
X0040167Y0080911D01*
X0040122Y0080766D01*
X0040074Y0080622D01*
X0040022Y0080479D01*
X0039967Y0080337D01*
X0039908Y0080197D01*
X0039845Y0080058D01*
X0039779Y0079921D01*
X0039709Y0079786D01*
X0039636Y0079653D01*
X0039559Y0079522D01*
X0039479Y0079392D01*
X0039396Y0079265D01*
X0039310Y0079140D01*
X0039220Y0079017D01*
X0039127Y0078897D01*
X0039031Y0078779D01*
X0038932Y0078663D01*
X0038830Y0078550D01*
X0038726Y0078440D01*
X0038618Y0078332D01*
X0038508Y0078228D01*
X0038395Y0078126D01*
X0038279Y0078027D01*
X0038161Y0077931D01*
X0038041Y0077838D01*
X0037918Y0077748D01*
X0037793Y0077662D01*
X0037666Y0077579D01*
X0037536Y0077499D01*
X0037405Y0077422D01*
X0037272Y0077349D01*
X0037137Y0077279D01*
X0037000Y0077213D01*
X0036861Y0077150D01*
X0036721Y0077091D01*
X0036579Y0077036D01*
X0036436Y0076984D01*
X0036292Y0076936D01*
X0036147Y0076891D01*
X0036000Y0076851D01*
X0035853Y0076814D01*
X0035704Y0076781D01*
X0035555Y0076752D01*
X0035405Y0076726D01*
X0035254Y0076705D01*
X0035103Y0076687D01*
X0034952Y0076674D01*
X0034800Y0076664D01*
X0034648Y0076658D01*
X0034496Y0076656D01*
D16*
X0034496Y0082562D02*
X0022685Y0082562D01*
X0034496Y0027444D02*
X0046307Y0027444D01*
X0191976Y0082562D02*
X0203787Y0082562D01*
X0203787Y0027444D02*
X0215598Y0027444D01*
D17*
X0160480Y0023507D03*
X0081740Y0023507D03*
D18*
X0072540Y0023678D02*
X0052684Y0023678D01*
X0052478Y0023320D02*
X0052963Y0024161D01*
X0053335Y0025058D01*
X0053586Y0025996D01*
X0053711Y0026944D01*
X0052776Y0026944D01*
X0052776Y0027944D01*
X0053711Y0027944D01*
X0053586Y0028891D01*
X0053335Y0029829D01*
X0052963Y0030726D01*
X0052478Y0031567D01*
X0051887Y0032337D01*
X0051200Y0033023D01*
X0050430Y0033614D01*
X0049648Y0034066D01*
X0049118Y0034596D01*
X0049118Y0034596D01*
X0046017Y0035881D01*
X0034786Y0035881D01*
X0031685Y0034596D01*
X0031155Y0034066D01*
X0030373Y0033614D01*
X0029603Y0033023D01*
X0028916Y0032337D01*
X0028325Y0031567D01*
X0027840Y0030726D01*
X0027469Y0029829D01*
X0027217Y0028891D01*
X0027092Y0027944D01*
X0028028Y0027944D01*
X0028028Y0026944D01*
X0027092Y0026944D01*
X0027217Y0025996D01*
X0027469Y0025058D01*
X0027840Y0024161D01*
X0028325Y0023320D01*
X0028916Y0022550D01*
X0029603Y0021864D01*
X0030373Y0021273D01*
X0031155Y0020821D01*
X0031685Y0020291D01*
X0031685Y0020291D01*
X0034786Y0019007D01*
X0037360Y0019007D01*
X0043443Y0019007D01*
X0046017Y0019007D01*
X0049118Y0020291D01*
X0049648Y0020821D01*
X0050430Y0021273D01*
X0051200Y0021864D01*
X0051887Y0022550D01*
X0052478Y0023320D01*
X0051986Y0022679D02*
X0072540Y0022679D01*
X0072540Y0021681D02*
X0050962Y0021681D01*
X0049509Y0020682D02*
X0072540Y0020682D01*
X0072540Y0019696D02*
X0076040Y0016196D01*
X0007500Y0016196D01*
X0007500Y0021216D01*
X0007795Y0021046D01*
X0008177Y0020944D01*
X0010374Y0020944D01*
X0010374Y0026944D01*
X0011374Y0026944D01*
X0011374Y0027944D01*
X0010374Y0027944D01*
X0010374Y0033944D01*
X0008177Y0033944D01*
X0007795Y0033841D01*
X0007500Y0033671D01*
X0007500Y0076032D01*
X0007670Y0075862D01*
X0014078Y0075862D01*
X0015074Y0076858D01*
X0015074Y0080362D01*
X0015364Y0080362D01*
X0016237Y0078253D01*
X0018377Y0076114D01*
X0019730Y0075554D01*
X0019874Y0075409D01*
X0019874Y0075409D01*
X0022975Y0074125D01*
X0023758Y0074125D01*
X0034206Y0074125D01*
X0037307Y0075409D01*
X0037451Y0075554D01*
X0038804Y0076114D01*
X0040944Y0078253D01*
X0042102Y0081049D01*
X0042102Y0084075D01*
X0040944Y0086870D01*
X0038804Y0089009D01*
X0037451Y0089570D01*
X0037307Y0089714D01*
X0034206Y0090999D01*
X0022975Y0090999D01*
X0019874Y0089714D01*
X0019730Y0089570D01*
X0018377Y0089009D01*
X0016237Y0086870D01*
X0015364Y0084762D01*
X0015074Y0084762D01*
X0015074Y0088266D01*
X0014078Y0089262D01*
X0007670Y0089262D01*
X0007500Y0089092D01*
X0007500Y0097747D01*
X0234720Y0097747D01*
X0234720Y0089092D01*
X0234551Y0089262D01*
X0228142Y0089262D01*
X0227146Y0088266D01*
X0227146Y0084762D01*
X0211108Y0084762D01*
X0210235Y0086870D01*
X0208096Y0089009D01*
X0206743Y0089570D01*
X0206598Y0089714D01*
X0203497Y0090999D01*
X0192267Y0090999D01*
X0189166Y0089714D01*
X0189166Y0089714D01*
X0189021Y0089570D01*
X0187668Y0089009D01*
X0185529Y0086870D01*
X0184371Y0084075D01*
X0184371Y0081049D01*
X0185529Y0078253D01*
X0187668Y0076114D01*
X0189021Y0075554D01*
X0189166Y0075409D01*
X0192267Y0074125D01*
X0203497Y0074125D01*
X0206598Y0075409D01*
X0206743Y0075554D01*
X0208096Y0076114D01*
X0210235Y0078253D01*
X0211108Y0080362D01*
X0227146Y0080362D01*
X0227146Y0076858D01*
X0228142Y0075862D01*
X0234551Y0075862D01*
X0234720Y0076032D01*
X0234720Y0033671D01*
X0234425Y0033841D01*
X0234044Y0033944D01*
X0231846Y0033944D01*
X0231846Y0027944D01*
X0230846Y0027944D01*
X0230846Y0033944D01*
X0228649Y0033944D01*
X0228267Y0033841D01*
X0227925Y0033644D01*
X0227646Y0033365D01*
X0227449Y0033023D01*
X0227346Y0032641D01*
X0227346Y0027944D01*
X0230846Y0027944D01*
X0230846Y0026944D01*
X0227346Y0026944D01*
X0227346Y0022246D01*
X0227449Y0021865D01*
X0227646Y0021523D01*
X0227925Y0021243D01*
X0228267Y0021046D01*
X0228649Y0020944D01*
X0230846Y0020944D01*
X0230846Y0026944D01*
X0231846Y0026944D01*
X0231846Y0020944D01*
X0234044Y0020944D01*
X0234425Y0021046D01*
X0234720Y0021216D01*
X0234720Y0016196D01*
X0165897Y0016196D01*
X0169480Y0019779D01*
X0169480Y0023007D01*
X0160980Y0023007D01*
X0160980Y0024007D01*
X0159980Y0024007D01*
X0159980Y0032507D01*
X0156752Y0032507D01*
X0151480Y0027234D01*
X0151480Y0024007D01*
X0159980Y0024007D01*
X0159980Y0023007D01*
X0151480Y0023007D01*
X0151480Y0019779D01*
X0155063Y0016196D01*
X0087440Y0016196D01*
X0090940Y0019696D01*
X0090940Y0027317D01*
X0085551Y0032707D01*
X0077929Y0032707D01*
X0072540Y0027317D01*
X0072540Y0019696D01*
X0072552Y0019684D02*
X0047651Y0019684D01*
X0049118Y0020291D02*
X0049118Y0020291D01*
X0053176Y0024676D02*
X0072540Y0024676D01*
X0072540Y0025675D02*
X0053500Y0025675D01*
X0053675Y0026673D02*
X0072540Y0026673D01*
X0072895Y0027672D02*
X0052776Y0027672D01*
X0053615Y0028670D02*
X0073893Y0028670D01*
X0074892Y0029669D02*
X0053378Y0029669D01*
X0052987Y0030667D02*
X0075890Y0030667D01*
X0076889Y0031666D02*
X0052402Y0031666D01*
X0051559Y0032664D02*
X0077887Y0032664D01*
X0085593Y0032664D02*
X0095149Y0032664D01*
X0095417Y0031666D02*
X0086592Y0031666D01*
X0087590Y0030667D02*
X0095684Y0030667D01*
X0095707Y0030584D02*
X0097321Y0027788D01*
X0099604Y0025505D01*
X0102401Y0023890D01*
X0105519Y0023055D01*
X0108748Y0023055D01*
X0111867Y0023890D01*
X0114664Y0025505D01*
X0116947Y0027788D01*
X0118561Y0030584D01*
X0119397Y0033703D01*
X0119397Y0036932D01*
X0118561Y0040051D01*
X0116947Y0042847D01*
X0114664Y0045130D01*
X0111867Y0046745D01*
X0108748Y0047581D01*
X0105519Y0047581D01*
X0102401Y0046745D01*
X0099604Y0045130D01*
X0097321Y0042847D01*
X0095707Y0040051D01*
X0094871Y0036932D01*
X0094871Y0033703D01*
X0095707Y0030584D01*
X0096235Y0029669D02*
X0088589Y0029669D01*
X0089587Y0028670D02*
X0096812Y0028670D01*
X0097437Y0027672D02*
X0090586Y0027672D01*
X0090940Y0026673D02*
X0098436Y0026673D01*
X0099434Y0025675D02*
X0090940Y0025675D01*
X0090940Y0024676D02*
X0101039Y0024676D01*
X0103194Y0023678D02*
X0090940Y0023678D01*
X0090940Y0022679D02*
X0151480Y0022679D01*
X0151480Y0021681D02*
X0090940Y0021681D01*
X0090940Y0020682D02*
X0151480Y0020682D01*
X0151575Y0019684D02*
X0090928Y0019684D01*
X0089929Y0018685D02*
X0152574Y0018685D01*
X0153572Y0017687D02*
X0088931Y0017687D01*
X0087932Y0016688D02*
X0154571Y0016688D01*
X0166390Y0016688D02*
X0234720Y0016688D01*
X0234720Y0017687D02*
X0167388Y0017687D01*
X0168387Y0018685D02*
X0234720Y0018685D01*
X0234720Y0019684D02*
X0216943Y0019684D01*
X0218409Y0020291D02*
X0218409Y0020291D01*
X0215308Y0019007D01*
X0204861Y0019007D01*
X0204078Y0019007D01*
X0200977Y0020291D01*
X0200446Y0020821D01*
X0199664Y0021273D01*
X0198894Y0021864D01*
X0198208Y0022550D01*
X0197617Y0023320D01*
X0197131Y0024161D01*
X0196760Y0025058D01*
X0196509Y0025996D01*
X0196384Y0026944D01*
X0197319Y0026944D01*
X0197319Y0027944D01*
X0196384Y0027944D01*
X0196509Y0028891D01*
X0196760Y0029829D01*
X0197131Y0030726D01*
X0197617Y0031567D01*
X0198208Y0032337D01*
X0198894Y0033023D01*
X0199664Y0033614D01*
X0200446Y0034066D01*
X0200977Y0034596D01*
X0200977Y0034596D01*
X0204078Y0035881D01*
X0215308Y0035881D01*
X0218409Y0034596D01*
X0218409Y0034596D01*
X0218939Y0034066D01*
X0219722Y0033614D01*
X0220492Y0033023D01*
X0221178Y0032337D01*
X0221769Y0031567D01*
X0222254Y0030726D01*
X0222626Y0029829D01*
X0222877Y0028891D01*
X0223002Y0027944D01*
X0222067Y0027944D01*
X0222067Y0026944D01*
X0223002Y0026944D01*
X0222877Y0025996D01*
X0222626Y0025058D01*
X0222254Y0024161D01*
X0221769Y0023320D01*
X0221178Y0022550D01*
X0220492Y0021864D01*
X0219722Y0021273D01*
X0218939Y0020821D01*
X0218409Y0020291D01*
X0218800Y0020682D02*
X0234720Y0020682D01*
X0231846Y0021681D02*
X0230846Y0021681D01*
X0230846Y0022679D02*
X0231846Y0022679D01*
X0231846Y0023678D02*
X0230846Y0023678D01*
X0230846Y0024676D02*
X0231846Y0024676D01*
X0231846Y0025675D02*
X0230846Y0025675D01*
X0230846Y0026673D02*
X0231846Y0026673D01*
X0231346Y0027444D02*
X0209693Y0027444D01*
X0221277Y0022679D02*
X0227346Y0022679D01*
X0227346Y0023678D02*
X0221975Y0023678D01*
X0222468Y0024676D02*
X0227346Y0024676D01*
X0227346Y0025675D02*
X0222791Y0025675D01*
X0222966Y0026673D02*
X0227346Y0026673D01*
X0230846Y0027672D02*
X0222067Y0027672D01*
X0222906Y0028670D02*
X0227346Y0028670D01*
X0227346Y0029669D02*
X0222669Y0029669D01*
X0222279Y0030667D02*
X0227346Y0030667D01*
X0227346Y0031666D02*
X0221693Y0031666D01*
X0220851Y0032664D02*
X0227353Y0032664D01*
X0227958Y0033663D02*
X0219637Y0033663D01*
X0218252Y0034661D02*
X0234720Y0034661D01*
X0234720Y0035660D02*
X0215841Y0035660D01*
X0214007Y0038692D02*
X0218507Y0040013D01*
X0222453Y0042549D01*
X0225524Y0046094D01*
X0227473Y0050360D01*
X0228140Y0055003D01*
X0227473Y0059645D01*
X0225524Y0063912D01*
X0222453Y0067456D01*
X0222453Y0067456D01*
X0218507Y0069992D01*
X0218507Y0069992D01*
X0214007Y0071314D01*
X0193568Y0071314D01*
X0189068Y0069992D01*
X0185122Y0067456D01*
X0182051Y0063912D01*
X0182051Y0063912D01*
X0180102Y0059645D01*
X0179435Y0055003D01*
X0180102Y0050360D01*
X0182051Y0046094D01*
X0185122Y0042549D01*
X0185122Y0042549D01*
X0185122Y0042549D01*
X0189068Y0040013D01*
X0193568Y0038692D01*
X0195018Y0038692D01*
X0214007Y0038692D01*
X0217284Y0039654D02*
X0234720Y0039654D01*
X0234720Y0040652D02*
X0219502Y0040652D01*
X0218507Y0040013D02*
X0218507Y0040013D01*
X0221055Y0041651D02*
X0234720Y0041651D01*
X0234720Y0042649D02*
X0222540Y0042649D01*
X0222453Y0042549D02*
X0222453Y0042549D01*
X0223405Y0043648D02*
X0234720Y0043648D01*
X0234720Y0044646D02*
X0224270Y0044646D01*
X0225135Y0045645D02*
X0234720Y0045645D01*
X0234720Y0046643D02*
X0225775Y0046643D01*
X0225524Y0046094D02*
X0225524Y0046094D01*
X0226231Y0047642D02*
X0234720Y0047642D01*
X0234720Y0048640D02*
X0226687Y0048640D01*
X0227143Y0049639D02*
X0234720Y0049639D01*
X0234720Y0050637D02*
X0227513Y0050637D01*
X0227473Y0050360D02*
X0227473Y0050360D01*
X0227656Y0051636D02*
X0234720Y0051636D01*
X0234720Y0052634D02*
X0227800Y0052634D01*
X0227943Y0053633D02*
X0234720Y0053633D01*
X0234720Y0054632D02*
X0228087Y0054632D01*
X0228140Y0055003D02*
X0228140Y0055003D01*
X0228050Y0055630D02*
X0234720Y0055630D01*
X0234720Y0056629D02*
X0227906Y0056629D01*
X0227763Y0057627D02*
X0234720Y0057627D01*
X0234720Y0058626D02*
X0227619Y0058626D01*
X0227476Y0059624D02*
X0234720Y0059624D01*
X0234720Y0060623D02*
X0227026Y0060623D01*
X0227473Y0059645D02*
X0227473Y0059645D01*
X0226570Y0061621D02*
X0234720Y0061621D01*
X0234720Y0062620D02*
X0226114Y0062620D01*
X0225658Y0063618D02*
X0234720Y0063618D01*
X0234720Y0064617D02*
X0224913Y0064617D01*
X0225524Y0063912D02*
X0225524Y0063912D01*
X0224048Y0065615D02*
X0234720Y0065615D01*
X0234720Y0066614D02*
X0223183Y0066614D01*
X0222453Y0067456D02*
X0222453Y0067456D01*
X0222210Y0067612D02*
X0234720Y0067612D01*
X0234720Y0068611D02*
X0220657Y0068611D01*
X0219103Y0069609D02*
X0234720Y0069609D01*
X0234720Y0070608D02*
X0216411Y0070608D01*
X0204649Y0074602D02*
X0234720Y0074602D01*
X0234720Y0075600D02*
X0206855Y0075600D01*
X0206598Y0075409D02*
X0206598Y0075409D01*
X0208580Y0076599D02*
X0227405Y0076599D01*
X0227146Y0077597D02*
X0209579Y0077597D01*
X0210377Y0078596D02*
X0227146Y0078596D01*
X0227146Y0079594D02*
X0210790Y0079594D01*
X0197882Y0082562D02*
X0231346Y0082562D01*
X0227146Y0085585D02*
X0210767Y0085585D01*
X0210353Y0086584D02*
X0227146Y0086584D01*
X0227146Y0087582D02*
X0209522Y0087582D01*
X0208524Y0088581D02*
X0227462Y0088581D01*
X0234720Y0089579D02*
X0206733Y0089579D01*
X0206598Y0089714D02*
X0206598Y0089714D01*
X0204513Y0090578D02*
X0234720Y0090578D01*
X0234720Y0091576D02*
X0007500Y0091576D01*
X0007500Y0090578D02*
X0021960Y0090578D01*
X0019874Y0089714D02*
X0019874Y0089714D01*
X0019740Y0089579D02*
X0007500Y0089579D01*
X0007500Y0092575D02*
X0234720Y0092575D01*
X0234720Y0093573D02*
X0007500Y0093573D01*
X0007500Y0094572D02*
X0234720Y0094572D01*
X0234720Y0095570D02*
X0007500Y0095570D01*
X0007500Y0096569D02*
X0234720Y0096569D01*
X0234720Y0097568D02*
X0007500Y0097568D01*
X0014759Y0088581D02*
X0017948Y0088581D01*
X0016950Y0087582D02*
X0015074Y0087582D01*
X0015074Y0086584D02*
X0016119Y0086584D01*
X0015705Y0085585D02*
X0015074Y0085585D01*
X0010874Y0082562D02*
X0028591Y0082562D01*
X0016894Y0077597D02*
X0015074Y0077597D01*
X0015074Y0078596D02*
X0016096Y0078596D01*
X0015682Y0079594D02*
X0015074Y0079594D01*
X0014815Y0076599D02*
X0017892Y0076599D01*
X0019617Y0075600D02*
X0007500Y0075600D01*
X0007500Y0074602D02*
X0021824Y0074602D01*
X0024277Y0071314D02*
X0019777Y0069992D01*
X0019777Y0069992D01*
X0015831Y0067456D01*
X0015831Y0067456D01*
X0012759Y0063912D01*
X0012759Y0063912D01*
X0010811Y0059645D01*
X0010143Y0055003D01*
X0010143Y0055003D01*
X0010811Y0050360D01*
X0012759Y0046094D01*
X0012759Y0046094D01*
X0015831Y0042549D01*
X0019777Y0040013D01*
X0024277Y0038692D01*
X0025727Y0038692D01*
X0044715Y0038692D01*
X0049216Y0040013D01*
X0053161Y0042549D01*
X0053161Y0042549D01*
X0056233Y0046094D01*
X0058181Y0050360D01*
X0058849Y0055003D01*
X0058181Y0059645D01*
X0058181Y0059645D01*
X0056233Y0063912D01*
X0053161Y0067456D01*
X0053161Y0067456D01*
X0049216Y0069992D01*
X0049216Y0069992D01*
X0044715Y0071314D01*
X0024277Y0071314D01*
X0021873Y0070608D02*
X0007500Y0070608D01*
X0007500Y0071606D02*
X0234720Y0071606D01*
X0234720Y0072605D02*
X0007500Y0072605D01*
X0007500Y0073603D02*
X0234720Y0073603D01*
X0191115Y0074602D02*
X0035358Y0074602D01*
X0037307Y0075409D02*
X0037307Y0075409D01*
X0037564Y0075600D02*
X0188909Y0075600D01*
X0189166Y0075409D02*
X0189166Y0075409D01*
X0187183Y0076599D02*
X0039289Y0076599D01*
X0040287Y0077597D02*
X0120345Y0077597D01*
X0120431Y0077562D02*
X0118593Y0078323D01*
X0117186Y0079729D01*
X0116425Y0081567D01*
X0116425Y0083556D01*
X0117186Y0085394D01*
X0118593Y0086800D01*
X0120431Y0087562D01*
X0122420Y0087562D01*
X0124257Y0086800D01*
X0125664Y0085394D01*
X0126425Y0083556D01*
X0126425Y0081567D01*
X0125664Y0079729D01*
X0124257Y0078323D01*
X0122420Y0077562D01*
X0120431Y0077562D01*
X0122506Y0077597D02*
X0186185Y0077597D01*
X0185387Y0078596D02*
X0160785Y0078596D01*
X0160450Y0078262D02*
X0162969Y0080781D01*
X0162969Y0084343D01*
X0160450Y0086862D01*
X0156888Y0086862D01*
X0154369Y0084343D01*
X0154369Y0080781D01*
X0156888Y0078262D01*
X0160450Y0078262D01*
X0161783Y0079594D02*
X0184973Y0079594D01*
X0184560Y0080593D02*
X0162782Y0080593D01*
X0162969Y0081591D02*
X0184371Y0081591D01*
X0184371Y0082590D02*
X0162969Y0082590D01*
X0162969Y0083588D02*
X0184371Y0083588D01*
X0184583Y0084587D02*
X0162725Y0084587D01*
X0161727Y0085585D02*
X0184997Y0085585D01*
X0185410Y0086584D02*
X0160728Y0086584D01*
X0156610Y0086584D02*
X0140445Y0086584D01*
X0140368Y0086662D02*
X0138969Y0086662D01*
X0138969Y0082862D01*
X0138369Y0082862D01*
X0138369Y0086662D01*
X0136971Y0086662D01*
X0134569Y0084260D01*
X0134569Y0082862D01*
X0138369Y0082862D01*
X0138369Y0082262D01*
X0134569Y0082262D01*
X0134569Y0080863D01*
X0136971Y0078462D01*
X0138369Y0078462D01*
X0138369Y0082262D01*
X0138969Y0082262D01*
X0138969Y0078462D01*
X0140368Y0078462D01*
X0142769Y0080863D01*
X0142769Y0082262D01*
X0138969Y0082262D01*
X0138969Y0082862D01*
X0142769Y0082862D01*
X0142769Y0084260D01*
X0140368Y0086662D01*
X0138969Y0086584D02*
X0138369Y0086584D01*
X0138369Y0085585D02*
X0138969Y0085585D01*
X0138969Y0084587D02*
X0138369Y0084587D01*
X0138369Y0083588D02*
X0138969Y0083588D01*
X0138969Y0082590D02*
X0154369Y0082590D01*
X0154369Y0083588D02*
X0142769Y0083588D01*
X0142442Y0084587D02*
X0154613Y0084587D01*
X0155612Y0085585D02*
X0141444Y0085585D01*
X0136893Y0086584D02*
X0124474Y0086584D01*
X0125473Y0085585D02*
X0135895Y0085585D01*
X0134896Y0084587D02*
X0125998Y0084587D01*
X0126412Y0083588D02*
X0134569Y0083588D01*
X0134569Y0081591D02*
X0126425Y0081591D01*
X0126425Y0082590D02*
X0138369Y0082590D01*
X0138369Y0081591D02*
X0138969Y0081591D01*
X0138969Y0080593D02*
X0138369Y0080593D01*
X0138369Y0079594D02*
X0138969Y0079594D01*
X0138969Y0078596D02*
X0138369Y0078596D01*
X0136837Y0078596D02*
X0124530Y0078596D01*
X0125529Y0079594D02*
X0135838Y0079594D01*
X0134840Y0080593D02*
X0126022Y0080593D01*
X0118320Y0078596D02*
X0084133Y0078596D01*
X0083941Y0078456D02*
X0084552Y0078900D01*
X0085086Y0079435D01*
X0085531Y0080046D01*
X0085874Y0080719D01*
X0086107Y0081438D01*
X0086206Y0082062D01*
X0081925Y0082062D01*
X0081925Y0083062D01*
X0080925Y0083062D01*
X0080925Y0087342D01*
X0080301Y0087243D01*
X0079583Y0087010D01*
X0078909Y0086667D01*
X0078298Y0086223D01*
X0077764Y0085689D01*
X0077320Y0085077D01*
X0076977Y0084404D01*
X0076743Y0083686D01*
X0076645Y0083062D01*
X0080925Y0083062D01*
X0080925Y0082062D01*
X0076645Y0082062D01*
X0076743Y0081438D01*
X0076977Y0080719D01*
X0077320Y0080046D01*
X0077764Y0079435D01*
X0078298Y0078900D01*
X0078909Y0078456D01*
X0079583Y0078113D01*
X0080301Y0077880D01*
X0080925Y0077781D01*
X0080925Y0082062D01*
X0081925Y0082062D01*
X0081925Y0077781D01*
X0082549Y0077880D01*
X0083268Y0078113D01*
X0083941Y0078456D01*
X0085202Y0079594D02*
X0117321Y0079594D01*
X0116829Y0080593D02*
X0085809Y0080593D01*
X0086131Y0081591D02*
X0116425Y0081591D01*
X0116425Y0082590D02*
X0081925Y0082590D01*
X0081925Y0083062D02*
X0086206Y0083062D01*
X0086107Y0083686D01*
X0085874Y0084404D01*
X0085531Y0085077D01*
X0085086Y0085689D01*
X0084552Y0086223D01*
X0083941Y0086667D01*
X0083268Y0087010D01*
X0082549Y0087243D01*
X0081925Y0087342D01*
X0081925Y0083062D01*
X0081925Y0083588D02*
X0080925Y0083588D01*
X0080925Y0082590D02*
X0042102Y0082590D01*
X0042102Y0083588D02*
X0076728Y0083588D01*
X0077070Y0084587D02*
X0041889Y0084587D01*
X0041476Y0085585D02*
X0077689Y0085585D01*
X0078795Y0086584D02*
X0041062Y0086584D01*
X0040231Y0087582D02*
X0186241Y0087582D01*
X0187240Y0088581D02*
X0039233Y0088581D01*
X0037442Y0089579D02*
X0189031Y0089579D01*
X0191251Y0090578D02*
X0035222Y0090578D01*
X0037307Y0089714D02*
X0037307Y0089714D01*
X0042102Y0081591D02*
X0076719Y0081591D01*
X0077041Y0080593D02*
X0041913Y0080593D01*
X0041499Y0079594D02*
X0077648Y0079594D01*
X0078718Y0078596D02*
X0041085Y0078596D01*
X0047119Y0070608D02*
X0191164Y0070608D01*
X0189068Y0069992D02*
X0189068Y0069992D01*
X0188472Y0069609D02*
X0049812Y0069609D01*
X0051365Y0068611D02*
X0067456Y0068611D01*
X0068148Y0069303D02*
X0065629Y0066784D01*
X0065629Y0063222D01*
X0068148Y0060703D01*
X0071710Y0060703D01*
X0074229Y0063222D01*
X0074229Y0066784D01*
X0071710Y0069303D01*
X0068148Y0069303D01*
X0066458Y0067612D02*
X0052919Y0067612D01*
X0053161Y0067456D02*
X0053161Y0067456D01*
X0053892Y0066614D02*
X0065629Y0066614D01*
X0065629Y0065615D02*
X0054757Y0065615D01*
X0055622Y0064617D02*
X0065629Y0064617D01*
X0065629Y0063618D02*
X0056367Y0063618D01*
X0056233Y0063912D02*
X0056233Y0063912D01*
X0056823Y0062620D02*
X0066231Y0062620D01*
X0067230Y0061621D02*
X0057279Y0061621D01*
X0057735Y0060623D02*
X0180548Y0060623D01*
X0180102Y0059645D02*
X0180102Y0059645D01*
X0180099Y0059624D02*
X0058184Y0059624D01*
X0058328Y0058626D02*
X0179956Y0058626D01*
X0179812Y0057627D02*
X0058471Y0057627D01*
X0058615Y0056629D02*
X0179668Y0056629D01*
X0179525Y0055630D02*
X0058759Y0055630D01*
X0058849Y0055003D02*
X0058849Y0055003D01*
X0058795Y0054632D02*
X0179488Y0054632D01*
X0179435Y0055003D02*
X0179435Y0055003D01*
X0179632Y0053633D02*
X0058652Y0053633D01*
X0058508Y0052634D02*
X0179775Y0052634D01*
X0179919Y0051636D02*
X0058365Y0051636D01*
X0058221Y0050637D02*
X0180062Y0050637D01*
X0180102Y0050360D02*
X0180102Y0050360D01*
X0180431Y0049639D02*
X0057852Y0049639D01*
X0058181Y0050360D02*
X0058181Y0050360D01*
X0057396Y0048640D02*
X0067769Y0048640D01*
X0068231Y0049103D02*
X0065829Y0046701D01*
X0065829Y0045303D01*
X0069629Y0045303D01*
X0069629Y0049103D01*
X0068231Y0049103D01*
X0069629Y0048640D02*
X0070229Y0048640D01*
X0070229Y0049103D02*
X0070229Y0045303D01*
X0069629Y0045303D01*
X0069629Y0044703D01*
X0065829Y0044703D01*
X0065829Y0043304D01*
X0068231Y0040903D01*
X0069629Y0040903D01*
X0069629Y0044703D01*
X0070229Y0044703D01*
X0070229Y0045303D01*
X0074029Y0045303D01*
X0074029Y0046701D01*
X0071627Y0049103D01*
X0070229Y0049103D01*
X0070229Y0047642D02*
X0069629Y0047642D01*
X0069629Y0046643D02*
X0070229Y0046643D01*
X0070229Y0045645D02*
X0069629Y0045645D01*
X0069629Y0044646D02*
X0070229Y0044646D01*
X0070229Y0044703D02*
X0070229Y0040903D01*
X0071627Y0040903D01*
X0074029Y0043304D01*
X0074029Y0044703D01*
X0070229Y0044703D01*
X0070229Y0043648D02*
X0069629Y0043648D01*
X0069629Y0042649D02*
X0070229Y0042649D01*
X0070229Y0041651D02*
X0069629Y0041651D01*
X0067483Y0041651D02*
X0051764Y0041651D01*
X0053248Y0042649D02*
X0066484Y0042649D01*
X0065829Y0043648D02*
X0054114Y0043648D01*
X0054979Y0044646D02*
X0065829Y0044646D01*
X0065829Y0045645D02*
X0055844Y0045645D01*
X0056233Y0046094D02*
X0056233Y0046094D01*
X0056484Y0046643D02*
X0065829Y0046643D01*
X0066770Y0047642D02*
X0056940Y0047642D01*
X0072090Y0048640D02*
X0170131Y0048640D01*
X0170593Y0049103D02*
X0168191Y0046701D01*
X0168191Y0045303D01*
X0171991Y0045303D01*
X0171991Y0049103D01*
X0170593Y0049103D01*
X0171991Y0048640D02*
X0172591Y0048640D01*
X0172591Y0049103D02*
X0172591Y0045303D01*
X0171991Y0045303D01*
X0171991Y0044703D01*
X0168191Y0044703D01*
X0168191Y0043304D01*
X0170593Y0040903D01*
X0171991Y0040903D01*
X0171991Y0044703D01*
X0172591Y0044703D01*
X0172591Y0045303D01*
X0176391Y0045303D01*
X0176391Y0046701D01*
X0173990Y0049103D01*
X0172591Y0049103D01*
X0172591Y0047642D02*
X0171991Y0047642D01*
X0171991Y0046643D02*
X0172591Y0046643D01*
X0172591Y0045645D02*
X0171991Y0045645D01*
X0171991Y0044646D02*
X0172591Y0044646D01*
X0172591Y0044703D02*
X0172591Y0040903D01*
X0173990Y0040903D01*
X0176391Y0043304D01*
X0176391Y0044703D01*
X0172591Y0044703D01*
X0172591Y0043648D02*
X0171991Y0043648D01*
X0171991Y0042649D02*
X0172591Y0042649D01*
X0172591Y0041651D02*
X0171991Y0041651D01*
X0169845Y0041651D02*
X0145354Y0041651D01*
X0145661Y0041162D02*
X0144940Y0042309D01*
X0144095Y0043368D01*
X0143137Y0044326D01*
X0142078Y0045171D01*
X0140931Y0045892D01*
X0139710Y0046480D01*
X0138431Y0046927D01*
X0137110Y0047229D01*
X0135764Y0047381D01*
X0135587Y0047381D01*
X0135587Y0035818D01*
X0134587Y0035818D01*
X0134587Y0047381D01*
X0134409Y0047381D01*
X0133063Y0047229D01*
X0131742Y0046927D01*
X0130463Y0046480D01*
X0129242Y0045892D01*
X0128095Y0045171D01*
X0127036Y0044326D01*
X0126078Y0043368D01*
X0125233Y0042309D01*
X0124512Y0041162D01*
X0123924Y0039941D01*
X0123477Y0038662D01*
X0123175Y0037341D01*
X0123024Y0035995D01*
X0123024Y0035818D01*
X0134587Y0035818D01*
X0134587Y0034818D01*
X0135587Y0034818D01*
X0135587Y0035818D01*
X0147150Y0035818D01*
X0147150Y0035995D01*
X0146998Y0037341D01*
X0146696Y0038662D01*
X0146249Y0039941D01*
X0145661Y0041162D01*
X0145906Y0040652D02*
X0188073Y0040652D01*
X0189068Y0040013D02*
X0189068Y0040013D01*
X0190291Y0039654D02*
X0146349Y0039654D01*
X0146698Y0038655D02*
X0234720Y0038655D01*
X0234720Y0037657D02*
X0146926Y0037657D01*
X0147075Y0036658D02*
X0234720Y0036658D01*
X0231846Y0033663D02*
X0230846Y0033663D01*
X0230846Y0032664D02*
X0231846Y0032664D01*
X0231846Y0031666D02*
X0230846Y0031666D01*
X0230846Y0030667D02*
X0231846Y0030667D01*
X0231846Y0029669D02*
X0230846Y0029669D01*
X0230846Y0028670D02*
X0231846Y0028670D01*
X0227555Y0021681D02*
X0220253Y0021681D01*
X0202443Y0019684D02*
X0169385Y0019684D01*
X0169480Y0020682D02*
X0200586Y0020682D01*
X0199133Y0021681D02*
X0169480Y0021681D01*
X0169480Y0022679D02*
X0198109Y0022679D01*
X0197410Y0023678D02*
X0160980Y0023678D01*
X0160980Y0024007D02*
X0169480Y0024007D01*
X0169480Y0027234D01*
X0164208Y0032507D01*
X0160980Y0032507D01*
X0160980Y0024007D01*
X0160980Y0024676D02*
X0159980Y0024676D01*
X0159980Y0023678D02*
X0138299Y0023678D01*
X0138431Y0023708D02*
X0139710Y0024155D01*
X0140931Y0024743D01*
X0142078Y0025464D01*
X0143137Y0026309D01*
X0144095Y0027267D01*
X0144940Y0028326D01*
X0145661Y0029473D01*
X0146249Y0030694D01*
X0146696Y0031973D01*
X0146998Y0033294D01*
X0147150Y0034640D01*
X0147150Y0034818D01*
X0135587Y0034818D01*
X0135587Y0023255D01*
X0135764Y0023255D01*
X0137110Y0023406D01*
X0138431Y0023708D01*
X0140792Y0024676D02*
X0151480Y0024676D01*
X0151480Y0025675D02*
X0142342Y0025675D01*
X0143502Y0026673D02*
X0151480Y0026673D01*
X0151918Y0027672D02*
X0144418Y0027672D01*
X0145156Y0028670D02*
X0152916Y0028670D01*
X0153915Y0029669D02*
X0145755Y0029669D01*
X0146236Y0030667D02*
X0154913Y0030667D01*
X0155912Y0031666D02*
X0146589Y0031666D01*
X0146854Y0032664D02*
X0198535Y0032664D01*
X0197693Y0031666D02*
X0165049Y0031666D01*
X0166048Y0030667D02*
X0197107Y0030667D01*
X0196717Y0029669D02*
X0167046Y0029669D01*
X0168045Y0028670D02*
X0196479Y0028670D01*
X0197319Y0027672D02*
X0169043Y0027672D01*
X0169480Y0026673D02*
X0196419Y0026673D01*
X0196595Y0025675D02*
X0169480Y0025675D01*
X0169480Y0024676D02*
X0196918Y0024676D01*
X0199748Y0033663D02*
X0147039Y0033663D01*
X0147150Y0034661D02*
X0201134Y0034661D01*
X0203545Y0035660D02*
X0135587Y0035660D01*
X0135587Y0036658D02*
X0134587Y0036658D01*
X0134587Y0035660D02*
X0119397Y0035660D01*
X0119397Y0036658D02*
X0123098Y0036658D01*
X0123247Y0037657D02*
X0119203Y0037657D01*
X0118935Y0038655D02*
X0123475Y0038655D01*
X0123824Y0039654D02*
X0118668Y0039654D01*
X0118214Y0040652D02*
X0124267Y0040652D01*
X0124819Y0041651D02*
X0117637Y0041651D01*
X0117061Y0042649D02*
X0125504Y0042649D01*
X0126357Y0043648D02*
X0116146Y0043648D01*
X0115148Y0044646D02*
X0127437Y0044646D01*
X0128849Y0045645D02*
X0113772Y0045645D01*
X0112043Y0046643D02*
X0130930Y0046643D01*
X0134587Y0046643D02*
X0135587Y0046643D01*
X0135587Y0045645D02*
X0134587Y0045645D01*
X0134587Y0044646D02*
X0135587Y0044646D01*
X0135587Y0043648D02*
X0134587Y0043648D01*
X0134587Y0042649D02*
X0135587Y0042649D01*
X0135587Y0041651D02*
X0134587Y0041651D01*
X0134587Y0040652D02*
X0135587Y0040652D01*
X0135587Y0039654D02*
X0134587Y0039654D01*
X0134587Y0038655D02*
X0135587Y0038655D01*
X0135587Y0037657D02*
X0134587Y0037657D01*
X0134587Y0034818D02*
X0123024Y0034818D01*
X0123024Y0034640D01*
X0123175Y0033294D01*
X0123477Y0031973D01*
X0123924Y0030694D01*
X0124512Y0029473D01*
X0125233Y0028326D01*
X0126078Y0027267D01*
X0127036Y0026309D01*
X0128095Y0025464D01*
X0129242Y0024743D01*
X0130463Y0024155D01*
X0131742Y0023708D01*
X0133063Y0023406D01*
X0134409Y0023255D01*
X0134587Y0023255D01*
X0134587Y0034818D01*
X0134587Y0034661D02*
X0135587Y0034661D01*
X0135587Y0033663D02*
X0134587Y0033663D01*
X0134587Y0032664D02*
X0135587Y0032664D01*
X0135587Y0031666D02*
X0134587Y0031666D01*
X0134587Y0030667D02*
X0135587Y0030667D01*
X0135587Y0029669D02*
X0134587Y0029669D01*
X0134587Y0028670D02*
X0135587Y0028670D01*
X0135587Y0027672D02*
X0134587Y0027672D01*
X0134587Y0026673D02*
X0135587Y0026673D01*
X0135587Y0025675D02*
X0134587Y0025675D01*
X0134587Y0024676D02*
X0135587Y0024676D01*
X0135587Y0023678D02*
X0134587Y0023678D01*
X0131874Y0023678D02*
X0111074Y0023678D01*
X0113228Y0024676D02*
X0129381Y0024676D01*
X0127831Y0025675D02*
X0114833Y0025675D01*
X0115832Y0026673D02*
X0126671Y0026673D01*
X0125755Y0027672D02*
X0116830Y0027672D01*
X0117456Y0028670D02*
X0125017Y0028670D01*
X0124418Y0029669D02*
X0118033Y0029669D01*
X0118583Y0030667D02*
X0123937Y0030667D01*
X0123584Y0031666D02*
X0118851Y0031666D01*
X0119118Y0032664D02*
X0123319Y0032664D01*
X0123134Y0033663D02*
X0119386Y0033663D01*
X0119397Y0034661D02*
X0123024Y0034661D01*
X0143816Y0043648D02*
X0168191Y0043648D01*
X0168191Y0044646D02*
X0142736Y0044646D01*
X0141324Y0045645D02*
X0168191Y0045645D01*
X0168191Y0046643D02*
X0139243Y0046643D01*
X0144669Y0042649D02*
X0168846Y0042649D01*
X0174738Y0041651D02*
X0186519Y0041651D01*
X0185035Y0042649D02*
X0175736Y0042649D01*
X0176391Y0043648D02*
X0184170Y0043648D01*
X0183305Y0044646D02*
X0176391Y0044646D01*
X0176391Y0045645D02*
X0182439Y0045645D01*
X0182051Y0046094D02*
X0182051Y0046094D01*
X0181799Y0046643D02*
X0176391Y0046643D01*
X0175450Y0047642D02*
X0181343Y0047642D01*
X0180887Y0048640D02*
X0174452Y0048640D01*
X0169132Y0047642D02*
X0073088Y0047642D01*
X0074029Y0046643D02*
X0102225Y0046643D01*
X0100495Y0045645D02*
X0074029Y0045645D01*
X0074029Y0044646D02*
X0099120Y0044646D01*
X0098122Y0043648D02*
X0074029Y0043648D01*
X0073374Y0042649D02*
X0097207Y0042649D01*
X0096630Y0041651D02*
X0072376Y0041651D01*
X0050210Y0040652D02*
X0096054Y0040652D01*
X0095600Y0039654D02*
X0047992Y0039654D01*
X0049216Y0040013D02*
X0049216Y0040013D01*
X0046550Y0035660D02*
X0094871Y0035660D01*
X0094871Y0036658D02*
X0007500Y0036658D01*
X0007500Y0035660D02*
X0034253Y0035660D01*
X0031843Y0034661D02*
X0007500Y0034661D01*
X0010374Y0033663D02*
X0011374Y0033663D01*
X0011374Y0033944D02*
X0011374Y0027944D01*
X0014874Y0027944D01*
X0014874Y0032641D01*
X0014772Y0033023D01*
X0014574Y0033365D01*
X0014295Y0033644D01*
X0013953Y0033841D01*
X0013571Y0033944D01*
X0011374Y0033944D01*
X0011374Y0032664D02*
X0010374Y0032664D01*
X0010374Y0031666D02*
X0011374Y0031666D01*
X0011374Y0030667D02*
X0010374Y0030667D01*
X0010374Y0029669D02*
X0011374Y0029669D01*
X0011374Y0028670D02*
X0010374Y0028670D01*
X0010874Y0027444D02*
X0040402Y0027444D01*
X0029842Y0021681D02*
X0014666Y0021681D01*
X0014574Y0021523D02*
X0014772Y0021865D01*
X0014874Y0022246D01*
X0014874Y0026944D01*
X0011374Y0026944D01*
X0011374Y0020944D01*
X0013571Y0020944D01*
X0013953Y0021046D01*
X0014295Y0021243D01*
X0014574Y0021523D01*
X0014874Y0022679D02*
X0028817Y0022679D01*
X0028119Y0023678D02*
X0014874Y0023678D01*
X0014874Y0024676D02*
X0027627Y0024676D01*
X0027303Y0025675D02*
X0014874Y0025675D01*
X0014874Y0026673D02*
X0027128Y0026673D01*
X0028028Y0027672D02*
X0011374Y0027672D01*
X0011374Y0026673D02*
X0010374Y0026673D01*
X0010374Y0025675D02*
X0011374Y0025675D01*
X0011374Y0024676D02*
X0010374Y0024676D01*
X0010374Y0023678D02*
X0011374Y0023678D01*
X0011374Y0022679D02*
X0010374Y0022679D01*
X0010374Y0021681D02*
X0011374Y0021681D01*
X0007500Y0020682D02*
X0031294Y0020682D01*
X0033152Y0019684D02*
X0007500Y0019684D01*
X0007500Y0018685D02*
X0073551Y0018685D01*
X0074549Y0017687D02*
X0007500Y0017687D01*
X0007500Y0016688D02*
X0075548Y0016688D01*
X0094882Y0033663D02*
X0050346Y0033663D01*
X0048960Y0034661D02*
X0094871Y0034661D01*
X0095065Y0037657D02*
X0007500Y0037657D01*
X0007500Y0038655D02*
X0095333Y0038655D01*
X0072629Y0061621D02*
X0169592Y0061621D01*
X0170510Y0060703D02*
X0167991Y0063222D01*
X0167991Y0066784D01*
X0170510Y0069303D01*
X0174072Y0069303D01*
X0176591Y0066784D01*
X0176591Y0063222D01*
X0174072Y0060703D01*
X0170510Y0060703D01*
X0168593Y0062620D02*
X0073627Y0062620D01*
X0074229Y0063618D02*
X0167991Y0063618D01*
X0167991Y0064617D02*
X0074229Y0064617D01*
X0074229Y0065615D02*
X0167991Y0065615D01*
X0167991Y0066614D02*
X0074229Y0066614D01*
X0073401Y0067612D02*
X0168820Y0067612D01*
X0169818Y0068611D02*
X0072402Y0068611D01*
X0080925Y0078596D02*
X0081925Y0078596D01*
X0081925Y0079594D02*
X0080925Y0079594D01*
X0080925Y0080593D02*
X0081925Y0080593D01*
X0081925Y0081591D02*
X0080925Y0081591D01*
X0086122Y0083588D02*
X0116439Y0083588D01*
X0116852Y0084587D02*
X0085780Y0084587D01*
X0085161Y0085585D02*
X0117378Y0085585D01*
X0118376Y0086584D02*
X0084055Y0086584D01*
X0081925Y0086584D02*
X0080925Y0086584D01*
X0080925Y0085585D02*
X0081925Y0085585D01*
X0081925Y0084587D02*
X0080925Y0084587D01*
X0140502Y0078596D02*
X0156554Y0078596D01*
X0155556Y0079594D02*
X0141500Y0079594D01*
X0142499Y0080593D02*
X0154557Y0080593D01*
X0154369Y0081591D02*
X0142769Y0081591D01*
X0174764Y0068611D02*
X0186918Y0068611D01*
X0185364Y0067612D02*
X0175763Y0067612D01*
X0176591Y0066614D02*
X0184392Y0066614D01*
X0185122Y0067456D02*
X0185122Y0067456D01*
X0183527Y0065615D02*
X0176591Y0065615D01*
X0176591Y0064617D02*
X0182661Y0064617D01*
X0181917Y0063618D02*
X0176591Y0063618D01*
X0175989Y0062620D02*
X0181461Y0062620D01*
X0181005Y0061621D02*
X0174991Y0061621D01*
X0160980Y0031666D02*
X0159980Y0031666D01*
X0159980Y0030667D02*
X0160980Y0030667D01*
X0160980Y0029669D02*
X0159980Y0029669D01*
X0159980Y0028670D02*
X0160980Y0028670D01*
X0160980Y0027672D02*
X0159980Y0027672D01*
X0159980Y0026673D02*
X0160980Y0026673D01*
X0160980Y0025675D02*
X0159980Y0025675D01*
X0031685Y0034596D02*
X0031685Y0034596D01*
X0030457Y0033663D02*
X0014262Y0033663D01*
X0014868Y0032664D02*
X0029244Y0032664D01*
X0028401Y0031666D02*
X0014874Y0031666D01*
X0014874Y0030667D02*
X0027816Y0030667D01*
X0027426Y0029669D02*
X0014874Y0029669D01*
X0014874Y0028670D02*
X0027188Y0028670D01*
X0021000Y0039654D02*
X0007500Y0039654D01*
X0007500Y0040652D02*
X0018782Y0040652D01*
X0017228Y0041651D02*
X0007500Y0041651D01*
X0007500Y0042649D02*
X0015744Y0042649D01*
X0015831Y0042549D02*
X0015831Y0042549D01*
X0015831Y0042549D01*
X0014878Y0043648D02*
X0007500Y0043648D01*
X0007500Y0044646D02*
X0014013Y0044646D01*
X0013148Y0045645D02*
X0007500Y0045645D01*
X0007500Y0046643D02*
X0012508Y0046643D01*
X0012052Y0047642D02*
X0007500Y0047642D01*
X0007500Y0048640D02*
X0011596Y0048640D01*
X0011140Y0049639D02*
X0007500Y0049639D01*
X0007500Y0050637D02*
X0010771Y0050637D01*
X0010811Y0050360D02*
X0010811Y0050360D01*
X0010627Y0051636D02*
X0007500Y0051636D01*
X0007500Y0052634D02*
X0010484Y0052634D01*
X0010340Y0053633D02*
X0007500Y0053633D01*
X0007500Y0054632D02*
X0010197Y0054632D01*
X0010234Y0055630D02*
X0007500Y0055630D01*
X0007500Y0056629D02*
X0010377Y0056629D01*
X0010521Y0057627D02*
X0007500Y0057627D01*
X0007500Y0058626D02*
X0010664Y0058626D01*
X0010808Y0059624D02*
X0007500Y0059624D01*
X0007500Y0060623D02*
X0011257Y0060623D01*
X0010811Y0059645D02*
X0010811Y0059645D01*
X0011713Y0061621D02*
X0007500Y0061621D01*
X0007500Y0062620D02*
X0012169Y0062620D01*
X0012625Y0063618D02*
X0007500Y0063618D01*
X0007500Y0064617D02*
X0013370Y0064617D01*
X0014235Y0065615D02*
X0007500Y0065615D01*
X0007500Y0066614D02*
X0015101Y0066614D01*
X0016073Y0067612D02*
X0007500Y0067612D01*
X0007500Y0068611D02*
X0017627Y0068611D01*
X0019181Y0069609D02*
X0007500Y0069609D01*
M02*
