G75*
%MOIN*%
%OFA0B0*%
%FSLAX25Y25*%
%IPPOS*%
%LPD*%
%AMOC8*
5,1,8,0,0,1.08239X$1,22.5*
%
%ADD10C,0.00000*%
%ADD11C,0.00600*%
D10*
X0003000Y0011696D02*
X0003000Y0102247D01*
X0239220Y0102247D01*
X0239220Y0011696D01*
X0003000Y0011696D01*
X0036465Y0023507D02*
X0044339Y0023507D01*
X0044463Y0023509D01*
X0044586Y0023515D01*
X0044710Y0023524D01*
X0044832Y0023538D01*
X0044955Y0023555D01*
X0045077Y0023577D01*
X0045198Y0023602D01*
X0045318Y0023631D01*
X0045437Y0023663D01*
X0045556Y0023700D01*
X0045673Y0023740D01*
X0045788Y0023783D01*
X0045903Y0023831D01*
X0046015Y0023882D01*
X0046126Y0023936D01*
X0046236Y0023994D01*
X0046343Y0024055D01*
X0046449Y0024120D01*
X0046552Y0024188D01*
X0046653Y0024259D01*
X0046752Y0024333D01*
X0046849Y0024410D01*
X0046943Y0024491D01*
X0047034Y0024574D01*
X0047123Y0024660D01*
X0047209Y0024749D01*
X0047292Y0024840D01*
X0047373Y0024934D01*
X0047450Y0025031D01*
X0047524Y0025130D01*
X0047595Y0025231D01*
X0047663Y0025334D01*
X0047728Y0025440D01*
X0047789Y0025547D01*
X0047847Y0025657D01*
X0047901Y0025768D01*
X0047952Y0025880D01*
X0048000Y0025995D01*
X0048043Y0026110D01*
X0048083Y0026227D01*
X0048120Y0026346D01*
X0048152Y0026465D01*
X0048181Y0026585D01*
X0048206Y0026706D01*
X0048228Y0026828D01*
X0048245Y0026951D01*
X0048259Y0027073D01*
X0048268Y0027197D01*
X0048274Y0027320D01*
X0048276Y0027444D01*
X0048274Y0027568D01*
X0048268Y0027691D01*
X0048259Y0027815D01*
X0048245Y0027937D01*
X0048228Y0028060D01*
X0048206Y0028182D01*
X0048181Y0028303D01*
X0048152Y0028423D01*
X0048120Y0028542D01*
X0048083Y0028661D01*
X0048043Y0028778D01*
X0048000Y0028893D01*
X0047952Y0029008D01*
X0047901Y0029120D01*
X0047847Y0029231D01*
X0047789Y0029341D01*
X0047728Y0029448D01*
X0047663Y0029554D01*
X0047595Y0029657D01*
X0047524Y0029758D01*
X0047450Y0029857D01*
X0047373Y0029954D01*
X0047292Y0030048D01*
X0047209Y0030139D01*
X0047123Y0030228D01*
X0047034Y0030314D01*
X0046943Y0030397D01*
X0046849Y0030478D01*
X0046752Y0030555D01*
X0046653Y0030629D01*
X0046552Y0030700D01*
X0046449Y0030768D01*
X0046343Y0030833D01*
X0046236Y0030894D01*
X0046126Y0030952D01*
X0046015Y0031006D01*
X0045903Y0031057D01*
X0045788Y0031105D01*
X0045673Y0031148D01*
X0045556Y0031188D01*
X0045437Y0031225D01*
X0045318Y0031257D01*
X0045198Y0031286D01*
X0045077Y0031311D01*
X0044955Y0031333D01*
X0044832Y0031350D01*
X0044710Y0031364D01*
X0044586Y0031373D01*
X0044463Y0031379D01*
X0044339Y0031381D01*
X0036465Y0031381D01*
X0036341Y0031379D01*
X0036218Y0031373D01*
X0036094Y0031364D01*
X0035972Y0031350D01*
X0035849Y0031333D01*
X0035727Y0031311D01*
X0035606Y0031286D01*
X0035486Y0031257D01*
X0035367Y0031225D01*
X0035248Y0031188D01*
X0035131Y0031148D01*
X0035016Y0031105D01*
X0034901Y0031057D01*
X0034789Y0031006D01*
X0034678Y0030952D01*
X0034568Y0030894D01*
X0034461Y0030833D01*
X0034355Y0030768D01*
X0034252Y0030700D01*
X0034151Y0030629D01*
X0034052Y0030555D01*
X0033955Y0030478D01*
X0033861Y0030397D01*
X0033770Y0030314D01*
X0033681Y0030228D01*
X0033595Y0030139D01*
X0033512Y0030048D01*
X0033431Y0029954D01*
X0033354Y0029857D01*
X0033280Y0029758D01*
X0033209Y0029657D01*
X0033141Y0029554D01*
X0033076Y0029448D01*
X0033015Y0029341D01*
X0032957Y0029231D01*
X0032903Y0029120D01*
X0032852Y0029008D01*
X0032804Y0028893D01*
X0032761Y0028778D01*
X0032721Y0028661D01*
X0032684Y0028542D01*
X0032652Y0028423D01*
X0032623Y0028303D01*
X0032598Y0028182D01*
X0032576Y0028060D01*
X0032559Y0027937D01*
X0032545Y0027815D01*
X0032536Y0027691D01*
X0032530Y0027568D01*
X0032528Y0027444D01*
X0032530Y0027320D01*
X0032536Y0027197D01*
X0032545Y0027073D01*
X0032559Y0026951D01*
X0032576Y0026828D01*
X0032598Y0026706D01*
X0032623Y0026585D01*
X0032652Y0026465D01*
X0032684Y0026346D01*
X0032721Y0026227D01*
X0032761Y0026110D01*
X0032804Y0025995D01*
X0032852Y0025880D01*
X0032903Y0025768D01*
X0032957Y0025657D01*
X0033015Y0025547D01*
X0033076Y0025440D01*
X0033141Y0025334D01*
X0033209Y0025231D01*
X0033280Y0025130D01*
X0033354Y0025031D01*
X0033431Y0024934D01*
X0033512Y0024840D01*
X0033595Y0024749D01*
X0033681Y0024660D01*
X0033770Y0024574D01*
X0033861Y0024491D01*
X0033955Y0024410D01*
X0034052Y0024333D01*
X0034151Y0024259D01*
X0034252Y0024188D01*
X0034355Y0024120D01*
X0034461Y0024055D01*
X0034568Y0023994D01*
X0034678Y0023936D01*
X0034789Y0023882D01*
X0034901Y0023831D01*
X0035016Y0023783D01*
X0035131Y0023740D01*
X0035248Y0023700D01*
X0035367Y0023663D01*
X0035486Y0023631D01*
X0035606Y0023602D01*
X0035727Y0023577D01*
X0035849Y0023555D01*
X0035972Y0023538D01*
X0036094Y0023524D01*
X0036218Y0023515D01*
X0036341Y0023509D01*
X0036465Y0023507D01*
X0042370Y0043192D02*
X0026622Y0043192D01*
X0026334Y0043196D01*
X0026047Y0043206D01*
X0025760Y0043224D01*
X0025473Y0043248D01*
X0025187Y0043279D01*
X0024902Y0043318D01*
X0024618Y0043363D01*
X0024335Y0043415D01*
X0024054Y0043475D01*
X0023774Y0043541D01*
X0023496Y0043613D01*
X0023219Y0043693D01*
X0022945Y0043779D01*
X0022673Y0043872D01*
X0022403Y0043971D01*
X0022135Y0044077D01*
X0021871Y0044190D01*
X0021609Y0044309D01*
X0021350Y0044434D01*
X0021094Y0044566D01*
X0020841Y0044703D01*
X0020592Y0044847D01*
X0020347Y0044997D01*
X0020105Y0045153D01*
X0019867Y0045314D01*
X0019633Y0045482D01*
X0019403Y0045655D01*
X0019178Y0045833D01*
X0018957Y0046017D01*
X0018740Y0046206D01*
X0018528Y0046401D01*
X0018321Y0046601D01*
X0018119Y0046805D01*
X0017922Y0047015D01*
X0017730Y0047229D01*
X0017544Y0047448D01*
X0017362Y0047671D01*
X0017186Y0047899D01*
X0017016Y0048131D01*
X0016852Y0048367D01*
X0016693Y0048606D01*
X0016540Y0048850D01*
X0016393Y0049097D01*
X0016253Y0049348D01*
X0016118Y0049603D01*
X0015990Y0049860D01*
X0015868Y0050120D01*
X0015752Y0050384D01*
X0015643Y0050650D01*
X0015540Y0050918D01*
X0015444Y0051189D01*
X0015354Y0051463D01*
X0015271Y0051738D01*
X0015195Y0052016D01*
X0015126Y0052295D01*
X0015063Y0052575D01*
X0015007Y0052858D01*
X0014959Y0053141D01*
X0014917Y0053426D01*
X0014882Y0053711D01*
X0014854Y0053997D01*
X0014833Y0054284D01*
X0014819Y0054572D01*
X0014812Y0054859D01*
X0014812Y0055147D01*
X0014819Y0055434D01*
X0014833Y0055722D01*
X0014854Y0056009D01*
X0014882Y0056295D01*
X0014917Y0056580D01*
X0014959Y0056865D01*
X0015007Y0057148D01*
X0015063Y0057431D01*
X0015126Y0057711D01*
X0015195Y0057990D01*
X0015271Y0058268D01*
X0015354Y0058543D01*
X0015444Y0058817D01*
X0015540Y0059088D01*
X0015643Y0059356D01*
X0015752Y0059622D01*
X0015868Y0059886D01*
X0015990Y0060146D01*
X0016118Y0060403D01*
X0016253Y0060658D01*
X0016393Y0060908D01*
X0016540Y0061156D01*
X0016693Y0061400D01*
X0016852Y0061639D01*
X0017016Y0061875D01*
X0017186Y0062107D01*
X0017362Y0062335D01*
X0017544Y0062558D01*
X0017730Y0062777D01*
X0017922Y0062991D01*
X0018119Y0063201D01*
X0018321Y0063405D01*
X0018528Y0063605D01*
X0018740Y0063800D01*
X0018957Y0063989D01*
X0019178Y0064173D01*
X0019403Y0064351D01*
X0019633Y0064524D01*
X0019867Y0064692D01*
X0020105Y0064853D01*
X0020347Y0065009D01*
X0020592Y0065159D01*
X0020841Y0065303D01*
X0021094Y0065440D01*
X0021350Y0065572D01*
X0021609Y0065697D01*
X0021871Y0065816D01*
X0022135Y0065929D01*
X0022403Y0066035D01*
X0022673Y0066134D01*
X0022945Y0066227D01*
X0023219Y0066313D01*
X0023496Y0066393D01*
X0023774Y0066465D01*
X0024054Y0066531D01*
X0024335Y0066591D01*
X0024618Y0066643D01*
X0024902Y0066688D01*
X0025187Y0066727D01*
X0025473Y0066758D01*
X0025760Y0066782D01*
X0026047Y0066800D01*
X0026334Y0066810D01*
X0026622Y0066814D01*
X0042370Y0066814D01*
X0042658Y0066810D01*
X0042945Y0066800D01*
X0043232Y0066782D01*
X0043519Y0066758D01*
X0043805Y0066727D01*
X0044090Y0066688D01*
X0044374Y0066643D01*
X0044657Y0066591D01*
X0044938Y0066531D01*
X0045218Y0066465D01*
X0045496Y0066393D01*
X0045773Y0066313D01*
X0046047Y0066227D01*
X0046319Y0066134D01*
X0046589Y0066035D01*
X0046857Y0065929D01*
X0047121Y0065816D01*
X0047383Y0065697D01*
X0047642Y0065572D01*
X0047898Y0065440D01*
X0048151Y0065303D01*
X0048400Y0065159D01*
X0048645Y0065009D01*
X0048887Y0064853D01*
X0049125Y0064692D01*
X0049359Y0064524D01*
X0049589Y0064351D01*
X0049814Y0064173D01*
X0050035Y0063989D01*
X0050252Y0063800D01*
X0050464Y0063605D01*
X0050671Y0063405D01*
X0050873Y0063201D01*
X0051070Y0062991D01*
X0051262Y0062777D01*
X0051448Y0062558D01*
X0051630Y0062335D01*
X0051806Y0062107D01*
X0051976Y0061875D01*
X0052140Y0061639D01*
X0052299Y0061400D01*
X0052452Y0061156D01*
X0052599Y0060909D01*
X0052739Y0060658D01*
X0052874Y0060403D01*
X0053002Y0060146D01*
X0053124Y0059886D01*
X0053240Y0059622D01*
X0053349Y0059356D01*
X0053452Y0059088D01*
X0053548Y0058817D01*
X0053638Y0058543D01*
X0053721Y0058268D01*
X0053797Y0057990D01*
X0053866Y0057711D01*
X0053929Y0057431D01*
X0053985Y0057148D01*
X0054033Y0056865D01*
X0054075Y0056580D01*
X0054110Y0056295D01*
X0054138Y0056009D01*
X0054159Y0055722D01*
X0054173Y0055434D01*
X0054180Y0055147D01*
X0054180Y0054859D01*
X0054173Y0054572D01*
X0054159Y0054284D01*
X0054138Y0053997D01*
X0054110Y0053711D01*
X0054075Y0053426D01*
X0054033Y0053141D01*
X0053985Y0052858D01*
X0053929Y0052575D01*
X0053866Y0052295D01*
X0053797Y0052016D01*
X0053721Y0051738D01*
X0053638Y0051463D01*
X0053548Y0051189D01*
X0053452Y0050918D01*
X0053349Y0050650D01*
X0053240Y0050384D01*
X0053124Y0050120D01*
X0053002Y0049860D01*
X0052874Y0049603D01*
X0052739Y0049348D01*
X0052599Y0049098D01*
X0052452Y0048850D01*
X0052299Y0048606D01*
X0052140Y0048367D01*
X0051976Y0048131D01*
X0051806Y0047899D01*
X0051630Y0047671D01*
X0051448Y0047448D01*
X0051262Y0047229D01*
X0051070Y0047015D01*
X0050873Y0046805D01*
X0050671Y0046601D01*
X0050464Y0046401D01*
X0050252Y0046206D01*
X0050035Y0046017D01*
X0049814Y0045833D01*
X0049589Y0045655D01*
X0049359Y0045482D01*
X0049125Y0045314D01*
X0048887Y0045153D01*
X0048645Y0044997D01*
X0048400Y0044847D01*
X0048151Y0044703D01*
X0047898Y0044566D01*
X0047642Y0044434D01*
X0047383Y0044309D01*
X0047121Y0044190D01*
X0046857Y0044077D01*
X0046589Y0043971D01*
X0046319Y0043872D01*
X0046047Y0043779D01*
X0045773Y0043693D01*
X0045496Y0043613D01*
X0045218Y0043541D01*
X0044938Y0043475D01*
X0044657Y0043415D01*
X0044374Y0043363D01*
X0044090Y0043318D01*
X0043805Y0043279D01*
X0043519Y0043248D01*
X0043232Y0043224D01*
X0042945Y0043206D01*
X0042658Y0043196D01*
X0042370Y0043192D01*
X0032528Y0078625D02*
X0024654Y0078625D01*
X0024530Y0078627D01*
X0024407Y0078633D01*
X0024283Y0078642D01*
X0024161Y0078656D01*
X0024038Y0078673D01*
X0023916Y0078695D01*
X0023795Y0078720D01*
X0023675Y0078749D01*
X0023556Y0078781D01*
X0023437Y0078818D01*
X0023320Y0078858D01*
X0023205Y0078901D01*
X0023090Y0078949D01*
X0022978Y0079000D01*
X0022867Y0079054D01*
X0022757Y0079112D01*
X0022650Y0079173D01*
X0022544Y0079238D01*
X0022441Y0079306D01*
X0022340Y0079377D01*
X0022241Y0079451D01*
X0022144Y0079528D01*
X0022050Y0079609D01*
X0021959Y0079692D01*
X0021870Y0079778D01*
X0021784Y0079867D01*
X0021701Y0079958D01*
X0021620Y0080052D01*
X0021543Y0080149D01*
X0021469Y0080248D01*
X0021398Y0080349D01*
X0021330Y0080452D01*
X0021265Y0080558D01*
X0021204Y0080665D01*
X0021146Y0080775D01*
X0021092Y0080886D01*
X0021041Y0080998D01*
X0020993Y0081113D01*
X0020950Y0081228D01*
X0020910Y0081345D01*
X0020873Y0081464D01*
X0020841Y0081583D01*
X0020812Y0081703D01*
X0020787Y0081824D01*
X0020765Y0081946D01*
X0020748Y0082069D01*
X0020734Y0082191D01*
X0020725Y0082315D01*
X0020719Y0082438D01*
X0020717Y0082562D01*
X0020719Y0082686D01*
X0020725Y0082809D01*
X0020734Y0082933D01*
X0020748Y0083055D01*
X0020765Y0083178D01*
X0020787Y0083300D01*
X0020812Y0083421D01*
X0020841Y0083541D01*
X0020873Y0083660D01*
X0020910Y0083779D01*
X0020950Y0083896D01*
X0020993Y0084011D01*
X0021041Y0084126D01*
X0021092Y0084238D01*
X0021146Y0084349D01*
X0021204Y0084459D01*
X0021265Y0084566D01*
X0021330Y0084672D01*
X0021398Y0084775D01*
X0021469Y0084876D01*
X0021543Y0084975D01*
X0021620Y0085072D01*
X0021701Y0085166D01*
X0021784Y0085257D01*
X0021870Y0085346D01*
X0021959Y0085432D01*
X0022050Y0085515D01*
X0022144Y0085596D01*
X0022241Y0085673D01*
X0022340Y0085747D01*
X0022441Y0085818D01*
X0022544Y0085886D01*
X0022650Y0085951D01*
X0022757Y0086012D01*
X0022867Y0086070D01*
X0022978Y0086124D01*
X0023090Y0086175D01*
X0023205Y0086223D01*
X0023320Y0086266D01*
X0023437Y0086306D01*
X0023556Y0086343D01*
X0023675Y0086375D01*
X0023795Y0086404D01*
X0023916Y0086429D01*
X0024038Y0086451D01*
X0024161Y0086468D01*
X0024283Y0086482D01*
X0024407Y0086491D01*
X0024530Y0086497D01*
X0024654Y0086499D01*
X0032528Y0086499D01*
X0032652Y0086497D01*
X0032775Y0086491D01*
X0032899Y0086482D01*
X0033021Y0086468D01*
X0033144Y0086451D01*
X0033266Y0086429D01*
X0033387Y0086404D01*
X0033507Y0086375D01*
X0033626Y0086343D01*
X0033745Y0086306D01*
X0033862Y0086266D01*
X0033977Y0086223D01*
X0034092Y0086175D01*
X0034204Y0086124D01*
X0034315Y0086070D01*
X0034425Y0086012D01*
X0034532Y0085951D01*
X0034638Y0085886D01*
X0034741Y0085818D01*
X0034842Y0085747D01*
X0034941Y0085673D01*
X0035038Y0085596D01*
X0035132Y0085515D01*
X0035223Y0085432D01*
X0035312Y0085346D01*
X0035398Y0085257D01*
X0035481Y0085166D01*
X0035562Y0085072D01*
X0035639Y0084975D01*
X0035713Y0084876D01*
X0035784Y0084775D01*
X0035852Y0084672D01*
X0035917Y0084566D01*
X0035978Y0084459D01*
X0036036Y0084349D01*
X0036090Y0084238D01*
X0036141Y0084126D01*
X0036189Y0084011D01*
X0036232Y0083896D01*
X0036272Y0083779D01*
X0036309Y0083660D01*
X0036341Y0083541D01*
X0036370Y0083421D01*
X0036395Y0083300D01*
X0036417Y0083178D01*
X0036434Y0083055D01*
X0036448Y0082933D01*
X0036457Y0082809D01*
X0036463Y0082686D01*
X0036465Y0082562D01*
X0036463Y0082438D01*
X0036457Y0082315D01*
X0036448Y0082191D01*
X0036434Y0082069D01*
X0036417Y0081946D01*
X0036395Y0081824D01*
X0036370Y0081703D01*
X0036341Y0081583D01*
X0036309Y0081464D01*
X0036272Y0081345D01*
X0036232Y0081228D01*
X0036189Y0081113D01*
X0036141Y0080998D01*
X0036090Y0080886D01*
X0036036Y0080775D01*
X0035978Y0080665D01*
X0035917Y0080558D01*
X0035852Y0080452D01*
X0035784Y0080349D01*
X0035713Y0080248D01*
X0035639Y0080149D01*
X0035562Y0080052D01*
X0035481Y0079958D01*
X0035398Y0079867D01*
X0035312Y0079778D01*
X0035223Y0079692D01*
X0035132Y0079609D01*
X0035038Y0079528D01*
X0034941Y0079451D01*
X0034842Y0079377D01*
X0034741Y0079306D01*
X0034638Y0079238D01*
X0034532Y0079173D01*
X0034425Y0079112D01*
X0034315Y0079054D01*
X0034204Y0079000D01*
X0034092Y0078949D01*
X0033977Y0078901D01*
X0033862Y0078858D01*
X0033745Y0078818D01*
X0033626Y0078781D01*
X0033507Y0078749D01*
X0033387Y0078720D01*
X0033266Y0078695D01*
X0033144Y0078673D01*
X0033021Y0078656D01*
X0032899Y0078642D01*
X0032775Y0078633D01*
X0032652Y0078627D01*
X0032528Y0078625D01*
X0193945Y0078625D02*
X0201819Y0078625D01*
X0201943Y0078627D01*
X0202066Y0078633D01*
X0202190Y0078642D01*
X0202312Y0078656D01*
X0202435Y0078673D01*
X0202557Y0078695D01*
X0202678Y0078720D01*
X0202798Y0078749D01*
X0202917Y0078781D01*
X0203036Y0078818D01*
X0203153Y0078858D01*
X0203268Y0078901D01*
X0203383Y0078949D01*
X0203495Y0079000D01*
X0203606Y0079054D01*
X0203716Y0079112D01*
X0203823Y0079173D01*
X0203929Y0079238D01*
X0204032Y0079306D01*
X0204133Y0079377D01*
X0204232Y0079451D01*
X0204329Y0079528D01*
X0204423Y0079609D01*
X0204514Y0079692D01*
X0204603Y0079778D01*
X0204689Y0079867D01*
X0204772Y0079958D01*
X0204853Y0080052D01*
X0204930Y0080149D01*
X0205004Y0080248D01*
X0205075Y0080349D01*
X0205143Y0080452D01*
X0205208Y0080558D01*
X0205269Y0080665D01*
X0205327Y0080775D01*
X0205381Y0080886D01*
X0205432Y0080998D01*
X0205480Y0081113D01*
X0205523Y0081228D01*
X0205563Y0081345D01*
X0205600Y0081464D01*
X0205632Y0081583D01*
X0205661Y0081703D01*
X0205686Y0081824D01*
X0205708Y0081946D01*
X0205725Y0082069D01*
X0205739Y0082191D01*
X0205748Y0082315D01*
X0205754Y0082438D01*
X0205756Y0082562D01*
X0205754Y0082686D01*
X0205748Y0082809D01*
X0205739Y0082933D01*
X0205725Y0083055D01*
X0205708Y0083178D01*
X0205686Y0083300D01*
X0205661Y0083421D01*
X0205632Y0083541D01*
X0205600Y0083660D01*
X0205563Y0083779D01*
X0205523Y0083896D01*
X0205480Y0084011D01*
X0205432Y0084126D01*
X0205381Y0084238D01*
X0205327Y0084349D01*
X0205269Y0084459D01*
X0205208Y0084566D01*
X0205143Y0084672D01*
X0205075Y0084775D01*
X0205004Y0084876D01*
X0204930Y0084975D01*
X0204853Y0085072D01*
X0204772Y0085166D01*
X0204689Y0085257D01*
X0204603Y0085346D01*
X0204514Y0085432D01*
X0204423Y0085515D01*
X0204329Y0085596D01*
X0204232Y0085673D01*
X0204133Y0085747D01*
X0204032Y0085818D01*
X0203929Y0085886D01*
X0203823Y0085951D01*
X0203716Y0086012D01*
X0203606Y0086070D01*
X0203495Y0086124D01*
X0203383Y0086175D01*
X0203268Y0086223D01*
X0203153Y0086266D01*
X0203036Y0086306D01*
X0202917Y0086343D01*
X0202798Y0086375D01*
X0202678Y0086404D01*
X0202557Y0086429D01*
X0202435Y0086451D01*
X0202312Y0086468D01*
X0202190Y0086482D01*
X0202066Y0086491D01*
X0201943Y0086497D01*
X0201819Y0086499D01*
X0193945Y0086499D01*
X0193821Y0086497D01*
X0193698Y0086491D01*
X0193574Y0086482D01*
X0193452Y0086468D01*
X0193329Y0086451D01*
X0193207Y0086429D01*
X0193086Y0086404D01*
X0192966Y0086375D01*
X0192847Y0086343D01*
X0192728Y0086306D01*
X0192611Y0086266D01*
X0192496Y0086223D01*
X0192381Y0086175D01*
X0192269Y0086124D01*
X0192158Y0086070D01*
X0192048Y0086012D01*
X0191941Y0085951D01*
X0191835Y0085886D01*
X0191732Y0085818D01*
X0191631Y0085747D01*
X0191532Y0085673D01*
X0191435Y0085596D01*
X0191341Y0085515D01*
X0191250Y0085432D01*
X0191161Y0085346D01*
X0191075Y0085257D01*
X0190992Y0085166D01*
X0190911Y0085072D01*
X0190834Y0084975D01*
X0190760Y0084876D01*
X0190689Y0084775D01*
X0190621Y0084672D01*
X0190556Y0084566D01*
X0190495Y0084459D01*
X0190437Y0084349D01*
X0190383Y0084238D01*
X0190332Y0084126D01*
X0190284Y0084011D01*
X0190241Y0083896D01*
X0190201Y0083779D01*
X0190164Y0083660D01*
X0190132Y0083541D01*
X0190103Y0083421D01*
X0190078Y0083300D01*
X0190056Y0083178D01*
X0190039Y0083055D01*
X0190025Y0082933D01*
X0190016Y0082809D01*
X0190010Y0082686D01*
X0190008Y0082562D01*
X0190010Y0082438D01*
X0190016Y0082315D01*
X0190025Y0082191D01*
X0190039Y0082069D01*
X0190056Y0081946D01*
X0190078Y0081824D01*
X0190103Y0081703D01*
X0190132Y0081583D01*
X0190164Y0081464D01*
X0190201Y0081345D01*
X0190241Y0081228D01*
X0190284Y0081113D01*
X0190332Y0080998D01*
X0190383Y0080886D01*
X0190437Y0080775D01*
X0190495Y0080665D01*
X0190556Y0080558D01*
X0190621Y0080452D01*
X0190689Y0080349D01*
X0190760Y0080248D01*
X0190834Y0080149D01*
X0190911Y0080052D01*
X0190992Y0079958D01*
X0191075Y0079867D01*
X0191161Y0079778D01*
X0191250Y0079692D01*
X0191341Y0079609D01*
X0191435Y0079528D01*
X0191532Y0079451D01*
X0191631Y0079377D01*
X0191732Y0079306D01*
X0191835Y0079238D01*
X0191941Y0079173D01*
X0192048Y0079112D01*
X0192158Y0079054D01*
X0192269Y0079000D01*
X0192381Y0078949D01*
X0192496Y0078901D01*
X0192611Y0078858D01*
X0192728Y0078818D01*
X0192847Y0078781D01*
X0192966Y0078749D01*
X0193086Y0078720D01*
X0193207Y0078695D01*
X0193329Y0078673D01*
X0193452Y0078656D01*
X0193574Y0078642D01*
X0193698Y0078633D01*
X0193821Y0078627D01*
X0193945Y0078625D01*
X0195913Y0066814D02*
X0211661Y0066814D01*
X0211949Y0066810D01*
X0212236Y0066800D01*
X0212523Y0066782D01*
X0212810Y0066758D01*
X0213096Y0066727D01*
X0213381Y0066688D01*
X0213665Y0066643D01*
X0213948Y0066591D01*
X0214229Y0066531D01*
X0214509Y0066465D01*
X0214787Y0066393D01*
X0215064Y0066313D01*
X0215338Y0066227D01*
X0215610Y0066134D01*
X0215880Y0066035D01*
X0216148Y0065929D01*
X0216412Y0065816D01*
X0216674Y0065697D01*
X0216933Y0065572D01*
X0217189Y0065440D01*
X0217442Y0065303D01*
X0217691Y0065159D01*
X0217936Y0065009D01*
X0218178Y0064853D01*
X0218416Y0064692D01*
X0218650Y0064524D01*
X0218880Y0064351D01*
X0219105Y0064173D01*
X0219326Y0063989D01*
X0219543Y0063800D01*
X0219755Y0063605D01*
X0219962Y0063405D01*
X0220164Y0063201D01*
X0220361Y0062991D01*
X0220553Y0062777D01*
X0220739Y0062558D01*
X0220921Y0062335D01*
X0221097Y0062107D01*
X0221267Y0061875D01*
X0221431Y0061639D01*
X0221590Y0061400D01*
X0221743Y0061156D01*
X0221890Y0060909D01*
X0222030Y0060658D01*
X0222165Y0060403D01*
X0222293Y0060146D01*
X0222415Y0059886D01*
X0222531Y0059622D01*
X0222640Y0059356D01*
X0222743Y0059088D01*
X0222839Y0058817D01*
X0222929Y0058543D01*
X0223012Y0058268D01*
X0223088Y0057990D01*
X0223157Y0057711D01*
X0223220Y0057431D01*
X0223276Y0057148D01*
X0223324Y0056865D01*
X0223366Y0056580D01*
X0223401Y0056295D01*
X0223429Y0056009D01*
X0223450Y0055722D01*
X0223464Y0055434D01*
X0223471Y0055147D01*
X0223471Y0054859D01*
X0223464Y0054572D01*
X0223450Y0054284D01*
X0223429Y0053997D01*
X0223401Y0053711D01*
X0223366Y0053426D01*
X0223324Y0053141D01*
X0223276Y0052858D01*
X0223220Y0052575D01*
X0223157Y0052295D01*
X0223088Y0052016D01*
X0223012Y0051738D01*
X0222929Y0051463D01*
X0222839Y0051189D01*
X0222743Y0050918D01*
X0222640Y0050650D01*
X0222531Y0050384D01*
X0222415Y0050120D01*
X0222293Y0049860D01*
X0222165Y0049603D01*
X0222030Y0049348D01*
X0221890Y0049098D01*
X0221743Y0048850D01*
X0221590Y0048606D01*
X0221431Y0048367D01*
X0221267Y0048131D01*
X0221097Y0047899D01*
X0220921Y0047671D01*
X0220739Y0047448D01*
X0220553Y0047229D01*
X0220361Y0047015D01*
X0220164Y0046805D01*
X0219962Y0046601D01*
X0219755Y0046401D01*
X0219543Y0046206D01*
X0219326Y0046017D01*
X0219105Y0045833D01*
X0218880Y0045655D01*
X0218650Y0045482D01*
X0218416Y0045314D01*
X0218178Y0045153D01*
X0217936Y0044997D01*
X0217691Y0044847D01*
X0217442Y0044703D01*
X0217189Y0044566D01*
X0216933Y0044434D01*
X0216674Y0044309D01*
X0216412Y0044190D01*
X0216148Y0044077D01*
X0215880Y0043971D01*
X0215610Y0043872D01*
X0215338Y0043779D01*
X0215064Y0043693D01*
X0214787Y0043613D01*
X0214509Y0043541D01*
X0214229Y0043475D01*
X0213948Y0043415D01*
X0213665Y0043363D01*
X0213381Y0043318D01*
X0213096Y0043279D01*
X0212810Y0043248D01*
X0212523Y0043224D01*
X0212236Y0043206D01*
X0211949Y0043196D01*
X0211661Y0043192D01*
X0195913Y0043192D01*
X0195625Y0043196D01*
X0195338Y0043206D01*
X0195051Y0043224D01*
X0194764Y0043248D01*
X0194478Y0043279D01*
X0194193Y0043318D01*
X0193909Y0043363D01*
X0193626Y0043415D01*
X0193345Y0043475D01*
X0193065Y0043541D01*
X0192787Y0043613D01*
X0192510Y0043693D01*
X0192236Y0043779D01*
X0191964Y0043872D01*
X0191694Y0043971D01*
X0191426Y0044077D01*
X0191162Y0044190D01*
X0190900Y0044309D01*
X0190641Y0044434D01*
X0190385Y0044566D01*
X0190132Y0044703D01*
X0189883Y0044847D01*
X0189638Y0044997D01*
X0189396Y0045153D01*
X0189158Y0045314D01*
X0188924Y0045482D01*
X0188694Y0045655D01*
X0188469Y0045833D01*
X0188248Y0046017D01*
X0188031Y0046206D01*
X0187819Y0046401D01*
X0187612Y0046601D01*
X0187410Y0046805D01*
X0187213Y0047015D01*
X0187021Y0047229D01*
X0186835Y0047448D01*
X0186653Y0047671D01*
X0186477Y0047899D01*
X0186307Y0048131D01*
X0186143Y0048367D01*
X0185984Y0048606D01*
X0185831Y0048850D01*
X0185684Y0049097D01*
X0185544Y0049348D01*
X0185409Y0049603D01*
X0185281Y0049860D01*
X0185159Y0050120D01*
X0185043Y0050384D01*
X0184934Y0050650D01*
X0184831Y0050918D01*
X0184735Y0051189D01*
X0184645Y0051463D01*
X0184562Y0051738D01*
X0184486Y0052016D01*
X0184417Y0052295D01*
X0184354Y0052575D01*
X0184298Y0052858D01*
X0184250Y0053141D01*
X0184208Y0053426D01*
X0184173Y0053711D01*
X0184145Y0053997D01*
X0184124Y0054284D01*
X0184110Y0054572D01*
X0184103Y0054859D01*
X0184103Y0055147D01*
X0184110Y0055434D01*
X0184124Y0055722D01*
X0184145Y0056009D01*
X0184173Y0056295D01*
X0184208Y0056580D01*
X0184250Y0056865D01*
X0184298Y0057148D01*
X0184354Y0057431D01*
X0184417Y0057711D01*
X0184486Y0057990D01*
X0184562Y0058268D01*
X0184645Y0058543D01*
X0184735Y0058817D01*
X0184831Y0059088D01*
X0184934Y0059356D01*
X0185043Y0059622D01*
X0185159Y0059886D01*
X0185281Y0060146D01*
X0185409Y0060403D01*
X0185544Y0060658D01*
X0185684Y0060908D01*
X0185831Y0061156D01*
X0185984Y0061400D01*
X0186143Y0061639D01*
X0186307Y0061875D01*
X0186477Y0062107D01*
X0186653Y0062335D01*
X0186835Y0062558D01*
X0187021Y0062777D01*
X0187213Y0062991D01*
X0187410Y0063201D01*
X0187612Y0063405D01*
X0187819Y0063605D01*
X0188031Y0063800D01*
X0188248Y0063989D01*
X0188469Y0064173D01*
X0188694Y0064351D01*
X0188924Y0064524D01*
X0189158Y0064692D01*
X0189396Y0064853D01*
X0189638Y0065009D01*
X0189883Y0065159D01*
X0190132Y0065303D01*
X0190385Y0065440D01*
X0190641Y0065572D01*
X0190900Y0065697D01*
X0191162Y0065816D01*
X0191426Y0065929D01*
X0191694Y0066035D01*
X0191964Y0066134D01*
X0192236Y0066227D01*
X0192510Y0066313D01*
X0192787Y0066393D01*
X0193065Y0066465D01*
X0193345Y0066531D01*
X0193626Y0066591D01*
X0193909Y0066643D01*
X0194193Y0066688D01*
X0194478Y0066727D01*
X0194764Y0066758D01*
X0195051Y0066782D01*
X0195338Y0066800D01*
X0195625Y0066810D01*
X0195913Y0066814D01*
X0205756Y0031381D02*
X0213630Y0031381D01*
X0213754Y0031379D01*
X0213877Y0031373D01*
X0214001Y0031364D01*
X0214123Y0031350D01*
X0214246Y0031333D01*
X0214368Y0031311D01*
X0214489Y0031286D01*
X0214609Y0031257D01*
X0214728Y0031225D01*
X0214847Y0031188D01*
X0214964Y0031148D01*
X0215079Y0031105D01*
X0215194Y0031057D01*
X0215306Y0031006D01*
X0215417Y0030952D01*
X0215527Y0030894D01*
X0215634Y0030833D01*
X0215740Y0030768D01*
X0215843Y0030700D01*
X0215944Y0030629D01*
X0216043Y0030555D01*
X0216140Y0030478D01*
X0216234Y0030397D01*
X0216325Y0030314D01*
X0216414Y0030228D01*
X0216500Y0030139D01*
X0216583Y0030048D01*
X0216664Y0029954D01*
X0216741Y0029857D01*
X0216815Y0029758D01*
X0216886Y0029657D01*
X0216954Y0029554D01*
X0217019Y0029448D01*
X0217080Y0029341D01*
X0217138Y0029231D01*
X0217192Y0029120D01*
X0217243Y0029008D01*
X0217291Y0028893D01*
X0217334Y0028778D01*
X0217374Y0028661D01*
X0217411Y0028542D01*
X0217443Y0028423D01*
X0217472Y0028303D01*
X0217497Y0028182D01*
X0217519Y0028060D01*
X0217536Y0027937D01*
X0217550Y0027815D01*
X0217559Y0027691D01*
X0217565Y0027568D01*
X0217567Y0027444D01*
X0217565Y0027320D01*
X0217559Y0027197D01*
X0217550Y0027073D01*
X0217536Y0026951D01*
X0217519Y0026828D01*
X0217497Y0026706D01*
X0217472Y0026585D01*
X0217443Y0026465D01*
X0217411Y0026346D01*
X0217374Y0026227D01*
X0217334Y0026110D01*
X0217291Y0025995D01*
X0217243Y0025880D01*
X0217192Y0025768D01*
X0217138Y0025657D01*
X0217080Y0025547D01*
X0217019Y0025440D01*
X0216954Y0025334D01*
X0216886Y0025231D01*
X0216815Y0025130D01*
X0216741Y0025031D01*
X0216664Y0024934D01*
X0216583Y0024840D01*
X0216500Y0024749D01*
X0216414Y0024660D01*
X0216325Y0024574D01*
X0216234Y0024491D01*
X0216140Y0024410D01*
X0216043Y0024333D01*
X0215944Y0024259D01*
X0215843Y0024188D01*
X0215740Y0024120D01*
X0215634Y0024055D01*
X0215527Y0023994D01*
X0215417Y0023936D01*
X0215306Y0023882D01*
X0215194Y0023831D01*
X0215079Y0023783D01*
X0214964Y0023740D01*
X0214847Y0023700D01*
X0214728Y0023663D01*
X0214609Y0023631D01*
X0214489Y0023602D01*
X0214368Y0023577D01*
X0214246Y0023555D01*
X0214123Y0023538D01*
X0214001Y0023524D01*
X0213877Y0023515D01*
X0213754Y0023509D01*
X0213630Y0023507D01*
X0205756Y0023507D01*
X0205632Y0023509D01*
X0205509Y0023515D01*
X0205385Y0023524D01*
X0205263Y0023538D01*
X0205140Y0023555D01*
X0205018Y0023577D01*
X0204897Y0023602D01*
X0204777Y0023631D01*
X0204658Y0023663D01*
X0204539Y0023700D01*
X0204422Y0023740D01*
X0204307Y0023783D01*
X0204192Y0023831D01*
X0204080Y0023882D01*
X0203969Y0023936D01*
X0203859Y0023994D01*
X0203752Y0024055D01*
X0203646Y0024120D01*
X0203543Y0024188D01*
X0203442Y0024259D01*
X0203343Y0024333D01*
X0203246Y0024410D01*
X0203152Y0024491D01*
X0203061Y0024574D01*
X0202972Y0024660D01*
X0202886Y0024749D01*
X0202803Y0024840D01*
X0202722Y0024934D01*
X0202645Y0025031D01*
X0202571Y0025130D01*
X0202500Y0025231D01*
X0202432Y0025334D01*
X0202367Y0025440D01*
X0202306Y0025547D01*
X0202248Y0025657D01*
X0202194Y0025768D01*
X0202143Y0025880D01*
X0202095Y0025995D01*
X0202052Y0026110D01*
X0202012Y0026227D01*
X0201975Y0026346D01*
X0201943Y0026465D01*
X0201914Y0026585D01*
X0201889Y0026706D01*
X0201867Y0026828D01*
X0201850Y0026951D01*
X0201836Y0027073D01*
X0201827Y0027197D01*
X0201821Y0027320D01*
X0201819Y0027444D01*
X0201821Y0027568D01*
X0201827Y0027691D01*
X0201836Y0027815D01*
X0201850Y0027937D01*
X0201867Y0028060D01*
X0201889Y0028182D01*
X0201914Y0028303D01*
X0201943Y0028423D01*
X0201975Y0028542D01*
X0202012Y0028661D01*
X0202052Y0028778D01*
X0202095Y0028893D01*
X0202143Y0029008D01*
X0202194Y0029120D01*
X0202248Y0029231D01*
X0202306Y0029341D01*
X0202367Y0029448D01*
X0202432Y0029554D01*
X0202500Y0029657D01*
X0202571Y0029758D01*
X0202645Y0029857D01*
X0202722Y0029954D01*
X0202803Y0030048D01*
X0202886Y0030139D01*
X0202972Y0030228D01*
X0203061Y0030314D01*
X0203152Y0030397D01*
X0203246Y0030478D01*
X0203343Y0030555D01*
X0203442Y0030629D01*
X0203543Y0030700D01*
X0203646Y0030768D01*
X0203752Y0030833D01*
X0203859Y0030894D01*
X0203969Y0030952D01*
X0204080Y0031006D01*
X0204192Y0031057D01*
X0204307Y0031105D01*
X0204422Y0031148D01*
X0204539Y0031188D01*
X0204658Y0031225D01*
X0204777Y0031257D01*
X0204897Y0031286D01*
X0205018Y0031311D01*
X0205140Y0031333D01*
X0205263Y0031350D01*
X0205385Y0031364D01*
X0205509Y0031373D01*
X0205632Y0031379D01*
X0205756Y0031381D01*
D11*
X0154887Y0061801D02*
X0154887Y0065929D01*
X0152823Y0065929D01*
X0152135Y0065241D01*
X0152135Y0063865D01*
X0152823Y0063177D01*
X0154887Y0063177D01*
X0156485Y0063865D02*
X0156485Y0066617D01*
X0157173Y0067305D01*
X0158549Y0067305D01*
X0159237Y0066617D01*
X0159237Y0063865D01*
X0158549Y0063177D01*
X0157173Y0063177D01*
X0156485Y0063865D01*
X0160761Y0063177D02*
X0162137Y0063177D01*
X0162137Y0067305D01*
X0160761Y0067305D01*
X0161086Y0070263D02*
X0161086Y0073015D01*
X0161774Y0073015D01*
X0163336Y0073015D02*
X0164024Y0073015D01*
X0165400Y0071639D01*
X0165400Y0070263D02*
X0165400Y0073015D01*
X0166998Y0073015D02*
X0166998Y0073703D01*
X0167686Y0074391D01*
X0169750Y0074391D01*
X0169750Y0070263D01*
X0167686Y0070263D01*
X0166998Y0070951D01*
X0166998Y0071639D01*
X0167686Y0072327D01*
X0169750Y0072327D01*
X0167686Y0072327D02*
X0166998Y0073015D01*
X0161774Y0070263D02*
X0160398Y0070263D01*
X0158186Y0070951D02*
X0157498Y0070263D01*
X0158186Y0070951D02*
X0158186Y0073703D01*
X0158874Y0073015D02*
X0157498Y0073015D01*
X0155974Y0074391D02*
X0153222Y0070263D01*
X0153222Y0074391D01*
X0155974Y0074391D02*
X0155974Y0070263D01*
X0151624Y0070951D02*
X0151624Y0072327D01*
X0150936Y0073015D01*
X0149560Y0073015D01*
X0148872Y0072327D01*
X0148872Y0071639D01*
X0151624Y0071639D01*
X0151624Y0070951D02*
X0150936Y0070263D01*
X0149560Y0070263D01*
X0147274Y0070263D02*
X0147274Y0073015D01*
X0147274Y0071639D02*
X0145898Y0073015D01*
X0145210Y0073015D01*
X0143649Y0072327D02*
X0142273Y0072327D01*
X0142961Y0073703D02*
X0142273Y0074391D01*
X0142961Y0073703D02*
X0142961Y0070263D01*
X0146948Y0067993D02*
X0146948Y0067305D01*
X0146948Y0065929D02*
X0146948Y0063177D01*
X0147636Y0063177D02*
X0146260Y0063177D01*
X0144736Y0063865D02*
X0144048Y0063177D01*
X0142672Y0063177D01*
X0141984Y0063865D01*
X0141984Y0065241D01*
X0142672Y0065929D01*
X0144048Y0065929D01*
X0144736Y0065241D01*
X0144736Y0063865D01*
X0149160Y0063177D02*
X0149848Y0063865D01*
X0149848Y0066617D01*
X0150536Y0065929D02*
X0149160Y0065929D01*
X0147636Y0065929D02*
X0146948Y0065929D01*
X0140386Y0065929D02*
X0140386Y0063177D01*
X0137634Y0063177D02*
X0137634Y0065241D01*
X0138322Y0065929D01*
X0140386Y0065929D01*
X0136036Y0063865D02*
X0135348Y0064553D01*
X0133284Y0064553D01*
X0133284Y0065241D02*
X0133284Y0063177D01*
X0135348Y0063177D01*
X0136036Y0063865D01*
X0133972Y0065929D02*
X0133284Y0065241D01*
X0133972Y0065929D02*
X0135348Y0065929D01*
X0131686Y0067305D02*
X0130998Y0067305D01*
X0130998Y0063177D01*
X0131686Y0063177D02*
X0130310Y0063177D01*
X0124435Y0063865D02*
X0124435Y0066617D01*
X0123747Y0067305D01*
X0122371Y0067305D01*
X0121683Y0066617D01*
X0120085Y0065241D02*
X0120085Y0063865D01*
X0119397Y0063177D01*
X0118021Y0063177D01*
X0117333Y0063865D01*
X0117333Y0065241D01*
X0118021Y0065929D01*
X0119397Y0065929D01*
X0120085Y0065241D01*
X0121683Y0063865D02*
X0122371Y0063177D01*
X0123747Y0063177D01*
X0124435Y0063865D01*
X0115735Y0063177D02*
X0115735Y0065929D01*
X0115047Y0065929D01*
X0114359Y0065241D01*
X0113671Y0065929D01*
X0112983Y0065241D01*
X0112983Y0063177D01*
X0114359Y0063177D02*
X0114359Y0065241D01*
X0111385Y0065929D02*
X0109321Y0065929D01*
X0108633Y0065241D01*
X0108633Y0063865D01*
X0109321Y0063177D01*
X0111385Y0063177D01*
X0111385Y0061801D02*
X0111385Y0065929D01*
X0107035Y0065241D02*
X0107035Y0063865D01*
X0106347Y0063177D01*
X0104971Y0063177D01*
X0104283Y0063865D01*
X0104283Y0065241D01*
X0104971Y0065929D01*
X0106347Y0065929D01*
X0107035Y0065241D01*
X0102685Y0065929D02*
X0102685Y0063177D01*
X0099933Y0063177D02*
X0099933Y0065241D01*
X0100621Y0065929D01*
X0102685Y0065929D01*
X0098334Y0065241D02*
X0098334Y0063865D01*
X0097646Y0063177D01*
X0096270Y0063177D01*
X0095582Y0064553D02*
X0098334Y0064553D01*
X0098334Y0065241D02*
X0097646Y0065929D01*
X0096270Y0065929D01*
X0095582Y0065241D01*
X0095582Y0064553D01*
X0093984Y0063177D02*
X0093984Y0065929D01*
X0091920Y0065929D01*
X0091232Y0065241D01*
X0091232Y0063177D01*
X0088946Y0063865D02*
X0088258Y0063177D01*
X0088946Y0063865D02*
X0088946Y0066617D01*
X0089634Y0065929D02*
X0088258Y0065929D01*
X0086734Y0065241D02*
X0086046Y0065929D01*
X0083982Y0065929D01*
X0082384Y0067305D02*
X0081008Y0067305D01*
X0081008Y0063177D01*
X0082384Y0063177D01*
X0083982Y0063865D02*
X0084670Y0064553D01*
X0086046Y0064553D01*
X0086734Y0065241D01*
X0086734Y0063177D02*
X0084670Y0063177D01*
X0083982Y0063865D01*
X0085720Y0070263D02*
X0084345Y0073015D01*
X0082746Y0073703D02*
X0082058Y0074391D01*
X0080682Y0074391D01*
X0079994Y0073703D01*
X0082746Y0070951D01*
X0082058Y0070263D01*
X0080682Y0070263D01*
X0079994Y0070951D01*
X0079994Y0073703D01*
X0082746Y0073703D02*
X0082746Y0070951D01*
X0085720Y0070263D02*
X0087096Y0073015D01*
X0093045Y0073015D02*
X0095109Y0073015D01*
X0095797Y0072327D01*
X0095797Y0070951D01*
X0095109Y0070263D01*
X0093045Y0070263D01*
X0093045Y0074391D01*
X0097358Y0073015D02*
X0098046Y0073015D01*
X0099422Y0071639D01*
X0099422Y0070263D02*
X0099422Y0073015D01*
X0101020Y0072327D02*
X0101020Y0070263D01*
X0103084Y0070263D01*
X0103772Y0070951D01*
X0103084Y0071639D01*
X0101020Y0071639D01*
X0101020Y0072327D02*
X0101708Y0073015D01*
X0103084Y0073015D01*
X0105370Y0072327D02*
X0106058Y0073015D01*
X0107434Y0073015D01*
X0108122Y0072327D01*
X0108122Y0070951D01*
X0107434Y0070263D01*
X0106058Y0070263D01*
X0105370Y0070951D01*
X0105370Y0072327D01*
X0109721Y0071639D02*
X0109721Y0070951D01*
X0110409Y0070263D01*
X0112472Y0070263D01*
X0112472Y0074391D01*
X0110409Y0074391D01*
X0109721Y0073703D01*
X0109721Y0073015D01*
X0110409Y0072327D01*
X0112472Y0072327D01*
X0110409Y0072327D02*
X0109721Y0071639D01*
X0118384Y0073015D02*
X0119072Y0073015D01*
X0120448Y0071639D01*
X0120448Y0070263D02*
X0120448Y0073015D01*
X0122046Y0072327D02*
X0122734Y0073015D01*
X0124110Y0073015D01*
X0124798Y0072327D01*
X0124798Y0070951D01*
X0124110Y0070263D01*
X0122734Y0070263D01*
X0122046Y0070951D01*
X0122046Y0072327D01*
X0126322Y0073015D02*
X0127698Y0073015D01*
X0127010Y0073703D02*
X0127010Y0070951D01*
X0126322Y0070263D01*
X0129296Y0070951D02*
X0129296Y0072327D01*
X0129984Y0073015D01*
X0131360Y0073015D01*
X0132048Y0072327D01*
X0132048Y0070951D01*
X0131360Y0070263D01*
X0129984Y0070263D01*
X0129296Y0070951D01*
X0133646Y0070263D02*
X0133646Y0074391D01*
X0135022Y0073015D01*
X0136398Y0074391D01*
X0136398Y0070263D01*
X0161086Y0074391D02*
X0161086Y0075079D01*
X0078396Y0070951D02*
X0077708Y0070951D01*
X0077708Y0070263D01*
X0078396Y0070263D01*
X0078396Y0070951D01*
X0076221Y0070263D02*
X0073469Y0073015D01*
X0073469Y0073703D01*
X0074157Y0074391D01*
X0075533Y0074391D01*
X0076221Y0073703D01*
X0076221Y0070263D02*
X0073469Y0070263D01*
M02*
