G75*
%MOIN*%
%OFA0B0*%
%FSLAX25Y25*%
%IPPOS*%
%LPD*%
%AMOC8*
5,1,8,0,0,1.08239X$1,22.5*
%
%ADD10C,0.00000*%
%ADD11C,0.00500*%
%ADD12C,0.00600*%
%ADD13C,0.00300*%
%ADD14C,0.01200*%
%ADD15R,0.00315X0.00039*%
%ADD16R,0.00394X0.00039*%
%ADD17R,0.00433X0.00039*%
%ADD18R,0.00472X0.00039*%
%ADD19R,0.00551X0.00039*%
%ADD20R,0.00709X0.00039*%
%ADD21R,0.00669X0.00039*%
%ADD22R,0.00748X0.00039*%
%ADD23R,0.00512X0.00039*%
%ADD24R,0.01142X0.00039*%
%ADD25R,0.00866X0.00039*%
%ADD26R,0.00906X0.00039*%
%ADD27R,0.01220X0.00039*%
%ADD28R,0.00945X0.00039*%
%ADD29R,0.00787X0.00039*%
%ADD30R,0.01024X0.00039*%
%ADD31R,0.01260X0.00039*%
%ADD32R,0.01102X0.00039*%
%ADD33R,0.01299X0.00039*%
%ADD34R,0.01063X0.00039*%
%ADD35R,0.01339X0.00039*%
%ADD36R,0.00591X0.00039*%
%ADD37R,0.01181X0.00039*%
%ADD38R,0.00827X0.00039*%
%ADD39R,0.01378X0.00039*%
%ADD40R,0.00630X0.00039*%
%ADD41R,0.00118X0.00039*%
%ADD42R,0.00197X0.00039*%
%ADD43R,0.00079X0.00039*%
%ADD44R,0.00354X0.00039*%
%ADD45R,0.00984X0.00039*%
%ADD46R,0.00157X0.00039*%
%ADD47R,0.01417X0.00039*%
%ADD48R,0.00276X0.00039*%
%ADD49R,0.04921X0.00039*%
%ADD50R,0.02441X0.00039*%
%ADD51R,0.02913X0.00039*%
%ADD52R,0.04449X0.00039*%
%ADD53R,0.05433X0.00039*%
%ADD54R,0.03307X0.00039*%
%ADD55R,0.03701X0.00039*%
%ADD56R,0.04961X0.00039*%
%ADD57R,0.05709X0.00039*%
%ADD58R,0.04173X0.00039*%
%ADD59R,0.05197X0.00039*%
%ADD60R,0.05906X0.00039*%
%ADD61R,0.04094X0.00039*%
%ADD62R,0.04488X0.00039*%
%ADD63R,0.05394X0.00039*%
%ADD64R,0.06063X0.00039*%
%ADD65R,0.04331X0.00039*%
%ADD66R,0.04764X0.00039*%
%ADD67R,0.05512X0.00039*%
%ADD68R,0.06181X0.00039*%
%ADD69R,0.04567X0.00039*%
%ADD70R,0.05630X0.00039*%
%ADD71R,0.06260X0.00039*%
%ADD72R,0.04724X0.00039*%
%ADD73R,0.05118X0.00039*%
%ADD74R,0.05748X0.00039*%
%ADD75R,0.06339X0.00039*%
%ADD76R,0.04882X0.00039*%
%ADD77R,0.05315X0.00039*%
%ADD78R,0.05827X0.00039*%
%ADD79R,0.06417X0.00039*%
%ADD80R,0.05039X0.00039*%
%ADD81R,0.06496X0.00039*%
%ADD82R,0.05591X0.00039*%
%ADD83R,0.05945X0.00039*%
%ADD84R,0.06535X0.00039*%
%ADD85R,0.05276X0.00039*%
%ADD86R,0.05669X0.00039*%
%ADD87R,0.06024X0.00039*%
%ADD88R,0.06614X0.00039*%
%ADD89R,0.05354X0.00039*%
%ADD90R,0.05787X0.00039*%
%ADD91R,0.06654X0.00039*%
%ADD92R,0.05866X0.00039*%
%ADD93R,0.06102X0.00039*%
%ADD94R,0.06693X0.00039*%
%ADD95R,0.05984X0.00039*%
%ADD96R,0.06142X0.00039*%
%ADD97R,0.06732X0.00039*%
%ADD98R,0.06772X0.00039*%
%ADD99R,0.06811X0.00039*%
%ADD100R,0.06220X0.00039*%
%ADD101R,0.06850X0.00039*%
%ADD102R,0.06890X0.00039*%
%ADD103R,0.06299X0.00039*%
%ADD104R,0.01732X0.00039*%
%ADD105R,0.01693X0.00039*%
%ADD106R,0.01850X0.00039*%
%ADD107R,0.01535X0.00039*%
%ADD108R,0.01496X0.00039*%
%ADD109R,0.01457X0.00039*%
%ADD110R,0.01654X0.00039*%
%ADD111R,0.06378X0.00039*%
%ADD112R,0.06575X0.00039*%
%ADD113R,0.06457X0.00039*%
%ADD114R,0.01772X0.00039*%
%ADD115R,0.02717X0.00039*%
%ADD116R,0.02992X0.00039*%
%ADD117R,0.02795X0.00039*%
%ADD118R,0.03071X0.00039*%
%ADD119R,0.02835X0.00039*%
%ADD120R,0.03031X0.00039*%
%ADD121R,0.02874X0.00039*%
%ADD122R,0.02953X0.00039*%
%ADD123R,0.02756X0.00039*%
%ADD124R,0.02677X0.00039*%
%ADD125R,0.02638X0.00039*%
%ADD126R,0.02520X0.00039*%
%ADD127R,0.02362X0.00039*%
%ADD128R,0.02205X0.00039*%
%ADD129R,0.02008X0.00039*%
%ADD130R,0.05157X0.00039*%
%ADD131R,0.02480X0.00039*%
%ADD132R,0.01811X0.00039*%
%ADD133R,0.02598X0.00039*%
%ADD134R,0.02559X0.00039*%
%ADD135R,0.02402X0.00039*%
%ADD136R,0.02283X0.00039*%
%ADD137R,0.02087X0.00039*%
%ADD138R,0.01890X0.00039*%
%ADD139C,0.00800*%
%ADD140R,0.02000X0.10000*%
%ADD141R,0.07500X0.03000*%
D10*
X0001727Y0011499D02*
X0001727Y0011538D01*
X0001754Y0011564D01*
X0001754Y0011577D01*
X0001773Y0011551D02*
X0001773Y0011538D01*
X0001787Y0011538D01*
X0001787Y0011551D01*
X0001773Y0011551D01*
X0001773Y0011512D02*
X0001773Y0011499D01*
X0001787Y0011499D01*
X0001787Y0011512D01*
X0001773Y0011512D01*
X0001810Y0011499D02*
X0001862Y0011577D01*
X0001882Y0011577D02*
X0001922Y0011577D01*
X0001935Y0011564D01*
X0001935Y0011551D01*
X0001922Y0011538D01*
X0001882Y0011538D01*
X0001882Y0011499D02*
X0001922Y0011499D01*
X0001935Y0011512D01*
X0001935Y0011525D01*
X0001922Y0011538D01*
X0001955Y0011538D02*
X0001955Y0011512D01*
X0001968Y0011499D01*
X0001994Y0011499D01*
X0002007Y0011512D01*
X0002007Y0011538D01*
X0001994Y0011551D01*
X0001968Y0011551D01*
X0001955Y0011538D01*
X0002027Y0011538D02*
X0002054Y0011538D01*
X0002076Y0011538D02*
X0002102Y0011538D01*
X0002089Y0011564D02*
X0002102Y0011577D01*
X0002089Y0011564D02*
X0002089Y0011499D01*
X0002040Y0011499D02*
X0002040Y0011564D01*
X0002054Y0011577D01*
X0002124Y0011577D02*
X0002176Y0011577D01*
X0002150Y0011577D02*
X0002150Y0011499D01*
X0002196Y0011512D02*
X0002210Y0011525D01*
X0002249Y0011525D01*
X0002249Y0011538D02*
X0002249Y0011499D01*
X0002210Y0011499D01*
X0002196Y0011512D01*
X0002210Y0011551D02*
X0002236Y0011551D01*
X0002249Y0011538D01*
X0002269Y0011538D02*
X0002269Y0011512D01*
X0002282Y0011499D01*
X0002321Y0011499D01*
X0002341Y0011499D02*
X0002394Y0011577D01*
X0002414Y0011577D02*
X0002414Y0011499D01*
X0002466Y0011499D01*
X0002486Y0011512D02*
X0002500Y0011499D01*
X0002526Y0011499D01*
X0002539Y0011512D01*
X0002539Y0011538D01*
X0002526Y0011551D01*
X0002500Y0011551D01*
X0002486Y0011538D01*
X0002486Y0011512D01*
X0002559Y0011512D02*
X0002572Y0011499D01*
X0002611Y0011499D01*
X0002611Y0011486D02*
X0002611Y0011551D01*
X0002572Y0011551D01*
X0002559Y0011538D01*
X0002559Y0011512D01*
X0002585Y0011472D02*
X0002598Y0011472D01*
X0002611Y0011486D01*
X0002631Y0011512D02*
X0002645Y0011499D01*
X0002671Y0011499D01*
X0002684Y0011512D01*
X0002684Y0011538D01*
X0002671Y0011551D01*
X0002645Y0011551D01*
X0002631Y0011538D01*
X0002631Y0011512D01*
X0002704Y0011499D02*
X0002756Y0011577D01*
X0002776Y0011551D02*
X0002790Y0011551D01*
X0002803Y0011538D01*
X0002816Y0011551D01*
X0002829Y0011538D01*
X0002829Y0011499D01*
X0002849Y0011512D02*
X0002862Y0011499D01*
X0002888Y0011499D01*
X0002901Y0011512D01*
X0002901Y0011538D01*
X0002888Y0011551D01*
X0002862Y0011551D01*
X0002849Y0011538D01*
X0002849Y0011512D01*
X0002803Y0011499D02*
X0002803Y0011538D01*
X0002776Y0011551D02*
X0002776Y0011499D01*
X0002921Y0011499D02*
X0002921Y0011551D01*
X0002961Y0011551D01*
X0002974Y0011538D01*
X0002974Y0011499D01*
X0002994Y0011512D02*
X0003007Y0011499D01*
X0003033Y0011499D01*
X0003046Y0011512D01*
X0003046Y0011538D01*
X0003033Y0011551D01*
X0003007Y0011551D01*
X0002994Y0011538D01*
X0002994Y0011512D01*
X0003066Y0011499D02*
X0003093Y0011499D01*
X0003080Y0011499D02*
X0003080Y0011577D01*
X0003066Y0011577D01*
X0003115Y0011538D02*
X0003115Y0011512D01*
X0003128Y0011499D01*
X0003154Y0011499D01*
X0003167Y0011512D01*
X0003167Y0011538D01*
X0003154Y0011551D01*
X0003128Y0011551D01*
X0003115Y0011538D01*
X0003187Y0011538D02*
X0003187Y0011512D01*
X0003200Y0011499D01*
X0003240Y0011499D01*
X0003240Y0011486D02*
X0003240Y0011551D01*
X0003200Y0011551D01*
X0003187Y0011538D01*
X0003214Y0011472D02*
X0003227Y0011472D01*
X0003240Y0011486D01*
X0003260Y0011512D02*
X0003273Y0011499D01*
X0003299Y0011499D01*
X0003312Y0011512D01*
X0003312Y0011538D01*
X0003299Y0011551D01*
X0003273Y0011551D01*
X0003260Y0011538D01*
X0003260Y0011512D01*
X0003332Y0011538D02*
X0003385Y0011538D01*
X0003405Y0011551D02*
X0003405Y0011512D01*
X0003418Y0011499D01*
X0003431Y0011512D01*
X0003444Y0011499D01*
X0003457Y0011512D01*
X0003457Y0011551D01*
X0003477Y0011538D02*
X0003530Y0011538D01*
X0003550Y0011512D02*
X0003563Y0011525D01*
X0003602Y0011525D01*
X0003602Y0011538D02*
X0003602Y0011499D01*
X0003563Y0011499D01*
X0003550Y0011512D01*
X0003563Y0011551D02*
X0003589Y0011551D01*
X0003602Y0011538D01*
X0003622Y0011538D02*
X0003635Y0011551D01*
X0003675Y0011551D01*
X0003695Y0011538D02*
X0003708Y0011551D01*
X0003747Y0011551D01*
X0003767Y0011551D02*
X0003767Y0011499D01*
X0003747Y0011499D02*
X0003708Y0011499D01*
X0003695Y0011512D01*
X0003695Y0011538D01*
X0003675Y0011499D02*
X0003635Y0011499D01*
X0003622Y0011512D01*
X0003622Y0011538D01*
X0003675Y0011577D02*
X0003675Y0011499D01*
X0003747Y0011499D02*
X0003747Y0011577D01*
X0003794Y0011551D02*
X0003807Y0011551D01*
X0003794Y0011551D02*
X0003767Y0011525D01*
X0003828Y0011525D02*
X0003880Y0011525D01*
X0003880Y0011538D01*
X0003867Y0011551D01*
X0003841Y0011551D01*
X0003828Y0011538D01*
X0003828Y0011512D01*
X0003841Y0011499D01*
X0003867Y0011499D01*
X0003900Y0011499D02*
X0003940Y0011499D01*
X0003953Y0011512D01*
X0003940Y0011525D01*
X0003913Y0011525D01*
X0003900Y0011538D01*
X0003913Y0011551D01*
X0003953Y0011551D01*
X0003973Y0011538D02*
X0003986Y0011551D01*
X0004025Y0011551D01*
X0004012Y0011525D02*
X0003986Y0011525D01*
X0003973Y0011538D01*
X0003973Y0011499D02*
X0004012Y0011499D01*
X0004025Y0011512D01*
X0004012Y0011525D01*
X0004045Y0011512D02*
X0004058Y0011512D01*
X0004058Y0011499D01*
X0004045Y0011499D01*
X0004045Y0011512D01*
X0004081Y0011499D02*
X0004121Y0011499D01*
X0004134Y0011512D01*
X0004134Y0011538D01*
X0004121Y0011551D01*
X0004081Y0011551D01*
X0004081Y0011577D02*
X0004081Y0011499D01*
X0004154Y0011499D02*
X0004154Y0011551D01*
X0004167Y0011551D01*
X0004180Y0011538D01*
X0004193Y0011551D01*
X0004206Y0011538D01*
X0004206Y0011499D01*
X0004226Y0011499D02*
X0004266Y0011499D01*
X0004279Y0011512D01*
X0004279Y0011538D01*
X0004266Y0011551D01*
X0004226Y0011551D01*
X0004226Y0011472D01*
X0004180Y0011499D02*
X0004180Y0011538D01*
X0003000Y0011696D02*
X0003000Y0102247D01*
X0239220Y0102247D01*
X0239220Y0011696D01*
X0003000Y0011696D01*
X0002321Y0011551D02*
X0002282Y0011551D01*
X0002269Y0011538D01*
X0001882Y0011499D02*
X0001882Y0011577D01*
X0001727Y0011538D02*
X0001701Y0011564D01*
X0001701Y0011577D01*
X0036465Y0023507D02*
X0044339Y0023507D01*
X0044463Y0023509D01*
X0044586Y0023515D01*
X0044710Y0023524D01*
X0044832Y0023538D01*
X0044955Y0023555D01*
X0045077Y0023577D01*
X0045198Y0023602D01*
X0045318Y0023631D01*
X0045437Y0023663D01*
X0045556Y0023700D01*
X0045673Y0023740D01*
X0045788Y0023783D01*
X0045903Y0023831D01*
X0046015Y0023882D01*
X0046126Y0023936D01*
X0046236Y0023994D01*
X0046343Y0024055D01*
X0046449Y0024120D01*
X0046552Y0024188D01*
X0046653Y0024259D01*
X0046752Y0024333D01*
X0046849Y0024410D01*
X0046943Y0024491D01*
X0047034Y0024574D01*
X0047123Y0024660D01*
X0047209Y0024749D01*
X0047292Y0024840D01*
X0047373Y0024934D01*
X0047450Y0025031D01*
X0047524Y0025130D01*
X0047595Y0025231D01*
X0047663Y0025334D01*
X0047728Y0025440D01*
X0047789Y0025547D01*
X0047847Y0025657D01*
X0047901Y0025768D01*
X0047952Y0025880D01*
X0048000Y0025995D01*
X0048043Y0026110D01*
X0048083Y0026227D01*
X0048120Y0026346D01*
X0048152Y0026465D01*
X0048181Y0026585D01*
X0048206Y0026706D01*
X0048228Y0026828D01*
X0048245Y0026951D01*
X0048259Y0027073D01*
X0048268Y0027197D01*
X0048274Y0027320D01*
X0048276Y0027444D01*
X0048274Y0027568D01*
X0048268Y0027691D01*
X0048259Y0027815D01*
X0048245Y0027937D01*
X0048228Y0028060D01*
X0048206Y0028182D01*
X0048181Y0028303D01*
X0048152Y0028423D01*
X0048120Y0028542D01*
X0048083Y0028661D01*
X0048043Y0028778D01*
X0048000Y0028893D01*
X0047952Y0029008D01*
X0047901Y0029120D01*
X0047847Y0029231D01*
X0047789Y0029341D01*
X0047728Y0029448D01*
X0047663Y0029554D01*
X0047595Y0029657D01*
X0047524Y0029758D01*
X0047450Y0029857D01*
X0047373Y0029954D01*
X0047292Y0030048D01*
X0047209Y0030139D01*
X0047123Y0030228D01*
X0047034Y0030314D01*
X0046943Y0030397D01*
X0046849Y0030478D01*
X0046752Y0030555D01*
X0046653Y0030629D01*
X0046552Y0030700D01*
X0046449Y0030768D01*
X0046343Y0030833D01*
X0046236Y0030894D01*
X0046126Y0030952D01*
X0046015Y0031006D01*
X0045903Y0031057D01*
X0045788Y0031105D01*
X0045673Y0031148D01*
X0045556Y0031188D01*
X0045437Y0031225D01*
X0045318Y0031257D01*
X0045198Y0031286D01*
X0045077Y0031311D01*
X0044955Y0031333D01*
X0044832Y0031350D01*
X0044710Y0031364D01*
X0044586Y0031373D01*
X0044463Y0031379D01*
X0044339Y0031381D01*
X0036465Y0031381D01*
X0036341Y0031379D01*
X0036218Y0031373D01*
X0036094Y0031364D01*
X0035972Y0031350D01*
X0035849Y0031333D01*
X0035727Y0031311D01*
X0035606Y0031286D01*
X0035486Y0031257D01*
X0035367Y0031225D01*
X0035248Y0031188D01*
X0035131Y0031148D01*
X0035016Y0031105D01*
X0034901Y0031057D01*
X0034789Y0031006D01*
X0034678Y0030952D01*
X0034568Y0030894D01*
X0034461Y0030833D01*
X0034355Y0030768D01*
X0034252Y0030700D01*
X0034151Y0030629D01*
X0034052Y0030555D01*
X0033955Y0030478D01*
X0033861Y0030397D01*
X0033770Y0030314D01*
X0033681Y0030228D01*
X0033595Y0030139D01*
X0033512Y0030048D01*
X0033431Y0029954D01*
X0033354Y0029857D01*
X0033280Y0029758D01*
X0033209Y0029657D01*
X0033141Y0029554D01*
X0033076Y0029448D01*
X0033015Y0029341D01*
X0032957Y0029231D01*
X0032903Y0029120D01*
X0032852Y0029008D01*
X0032804Y0028893D01*
X0032761Y0028778D01*
X0032721Y0028661D01*
X0032684Y0028542D01*
X0032652Y0028423D01*
X0032623Y0028303D01*
X0032598Y0028182D01*
X0032576Y0028060D01*
X0032559Y0027937D01*
X0032545Y0027815D01*
X0032536Y0027691D01*
X0032530Y0027568D01*
X0032528Y0027444D01*
X0032530Y0027320D01*
X0032536Y0027197D01*
X0032545Y0027073D01*
X0032559Y0026951D01*
X0032576Y0026828D01*
X0032598Y0026706D01*
X0032623Y0026585D01*
X0032652Y0026465D01*
X0032684Y0026346D01*
X0032721Y0026227D01*
X0032761Y0026110D01*
X0032804Y0025995D01*
X0032852Y0025880D01*
X0032903Y0025768D01*
X0032957Y0025657D01*
X0033015Y0025547D01*
X0033076Y0025440D01*
X0033141Y0025334D01*
X0033209Y0025231D01*
X0033280Y0025130D01*
X0033354Y0025031D01*
X0033431Y0024934D01*
X0033512Y0024840D01*
X0033595Y0024749D01*
X0033681Y0024660D01*
X0033770Y0024574D01*
X0033861Y0024491D01*
X0033955Y0024410D01*
X0034052Y0024333D01*
X0034151Y0024259D01*
X0034252Y0024188D01*
X0034355Y0024120D01*
X0034461Y0024055D01*
X0034568Y0023994D01*
X0034678Y0023936D01*
X0034789Y0023882D01*
X0034901Y0023831D01*
X0035016Y0023783D01*
X0035131Y0023740D01*
X0035248Y0023700D01*
X0035367Y0023663D01*
X0035486Y0023631D01*
X0035606Y0023602D01*
X0035727Y0023577D01*
X0035849Y0023555D01*
X0035972Y0023538D01*
X0036094Y0023524D01*
X0036218Y0023515D01*
X0036341Y0023509D01*
X0036465Y0023507D01*
X0042370Y0043192D02*
X0026622Y0043192D01*
X0026334Y0043196D01*
X0026047Y0043206D01*
X0025760Y0043224D01*
X0025473Y0043248D01*
X0025187Y0043279D01*
X0024902Y0043318D01*
X0024618Y0043363D01*
X0024335Y0043415D01*
X0024054Y0043475D01*
X0023774Y0043541D01*
X0023496Y0043613D01*
X0023219Y0043693D01*
X0022945Y0043779D01*
X0022673Y0043872D01*
X0022403Y0043971D01*
X0022135Y0044077D01*
X0021871Y0044190D01*
X0021609Y0044309D01*
X0021350Y0044434D01*
X0021094Y0044566D01*
X0020841Y0044703D01*
X0020592Y0044847D01*
X0020347Y0044997D01*
X0020105Y0045153D01*
X0019867Y0045314D01*
X0019633Y0045482D01*
X0019403Y0045655D01*
X0019178Y0045833D01*
X0018957Y0046017D01*
X0018740Y0046206D01*
X0018528Y0046401D01*
X0018321Y0046601D01*
X0018119Y0046805D01*
X0017922Y0047015D01*
X0017730Y0047229D01*
X0017544Y0047448D01*
X0017362Y0047671D01*
X0017186Y0047899D01*
X0017016Y0048131D01*
X0016852Y0048367D01*
X0016693Y0048606D01*
X0016540Y0048850D01*
X0016393Y0049097D01*
X0016253Y0049348D01*
X0016118Y0049603D01*
X0015990Y0049860D01*
X0015868Y0050120D01*
X0015752Y0050384D01*
X0015643Y0050650D01*
X0015540Y0050918D01*
X0015444Y0051189D01*
X0015354Y0051463D01*
X0015271Y0051738D01*
X0015195Y0052016D01*
X0015126Y0052295D01*
X0015063Y0052575D01*
X0015007Y0052858D01*
X0014959Y0053141D01*
X0014917Y0053426D01*
X0014882Y0053711D01*
X0014854Y0053997D01*
X0014833Y0054284D01*
X0014819Y0054572D01*
X0014812Y0054859D01*
X0014812Y0055147D01*
X0014819Y0055434D01*
X0014833Y0055722D01*
X0014854Y0056009D01*
X0014882Y0056295D01*
X0014917Y0056580D01*
X0014959Y0056865D01*
X0015007Y0057148D01*
X0015063Y0057431D01*
X0015126Y0057711D01*
X0015195Y0057990D01*
X0015271Y0058268D01*
X0015354Y0058543D01*
X0015444Y0058817D01*
X0015540Y0059088D01*
X0015643Y0059356D01*
X0015752Y0059622D01*
X0015868Y0059886D01*
X0015990Y0060146D01*
X0016118Y0060403D01*
X0016253Y0060658D01*
X0016393Y0060908D01*
X0016540Y0061156D01*
X0016693Y0061400D01*
X0016852Y0061639D01*
X0017016Y0061875D01*
X0017186Y0062107D01*
X0017362Y0062335D01*
X0017544Y0062558D01*
X0017730Y0062777D01*
X0017922Y0062991D01*
X0018119Y0063201D01*
X0018321Y0063405D01*
X0018528Y0063605D01*
X0018740Y0063800D01*
X0018957Y0063989D01*
X0019178Y0064173D01*
X0019403Y0064351D01*
X0019633Y0064524D01*
X0019867Y0064692D01*
X0020105Y0064853D01*
X0020347Y0065009D01*
X0020592Y0065159D01*
X0020841Y0065303D01*
X0021094Y0065440D01*
X0021350Y0065572D01*
X0021609Y0065697D01*
X0021871Y0065816D01*
X0022135Y0065929D01*
X0022403Y0066035D01*
X0022673Y0066134D01*
X0022945Y0066227D01*
X0023219Y0066313D01*
X0023496Y0066393D01*
X0023774Y0066465D01*
X0024054Y0066531D01*
X0024335Y0066591D01*
X0024618Y0066643D01*
X0024902Y0066688D01*
X0025187Y0066727D01*
X0025473Y0066758D01*
X0025760Y0066782D01*
X0026047Y0066800D01*
X0026334Y0066810D01*
X0026622Y0066814D01*
X0042370Y0066814D01*
X0042658Y0066810D01*
X0042945Y0066800D01*
X0043232Y0066782D01*
X0043519Y0066758D01*
X0043805Y0066727D01*
X0044090Y0066688D01*
X0044374Y0066643D01*
X0044657Y0066591D01*
X0044938Y0066531D01*
X0045218Y0066465D01*
X0045496Y0066393D01*
X0045773Y0066313D01*
X0046047Y0066227D01*
X0046319Y0066134D01*
X0046589Y0066035D01*
X0046857Y0065929D01*
X0047121Y0065816D01*
X0047383Y0065697D01*
X0047642Y0065572D01*
X0047898Y0065440D01*
X0048151Y0065303D01*
X0048400Y0065159D01*
X0048645Y0065009D01*
X0048887Y0064853D01*
X0049125Y0064692D01*
X0049359Y0064524D01*
X0049589Y0064351D01*
X0049814Y0064173D01*
X0050035Y0063989D01*
X0050252Y0063800D01*
X0050464Y0063605D01*
X0050671Y0063405D01*
X0050873Y0063201D01*
X0051070Y0062991D01*
X0051262Y0062777D01*
X0051448Y0062558D01*
X0051630Y0062335D01*
X0051806Y0062107D01*
X0051976Y0061875D01*
X0052140Y0061639D01*
X0052299Y0061400D01*
X0052452Y0061156D01*
X0052599Y0060909D01*
X0052739Y0060658D01*
X0052874Y0060403D01*
X0053002Y0060146D01*
X0053124Y0059886D01*
X0053240Y0059622D01*
X0053349Y0059356D01*
X0053452Y0059088D01*
X0053548Y0058817D01*
X0053638Y0058543D01*
X0053721Y0058268D01*
X0053797Y0057990D01*
X0053866Y0057711D01*
X0053929Y0057431D01*
X0053985Y0057148D01*
X0054033Y0056865D01*
X0054075Y0056580D01*
X0054110Y0056295D01*
X0054138Y0056009D01*
X0054159Y0055722D01*
X0054173Y0055434D01*
X0054180Y0055147D01*
X0054180Y0054859D01*
X0054173Y0054572D01*
X0054159Y0054284D01*
X0054138Y0053997D01*
X0054110Y0053711D01*
X0054075Y0053426D01*
X0054033Y0053141D01*
X0053985Y0052858D01*
X0053929Y0052575D01*
X0053866Y0052295D01*
X0053797Y0052016D01*
X0053721Y0051738D01*
X0053638Y0051463D01*
X0053548Y0051189D01*
X0053452Y0050918D01*
X0053349Y0050650D01*
X0053240Y0050384D01*
X0053124Y0050120D01*
X0053002Y0049860D01*
X0052874Y0049603D01*
X0052739Y0049348D01*
X0052599Y0049098D01*
X0052452Y0048850D01*
X0052299Y0048606D01*
X0052140Y0048367D01*
X0051976Y0048131D01*
X0051806Y0047899D01*
X0051630Y0047671D01*
X0051448Y0047448D01*
X0051262Y0047229D01*
X0051070Y0047015D01*
X0050873Y0046805D01*
X0050671Y0046601D01*
X0050464Y0046401D01*
X0050252Y0046206D01*
X0050035Y0046017D01*
X0049814Y0045833D01*
X0049589Y0045655D01*
X0049359Y0045482D01*
X0049125Y0045314D01*
X0048887Y0045153D01*
X0048645Y0044997D01*
X0048400Y0044847D01*
X0048151Y0044703D01*
X0047898Y0044566D01*
X0047642Y0044434D01*
X0047383Y0044309D01*
X0047121Y0044190D01*
X0046857Y0044077D01*
X0046589Y0043971D01*
X0046319Y0043872D01*
X0046047Y0043779D01*
X0045773Y0043693D01*
X0045496Y0043613D01*
X0045218Y0043541D01*
X0044938Y0043475D01*
X0044657Y0043415D01*
X0044374Y0043363D01*
X0044090Y0043318D01*
X0043805Y0043279D01*
X0043519Y0043248D01*
X0043232Y0043224D01*
X0042945Y0043206D01*
X0042658Y0043196D01*
X0042370Y0043192D01*
X0032528Y0078625D02*
X0024654Y0078625D01*
X0024530Y0078627D01*
X0024407Y0078633D01*
X0024283Y0078642D01*
X0024161Y0078656D01*
X0024038Y0078673D01*
X0023916Y0078695D01*
X0023795Y0078720D01*
X0023675Y0078749D01*
X0023556Y0078781D01*
X0023437Y0078818D01*
X0023320Y0078858D01*
X0023205Y0078901D01*
X0023090Y0078949D01*
X0022978Y0079000D01*
X0022867Y0079054D01*
X0022757Y0079112D01*
X0022650Y0079173D01*
X0022544Y0079238D01*
X0022441Y0079306D01*
X0022340Y0079377D01*
X0022241Y0079451D01*
X0022144Y0079528D01*
X0022050Y0079609D01*
X0021959Y0079692D01*
X0021870Y0079778D01*
X0021784Y0079867D01*
X0021701Y0079958D01*
X0021620Y0080052D01*
X0021543Y0080149D01*
X0021469Y0080248D01*
X0021398Y0080349D01*
X0021330Y0080452D01*
X0021265Y0080558D01*
X0021204Y0080665D01*
X0021146Y0080775D01*
X0021092Y0080886D01*
X0021041Y0080998D01*
X0020993Y0081113D01*
X0020950Y0081228D01*
X0020910Y0081345D01*
X0020873Y0081464D01*
X0020841Y0081583D01*
X0020812Y0081703D01*
X0020787Y0081824D01*
X0020765Y0081946D01*
X0020748Y0082069D01*
X0020734Y0082191D01*
X0020725Y0082315D01*
X0020719Y0082438D01*
X0020717Y0082562D01*
X0020719Y0082686D01*
X0020725Y0082809D01*
X0020734Y0082933D01*
X0020748Y0083055D01*
X0020765Y0083178D01*
X0020787Y0083300D01*
X0020812Y0083421D01*
X0020841Y0083541D01*
X0020873Y0083660D01*
X0020910Y0083779D01*
X0020950Y0083896D01*
X0020993Y0084011D01*
X0021041Y0084126D01*
X0021092Y0084238D01*
X0021146Y0084349D01*
X0021204Y0084459D01*
X0021265Y0084566D01*
X0021330Y0084672D01*
X0021398Y0084775D01*
X0021469Y0084876D01*
X0021543Y0084975D01*
X0021620Y0085072D01*
X0021701Y0085166D01*
X0021784Y0085257D01*
X0021870Y0085346D01*
X0021959Y0085432D01*
X0022050Y0085515D01*
X0022144Y0085596D01*
X0022241Y0085673D01*
X0022340Y0085747D01*
X0022441Y0085818D01*
X0022544Y0085886D01*
X0022650Y0085951D01*
X0022757Y0086012D01*
X0022867Y0086070D01*
X0022978Y0086124D01*
X0023090Y0086175D01*
X0023205Y0086223D01*
X0023320Y0086266D01*
X0023437Y0086306D01*
X0023556Y0086343D01*
X0023675Y0086375D01*
X0023795Y0086404D01*
X0023916Y0086429D01*
X0024038Y0086451D01*
X0024161Y0086468D01*
X0024283Y0086482D01*
X0024407Y0086491D01*
X0024530Y0086497D01*
X0024654Y0086499D01*
X0032528Y0086499D01*
X0032652Y0086497D01*
X0032775Y0086491D01*
X0032899Y0086482D01*
X0033021Y0086468D01*
X0033144Y0086451D01*
X0033266Y0086429D01*
X0033387Y0086404D01*
X0033507Y0086375D01*
X0033626Y0086343D01*
X0033745Y0086306D01*
X0033862Y0086266D01*
X0033977Y0086223D01*
X0034092Y0086175D01*
X0034204Y0086124D01*
X0034315Y0086070D01*
X0034425Y0086012D01*
X0034532Y0085951D01*
X0034638Y0085886D01*
X0034741Y0085818D01*
X0034842Y0085747D01*
X0034941Y0085673D01*
X0035038Y0085596D01*
X0035132Y0085515D01*
X0035223Y0085432D01*
X0035312Y0085346D01*
X0035398Y0085257D01*
X0035481Y0085166D01*
X0035562Y0085072D01*
X0035639Y0084975D01*
X0035713Y0084876D01*
X0035784Y0084775D01*
X0035852Y0084672D01*
X0035917Y0084566D01*
X0035978Y0084459D01*
X0036036Y0084349D01*
X0036090Y0084238D01*
X0036141Y0084126D01*
X0036189Y0084011D01*
X0036232Y0083896D01*
X0036272Y0083779D01*
X0036309Y0083660D01*
X0036341Y0083541D01*
X0036370Y0083421D01*
X0036395Y0083300D01*
X0036417Y0083178D01*
X0036434Y0083055D01*
X0036448Y0082933D01*
X0036457Y0082809D01*
X0036463Y0082686D01*
X0036465Y0082562D01*
X0036463Y0082438D01*
X0036457Y0082315D01*
X0036448Y0082191D01*
X0036434Y0082069D01*
X0036417Y0081946D01*
X0036395Y0081824D01*
X0036370Y0081703D01*
X0036341Y0081583D01*
X0036309Y0081464D01*
X0036272Y0081345D01*
X0036232Y0081228D01*
X0036189Y0081113D01*
X0036141Y0080998D01*
X0036090Y0080886D01*
X0036036Y0080775D01*
X0035978Y0080665D01*
X0035917Y0080558D01*
X0035852Y0080452D01*
X0035784Y0080349D01*
X0035713Y0080248D01*
X0035639Y0080149D01*
X0035562Y0080052D01*
X0035481Y0079958D01*
X0035398Y0079867D01*
X0035312Y0079778D01*
X0035223Y0079692D01*
X0035132Y0079609D01*
X0035038Y0079528D01*
X0034941Y0079451D01*
X0034842Y0079377D01*
X0034741Y0079306D01*
X0034638Y0079238D01*
X0034532Y0079173D01*
X0034425Y0079112D01*
X0034315Y0079054D01*
X0034204Y0079000D01*
X0034092Y0078949D01*
X0033977Y0078901D01*
X0033862Y0078858D01*
X0033745Y0078818D01*
X0033626Y0078781D01*
X0033507Y0078749D01*
X0033387Y0078720D01*
X0033266Y0078695D01*
X0033144Y0078673D01*
X0033021Y0078656D01*
X0032899Y0078642D01*
X0032775Y0078633D01*
X0032652Y0078627D01*
X0032528Y0078625D01*
X0193945Y0078625D02*
X0201819Y0078625D01*
X0201943Y0078627D01*
X0202066Y0078633D01*
X0202190Y0078642D01*
X0202312Y0078656D01*
X0202435Y0078673D01*
X0202557Y0078695D01*
X0202678Y0078720D01*
X0202798Y0078749D01*
X0202917Y0078781D01*
X0203036Y0078818D01*
X0203153Y0078858D01*
X0203268Y0078901D01*
X0203383Y0078949D01*
X0203495Y0079000D01*
X0203606Y0079054D01*
X0203716Y0079112D01*
X0203823Y0079173D01*
X0203929Y0079238D01*
X0204032Y0079306D01*
X0204133Y0079377D01*
X0204232Y0079451D01*
X0204329Y0079528D01*
X0204423Y0079609D01*
X0204514Y0079692D01*
X0204603Y0079778D01*
X0204689Y0079867D01*
X0204772Y0079958D01*
X0204853Y0080052D01*
X0204930Y0080149D01*
X0205004Y0080248D01*
X0205075Y0080349D01*
X0205143Y0080452D01*
X0205208Y0080558D01*
X0205269Y0080665D01*
X0205327Y0080775D01*
X0205381Y0080886D01*
X0205432Y0080998D01*
X0205480Y0081113D01*
X0205523Y0081228D01*
X0205563Y0081345D01*
X0205600Y0081464D01*
X0205632Y0081583D01*
X0205661Y0081703D01*
X0205686Y0081824D01*
X0205708Y0081946D01*
X0205725Y0082069D01*
X0205739Y0082191D01*
X0205748Y0082315D01*
X0205754Y0082438D01*
X0205756Y0082562D01*
X0205754Y0082686D01*
X0205748Y0082809D01*
X0205739Y0082933D01*
X0205725Y0083055D01*
X0205708Y0083178D01*
X0205686Y0083300D01*
X0205661Y0083421D01*
X0205632Y0083541D01*
X0205600Y0083660D01*
X0205563Y0083779D01*
X0205523Y0083896D01*
X0205480Y0084011D01*
X0205432Y0084126D01*
X0205381Y0084238D01*
X0205327Y0084349D01*
X0205269Y0084459D01*
X0205208Y0084566D01*
X0205143Y0084672D01*
X0205075Y0084775D01*
X0205004Y0084876D01*
X0204930Y0084975D01*
X0204853Y0085072D01*
X0204772Y0085166D01*
X0204689Y0085257D01*
X0204603Y0085346D01*
X0204514Y0085432D01*
X0204423Y0085515D01*
X0204329Y0085596D01*
X0204232Y0085673D01*
X0204133Y0085747D01*
X0204032Y0085818D01*
X0203929Y0085886D01*
X0203823Y0085951D01*
X0203716Y0086012D01*
X0203606Y0086070D01*
X0203495Y0086124D01*
X0203383Y0086175D01*
X0203268Y0086223D01*
X0203153Y0086266D01*
X0203036Y0086306D01*
X0202917Y0086343D01*
X0202798Y0086375D01*
X0202678Y0086404D01*
X0202557Y0086429D01*
X0202435Y0086451D01*
X0202312Y0086468D01*
X0202190Y0086482D01*
X0202066Y0086491D01*
X0201943Y0086497D01*
X0201819Y0086499D01*
X0193945Y0086499D01*
X0193821Y0086497D01*
X0193698Y0086491D01*
X0193574Y0086482D01*
X0193452Y0086468D01*
X0193329Y0086451D01*
X0193207Y0086429D01*
X0193086Y0086404D01*
X0192966Y0086375D01*
X0192847Y0086343D01*
X0192728Y0086306D01*
X0192611Y0086266D01*
X0192496Y0086223D01*
X0192381Y0086175D01*
X0192269Y0086124D01*
X0192158Y0086070D01*
X0192048Y0086012D01*
X0191941Y0085951D01*
X0191835Y0085886D01*
X0191732Y0085818D01*
X0191631Y0085747D01*
X0191532Y0085673D01*
X0191435Y0085596D01*
X0191341Y0085515D01*
X0191250Y0085432D01*
X0191161Y0085346D01*
X0191075Y0085257D01*
X0190992Y0085166D01*
X0190911Y0085072D01*
X0190834Y0084975D01*
X0190760Y0084876D01*
X0190689Y0084775D01*
X0190621Y0084672D01*
X0190556Y0084566D01*
X0190495Y0084459D01*
X0190437Y0084349D01*
X0190383Y0084238D01*
X0190332Y0084126D01*
X0190284Y0084011D01*
X0190241Y0083896D01*
X0190201Y0083779D01*
X0190164Y0083660D01*
X0190132Y0083541D01*
X0190103Y0083421D01*
X0190078Y0083300D01*
X0190056Y0083178D01*
X0190039Y0083055D01*
X0190025Y0082933D01*
X0190016Y0082809D01*
X0190010Y0082686D01*
X0190008Y0082562D01*
X0190010Y0082438D01*
X0190016Y0082315D01*
X0190025Y0082191D01*
X0190039Y0082069D01*
X0190056Y0081946D01*
X0190078Y0081824D01*
X0190103Y0081703D01*
X0190132Y0081583D01*
X0190164Y0081464D01*
X0190201Y0081345D01*
X0190241Y0081228D01*
X0190284Y0081113D01*
X0190332Y0080998D01*
X0190383Y0080886D01*
X0190437Y0080775D01*
X0190495Y0080665D01*
X0190556Y0080558D01*
X0190621Y0080452D01*
X0190689Y0080349D01*
X0190760Y0080248D01*
X0190834Y0080149D01*
X0190911Y0080052D01*
X0190992Y0079958D01*
X0191075Y0079867D01*
X0191161Y0079778D01*
X0191250Y0079692D01*
X0191341Y0079609D01*
X0191435Y0079528D01*
X0191532Y0079451D01*
X0191631Y0079377D01*
X0191732Y0079306D01*
X0191835Y0079238D01*
X0191941Y0079173D01*
X0192048Y0079112D01*
X0192158Y0079054D01*
X0192269Y0079000D01*
X0192381Y0078949D01*
X0192496Y0078901D01*
X0192611Y0078858D01*
X0192728Y0078818D01*
X0192847Y0078781D01*
X0192966Y0078749D01*
X0193086Y0078720D01*
X0193207Y0078695D01*
X0193329Y0078673D01*
X0193452Y0078656D01*
X0193574Y0078642D01*
X0193698Y0078633D01*
X0193821Y0078627D01*
X0193945Y0078625D01*
X0195913Y0066814D02*
X0211661Y0066814D01*
X0211949Y0066810D01*
X0212236Y0066800D01*
X0212523Y0066782D01*
X0212810Y0066758D01*
X0213096Y0066727D01*
X0213381Y0066688D01*
X0213665Y0066643D01*
X0213948Y0066591D01*
X0214229Y0066531D01*
X0214509Y0066465D01*
X0214787Y0066393D01*
X0215064Y0066313D01*
X0215338Y0066227D01*
X0215610Y0066134D01*
X0215880Y0066035D01*
X0216148Y0065929D01*
X0216412Y0065816D01*
X0216674Y0065697D01*
X0216933Y0065572D01*
X0217189Y0065440D01*
X0217442Y0065303D01*
X0217691Y0065159D01*
X0217936Y0065009D01*
X0218178Y0064853D01*
X0218416Y0064692D01*
X0218650Y0064524D01*
X0218880Y0064351D01*
X0219105Y0064173D01*
X0219326Y0063989D01*
X0219543Y0063800D01*
X0219755Y0063605D01*
X0219962Y0063405D01*
X0220164Y0063201D01*
X0220361Y0062991D01*
X0220553Y0062777D01*
X0220739Y0062558D01*
X0220921Y0062335D01*
X0221097Y0062107D01*
X0221267Y0061875D01*
X0221431Y0061639D01*
X0221590Y0061400D01*
X0221743Y0061156D01*
X0221890Y0060909D01*
X0222030Y0060658D01*
X0222165Y0060403D01*
X0222293Y0060146D01*
X0222415Y0059886D01*
X0222531Y0059622D01*
X0222640Y0059356D01*
X0222743Y0059088D01*
X0222839Y0058817D01*
X0222929Y0058543D01*
X0223012Y0058268D01*
X0223088Y0057990D01*
X0223157Y0057711D01*
X0223220Y0057431D01*
X0223276Y0057148D01*
X0223324Y0056865D01*
X0223366Y0056580D01*
X0223401Y0056295D01*
X0223429Y0056009D01*
X0223450Y0055722D01*
X0223464Y0055434D01*
X0223471Y0055147D01*
X0223471Y0054859D01*
X0223464Y0054572D01*
X0223450Y0054284D01*
X0223429Y0053997D01*
X0223401Y0053711D01*
X0223366Y0053426D01*
X0223324Y0053141D01*
X0223276Y0052858D01*
X0223220Y0052575D01*
X0223157Y0052295D01*
X0223088Y0052016D01*
X0223012Y0051738D01*
X0222929Y0051463D01*
X0222839Y0051189D01*
X0222743Y0050918D01*
X0222640Y0050650D01*
X0222531Y0050384D01*
X0222415Y0050120D01*
X0222293Y0049860D01*
X0222165Y0049603D01*
X0222030Y0049348D01*
X0221890Y0049098D01*
X0221743Y0048850D01*
X0221590Y0048606D01*
X0221431Y0048367D01*
X0221267Y0048131D01*
X0221097Y0047899D01*
X0220921Y0047671D01*
X0220739Y0047448D01*
X0220553Y0047229D01*
X0220361Y0047015D01*
X0220164Y0046805D01*
X0219962Y0046601D01*
X0219755Y0046401D01*
X0219543Y0046206D01*
X0219326Y0046017D01*
X0219105Y0045833D01*
X0218880Y0045655D01*
X0218650Y0045482D01*
X0218416Y0045314D01*
X0218178Y0045153D01*
X0217936Y0044997D01*
X0217691Y0044847D01*
X0217442Y0044703D01*
X0217189Y0044566D01*
X0216933Y0044434D01*
X0216674Y0044309D01*
X0216412Y0044190D01*
X0216148Y0044077D01*
X0215880Y0043971D01*
X0215610Y0043872D01*
X0215338Y0043779D01*
X0215064Y0043693D01*
X0214787Y0043613D01*
X0214509Y0043541D01*
X0214229Y0043475D01*
X0213948Y0043415D01*
X0213665Y0043363D01*
X0213381Y0043318D01*
X0213096Y0043279D01*
X0212810Y0043248D01*
X0212523Y0043224D01*
X0212236Y0043206D01*
X0211949Y0043196D01*
X0211661Y0043192D01*
X0195913Y0043192D01*
X0195625Y0043196D01*
X0195338Y0043206D01*
X0195051Y0043224D01*
X0194764Y0043248D01*
X0194478Y0043279D01*
X0194193Y0043318D01*
X0193909Y0043363D01*
X0193626Y0043415D01*
X0193345Y0043475D01*
X0193065Y0043541D01*
X0192787Y0043613D01*
X0192510Y0043693D01*
X0192236Y0043779D01*
X0191964Y0043872D01*
X0191694Y0043971D01*
X0191426Y0044077D01*
X0191162Y0044190D01*
X0190900Y0044309D01*
X0190641Y0044434D01*
X0190385Y0044566D01*
X0190132Y0044703D01*
X0189883Y0044847D01*
X0189638Y0044997D01*
X0189396Y0045153D01*
X0189158Y0045314D01*
X0188924Y0045482D01*
X0188694Y0045655D01*
X0188469Y0045833D01*
X0188248Y0046017D01*
X0188031Y0046206D01*
X0187819Y0046401D01*
X0187612Y0046601D01*
X0187410Y0046805D01*
X0187213Y0047015D01*
X0187021Y0047229D01*
X0186835Y0047448D01*
X0186653Y0047671D01*
X0186477Y0047899D01*
X0186307Y0048131D01*
X0186143Y0048367D01*
X0185984Y0048606D01*
X0185831Y0048850D01*
X0185684Y0049097D01*
X0185544Y0049348D01*
X0185409Y0049603D01*
X0185281Y0049860D01*
X0185159Y0050120D01*
X0185043Y0050384D01*
X0184934Y0050650D01*
X0184831Y0050918D01*
X0184735Y0051189D01*
X0184645Y0051463D01*
X0184562Y0051738D01*
X0184486Y0052016D01*
X0184417Y0052295D01*
X0184354Y0052575D01*
X0184298Y0052858D01*
X0184250Y0053141D01*
X0184208Y0053426D01*
X0184173Y0053711D01*
X0184145Y0053997D01*
X0184124Y0054284D01*
X0184110Y0054572D01*
X0184103Y0054859D01*
X0184103Y0055147D01*
X0184110Y0055434D01*
X0184124Y0055722D01*
X0184145Y0056009D01*
X0184173Y0056295D01*
X0184208Y0056580D01*
X0184250Y0056865D01*
X0184298Y0057148D01*
X0184354Y0057431D01*
X0184417Y0057711D01*
X0184486Y0057990D01*
X0184562Y0058268D01*
X0184645Y0058543D01*
X0184735Y0058817D01*
X0184831Y0059088D01*
X0184934Y0059356D01*
X0185043Y0059622D01*
X0185159Y0059886D01*
X0185281Y0060146D01*
X0185409Y0060403D01*
X0185544Y0060658D01*
X0185684Y0060908D01*
X0185831Y0061156D01*
X0185984Y0061400D01*
X0186143Y0061639D01*
X0186307Y0061875D01*
X0186477Y0062107D01*
X0186653Y0062335D01*
X0186835Y0062558D01*
X0187021Y0062777D01*
X0187213Y0062991D01*
X0187410Y0063201D01*
X0187612Y0063405D01*
X0187819Y0063605D01*
X0188031Y0063800D01*
X0188248Y0063989D01*
X0188469Y0064173D01*
X0188694Y0064351D01*
X0188924Y0064524D01*
X0189158Y0064692D01*
X0189396Y0064853D01*
X0189638Y0065009D01*
X0189883Y0065159D01*
X0190132Y0065303D01*
X0190385Y0065440D01*
X0190641Y0065572D01*
X0190900Y0065697D01*
X0191162Y0065816D01*
X0191426Y0065929D01*
X0191694Y0066035D01*
X0191964Y0066134D01*
X0192236Y0066227D01*
X0192510Y0066313D01*
X0192787Y0066393D01*
X0193065Y0066465D01*
X0193345Y0066531D01*
X0193626Y0066591D01*
X0193909Y0066643D01*
X0194193Y0066688D01*
X0194478Y0066727D01*
X0194764Y0066758D01*
X0195051Y0066782D01*
X0195338Y0066800D01*
X0195625Y0066810D01*
X0195913Y0066814D01*
X0205756Y0031381D02*
X0213630Y0031381D01*
X0213754Y0031379D01*
X0213877Y0031373D01*
X0214001Y0031364D01*
X0214123Y0031350D01*
X0214246Y0031333D01*
X0214368Y0031311D01*
X0214489Y0031286D01*
X0214609Y0031257D01*
X0214728Y0031225D01*
X0214847Y0031188D01*
X0214964Y0031148D01*
X0215079Y0031105D01*
X0215194Y0031057D01*
X0215306Y0031006D01*
X0215417Y0030952D01*
X0215527Y0030894D01*
X0215634Y0030833D01*
X0215740Y0030768D01*
X0215843Y0030700D01*
X0215944Y0030629D01*
X0216043Y0030555D01*
X0216140Y0030478D01*
X0216234Y0030397D01*
X0216325Y0030314D01*
X0216414Y0030228D01*
X0216500Y0030139D01*
X0216583Y0030048D01*
X0216664Y0029954D01*
X0216741Y0029857D01*
X0216815Y0029758D01*
X0216886Y0029657D01*
X0216954Y0029554D01*
X0217019Y0029448D01*
X0217080Y0029341D01*
X0217138Y0029231D01*
X0217192Y0029120D01*
X0217243Y0029008D01*
X0217291Y0028893D01*
X0217334Y0028778D01*
X0217374Y0028661D01*
X0217411Y0028542D01*
X0217443Y0028423D01*
X0217472Y0028303D01*
X0217497Y0028182D01*
X0217519Y0028060D01*
X0217536Y0027937D01*
X0217550Y0027815D01*
X0217559Y0027691D01*
X0217565Y0027568D01*
X0217567Y0027444D01*
X0217565Y0027320D01*
X0217559Y0027197D01*
X0217550Y0027073D01*
X0217536Y0026951D01*
X0217519Y0026828D01*
X0217497Y0026706D01*
X0217472Y0026585D01*
X0217443Y0026465D01*
X0217411Y0026346D01*
X0217374Y0026227D01*
X0217334Y0026110D01*
X0217291Y0025995D01*
X0217243Y0025880D01*
X0217192Y0025768D01*
X0217138Y0025657D01*
X0217080Y0025547D01*
X0217019Y0025440D01*
X0216954Y0025334D01*
X0216886Y0025231D01*
X0216815Y0025130D01*
X0216741Y0025031D01*
X0216664Y0024934D01*
X0216583Y0024840D01*
X0216500Y0024749D01*
X0216414Y0024660D01*
X0216325Y0024574D01*
X0216234Y0024491D01*
X0216140Y0024410D01*
X0216043Y0024333D01*
X0215944Y0024259D01*
X0215843Y0024188D01*
X0215740Y0024120D01*
X0215634Y0024055D01*
X0215527Y0023994D01*
X0215417Y0023936D01*
X0215306Y0023882D01*
X0215194Y0023831D01*
X0215079Y0023783D01*
X0214964Y0023740D01*
X0214847Y0023700D01*
X0214728Y0023663D01*
X0214609Y0023631D01*
X0214489Y0023602D01*
X0214368Y0023577D01*
X0214246Y0023555D01*
X0214123Y0023538D01*
X0214001Y0023524D01*
X0213877Y0023515D01*
X0213754Y0023509D01*
X0213630Y0023507D01*
X0205756Y0023507D01*
X0205632Y0023509D01*
X0205509Y0023515D01*
X0205385Y0023524D01*
X0205263Y0023538D01*
X0205140Y0023555D01*
X0205018Y0023577D01*
X0204897Y0023602D01*
X0204777Y0023631D01*
X0204658Y0023663D01*
X0204539Y0023700D01*
X0204422Y0023740D01*
X0204307Y0023783D01*
X0204192Y0023831D01*
X0204080Y0023882D01*
X0203969Y0023936D01*
X0203859Y0023994D01*
X0203752Y0024055D01*
X0203646Y0024120D01*
X0203543Y0024188D01*
X0203442Y0024259D01*
X0203343Y0024333D01*
X0203246Y0024410D01*
X0203152Y0024491D01*
X0203061Y0024574D01*
X0202972Y0024660D01*
X0202886Y0024749D01*
X0202803Y0024840D01*
X0202722Y0024934D01*
X0202645Y0025031D01*
X0202571Y0025130D01*
X0202500Y0025231D01*
X0202432Y0025334D01*
X0202367Y0025440D01*
X0202306Y0025547D01*
X0202248Y0025657D01*
X0202194Y0025768D01*
X0202143Y0025880D01*
X0202095Y0025995D01*
X0202052Y0026110D01*
X0202012Y0026227D01*
X0201975Y0026346D01*
X0201943Y0026465D01*
X0201914Y0026585D01*
X0201889Y0026706D01*
X0201867Y0026828D01*
X0201850Y0026951D01*
X0201836Y0027073D01*
X0201827Y0027197D01*
X0201821Y0027320D01*
X0201819Y0027444D01*
X0201821Y0027568D01*
X0201827Y0027691D01*
X0201836Y0027815D01*
X0201850Y0027937D01*
X0201867Y0028060D01*
X0201889Y0028182D01*
X0201914Y0028303D01*
X0201943Y0028423D01*
X0201975Y0028542D01*
X0202012Y0028661D01*
X0202052Y0028778D01*
X0202095Y0028893D01*
X0202143Y0029008D01*
X0202194Y0029120D01*
X0202248Y0029231D01*
X0202306Y0029341D01*
X0202367Y0029448D01*
X0202432Y0029554D01*
X0202500Y0029657D01*
X0202571Y0029758D01*
X0202645Y0029857D01*
X0202722Y0029954D01*
X0202803Y0030048D01*
X0202886Y0030139D01*
X0202972Y0030228D01*
X0203061Y0030314D01*
X0203152Y0030397D01*
X0203246Y0030478D01*
X0203343Y0030555D01*
X0203442Y0030629D01*
X0203543Y0030700D01*
X0203646Y0030768D01*
X0203752Y0030833D01*
X0203859Y0030894D01*
X0203969Y0030952D01*
X0204080Y0031006D01*
X0204192Y0031057D01*
X0204307Y0031105D01*
X0204422Y0031148D01*
X0204539Y0031188D01*
X0204658Y0031225D01*
X0204777Y0031257D01*
X0204897Y0031286D01*
X0205018Y0031311D01*
X0205140Y0031333D01*
X0205263Y0031350D01*
X0205385Y0031364D01*
X0205509Y0031373D01*
X0205632Y0031379D01*
X0205756Y0031381D01*
D11*
X0174010Y0030341D02*
X0170570Y0030341D01*
X0170570Y0029194D02*
X0170570Y0031488D01*
X0170570Y0027862D02*
X0170570Y0025569D01*
X0170570Y0026716D02*
X0174010Y0026716D01*
X0174010Y0024237D02*
X0171717Y0024237D01*
X0170570Y0023091D01*
X0171717Y0021944D01*
X0174010Y0021944D01*
X0173437Y0020612D02*
X0172863Y0020612D01*
X0172290Y0020039D01*
X0172290Y0018319D01*
X0172290Y0020039D02*
X0171717Y0020612D01*
X0171143Y0020612D01*
X0170570Y0020039D01*
X0170570Y0018319D01*
X0174010Y0018319D01*
X0174010Y0020039D01*
X0173437Y0020612D01*
X0172290Y0021944D02*
X0172290Y0024237D01*
X0172863Y0016987D02*
X0170570Y0016987D01*
X0172863Y0016987D02*
X0174010Y0015840D01*
X0172863Y0014694D01*
X0170570Y0014694D01*
X0152085Y0017050D02*
X0152085Y0053585D01*
X0101219Y0053585D01*
X0090136Y0040948D01*
X0090136Y0029688D01*
X0101219Y0017050D01*
X0152085Y0017050D01*
X0162696Y0037127D02*
X0162696Y0038274D01*
X0162696Y0037127D02*
X0166136Y0037127D01*
X0166136Y0038274D01*
X0164416Y0039544D02*
X0164416Y0041837D01*
X0163269Y0040690D02*
X0165563Y0040690D01*
X0166136Y0046794D02*
X0162696Y0046794D01*
X0163269Y0048002D02*
X0165563Y0048002D01*
X0166136Y0048576D01*
X0166136Y0049722D01*
X0165563Y0050296D01*
X0166136Y0051627D02*
X0163843Y0051627D01*
X0162696Y0052774D01*
X0163843Y0053921D01*
X0166136Y0053921D01*
X0166136Y0055253D02*
X0162696Y0055253D01*
X0162696Y0056973D01*
X0163269Y0057546D01*
X0164416Y0057546D01*
X0164989Y0056973D01*
X0164989Y0055253D01*
X0164416Y0053921D02*
X0164416Y0051627D01*
X0163269Y0050296D02*
X0162696Y0049722D01*
X0162696Y0048576D01*
X0163269Y0048002D01*
X0163269Y0058878D02*
X0162696Y0059451D01*
X0162696Y0060598D01*
X0163269Y0061171D01*
X0163843Y0061171D01*
X0164416Y0060598D01*
X0164989Y0061171D01*
X0165563Y0061171D01*
X0166136Y0060598D01*
X0166136Y0059451D01*
X0165563Y0058878D01*
X0164416Y0060024D02*
X0164416Y0060598D01*
X0162696Y0062503D02*
X0166136Y0062503D01*
X0164416Y0067336D02*
X0164416Y0069630D01*
X0166136Y0070961D02*
X0166136Y0072108D01*
X0162696Y0072108D01*
X0162696Y0070961D01*
X0164628Y0088717D02*
X0165775Y0088717D01*
X0165775Y0092157D01*
X0164628Y0092157D01*
X0163296Y0090437D02*
X0161003Y0090437D01*
X0156170Y0092157D02*
X0156170Y0088717D01*
X0154838Y0088717D02*
X0152544Y0088717D01*
X0153691Y0088717D02*
X0153691Y0092157D01*
X0152544Y0091010D01*
X0151213Y0090437D02*
X0150639Y0089864D01*
X0148919Y0089864D01*
X0148919Y0088717D02*
X0148919Y0092157D01*
X0150639Y0092157D01*
X0151213Y0091584D01*
X0151213Y0090437D01*
X0147587Y0090437D02*
X0145294Y0090437D01*
X0145294Y0091010D02*
X0145294Y0088717D01*
X0143962Y0089291D02*
X0143389Y0088717D01*
X0142242Y0088717D01*
X0141669Y0089291D01*
X0141669Y0091584D01*
X0142242Y0092157D01*
X0143389Y0092157D01*
X0143962Y0091584D01*
X0145294Y0091010D02*
X0146441Y0092157D01*
X0147587Y0091010D01*
X0147587Y0088717D01*
X0140461Y0088717D02*
X0140461Y0092157D01*
X0135504Y0090437D02*
X0133210Y0090437D01*
X0134357Y0089291D02*
X0134357Y0091584D01*
X0131940Y0092157D02*
X0130794Y0092157D01*
X0130794Y0088717D01*
X0131940Y0088717D01*
X0124875Y0088717D02*
X0124875Y0092157D01*
X0123728Y0092157D01*
X0122396Y0090437D02*
X0121823Y0091010D01*
X0120676Y0091010D01*
X0120103Y0090437D01*
X0120103Y0089291D01*
X0120676Y0088717D01*
X0121823Y0088717D01*
X0122396Y0089864D02*
X0120103Y0089864D01*
X0118771Y0091010D02*
X0117051Y0091010D01*
X0116478Y0090437D01*
X0116478Y0089291D01*
X0117051Y0088717D01*
X0118771Y0088717D01*
X0118771Y0092157D01*
X0115146Y0090437D02*
X0114573Y0091010D01*
X0113426Y0091010D01*
X0112853Y0090437D01*
X0112853Y0089291D01*
X0113426Y0088717D01*
X0114573Y0088717D01*
X0115146Y0089291D01*
X0115146Y0090437D01*
X0111583Y0088717D02*
X0110436Y0088717D01*
X0111009Y0088717D02*
X0111009Y0091010D01*
X0110436Y0091010D01*
X0111009Y0092157D02*
X0111009Y0092730D01*
X0109104Y0091584D02*
X0108531Y0092157D01*
X0106811Y0092157D01*
X0106811Y0088717D01*
X0108531Y0088717D01*
X0109104Y0089291D01*
X0109104Y0091584D01*
X0101885Y0091010D02*
X0100165Y0089864D01*
X0101885Y0088717D01*
X0100165Y0088717D02*
X0100165Y0092157D01*
X0098833Y0091010D02*
X0097113Y0091010D01*
X0096540Y0090437D01*
X0096540Y0089291D01*
X0097113Y0088717D01*
X0098833Y0088717D01*
X0095208Y0088717D02*
X0093488Y0088717D01*
X0092914Y0089291D01*
X0093488Y0089864D01*
X0095208Y0089864D01*
X0095208Y0090437D02*
X0095208Y0088717D01*
X0095208Y0090437D02*
X0094634Y0091010D01*
X0093488Y0091010D01*
X0091583Y0090437D02*
X0091009Y0091010D01*
X0089289Y0091010D01*
X0089289Y0092157D02*
X0089289Y0088717D01*
X0091009Y0088717D01*
X0091583Y0089291D01*
X0091583Y0090437D01*
X0087957Y0091010D02*
X0087957Y0088144D01*
X0087384Y0087571D01*
X0086811Y0087571D01*
X0086237Y0088717D02*
X0087957Y0088717D01*
X0086237Y0088717D02*
X0085664Y0089291D01*
X0085664Y0091010D01*
X0083821Y0092157D02*
X0083821Y0088717D01*
X0084394Y0088717D02*
X0083247Y0088717D01*
X0080769Y0090437D02*
X0079622Y0090437D01*
X0079622Y0088717D02*
X0079622Y0092157D01*
X0081916Y0092157D01*
X0083247Y0092157D02*
X0083821Y0092157D01*
X0078352Y0092157D02*
X0077205Y0092157D01*
X0077205Y0088717D01*
X0078352Y0088717D01*
X0079522Y0072108D02*
X0076082Y0072108D01*
X0076082Y0070961D01*
X0077802Y0069630D02*
X0077802Y0067336D01*
X0079522Y0070961D02*
X0079522Y0072108D01*
X0079522Y0062503D02*
X0076082Y0062503D01*
X0076655Y0061171D02*
X0076082Y0060598D01*
X0076082Y0059451D01*
X0076655Y0058878D01*
X0076655Y0057546D02*
X0077802Y0057546D01*
X0078375Y0056973D01*
X0078375Y0055253D01*
X0079522Y0055253D02*
X0076082Y0055253D01*
X0076082Y0056973D01*
X0076655Y0057546D01*
X0079522Y0058878D02*
X0077228Y0061171D01*
X0076655Y0061171D01*
X0079522Y0061171D02*
X0079522Y0058878D01*
X0079522Y0053921D02*
X0077228Y0053921D01*
X0076082Y0052774D01*
X0077228Y0051627D01*
X0079522Y0051627D01*
X0078948Y0050296D02*
X0079522Y0049722D01*
X0079522Y0048576D01*
X0078948Y0048002D01*
X0076655Y0048002D01*
X0076082Y0048576D01*
X0076082Y0049722D01*
X0076655Y0050296D01*
X0077802Y0051627D02*
X0077802Y0053921D01*
X0076082Y0046794D02*
X0079522Y0046794D01*
X0077802Y0041837D02*
X0077802Y0039544D01*
X0078948Y0040690D02*
X0076655Y0040690D01*
X0076082Y0038274D02*
X0076082Y0037127D01*
X0079522Y0037127D01*
X0079522Y0038274D01*
X0071074Y0027862D02*
X0068781Y0027862D01*
X0068208Y0027289D01*
X0068208Y0025569D01*
X0071648Y0025569D01*
X0071648Y0027289D01*
X0071074Y0027862D01*
X0071648Y0024237D02*
X0068208Y0024237D01*
X0068208Y0021944D02*
X0071648Y0024237D01*
X0071648Y0021944D02*
X0068208Y0021944D01*
X0068781Y0020612D02*
X0068208Y0020039D01*
X0068208Y0018892D01*
X0068781Y0018319D01*
X0071074Y0018319D01*
X0071648Y0018892D01*
X0071648Y0020039D01*
X0071074Y0020612D01*
X0069928Y0020612D01*
X0069928Y0019465D01*
X0123728Y0088717D02*
X0124875Y0088717D01*
X0122396Y0089864D02*
X0122396Y0090437D01*
D12*
X0109425Y0087562D02*
X0093425Y0087562D01*
X0093425Y0077562D01*
X0109425Y0077562D01*
X0109425Y0087562D01*
X0105425Y0085062D02*
X0101425Y0082562D01*
X0101425Y0080062D01*
X0101425Y0082562D02*
X0105425Y0080062D01*
X0105425Y0085062D01*
X0101425Y0085062D02*
X0101425Y0082562D01*
X0107425Y0082562D01*
X0101425Y0082562D02*
X0098925Y0082562D01*
X0061474Y0095456D02*
X0060098Y0096832D01*
X0058722Y0095456D01*
X0057124Y0095456D02*
X0055748Y0096832D01*
X0054372Y0095456D01*
X0052774Y0095456D02*
X0051398Y0096832D01*
X0050022Y0095456D01*
X0044073Y0096832D02*
X0041321Y0096832D01*
X0042697Y0096832D02*
X0042697Y0092704D01*
X0039723Y0092704D02*
X0039723Y0096832D01*
X0036971Y0096832D02*
X0039723Y0092704D01*
X0036971Y0092704D02*
X0036971Y0096832D01*
X0035373Y0096144D02*
X0034685Y0096832D01*
X0033309Y0096832D01*
X0032621Y0096144D01*
X0032621Y0093392D01*
X0033309Y0092704D01*
X0034685Y0092704D01*
X0035373Y0093392D01*
X0035373Y0096144D01*
X0031023Y0096144D02*
X0031023Y0094768D01*
X0030335Y0094080D01*
X0028271Y0094080D01*
X0029647Y0094080D02*
X0031023Y0092704D01*
X0028271Y0092704D02*
X0028271Y0096832D01*
X0030335Y0096832D01*
X0031023Y0096144D01*
X0026673Y0096832D02*
X0023921Y0096832D01*
X0023921Y0092704D01*
X0023921Y0094768D02*
X0025297Y0094768D01*
X0017972Y0095456D02*
X0016596Y0096832D01*
X0015220Y0095456D01*
X0013622Y0095456D02*
X0012246Y0096832D01*
X0010870Y0095456D01*
X0009272Y0095456D02*
X0007896Y0096832D01*
X0006520Y0095456D01*
X0065429Y0061503D02*
X0065429Y0048503D01*
X0065431Y0048416D01*
X0065437Y0048329D01*
X0065446Y0048242D01*
X0065459Y0048156D01*
X0065476Y0048070D01*
X0065497Y0047985D01*
X0065522Y0047902D01*
X0065550Y0047819D01*
X0065581Y0047738D01*
X0065616Y0047658D01*
X0065655Y0047580D01*
X0065697Y0047503D01*
X0065742Y0047428D01*
X0065791Y0047356D01*
X0065842Y0047285D01*
X0065897Y0047217D01*
X0065954Y0047152D01*
X0066015Y0047089D01*
X0066078Y0047028D01*
X0066143Y0046971D01*
X0066211Y0046916D01*
X0066282Y0046865D01*
X0066354Y0046816D01*
X0066429Y0046771D01*
X0066506Y0046729D01*
X0066584Y0046690D01*
X0066664Y0046655D01*
X0066745Y0046624D01*
X0066828Y0046596D01*
X0066911Y0046571D01*
X0066996Y0046550D01*
X0067082Y0046533D01*
X0067168Y0046520D01*
X0067255Y0046511D01*
X0067342Y0046505D01*
X0067429Y0046503D01*
X0072429Y0046503D02*
X0072516Y0046505D01*
X0072603Y0046511D01*
X0072690Y0046520D01*
X0072776Y0046533D01*
X0072862Y0046550D01*
X0072947Y0046571D01*
X0073030Y0046596D01*
X0073113Y0046624D01*
X0073194Y0046655D01*
X0073274Y0046690D01*
X0073352Y0046729D01*
X0073429Y0046771D01*
X0073504Y0046816D01*
X0073576Y0046865D01*
X0073647Y0046916D01*
X0073715Y0046971D01*
X0073780Y0047028D01*
X0073843Y0047089D01*
X0073904Y0047152D01*
X0073961Y0047217D01*
X0074016Y0047285D01*
X0074067Y0047356D01*
X0074116Y0047428D01*
X0074161Y0047503D01*
X0074203Y0047580D01*
X0074242Y0047658D01*
X0074277Y0047738D01*
X0074308Y0047819D01*
X0074336Y0047902D01*
X0074361Y0047985D01*
X0074382Y0048070D01*
X0074399Y0048156D01*
X0074412Y0048242D01*
X0074421Y0048329D01*
X0074427Y0048416D01*
X0074429Y0048503D01*
X0074429Y0061503D01*
X0074427Y0061590D01*
X0074421Y0061677D01*
X0074412Y0061764D01*
X0074399Y0061850D01*
X0074382Y0061936D01*
X0074361Y0062021D01*
X0074336Y0062104D01*
X0074308Y0062187D01*
X0074277Y0062268D01*
X0074242Y0062348D01*
X0074203Y0062426D01*
X0074161Y0062503D01*
X0074116Y0062578D01*
X0074067Y0062650D01*
X0074016Y0062721D01*
X0073961Y0062789D01*
X0073904Y0062854D01*
X0073843Y0062917D01*
X0073780Y0062978D01*
X0073715Y0063035D01*
X0073647Y0063090D01*
X0073576Y0063141D01*
X0073504Y0063190D01*
X0073429Y0063235D01*
X0073352Y0063277D01*
X0073274Y0063316D01*
X0073194Y0063351D01*
X0073113Y0063382D01*
X0073030Y0063410D01*
X0072947Y0063435D01*
X0072862Y0063456D01*
X0072776Y0063473D01*
X0072690Y0063486D01*
X0072603Y0063495D01*
X0072516Y0063501D01*
X0072429Y0063503D01*
X0067429Y0063503D02*
X0067342Y0063501D01*
X0067255Y0063495D01*
X0067168Y0063486D01*
X0067082Y0063473D01*
X0066996Y0063456D01*
X0066911Y0063435D01*
X0066828Y0063410D01*
X0066745Y0063382D01*
X0066664Y0063351D01*
X0066584Y0063316D01*
X0066506Y0063277D01*
X0066429Y0063235D01*
X0066354Y0063190D01*
X0066282Y0063141D01*
X0066211Y0063090D01*
X0066143Y0063035D01*
X0066078Y0062978D01*
X0066015Y0062917D01*
X0065954Y0062854D01*
X0065897Y0062789D01*
X0065842Y0062721D01*
X0065791Y0062650D01*
X0065742Y0062578D01*
X0065697Y0062503D01*
X0065655Y0062426D01*
X0065616Y0062348D01*
X0065581Y0062268D01*
X0065550Y0062187D01*
X0065522Y0062104D01*
X0065497Y0062021D01*
X0065476Y0061936D01*
X0065459Y0061850D01*
X0065446Y0061764D01*
X0065437Y0061677D01*
X0065431Y0061590D01*
X0065429Y0061503D01*
X0069929Y0060003D02*
X0069929Y0056303D01*
X0069929Y0053803D02*
X0069929Y0050003D01*
X0109810Y0051557D02*
X0109810Y0047429D01*
X0111186Y0047429D01*
X0112710Y0047429D02*
X0115462Y0051557D01*
X0117060Y0051557D02*
X0119812Y0051557D01*
X0118436Y0051557D02*
X0118436Y0047429D01*
X0121410Y0048117D02*
X0121410Y0049493D01*
X0123474Y0049493D01*
X0124162Y0048805D01*
X0124162Y0048117D01*
X0123474Y0047429D01*
X0122098Y0047429D01*
X0121410Y0048117D01*
X0121410Y0049493D02*
X0122786Y0050869D01*
X0124162Y0051557D01*
X0125760Y0050869D02*
X0126448Y0051557D01*
X0127824Y0051557D01*
X0128512Y0050869D01*
X0125760Y0048117D01*
X0126448Y0047429D01*
X0127824Y0047429D01*
X0128512Y0048117D01*
X0128512Y0050869D01*
X0130111Y0051557D02*
X0131487Y0051557D01*
X0131487Y0047429D01*
X0130111Y0047429D01*
X0125760Y0048117D02*
X0125760Y0050869D01*
X0115462Y0047429D02*
X0112710Y0051557D01*
X0111186Y0051557D02*
X0109810Y0051557D01*
X0089240Y0031007D02*
X0086740Y0031007D01*
X0089240Y0031007D02*
X0089240Y0028507D01*
X0076740Y0031007D02*
X0074240Y0031007D01*
X0074240Y0028507D01*
X0074240Y0018507D02*
X0074240Y0016007D01*
X0076740Y0016007D01*
X0086740Y0016007D02*
X0089240Y0016007D01*
X0089240Y0018507D01*
X0100696Y0019965D02*
X0103448Y0019965D01*
X0109397Y0022029D02*
X0109397Y0017901D01*
X0115197Y0017901D02*
X0116573Y0017901D01*
X0115885Y0017901D02*
X0115885Y0022029D01*
X0115197Y0022029D02*
X0116573Y0022029D01*
X0118097Y0022029D02*
X0120849Y0017901D01*
X0120849Y0022029D01*
X0122447Y0022029D02*
X0124511Y0022029D01*
X0125199Y0021341D01*
X0125199Y0019965D01*
X0124511Y0019277D01*
X0122447Y0019277D01*
X0122447Y0017901D02*
X0122447Y0022029D01*
X0118097Y0022029D02*
X0118097Y0017901D01*
X0126797Y0018589D02*
X0127485Y0017901D01*
X0128861Y0017901D01*
X0129549Y0018589D01*
X0129549Y0022029D01*
X0131147Y0022029D02*
X0133899Y0022029D01*
X0132523Y0022029D02*
X0132523Y0017901D01*
X0126797Y0018589D02*
X0126797Y0022029D01*
X0139848Y0022029D02*
X0139848Y0017901D01*
X0145648Y0019965D02*
X0148400Y0019965D01*
X0147024Y0021341D02*
X0147024Y0018589D01*
X0152980Y0018507D02*
X0152980Y0016007D01*
X0155480Y0016007D01*
X0165480Y0016007D02*
X0167980Y0016007D01*
X0167980Y0018507D01*
X0167980Y0028507D02*
X0167980Y0031007D01*
X0165480Y0031007D01*
X0155480Y0031007D02*
X0152980Y0031007D01*
X0152980Y0028507D01*
X0167791Y0048503D02*
X0167791Y0061503D01*
X0167793Y0061590D01*
X0167799Y0061677D01*
X0167808Y0061764D01*
X0167821Y0061850D01*
X0167838Y0061936D01*
X0167859Y0062021D01*
X0167884Y0062104D01*
X0167912Y0062187D01*
X0167943Y0062268D01*
X0167978Y0062348D01*
X0168017Y0062426D01*
X0168059Y0062503D01*
X0168104Y0062578D01*
X0168153Y0062650D01*
X0168204Y0062721D01*
X0168259Y0062789D01*
X0168316Y0062854D01*
X0168377Y0062917D01*
X0168440Y0062978D01*
X0168505Y0063035D01*
X0168573Y0063090D01*
X0168644Y0063141D01*
X0168716Y0063190D01*
X0168791Y0063235D01*
X0168868Y0063277D01*
X0168946Y0063316D01*
X0169026Y0063351D01*
X0169107Y0063382D01*
X0169190Y0063410D01*
X0169273Y0063435D01*
X0169358Y0063456D01*
X0169444Y0063473D01*
X0169530Y0063486D01*
X0169617Y0063495D01*
X0169704Y0063501D01*
X0169791Y0063503D01*
X0174791Y0063503D02*
X0174878Y0063501D01*
X0174965Y0063495D01*
X0175052Y0063486D01*
X0175138Y0063473D01*
X0175224Y0063456D01*
X0175309Y0063435D01*
X0175392Y0063410D01*
X0175475Y0063382D01*
X0175556Y0063351D01*
X0175636Y0063316D01*
X0175714Y0063277D01*
X0175791Y0063235D01*
X0175866Y0063190D01*
X0175938Y0063141D01*
X0176009Y0063090D01*
X0176077Y0063035D01*
X0176142Y0062978D01*
X0176205Y0062917D01*
X0176266Y0062854D01*
X0176323Y0062789D01*
X0176378Y0062721D01*
X0176429Y0062650D01*
X0176478Y0062578D01*
X0176523Y0062503D01*
X0176565Y0062426D01*
X0176604Y0062348D01*
X0176639Y0062268D01*
X0176670Y0062187D01*
X0176698Y0062104D01*
X0176723Y0062021D01*
X0176744Y0061936D01*
X0176761Y0061850D01*
X0176774Y0061764D01*
X0176783Y0061677D01*
X0176789Y0061590D01*
X0176791Y0061503D01*
X0176791Y0048503D01*
X0176789Y0048416D01*
X0176783Y0048329D01*
X0176774Y0048242D01*
X0176761Y0048156D01*
X0176744Y0048070D01*
X0176723Y0047985D01*
X0176698Y0047902D01*
X0176670Y0047819D01*
X0176639Y0047738D01*
X0176604Y0047658D01*
X0176565Y0047580D01*
X0176523Y0047503D01*
X0176478Y0047428D01*
X0176429Y0047356D01*
X0176378Y0047285D01*
X0176323Y0047217D01*
X0176266Y0047152D01*
X0176205Y0047089D01*
X0176142Y0047028D01*
X0176077Y0046971D01*
X0176009Y0046916D01*
X0175938Y0046865D01*
X0175866Y0046816D01*
X0175791Y0046771D01*
X0175714Y0046729D01*
X0175636Y0046690D01*
X0175556Y0046655D01*
X0175475Y0046624D01*
X0175392Y0046596D01*
X0175309Y0046571D01*
X0175224Y0046550D01*
X0175138Y0046533D01*
X0175052Y0046520D01*
X0174965Y0046511D01*
X0174878Y0046505D01*
X0174791Y0046503D01*
X0169791Y0046503D02*
X0169704Y0046505D01*
X0169617Y0046511D01*
X0169530Y0046520D01*
X0169444Y0046533D01*
X0169358Y0046550D01*
X0169273Y0046571D01*
X0169190Y0046596D01*
X0169107Y0046624D01*
X0169026Y0046655D01*
X0168946Y0046690D01*
X0168868Y0046729D01*
X0168791Y0046771D01*
X0168716Y0046816D01*
X0168644Y0046865D01*
X0168573Y0046916D01*
X0168505Y0046971D01*
X0168440Y0047028D01*
X0168377Y0047089D01*
X0168316Y0047152D01*
X0168259Y0047217D01*
X0168204Y0047285D01*
X0168153Y0047356D01*
X0168104Y0047428D01*
X0168059Y0047503D01*
X0168017Y0047580D01*
X0167978Y0047658D01*
X0167943Y0047738D01*
X0167912Y0047819D01*
X0167884Y0047902D01*
X0167859Y0047985D01*
X0167838Y0048070D01*
X0167821Y0048156D01*
X0167808Y0048242D01*
X0167799Y0048329D01*
X0167793Y0048416D01*
X0167791Y0048503D01*
X0172291Y0050003D02*
X0172291Y0053803D01*
X0172291Y0056303D02*
X0172291Y0060003D01*
X0155169Y0078062D02*
X0142169Y0078062D01*
X0142082Y0078064D01*
X0141995Y0078070D01*
X0141908Y0078079D01*
X0141822Y0078092D01*
X0141736Y0078109D01*
X0141651Y0078130D01*
X0141568Y0078155D01*
X0141485Y0078183D01*
X0141404Y0078214D01*
X0141324Y0078249D01*
X0141246Y0078288D01*
X0141169Y0078330D01*
X0141094Y0078375D01*
X0141022Y0078424D01*
X0140951Y0078475D01*
X0140883Y0078530D01*
X0140818Y0078587D01*
X0140755Y0078648D01*
X0140694Y0078711D01*
X0140637Y0078776D01*
X0140582Y0078844D01*
X0140531Y0078915D01*
X0140482Y0078987D01*
X0140437Y0079062D01*
X0140395Y0079139D01*
X0140356Y0079217D01*
X0140321Y0079297D01*
X0140290Y0079378D01*
X0140262Y0079461D01*
X0140237Y0079544D01*
X0140216Y0079629D01*
X0140199Y0079715D01*
X0140186Y0079801D01*
X0140177Y0079888D01*
X0140171Y0079975D01*
X0140169Y0080062D01*
X0143669Y0082562D02*
X0147469Y0082562D01*
X0149969Y0082562D02*
X0153669Y0082562D01*
X0157169Y0085062D02*
X0157167Y0085149D01*
X0157161Y0085236D01*
X0157152Y0085323D01*
X0157139Y0085409D01*
X0157122Y0085495D01*
X0157101Y0085580D01*
X0157076Y0085663D01*
X0157048Y0085746D01*
X0157017Y0085827D01*
X0156982Y0085907D01*
X0156943Y0085985D01*
X0156901Y0086062D01*
X0156856Y0086137D01*
X0156807Y0086209D01*
X0156756Y0086280D01*
X0156701Y0086348D01*
X0156644Y0086413D01*
X0156583Y0086476D01*
X0156520Y0086537D01*
X0156455Y0086594D01*
X0156387Y0086649D01*
X0156316Y0086700D01*
X0156244Y0086749D01*
X0156169Y0086794D01*
X0156092Y0086836D01*
X0156014Y0086875D01*
X0155934Y0086910D01*
X0155853Y0086941D01*
X0155770Y0086969D01*
X0155687Y0086994D01*
X0155602Y0087015D01*
X0155516Y0087032D01*
X0155430Y0087045D01*
X0155343Y0087054D01*
X0155256Y0087060D01*
X0155169Y0087062D01*
X0142169Y0087062D01*
X0142082Y0087060D01*
X0141995Y0087054D01*
X0141908Y0087045D01*
X0141822Y0087032D01*
X0141736Y0087015D01*
X0141651Y0086994D01*
X0141568Y0086969D01*
X0141485Y0086941D01*
X0141404Y0086910D01*
X0141324Y0086875D01*
X0141246Y0086836D01*
X0141169Y0086794D01*
X0141094Y0086749D01*
X0141022Y0086700D01*
X0140951Y0086649D01*
X0140883Y0086594D01*
X0140818Y0086537D01*
X0140755Y0086476D01*
X0140694Y0086413D01*
X0140637Y0086348D01*
X0140582Y0086280D01*
X0140531Y0086209D01*
X0140482Y0086137D01*
X0140437Y0086062D01*
X0140395Y0085985D01*
X0140356Y0085907D01*
X0140321Y0085827D01*
X0140290Y0085746D01*
X0140262Y0085663D01*
X0140237Y0085580D01*
X0140216Y0085495D01*
X0140199Y0085409D01*
X0140186Y0085323D01*
X0140177Y0085236D01*
X0140171Y0085149D01*
X0140169Y0085062D01*
X0155169Y0078062D02*
X0155256Y0078064D01*
X0155343Y0078070D01*
X0155430Y0078079D01*
X0155516Y0078092D01*
X0155602Y0078109D01*
X0155687Y0078130D01*
X0155770Y0078155D01*
X0155853Y0078183D01*
X0155934Y0078214D01*
X0156014Y0078249D01*
X0156092Y0078288D01*
X0156169Y0078330D01*
X0156244Y0078375D01*
X0156316Y0078424D01*
X0156387Y0078475D01*
X0156455Y0078530D01*
X0156520Y0078587D01*
X0156583Y0078648D01*
X0156644Y0078711D01*
X0156701Y0078776D01*
X0156756Y0078844D01*
X0156807Y0078915D01*
X0156856Y0078987D01*
X0156901Y0079062D01*
X0156943Y0079139D01*
X0156982Y0079217D01*
X0157017Y0079297D01*
X0157048Y0079378D01*
X0157076Y0079461D01*
X0157101Y0079544D01*
X0157122Y0079629D01*
X0157139Y0079715D01*
X0157152Y0079801D01*
X0157161Y0079888D01*
X0157167Y0079975D01*
X0157169Y0080062D01*
X0179748Y0095456D02*
X0181124Y0096832D01*
X0182500Y0095456D01*
X0184098Y0095456D02*
X0185474Y0096832D01*
X0186850Y0095456D01*
X0188449Y0095456D02*
X0189825Y0096832D01*
X0191201Y0095456D01*
X0197149Y0094768D02*
X0198525Y0094768D01*
X0197149Y0092704D02*
X0197149Y0096832D01*
X0199901Y0096832D01*
X0201499Y0096832D02*
X0203563Y0096832D01*
X0204251Y0096144D01*
X0204251Y0094768D01*
X0203563Y0094080D01*
X0201499Y0094080D01*
X0201499Y0092704D02*
X0201499Y0096832D01*
X0202875Y0094080D02*
X0204251Y0092704D01*
X0205849Y0093392D02*
X0206537Y0092704D01*
X0207913Y0092704D01*
X0208601Y0093392D01*
X0208601Y0096144D01*
X0207913Y0096832D01*
X0206537Y0096832D01*
X0205849Y0096144D01*
X0205849Y0093392D01*
X0210199Y0092704D02*
X0210199Y0096832D01*
X0212951Y0092704D01*
X0212951Y0096832D01*
X0214550Y0096832D02*
X0217302Y0096832D01*
X0215926Y0096832D02*
X0215926Y0092704D01*
X0223250Y0095456D02*
X0224626Y0096832D01*
X0226002Y0095456D01*
X0227600Y0095456D02*
X0228976Y0096832D01*
X0230352Y0095456D01*
X0231950Y0095456D02*
X0233326Y0096832D01*
X0234702Y0095456D01*
D13*
X0156843Y0056873D02*
X0156499Y0057217D01*
X0155811Y0057217D01*
X0155467Y0056873D01*
X0155467Y0055497D01*
X0156843Y0056873D01*
X0156843Y0055497D01*
X0156499Y0055153D01*
X0155811Y0055153D01*
X0155467Y0055497D01*
X0154668Y0055497D02*
X0154668Y0055841D01*
X0154324Y0056185D01*
X0153292Y0056185D01*
X0153292Y0055497D01*
X0153636Y0055153D01*
X0154324Y0055153D01*
X0154668Y0055497D01*
X0153980Y0056873D02*
X0153292Y0056185D01*
X0153980Y0056873D02*
X0154668Y0057217D01*
X0152493Y0057217D02*
X0151117Y0057217D01*
X0151805Y0057217D02*
X0151805Y0055153D01*
X0150318Y0055153D02*
X0148942Y0057217D01*
X0150318Y0057217D02*
X0148942Y0055153D01*
X0145968Y0055153D02*
X0144936Y0055153D01*
X0144592Y0055497D01*
X0144592Y0056185D01*
X0144936Y0056529D01*
X0145968Y0056529D01*
X0145968Y0054809D01*
X0145624Y0054465D01*
X0145280Y0054465D01*
X0143793Y0055153D02*
X0143793Y0056185D01*
X0143449Y0056529D01*
X0142417Y0056529D01*
X0142417Y0055153D01*
X0141655Y0055153D02*
X0140967Y0055153D01*
X0141311Y0055153D02*
X0141311Y0056529D01*
X0140967Y0056529D01*
X0141311Y0057217D02*
X0141311Y0057561D01*
X0140167Y0056529D02*
X0139135Y0056529D01*
X0138791Y0056185D01*
X0139135Y0055841D01*
X0139823Y0055841D01*
X0140167Y0055497D01*
X0139823Y0055153D01*
X0138791Y0055153D01*
X0137992Y0055153D02*
X0137992Y0056529D01*
X0136616Y0056529D02*
X0136616Y0055497D01*
X0136960Y0055153D01*
X0137992Y0055153D01*
X0133679Y0055153D02*
X0133335Y0055497D01*
X0133335Y0056873D01*
X0132991Y0056529D02*
X0133679Y0056529D01*
X0132192Y0056185D02*
X0132192Y0055497D01*
X0131848Y0055153D01*
X0131160Y0055153D01*
X0130816Y0055497D01*
X0130816Y0056185D01*
X0131160Y0056529D01*
X0131848Y0056529D01*
X0132192Y0056185D01*
X0130017Y0056185D02*
X0130017Y0055153D01*
X0130017Y0056185D02*
X0129673Y0056529D01*
X0128641Y0056529D01*
X0128641Y0055153D01*
X0125704Y0056185D02*
X0125016Y0056185D01*
X0125360Y0056873D02*
X0125360Y0055153D01*
X0124254Y0055153D02*
X0123566Y0055153D01*
X0123910Y0055153D02*
X0123910Y0056529D01*
X0123566Y0056529D01*
X0123910Y0057217D02*
X0123910Y0057561D01*
X0125360Y0056873D02*
X0125704Y0057217D01*
X0120592Y0056529D02*
X0119560Y0056529D01*
X0119216Y0056185D01*
X0119560Y0055841D01*
X0120248Y0055841D01*
X0120592Y0055497D01*
X0120248Y0055153D01*
X0119216Y0055153D01*
X0118417Y0055153D02*
X0117385Y0055153D01*
X0117041Y0055497D01*
X0117041Y0056185D01*
X0117385Y0056529D01*
X0118417Y0056529D01*
X0118417Y0057217D02*
X0118417Y0055153D01*
X0116242Y0055153D02*
X0116242Y0056185D01*
X0115898Y0056529D01*
X0115210Y0056529D01*
X0115210Y0055841D02*
X0116242Y0055841D01*
X0116242Y0055153D02*
X0115210Y0055153D01*
X0114866Y0055497D01*
X0115210Y0055841D01*
X0114066Y0056185D02*
X0114066Y0055497D01*
X0113722Y0055153D01*
X0112690Y0055153D01*
X0112690Y0054465D02*
X0112690Y0056529D01*
X0113722Y0056529D01*
X0114066Y0056185D01*
X0109716Y0056185D02*
X0109716Y0055497D01*
X0109372Y0055153D01*
X0108684Y0055153D01*
X0108340Y0055497D01*
X0108340Y0056185D01*
X0108684Y0056529D01*
X0109372Y0056529D01*
X0109716Y0056185D01*
X0107578Y0056529D02*
X0106890Y0056529D01*
X0107234Y0056873D02*
X0107234Y0055497D01*
X0107578Y0055153D01*
X0103935Y0056529D02*
X0103591Y0056529D01*
X0102903Y0055841D01*
X0102903Y0055153D02*
X0102903Y0056529D01*
X0102103Y0056185D02*
X0102103Y0055841D01*
X0100728Y0055841D01*
X0100728Y0055497D02*
X0100728Y0056185D01*
X0101071Y0056529D01*
X0101759Y0056529D01*
X0102103Y0056185D01*
X0101759Y0055153D02*
X0101071Y0055153D01*
X0100728Y0055497D01*
X0099928Y0055153D02*
X0098896Y0055153D01*
X0098552Y0055497D01*
X0098552Y0056185D01*
X0098896Y0056529D01*
X0099928Y0056529D01*
X0099928Y0057217D02*
X0099928Y0055153D01*
X0097790Y0055153D02*
X0097102Y0055153D01*
X0097446Y0055153D02*
X0097446Y0057217D01*
X0097102Y0057217D01*
X0096303Y0056185D02*
X0095959Y0056529D01*
X0095271Y0056529D01*
X0094927Y0056185D01*
X0094927Y0055497D01*
X0095271Y0055153D01*
X0095959Y0055153D01*
X0096303Y0055497D01*
X0096303Y0056185D01*
X0094128Y0055841D02*
X0094128Y0055497D01*
X0093784Y0055153D01*
X0093096Y0055153D01*
X0092752Y0055497D01*
X0093096Y0056185D02*
X0093784Y0056185D01*
X0094128Y0055841D01*
X0094128Y0056873D02*
X0093784Y0057217D01*
X0093096Y0057217D01*
X0092752Y0056873D01*
X0092752Y0056529D01*
X0093096Y0056185D01*
D14*
X0072929Y0056303D02*
X0069929Y0056303D01*
X0066929Y0056303D01*
X0066929Y0053803D02*
X0069929Y0053803D01*
X0072929Y0053803D01*
X0085673Y0037153D02*
X0085673Y0031386D01*
X0154580Y0035321D02*
X0160347Y0035321D01*
X0157464Y0038205D02*
X0157464Y0032438D01*
X0169291Y0053803D02*
X0172291Y0053803D01*
X0175291Y0053803D01*
X0175291Y0056303D02*
X0172291Y0056303D01*
X0169291Y0056303D01*
X0149969Y0079562D02*
X0149969Y0082562D01*
X0149969Y0085562D01*
X0147469Y0085562D02*
X0147469Y0082562D01*
X0147469Y0079562D01*
D15*
X0128571Y0063073D03*
X0128571Y0062286D03*
X0126169Y0062286D03*
X0126169Y0063073D03*
X0123807Y0061971D03*
X0117469Y0061971D03*
X0117547Y0063388D03*
X0114594Y0062522D03*
X0114594Y0062483D03*
X0114555Y0062640D03*
X0114516Y0062759D03*
X0114516Y0062798D03*
X0114122Y0062837D03*
X0114122Y0062877D03*
X0114083Y0062798D03*
X0114083Y0062759D03*
X0114083Y0062719D03*
X0114043Y0062640D03*
X0114043Y0062601D03*
X0114043Y0062562D03*
X0114004Y0062522D03*
X0114004Y0062483D03*
X0112114Y0062483D03*
X0112114Y0062522D03*
X0112075Y0062640D03*
X0112035Y0062759D03*
X0112035Y0062798D03*
X0111642Y0062837D03*
X0111642Y0062877D03*
X0111602Y0062798D03*
X0111602Y0062759D03*
X0111602Y0062719D03*
X0111563Y0062640D03*
X0111563Y0062601D03*
X0111563Y0062562D03*
X0111524Y0062522D03*
X0111524Y0062483D03*
X0109634Y0062483D03*
X0109634Y0062522D03*
X0109594Y0062640D03*
X0109555Y0062759D03*
X0109555Y0062798D03*
X0109161Y0062837D03*
X0109161Y0062877D03*
X0109122Y0062798D03*
X0109122Y0062759D03*
X0109122Y0062719D03*
X0109083Y0062640D03*
X0109083Y0062601D03*
X0109083Y0062562D03*
X0109043Y0062522D03*
X0109043Y0062483D03*
X0132114Y0061971D03*
D16*
X0129673Y0061971D03*
X0129673Y0063388D03*
X0119083Y0063388D03*
X0119083Y0061971D03*
X0115146Y0062955D03*
X0115106Y0062837D03*
X0115106Y0062798D03*
X0115067Y0062719D03*
X0115067Y0062680D03*
X0115067Y0062640D03*
X0115028Y0062601D03*
X0115028Y0062562D03*
X0115028Y0062522D03*
X0115028Y0062483D03*
X0114319Y0063349D03*
X0113531Y0062719D03*
X0113571Y0062601D03*
X0113571Y0062562D03*
X0112626Y0062798D03*
X0112626Y0062837D03*
X0112587Y0062719D03*
X0112587Y0062680D03*
X0112587Y0062640D03*
X0112547Y0062601D03*
X0112547Y0062562D03*
X0112547Y0062522D03*
X0112547Y0062483D03*
X0112665Y0062955D03*
X0111839Y0063349D03*
X0111051Y0062719D03*
X0111091Y0062601D03*
X0111091Y0062562D03*
X0110146Y0062798D03*
X0110146Y0062837D03*
X0110106Y0062719D03*
X0110106Y0062680D03*
X0110106Y0062640D03*
X0110067Y0062601D03*
X0110067Y0062562D03*
X0110067Y0062522D03*
X0110067Y0062483D03*
X0110185Y0062955D03*
X0109358Y0063349D03*
X0108571Y0062719D03*
X0108610Y0062601D03*
X0108610Y0062562D03*
D17*
X0108630Y0062522D03*
X0108630Y0062483D03*
X0108591Y0062640D03*
X0108591Y0062680D03*
X0108551Y0062759D03*
X0108551Y0062798D03*
X0108551Y0062837D03*
X0108512Y0062877D03*
X0108512Y0062916D03*
X0108512Y0062955D03*
X0108472Y0063034D03*
X0108472Y0063073D03*
X0108472Y0063113D03*
X0108433Y0063192D03*
X0108433Y0063231D03*
X0108394Y0063349D03*
X0109339Y0063310D03*
X0110205Y0063073D03*
X0110205Y0063034D03*
X0110205Y0062995D03*
X0110165Y0062916D03*
X0110165Y0062877D03*
X0110126Y0062759D03*
X0110244Y0063113D03*
X0110244Y0063152D03*
X0110244Y0063192D03*
X0110244Y0063231D03*
X0110283Y0063310D03*
X0110283Y0063349D03*
X0110874Y0063349D03*
X0110913Y0063231D03*
X0110913Y0063192D03*
X0110953Y0063113D03*
X0110953Y0063073D03*
X0110953Y0063034D03*
X0110992Y0062955D03*
X0110992Y0062916D03*
X0110992Y0062877D03*
X0111031Y0062837D03*
X0111031Y0062798D03*
X0111031Y0062759D03*
X0111071Y0062680D03*
X0111071Y0062640D03*
X0111110Y0062522D03*
X0111110Y0062483D03*
X0111819Y0063310D03*
X0112685Y0063073D03*
X0112685Y0063034D03*
X0112685Y0062995D03*
X0112646Y0062916D03*
X0112646Y0062877D03*
X0112606Y0062759D03*
X0112724Y0063113D03*
X0112724Y0063152D03*
X0112724Y0063192D03*
X0112724Y0063231D03*
X0112764Y0063310D03*
X0112764Y0063349D03*
X0113354Y0063349D03*
X0113394Y0063231D03*
X0113394Y0063192D03*
X0113433Y0063113D03*
X0113433Y0063073D03*
X0113433Y0063034D03*
X0113472Y0062955D03*
X0113472Y0062916D03*
X0113472Y0062877D03*
X0113512Y0062837D03*
X0113512Y0062798D03*
X0113512Y0062759D03*
X0113551Y0062680D03*
X0113551Y0062640D03*
X0113591Y0062522D03*
X0113591Y0062483D03*
X0114299Y0063310D03*
X0115165Y0063073D03*
X0115165Y0063034D03*
X0115165Y0062995D03*
X0115126Y0062916D03*
X0115126Y0062877D03*
X0115087Y0062759D03*
X0115205Y0063113D03*
X0115205Y0063152D03*
X0115205Y0063192D03*
X0115205Y0063231D03*
X0115244Y0063310D03*
X0115244Y0063349D03*
X0115992Y0062444D03*
X0115992Y0062404D03*
X0115992Y0062365D03*
X0115992Y0062325D03*
X0115992Y0062286D03*
X0115992Y0062247D03*
X0115992Y0062207D03*
X0115992Y0062168D03*
X0115992Y0062129D03*
X0115992Y0062089D03*
X0115992Y0062050D03*
X0115992Y0062010D03*
X0116858Y0062010D03*
X0117843Y0062444D03*
X0117882Y0062601D03*
X0117882Y0062640D03*
X0117882Y0062680D03*
X0117882Y0062719D03*
X0117882Y0062759D03*
X0118551Y0062759D03*
X0118551Y0062719D03*
X0118551Y0062680D03*
X0118551Y0062640D03*
X0118551Y0062601D03*
X0118591Y0062444D03*
X0118591Y0062916D03*
X0119575Y0062916D03*
X0119614Y0062759D03*
X0119614Y0062719D03*
X0119614Y0062680D03*
X0119614Y0062640D03*
X0119614Y0062601D03*
X0119575Y0062444D03*
X0120402Y0062444D03*
X0120402Y0062483D03*
X0120402Y0062522D03*
X0120402Y0062562D03*
X0120402Y0062601D03*
X0120402Y0062640D03*
X0120402Y0062680D03*
X0120402Y0062719D03*
X0120402Y0062759D03*
X0120402Y0062798D03*
X0120402Y0062837D03*
X0120402Y0062877D03*
X0120402Y0062916D03*
X0120402Y0062955D03*
X0120402Y0062995D03*
X0120402Y0063034D03*
X0120402Y0063388D03*
X0120402Y0063428D03*
X0120402Y0063467D03*
X0120402Y0063507D03*
X0120441Y0063546D03*
X0121465Y0063507D03*
X0121465Y0063467D03*
X0121465Y0063428D03*
X0121465Y0063388D03*
X0121504Y0063546D03*
X0121465Y0063034D03*
X0121465Y0062995D03*
X0121465Y0062955D03*
X0121465Y0062916D03*
X0121465Y0062877D03*
X0121465Y0062837D03*
X0121465Y0062798D03*
X0121465Y0062759D03*
X0121465Y0062719D03*
X0121465Y0062680D03*
X0121465Y0062640D03*
X0121465Y0062601D03*
X0121465Y0062562D03*
X0121465Y0062522D03*
X0121465Y0062483D03*
X0121465Y0062444D03*
X0121465Y0062404D03*
X0121465Y0062365D03*
X0121465Y0062325D03*
X0121465Y0062286D03*
X0121465Y0062247D03*
X0121465Y0062207D03*
X0121465Y0062168D03*
X0121465Y0062129D03*
X0121465Y0062089D03*
X0121465Y0062050D03*
X0121465Y0062010D03*
X0120402Y0062010D03*
X0120402Y0062050D03*
X0120402Y0062089D03*
X0120402Y0062129D03*
X0120402Y0062168D03*
X0120402Y0062207D03*
X0120402Y0062247D03*
X0120402Y0062286D03*
X0120402Y0062325D03*
X0120402Y0062365D03*
X0120402Y0062404D03*
X0122528Y0062404D03*
X0122528Y0062444D03*
X0122528Y0062483D03*
X0122528Y0062522D03*
X0122528Y0062562D03*
X0122528Y0062601D03*
X0122528Y0062640D03*
X0122528Y0062680D03*
X0122528Y0062719D03*
X0122528Y0062759D03*
X0122528Y0062798D03*
X0122528Y0062837D03*
X0122528Y0062877D03*
X0122528Y0062916D03*
X0122528Y0062955D03*
X0122528Y0062995D03*
X0122528Y0063034D03*
X0122528Y0063388D03*
X0122528Y0063428D03*
X0122528Y0063467D03*
X0122528Y0063507D03*
X0122528Y0063546D03*
X0122528Y0063585D03*
X0122528Y0063625D03*
X0122528Y0063664D03*
X0122528Y0063703D03*
X0122528Y0063743D03*
X0123551Y0062483D03*
X0123551Y0062444D03*
X0123551Y0062404D03*
X0123551Y0062365D03*
X0122843Y0061971D03*
X0124496Y0062010D03*
X0124496Y0062050D03*
X0124496Y0062089D03*
X0124496Y0062365D03*
X0124496Y0062404D03*
X0124496Y0062444D03*
X0124496Y0062483D03*
X0124496Y0062522D03*
X0124496Y0062562D03*
X0124496Y0062601D03*
X0124496Y0062916D03*
X0124496Y0062955D03*
X0125244Y0062719D03*
X0125244Y0062680D03*
X0125244Y0062640D03*
X0125835Y0061971D03*
X0126858Y0062010D03*
X0126858Y0062050D03*
X0126858Y0062089D03*
X0126858Y0062129D03*
X0126858Y0062168D03*
X0126858Y0062207D03*
X0126858Y0062247D03*
X0126858Y0062286D03*
X0126858Y0062325D03*
X0126858Y0062365D03*
X0126858Y0062404D03*
X0126858Y0062444D03*
X0127646Y0062640D03*
X0127646Y0062680D03*
X0127646Y0062719D03*
X0128236Y0063388D03*
X0129181Y0062916D03*
X0129142Y0062759D03*
X0129142Y0062719D03*
X0129142Y0062680D03*
X0129142Y0062640D03*
X0129142Y0062601D03*
X0129181Y0062444D03*
X0130165Y0062444D03*
X0130205Y0062601D03*
X0130205Y0062640D03*
X0130205Y0062680D03*
X0130205Y0062719D03*
X0130205Y0062759D03*
X0130165Y0062916D03*
X0130992Y0062444D03*
X0130992Y0062404D03*
X0130992Y0062365D03*
X0130992Y0062325D03*
X0130992Y0062286D03*
X0130992Y0062247D03*
X0130992Y0062207D03*
X0130992Y0062168D03*
X0130992Y0062129D03*
X0130992Y0062089D03*
X0130992Y0062050D03*
X0130992Y0062010D03*
X0131858Y0062562D03*
X0131858Y0062601D03*
X0131858Y0062640D03*
X0131858Y0062680D03*
X0131858Y0062719D03*
X0131858Y0062759D03*
X0131858Y0062798D03*
X0131858Y0062837D03*
X0131858Y0062877D03*
X0131858Y0062916D03*
X0131858Y0062955D03*
X0131858Y0062995D03*
X0131858Y0063034D03*
X0131858Y0063073D03*
X0131858Y0063113D03*
X0131858Y0063152D03*
X0131858Y0063192D03*
X0131858Y0063231D03*
X0131858Y0063270D03*
X0131858Y0063310D03*
X0131858Y0063349D03*
X0128236Y0061971D03*
X0125835Y0063388D03*
D18*
X0125303Y0062955D03*
X0125303Y0062916D03*
X0125264Y0062877D03*
X0125264Y0062837D03*
X0125264Y0062798D03*
X0125264Y0062759D03*
X0125264Y0062601D03*
X0125264Y0062562D03*
X0125264Y0062522D03*
X0125264Y0062483D03*
X0125303Y0062444D03*
X0125303Y0062404D03*
X0124476Y0062325D03*
X0124476Y0062995D03*
X0123571Y0062522D03*
X0123571Y0062325D03*
X0122547Y0062325D03*
X0122547Y0062365D03*
X0119594Y0062483D03*
X0119594Y0062522D03*
X0119594Y0062562D03*
X0119555Y0062404D03*
X0119555Y0062365D03*
X0119516Y0062325D03*
X0119594Y0062798D03*
X0119594Y0062837D03*
X0119594Y0062877D03*
X0119555Y0062955D03*
X0119555Y0062995D03*
X0119516Y0063034D03*
X0118650Y0063034D03*
X0118610Y0062995D03*
X0118610Y0062955D03*
X0118571Y0062877D03*
X0118571Y0062837D03*
X0118571Y0062798D03*
X0118571Y0062562D03*
X0118571Y0062522D03*
X0118571Y0062483D03*
X0118610Y0062404D03*
X0118610Y0062365D03*
X0118650Y0062325D03*
X0117862Y0062483D03*
X0117862Y0062522D03*
X0117862Y0062562D03*
X0117823Y0062404D03*
X0117862Y0062798D03*
X0117862Y0062837D03*
X0117862Y0062877D03*
X0117862Y0062916D03*
X0117823Y0062955D03*
X0116878Y0062955D03*
X0116878Y0062916D03*
X0116878Y0062877D03*
X0116878Y0062837D03*
X0116878Y0062798D03*
X0116878Y0062759D03*
X0116878Y0062719D03*
X0116878Y0062680D03*
X0116878Y0062640D03*
X0116878Y0062601D03*
X0116878Y0062562D03*
X0116878Y0062522D03*
X0116878Y0062483D03*
X0116878Y0062444D03*
X0116878Y0062404D03*
X0116878Y0062365D03*
X0116878Y0062325D03*
X0116878Y0062286D03*
X0116878Y0062995D03*
X0116878Y0063270D03*
X0116878Y0063310D03*
X0116878Y0063349D03*
X0116878Y0063388D03*
X0116878Y0063428D03*
X0116878Y0063467D03*
X0116878Y0063507D03*
X0116878Y0063546D03*
X0116878Y0063585D03*
X0116878Y0063625D03*
X0116878Y0063664D03*
X0116878Y0063703D03*
X0116878Y0063743D03*
X0116878Y0063782D03*
X0116878Y0063822D03*
X0116878Y0063861D03*
X0116878Y0063900D03*
X0115224Y0063270D03*
X0114319Y0063270D03*
X0114319Y0063231D03*
X0114319Y0063192D03*
X0113453Y0062995D03*
X0113413Y0063152D03*
X0113374Y0063270D03*
X0113374Y0063310D03*
X0112744Y0063270D03*
X0111839Y0063270D03*
X0111839Y0063231D03*
X0111839Y0063192D03*
X0110972Y0062995D03*
X0110933Y0063152D03*
X0110894Y0063270D03*
X0110894Y0063310D03*
X0110264Y0063270D03*
X0109358Y0063270D03*
X0109358Y0063231D03*
X0109358Y0063192D03*
X0108492Y0062995D03*
X0108453Y0063152D03*
X0108413Y0063270D03*
X0108413Y0063310D03*
X0108807Y0062010D03*
X0109870Y0062010D03*
X0111287Y0062010D03*
X0112350Y0062010D03*
X0113768Y0062010D03*
X0114831Y0062010D03*
X0120461Y0063585D03*
X0120776Y0063900D03*
X0121524Y0063585D03*
X0121839Y0063900D03*
X0127665Y0062877D03*
X0127665Y0062837D03*
X0127665Y0062798D03*
X0127665Y0062759D03*
X0127665Y0062601D03*
X0127665Y0062562D03*
X0127665Y0062522D03*
X0127665Y0062483D03*
X0127705Y0062444D03*
X0127705Y0062404D03*
X0127705Y0062916D03*
X0127705Y0062955D03*
X0129161Y0062877D03*
X0129161Y0062837D03*
X0129161Y0062798D03*
X0129201Y0062955D03*
X0129201Y0062995D03*
X0129240Y0063034D03*
X0129161Y0062562D03*
X0129161Y0062522D03*
X0129161Y0062483D03*
X0129201Y0062404D03*
X0129201Y0062365D03*
X0129240Y0062325D03*
X0130106Y0062325D03*
X0130146Y0062365D03*
X0130146Y0062404D03*
X0130185Y0062483D03*
X0130185Y0062522D03*
X0130185Y0062562D03*
X0130185Y0062798D03*
X0130185Y0062837D03*
X0130185Y0062877D03*
X0130146Y0062955D03*
X0130146Y0062995D03*
X0130106Y0063034D03*
X0131878Y0062522D03*
X0131878Y0062483D03*
X0131878Y0062444D03*
X0131878Y0062404D03*
X0132823Y0062404D03*
X0132823Y0062444D03*
X0132823Y0062483D03*
X0132823Y0062522D03*
X0132823Y0062562D03*
X0132823Y0062601D03*
X0132823Y0062640D03*
X0132823Y0062680D03*
X0132823Y0062719D03*
X0132823Y0062759D03*
X0132823Y0062798D03*
X0132823Y0062837D03*
X0132823Y0062877D03*
X0132823Y0062916D03*
X0132823Y0062955D03*
X0132823Y0062995D03*
X0132823Y0063034D03*
X0132823Y0063073D03*
X0132823Y0063113D03*
X0132823Y0063152D03*
X0132823Y0063192D03*
X0132823Y0063231D03*
X0132823Y0063270D03*
X0132823Y0063310D03*
X0132823Y0063349D03*
X0133689Y0063349D03*
X0133689Y0063310D03*
X0133689Y0063270D03*
X0133689Y0063231D03*
X0133689Y0063192D03*
X0133689Y0063152D03*
X0133689Y0063113D03*
X0133689Y0063073D03*
X0133689Y0063034D03*
X0133689Y0062995D03*
X0133689Y0062955D03*
X0133689Y0062916D03*
X0133689Y0062877D03*
X0133689Y0062837D03*
X0133689Y0062483D03*
X0133689Y0062444D03*
X0133689Y0062404D03*
X0133689Y0062365D03*
X0133689Y0062325D03*
X0133689Y0062286D03*
X0133689Y0062247D03*
X0133689Y0062207D03*
X0133689Y0062168D03*
X0133689Y0062129D03*
X0133689Y0062089D03*
X0133689Y0062050D03*
X0133689Y0062010D03*
X0134398Y0062404D03*
X0134358Y0062483D03*
X0134319Y0062522D03*
X0134476Y0062286D03*
X0134555Y0062168D03*
X0134201Y0062837D03*
X0134240Y0062877D03*
X0134280Y0062916D03*
X0134319Y0062955D03*
X0134398Y0063073D03*
X0134437Y0063113D03*
X0134594Y0063310D03*
X0133689Y0063388D03*
X0133689Y0063428D03*
X0133689Y0063467D03*
X0133689Y0063507D03*
X0133689Y0063546D03*
X0133689Y0063585D03*
X0133689Y0063625D03*
X0133689Y0063664D03*
X0133689Y0063703D03*
X0133689Y0063743D03*
X0133689Y0063782D03*
X0133689Y0063822D03*
X0133689Y0063861D03*
X0133689Y0063900D03*
X0132823Y0062089D03*
X0132823Y0062050D03*
X0132823Y0062010D03*
D19*
X0133728Y0062562D03*
X0130067Y0062286D03*
X0129280Y0062286D03*
X0129280Y0063073D03*
X0130067Y0063073D03*
X0124398Y0063073D03*
X0124004Y0063388D03*
X0123807Y0062010D03*
X0119476Y0062286D03*
X0118689Y0062286D03*
X0118689Y0063073D03*
X0119476Y0063073D03*
X0117469Y0062010D03*
X0114831Y0062129D03*
X0113768Y0062129D03*
X0114319Y0063073D03*
X0114319Y0063113D03*
X0112350Y0062129D03*
X0111287Y0062129D03*
X0111839Y0063073D03*
X0111839Y0063113D03*
X0109870Y0062129D03*
X0108807Y0062129D03*
X0109358Y0063073D03*
X0109358Y0063113D03*
D20*
X0109870Y0062404D03*
X0109870Y0062365D03*
X0108807Y0062365D03*
X0108807Y0062404D03*
X0111287Y0062404D03*
X0111287Y0062365D03*
X0112350Y0062365D03*
X0112350Y0062404D03*
X0113768Y0062404D03*
X0113768Y0062365D03*
X0114831Y0062365D03*
X0114831Y0062404D03*
X0119083Y0062010D03*
X0119083Y0063349D03*
X0124358Y0062877D03*
X0129673Y0063349D03*
X0129673Y0062010D03*
D21*
X0132134Y0062050D03*
X0123827Y0062050D03*
X0123709Y0062601D03*
X0122843Y0062010D03*
X0121780Y0063822D03*
X0120717Y0063822D03*
X0120047Y0065869D03*
X0116583Y0065869D03*
X0114299Y0062916D03*
X0113787Y0062325D03*
X0113787Y0062286D03*
X0114811Y0062286D03*
X0114811Y0062325D03*
X0112331Y0062325D03*
X0112331Y0062286D03*
X0111819Y0062916D03*
X0111307Y0062325D03*
X0111307Y0062286D03*
X0109850Y0062286D03*
X0109850Y0062325D03*
X0109339Y0062916D03*
X0108827Y0062325D03*
X0108827Y0062286D03*
X0125953Y0065869D03*
D22*
X0121740Y0063782D03*
X0121740Y0063743D03*
X0120677Y0063743D03*
X0120677Y0063782D03*
X0122803Y0062050D03*
X0123827Y0062089D03*
X0125835Y0062010D03*
X0125835Y0063349D03*
X0128236Y0063349D03*
X0128236Y0062010D03*
X0132134Y0062089D03*
X0117528Y0063270D03*
X0114811Y0062444D03*
X0113787Y0062444D03*
X0112331Y0062444D03*
X0111307Y0062444D03*
X0109850Y0062444D03*
X0108827Y0062444D03*
D23*
X0108827Y0062089D03*
X0108827Y0062050D03*
X0109850Y0062050D03*
X0109850Y0062089D03*
X0109339Y0063152D03*
X0111307Y0062089D03*
X0111307Y0062050D03*
X0112331Y0062050D03*
X0112331Y0062089D03*
X0111819Y0063152D03*
X0113787Y0062089D03*
X0113787Y0062050D03*
X0114811Y0062050D03*
X0114811Y0062089D03*
X0114299Y0063152D03*
X0117567Y0063349D03*
X0117803Y0062995D03*
X0117803Y0062365D03*
X0117764Y0062325D03*
X0122567Y0062286D03*
X0123591Y0062286D03*
X0123630Y0062562D03*
X0124457Y0063034D03*
X0125323Y0062995D03*
X0125362Y0063034D03*
X0125323Y0062365D03*
X0125362Y0062325D03*
X0127724Y0062365D03*
X0127764Y0062325D03*
X0127724Y0062995D03*
X0127764Y0063034D03*
X0131898Y0062365D03*
X0131937Y0062325D03*
X0132134Y0062010D03*
X0132803Y0062365D03*
X0133709Y0062522D03*
X0134299Y0062562D03*
X0134378Y0062444D03*
X0134417Y0062365D03*
X0134457Y0062325D03*
X0134496Y0062247D03*
X0134535Y0062207D03*
X0134575Y0062129D03*
X0134614Y0062089D03*
X0134654Y0062050D03*
X0134654Y0062010D03*
X0134339Y0062995D03*
X0134378Y0063034D03*
X0134457Y0063152D03*
X0134496Y0063192D03*
X0134535Y0063231D03*
X0134575Y0063270D03*
X0134614Y0063349D03*
D24*
X0128157Y0063152D03*
X0128157Y0062207D03*
X0125756Y0062207D03*
X0125756Y0063152D03*
X0124024Y0063231D03*
X0117213Y0062050D03*
X0114811Y0066892D03*
X0109890Y0066892D03*
X0108118Y0066932D03*
X0108079Y0066892D03*
X0108118Y0067995D03*
X0108079Y0068034D03*
X0108000Y0069294D03*
X0108039Y0070514D03*
X0108000Y0070554D03*
X0116701Y0070593D03*
X0120165Y0070593D03*
X0130126Y0068034D03*
X0130087Y0066892D03*
X0135480Y0066892D03*
X0137331Y0066892D03*
X0135441Y0069333D03*
D25*
X0129673Y0063310D03*
X0129673Y0062050D03*
X0122744Y0062247D03*
X0119083Y0062050D03*
X0119083Y0063310D03*
X0120028Y0065948D03*
X0116563Y0065948D03*
D26*
X0116583Y0065987D03*
X0120047Y0065987D03*
X0125953Y0065948D03*
X0125835Y0063310D03*
X0125835Y0062050D03*
X0128236Y0062050D03*
X0128236Y0063310D03*
D27*
X0129693Y0062207D03*
X0124102Y0062719D03*
X0124063Y0063113D03*
X0124063Y0063152D03*
X0119102Y0062207D03*
X0117252Y0062089D03*
X0114772Y0066814D03*
X0114772Y0069333D03*
X0116780Y0070672D03*
X0120244Y0070672D03*
X0109929Y0069333D03*
X0108039Y0068113D03*
X0108039Y0066853D03*
X0108000Y0066814D03*
X0109929Y0066814D03*
X0107961Y0070593D03*
X0130165Y0068073D03*
X0130165Y0066814D03*
X0135402Y0066814D03*
X0137370Y0066814D03*
X0137370Y0069333D03*
X0135402Y0069373D03*
D28*
X0125972Y0065987D03*
X0123965Y0063349D03*
X0124240Y0062837D03*
X0119083Y0063270D03*
X0119083Y0062089D03*
X0120028Y0066026D03*
X0116563Y0066026D03*
X0129673Y0063270D03*
X0129673Y0062089D03*
X0133925Y0062759D03*
X0133925Y0062798D03*
D29*
X0122783Y0062129D03*
X0122783Y0062089D03*
X0121720Y0063703D03*
X0120657Y0063703D03*
X0120028Y0065908D03*
X0116563Y0065908D03*
D30*
X0114909Y0067050D03*
X0114909Y0067089D03*
X0114909Y0069058D03*
X0114909Y0069097D03*
X0116602Y0070396D03*
X0116602Y0070436D03*
X0118295Y0071538D03*
X0120067Y0070436D03*
X0120067Y0070396D03*
X0121760Y0071538D03*
X0125972Y0070672D03*
X0125972Y0070633D03*
X0125972Y0070593D03*
X0125972Y0070554D03*
X0125972Y0070514D03*
X0125972Y0070475D03*
X0125972Y0070436D03*
X0125972Y0070396D03*
X0125972Y0070357D03*
X0125972Y0070318D03*
X0125972Y0070278D03*
X0125972Y0070239D03*
X0125972Y0070199D03*
X0125972Y0070160D03*
X0125972Y0070121D03*
X0125972Y0070081D03*
X0125972Y0070042D03*
X0125972Y0070003D03*
X0125972Y0069963D03*
X0125972Y0069924D03*
X0125972Y0069885D03*
X0125972Y0069845D03*
X0125972Y0069806D03*
X0125972Y0069766D03*
X0125972Y0069727D03*
X0125972Y0069688D03*
X0125972Y0069648D03*
X0125972Y0069609D03*
X0125972Y0069570D03*
X0125972Y0069530D03*
X0125972Y0069491D03*
X0125972Y0069451D03*
X0125972Y0069412D03*
X0125972Y0069373D03*
X0125972Y0069333D03*
X0125972Y0069294D03*
X0125972Y0069255D03*
X0125972Y0069215D03*
X0125972Y0069176D03*
X0125972Y0069136D03*
X0125972Y0069097D03*
X0125972Y0069058D03*
X0125972Y0069018D03*
X0125972Y0068979D03*
X0125972Y0068940D03*
X0125972Y0068900D03*
X0125972Y0068861D03*
X0125972Y0068822D03*
X0125972Y0068782D03*
X0125972Y0068743D03*
X0125972Y0068703D03*
X0125972Y0068664D03*
X0125972Y0068625D03*
X0125972Y0068585D03*
X0125972Y0068546D03*
X0125972Y0068507D03*
X0125972Y0068467D03*
X0125972Y0068428D03*
X0125972Y0068388D03*
X0125972Y0068349D03*
X0125972Y0068310D03*
X0125972Y0068270D03*
X0125972Y0068231D03*
X0125972Y0068192D03*
X0125972Y0068152D03*
X0125972Y0068113D03*
X0125972Y0068073D03*
X0125972Y0068034D03*
X0125972Y0067995D03*
X0125972Y0067955D03*
X0125972Y0067916D03*
X0125972Y0067877D03*
X0125972Y0067837D03*
X0125972Y0067798D03*
X0125972Y0067759D03*
X0125972Y0067719D03*
X0125972Y0067680D03*
X0125972Y0067640D03*
X0125972Y0067601D03*
X0125972Y0067562D03*
X0125972Y0067522D03*
X0125972Y0067483D03*
X0125972Y0067444D03*
X0125972Y0067404D03*
X0125972Y0067365D03*
X0125972Y0067325D03*
X0125972Y0067286D03*
X0125972Y0067247D03*
X0125972Y0067207D03*
X0125972Y0067168D03*
X0125972Y0067129D03*
X0125972Y0067089D03*
X0125972Y0067050D03*
X0125972Y0067010D03*
X0125972Y0066971D03*
X0125972Y0066932D03*
X0125972Y0066892D03*
X0125972Y0066853D03*
X0125972Y0066814D03*
X0125972Y0066774D03*
X0125972Y0066735D03*
X0125972Y0066696D03*
X0125972Y0066656D03*
X0125972Y0066617D03*
X0125972Y0066577D03*
X0125972Y0066538D03*
X0125972Y0066499D03*
X0125972Y0066459D03*
X0125972Y0066420D03*
X0125972Y0066381D03*
X0125972Y0066341D03*
X0125972Y0066302D03*
X0125972Y0066262D03*
X0125972Y0066223D03*
X0125972Y0066184D03*
X0125972Y0066144D03*
X0125972Y0066105D03*
X0125972Y0066066D03*
X0130028Y0067010D03*
X0130028Y0067050D03*
X0130028Y0067837D03*
X0130028Y0067877D03*
X0135539Y0067010D03*
X0135579Y0067050D03*
X0135579Y0067089D03*
X0135579Y0067129D03*
X0137232Y0067089D03*
X0137232Y0067050D03*
X0137232Y0069058D03*
X0137232Y0069097D03*
X0135579Y0069097D03*
X0135539Y0069215D03*
X0133965Y0062680D03*
X0133965Y0062640D03*
X0128217Y0062089D03*
X0128217Y0063270D03*
X0125815Y0063270D03*
X0125815Y0062089D03*
X0109791Y0067050D03*
X0109791Y0067089D03*
X0108217Y0067325D03*
X0108217Y0067365D03*
X0108217Y0067404D03*
X0108217Y0067444D03*
X0108217Y0067483D03*
X0108217Y0067522D03*
X0108217Y0067562D03*
X0108098Y0069451D03*
X0108098Y0069491D03*
X0108138Y0069530D03*
X0108138Y0069570D03*
X0108138Y0069609D03*
X0108177Y0069845D03*
X0108177Y0069885D03*
X0108177Y0069924D03*
X0108177Y0069963D03*
X0108177Y0070003D03*
X0108177Y0070042D03*
X0108138Y0070239D03*
X0108138Y0070278D03*
X0108138Y0070318D03*
X0108098Y0070396D03*
X0109791Y0069097D03*
X0109791Y0069058D03*
X0102154Y0069176D03*
X0102154Y0069215D03*
X0102154Y0069255D03*
X0102154Y0069294D03*
X0102154Y0069333D03*
X0102154Y0069373D03*
X0102154Y0069412D03*
X0102154Y0069451D03*
X0102154Y0069491D03*
X0102154Y0069530D03*
X0102154Y0069570D03*
X0102154Y0069609D03*
X0102154Y0069648D03*
X0102154Y0069688D03*
X0102154Y0069727D03*
X0102154Y0069766D03*
X0102154Y0069806D03*
X0102154Y0069845D03*
X0102154Y0069885D03*
X0102154Y0069924D03*
X0102154Y0069963D03*
X0102154Y0070003D03*
X0102154Y0070042D03*
X0102154Y0070081D03*
X0102154Y0070121D03*
X0102154Y0070160D03*
X0102154Y0070199D03*
X0102154Y0070239D03*
X0102154Y0070278D03*
X0102154Y0070318D03*
X0102154Y0070357D03*
X0102154Y0070396D03*
X0102154Y0070436D03*
X0102154Y0070475D03*
X0102154Y0070514D03*
X0102154Y0070554D03*
X0102154Y0070593D03*
X0102154Y0070633D03*
X0102154Y0070672D03*
X0102154Y0068270D03*
X0102154Y0068231D03*
X0102154Y0068192D03*
X0102154Y0068152D03*
X0102154Y0068113D03*
X0102154Y0068073D03*
X0102154Y0068034D03*
X0102154Y0067995D03*
X0102154Y0067955D03*
X0102154Y0067916D03*
X0102154Y0067877D03*
X0102154Y0067837D03*
X0102154Y0067798D03*
X0102154Y0067759D03*
X0102154Y0067719D03*
X0102154Y0067680D03*
X0102154Y0067640D03*
X0102154Y0067601D03*
X0102154Y0067562D03*
X0102154Y0067522D03*
X0102154Y0067483D03*
X0102154Y0067444D03*
X0102154Y0067404D03*
X0102154Y0067365D03*
X0102154Y0067325D03*
X0102154Y0067286D03*
X0102154Y0067247D03*
X0102154Y0067207D03*
X0102154Y0067168D03*
X0102154Y0067129D03*
X0102154Y0067089D03*
X0102154Y0067050D03*
X0102154Y0067010D03*
X0102154Y0066971D03*
X0102154Y0066932D03*
X0102154Y0066892D03*
X0102154Y0066853D03*
X0102154Y0066814D03*
X0102154Y0066774D03*
X0102154Y0066735D03*
X0102154Y0066696D03*
D31*
X0107980Y0068152D03*
X0119083Y0063152D03*
X0119083Y0063113D03*
X0119083Y0062247D03*
X0117272Y0062129D03*
X0124083Y0062680D03*
X0129673Y0063113D03*
X0129673Y0063152D03*
X0129673Y0062247D03*
X0130224Y0068113D03*
X0133610Y0070278D03*
D32*
X0135500Y0069294D03*
X0137272Y0069215D03*
X0137311Y0069255D03*
X0137272Y0066932D03*
X0135500Y0066932D03*
X0130067Y0066932D03*
X0130067Y0067955D03*
X0130106Y0067995D03*
X0129673Y0063231D03*
X0129673Y0062129D03*
X0128177Y0062168D03*
X0128177Y0063192D03*
X0125776Y0063192D03*
X0125776Y0062168D03*
X0124161Y0062798D03*
X0124004Y0063270D03*
X0119083Y0063231D03*
X0119083Y0062129D03*
X0114870Y0066932D03*
X0114870Y0069215D03*
X0114831Y0069255D03*
X0116681Y0070554D03*
X0120146Y0070554D03*
X0109870Y0069255D03*
X0109831Y0069215D03*
X0108059Y0069373D03*
X0108020Y0069333D03*
X0108059Y0070475D03*
X0108138Y0067955D03*
X0108138Y0067916D03*
X0108177Y0067837D03*
X0108177Y0067089D03*
X0108138Y0067010D03*
X0108138Y0066971D03*
X0109831Y0066932D03*
D33*
X0109969Y0066774D03*
X0109969Y0069373D03*
X0107882Y0069215D03*
X0114732Y0069373D03*
X0114732Y0066774D03*
X0117291Y0063231D03*
X0117291Y0062168D03*
X0124063Y0062129D03*
X0124063Y0062640D03*
X0130205Y0066774D03*
X0135362Y0066774D03*
X0137409Y0066774D03*
X0137409Y0069373D03*
X0135362Y0069412D03*
D34*
X0135520Y0069255D03*
X0137252Y0069176D03*
X0137252Y0069136D03*
X0137252Y0067010D03*
X0137252Y0066971D03*
X0135520Y0066971D03*
X0130047Y0066971D03*
X0130047Y0067916D03*
X0125953Y0070711D03*
X0120126Y0070514D03*
X0120087Y0070475D03*
X0116661Y0070514D03*
X0116622Y0070475D03*
X0114890Y0069176D03*
X0114890Y0069136D03*
X0114890Y0067010D03*
X0114890Y0066971D03*
X0109811Y0066971D03*
X0109811Y0067010D03*
X0108197Y0067129D03*
X0108197Y0067168D03*
X0108197Y0067207D03*
X0108197Y0067247D03*
X0108197Y0067286D03*
X0108157Y0067050D03*
X0108197Y0067601D03*
X0108197Y0067640D03*
X0108197Y0067680D03*
X0108197Y0067719D03*
X0108197Y0067759D03*
X0108197Y0067798D03*
X0108157Y0067877D03*
X0108079Y0069412D03*
X0108118Y0070357D03*
X0108079Y0070436D03*
X0109811Y0069176D03*
X0109811Y0069136D03*
X0102173Y0069136D03*
X0102173Y0070711D03*
X0122646Y0063349D03*
X0122646Y0063310D03*
X0122646Y0063270D03*
X0122646Y0063231D03*
X0122646Y0063192D03*
X0122646Y0063152D03*
X0122646Y0063113D03*
X0122646Y0063073D03*
X0123984Y0063310D03*
X0125795Y0063231D03*
X0125795Y0062129D03*
X0128197Y0062129D03*
X0128197Y0063231D03*
X0133984Y0062601D03*
D35*
X0132390Y0062168D03*
X0132390Y0062129D03*
X0124043Y0062168D03*
X0124043Y0062207D03*
X0117311Y0062207D03*
X0117311Y0062247D03*
X0117311Y0063192D03*
X0107941Y0066774D03*
X0107941Y0068192D03*
X0107902Y0070633D03*
X0116839Y0070711D03*
X0120303Y0070711D03*
D36*
X0117764Y0063034D03*
X0117724Y0062286D03*
X0116937Y0063034D03*
X0114811Y0062207D03*
X0114811Y0062168D03*
X0114299Y0063034D03*
X0113787Y0062207D03*
X0113787Y0062168D03*
X0112331Y0062168D03*
X0112331Y0062207D03*
X0111819Y0063034D03*
X0111307Y0062207D03*
X0111307Y0062168D03*
X0109850Y0062168D03*
X0109850Y0062207D03*
X0109339Y0063034D03*
X0108827Y0062207D03*
X0108827Y0062168D03*
X0124417Y0062286D03*
X0125402Y0062286D03*
X0125402Y0063073D03*
X0127803Y0063073D03*
X0127803Y0062286D03*
X0132764Y0062325D03*
D37*
X0129673Y0062168D03*
X0129673Y0063192D03*
X0128138Y0063113D03*
X0128138Y0062247D03*
X0125736Y0062247D03*
X0125736Y0063113D03*
X0124122Y0062759D03*
X0124043Y0063192D03*
X0119083Y0063192D03*
X0119083Y0062168D03*
X0114791Y0066853D03*
X0114791Y0069294D03*
X0116720Y0070633D03*
X0120185Y0070633D03*
X0109909Y0069294D03*
X0107941Y0069255D03*
X0108059Y0068073D03*
X0109909Y0066853D03*
X0130146Y0066853D03*
X0135461Y0066853D03*
X0137350Y0066853D03*
X0137350Y0069294D03*
D38*
X0125953Y0065908D03*
X0121701Y0063664D03*
X0121701Y0063625D03*
X0120638Y0063625D03*
X0120638Y0063664D03*
X0122764Y0062207D03*
X0122764Y0062168D03*
D39*
X0124024Y0062247D03*
X0117331Y0063113D03*
X0117331Y0063152D03*
X0114654Y0066735D03*
X0110047Y0066735D03*
X0110047Y0069412D03*
X0114654Y0069412D03*
X0130283Y0068152D03*
X0130283Y0066735D03*
X0135323Y0066735D03*
X0137488Y0066735D03*
X0137488Y0069412D03*
X0132370Y0062286D03*
X0132370Y0062247D03*
X0132370Y0062207D03*
D40*
X0121799Y0063861D03*
X0120736Y0063861D03*
X0117547Y0063310D03*
X0114831Y0062247D03*
X0114319Y0062955D03*
X0114319Y0062995D03*
X0113768Y0062247D03*
X0112350Y0062247D03*
X0111839Y0062955D03*
X0111839Y0062995D03*
X0111287Y0062247D03*
X0109870Y0062247D03*
X0109358Y0062955D03*
X0109358Y0062995D03*
X0108807Y0062247D03*
D41*
X0123118Y0062286D03*
X0123512Y0063034D03*
X0126268Y0062365D03*
X0128669Y0062365D03*
D42*
X0128630Y0062325D03*
X0128630Y0063034D03*
X0126228Y0063034D03*
X0126228Y0062325D03*
X0125953Y0065829D03*
X0120047Y0065829D03*
X0116583Y0065829D03*
D43*
X0121012Y0063585D03*
X0122075Y0063585D03*
X0126287Y0062955D03*
X0126287Y0062404D03*
X0128689Y0062404D03*
X0128689Y0062955D03*
D44*
X0114575Y0062601D03*
X0114575Y0062562D03*
X0114535Y0062680D03*
X0114535Y0062719D03*
X0114496Y0062837D03*
X0114496Y0062877D03*
X0114063Y0062680D03*
X0112094Y0062601D03*
X0112094Y0062562D03*
X0112055Y0062680D03*
X0112055Y0062719D03*
X0112016Y0062837D03*
X0112016Y0062877D03*
X0111583Y0062680D03*
X0109614Y0062601D03*
X0109614Y0062562D03*
X0109575Y0062680D03*
X0109575Y0062719D03*
X0109535Y0062837D03*
X0109535Y0062877D03*
X0109102Y0062680D03*
D45*
X0116583Y0066066D03*
X0116583Y0066105D03*
X0116583Y0066144D03*
X0116583Y0066184D03*
X0116583Y0066223D03*
X0116583Y0066262D03*
X0116583Y0066302D03*
X0116583Y0066341D03*
X0116583Y0066381D03*
X0116583Y0066420D03*
X0116583Y0066459D03*
X0116583Y0066499D03*
X0116583Y0066538D03*
X0116583Y0066577D03*
X0116583Y0066617D03*
X0116583Y0066656D03*
X0116583Y0066696D03*
X0116583Y0066735D03*
X0116583Y0066774D03*
X0116583Y0066814D03*
X0116583Y0066853D03*
X0116583Y0066892D03*
X0116583Y0066932D03*
X0116583Y0066971D03*
X0116583Y0067010D03*
X0116583Y0067050D03*
X0116583Y0067089D03*
X0116583Y0067129D03*
X0116583Y0067168D03*
X0116583Y0067207D03*
X0116583Y0067247D03*
X0116583Y0067286D03*
X0116583Y0067325D03*
X0116583Y0067365D03*
X0116583Y0067404D03*
X0116583Y0067444D03*
X0116583Y0067483D03*
X0116583Y0067522D03*
X0116583Y0067562D03*
X0116583Y0067601D03*
X0116583Y0067640D03*
X0116583Y0067680D03*
X0116583Y0067719D03*
X0116583Y0067759D03*
X0116583Y0067798D03*
X0116583Y0067837D03*
X0116583Y0067877D03*
X0116583Y0067916D03*
X0116583Y0067955D03*
X0116583Y0067995D03*
X0116583Y0068034D03*
X0116583Y0068073D03*
X0116583Y0068113D03*
X0116583Y0068152D03*
X0116583Y0068192D03*
X0116583Y0068231D03*
X0116583Y0068270D03*
X0116583Y0068310D03*
X0116583Y0068349D03*
X0116583Y0068388D03*
X0116583Y0068428D03*
X0116583Y0068467D03*
X0116583Y0068507D03*
X0116583Y0068546D03*
X0116583Y0068585D03*
X0116583Y0068625D03*
X0116583Y0068664D03*
X0116583Y0068703D03*
X0116583Y0068743D03*
X0116583Y0068782D03*
X0116583Y0068822D03*
X0116583Y0068861D03*
X0116583Y0068900D03*
X0116583Y0068940D03*
X0116583Y0068979D03*
X0116583Y0069018D03*
X0116583Y0069058D03*
X0116583Y0069097D03*
X0116583Y0069136D03*
X0116583Y0069176D03*
X0116583Y0069215D03*
X0116583Y0069255D03*
X0116583Y0069294D03*
X0116583Y0069333D03*
X0116583Y0069373D03*
X0116583Y0069412D03*
X0116583Y0069451D03*
X0116583Y0069491D03*
X0116583Y0070318D03*
X0116583Y0070357D03*
X0114929Y0069018D03*
X0114929Y0068979D03*
X0114929Y0068940D03*
X0114929Y0068900D03*
X0114929Y0068861D03*
X0114929Y0068822D03*
X0114929Y0068782D03*
X0114929Y0068743D03*
X0114929Y0068703D03*
X0114929Y0068664D03*
X0114929Y0068625D03*
X0114929Y0068585D03*
X0114929Y0068546D03*
X0114929Y0068507D03*
X0114929Y0068467D03*
X0114929Y0068428D03*
X0114929Y0068388D03*
X0114929Y0068349D03*
X0114929Y0068310D03*
X0114929Y0068270D03*
X0114929Y0068231D03*
X0114929Y0068192D03*
X0114929Y0068152D03*
X0114929Y0068113D03*
X0114929Y0068073D03*
X0114929Y0068034D03*
X0114929Y0067995D03*
X0114929Y0067955D03*
X0114929Y0067916D03*
X0114929Y0067877D03*
X0114929Y0067837D03*
X0114929Y0067798D03*
X0114929Y0067759D03*
X0114929Y0067719D03*
X0114929Y0067680D03*
X0114929Y0067640D03*
X0114929Y0067601D03*
X0114929Y0067562D03*
X0114929Y0067522D03*
X0114929Y0067483D03*
X0114929Y0067444D03*
X0114929Y0067404D03*
X0114929Y0067365D03*
X0114929Y0067325D03*
X0114929Y0067286D03*
X0114929Y0067247D03*
X0114929Y0067207D03*
X0114929Y0067168D03*
X0114929Y0067129D03*
X0120047Y0067129D03*
X0120047Y0067168D03*
X0120047Y0067207D03*
X0120047Y0067247D03*
X0120047Y0067286D03*
X0120047Y0067325D03*
X0120047Y0067365D03*
X0120047Y0067404D03*
X0120047Y0067444D03*
X0120047Y0067483D03*
X0120047Y0067522D03*
X0120047Y0067562D03*
X0120047Y0067601D03*
X0120047Y0067640D03*
X0120047Y0067680D03*
X0120047Y0067719D03*
X0120047Y0067759D03*
X0120047Y0067798D03*
X0120047Y0067837D03*
X0120047Y0067877D03*
X0120047Y0067916D03*
X0120047Y0067955D03*
X0120047Y0067995D03*
X0120047Y0068034D03*
X0120047Y0068073D03*
X0120047Y0068113D03*
X0120047Y0068152D03*
X0120047Y0068192D03*
X0120047Y0068231D03*
X0120047Y0068270D03*
X0120047Y0068310D03*
X0120047Y0068349D03*
X0120047Y0068388D03*
X0120047Y0068428D03*
X0120047Y0068467D03*
X0120047Y0068507D03*
X0120047Y0068546D03*
X0120047Y0068585D03*
X0120047Y0068625D03*
X0120047Y0068664D03*
X0120047Y0068703D03*
X0120047Y0068743D03*
X0120047Y0068782D03*
X0120047Y0068822D03*
X0120047Y0068861D03*
X0120047Y0068900D03*
X0120047Y0068940D03*
X0120047Y0068979D03*
X0120047Y0069018D03*
X0120047Y0069058D03*
X0120047Y0069097D03*
X0120047Y0069136D03*
X0120047Y0069176D03*
X0120047Y0069215D03*
X0120047Y0069255D03*
X0120047Y0069294D03*
X0120047Y0069333D03*
X0120047Y0069373D03*
X0120047Y0069412D03*
X0120047Y0069451D03*
X0120047Y0069491D03*
X0120047Y0070318D03*
X0120047Y0070357D03*
X0120047Y0067089D03*
X0120047Y0067050D03*
X0120047Y0067010D03*
X0120047Y0066971D03*
X0120047Y0066932D03*
X0120047Y0066892D03*
X0120047Y0066853D03*
X0120047Y0066814D03*
X0120047Y0066774D03*
X0120047Y0066735D03*
X0120047Y0066696D03*
X0120047Y0066656D03*
X0120047Y0066617D03*
X0120047Y0066577D03*
X0120047Y0066538D03*
X0120047Y0066499D03*
X0120047Y0066459D03*
X0120047Y0066420D03*
X0120047Y0066381D03*
X0120047Y0066341D03*
X0120047Y0066302D03*
X0120047Y0066262D03*
X0120047Y0066223D03*
X0120047Y0066184D03*
X0120047Y0066144D03*
X0120047Y0066105D03*
X0120047Y0066066D03*
X0120480Y0063349D03*
X0120480Y0063310D03*
X0120480Y0063270D03*
X0120480Y0063231D03*
X0120480Y0063192D03*
X0120480Y0063152D03*
X0120480Y0063113D03*
X0120480Y0063073D03*
X0121543Y0063073D03*
X0121543Y0063113D03*
X0121543Y0063152D03*
X0121543Y0063192D03*
X0121543Y0063231D03*
X0121543Y0063270D03*
X0121543Y0063310D03*
X0121543Y0063349D03*
X0125953Y0066026D03*
X0130008Y0067089D03*
X0130008Y0067129D03*
X0130008Y0067168D03*
X0130008Y0067207D03*
X0130008Y0067247D03*
X0130008Y0067286D03*
X0130008Y0067325D03*
X0130008Y0067365D03*
X0130008Y0067404D03*
X0130008Y0067444D03*
X0130008Y0067483D03*
X0130008Y0067522D03*
X0130008Y0067562D03*
X0130008Y0067601D03*
X0130008Y0067640D03*
X0130008Y0067680D03*
X0130008Y0067719D03*
X0130008Y0067759D03*
X0130008Y0067798D03*
X0135598Y0067798D03*
X0135598Y0067837D03*
X0135598Y0067877D03*
X0135598Y0067916D03*
X0135598Y0067955D03*
X0135598Y0067995D03*
X0135598Y0068034D03*
X0135598Y0068073D03*
X0135598Y0068113D03*
X0135598Y0068152D03*
X0135598Y0068192D03*
X0135598Y0068231D03*
X0135598Y0067759D03*
X0135598Y0067719D03*
X0135598Y0067680D03*
X0135598Y0067640D03*
X0135598Y0067601D03*
X0135598Y0067562D03*
X0135598Y0067522D03*
X0135598Y0067483D03*
X0135598Y0067444D03*
X0135598Y0067404D03*
X0135598Y0067365D03*
X0135598Y0067325D03*
X0135598Y0067286D03*
X0135598Y0067247D03*
X0135598Y0067207D03*
X0135598Y0067168D03*
X0137213Y0067168D03*
X0137213Y0067207D03*
X0137213Y0067247D03*
X0137213Y0067286D03*
X0137213Y0067325D03*
X0137213Y0067365D03*
X0137213Y0067404D03*
X0137213Y0067444D03*
X0137213Y0067483D03*
X0137213Y0067522D03*
X0137213Y0067562D03*
X0137213Y0067601D03*
X0137213Y0067640D03*
X0137213Y0067680D03*
X0137213Y0067719D03*
X0137213Y0067759D03*
X0137213Y0067798D03*
X0137213Y0067837D03*
X0137213Y0067877D03*
X0137213Y0067916D03*
X0137213Y0067955D03*
X0137213Y0067995D03*
X0137213Y0068034D03*
X0137213Y0068073D03*
X0137213Y0068113D03*
X0137213Y0068152D03*
X0137213Y0068192D03*
X0137213Y0068231D03*
X0137213Y0068270D03*
X0137213Y0068310D03*
X0137213Y0068349D03*
X0137213Y0068388D03*
X0137213Y0068428D03*
X0137213Y0068467D03*
X0137213Y0068507D03*
X0137213Y0068546D03*
X0137213Y0068585D03*
X0137213Y0068625D03*
X0137213Y0068664D03*
X0137213Y0068703D03*
X0137213Y0068743D03*
X0137213Y0068782D03*
X0137213Y0068822D03*
X0137213Y0068861D03*
X0137213Y0068900D03*
X0137213Y0068940D03*
X0137213Y0068979D03*
X0137213Y0069018D03*
X0135598Y0069018D03*
X0135598Y0069058D03*
X0135559Y0069136D03*
X0135559Y0069176D03*
X0137213Y0067129D03*
X0133945Y0062719D03*
X0109772Y0067129D03*
X0109772Y0067168D03*
X0109772Y0067207D03*
X0109772Y0067247D03*
X0109772Y0067286D03*
X0109772Y0067325D03*
X0109772Y0067365D03*
X0109772Y0067404D03*
X0109772Y0067444D03*
X0109772Y0067483D03*
X0109772Y0067522D03*
X0109772Y0067562D03*
X0109772Y0067601D03*
X0109772Y0067640D03*
X0109772Y0067680D03*
X0109772Y0067719D03*
X0109772Y0067759D03*
X0109772Y0067798D03*
X0109772Y0067837D03*
X0109772Y0067877D03*
X0109772Y0067916D03*
X0109772Y0067955D03*
X0109772Y0067995D03*
X0109772Y0068034D03*
X0109772Y0068073D03*
X0109772Y0068113D03*
X0109772Y0068152D03*
X0109772Y0068192D03*
X0109772Y0068231D03*
X0109772Y0068270D03*
X0109772Y0068310D03*
X0109772Y0068349D03*
X0109772Y0068388D03*
X0109772Y0068428D03*
X0109772Y0068467D03*
X0109772Y0068507D03*
X0109772Y0068546D03*
X0109772Y0068585D03*
X0109772Y0068625D03*
X0109772Y0068664D03*
X0109772Y0068703D03*
X0109772Y0068743D03*
X0109772Y0068782D03*
X0109772Y0068822D03*
X0109772Y0068861D03*
X0109772Y0068900D03*
X0109772Y0068940D03*
X0109772Y0068979D03*
X0109772Y0069018D03*
X0108157Y0069648D03*
X0108157Y0069688D03*
X0108157Y0069727D03*
X0108157Y0069766D03*
X0108157Y0069806D03*
X0108157Y0070081D03*
X0108157Y0070121D03*
X0108157Y0070160D03*
X0108157Y0070199D03*
D46*
X0126248Y0062995D03*
X0128650Y0062995D03*
D47*
X0117350Y0063073D03*
X0107823Y0069176D03*
X0135264Y0069451D03*
D48*
X0123591Y0063073D03*
D49*
X0140598Y0070239D03*
X0104299Y0071538D03*
X0104299Y0065869D03*
D50*
X0112350Y0065869D03*
X0134043Y0070081D03*
D51*
X0134280Y0069806D03*
X0132783Y0065869D03*
D52*
X0140795Y0065869D03*
X0140756Y0070278D03*
D53*
X0133374Y0068900D03*
X0132783Y0066184D03*
X0112350Y0066341D03*
X0112350Y0069806D03*
X0104476Y0071499D03*
X0104476Y0065908D03*
D54*
X0112350Y0065908D03*
X0112350Y0070239D03*
D55*
X0112350Y0070199D03*
X0112350Y0065948D03*
X0132783Y0065908D03*
D56*
X0132783Y0066066D03*
X0140618Y0065908D03*
D57*
X0133236Y0068822D03*
X0140283Y0070042D03*
X0104575Y0071459D03*
X0104575Y0065948D03*
D58*
X0132783Y0065948D03*
D59*
X0133492Y0068940D03*
X0140539Y0065948D03*
D60*
X0140224Y0066184D03*
X0140185Y0069924D03*
X0133138Y0068743D03*
X0112350Y0069530D03*
X0112350Y0066617D03*
X0104634Y0065987D03*
X0104634Y0071420D03*
D61*
X0112350Y0070160D03*
X0112350Y0065987D03*
D62*
X0132783Y0065987D03*
D63*
X0140441Y0065987D03*
X0140441Y0070160D03*
D64*
X0140106Y0069806D03*
X0140146Y0066302D03*
X0125972Y0071538D03*
X0104673Y0071381D03*
X0104673Y0066026D03*
D65*
X0112350Y0066026D03*
X0112350Y0070121D03*
D66*
X0132803Y0066026D03*
D67*
X0140382Y0066026D03*
X0140382Y0070121D03*
X0112350Y0069766D03*
X0112350Y0066381D03*
D68*
X0104732Y0066066D03*
X0104732Y0071341D03*
X0139929Y0069530D03*
X0140047Y0069688D03*
X0139929Y0066617D03*
X0140047Y0066459D03*
X0140087Y0066420D03*
D69*
X0112350Y0066066D03*
X0112350Y0070081D03*
D70*
X0140323Y0070081D03*
X0140323Y0066066D03*
D71*
X0140008Y0066538D03*
X0132803Y0066577D03*
X0132961Y0068507D03*
X0125953Y0070790D03*
X0125953Y0071459D03*
X0104772Y0071302D03*
X0104772Y0066105D03*
D72*
X0112350Y0066105D03*
X0112350Y0070042D03*
D73*
X0112350Y0069924D03*
X0112350Y0066223D03*
X0132783Y0066105D03*
D74*
X0140303Y0066105D03*
X0112350Y0066499D03*
X0112350Y0069648D03*
D75*
X0104811Y0068703D03*
X0104811Y0066144D03*
X0104811Y0071262D03*
X0125953Y0071381D03*
X0125953Y0070908D03*
X0125953Y0070869D03*
X0132921Y0068428D03*
X0132921Y0068388D03*
D76*
X0133650Y0068979D03*
X0112350Y0070003D03*
X0112350Y0066144D03*
D77*
X0132803Y0066144D03*
D78*
X0140264Y0066144D03*
X0112350Y0066538D03*
X0112350Y0066577D03*
X0112350Y0069570D03*
X0112350Y0069609D03*
D79*
X0104850Y0068743D03*
X0104850Y0066184D03*
X0104850Y0071223D03*
X0132882Y0068310D03*
X0132882Y0068270D03*
D80*
X0112350Y0069963D03*
X0112350Y0066184D03*
D81*
X0104890Y0066223D03*
X0104890Y0068782D03*
D82*
X0112350Y0069727D03*
X0112350Y0066420D03*
X0132783Y0066223D03*
X0133295Y0068861D03*
D83*
X0140205Y0066223D03*
D84*
X0104909Y0066262D03*
X0104909Y0068585D03*
X0104909Y0068822D03*
X0104909Y0071144D03*
D85*
X0112350Y0069885D03*
X0112350Y0066262D03*
D86*
X0112350Y0066459D03*
X0112350Y0069688D03*
X0132783Y0066262D03*
D87*
X0132803Y0066420D03*
X0133079Y0068664D03*
X0140126Y0069845D03*
X0140165Y0066262D03*
D88*
X0104949Y0066302D03*
X0104949Y0068861D03*
X0104949Y0071066D03*
D89*
X0112350Y0069845D03*
X0112350Y0066302D03*
D90*
X0132803Y0066302D03*
X0133197Y0068782D03*
X0140244Y0070003D03*
D91*
X0104969Y0071026D03*
X0104969Y0068900D03*
X0104969Y0068507D03*
X0104969Y0066341D03*
D92*
X0132803Y0066341D03*
X0140205Y0069963D03*
D93*
X0140087Y0069766D03*
X0140126Y0066341D03*
X0132803Y0066459D03*
X0133039Y0068625D03*
D94*
X0104988Y0068467D03*
X0104988Y0068940D03*
X0104988Y0070987D03*
X0104988Y0066381D03*
D95*
X0132783Y0066381D03*
X0133098Y0068703D03*
X0140146Y0069885D03*
D96*
X0140067Y0069727D03*
X0140106Y0066381D03*
X0132783Y0066499D03*
X0133020Y0068585D03*
X0125972Y0070751D03*
D97*
X0105008Y0070948D03*
X0105008Y0068979D03*
X0105008Y0068428D03*
X0105008Y0066420D03*
D98*
X0105028Y0066459D03*
X0105028Y0069018D03*
X0105028Y0070869D03*
X0105028Y0070908D03*
D99*
X0105047Y0070829D03*
X0105047Y0069097D03*
X0105047Y0069058D03*
X0105047Y0068388D03*
X0105047Y0066538D03*
X0105047Y0066499D03*
D100*
X0125972Y0071499D03*
X0132980Y0068546D03*
X0132783Y0066538D03*
X0139988Y0066577D03*
X0140028Y0066499D03*
X0139988Y0069570D03*
X0139988Y0069609D03*
X0140028Y0069648D03*
D101*
X0105067Y0070751D03*
X0105067Y0070790D03*
X0105067Y0068349D03*
X0105067Y0068310D03*
X0105067Y0066577D03*
D102*
X0105087Y0066617D03*
X0105087Y0066656D03*
D103*
X0125972Y0070829D03*
X0125972Y0071420D03*
X0132941Y0068467D03*
X0132783Y0066617D03*
D104*
X0135106Y0066656D03*
X0137705Y0066656D03*
X0137705Y0069491D03*
X0133768Y0070239D03*
X0121524Y0071459D03*
X0118059Y0071459D03*
X0114437Y0069491D03*
X0110264Y0069491D03*
X0110264Y0066656D03*
X0114437Y0066656D03*
D105*
X0130480Y0066656D03*
X0130480Y0068231D03*
X0135126Y0069491D03*
D106*
X0107646Y0066696D03*
D107*
X0110126Y0066696D03*
X0114575Y0066696D03*
X0116976Y0070751D03*
X0120441Y0070751D03*
X0137567Y0066696D03*
D108*
X0135224Y0066696D03*
X0130343Y0066696D03*
X0130343Y0068192D03*
X0137547Y0069451D03*
X0121602Y0071499D03*
X0118138Y0071499D03*
X0114594Y0069451D03*
X0110106Y0069451D03*
X0107862Y0066735D03*
D109*
X0107843Y0068231D03*
X0107803Y0070672D03*
D110*
X0107705Y0068270D03*
D111*
X0104831Y0068664D03*
X0125972Y0070948D03*
X0125972Y0070987D03*
X0125972Y0071026D03*
X0125972Y0071066D03*
X0125972Y0071105D03*
X0125972Y0071144D03*
X0125972Y0071184D03*
X0125972Y0071223D03*
X0125972Y0071262D03*
X0125972Y0071302D03*
X0125972Y0071341D03*
X0132902Y0068349D03*
D112*
X0104929Y0068546D03*
X0104929Y0071105D03*
D113*
X0104870Y0071184D03*
X0104870Y0068625D03*
D114*
X0107606Y0069136D03*
D115*
X0117449Y0069530D03*
X0117449Y0070278D03*
X0120913Y0070278D03*
X0120913Y0069530D03*
D116*
X0134319Y0069727D03*
X0134437Y0069530D03*
D117*
X0134220Y0069885D03*
X0120953Y0069570D03*
X0120953Y0070239D03*
X0117488Y0070239D03*
X0117488Y0069570D03*
D118*
X0134398Y0069570D03*
D119*
X0120972Y0069609D03*
X0120972Y0069648D03*
X0120972Y0069688D03*
X0120972Y0070081D03*
X0120972Y0070121D03*
X0120972Y0070160D03*
X0120972Y0070199D03*
X0117508Y0070199D03*
X0117508Y0070160D03*
X0117508Y0070121D03*
X0117508Y0070081D03*
X0117508Y0069688D03*
X0117508Y0069648D03*
X0117508Y0069609D03*
D120*
X0134339Y0069648D03*
X0134339Y0069688D03*
X0134378Y0069609D03*
D121*
X0134260Y0069845D03*
X0120992Y0069845D03*
X0120992Y0069806D03*
X0120992Y0069766D03*
X0120992Y0069727D03*
X0120992Y0069885D03*
X0120992Y0069924D03*
X0120992Y0069963D03*
X0120992Y0070003D03*
X0120992Y0070042D03*
X0117528Y0070042D03*
X0117528Y0070003D03*
X0117528Y0069963D03*
X0117528Y0069924D03*
X0117528Y0069885D03*
X0117528Y0069845D03*
X0117528Y0069806D03*
X0117528Y0069766D03*
X0117528Y0069727D03*
D122*
X0134299Y0069766D03*
D123*
X0134201Y0069924D03*
D124*
X0134161Y0069963D03*
X0121051Y0070869D03*
X0117587Y0070869D03*
D125*
X0117606Y0070908D03*
X0117606Y0070948D03*
X0117646Y0070987D03*
X0117567Y0070829D03*
X0121031Y0070829D03*
X0121071Y0070908D03*
X0121071Y0070948D03*
X0121110Y0070987D03*
X0134142Y0070003D03*
D126*
X0134083Y0070042D03*
X0121169Y0071105D03*
X0117705Y0071105D03*
D127*
X0117783Y0071223D03*
X0121248Y0071223D03*
X0134004Y0070121D03*
D128*
X0133925Y0070160D03*
X0121327Y0071302D03*
X0117862Y0071302D03*
D129*
X0117921Y0071381D03*
X0121386Y0071381D03*
X0133866Y0070199D03*
D130*
X0140520Y0070199D03*
D131*
X0121189Y0071144D03*
X0117724Y0071144D03*
X0112331Y0070278D03*
D132*
X0107626Y0070711D03*
D133*
X0117508Y0070790D03*
X0117665Y0071026D03*
X0120972Y0070790D03*
X0121130Y0071026D03*
D134*
X0121150Y0071066D03*
X0117685Y0071066D03*
D135*
X0117764Y0071184D03*
X0121228Y0071184D03*
D136*
X0121287Y0071262D03*
X0117823Y0071262D03*
D137*
X0117882Y0071341D03*
X0121346Y0071341D03*
D138*
X0121445Y0071420D03*
X0117980Y0071420D03*
D139*
X0134936Y0012407D02*
X0134936Y0006268D01*
X0131867Y0009337D02*
X0138006Y0009337D01*
X0109659Y0009337D02*
X0103520Y0009337D01*
D140*
X0095925Y0082562D03*
D141*
X0089675Y0082562D03*
X0113175Y0082562D03*
M02*
