G75*
%MOIN*%
%OFA0B0*%
%FSLAX25Y25*%
%IPPOS*%
%LPD*%
%AMOC8*
5,1,8,0,0,1.08239X$1,22.5*
%
%ADD10C,0.00000*%
%ADD11OC8,0.12500*%
%ADD12C,0.09843*%
%ADD13C,0.06000*%
%ADD14OC8,0.05200*%
%ADD15C,0.01600*%
%ADD16C,0.07600*%
D10*
X0003000Y0003125D02*
X0003000Y0078086D01*
X0099201Y0078086D01*
X0099201Y0003125D01*
X0003000Y0003125D01*
D11*
X0010500Y0035625D03*
X0010500Y0050625D03*
X0070500Y0010625D03*
X0090500Y0070625D03*
D12*
X0063000Y0067810D03*
X0058079Y0048125D03*
X0038394Y0033361D03*
X0063000Y0028440D03*
X0038394Y0062889D03*
D13*
X0013500Y0063125D02*
X0007500Y0063125D01*
X0007500Y0073125D02*
X0013500Y0073125D01*
X0013500Y0020625D02*
X0007500Y0020625D01*
X0007500Y0010625D02*
X0013500Y0010625D01*
X0087500Y0030625D02*
X0093500Y0030625D01*
X0093500Y0040625D02*
X0087500Y0040625D01*
X0087500Y0050625D02*
X0093500Y0050625D01*
D14*
X0055500Y0010625D03*
X0025500Y0010625D03*
D15*
X0025500Y0010625D01*
X0025500Y0015025D01*
X0027323Y0015025D01*
X0029900Y0012448D01*
X0029900Y0010625D01*
X0025500Y0010625D01*
X0025500Y0010625D01*
X0025500Y0010625D01*
X0021100Y0010625D01*
X0021100Y0012448D01*
X0023677Y0015025D01*
X0025500Y0015025D01*
X0025500Y0010625D01*
X0029900Y0010625D01*
X0029900Y0008802D01*
X0029023Y0007925D01*
X0052260Y0007925D01*
X0051300Y0008885D01*
X0051300Y0012365D01*
X0053100Y0014165D01*
X0053100Y0021102D01*
X0053465Y0021984D01*
X0054141Y0022660D01*
X0055023Y0023025D01*
X0059193Y0023025D01*
X0057472Y0024746D01*
X0056479Y0027143D01*
X0056479Y0029737D01*
X0057472Y0032134D01*
X0059306Y0033968D01*
X0061703Y0034961D01*
X0064297Y0034961D01*
X0066694Y0033968D01*
X0068528Y0032134D01*
X0068554Y0032073D01*
X0069141Y0032660D01*
X0070023Y0033025D01*
X0083515Y0033025D01*
X0083600Y0033231D01*
X0084894Y0034525D01*
X0086585Y0035225D01*
X0094401Y0035225D01*
X0094401Y0036025D01*
X0086585Y0036025D01*
X0084894Y0036725D01*
X0083600Y0038019D01*
X0082900Y0039710D01*
X0082900Y0041540D01*
X0083600Y0043231D01*
X0084894Y0044525D01*
X0086585Y0045225D01*
X0094401Y0045225D01*
X0094401Y0045908D01*
X0093878Y0045825D01*
X0090700Y0045825D01*
X0090700Y0050425D01*
X0090300Y0050425D01*
X0090300Y0045825D01*
X0087122Y0045825D01*
X0086376Y0045943D01*
X0085657Y0046177D01*
X0084984Y0046520D01*
X0084373Y0046964D01*
X0083839Y0047498D01*
X0083395Y0048109D01*
X0083052Y0048782D01*
X0082818Y0049501D01*
X0082700Y0050247D01*
X0082700Y0050425D01*
X0090300Y0050425D01*
X0090300Y0050825D01*
X0090300Y0055425D01*
X0087122Y0055425D01*
X0086376Y0055307D01*
X0085657Y0055073D01*
X0084984Y0054730D01*
X0084373Y0054286D01*
X0083839Y0053752D01*
X0083395Y0053141D01*
X0083052Y0052468D01*
X0082818Y0051749D01*
X0082700Y0051003D01*
X0082700Y0050825D01*
X0090300Y0050825D01*
X0090700Y0050825D01*
X0090700Y0055425D01*
X0093878Y0055425D01*
X0094401Y0055342D01*
X0094401Y0063424D01*
X0093752Y0062775D01*
X0087248Y0062775D01*
X0082650Y0067373D01*
X0082650Y0073286D01*
X0066747Y0073286D01*
X0068528Y0071504D01*
X0069521Y0069107D01*
X0069521Y0066513D01*
X0068528Y0064116D01*
X0066694Y0062282D01*
X0064297Y0061289D01*
X0061703Y0061289D01*
X0059306Y0062282D01*
X0057472Y0064116D01*
X0056479Y0066513D01*
X0056479Y0069107D01*
X0057472Y0071504D01*
X0059253Y0073286D01*
X0018100Y0073286D01*
X0018100Y0072210D01*
X0017400Y0070519D01*
X0016106Y0069225D01*
X0014415Y0068525D01*
X0007800Y0068525D01*
X0007800Y0067925D01*
X0010300Y0067925D01*
X0010300Y0063325D01*
X0010700Y0063325D01*
X0010700Y0067925D01*
X0013878Y0067925D01*
X0014624Y0067807D01*
X0015343Y0067573D01*
X0016016Y0067230D01*
X0016627Y0066786D01*
X0017161Y0066252D01*
X0017605Y0065641D01*
X0017948Y0064968D01*
X0018182Y0064249D01*
X0018300Y0063503D01*
X0018300Y0063325D01*
X0010700Y0063325D01*
X0010700Y0062925D01*
X0018300Y0062925D01*
X0018300Y0062747D01*
X0018182Y0062001D01*
X0017948Y0061282D01*
X0017605Y0060609D01*
X0017161Y0059998D01*
X0016627Y0059464D01*
X0016016Y0059020D01*
X0015343Y0058677D01*
X0014624Y0058443D01*
X0013898Y0058328D01*
X0016202Y0056025D01*
X0059153Y0056025D01*
X0061138Y0055203D01*
X0062657Y0053684D01*
X0063303Y0052123D01*
X0063607Y0051819D01*
X0064600Y0049422D01*
X0064600Y0046828D01*
X0063607Y0044431D01*
X0061773Y0042597D01*
X0059376Y0041604D01*
X0056782Y0041604D01*
X0054385Y0042597D01*
X0052550Y0044431D01*
X0052221Y0045225D01*
X0016202Y0045225D01*
X0014243Y0043266D01*
X0018550Y0038959D01*
X0018550Y0036125D01*
X0011000Y0036125D01*
X0011000Y0035125D01*
X0018550Y0035125D01*
X0018550Y0032291D01*
X0013834Y0027575D01*
X0011000Y0027575D01*
X0011000Y0035125D01*
X0010000Y0035125D01*
X0010000Y0027575D01*
X0007800Y0027575D01*
X0007800Y0025225D01*
X0014415Y0025225D01*
X0016106Y0024525D01*
X0017400Y0023231D01*
X0018100Y0021540D01*
X0018100Y0019710D01*
X0017400Y0018019D01*
X0016106Y0016725D01*
X0014415Y0016025D01*
X0007800Y0016025D01*
X0007800Y0015225D01*
X0014415Y0015225D01*
X0016106Y0014525D01*
X0017400Y0013231D01*
X0018100Y0011540D01*
X0018100Y0009710D01*
X0017400Y0008019D01*
X0017305Y0007925D01*
X0021977Y0007925D01*
X0021100Y0008802D01*
X0021100Y0010625D01*
X0025500Y0010625D01*
X0025500Y0011118D02*
X0025500Y0011118D01*
X0025500Y0012716D02*
X0025500Y0012716D01*
X0025500Y0014315D02*
X0025500Y0014315D01*
X0028033Y0014315D02*
X0053100Y0014315D01*
X0053100Y0015913D02*
X0007800Y0015913D01*
X0016316Y0014315D02*
X0022967Y0014315D01*
X0021369Y0012716D02*
X0017613Y0012716D01*
X0018100Y0011118D02*
X0021100Y0011118D01*
X0021100Y0009519D02*
X0018021Y0009519D01*
X0016892Y0017512D02*
X0053100Y0017512D01*
X0053100Y0019110D02*
X0017852Y0019110D01*
X0018100Y0020709D02*
X0053100Y0020709D01*
X0053788Y0022307D02*
X0017782Y0022307D01*
X0016725Y0023906D02*
X0058312Y0023906D01*
X0057157Y0025504D02*
X0007800Y0025504D01*
X0007800Y0027103D02*
X0036462Y0027103D01*
X0037097Y0026840D02*
X0039691Y0026840D01*
X0042088Y0027833D01*
X0043922Y0029667D01*
X0044915Y0032064D01*
X0044915Y0034658D01*
X0043922Y0037055D01*
X0042088Y0038890D01*
X0039691Y0039882D01*
X0037097Y0039882D01*
X0034700Y0038890D01*
X0032865Y0037055D01*
X0031872Y0034658D01*
X0031872Y0032064D01*
X0032865Y0029667D01*
X0034700Y0027833D01*
X0037097Y0026840D01*
X0040325Y0027103D02*
X0056495Y0027103D01*
X0056479Y0028701D02*
X0042956Y0028701D01*
X0044184Y0030300D02*
X0056712Y0030300D01*
X0057374Y0031898D02*
X0044846Y0031898D01*
X0044915Y0033497D02*
X0058834Y0033497D01*
X0067166Y0033497D02*
X0083866Y0033497D01*
X0086272Y0035095D02*
X0044734Y0035095D01*
X0044072Y0036694D02*
X0084971Y0036694D01*
X0083487Y0038292D02*
X0042685Y0038292D01*
X0034102Y0038292D02*
X0018550Y0038292D01*
X0018550Y0036694D02*
X0032716Y0036694D01*
X0032053Y0035095D02*
X0018550Y0035095D01*
X0018550Y0033497D02*
X0031872Y0033497D01*
X0031941Y0031898D02*
X0018158Y0031898D01*
X0016559Y0030300D02*
X0032603Y0030300D01*
X0033831Y0028701D02*
X0014961Y0028701D01*
X0011000Y0028701D02*
X0010000Y0028701D01*
X0010000Y0030300D02*
X0011000Y0030300D01*
X0011000Y0031898D02*
X0010000Y0031898D01*
X0010000Y0033497D02*
X0011000Y0033497D01*
X0011000Y0035095D02*
X0010000Y0035095D01*
X0016020Y0041489D02*
X0082900Y0041489D01*
X0082900Y0039891D02*
X0017619Y0039891D01*
X0014422Y0043088D02*
X0053893Y0043088D01*
X0052445Y0044686D02*
X0015663Y0044686D01*
X0014752Y0057474D02*
X0034586Y0057474D01*
X0034700Y0057360D02*
X0037097Y0056368D01*
X0039691Y0056368D01*
X0042088Y0057360D01*
X0043922Y0059195D01*
X0044915Y0061592D01*
X0044915Y0064186D01*
X0043922Y0066583D01*
X0042088Y0068417D01*
X0039691Y0069410D01*
X0037097Y0069410D01*
X0034700Y0068417D01*
X0032865Y0066583D01*
X0031872Y0064186D01*
X0031872Y0061592D01*
X0032865Y0059195D01*
X0034700Y0057360D01*
X0032987Y0059073D02*
X0016089Y0059073D01*
X0017637Y0060671D02*
X0032254Y0060671D01*
X0031872Y0062270D02*
X0018224Y0062270D01*
X0018242Y0063868D02*
X0031872Y0063868D01*
X0032403Y0065467D02*
X0017694Y0065467D01*
X0016243Y0067065D02*
X0033348Y0067065D01*
X0035295Y0068664D02*
X0014750Y0068664D01*
X0017143Y0070262D02*
X0056957Y0070262D01*
X0056479Y0068664D02*
X0041492Y0068664D01*
X0043439Y0067065D02*
X0056479Y0067065D01*
X0056912Y0065467D02*
X0044384Y0065467D01*
X0044915Y0063868D02*
X0057719Y0063868D01*
X0059334Y0062270D02*
X0044915Y0062270D01*
X0044534Y0060671D02*
X0094401Y0060671D01*
X0094401Y0059073D02*
X0043800Y0059073D01*
X0042202Y0057474D02*
X0094401Y0057474D01*
X0094401Y0055876D02*
X0059513Y0055876D01*
X0062063Y0054277D02*
X0084364Y0054277D01*
X0083159Y0052679D02*
X0063073Y0052679D01*
X0063913Y0051080D02*
X0082712Y0051080D01*
X0082824Y0049482D02*
X0064575Y0049482D01*
X0064600Y0047883D02*
X0083559Y0047883D01*
X0085445Y0046285D02*
X0064375Y0046285D01*
X0063713Y0044686D02*
X0085284Y0044686D01*
X0083541Y0043088D02*
X0062264Y0043088D01*
X0070500Y0030625D02*
X0070500Y0020625D01*
X0055500Y0020625D01*
X0055500Y0010625D01*
X0051300Y0011118D02*
X0029900Y0011118D01*
X0029900Y0009519D02*
X0051300Y0009519D01*
X0051651Y0012716D02*
X0029631Y0012716D01*
X0070500Y0030625D02*
X0090500Y0030625D01*
X0090300Y0046285D02*
X0090700Y0046285D01*
X0090700Y0047883D02*
X0090300Y0047883D01*
X0090300Y0049482D02*
X0090700Y0049482D01*
X0090700Y0051080D02*
X0090300Y0051080D01*
X0090300Y0052679D02*
X0090700Y0052679D01*
X0090700Y0054277D02*
X0090300Y0054277D01*
X0094401Y0062270D02*
X0066666Y0062270D01*
X0068281Y0063868D02*
X0086155Y0063868D01*
X0084556Y0065467D02*
X0069088Y0065467D01*
X0069521Y0067065D02*
X0082958Y0067065D01*
X0082650Y0068664D02*
X0069521Y0068664D01*
X0069043Y0070262D02*
X0082650Y0070262D01*
X0082650Y0071861D02*
X0068171Y0071861D01*
X0057829Y0071861D02*
X0017955Y0071861D01*
X0010700Y0067065D02*
X0010300Y0067065D01*
X0010300Y0065467D02*
X0010700Y0065467D01*
X0010700Y0063868D02*
X0010300Y0063868D01*
D16*
X0010500Y0050625D02*
X0058079Y0050625D01*
X0058079Y0048125D01*
M02*
