G75*
%MOIN*%
%OFA0B0*%
%FSLAX25Y25*%
%IPPOS*%
%LPD*%
%AMOC8*
5,1,8,0,0,1.08239X$1,22.5*
%
%ADD10C,0.00000*%
%ADD11C,0.21126*%
%ADD12OC8,0.05200*%
%ADD13C,0.06600*%
%ADD14OC8,0.15000*%
%ADD15C,0.00984*%
%ADD16C,0.11811*%
%ADD17C,0.06600*%
%ADD18C,0.06000*%
%ADD19C,0.01000*%
%ADD20C,0.10000*%
%ADD21C,0.07000*%
D10*
X0003000Y0007759D02*
X0003000Y0125869D01*
X0239220Y0125869D01*
X0239220Y0007759D01*
X0003000Y0007759D01*
X0026622Y0031381D02*
X0034496Y0031381D01*
X0034620Y0031383D01*
X0034743Y0031389D01*
X0034867Y0031398D01*
X0034989Y0031412D01*
X0035112Y0031429D01*
X0035234Y0031451D01*
X0035355Y0031476D01*
X0035475Y0031505D01*
X0035594Y0031537D01*
X0035713Y0031574D01*
X0035830Y0031614D01*
X0035945Y0031657D01*
X0036060Y0031705D01*
X0036172Y0031756D01*
X0036283Y0031810D01*
X0036393Y0031868D01*
X0036500Y0031929D01*
X0036606Y0031994D01*
X0036709Y0032062D01*
X0036810Y0032133D01*
X0036909Y0032207D01*
X0037006Y0032284D01*
X0037100Y0032365D01*
X0037191Y0032448D01*
X0037280Y0032534D01*
X0037366Y0032623D01*
X0037449Y0032714D01*
X0037530Y0032808D01*
X0037607Y0032905D01*
X0037681Y0033004D01*
X0037752Y0033105D01*
X0037820Y0033208D01*
X0037885Y0033314D01*
X0037946Y0033421D01*
X0038004Y0033531D01*
X0038058Y0033642D01*
X0038109Y0033754D01*
X0038157Y0033869D01*
X0038200Y0033984D01*
X0038240Y0034101D01*
X0038277Y0034220D01*
X0038309Y0034339D01*
X0038338Y0034459D01*
X0038363Y0034580D01*
X0038385Y0034702D01*
X0038402Y0034825D01*
X0038416Y0034947D01*
X0038425Y0035071D01*
X0038431Y0035194D01*
X0038433Y0035318D01*
X0038431Y0035442D01*
X0038425Y0035565D01*
X0038416Y0035689D01*
X0038402Y0035811D01*
X0038385Y0035934D01*
X0038363Y0036056D01*
X0038338Y0036177D01*
X0038309Y0036297D01*
X0038277Y0036416D01*
X0038240Y0036535D01*
X0038200Y0036652D01*
X0038157Y0036767D01*
X0038109Y0036882D01*
X0038058Y0036994D01*
X0038004Y0037105D01*
X0037946Y0037215D01*
X0037885Y0037322D01*
X0037820Y0037428D01*
X0037752Y0037531D01*
X0037681Y0037632D01*
X0037607Y0037731D01*
X0037530Y0037828D01*
X0037449Y0037922D01*
X0037366Y0038013D01*
X0037280Y0038102D01*
X0037191Y0038188D01*
X0037100Y0038271D01*
X0037006Y0038352D01*
X0036909Y0038429D01*
X0036810Y0038503D01*
X0036709Y0038574D01*
X0036606Y0038642D01*
X0036500Y0038707D01*
X0036393Y0038768D01*
X0036283Y0038826D01*
X0036172Y0038880D01*
X0036060Y0038931D01*
X0035945Y0038979D01*
X0035830Y0039022D01*
X0035713Y0039062D01*
X0035594Y0039099D01*
X0035475Y0039131D01*
X0035355Y0039160D01*
X0035234Y0039185D01*
X0035112Y0039207D01*
X0034989Y0039224D01*
X0034867Y0039238D01*
X0034743Y0039247D01*
X0034620Y0039253D01*
X0034496Y0039255D01*
X0026622Y0039255D01*
X0026498Y0039253D01*
X0026375Y0039247D01*
X0026251Y0039238D01*
X0026129Y0039224D01*
X0026006Y0039207D01*
X0025884Y0039185D01*
X0025763Y0039160D01*
X0025643Y0039131D01*
X0025524Y0039099D01*
X0025405Y0039062D01*
X0025288Y0039022D01*
X0025173Y0038979D01*
X0025058Y0038931D01*
X0024946Y0038880D01*
X0024835Y0038826D01*
X0024725Y0038768D01*
X0024618Y0038707D01*
X0024512Y0038642D01*
X0024409Y0038574D01*
X0024308Y0038503D01*
X0024209Y0038429D01*
X0024112Y0038352D01*
X0024018Y0038271D01*
X0023927Y0038188D01*
X0023838Y0038102D01*
X0023752Y0038013D01*
X0023669Y0037922D01*
X0023588Y0037828D01*
X0023511Y0037731D01*
X0023437Y0037632D01*
X0023366Y0037531D01*
X0023298Y0037428D01*
X0023233Y0037322D01*
X0023172Y0037215D01*
X0023114Y0037105D01*
X0023060Y0036994D01*
X0023009Y0036882D01*
X0022961Y0036767D01*
X0022918Y0036652D01*
X0022878Y0036535D01*
X0022841Y0036416D01*
X0022809Y0036297D01*
X0022780Y0036177D01*
X0022755Y0036056D01*
X0022733Y0035934D01*
X0022716Y0035811D01*
X0022702Y0035689D01*
X0022693Y0035565D01*
X0022687Y0035442D01*
X0022685Y0035318D01*
X0022687Y0035194D01*
X0022693Y0035071D01*
X0022702Y0034947D01*
X0022716Y0034825D01*
X0022733Y0034702D01*
X0022755Y0034580D01*
X0022780Y0034459D01*
X0022809Y0034339D01*
X0022841Y0034220D01*
X0022878Y0034101D01*
X0022918Y0033984D01*
X0022961Y0033869D01*
X0023009Y0033754D01*
X0023060Y0033642D01*
X0023114Y0033531D01*
X0023172Y0033421D01*
X0023233Y0033314D01*
X0023298Y0033208D01*
X0023366Y0033105D01*
X0023437Y0033004D01*
X0023511Y0032905D01*
X0023588Y0032808D01*
X0023669Y0032714D01*
X0023752Y0032623D01*
X0023838Y0032534D01*
X0023927Y0032448D01*
X0024018Y0032365D01*
X0024112Y0032284D01*
X0024209Y0032207D01*
X0024308Y0032133D01*
X0024409Y0032062D01*
X0024512Y0031994D01*
X0024618Y0031929D01*
X0024725Y0031868D01*
X0024835Y0031810D01*
X0024946Y0031756D01*
X0025058Y0031705D01*
X0025173Y0031657D01*
X0025288Y0031614D01*
X0025405Y0031574D01*
X0025524Y0031537D01*
X0025643Y0031505D01*
X0025763Y0031476D01*
X0025884Y0031451D01*
X0026006Y0031429D01*
X0026129Y0031412D01*
X0026251Y0031398D01*
X0026375Y0031389D01*
X0026498Y0031383D01*
X0026622Y0031381D01*
X0028591Y0055003D02*
X0044339Y0055003D01*
X0044627Y0055007D01*
X0044914Y0055017D01*
X0045201Y0055035D01*
X0045488Y0055059D01*
X0045774Y0055090D01*
X0046059Y0055129D01*
X0046343Y0055174D01*
X0046626Y0055226D01*
X0046907Y0055286D01*
X0047187Y0055352D01*
X0047465Y0055424D01*
X0047742Y0055504D01*
X0048016Y0055590D01*
X0048288Y0055683D01*
X0048558Y0055782D01*
X0048826Y0055888D01*
X0049090Y0056001D01*
X0049352Y0056120D01*
X0049611Y0056245D01*
X0049867Y0056377D01*
X0050120Y0056514D01*
X0050369Y0056658D01*
X0050614Y0056808D01*
X0050856Y0056964D01*
X0051094Y0057125D01*
X0051328Y0057293D01*
X0051558Y0057466D01*
X0051783Y0057644D01*
X0052004Y0057828D01*
X0052221Y0058017D01*
X0052433Y0058212D01*
X0052640Y0058412D01*
X0052842Y0058616D01*
X0053039Y0058826D01*
X0053231Y0059040D01*
X0053417Y0059259D01*
X0053599Y0059482D01*
X0053775Y0059710D01*
X0053945Y0059942D01*
X0054109Y0060178D01*
X0054268Y0060417D01*
X0054421Y0060661D01*
X0054568Y0060909D01*
X0054708Y0061159D01*
X0054843Y0061414D01*
X0054971Y0061671D01*
X0055093Y0061931D01*
X0055209Y0062195D01*
X0055318Y0062461D01*
X0055421Y0062729D01*
X0055517Y0063000D01*
X0055607Y0063274D01*
X0055690Y0063549D01*
X0055766Y0063827D01*
X0055835Y0064106D01*
X0055898Y0064386D01*
X0055954Y0064669D01*
X0056002Y0064952D01*
X0056044Y0065237D01*
X0056079Y0065522D01*
X0056107Y0065808D01*
X0056128Y0066095D01*
X0056142Y0066383D01*
X0056149Y0066670D01*
X0056149Y0066958D01*
X0056142Y0067245D01*
X0056128Y0067533D01*
X0056107Y0067820D01*
X0056079Y0068106D01*
X0056044Y0068391D01*
X0056002Y0068676D01*
X0055954Y0068959D01*
X0055898Y0069242D01*
X0055835Y0069522D01*
X0055766Y0069801D01*
X0055690Y0070079D01*
X0055607Y0070354D01*
X0055517Y0070628D01*
X0055421Y0070899D01*
X0055318Y0071167D01*
X0055209Y0071433D01*
X0055093Y0071697D01*
X0054971Y0071957D01*
X0054843Y0072214D01*
X0054708Y0072469D01*
X0054568Y0072720D01*
X0054421Y0072967D01*
X0054268Y0073211D01*
X0054109Y0073450D01*
X0053945Y0073686D01*
X0053775Y0073918D01*
X0053599Y0074146D01*
X0053417Y0074369D01*
X0053231Y0074588D01*
X0053039Y0074802D01*
X0052842Y0075012D01*
X0052640Y0075216D01*
X0052433Y0075416D01*
X0052221Y0075611D01*
X0052004Y0075800D01*
X0051783Y0075984D01*
X0051558Y0076162D01*
X0051328Y0076335D01*
X0051094Y0076503D01*
X0050856Y0076664D01*
X0050614Y0076820D01*
X0050369Y0076970D01*
X0050120Y0077114D01*
X0049867Y0077251D01*
X0049611Y0077383D01*
X0049352Y0077508D01*
X0049090Y0077627D01*
X0048826Y0077740D01*
X0048558Y0077846D01*
X0048288Y0077945D01*
X0048016Y0078038D01*
X0047742Y0078124D01*
X0047465Y0078204D01*
X0047187Y0078276D01*
X0046907Y0078342D01*
X0046626Y0078402D01*
X0046343Y0078454D01*
X0046059Y0078499D01*
X0045774Y0078538D01*
X0045488Y0078569D01*
X0045201Y0078593D01*
X0044914Y0078611D01*
X0044627Y0078621D01*
X0044339Y0078625D01*
X0028591Y0078625D01*
X0028303Y0078621D01*
X0028016Y0078611D01*
X0027729Y0078593D01*
X0027442Y0078569D01*
X0027156Y0078538D01*
X0026871Y0078499D01*
X0026587Y0078454D01*
X0026304Y0078402D01*
X0026023Y0078342D01*
X0025743Y0078276D01*
X0025465Y0078204D01*
X0025188Y0078124D01*
X0024914Y0078038D01*
X0024642Y0077945D01*
X0024372Y0077846D01*
X0024104Y0077740D01*
X0023840Y0077627D01*
X0023578Y0077508D01*
X0023319Y0077383D01*
X0023063Y0077251D01*
X0022810Y0077114D01*
X0022561Y0076970D01*
X0022316Y0076820D01*
X0022074Y0076664D01*
X0021836Y0076503D01*
X0021602Y0076335D01*
X0021372Y0076162D01*
X0021147Y0075984D01*
X0020926Y0075800D01*
X0020709Y0075611D01*
X0020497Y0075416D01*
X0020290Y0075216D01*
X0020088Y0075012D01*
X0019891Y0074802D01*
X0019699Y0074588D01*
X0019513Y0074369D01*
X0019331Y0074146D01*
X0019155Y0073918D01*
X0018985Y0073686D01*
X0018821Y0073450D01*
X0018662Y0073211D01*
X0018509Y0072967D01*
X0018362Y0072719D01*
X0018222Y0072469D01*
X0018087Y0072214D01*
X0017959Y0071957D01*
X0017837Y0071697D01*
X0017721Y0071433D01*
X0017612Y0071167D01*
X0017509Y0070899D01*
X0017413Y0070628D01*
X0017323Y0070354D01*
X0017240Y0070079D01*
X0017164Y0069801D01*
X0017095Y0069522D01*
X0017032Y0069242D01*
X0016976Y0068959D01*
X0016928Y0068676D01*
X0016886Y0068391D01*
X0016851Y0068106D01*
X0016823Y0067820D01*
X0016802Y0067533D01*
X0016788Y0067245D01*
X0016781Y0066958D01*
X0016781Y0066670D01*
X0016788Y0066383D01*
X0016802Y0066095D01*
X0016823Y0065808D01*
X0016851Y0065522D01*
X0016886Y0065237D01*
X0016928Y0064952D01*
X0016976Y0064669D01*
X0017032Y0064386D01*
X0017095Y0064106D01*
X0017164Y0063827D01*
X0017240Y0063549D01*
X0017323Y0063274D01*
X0017413Y0063000D01*
X0017509Y0062729D01*
X0017612Y0062461D01*
X0017721Y0062195D01*
X0017837Y0061931D01*
X0017959Y0061671D01*
X0018087Y0061414D01*
X0018222Y0061159D01*
X0018362Y0060908D01*
X0018509Y0060661D01*
X0018662Y0060417D01*
X0018821Y0060178D01*
X0018985Y0059942D01*
X0019155Y0059710D01*
X0019331Y0059482D01*
X0019513Y0059259D01*
X0019699Y0059040D01*
X0019891Y0058826D01*
X0020088Y0058616D01*
X0020290Y0058412D01*
X0020497Y0058212D01*
X0020709Y0058017D01*
X0020926Y0057828D01*
X0021147Y0057644D01*
X0021372Y0057466D01*
X0021602Y0057293D01*
X0021836Y0057125D01*
X0022074Y0056964D01*
X0022316Y0056808D01*
X0022561Y0056658D01*
X0022810Y0056514D01*
X0023063Y0056377D01*
X0023319Y0056245D01*
X0023578Y0056120D01*
X0023840Y0056001D01*
X0024104Y0055888D01*
X0024372Y0055782D01*
X0024642Y0055683D01*
X0024914Y0055590D01*
X0025188Y0055504D01*
X0025465Y0055424D01*
X0025743Y0055352D01*
X0026023Y0055286D01*
X0026304Y0055226D01*
X0026587Y0055174D01*
X0026871Y0055129D01*
X0027156Y0055090D01*
X0027442Y0055059D01*
X0027729Y0055035D01*
X0028016Y0055017D01*
X0028303Y0055007D01*
X0028591Y0055003D01*
X0038433Y0094373D02*
X0046307Y0094373D01*
X0046431Y0094375D01*
X0046554Y0094381D01*
X0046678Y0094390D01*
X0046800Y0094404D01*
X0046923Y0094421D01*
X0047045Y0094443D01*
X0047166Y0094468D01*
X0047286Y0094497D01*
X0047405Y0094529D01*
X0047524Y0094566D01*
X0047641Y0094606D01*
X0047756Y0094649D01*
X0047871Y0094697D01*
X0047983Y0094748D01*
X0048094Y0094802D01*
X0048204Y0094860D01*
X0048311Y0094921D01*
X0048417Y0094986D01*
X0048520Y0095054D01*
X0048621Y0095125D01*
X0048720Y0095199D01*
X0048817Y0095276D01*
X0048911Y0095357D01*
X0049002Y0095440D01*
X0049091Y0095526D01*
X0049177Y0095615D01*
X0049260Y0095706D01*
X0049341Y0095800D01*
X0049418Y0095897D01*
X0049492Y0095996D01*
X0049563Y0096097D01*
X0049631Y0096200D01*
X0049696Y0096306D01*
X0049757Y0096413D01*
X0049815Y0096523D01*
X0049869Y0096634D01*
X0049920Y0096746D01*
X0049968Y0096861D01*
X0050011Y0096976D01*
X0050051Y0097093D01*
X0050088Y0097212D01*
X0050120Y0097331D01*
X0050149Y0097451D01*
X0050174Y0097572D01*
X0050196Y0097694D01*
X0050213Y0097817D01*
X0050227Y0097939D01*
X0050236Y0098063D01*
X0050242Y0098186D01*
X0050244Y0098310D01*
X0050242Y0098434D01*
X0050236Y0098557D01*
X0050227Y0098681D01*
X0050213Y0098803D01*
X0050196Y0098926D01*
X0050174Y0099048D01*
X0050149Y0099169D01*
X0050120Y0099289D01*
X0050088Y0099408D01*
X0050051Y0099527D01*
X0050011Y0099644D01*
X0049968Y0099759D01*
X0049920Y0099874D01*
X0049869Y0099986D01*
X0049815Y0100097D01*
X0049757Y0100207D01*
X0049696Y0100314D01*
X0049631Y0100420D01*
X0049563Y0100523D01*
X0049492Y0100624D01*
X0049418Y0100723D01*
X0049341Y0100820D01*
X0049260Y0100914D01*
X0049177Y0101005D01*
X0049091Y0101094D01*
X0049002Y0101180D01*
X0048911Y0101263D01*
X0048817Y0101344D01*
X0048720Y0101421D01*
X0048621Y0101495D01*
X0048520Y0101566D01*
X0048417Y0101634D01*
X0048311Y0101699D01*
X0048204Y0101760D01*
X0048094Y0101818D01*
X0047983Y0101872D01*
X0047871Y0101923D01*
X0047756Y0101971D01*
X0047641Y0102014D01*
X0047524Y0102054D01*
X0047405Y0102091D01*
X0047286Y0102123D01*
X0047166Y0102152D01*
X0047045Y0102177D01*
X0046923Y0102199D01*
X0046800Y0102216D01*
X0046678Y0102230D01*
X0046554Y0102239D01*
X0046431Y0102245D01*
X0046307Y0102247D01*
X0038433Y0102247D01*
X0038309Y0102245D01*
X0038186Y0102239D01*
X0038062Y0102230D01*
X0037940Y0102216D01*
X0037817Y0102199D01*
X0037695Y0102177D01*
X0037574Y0102152D01*
X0037454Y0102123D01*
X0037335Y0102091D01*
X0037216Y0102054D01*
X0037099Y0102014D01*
X0036984Y0101971D01*
X0036869Y0101923D01*
X0036757Y0101872D01*
X0036646Y0101818D01*
X0036536Y0101760D01*
X0036429Y0101699D01*
X0036323Y0101634D01*
X0036220Y0101566D01*
X0036119Y0101495D01*
X0036020Y0101421D01*
X0035923Y0101344D01*
X0035829Y0101263D01*
X0035738Y0101180D01*
X0035649Y0101094D01*
X0035563Y0101005D01*
X0035480Y0100914D01*
X0035399Y0100820D01*
X0035322Y0100723D01*
X0035248Y0100624D01*
X0035177Y0100523D01*
X0035109Y0100420D01*
X0035044Y0100314D01*
X0034983Y0100207D01*
X0034925Y0100097D01*
X0034871Y0099986D01*
X0034820Y0099874D01*
X0034772Y0099759D01*
X0034729Y0099644D01*
X0034689Y0099527D01*
X0034652Y0099408D01*
X0034620Y0099289D01*
X0034591Y0099169D01*
X0034566Y0099048D01*
X0034544Y0098926D01*
X0034527Y0098803D01*
X0034513Y0098681D01*
X0034504Y0098557D01*
X0034498Y0098434D01*
X0034496Y0098310D01*
X0034498Y0098186D01*
X0034504Y0098063D01*
X0034513Y0097939D01*
X0034527Y0097817D01*
X0034544Y0097694D01*
X0034566Y0097572D01*
X0034591Y0097451D01*
X0034620Y0097331D01*
X0034652Y0097212D01*
X0034689Y0097093D01*
X0034729Y0096976D01*
X0034772Y0096861D01*
X0034820Y0096746D01*
X0034871Y0096634D01*
X0034925Y0096523D01*
X0034983Y0096413D01*
X0035044Y0096306D01*
X0035109Y0096200D01*
X0035177Y0096097D01*
X0035248Y0095996D01*
X0035322Y0095897D01*
X0035399Y0095800D01*
X0035480Y0095706D01*
X0035563Y0095615D01*
X0035649Y0095526D01*
X0035738Y0095440D01*
X0035829Y0095357D01*
X0035923Y0095276D01*
X0036020Y0095199D01*
X0036119Y0095125D01*
X0036220Y0095054D01*
X0036323Y0094986D01*
X0036429Y0094921D01*
X0036536Y0094860D01*
X0036646Y0094802D01*
X0036757Y0094748D01*
X0036869Y0094697D01*
X0036984Y0094649D01*
X0037099Y0094606D01*
X0037216Y0094566D01*
X0037335Y0094529D01*
X0037454Y0094497D01*
X0037574Y0094468D01*
X0037695Y0094443D01*
X0037817Y0094421D01*
X0037940Y0094404D01*
X0038062Y0094390D01*
X0038186Y0094381D01*
X0038309Y0094375D01*
X0038433Y0094373D01*
X0090295Y0086499D02*
X0090297Y0086660D01*
X0090303Y0086820D01*
X0090313Y0086981D01*
X0090327Y0087141D01*
X0090345Y0087301D01*
X0090366Y0087460D01*
X0090392Y0087619D01*
X0090422Y0087777D01*
X0090455Y0087934D01*
X0090493Y0088091D01*
X0090534Y0088246D01*
X0090579Y0088400D01*
X0090628Y0088553D01*
X0090681Y0088705D01*
X0090737Y0088856D01*
X0090798Y0089005D01*
X0090861Y0089153D01*
X0090929Y0089299D01*
X0091000Y0089443D01*
X0091074Y0089585D01*
X0091152Y0089726D01*
X0091234Y0089864D01*
X0091319Y0090001D01*
X0091407Y0090135D01*
X0091499Y0090267D01*
X0091594Y0090397D01*
X0091692Y0090525D01*
X0091793Y0090650D01*
X0091897Y0090772D01*
X0092004Y0090892D01*
X0092114Y0091009D01*
X0092227Y0091124D01*
X0092343Y0091235D01*
X0092462Y0091344D01*
X0092583Y0091449D01*
X0092707Y0091552D01*
X0092833Y0091652D01*
X0092961Y0091748D01*
X0093092Y0091841D01*
X0093226Y0091931D01*
X0093361Y0092018D01*
X0093499Y0092101D01*
X0093638Y0092181D01*
X0093780Y0092257D01*
X0093923Y0092330D01*
X0094068Y0092399D01*
X0094215Y0092465D01*
X0094363Y0092527D01*
X0094513Y0092585D01*
X0094664Y0092640D01*
X0094817Y0092691D01*
X0094971Y0092738D01*
X0095126Y0092781D01*
X0095282Y0092820D01*
X0095438Y0092856D01*
X0095596Y0092887D01*
X0095754Y0092915D01*
X0095913Y0092939D01*
X0096073Y0092959D01*
X0096233Y0092975D01*
X0096393Y0092987D01*
X0096554Y0092995D01*
X0096715Y0092999D01*
X0096875Y0092999D01*
X0097036Y0092995D01*
X0097197Y0092987D01*
X0097357Y0092975D01*
X0097517Y0092959D01*
X0097677Y0092939D01*
X0097836Y0092915D01*
X0097994Y0092887D01*
X0098152Y0092856D01*
X0098308Y0092820D01*
X0098464Y0092781D01*
X0098619Y0092738D01*
X0098773Y0092691D01*
X0098926Y0092640D01*
X0099077Y0092585D01*
X0099227Y0092527D01*
X0099375Y0092465D01*
X0099522Y0092399D01*
X0099667Y0092330D01*
X0099810Y0092257D01*
X0099952Y0092181D01*
X0100091Y0092101D01*
X0100229Y0092018D01*
X0100364Y0091931D01*
X0100498Y0091841D01*
X0100629Y0091748D01*
X0100757Y0091652D01*
X0100883Y0091552D01*
X0101007Y0091449D01*
X0101128Y0091344D01*
X0101247Y0091235D01*
X0101363Y0091124D01*
X0101476Y0091009D01*
X0101586Y0090892D01*
X0101693Y0090772D01*
X0101797Y0090650D01*
X0101898Y0090525D01*
X0101996Y0090397D01*
X0102091Y0090267D01*
X0102183Y0090135D01*
X0102271Y0090001D01*
X0102356Y0089864D01*
X0102438Y0089726D01*
X0102516Y0089585D01*
X0102590Y0089443D01*
X0102661Y0089299D01*
X0102729Y0089153D01*
X0102792Y0089005D01*
X0102853Y0088856D01*
X0102909Y0088705D01*
X0102962Y0088553D01*
X0103011Y0088400D01*
X0103056Y0088246D01*
X0103097Y0088091D01*
X0103135Y0087934D01*
X0103168Y0087777D01*
X0103198Y0087619D01*
X0103224Y0087460D01*
X0103245Y0087301D01*
X0103263Y0087141D01*
X0103277Y0086981D01*
X0103287Y0086820D01*
X0103293Y0086660D01*
X0103295Y0086499D01*
X0103293Y0086338D01*
X0103287Y0086178D01*
X0103277Y0086017D01*
X0103263Y0085857D01*
X0103245Y0085697D01*
X0103224Y0085538D01*
X0103198Y0085379D01*
X0103168Y0085221D01*
X0103135Y0085064D01*
X0103097Y0084907D01*
X0103056Y0084752D01*
X0103011Y0084598D01*
X0102962Y0084445D01*
X0102909Y0084293D01*
X0102853Y0084142D01*
X0102792Y0083993D01*
X0102729Y0083845D01*
X0102661Y0083699D01*
X0102590Y0083555D01*
X0102516Y0083413D01*
X0102438Y0083272D01*
X0102356Y0083134D01*
X0102271Y0082997D01*
X0102183Y0082863D01*
X0102091Y0082731D01*
X0101996Y0082601D01*
X0101898Y0082473D01*
X0101797Y0082348D01*
X0101693Y0082226D01*
X0101586Y0082106D01*
X0101476Y0081989D01*
X0101363Y0081874D01*
X0101247Y0081763D01*
X0101128Y0081654D01*
X0101007Y0081549D01*
X0100883Y0081446D01*
X0100757Y0081346D01*
X0100629Y0081250D01*
X0100498Y0081157D01*
X0100364Y0081067D01*
X0100229Y0080980D01*
X0100091Y0080897D01*
X0099952Y0080817D01*
X0099810Y0080741D01*
X0099667Y0080668D01*
X0099522Y0080599D01*
X0099375Y0080533D01*
X0099227Y0080471D01*
X0099077Y0080413D01*
X0098926Y0080358D01*
X0098773Y0080307D01*
X0098619Y0080260D01*
X0098464Y0080217D01*
X0098308Y0080178D01*
X0098152Y0080142D01*
X0097994Y0080111D01*
X0097836Y0080083D01*
X0097677Y0080059D01*
X0097517Y0080039D01*
X0097357Y0080023D01*
X0097197Y0080011D01*
X0097036Y0080003D01*
X0096875Y0079999D01*
X0096715Y0079999D01*
X0096554Y0080003D01*
X0096393Y0080011D01*
X0096233Y0080023D01*
X0096073Y0080039D01*
X0095913Y0080059D01*
X0095754Y0080083D01*
X0095596Y0080111D01*
X0095438Y0080142D01*
X0095282Y0080178D01*
X0095126Y0080217D01*
X0094971Y0080260D01*
X0094817Y0080307D01*
X0094664Y0080358D01*
X0094513Y0080413D01*
X0094363Y0080471D01*
X0094215Y0080533D01*
X0094068Y0080599D01*
X0093923Y0080668D01*
X0093780Y0080741D01*
X0093638Y0080817D01*
X0093499Y0080897D01*
X0093361Y0080980D01*
X0093226Y0081067D01*
X0093092Y0081157D01*
X0092961Y0081250D01*
X0092833Y0081346D01*
X0092707Y0081446D01*
X0092583Y0081549D01*
X0092462Y0081654D01*
X0092343Y0081763D01*
X0092227Y0081874D01*
X0092114Y0081989D01*
X0092004Y0082106D01*
X0091897Y0082226D01*
X0091793Y0082348D01*
X0091692Y0082473D01*
X0091594Y0082601D01*
X0091499Y0082731D01*
X0091407Y0082863D01*
X0091319Y0082997D01*
X0091234Y0083134D01*
X0091152Y0083272D01*
X0091074Y0083413D01*
X0091000Y0083555D01*
X0090929Y0083699D01*
X0090861Y0083845D01*
X0090798Y0083993D01*
X0090737Y0084142D01*
X0090681Y0084293D01*
X0090628Y0084445D01*
X0090579Y0084598D01*
X0090534Y0084752D01*
X0090493Y0084907D01*
X0090455Y0085064D01*
X0090422Y0085221D01*
X0090392Y0085379D01*
X0090366Y0085538D01*
X0090345Y0085697D01*
X0090327Y0085857D01*
X0090313Y0086017D01*
X0090303Y0086178D01*
X0090297Y0086338D01*
X0090295Y0086499D01*
X0195913Y0039255D02*
X0203787Y0039255D01*
X0203911Y0039253D01*
X0204034Y0039247D01*
X0204158Y0039238D01*
X0204280Y0039224D01*
X0204403Y0039207D01*
X0204525Y0039185D01*
X0204646Y0039160D01*
X0204766Y0039131D01*
X0204885Y0039099D01*
X0205004Y0039062D01*
X0205121Y0039022D01*
X0205236Y0038979D01*
X0205351Y0038931D01*
X0205463Y0038880D01*
X0205574Y0038826D01*
X0205684Y0038768D01*
X0205791Y0038707D01*
X0205897Y0038642D01*
X0206000Y0038574D01*
X0206101Y0038503D01*
X0206200Y0038429D01*
X0206297Y0038352D01*
X0206391Y0038271D01*
X0206482Y0038188D01*
X0206571Y0038102D01*
X0206657Y0038013D01*
X0206740Y0037922D01*
X0206821Y0037828D01*
X0206898Y0037731D01*
X0206972Y0037632D01*
X0207043Y0037531D01*
X0207111Y0037428D01*
X0207176Y0037322D01*
X0207237Y0037215D01*
X0207295Y0037105D01*
X0207349Y0036994D01*
X0207400Y0036882D01*
X0207448Y0036767D01*
X0207491Y0036652D01*
X0207531Y0036535D01*
X0207568Y0036416D01*
X0207600Y0036297D01*
X0207629Y0036177D01*
X0207654Y0036056D01*
X0207676Y0035934D01*
X0207693Y0035811D01*
X0207707Y0035689D01*
X0207716Y0035565D01*
X0207722Y0035442D01*
X0207724Y0035318D01*
X0207722Y0035194D01*
X0207716Y0035071D01*
X0207707Y0034947D01*
X0207693Y0034825D01*
X0207676Y0034702D01*
X0207654Y0034580D01*
X0207629Y0034459D01*
X0207600Y0034339D01*
X0207568Y0034220D01*
X0207531Y0034101D01*
X0207491Y0033984D01*
X0207448Y0033869D01*
X0207400Y0033754D01*
X0207349Y0033642D01*
X0207295Y0033531D01*
X0207237Y0033421D01*
X0207176Y0033314D01*
X0207111Y0033208D01*
X0207043Y0033105D01*
X0206972Y0033004D01*
X0206898Y0032905D01*
X0206821Y0032808D01*
X0206740Y0032714D01*
X0206657Y0032623D01*
X0206571Y0032534D01*
X0206482Y0032448D01*
X0206391Y0032365D01*
X0206297Y0032284D01*
X0206200Y0032207D01*
X0206101Y0032133D01*
X0206000Y0032062D01*
X0205897Y0031994D01*
X0205791Y0031929D01*
X0205684Y0031868D01*
X0205574Y0031810D01*
X0205463Y0031756D01*
X0205351Y0031705D01*
X0205236Y0031657D01*
X0205121Y0031614D01*
X0205004Y0031574D01*
X0204885Y0031537D01*
X0204766Y0031505D01*
X0204646Y0031476D01*
X0204525Y0031451D01*
X0204403Y0031429D01*
X0204280Y0031412D01*
X0204158Y0031398D01*
X0204034Y0031389D01*
X0203911Y0031383D01*
X0203787Y0031381D01*
X0195913Y0031381D01*
X0195789Y0031383D01*
X0195666Y0031389D01*
X0195542Y0031398D01*
X0195420Y0031412D01*
X0195297Y0031429D01*
X0195175Y0031451D01*
X0195054Y0031476D01*
X0194934Y0031505D01*
X0194815Y0031537D01*
X0194696Y0031574D01*
X0194579Y0031614D01*
X0194464Y0031657D01*
X0194349Y0031705D01*
X0194237Y0031756D01*
X0194126Y0031810D01*
X0194016Y0031868D01*
X0193909Y0031929D01*
X0193803Y0031994D01*
X0193700Y0032062D01*
X0193599Y0032133D01*
X0193500Y0032207D01*
X0193403Y0032284D01*
X0193309Y0032365D01*
X0193218Y0032448D01*
X0193129Y0032534D01*
X0193043Y0032623D01*
X0192960Y0032714D01*
X0192879Y0032808D01*
X0192802Y0032905D01*
X0192728Y0033004D01*
X0192657Y0033105D01*
X0192589Y0033208D01*
X0192524Y0033314D01*
X0192463Y0033421D01*
X0192405Y0033531D01*
X0192351Y0033642D01*
X0192300Y0033754D01*
X0192252Y0033869D01*
X0192209Y0033984D01*
X0192169Y0034101D01*
X0192132Y0034220D01*
X0192100Y0034339D01*
X0192071Y0034459D01*
X0192046Y0034580D01*
X0192024Y0034702D01*
X0192007Y0034825D01*
X0191993Y0034947D01*
X0191984Y0035071D01*
X0191978Y0035194D01*
X0191976Y0035318D01*
X0191978Y0035442D01*
X0191984Y0035565D01*
X0191993Y0035689D01*
X0192007Y0035811D01*
X0192024Y0035934D01*
X0192046Y0036056D01*
X0192071Y0036177D01*
X0192100Y0036297D01*
X0192132Y0036416D01*
X0192169Y0036535D01*
X0192209Y0036652D01*
X0192252Y0036767D01*
X0192300Y0036882D01*
X0192351Y0036994D01*
X0192405Y0037105D01*
X0192463Y0037215D01*
X0192524Y0037322D01*
X0192589Y0037428D01*
X0192657Y0037531D01*
X0192728Y0037632D01*
X0192802Y0037731D01*
X0192879Y0037828D01*
X0192960Y0037922D01*
X0193043Y0038013D01*
X0193129Y0038102D01*
X0193218Y0038188D01*
X0193309Y0038271D01*
X0193403Y0038352D01*
X0193500Y0038429D01*
X0193599Y0038503D01*
X0193700Y0038574D01*
X0193803Y0038642D01*
X0193909Y0038707D01*
X0194016Y0038768D01*
X0194126Y0038826D01*
X0194237Y0038880D01*
X0194349Y0038931D01*
X0194464Y0038979D01*
X0194579Y0039022D01*
X0194696Y0039062D01*
X0194815Y0039099D01*
X0194934Y0039131D01*
X0195054Y0039160D01*
X0195175Y0039185D01*
X0195297Y0039207D01*
X0195420Y0039224D01*
X0195542Y0039238D01*
X0195666Y0039247D01*
X0195789Y0039253D01*
X0195913Y0039255D01*
X0197882Y0055003D02*
X0213630Y0055003D01*
X0213918Y0055007D01*
X0214205Y0055017D01*
X0214492Y0055035D01*
X0214779Y0055059D01*
X0215065Y0055090D01*
X0215350Y0055129D01*
X0215634Y0055174D01*
X0215917Y0055226D01*
X0216198Y0055286D01*
X0216478Y0055352D01*
X0216756Y0055424D01*
X0217033Y0055504D01*
X0217307Y0055590D01*
X0217579Y0055683D01*
X0217849Y0055782D01*
X0218117Y0055888D01*
X0218381Y0056001D01*
X0218643Y0056120D01*
X0218902Y0056245D01*
X0219158Y0056377D01*
X0219411Y0056514D01*
X0219660Y0056658D01*
X0219905Y0056808D01*
X0220147Y0056964D01*
X0220385Y0057125D01*
X0220619Y0057293D01*
X0220849Y0057466D01*
X0221074Y0057644D01*
X0221295Y0057828D01*
X0221512Y0058017D01*
X0221724Y0058212D01*
X0221931Y0058412D01*
X0222133Y0058616D01*
X0222330Y0058826D01*
X0222522Y0059040D01*
X0222708Y0059259D01*
X0222890Y0059482D01*
X0223066Y0059710D01*
X0223236Y0059942D01*
X0223400Y0060178D01*
X0223559Y0060417D01*
X0223712Y0060661D01*
X0223859Y0060909D01*
X0223999Y0061159D01*
X0224134Y0061414D01*
X0224262Y0061671D01*
X0224384Y0061931D01*
X0224500Y0062195D01*
X0224609Y0062461D01*
X0224712Y0062729D01*
X0224808Y0063000D01*
X0224898Y0063274D01*
X0224981Y0063549D01*
X0225057Y0063827D01*
X0225126Y0064106D01*
X0225189Y0064386D01*
X0225245Y0064669D01*
X0225293Y0064952D01*
X0225335Y0065237D01*
X0225370Y0065522D01*
X0225398Y0065808D01*
X0225419Y0066095D01*
X0225433Y0066383D01*
X0225440Y0066670D01*
X0225440Y0066958D01*
X0225433Y0067245D01*
X0225419Y0067533D01*
X0225398Y0067820D01*
X0225370Y0068106D01*
X0225335Y0068391D01*
X0225293Y0068676D01*
X0225245Y0068959D01*
X0225189Y0069242D01*
X0225126Y0069522D01*
X0225057Y0069801D01*
X0224981Y0070079D01*
X0224898Y0070354D01*
X0224808Y0070628D01*
X0224712Y0070899D01*
X0224609Y0071167D01*
X0224500Y0071433D01*
X0224384Y0071697D01*
X0224262Y0071957D01*
X0224134Y0072214D01*
X0223999Y0072469D01*
X0223859Y0072720D01*
X0223712Y0072967D01*
X0223559Y0073211D01*
X0223400Y0073450D01*
X0223236Y0073686D01*
X0223066Y0073918D01*
X0222890Y0074146D01*
X0222708Y0074369D01*
X0222522Y0074588D01*
X0222330Y0074802D01*
X0222133Y0075012D01*
X0221931Y0075216D01*
X0221724Y0075416D01*
X0221512Y0075611D01*
X0221295Y0075800D01*
X0221074Y0075984D01*
X0220849Y0076162D01*
X0220619Y0076335D01*
X0220385Y0076503D01*
X0220147Y0076664D01*
X0219905Y0076820D01*
X0219660Y0076970D01*
X0219411Y0077114D01*
X0219158Y0077251D01*
X0218902Y0077383D01*
X0218643Y0077508D01*
X0218381Y0077627D01*
X0218117Y0077740D01*
X0217849Y0077846D01*
X0217579Y0077945D01*
X0217307Y0078038D01*
X0217033Y0078124D01*
X0216756Y0078204D01*
X0216478Y0078276D01*
X0216198Y0078342D01*
X0215917Y0078402D01*
X0215634Y0078454D01*
X0215350Y0078499D01*
X0215065Y0078538D01*
X0214779Y0078569D01*
X0214492Y0078593D01*
X0214205Y0078611D01*
X0213918Y0078621D01*
X0213630Y0078625D01*
X0197882Y0078625D01*
X0197594Y0078621D01*
X0197307Y0078611D01*
X0197020Y0078593D01*
X0196733Y0078569D01*
X0196447Y0078538D01*
X0196162Y0078499D01*
X0195878Y0078454D01*
X0195595Y0078402D01*
X0195314Y0078342D01*
X0195034Y0078276D01*
X0194756Y0078204D01*
X0194479Y0078124D01*
X0194205Y0078038D01*
X0193933Y0077945D01*
X0193663Y0077846D01*
X0193395Y0077740D01*
X0193131Y0077627D01*
X0192869Y0077508D01*
X0192610Y0077383D01*
X0192354Y0077251D01*
X0192101Y0077114D01*
X0191852Y0076970D01*
X0191607Y0076820D01*
X0191365Y0076664D01*
X0191127Y0076503D01*
X0190893Y0076335D01*
X0190663Y0076162D01*
X0190438Y0075984D01*
X0190217Y0075800D01*
X0190000Y0075611D01*
X0189788Y0075416D01*
X0189581Y0075216D01*
X0189379Y0075012D01*
X0189182Y0074802D01*
X0188990Y0074588D01*
X0188804Y0074369D01*
X0188622Y0074146D01*
X0188446Y0073918D01*
X0188276Y0073686D01*
X0188112Y0073450D01*
X0187953Y0073211D01*
X0187800Y0072967D01*
X0187653Y0072719D01*
X0187513Y0072469D01*
X0187378Y0072214D01*
X0187250Y0071957D01*
X0187128Y0071697D01*
X0187012Y0071433D01*
X0186903Y0071167D01*
X0186800Y0070899D01*
X0186704Y0070628D01*
X0186614Y0070354D01*
X0186531Y0070079D01*
X0186455Y0069801D01*
X0186386Y0069522D01*
X0186323Y0069242D01*
X0186267Y0068959D01*
X0186219Y0068676D01*
X0186177Y0068391D01*
X0186142Y0068106D01*
X0186114Y0067820D01*
X0186093Y0067533D01*
X0186079Y0067245D01*
X0186072Y0066958D01*
X0186072Y0066670D01*
X0186079Y0066383D01*
X0186093Y0066095D01*
X0186114Y0065808D01*
X0186142Y0065522D01*
X0186177Y0065237D01*
X0186219Y0064952D01*
X0186267Y0064669D01*
X0186323Y0064386D01*
X0186386Y0064106D01*
X0186455Y0063827D01*
X0186531Y0063549D01*
X0186614Y0063274D01*
X0186704Y0063000D01*
X0186800Y0062729D01*
X0186903Y0062461D01*
X0187012Y0062195D01*
X0187128Y0061931D01*
X0187250Y0061671D01*
X0187378Y0061414D01*
X0187513Y0061159D01*
X0187653Y0060908D01*
X0187800Y0060661D01*
X0187953Y0060417D01*
X0188112Y0060178D01*
X0188276Y0059942D01*
X0188446Y0059710D01*
X0188622Y0059482D01*
X0188804Y0059259D01*
X0188990Y0059040D01*
X0189182Y0058826D01*
X0189379Y0058616D01*
X0189581Y0058412D01*
X0189788Y0058212D01*
X0190000Y0058017D01*
X0190217Y0057828D01*
X0190438Y0057644D01*
X0190663Y0057466D01*
X0190893Y0057293D01*
X0191127Y0057125D01*
X0191365Y0056964D01*
X0191607Y0056808D01*
X0191852Y0056658D01*
X0192101Y0056514D01*
X0192354Y0056377D01*
X0192610Y0056245D01*
X0192869Y0056120D01*
X0193131Y0056001D01*
X0193395Y0055888D01*
X0193663Y0055782D01*
X0193933Y0055683D01*
X0194205Y0055590D01*
X0194479Y0055504D01*
X0194756Y0055424D01*
X0195034Y0055352D01*
X0195314Y0055286D01*
X0195595Y0055226D01*
X0195878Y0055174D01*
X0196162Y0055129D01*
X0196447Y0055090D01*
X0196733Y0055059D01*
X0197020Y0055035D01*
X0197307Y0055017D01*
X0197594Y0055007D01*
X0197882Y0055003D01*
X0207724Y0094373D02*
X0215598Y0094373D01*
X0215722Y0094375D01*
X0215845Y0094381D01*
X0215969Y0094390D01*
X0216091Y0094404D01*
X0216214Y0094421D01*
X0216336Y0094443D01*
X0216457Y0094468D01*
X0216577Y0094497D01*
X0216696Y0094529D01*
X0216815Y0094566D01*
X0216932Y0094606D01*
X0217047Y0094649D01*
X0217162Y0094697D01*
X0217274Y0094748D01*
X0217385Y0094802D01*
X0217495Y0094860D01*
X0217602Y0094921D01*
X0217708Y0094986D01*
X0217811Y0095054D01*
X0217912Y0095125D01*
X0218011Y0095199D01*
X0218108Y0095276D01*
X0218202Y0095357D01*
X0218293Y0095440D01*
X0218382Y0095526D01*
X0218468Y0095615D01*
X0218551Y0095706D01*
X0218632Y0095800D01*
X0218709Y0095897D01*
X0218783Y0095996D01*
X0218854Y0096097D01*
X0218922Y0096200D01*
X0218987Y0096306D01*
X0219048Y0096413D01*
X0219106Y0096523D01*
X0219160Y0096634D01*
X0219211Y0096746D01*
X0219259Y0096861D01*
X0219302Y0096976D01*
X0219342Y0097093D01*
X0219379Y0097212D01*
X0219411Y0097331D01*
X0219440Y0097451D01*
X0219465Y0097572D01*
X0219487Y0097694D01*
X0219504Y0097817D01*
X0219518Y0097939D01*
X0219527Y0098063D01*
X0219533Y0098186D01*
X0219535Y0098310D01*
X0219533Y0098434D01*
X0219527Y0098557D01*
X0219518Y0098681D01*
X0219504Y0098803D01*
X0219487Y0098926D01*
X0219465Y0099048D01*
X0219440Y0099169D01*
X0219411Y0099289D01*
X0219379Y0099408D01*
X0219342Y0099527D01*
X0219302Y0099644D01*
X0219259Y0099759D01*
X0219211Y0099874D01*
X0219160Y0099986D01*
X0219106Y0100097D01*
X0219048Y0100207D01*
X0218987Y0100314D01*
X0218922Y0100420D01*
X0218854Y0100523D01*
X0218783Y0100624D01*
X0218709Y0100723D01*
X0218632Y0100820D01*
X0218551Y0100914D01*
X0218468Y0101005D01*
X0218382Y0101094D01*
X0218293Y0101180D01*
X0218202Y0101263D01*
X0218108Y0101344D01*
X0218011Y0101421D01*
X0217912Y0101495D01*
X0217811Y0101566D01*
X0217708Y0101634D01*
X0217602Y0101699D01*
X0217495Y0101760D01*
X0217385Y0101818D01*
X0217274Y0101872D01*
X0217162Y0101923D01*
X0217047Y0101971D01*
X0216932Y0102014D01*
X0216815Y0102054D01*
X0216696Y0102091D01*
X0216577Y0102123D01*
X0216457Y0102152D01*
X0216336Y0102177D01*
X0216214Y0102199D01*
X0216091Y0102216D01*
X0215969Y0102230D01*
X0215845Y0102239D01*
X0215722Y0102245D01*
X0215598Y0102247D01*
X0207724Y0102247D01*
X0207600Y0102245D01*
X0207477Y0102239D01*
X0207353Y0102230D01*
X0207231Y0102216D01*
X0207108Y0102199D01*
X0206986Y0102177D01*
X0206865Y0102152D01*
X0206745Y0102123D01*
X0206626Y0102091D01*
X0206507Y0102054D01*
X0206390Y0102014D01*
X0206275Y0101971D01*
X0206160Y0101923D01*
X0206048Y0101872D01*
X0205937Y0101818D01*
X0205827Y0101760D01*
X0205720Y0101699D01*
X0205614Y0101634D01*
X0205511Y0101566D01*
X0205410Y0101495D01*
X0205311Y0101421D01*
X0205214Y0101344D01*
X0205120Y0101263D01*
X0205029Y0101180D01*
X0204940Y0101094D01*
X0204854Y0101005D01*
X0204771Y0100914D01*
X0204690Y0100820D01*
X0204613Y0100723D01*
X0204539Y0100624D01*
X0204468Y0100523D01*
X0204400Y0100420D01*
X0204335Y0100314D01*
X0204274Y0100207D01*
X0204216Y0100097D01*
X0204162Y0099986D01*
X0204111Y0099874D01*
X0204063Y0099759D01*
X0204020Y0099644D01*
X0203980Y0099527D01*
X0203943Y0099408D01*
X0203911Y0099289D01*
X0203882Y0099169D01*
X0203857Y0099048D01*
X0203835Y0098926D01*
X0203818Y0098803D01*
X0203804Y0098681D01*
X0203795Y0098557D01*
X0203789Y0098434D01*
X0203787Y0098310D01*
X0203789Y0098186D01*
X0203795Y0098063D01*
X0203804Y0097939D01*
X0203818Y0097817D01*
X0203835Y0097694D01*
X0203857Y0097572D01*
X0203882Y0097451D01*
X0203911Y0097331D01*
X0203943Y0097212D01*
X0203980Y0097093D01*
X0204020Y0096976D01*
X0204063Y0096861D01*
X0204111Y0096746D01*
X0204162Y0096634D01*
X0204216Y0096523D01*
X0204274Y0096413D01*
X0204335Y0096306D01*
X0204400Y0096200D01*
X0204468Y0096097D01*
X0204539Y0095996D01*
X0204613Y0095897D01*
X0204690Y0095800D01*
X0204771Y0095706D01*
X0204854Y0095615D01*
X0204940Y0095526D01*
X0205029Y0095440D01*
X0205120Y0095357D01*
X0205214Y0095276D01*
X0205311Y0095199D01*
X0205410Y0095125D01*
X0205511Y0095054D01*
X0205614Y0094986D01*
X0205720Y0094921D01*
X0205827Y0094860D01*
X0205937Y0094802D01*
X0206048Y0094748D01*
X0206160Y0094697D01*
X0206275Y0094649D01*
X0206390Y0094606D01*
X0206507Y0094566D01*
X0206626Y0094529D01*
X0206745Y0094497D01*
X0206865Y0094468D01*
X0206986Y0094443D01*
X0207108Y0094421D01*
X0207231Y0094404D01*
X0207353Y0094390D01*
X0207477Y0094381D01*
X0207600Y0094375D01*
X0207724Y0094373D01*
D11*
X0135087Y0035318D03*
X0107134Y0035318D03*
D12*
X0152606Y0066499D03*
X0152606Y0106499D03*
X0146858Y0114058D03*
X0126858Y0114058D03*
D13*
X0113551Y0114058D03*
X0073551Y0114058D03*
D14*
X0081740Y0027444D03*
X0160480Y0027444D03*
D15*
X0193945Y0029412D02*
X0205756Y0029412D01*
X0205908Y0029414D01*
X0206060Y0029420D01*
X0206212Y0029430D01*
X0206363Y0029443D01*
X0206514Y0029461D01*
X0206665Y0029482D01*
X0206815Y0029508D01*
X0206964Y0029537D01*
X0207113Y0029570D01*
X0207260Y0029607D01*
X0207407Y0029647D01*
X0207552Y0029692D01*
X0207696Y0029740D01*
X0207839Y0029792D01*
X0207981Y0029847D01*
X0208121Y0029906D01*
X0208260Y0029969D01*
X0208397Y0030035D01*
X0208532Y0030105D01*
X0208665Y0030178D01*
X0208796Y0030255D01*
X0208926Y0030335D01*
X0209053Y0030418D01*
X0209178Y0030504D01*
X0209301Y0030594D01*
X0209421Y0030687D01*
X0209539Y0030783D01*
X0209655Y0030882D01*
X0209768Y0030984D01*
X0209878Y0031088D01*
X0209986Y0031196D01*
X0210090Y0031306D01*
X0210192Y0031419D01*
X0210291Y0031535D01*
X0210387Y0031653D01*
X0210480Y0031773D01*
X0210570Y0031896D01*
X0210656Y0032021D01*
X0210739Y0032148D01*
X0210819Y0032278D01*
X0210896Y0032409D01*
X0210969Y0032542D01*
X0211039Y0032677D01*
X0211105Y0032814D01*
X0211168Y0032953D01*
X0211227Y0033093D01*
X0211282Y0033235D01*
X0211334Y0033378D01*
X0211382Y0033522D01*
X0211427Y0033667D01*
X0211467Y0033814D01*
X0211504Y0033961D01*
X0211537Y0034110D01*
X0211566Y0034259D01*
X0211592Y0034409D01*
X0211613Y0034560D01*
X0211631Y0034711D01*
X0211644Y0034862D01*
X0211654Y0035014D01*
X0211660Y0035166D01*
X0211662Y0035318D01*
X0211660Y0035470D01*
X0211654Y0035622D01*
X0211644Y0035774D01*
X0211631Y0035925D01*
X0211613Y0036076D01*
X0211592Y0036227D01*
X0211566Y0036377D01*
X0211537Y0036526D01*
X0211504Y0036675D01*
X0211467Y0036822D01*
X0211427Y0036969D01*
X0211382Y0037114D01*
X0211334Y0037258D01*
X0211282Y0037401D01*
X0211227Y0037543D01*
X0211168Y0037683D01*
X0211105Y0037822D01*
X0211039Y0037959D01*
X0210969Y0038094D01*
X0210896Y0038227D01*
X0210819Y0038358D01*
X0210739Y0038488D01*
X0210656Y0038615D01*
X0210570Y0038740D01*
X0210480Y0038863D01*
X0210387Y0038983D01*
X0210291Y0039101D01*
X0210192Y0039217D01*
X0210090Y0039330D01*
X0209986Y0039440D01*
X0209878Y0039548D01*
X0209768Y0039652D01*
X0209655Y0039754D01*
X0209539Y0039853D01*
X0209421Y0039949D01*
X0209301Y0040042D01*
X0209178Y0040132D01*
X0209053Y0040218D01*
X0208926Y0040301D01*
X0208796Y0040381D01*
X0208665Y0040458D01*
X0208532Y0040531D01*
X0208397Y0040601D01*
X0208260Y0040667D01*
X0208121Y0040730D01*
X0207981Y0040789D01*
X0207839Y0040844D01*
X0207696Y0040896D01*
X0207552Y0040944D01*
X0207407Y0040989D01*
X0207260Y0041029D01*
X0207113Y0041066D01*
X0206964Y0041099D01*
X0206815Y0041128D01*
X0206665Y0041154D01*
X0206514Y0041175D01*
X0206363Y0041193D01*
X0206212Y0041206D01*
X0206060Y0041216D01*
X0205908Y0041222D01*
X0205756Y0041224D01*
X0205756Y0041223D02*
X0193945Y0041223D01*
X0193945Y0041224D02*
X0193793Y0041222D01*
X0193641Y0041216D01*
X0193489Y0041206D01*
X0193338Y0041193D01*
X0193187Y0041175D01*
X0193036Y0041154D01*
X0192886Y0041128D01*
X0192737Y0041099D01*
X0192588Y0041066D01*
X0192441Y0041029D01*
X0192294Y0040989D01*
X0192149Y0040944D01*
X0192005Y0040896D01*
X0191862Y0040844D01*
X0191720Y0040789D01*
X0191580Y0040730D01*
X0191441Y0040667D01*
X0191304Y0040601D01*
X0191169Y0040531D01*
X0191036Y0040458D01*
X0190905Y0040381D01*
X0190775Y0040301D01*
X0190648Y0040218D01*
X0190523Y0040132D01*
X0190400Y0040042D01*
X0190280Y0039949D01*
X0190162Y0039853D01*
X0190046Y0039754D01*
X0189933Y0039652D01*
X0189823Y0039548D01*
X0189715Y0039440D01*
X0189611Y0039330D01*
X0189509Y0039217D01*
X0189410Y0039101D01*
X0189314Y0038983D01*
X0189221Y0038863D01*
X0189131Y0038740D01*
X0189045Y0038615D01*
X0188962Y0038488D01*
X0188882Y0038358D01*
X0188805Y0038227D01*
X0188732Y0038094D01*
X0188662Y0037959D01*
X0188596Y0037822D01*
X0188533Y0037683D01*
X0188474Y0037543D01*
X0188419Y0037401D01*
X0188367Y0037258D01*
X0188319Y0037114D01*
X0188274Y0036969D01*
X0188234Y0036822D01*
X0188197Y0036675D01*
X0188164Y0036526D01*
X0188135Y0036377D01*
X0188109Y0036227D01*
X0188088Y0036076D01*
X0188070Y0035925D01*
X0188057Y0035774D01*
X0188047Y0035622D01*
X0188041Y0035470D01*
X0188039Y0035318D01*
X0188041Y0035166D01*
X0188047Y0035014D01*
X0188057Y0034862D01*
X0188070Y0034711D01*
X0188088Y0034560D01*
X0188109Y0034409D01*
X0188135Y0034259D01*
X0188164Y0034110D01*
X0188197Y0033961D01*
X0188234Y0033814D01*
X0188274Y0033667D01*
X0188319Y0033522D01*
X0188367Y0033378D01*
X0188419Y0033235D01*
X0188474Y0033093D01*
X0188533Y0032953D01*
X0188596Y0032814D01*
X0188662Y0032677D01*
X0188732Y0032542D01*
X0188805Y0032409D01*
X0188882Y0032278D01*
X0188962Y0032148D01*
X0189045Y0032021D01*
X0189131Y0031896D01*
X0189221Y0031773D01*
X0189314Y0031653D01*
X0189410Y0031535D01*
X0189509Y0031419D01*
X0189611Y0031306D01*
X0189715Y0031196D01*
X0189823Y0031088D01*
X0189933Y0030984D01*
X0190046Y0030882D01*
X0190162Y0030783D01*
X0190280Y0030687D01*
X0190400Y0030594D01*
X0190523Y0030504D01*
X0190648Y0030418D01*
X0190775Y0030335D01*
X0190905Y0030255D01*
X0191036Y0030178D01*
X0191169Y0030105D01*
X0191304Y0030035D01*
X0191441Y0029969D01*
X0191580Y0029906D01*
X0191720Y0029847D01*
X0191862Y0029792D01*
X0192005Y0029740D01*
X0192149Y0029692D01*
X0192294Y0029647D01*
X0192441Y0029607D01*
X0192588Y0029570D01*
X0192737Y0029537D01*
X0192886Y0029508D01*
X0193036Y0029482D01*
X0193187Y0029461D01*
X0193338Y0029443D01*
X0193489Y0029430D01*
X0193641Y0029420D01*
X0193793Y0029414D01*
X0193945Y0029412D01*
X0205756Y0092404D02*
X0217567Y0092404D01*
X0217719Y0092406D01*
X0217871Y0092412D01*
X0218023Y0092422D01*
X0218174Y0092435D01*
X0218325Y0092453D01*
X0218476Y0092474D01*
X0218626Y0092500D01*
X0218775Y0092529D01*
X0218924Y0092562D01*
X0219071Y0092599D01*
X0219218Y0092639D01*
X0219363Y0092684D01*
X0219507Y0092732D01*
X0219650Y0092784D01*
X0219792Y0092839D01*
X0219932Y0092898D01*
X0220071Y0092961D01*
X0220208Y0093027D01*
X0220343Y0093097D01*
X0220476Y0093170D01*
X0220607Y0093247D01*
X0220737Y0093327D01*
X0220864Y0093410D01*
X0220989Y0093496D01*
X0221112Y0093586D01*
X0221232Y0093679D01*
X0221350Y0093775D01*
X0221466Y0093874D01*
X0221579Y0093976D01*
X0221689Y0094080D01*
X0221797Y0094188D01*
X0221901Y0094298D01*
X0222003Y0094411D01*
X0222102Y0094527D01*
X0222198Y0094645D01*
X0222291Y0094765D01*
X0222381Y0094888D01*
X0222467Y0095013D01*
X0222550Y0095140D01*
X0222630Y0095270D01*
X0222707Y0095401D01*
X0222780Y0095534D01*
X0222850Y0095669D01*
X0222916Y0095806D01*
X0222979Y0095945D01*
X0223038Y0096085D01*
X0223093Y0096227D01*
X0223145Y0096370D01*
X0223193Y0096514D01*
X0223238Y0096659D01*
X0223278Y0096806D01*
X0223315Y0096953D01*
X0223348Y0097102D01*
X0223377Y0097251D01*
X0223403Y0097401D01*
X0223424Y0097552D01*
X0223442Y0097703D01*
X0223455Y0097854D01*
X0223465Y0098006D01*
X0223471Y0098158D01*
X0223473Y0098310D01*
X0223471Y0098462D01*
X0223465Y0098614D01*
X0223455Y0098766D01*
X0223442Y0098917D01*
X0223424Y0099068D01*
X0223403Y0099219D01*
X0223377Y0099369D01*
X0223348Y0099518D01*
X0223315Y0099667D01*
X0223278Y0099814D01*
X0223238Y0099961D01*
X0223193Y0100106D01*
X0223145Y0100250D01*
X0223093Y0100393D01*
X0223038Y0100535D01*
X0222979Y0100675D01*
X0222916Y0100814D01*
X0222850Y0100951D01*
X0222780Y0101086D01*
X0222707Y0101219D01*
X0222630Y0101350D01*
X0222550Y0101480D01*
X0222467Y0101607D01*
X0222381Y0101732D01*
X0222291Y0101855D01*
X0222198Y0101975D01*
X0222102Y0102093D01*
X0222003Y0102209D01*
X0221901Y0102322D01*
X0221797Y0102432D01*
X0221689Y0102540D01*
X0221579Y0102644D01*
X0221466Y0102746D01*
X0221350Y0102845D01*
X0221232Y0102941D01*
X0221112Y0103034D01*
X0220989Y0103124D01*
X0220864Y0103210D01*
X0220737Y0103293D01*
X0220607Y0103373D01*
X0220476Y0103450D01*
X0220343Y0103523D01*
X0220208Y0103593D01*
X0220071Y0103659D01*
X0219932Y0103722D01*
X0219792Y0103781D01*
X0219650Y0103836D01*
X0219507Y0103888D01*
X0219363Y0103936D01*
X0219218Y0103981D01*
X0219071Y0104021D01*
X0218924Y0104058D01*
X0218775Y0104091D01*
X0218626Y0104120D01*
X0218476Y0104146D01*
X0218325Y0104167D01*
X0218174Y0104185D01*
X0218023Y0104198D01*
X0217871Y0104208D01*
X0217719Y0104214D01*
X0217567Y0104216D01*
X0217567Y0104215D02*
X0205756Y0104215D01*
X0205756Y0104216D02*
X0205604Y0104214D01*
X0205452Y0104208D01*
X0205300Y0104198D01*
X0205149Y0104185D01*
X0204998Y0104167D01*
X0204847Y0104146D01*
X0204697Y0104120D01*
X0204548Y0104091D01*
X0204399Y0104058D01*
X0204252Y0104021D01*
X0204105Y0103981D01*
X0203960Y0103936D01*
X0203816Y0103888D01*
X0203673Y0103836D01*
X0203531Y0103781D01*
X0203391Y0103722D01*
X0203252Y0103659D01*
X0203115Y0103593D01*
X0202980Y0103523D01*
X0202847Y0103450D01*
X0202716Y0103373D01*
X0202586Y0103293D01*
X0202459Y0103210D01*
X0202334Y0103124D01*
X0202211Y0103034D01*
X0202091Y0102941D01*
X0201973Y0102845D01*
X0201857Y0102746D01*
X0201744Y0102644D01*
X0201634Y0102540D01*
X0201526Y0102432D01*
X0201422Y0102322D01*
X0201320Y0102209D01*
X0201221Y0102093D01*
X0201125Y0101975D01*
X0201032Y0101855D01*
X0200942Y0101732D01*
X0200856Y0101607D01*
X0200773Y0101480D01*
X0200693Y0101350D01*
X0200616Y0101219D01*
X0200543Y0101086D01*
X0200473Y0100951D01*
X0200407Y0100814D01*
X0200344Y0100675D01*
X0200285Y0100535D01*
X0200230Y0100393D01*
X0200178Y0100250D01*
X0200130Y0100106D01*
X0200085Y0099961D01*
X0200045Y0099814D01*
X0200008Y0099667D01*
X0199975Y0099518D01*
X0199946Y0099369D01*
X0199920Y0099219D01*
X0199899Y0099068D01*
X0199881Y0098917D01*
X0199868Y0098766D01*
X0199858Y0098614D01*
X0199852Y0098462D01*
X0199850Y0098310D01*
X0199852Y0098158D01*
X0199858Y0098006D01*
X0199868Y0097854D01*
X0199881Y0097703D01*
X0199899Y0097552D01*
X0199920Y0097401D01*
X0199946Y0097251D01*
X0199975Y0097102D01*
X0200008Y0096953D01*
X0200045Y0096806D01*
X0200085Y0096659D01*
X0200130Y0096514D01*
X0200178Y0096370D01*
X0200230Y0096227D01*
X0200285Y0096085D01*
X0200344Y0095945D01*
X0200407Y0095806D01*
X0200473Y0095669D01*
X0200543Y0095534D01*
X0200616Y0095401D01*
X0200693Y0095270D01*
X0200773Y0095140D01*
X0200856Y0095013D01*
X0200942Y0094888D01*
X0201032Y0094765D01*
X0201125Y0094645D01*
X0201221Y0094527D01*
X0201320Y0094411D01*
X0201422Y0094298D01*
X0201526Y0094188D01*
X0201634Y0094080D01*
X0201744Y0093976D01*
X0201857Y0093874D01*
X0201973Y0093775D01*
X0202091Y0093679D01*
X0202211Y0093586D01*
X0202334Y0093496D01*
X0202459Y0093410D01*
X0202586Y0093327D01*
X0202716Y0093247D01*
X0202847Y0093170D01*
X0202980Y0093097D01*
X0203115Y0093027D01*
X0203252Y0092961D01*
X0203391Y0092898D01*
X0203531Y0092839D01*
X0203673Y0092784D01*
X0203816Y0092732D01*
X0203960Y0092684D01*
X0204105Y0092639D01*
X0204252Y0092599D01*
X0204399Y0092562D01*
X0204548Y0092529D01*
X0204697Y0092500D01*
X0204847Y0092474D01*
X0204998Y0092453D01*
X0205149Y0092435D01*
X0205300Y0092422D01*
X0205452Y0092412D01*
X0205604Y0092406D01*
X0205756Y0092404D01*
X0048276Y0092404D02*
X0036465Y0092404D01*
X0036313Y0092406D01*
X0036161Y0092412D01*
X0036009Y0092422D01*
X0035858Y0092435D01*
X0035707Y0092453D01*
X0035556Y0092474D01*
X0035406Y0092500D01*
X0035257Y0092529D01*
X0035108Y0092562D01*
X0034961Y0092599D01*
X0034814Y0092639D01*
X0034669Y0092684D01*
X0034525Y0092732D01*
X0034382Y0092784D01*
X0034240Y0092839D01*
X0034100Y0092898D01*
X0033961Y0092961D01*
X0033824Y0093027D01*
X0033689Y0093097D01*
X0033556Y0093170D01*
X0033425Y0093247D01*
X0033295Y0093327D01*
X0033168Y0093410D01*
X0033043Y0093496D01*
X0032920Y0093586D01*
X0032800Y0093679D01*
X0032682Y0093775D01*
X0032566Y0093874D01*
X0032453Y0093976D01*
X0032343Y0094080D01*
X0032235Y0094188D01*
X0032131Y0094298D01*
X0032029Y0094411D01*
X0031930Y0094527D01*
X0031834Y0094645D01*
X0031741Y0094765D01*
X0031651Y0094888D01*
X0031565Y0095013D01*
X0031482Y0095140D01*
X0031402Y0095270D01*
X0031325Y0095401D01*
X0031252Y0095534D01*
X0031182Y0095669D01*
X0031116Y0095806D01*
X0031053Y0095945D01*
X0030994Y0096085D01*
X0030939Y0096227D01*
X0030887Y0096370D01*
X0030839Y0096514D01*
X0030794Y0096659D01*
X0030754Y0096806D01*
X0030717Y0096953D01*
X0030684Y0097102D01*
X0030655Y0097251D01*
X0030629Y0097401D01*
X0030608Y0097552D01*
X0030590Y0097703D01*
X0030577Y0097854D01*
X0030567Y0098006D01*
X0030561Y0098158D01*
X0030559Y0098310D01*
X0030561Y0098462D01*
X0030567Y0098614D01*
X0030577Y0098766D01*
X0030590Y0098917D01*
X0030608Y0099068D01*
X0030629Y0099219D01*
X0030655Y0099369D01*
X0030684Y0099518D01*
X0030717Y0099667D01*
X0030754Y0099814D01*
X0030794Y0099961D01*
X0030839Y0100106D01*
X0030887Y0100250D01*
X0030939Y0100393D01*
X0030994Y0100535D01*
X0031053Y0100675D01*
X0031116Y0100814D01*
X0031182Y0100951D01*
X0031252Y0101086D01*
X0031325Y0101219D01*
X0031402Y0101350D01*
X0031482Y0101480D01*
X0031565Y0101607D01*
X0031651Y0101732D01*
X0031741Y0101855D01*
X0031834Y0101975D01*
X0031930Y0102093D01*
X0032029Y0102209D01*
X0032131Y0102322D01*
X0032235Y0102432D01*
X0032343Y0102540D01*
X0032453Y0102644D01*
X0032566Y0102746D01*
X0032682Y0102845D01*
X0032800Y0102941D01*
X0032920Y0103034D01*
X0033043Y0103124D01*
X0033168Y0103210D01*
X0033295Y0103293D01*
X0033425Y0103373D01*
X0033556Y0103450D01*
X0033689Y0103523D01*
X0033824Y0103593D01*
X0033961Y0103659D01*
X0034100Y0103722D01*
X0034240Y0103781D01*
X0034382Y0103836D01*
X0034525Y0103888D01*
X0034669Y0103936D01*
X0034814Y0103981D01*
X0034961Y0104021D01*
X0035108Y0104058D01*
X0035257Y0104091D01*
X0035406Y0104120D01*
X0035556Y0104146D01*
X0035707Y0104167D01*
X0035858Y0104185D01*
X0036009Y0104198D01*
X0036161Y0104208D01*
X0036313Y0104214D01*
X0036465Y0104216D01*
X0036465Y0104215D02*
X0048276Y0104215D01*
X0048276Y0104216D02*
X0048428Y0104214D01*
X0048580Y0104208D01*
X0048732Y0104198D01*
X0048883Y0104185D01*
X0049034Y0104167D01*
X0049185Y0104146D01*
X0049335Y0104120D01*
X0049484Y0104091D01*
X0049633Y0104058D01*
X0049780Y0104021D01*
X0049927Y0103981D01*
X0050072Y0103936D01*
X0050216Y0103888D01*
X0050359Y0103836D01*
X0050501Y0103781D01*
X0050641Y0103722D01*
X0050780Y0103659D01*
X0050917Y0103593D01*
X0051052Y0103523D01*
X0051185Y0103450D01*
X0051316Y0103373D01*
X0051446Y0103293D01*
X0051573Y0103210D01*
X0051698Y0103124D01*
X0051821Y0103034D01*
X0051941Y0102941D01*
X0052059Y0102845D01*
X0052175Y0102746D01*
X0052288Y0102644D01*
X0052398Y0102540D01*
X0052506Y0102432D01*
X0052610Y0102322D01*
X0052712Y0102209D01*
X0052811Y0102093D01*
X0052907Y0101975D01*
X0053000Y0101855D01*
X0053090Y0101732D01*
X0053176Y0101607D01*
X0053259Y0101480D01*
X0053339Y0101350D01*
X0053416Y0101219D01*
X0053489Y0101086D01*
X0053559Y0100951D01*
X0053625Y0100814D01*
X0053688Y0100675D01*
X0053747Y0100535D01*
X0053802Y0100393D01*
X0053854Y0100250D01*
X0053902Y0100106D01*
X0053947Y0099961D01*
X0053987Y0099814D01*
X0054024Y0099667D01*
X0054057Y0099518D01*
X0054086Y0099369D01*
X0054112Y0099219D01*
X0054133Y0099068D01*
X0054151Y0098917D01*
X0054164Y0098766D01*
X0054174Y0098614D01*
X0054180Y0098462D01*
X0054182Y0098310D01*
X0054180Y0098158D01*
X0054174Y0098006D01*
X0054164Y0097854D01*
X0054151Y0097703D01*
X0054133Y0097552D01*
X0054112Y0097401D01*
X0054086Y0097251D01*
X0054057Y0097102D01*
X0054024Y0096953D01*
X0053987Y0096806D01*
X0053947Y0096659D01*
X0053902Y0096514D01*
X0053854Y0096370D01*
X0053802Y0096227D01*
X0053747Y0096085D01*
X0053688Y0095945D01*
X0053625Y0095806D01*
X0053559Y0095669D01*
X0053489Y0095534D01*
X0053416Y0095401D01*
X0053339Y0095270D01*
X0053259Y0095140D01*
X0053176Y0095013D01*
X0053090Y0094888D01*
X0053000Y0094765D01*
X0052907Y0094645D01*
X0052811Y0094527D01*
X0052712Y0094411D01*
X0052610Y0094298D01*
X0052506Y0094188D01*
X0052398Y0094080D01*
X0052288Y0093976D01*
X0052175Y0093874D01*
X0052059Y0093775D01*
X0051941Y0093679D01*
X0051821Y0093586D01*
X0051698Y0093496D01*
X0051573Y0093410D01*
X0051446Y0093327D01*
X0051316Y0093247D01*
X0051185Y0093170D01*
X0051052Y0093097D01*
X0050917Y0093027D01*
X0050780Y0092961D01*
X0050641Y0092898D01*
X0050501Y0092839D01*
X0050359Y0092784D01*
X0050216Y0092732D01*
X0050072Y0092684D01*
X0049927Y0092639D01*
X0049780Y0092599D01*
X0049633Y0092562D01*
X0049484Y0092529D01*
X0049335Y0092500D01*
X0049185Y0092474D01*
X0049034Y0092453D01*
X0048883Y0092435D01*
X0048732Y0092422D01*
X0048580Y0092412D01*
X0048428Y0092406D01*
X0048276Y0092404D01*
X0036465Y0041223D02*
X0024654Y0041223D01*
X0024654Y0041224D02*
X0024502Y0041222D01*
X0024350Y0041216D01*
X0024198Y0041206D01*
X0024047Y0041193D01*
X0023896Y0041175D01*
X0023745Y0041154D01*
X0023595Y0041128D01*
X0023446Y0041099D01*
X0023297Y0041066D01*
X0023150Y0041029D01*
X0023003Y0040989D01*
X0022858Y0040944D01*
X0022714Y0040896D01*
X0022571Y0040844D01*
X0022429Y0040789D01*
X0022289Y0040730D01*
X0022150Y0040667D01*
X0022013Y0040601D01*
X0021878Y0040531D01*
X0021745Y0040458D01*
X0021614Y0040381D01*
X0021484Y0040301D01*
X0021357Y0040218D01*
X0021232Y0040132D01*
X0021109Y0040042D01*
X0020989Y0039949D01*
X0020871Y0039853D01*
X0020755Y0039754D01*
X0020642Y0039652D01*
X0020532Y0039548D01*
X0020424Y0039440D01*
X0020320Y0039330D01*
X0020218Y0039217D01*
X0020119Y0039101D01*
X0020023Y0038983D01*
X0019930Y0038863D01*
X0019840Y0038740D01*
X0019754Y0038615D01*
X0019671Y0038488D01*
X0019591Y0038358D01*
X0019514Y0038227D01*
X0019441Y0038094D01*
X0019371Y0037959D01*
X0019305Y0037822D01*
X0019242Y0037683D01*
X0019183Y0037543D01*
X0019128Y0037401D01*
X0019076Y0037258D01*
X0019028Y0037114D01*
X0018983Y0036969D01*
X0018943Y0036822D01*
X0018906Y0036675D01*
X0018873Y0036526D01*
X0018844Y0036377D01*
X0018818Y0036227D01*
X0018797Y0036076D01*
X0018779Y0035925D01*
X0018766Y0035774D01*
X0018756Y0035622D01*
X0018750Y0035470D01*
X0018748Y0035318D01*
X0018750Y0035166D01*
X0018756Y0035014D01*
X0018766Y0034862D01*
X0018779Y0034711D01*
X0018797Y0034560D01*
X0018818Y0034409D01*
X0018844Y0034259D01*
X0018873Y0034110D01*
X0018906Y0033961D01*
X0018943Y0033814D01*
X0018983Y0033667D01*
X0019028Y0033522D01*
X0019076Y0033378D01*
X0019128Y0033235D01*
X0019183Y0033093D01*
X0019242Y0032953D01*
X0019305Y0032814D01*
X0019371Y0032677D01*
X0019441Y0032542D01*
X0019514Y0032409D01*
X0019591Y0032278D01*
X0019671Y0032148D01*
X0019754Y0032021D01*
X0019840Y0031896D01*
X0019930Y0031773D01*
X0020023Y0031653D01*
X0020119Y0031535D01*
X0020218Y0031419D01*
X0020320Y0031306D01*
X0020424Y0031196D01*
X0020532Y0031088D01*
X0020642Y0030984D01*
X0020755Y0030882D01*
X0020871Y0030783D01*
X0020989Y0030687D01*
X0021109Y0030594D01*
X0021232Y0030504D01*
X0021357Y0030418D01*
X0021484Y0030335D01*
X0021614Y0030255D01*
X0021745Y0030178D01*
X0021878Y0030105D01*
X0022013Y0030035D01*
X0022150Y0029969D01*
X0022289Y0029906D01*
X0022429Y0029847D01*
X0022571Y0029792D01*
X0022714Y0029740D01*
X0022858Y0029692D01*
X0023003Y0029647D01*
X0023150Y0029607D01*
X0023297Y0029570D01*
X0023446Y0029537D01*
X0023595Y0029508D01*
X0023745Y0029482D01*
X0023896Y0029461D01*
X0024047Y0029443D01*
X0024198Y0029430D01*
X0024350Y0029420D01*
X0024502Y0029414D01*
X0024654Y0029412D01*
X0036465Y0029412D01*
X0036617Y0029414D01*
X0036769Y0029420D01*
X0036921Y0029430D01*
X0037072Y0029443D01*
X0037223Y0029461D01*
X0037374Y0029482D01*
X0037524Y0029508D01*
X0037673Y0029537D01*
X0037822Y0029570D01*
X0037969Y0029607D01*
X0038116Y0029647D01*
X0038261Y0029692D01*
X0038405Y0029740D01*
X0038548Y0029792D01*
X0038690Y0029847D01*
X0038830Y0029906D01*
X0038969Y0029969D01*
X0039106Y0030035D01*
X0039241Y0030105D01*
X0039374Y0030178D01*
X0039505Y0030255D01*
X0039635Y0030335D01*
X0039762Y0030418D01*
X0039887Y0030504D01*
X0040010Y0030594D01*
X0040130Y0030687D01*
X0040248Y0030783D01*
X0040364Y0030882D01*
X0040477Y0030984D01*
X0040587Y0031088D01*
X0040695Y0031196D01*
X0040799Y0031306D01*
X0040901Y0031419D01*
X0041000Y0031535D01*
X0041096Y0031653D01*
X0041189Y0031773D01*
X0041279Y0031896D01*
X0041365Y0032021D01*
X0041448Y0032148D01*
X0041528Y0032278D01*
X0041605Y0032409D01*
X0041678Y0032542D01*
X0041748Y0032677D01*
X0041814Y0032814D01*
X0041877Y0032953D01*
X0041936Y0033093D01*
X0041991Y0033235D01*
X0042043Y0033378D01*
X0042091Y0033522D01*
X0042136Y0033667D01*
X0042176Y0033814D01*
X0042213Y0033961D01*
X0042246Y0034110D01*
X0042275Y0034259D01*
X0042301Y0034409D01*
X0042322Y0034560D01*
X0042340Y0034711D01*
X0042353Y0034862D01*
X0042363Y0035014D01*
X0042369Y0035166D01*
X0042371Y0035318D01*
X0042369Y0035470D01*
X0042363Y0035622D01*
X0042353Y0035774D01*
X0042340Y0035925D01*
X0042322Y0036076D01*
X0042301Y0036227D01*
X0042275Y0036377D01*
X0042246Y0036526D01*
X0042213Y0036675D01*
X0042176Y0036822D01*
X0042136Y0036969D01*
X0042091Y0037114D01*
X0042043Y0037258D01*
X0041991Y0037401D01*
X0041936Y0037543D01*
X0041877Y0037683D01*
X0041814Y0037822D01*
X0041748Y0037959D01*
X0041678Y0038094D01*
X0041605Y0038227D01*
X0041528Y0038358D01*
X0041448Y0038488D01*
X0041365Y0038615D01*
X0041279Y0038740D01*
X0041189Y0038863D01*
X0041096Y0038983D01*
X0041000Y0039101D01*
X0040901Y0039217D01*
X0040799Y0039330D01*
X0040695Y0039440D01*
X0040587Y0039548D01*
X0040477Y0039652D01*
X0040364Y0039754D01*
X0040248Y0039853D01*
X0040130Y0039949D01*
X0040010Y0040042D01*
X0039887Y0040132D01*
X0039762Y0040218D01*
X0039635Y0040301D01*
X0039505Y0040381D01*
X0039374Y0040458D01*
X0039241Y0040531D01*
X0039106Y0040601D01*
X0038969Y0040667D01*
X0038830Y0040730D01*
X0038690Y0040789D01*
X0038548Y0040844D01*
X0038405Y0040896D01*
X0038261Y0040944D01*
X0038116Y0040989D01*
X0037969Y0041029D01*
X0037822Y0041066D01*
X0037673Y0041099D01*
X0037524Y0041128D01*
X0037374Y0041154D01*
X0037223Y0041175D01*
X0037072Y0041193D01*
X0036921Y0041206D01*
X0036769Y0041216D01*
X0036617Y0041222D01*
X0036465Y0041224D01*
D16*
X0036465Y0035318D02*
X0024654Y0035318D01*
X0036465Y0098310D02*
X0048276Y0098310D01*
X0193945Y0035318D02*
X0205756Y0035318D01*
X0205756Y0098310D02*
X0217567Y0098310D01*
D17*
X0169095Y0096499D02*
X0162495Y0096499D01*
X0162495Y0086499D02*
X0169095Y0086499D01*
X0169095Y0076499D02*
X0162495Y0076499D01*
D18*
X0224409Y0028507D02*
X0230409Y0028507D01*
X0230409Y0018507D02*
X0224409Y0018507D01*
D19*
X0221747Y0022491D02*
X0220425Y0021169D01*
X0219709Y0019441D01*
X0219709Y0017572D01*
X0220425Y0015844D01*
X0221747Y0014522D01*
X0223475Y0013807D01*
X0231344Y0013807D01*
X0233072Y0014522D01*
X0234394Y0015844D01*
X0234720Y0016633D01*
X0234720Y0012259D01*
X0007500Y0012259D01*
X0007500Y0121369D01*
X0234720Y0121369D01*
X0234720Y0030380D01*
X0234394Y0031169D01*
X0233072Y0032491D01*
X0231344Y0033207D01*
X0223475Y0033207D01*
X0221747Y0032491D01*
X0220425Y0031169D01*
X0219709Y0029441D01*
X0219709Y0027572D01*
X0220425Y0025844D01*
X0221747Y0024522D01*
X0223475Y0023807D01*
X0231344Y0023807D01*
X0233072Y0024522D01*
X0234394Y0025844D01*
X0234720Y0026633D01*
X0234720Y0020380D01*
X0234394Y0021169D01*
X0233072Y0022491D01*
X0231344Y0023207D01*
X0223475Y0023207D01*
X0221747Y0022491D01*
X0222339Y0022736D02*
X0168784Y0022736D01*
X0169680Y0023633D02*
X0164291Y0018244D01*
X0156670Y0018244D01*
X0151280Y0023633D01*
X0151280Y0031254D01*
X0156670Y0036644D01*
X0164291Y0036644D01*
X0169680Y0031254D01*
X0169680Y0023633D01*
X0169680Y0023735D02*
X0234720Y0023735D01*
X0234720Y0024733D02*
X0233283Y0024733D01*
X0234281Y0025732D02*
X0234720Y0025732D01*
X0234720Y0022736D02*
X0232480Y0022736D01*
X0233825Y0021738D02*
X0234720Y0021738D01*
X0234720Y0020739D02*
X0234572Y0020739D01*
X0234720Y0015747D02*
X0234296Y0015747D01*
X0234720Y0014748D02*
X0233298Y0014748D01*
X0234720Y0013750D02*
X0007500Y0013750D01*
X0007500Y0014748D02*
X0221521Y0014748D01*
X0220523Y0015747D02*
X0007500Y0015747D01*
X0007500Y0016745D02*
X0220052Y0016745D01*
X0219709Y0017744D02*
X0007500Y0017744D01*
X0007500Y0018742D02*
X0077714Y0018742D01*
X0078012Y0018444D02*
X0081240Y0018444D01*
X0081240Y0026944D01*
X0072740Y0026944D01*
X0072740Y0023716D01*
X0078012Y0018444D01*
X0076715Y0019741D02*
X0007500Y0019741D01*
X0007500Y0020739D02*
X0075717Y0020739D01*
X0074718Y0021738D02*
X0007500Y0021738D01*
X0007500Y0022736D02*
X0073720Y0022736D01*
X0072740Y0023735D02*
X0007500Y0023735D01*
X0007500Y0024733D02*
X0072740Y0024733D01*
X0072740Y0025732D02*
X0007500Y0025732D01*
X0007500Y0026730D02*
X0072740Y0026730D01*
X0072740Y0027944D02*
X0081240Y0027944D01*
X0081240Y0036444D01*
X0078012Y0036444D01*
X0072740Y0031171D01*
X0072740Y0027944D01*
X0072740Y0028727D02*
X0040428Y0028727D01*
X0040773Y0028870D02*
X0042912Y0031009D01*
X0044070Y0033805D01*
X0044070Y0036830D01*
X0042912Y0039626D01*
X0040773Y0041765D01*
X0039420Y0042326D01*
X0039275Y0042470D01*
X0039275Y0042470D01*
X0036174Y0043755D01*
X0035391Y0043755D01*
X0024944Y0043755D01*
X0021843Y0042470D01*
X0021843Y0042470D01*
X0021698Y0042326D01*
X0020345Y0041765D01*
X0018206Y0039626D01*
X0017048Y0036830D01*
X0017048Y0033805D01*
X0018206Y0031009D01*
X0020345Y0028870D01*
X0021698Y0028309D01*
X0021843Y0028165D01*
X0024944Y0026881D01*
X0036174Y0026881D01*
X0039275Y0028165D01*
X0039275Y0028165D01*
X0039420Y0028309D01*
X0040773Y0028870D01*
X0041629Y0029726D02*
X0072740Y0029726D01*
X0072740Y0030724D02*
X0042627Y0030724D01*
X0043208Y0031723D02*
X0073291Y0031723D01*
X0074290Y0032721D02*
X0043621Y0032721D01*
X0044035Y0033720D02*
X0075288Y0033720D01*
X0076287Y0034718D02*
X0044070Y0034718D01*
X0044070Y0035717D02*
X0077286Y0035717D01*
X0081240Y0035717D02*
X0082240Y0035717D01*
X0082240Y0036444D02*
X0085468Y0036444D01*
X0090740Y0031171D01*
X0090740Y0027944D01*
X0082240Y0027944D01*
X0081240Y0027944D01*
X0081240Y0026944D01*
X0082240Y0026944D01*
X0082240Y0027944D01*
X0082240Y0036444D01*
X0082240Y0034718D02*
X0081240Y0034718D01*
X0081240Y0033720D02*
X0082240Y0033720D01*
X0082240Y0032721D02*
X0081240Y0032721D01*
X0081240Y0031723D02*
X0082240Y0031723D01*
X0082240Y0030724D02*
X0081240Y0030724D01*
X0081240Y0029726D02*
X0082240Y0029726D01*
X0082240Y0028727D02*
X0081240Y0028727D01*
X0081240Y0027729D02*
X0038222Y0027729D01*
X0044070Y0036715D02*
X0095152Y0036715D01*
X0095223Y0037341D02*
X0095071Y0035995D01*
X0095071Y0035818D01*
X0106634Y0035818D01*
X0106634Y0047381D01*
X0106456Y0047381D01*
X0105110Y0047229D01*
X0103789Y0046927D01*
X0102510Y0046480D01*
X0101290Y0045892D01*
X0100142Y0045171D01*
X0099083Y0044326D01*
X0098125Y0043368D01*
X0097280Y0042309D01*
X0096559Y0041162D01*
X0095972Y0039941D01*
X0095524Y0038662D01*
X0095223Y0037341D01*
X0095308Y0037714D02*
X0043704Y0037714D01*
X0043291Y0038712D02*
X0095542Y0038712D01*
X0095891Y0039711D02*
X0042827Y0039711D01*
X0041829Y0040709D02*
X0096342Y0040709D01*
X0096903Y0041708D02*
X0040830Y0041708D01*
X0038705Y0042706D02*
X0097597Y0042706D01*
X0098462Y0043705D02*
X0036294Y0043705D01*
X0026245Y0050503D02*
X0046684Y0050503D01*
X0051184Y0051824D01*
X0051184Y0051824D01*
X0055130Y0054360D01*
X0058201Y0057905D01*
X0060150Y0062171D01*
X0060817Y0066814D01*
X0060150Y0071456D01*
X0060150Y0071456D01*
X0058201Y0075723D01*
X0055130Y0079267D01*
X0055130Y0079267D01*
X0051184Y0081803D01*
X0046684Y0083125D01*
X0045234Y0083125D01*
X0026245Y0083125D01*
X0021745Y0081803D01*
X0017799Y0079267D01*
X0014728Y0075723D01*
X0014728Y0075723D01*
X0012779Y0071456D01*
X0012112Y0066814D01*
X0012112Y0066814D01*
X0012779Y0062171D01*
X0014728Y0057905D01*
X0014728Y0057905D01*
X0017799Y0054360D01*
X0017799Y0054360D01*
X0017799Y0054360D01*
X0021745Y0051824D01*
X0026245Y0050503D01*
X0025592Y0050695D02*
X0007500Y0050695D01*
X0007500Y0051693D02*
X0022191Y0051693D01*
X0020395Y0052692D02*
X0007500Y0052692D01*
X0007500Y0053690D02*
X0018841Y0053690D01*
X0017514Y0054689D02*
X0007500Y0054689D01*
X0007500Y0055687D02*
X0016649Y0055687D01*
X0015784Y0056686D02*
X0007500Y0056686D01*
X0007500Y0057684D02*
X0014919Y0057684D01*
X0014372Y0058683D02*
X0007500Y0058683D01*
X0007500Y0059681D02*
X0013916Y0059681D01*
X0013460Y0060680D02*
X0007500Y0060680D01*
X0007500Y0061678D02*
X0013004Y0061678D01*
X0012779Y0062171D02*
X0012779Y0062171D01*
X0012707Y0062677D02*
X0007500Y0062677D01*
X0007500Y0063675D02*
X0012563Y0063675D01*
X0012419Y0064674D02*
X0007500Y0064674D01*
X0007500Y0065672D02*
X0012276Y0065672D01*
X0012132Y0066671D02*
X0007500Y0066671D01*
X0007500Y0067669D02*
X0012235Y0067669D01*
X0012378Y0068668D02*
X0007500Y0068668D01*
X0007500Y0069666D02*
X0012522Y0069666D01*
X0012666Y0070665D02*
X0007500Y0070665D01*
X0007500Y0071663D02*
X0012874Y0071663D01*
X0012779Y0071456D02*
X0012779Y0071456D01*
X0013330Y0072662D02*
X0007500Y0072662D01*
X0007500Y0073660D02*
X0013786Y0073660D01*
X0014242Y0074659D02*
X0007500Y0074659D01*
X0007500Y0075657D02*
X0014698Y0075657D01*
X0015536Y0076656D02*
X0007500Y0076656D01*
X0007500Y0077654D02*
X0016401Y0077654D01*
X0017267Y0078653D02*
X0007500Y0078653D01*
X0007500Y0079651D02*
X0018397Y0079651D01*
X0017799Y0079267D02*
X0017799Y0079267D01*
X0019950Y0080650D02*
X0007500Y0080650D01*
X0007500Y0081648D02*
X0021504Y0081648D01*
X0021745Y0081803D02*
X0021745Y0081803D01*
X0024618Y0082647D02*
X0007500Y0082647D01*
X0007500Y0083645D02*
X0078718Y0083645D01*
X0078595Y0084103D02*
X0079836Y0079474D01*
X0082232Y0075324D01*
X0085620Y0071935D01*
X0089770Y0069539D01*
X0094399Y0068299D01*
X0099191Y0068299D01*
X0103820Y0069539D01*
X0107970Y0071935D01*
X0111359Y0075324D01*
X0113755Y0079474D01*
X0114995Y0084103D01*
X0114995Y0088895D01*
X0113755Y0093524D01*
X0112587Y0095547D01*
X0134095Y0095547D01*
X0134095Y0085166D01*
X0135115Y0082703D01*
X0137000Y0080819D01*
X0139463Y0079799D01*
X0158724Y0079799D01*
X0158256Y0079331D01*
X0157495Y0077493D01*
X0157495Y0075504D01*
X0158256Y0073666D01*
X0159663Y0072260D01*
X0161501Y0071499D01*
X0170090Y0071499D01*
X0171028Y0071887D01*
X0171028Y0034283D01*
X0171820Y0032372D01*
X0173283Y0030909D01*
X0175194Y0030118D01*
X0188389Y0030118D01*
X0189637Y0028870D01*
X0190990Y0028309D01*
X0191134Y0028165D01*
X0191134Y0028165D01*
X0194235Y0026881D01*
X0195018Y0026881D01*
X0205466Y0026881D01*
X0208567Y0028165D01*
X0208711Y0028309D01*
X0210064Y0028870D01*
X0212204Y0031009D01*
X0213361Y0033805D01*
X0213361Y0036830D01*
X0212204Y0039626D01*
X0210064Y0041765D01*
X0208711Y0042326D01*
X0208567Y0042470D01*
X0208567Y0042470D01*
X0205466Y0043755D01*
X0194235Y0043755D01*
X0191134Y0042470D01*
X0190990Y0042326D01*
X0189637Y0041765D01*
X0188389Y0040518D01*
X0181428Y0040518D01*
X0181428Y0066638D01*
X0182071Y0062171D01*
X0184019Y0057905D01*
X0184019Y0057905D01*
X0187091Y0054360D01*
X0191036Y0051824D01*
X0191036Y0051824D01*
X0195537Y0050503D01*
X0215975Y0050503D01*
X0220475Y0051824D01*
X0220475Y0051824D01*
X0224421Y0054360D01*
X0224421Y0054360D01*
X0227493Y0057905D01*
X0229441Y0062171D01*
X0230109Y0066814D01*
X0229441Y0071456D01*
X0229441Y0071456D01*
X0227493Y0075723D01*
X0224421Y0079267D01*
X0224421Y0079267D01*
X0220475Y0081803D01*
X0215975Y0083125D01*
X0195537Y0083125D01*
X0191036Y0081803D01*
X0187091Y0079267D01*
X0184019Y0075723D01*
X0182071Y0071456D01*
X0181428Y0066989D01*
X0181428Y0082223D01*
X0181908Y0082703D01*
X0182928Y0085166D01*
X0182928Y0087831D01*
X0181908Y0090294D01*
X0180024Y0092179D01*
X0177561Y0093199D01*
X0172583Y0093199D01*
X0172756Y0093372D01*
X0173201Y0093983D01*
X0173544Y0094656D01*
X0173777Y0095375D01*
X0173876Y0095999D01*
X0166295Y0095999D01*
X0166295Y0096999D01*
X0165295Y0096999D01*
X0165295Y0101299D01*
X0162117Y0101299D01*
X0161371Y0101180D01*
X0160653Y0100947D01*
X0159980Y0100604D01*
X0159368Y0100160D01*
X0158834Y0099626D01*
X0158390Y0099014D01*
X0158047Y0098341D01*
X0157813Y0097623D01*
X0157715Y0096999D01*
X0165295Y0096999D01*
X0165295Y0095999D01*
X0157715Y0095999D01*
X0157813Y0095375D01*
X0158047Y0094656D01*
X0158390Y0093983D01*
X0158834Y0093372D01*
X0159007Y0093199D01*
X0147495Y0093199D01*
X0147495Y0103579D01*
X0146475Y0106042D01*
X0144591Y0107927D01*
X0142128Y0108947D01*
X0080251Y0108947D01*
X0080251Y0115390D01*
X0079231Y0117853D01*
X0077346Y0119738D01*
X0074884Y0120758D01*
X0072218Y0120758D01*
X0069756Y0119738D01*
X0067871Y0117853D01*
X0066851Y0115390D01*
X0066851Y0105010D01*
X0051975Y0105010D01*
X0051231Y0105318D01*
X0051086Y0105462D01*
X0047985Y0106747D01*
X0036755Y0106747D01*
X0033654Y0105462D01*
X0033509Y0105318D01*
X0032156Y0104757D01*
X0030017Y0102618D01*
X0028859Y0099823D01*
X0028859Y0096797D01*
X0030017Y0094002D01*
X0032156Y0091862D01*
X0033509Y0091302D01*
X0033654Y0091157D01*
X0036755Y0089873D01*
X0047985Y0089873D01*
X0051086Y0091157D01*
X0051086Y0091157D01*
X0051231Y0091302D01*
X0051975Y0091610D01*
X0079323Y0091610D01*
X0078595Y0088895D01*
X0078595Y0084103D01*
X0078595Y0084644D02*
X0007500Y0084644D01*
X0007500Y0085642D02*
X0078595Y0085642D01*
X0078595Y0086641D02*
X0007500Y0086641D01*
X0007500Y0087639D02*
X0078595Y0087639D01*
X0078595Y0088638D02*
X0007500Y0088638D01*
X0007500Y0089636D02*
X0078794Y0089636D01*
X0079062Y0090635D02*
X0049826Y0090635D01*
X0048311Y0082647D02*
X0078985Y0082647D01*
X0079253Y0081648D02*
X0051425Y0081648D01*
X0051184Y0081803D02*
X0051184Y0081803D01*
X0052979Y0080650D02*
X0079520Y0080650D01*
X0079788Y0079651D02*
X0054533Y0079651D01*
X0055130Y0079267D02*
X0055130Y0079267D01*
X0055662Y0078653D02*
X0080310Y0078653D01*
X0080886Y0077654D02*
X0056528Y0077654D01*
X0057393Y0076656D02*
X0081463Y0076656D01*
X0082039Y0075657D02*
X0058231Y0075657D01*
X0058201Y0075723D02*
X0058201Y0075723D01*
X0058687Y0074659D02*
X0082896Y0074659D01*
X0083895Y0073660D02*
X0059143Y0073660D01*
X0059599Y0072662D02*
X0084894Y0072662D01*
X0086091Y0071663D02*
X0060055Y0071663D01*
X0060264Y0070665D02*
X0087820Y0070665D01*
X0089550Y0069666D02*
X0060407Y0069666D01*
X0060551Y0068668D02*
X0093022Y0068668D01*
X0100569Y0068668D02*
X0148694Y0068668D01*
X0148306Y0068280D02*
X0148306Y0064718D01*
X0150825Y0062199D01*
X0154387Y0062199D01*
X0156906Y0064718D01*
X0156906Y0068280D01*
X0154387Y0070799D01*
X0150825Y0070799D01*
X0148306Y0068280D01*
X0148306Y0067669D02*
X0060694Y0067669D01*
X0060817Y0066814D02*
X0060817Y0066814D01*
X0060797Y0066671D02*
X0148306Y0066671D01*
X0148306Y0065672D02*
X0060653Y0065672D01*
X0060510Y0064674D02*
X0148350Y0064674D01*
X0149349Y0063675D02*
X0060366Y0063675D01*
X0060223Y0062677D02*
X0150347Y0062677D01*
X0154865Y0062677D02*
X0171028Y0062677D01*
X0171028Y0063675D02*
X0155864Y0063675D01*
X0156862Y0064674D02*
X0171028Y0064674D01*
X0171028Y0065672D02*
X0156906Y0065672D01*
X0156906Y0066671D02*
X0171028Y0066671D01*
X0171028Y0067669D02*
X0156906Y0067669D01*
X0156518Y0068668D02*
X0171028Y0068668D01*
X0171028Y0069666D02*
X0155520Y0069666D01*
X0154521Y0070665D02*
X0171028Y0070665D01*
X0171028Y0071663D02*
X0170487Y0071663D01*
X0161103Y0071663D02*
X0107500Y0071663D01*
X0108697Y0072662D02*
X0159261Y0072662D01*
X0158263Y0073660D02*
X0109696Y0073660D01*
X0110694Y0074659D02*
X0157845Y0074659D01*
X0157495Y0075657D02*
X0111552Y0075657D01*
X0112128Y0076656D02*
X0157495Y0076656D01*
X0157562Y0077654D02*
X0112705Y0077654D01*
X0113281Y0078653D02*
X0157976Y0078653D01*
X0158577Y0079651D02*
X0113803Y0079651D01*
X0114070Y0080650D02*
X0137408Y0080650D01*
X0136170Y0081648D02*
X0114338Y0081648D01*
X0114605Y0082647D02*
X0135172Y0082647D01*
X0134725Y0083645D02*
X0114873Y0083645D01*
X0114995Y0084644D02*
X0134312Y0084644D01*
X0134095Y0085642D02*
X0114995Y0085642D01*
X0114995Y0086641D02*
X0134095Y0086641D01*
X0134095Y0087639D02*
X0114995Y0087639D01*
X0114995Y0088638D02*
X0134095Y0088638D01*
X0134095Y0089636D02*
X0114797Y0089636D01*
X0114529Y0090635D02*
X0134095Y0090635D01*
X0134095Y0091633D02*
X0114261Y0091633D01*
X0113994Y0092632D02*
X0134095Y0092632D01*
X0134095Y0093630D02*
X0113693Y0093630D01*
X0113117Y0094629D02*
X0134095Y0094629D01*
X0146653Y0105613D02*
X0148506Y0105613D01*
X0148506Y0106199D02*
X0148506Y0104800D01*
X0150908Y0102399D01*
X0152306Y0102399D01*
X0152306Y0106199D01*
X0148506Y0106199D01*
X0148506Y0106799D02*
X0152306Y0106799D01*
X0152306Y0110599D01*
X0150908Y0110599D01*
X0148506Y0108197D01*
X0148506Y0106799D01*
X0148506Y0107610D02*
X0144908Y0107610D01*
X0145906Y0106611D02*
X0152306Y0106611D01*
X0152306Y0106799D02*
X0152306Y0106199D01*
X0152906Y0106199D01*
X0152906Y0102399D01*
X0154305Y0102399D01*
X0156706Y0104800D01*
X0156706Y0106199D01*
X0152906Y0106199D01*
X0152906Y0106799D01*
X0152306Y0106799D01*
X0152906Y0106799D02*
X0152906Y0110599D01*
X0154305Y0110599D01*
X0156706Y0108197D01*
X0156706Y0106799D01*
X0152906Y0106799D01*
X0152906Y0106611D02*
X0205719Y0106611D01*
X0206046Y0106747D02*
X0202945Y0105462D01*
X0202801Y0105318D01*
X0201448Y0104757D01*
X0199308Y0102618D01*
X0198150Y0099823D01*
X0198150Y0096797D01*
X0199308Y0094002D01*
X0201448Y0091862D01*
X0202801Y0091302D01*
X0202945Y0091157D01*
X0202945Y0091157D01*
X0206046Y0089873D01*
X0217277Y0089873D01*
X0220378Y0091157D01*
X0220522Y0091302D01*
X0221875Y0091862D01*
X0224015Y0094002D01*
X0225172Y0096797D01*
X0225172Y0099823D01*
X0224015Y0102618D01*
X0221875Y0104757D01*
X0220522Y0105318D01*
X0220378Y0105462D01*
X0220378Y0105462D01*
X0217277Y0106747D01*
X0215598Y0106747D01*
X0208620Y0106747D01*
X0206046Y0106747D01*
X0203308Y0105613D02*
X0156706Y0105613D01*
X0156520Y0104614D02*
X0201305Y0104614D01*
X0200306Y0103616D02*
X0155521Y0103616D01*
X0154523Y0102617D02*
X0199308Y0102617D01*
X0198894Y0101619D02*
X0147495Y0101619D01*
X0147495Y0102617D02*
X0150690Y0102617D01*
X0149691Y0103616D02*
X0147480Y0103616D01*
X0147067Y0104614D02*
X0148693Y0104614D01*
X0148918Y0108608D02*
X0142945Y0108608D01*
X0144230Y0110605D02*
X0129204Y0110605D01*
X0128557Y0109958D02*
X0130958Y0112359D01*
X0130958Y0113758D01*
X0127158Y0113758D01*
X0127158Y0109958D01*
X0128557Y0109958D01*
X0127158Y0110605D02*
X0126558Y0110605D01*
X0126558Y0109958D02*
X0126558Y0113758D01*
X0122758Y0113758D01*
X0122758Y0112359D01*
X0125160Y0109958D01*
X0126558Y0109958D01*
X0126558Y0111604D02*
X0127158Y0111604D01*
X0127158Y0112602D02*
X0126558Y0112602D01*
X0126558Y0113601D02*
X0127158Y0113601D01*
X0127158Y0113758D02*
X0126558Y0113758D01*
X0126558Y0114358D01*
X0122758Y0114358D01*
X0122758Y0115756D01*
X0125160Y0118158D01*
X0126558Y0118158D01*
X0126558Y0114358D01*
X0127158Y0114358D01*
X0127158Y0118158D01*
X0128557Y0118158D01*
X0130958Y0115756D01*
X0130958Y0114358D01*
X0127158Y0114358D01*
X0127158Y0113758D01*
X0127158Y0114599D02*
X0126558Y0114599D01*
X0126558Y0115598D02*
X0127158Y0115598D01*
X0127158Y0116596D02*
X0126558Y0116596D01*
X0126558Y0117595D02*
X0127158Y0117595D01*
X0129119Y0117595D02*
X0144314Y0117595D01*
X0145077Y0118358D02*
X0142558Y0115839D01*
X0142558Y0112277D01*
X0145077Y0109758D01*
X0148639Y0109758D01*
X0151158Y0112277D01*
X0151158Y0115839D01*
X0148639Y0118358D01*
X0145077Y0118358D01*
X0143316Y0116596D02*
X0130118Y0116596D01*
X0130958Y0115598D02*
X0142558Y0115598D01*
X0142558Y0114599D02*
X0130958Y0114599D01*
X0130958Y0113601D02*
X0142558Y0113601D01*
X0142558Y0112602D02*
X0130958Y0112602D01*
X0130202Y0111604D02*
X0143231Y0111604D01*
X0149487Y0110605D02*
X0234720Y0110605D01*
X0234720Y0109607D02*
X0155297Y0109607D01*
X0156295Y0108608D02*
X0234720Y0108608D01*
X0234720Y0107610D02*
X0156706Y0107610D01*
X0152906Y0107610D02*
X0152306Y0107610D01*
X0152306Y0108608D02*
X0152906Y0108608D01*
X0152906Y0109607D02*
X0152306Y0109607D01*
X0149916Y0109607D02*
X0115871Y0109607D01*
X0116383Y0109819D02*
X0117790Y0111225D01*
X0118551Y0113063D01*
X0118551Y0115052D01*
X0117790Y0116890D01*
X0116383Y0118297D01*
X0114546Y0119058D01*
X0112557Y0119058D01*
X0110719Y0118297D01*
X0109312Y0116890D01*
X0108551Y0115052D01*
X0108551Y0113063D01*
X0109312Y0111225D01*
X0110719Y0109819D01*
X0112557Y0109058D01*
X0114546Y0109058D01*
X0116383Y0109819D01*
X0117170Y0110605D02*
X0124513Y0110605D01*
X0123514Y0111604D02*
X0117947Y0111604D01*
X0118360Y0112602D02*
X0122758Y0112602D01*
X0122758Y0113601D02*
X0118551Y0113601D01*
X0118551Y0114599D02*
X0122758Y0114599D01*
X0122758Y0115598D02*
X0118325Y0115598D01*
X0117912Y0116596D02*
X0123599Y0116596D01*
X0124597Y0117595D02*
X0117085Y0117595D01*
X0115667Y0118593D02*
X0234720Y0118593D01*
X0234720Y0117595D02*
X0149402Y0117595D01*
X0150401Y0116596D02*
X0234720Y0116596D01*
X0234720Y0115598D02*
X0151158Y0115598D01*
X0151158Y0114599D02*
X0234720Y0114599D01*
X0234720Y0113601D02*
X0151158Y0113601D01*
X0151158Y0112602D02*
X0234720Y0112602D01*
X0234720Y0111604D02*
X0150485Y0111604D01*
X0152306Y0105613D02*
X0152906Y0105613D01*
X0152906Y0104614D02*
X0152306Y0104614D01*
X0152306Y0103616D02*
X0152906Y0103616D01*
X0152906Y0102617D02*
X0152306Y0102617D01*
X0147495Y0100620D02*
X0160011Y0100620D01*
X0158831Y0099622D02*
X0147495Y0099622D01*
X0147495Y0098623D02*
X0158191Y0098623D01*
X0157814Y0097625D02*
X0147495Y0097625D01*
X0147495Y0096626D02*
X0165295Y0096626D01*
X0165295Y0097625D02*
X0166295Y0097625D01*
X0166295Y0096999D02*
X0166295Y0101299D01*
X0169473Y0101299D01*
X0170219Y0101180D01*
X0170938Y0100947D01*
X0171611Y0100604D01*
X0172222Y0100160D01*
X0172756Y0099626D01*
X0173201Y0099014D01*
X0173544Y0098341D01*
X0173777Y0097623D01*
X0173876Y0096999D01*
X0166295Y0096999D01*
X0166295Y0096626D02*
X0198221Y0096626D01*
X0198150Y0097625D02*
X0173776Y0097625D01*
X0173400Y0098623D02*
X0198150Y0098623D01*
X0198150Y0099622D02*
X0172759Y0099622D01*
X0171579Y0100620D02*
X0198481Y0100620D01*
X0202945Y0105462D02*
X0202945Y0105462D01*
X0198635Y0095628D02*
X0173817Y0095628D01*
X0173530Y0094629D02*
X0199048Y0094629D01*
X0199679Y0093630D02*
X0172945Y0093630D01*
X0178929Y0092632D02*
X0200678Y0092632D01*
X0202000Y0091633D02*
X0180569Y0091633D01*
X0181567Y0090635D02*
X0204206Y0090635D01*
X0193910Y0082647D02*
X0181852Y0082647D01*
X0181428Y0081648D02*
X0190795Y0081648D01*
X0191036Y0081803D02*
X0191036Y0081803D01*
X0189242Y0080650D02*
X0181428Y0080650D01*
X0181428Y0079651D02*
X0187688Y0079651D01*
X0186558Y0078653D02*
X0181428Y0078653D01*
X0181428Y0077654D02*
X0185693Y0077654D01*
X0184828Y0076656D02*
X0181428Y0076656D01*
X0181428Y0075657D02*
X0183989Y0075657D01*
X0184019Y0075723D02*
X0184019Y0075723D01*
X0183533Y0074659D02*
X0181428Y0074659D01*
X0181428Y0073660D02*
X0183077Y0073660D01*
X0182621Y0072662D02*
X0181428Y0072662D01*
X0181428Y0071663D02*
X0182165Y0071663D01*
X0181957Y0070665D02*
X0181428Y0070665D01*
X0181428Y0069666D02*
X0181813Y0069666D01*
X0181670Y0068668D02*
X0181428Y0068668D01*
X0181428Y0067669D02*
X0181526Y0067669D01*
X0181567Y0065672D02*
X0181428Y0065672D01*
X0181428Y0064674D02*
X0181711Y0064674D01*
X0181854Y0063675D02*
X0181428Y0063675D01*
X0181428Y0062677D02*
X0181998Y0062677D01*
X0182071Y0062171D02*
X0182071Y0062171D01*
X0182296Y0061678D02*
X0181428Y0061678D01*
X0181428Y0060680D02*
X0182752Y0060680D01*
X0183208Y0059681D02*
X0181428Y0059681D01*
X0181428Y0058683D02*
X0183664Y0058683D01*
X0184210Y0057684D02*
X0181428Y0057684D01*
X0181428Y0056686D02*
X0185075Y0056686D01*
X0185941Y0055687D02*
X0181428Y0055687D01*
X0181428Y0054689D02*
X0186806Y0054689D01*
X0187091Y0054360D02*
X0187091Y0054360D01*
X0187091Y0054360D01*
X0188133Y0053690D02*
X0181428Y0053690D01*
X0181428Y0052692D02*
X0189687Y0052692D01*
X0191483Y0051693D02*
X0181428Y0051693D01*
X0181428Y0050695D02*
X0194883Y0050695D01*
X0194115Y0043705D02*
X0181428Y0043705D01*
X0181428Y0044703D02*
X0234720Y0044703D01*
X0234720Y0043705D02*
X0205585Y0043705D01*
X0207996Y0042706D02*
X0234720Y0042706D01*
X0234720Y0041708D02*
X0210121Y0041708D01*
X0211120Y0040709D02*
X0234720Y0040709D01*
X0234720Y0039711D02*
X0212118Y0039711D01*
X0212582Y0038712D02*
X0234720Y0038712D01*
X0234720Y0037714D02*
X0212995Y0037714D01*
X0213361Y0036715D02*
X0234720Y0036715D01*
X0234720Y0035717D02*
X0213361Y0035717D01*
X0213361Y0034718D02*
X0234720Y0034718D01*
X0234720Y0033720D02*
X0213326Y0033720D01*
X0212913Y0032721D02*
X0222303Y0032721D01*
X0220979Y0031723D02*
X0212499Y0031723D01*
X0211918Y0030724D02*
X0220241Y0030724D01*
X0219827Y0029726D02*
X0210920Y0029726D01*
X0209720Y0028727D02*
X0219709Y0028727D01*
X0219709Y0027729D02*
X0207513Y0027729D01*
X0208567Y0028165D02*
X0208567Y0028165D01*
X0220058Y0026730D02*
X0169680Y0026730D01*
X0169680Y0025732D02*
X0220537Y0025732D01*
X0221536Y0024733D02*
X0169680Y0024733D01*
X0169680Y0027729D02*
X0192187Y0027729D01*
X0189981Y0028727D02*
X0169680Y0028727D01*
X0169680Y0029726D02*
X0188781Y0029726D01*
X0188581Y0040709D02*
X0181428Y0040709D01*
X0181428Y0041708D02*
X0189579Y0041708D01*
X0191134Y0042470D02*
X0191134Y0042470D01*
X0191705Y0042706D02*
X0181428Y0042706D01*
X0181428Y0045702D02*
X0234720Y0045702D01*
X0234720Y0046700D02*
X0181428Y0046700D01*
X0181428Y0047699D02*
X0234720Y0047699D01*
X0234720Y0048697D02*
X0181428Y0048697D01*
X0181428Y0049696D02*
X0234720Y0049696D01*
X0234720Y0050695D02*
X0216629Y0050695D01*
X0220029Y0051693D02*
X0234720Y0051693D01*
X0234720Y0052692D02*
X0221825Y0052692D01*
X0223379Y0053690D02*
X0234720Y0053690D01*
X0234720Y0054689D02*
X0224706Y0054689D01*
X0225571Y0055687D02*
X0234720Y0055687D01*
X0234720Y0056686D02*
X0226436Y0056686D01*
X0227302Y0057684D02*
X0234720Y0057684D01*
X0234720Y0058683D02*
X0227848Y0058683D01*
X0227493Y0057905D02*
X0227493Y0057905D01*
X0228304Y0059681D02*
X0234720Y0059681D01*
X0234720Y0060680D02*
X0228760Y0060680D01*
X0229216Y0061678D02*
X0234720Y0061678D01*
X0234720Y0062677D02*
X0229514Y0062677D01*
X0229441Y0062171D02*
X0229441Y0062171D01*
X0229657Y0063675D02*
X0234720Y0063675D01*
X0234720Y0064674D02*
X0229801Y0064674D01*
X0229945Y0065672D02*
X0234720Y0065672D01*
X0234720Y0066671D02*
X0230088Y0066671D01*
X0230109Y0066814D02*
X0230109Y0066814D01*
X0229986Y0067669D02*
X0234720Y0067669D01*
X0234720Y0068668D02*
X0229842Y0068668D01*
X0229699Y0069666D02*
X0234720Y0069666D01*
X0234720Y0070665D02*
X0229555Y0070665D01*
X0229347Y0071663D02*
X0234720Y0071663D01*
X0234720Y0072662D02*
X0228891Y0072662D01*
X0228435Y0073660D02*
X0234720Y0073660D01*
X0234720Y0074659D02*
X0227979Y0074659D01*
X0227523Y0075657D02*
X0234720Y0075657D01*
X0234720Y0076656D02*
X0226684Y0076656D01*
X0227493Y0075723D02*
X0227493Y0075723D01*
X0225819Y0077654D02*
X0234720Y0077654D01*
X0234720Y0078653D02*
X0224954Y0078653D01*
X0224421Y0079267D02*
X0224421Y0079267D01*
X0223824Y0079651D02*
X0234720Y0079651D01*
X0234720Y0080650D02*
X0222270Y0080650D01*
X0220716Y0081648D02*
X0234720Y0081648D01*
X0234720Y0082647D02*
X0217602Y0082647D01*
X0220475Y0081803D02*
X0220475Y0081803D01*
X0219117Y0090635D02*
X0234720Y0090635D01*
X0234720Y0091633D02*
X0221323Y0091633D01*
X0220378Y0091157D02*
X0220378Y0091157D01*
X0222645Y0092632D02*
X0234720Y0092632D01*
X0234720Y0093630D02*
X0223644Y0093630D01*
X0224274Y0094629D02*
X0234720Y0094629D01*
X0234720Y0095628D02*
X0224688Y0095628D01*
X0225102Y0096626D02*
X0234720Y0096626D01*
X0234720Y0097625D02*
X0225172Y0097625D01*
X0225172Y0098623D02*
X0234720Y0098623D01*
X0234720Y0099622D02*
X0225172Y0099622D01*
X0224842Y0100620D02*
X0234720Y0100620D01*
X0234720Y0101619D02*
X0224428Y0101619D01*
X0224015Y0102617D02*
X0234720Y0102617D01*
X0234720Y0103616D02*
X0223017Y0103616D01*
X0222018Y0104614D02*
X0234720Y0104614D01*
X0234720Y0105613D02*
X0220015Y0105613D01*
X0217604Y0106611D02*
X0234720Y0106611D01*
X0234720Y0119592D02*
X0077492Y0119592D01*
X0078491Y0118593D02*
X0111435Y0118593D01*
X0110017Y0117595D02*
X0079338Y0117595D01*
X0079752Y0116596D02*
X0109191Y0116596D01*
X0108777Y0115598D02*
X0080165Y0115598D01*
X0080251Y0114599D02*
X0108551Y0114599D01*
X0108551Y0113601D02*
X0080251Y0113601D01*
X0080251Y0112602D02*
X0108742Y0112602D01*
X0109156Y0111604D02*
X0080251Y0111604D01*
X0080251Y0110605D02*
X0109933Y0110605D01*
X0111231Y0109607D02*
X0080251Y0109607D01*
X0075288Y0120590D02*
X0234720Y0120590D01*
X0234720Y0089636D02*
X0182181Y0089636D01*
X0182594Y0088638D02*
X0234720Y0088638D01*
X0234720Y0087639D02*
X0182928Y0087639D01*
X0182928Y0086641D02*
X0234720Y0086641D01*
X0234720Y0085642D02*
X0182928Y0085642D01*
X0182712Y0084644D02*
X0234720Y0084644D01*
X0234720Y0083645D02*
X0182298Y0083645D01*
X0166295Y0098623D02*
X0165295Y0098623D01*
X0165295Y0099622D02*
X0166295Y0099622D01*
X0166295Y0100620D02*
X0165295Y0100620D01*
X0157773Y0095628D02*
X0147495Y0095628D01*
X0147495Y0094629D02*
X0158061Y0094629D01*
X0158646Y0093630D02*
X0147495Y0093630D01*
X0150691Y0070665D02*
X0105770Y0070665D01*
X0104041Y0069666D02*
X0149693Y0069666D01*
X0171028Y0061678D02*
X0059925Y0061678D01*
X0060150Y0062171D02*
X0060150Y0062171D01*
X0059469Y0060680D02*
X0171028Y0060680D01*
X0171028Y0059681D02*
X0059013Y0059681D01*
X0058557Y0058683D02*
X0171028Y0058683D01*
X0171028Y0057684D02*
X0058010Y0057684D01*
X0058201Y0057905D02*
X0058201Y0057905D01*
X0057145Y0056686D02*
X0171028Y0056686D01*
X0171028Y0055687D02*
X0056280Y0055687D01*
X0055415Y0054689D02*
X0171028Y0054689D01*
X0171028Y0053690D02*
X0054088Y0053690D01*
X0055130Y0054360D02*
X0055130Y0054360D01*
X0052534Y0052692D02*
X0171028Y0052692D01*
X0171028Y0051693D02*
X0050738Y0051693D01*
X0047337Y0050695D02*
X0171028Y0050695D01*
X0171028Y0049696D02*
X0007500Y0049696D01*
X0007500Y0048697D02*
X0171028Y0048697D01*
X0171028Y0047699D02*
X0007500Y0047699D01*
X0007500Y0046700D02*
X0103141Y0046700D01*
X0100987Y0045702D02*
X0007500Y0045702D01*
X0007500Y0044703D02*
X0099556Y0044703D01*
X0106634Y0044703D02*
X0107634Y0044703D01*
X0107634Y0043705D02*
X0106634Y0043705D01*
X0106634Y0042706D02*
X0107634Y0042706D01*
X0107634Y0041708D02*
X0106634Y0041708D01*
X0106634Y0040709D02*
X0107634Y0040709D01*
X0107634Y0039711D02*
X0106634Y0039711D01*
X0106634Y0038712D02*
X0107634Y0038712D01*
X0107634Y0037714D02*
X0106634Y0037714D01*
X0106634Y0036715D02*
X0107634Y0036715D01*
X0107634Y0035818D02*
X0106634Y0035818D01*
X0106634Y0034818D01*
X0095071Y0034818D01*
X0095071Y0034640D01*
X0095223Y0033294D01*
X0095524Y0031973D01*
X0095972Y0030694D01*
X0096559Y0029473D01*
X0097280Y0028326D01*
X0098125Y0027267D01*
X0099083Y0026309D01*
X0100142Y0025464D01*
X0101290Y0024743D01*
X0102510Y0024155D01*
X0103789Y0023708D01*
X0105110Y0023406D01*
X0106456Y0023255D01*
X0106634Y0023255D01*
X0106634Y0034818D01*
X0107634Y0034818D01*
X0107634Y0035818D01*
X0107634Y0047381D01*
X0107811Y0047381D01*
X0109158Y0047229D01*
X0110479Y0046927D01*
X0111757Y0046480D01*
X0112978Y0045892D01*
X0114125Y0045171D01*
X0115185Y0044326D01*
X0116143Y0043368D01*
X0116987Y0042309D01*
X0117708Y0041162D01*
X0118296Y0039941D01*
X0118744Y0038662D01*
X0119045Y0037341D01*
X0119197Y0035995D01*
X0119197Y0035818D01*
X0107634Y0035818D01*
X0107634Y0035717D02*
X0122824Y0035717D01*
X0122824Y0036715D02*
X0119116Y0036715D01*
X0118960Y0037714D02*
X0123033Y0037714D01*
X0122824Y0036932D02*
X0122824Y0033703D01*
X0123659Y0030584D01*
X0125274Y0027788D01*
X0127557Y0025505D01*
X0130353Y0023890D01*
X0133472Y0023055D01*
X0136701Y0023055D01*
X0139820Y0023890D01*
X0142616Y0025505D01*
X0144899Y0027788D01*
X0146514Y0030584D01*
X0147350Y0033703D01*
X0147350Y0036932D01*
X0146514Y0040051D01*
X0144899Y0042847D01*
X0142616Y0045130D01*
X0139820Y0046745D01*
X0136701Y0047581D01*
X0133472Y0047581D01*
X0130353Y0046745D01*
X0127557Y0045130D01*
X0125274Y0042847D01*
X0123659Y0040051D01*
X0122824Y0036932D01*
X0123301Y0038712D02*
X0118726Y0038712D01*
X0118377Y0039711D02*
X0123568Y0039711D01*
X0124040Y0040709D02*
X0117926Y0040709D01*
X0117365Y0041708D02*
X0124616Y0041708D01*
X0125192Y0042706D02*
X0116671Y0042706D01*
X0115806Y0043705D02*
X0126131Y0043705D01*
X0127130Y0044703D02*
X0114712Y0044703D01*
X0113281Y0045702D02*
X0128547Y0045702D01*
X0130276Y0046700D02*
X0111127Y0046700D01*
X0107634Y0046700D02*
X0106634Y0046700D01*
X0106634Y0045702D02*
X0107634Y0045702D01*
X0106634Y0035717D02*
X0086195Y0035717D01*
X0087193Y0034718D02*
X0095071Y0034718D01*
X0095175Y0033720D02*
X0088192Y0033720D01*
X0089190Y0032721D02*
X0095353Y0032721D01*
X0095612Y0031723D02*
X0090189Y0031723D01*
X0090740Y0030724D02*
X0095961Y0030724D01*
X0096438Y0029726D02*
X0090740Y0029726D01*
X0090740Y0028727D02*
X0097028Y0028727D01*
X0097757Y0027729D02*
X0082240Y0027729D01*
X0082240Y0026944D02*
X0090740Y0026944D01*
X0090740Y0023716D01*
X0085468Y0018444D01*
X0082240Y0018444D01*
X0082240Y0026944D01*
X0082240Y0026730D02*
X0081240Y0026730D01*
X0081240Y0025732D02*
X0082240Y0025732D01*
X0082240Y0024733D02*
X0081240Y0024733D01*
X0081240Y0023735D02*
X0082240Y0023735D01*
X0082240Y0022736D02*
X0081240Y0022736D01*
X0081240Y0021738D02*
X0082240Y0021738D01*
X0082240Y0020739D02*
X0081240Y0020739D01*
X0081240Y0019741D02*
X0082240Y0019741D01*
X0082240Y0018742D02*
X0081240Y0018742D01*
X0085767Y0018742D02*
X0156171Y0018742D01*
X0155172Y0019741D02*
X0086765Y0019741D01*
X0087764Y0020739D02*
X0154174Y0020739D01*
X0153175Y0021738D02*
X0088762Y0021738D01*
X0089761Y0022736D02*
X0152177Y0022736D01*
X0151280Y0023735D02*
X0139239Y0023735D01*
X0141280Y0024733D02*
X0151280Y0024733D01*
X0151280Y0025732D02*
X0142843Y0025732D01*
X0143842Y0026730D02*
X0151280Y0026730D01*
X0151280Y0027729D02*
X0144840Y0027729D01*
X0145442Y0028727D02*
X0151280Y0028727D01*
X0151280Y0029726D02*
X0146018Y0029726D01*
X0146551Y0030724D02*
X0151280Y0030724D01*
X0151749Y0031723D02*
X0146819Y0031723D01*
X0147087Y0032721D02*
X0152747Y0032721D01*
X0153746Y0033720D02*
X0147350Y0033720D01*
X0147350Y0034718D02*
X0154744Y0034718D01*
X0155743Y0035717D02*
X0147350Y0035717D01*
X0147350Y0036715D02*
X0171028Y0036715D01*
X0171028Y0035717D02*
X0165218Y0035717D01*
X0166216Y0034718D02*
X0171028Y0034718D01*
X0171262Y0033720D02*
X0167215Y0033720D01*
X0168213Y0032721D02*
X0171675Y0032721D01*
X0172469Y0031723D02*
X0169212Y0031723D01*
X0169680Y0030724D02*
X0173729Y0030724D01*
X0171028Y0037714D02*
X0147140Y0037714D01*
X0146873Y0038712D02*
X0171028Y0038712D01*
X0171028Y0039711D02*
X0146605Y0039711D01*
X0146134Y0040709D02*
X0171028Y0040709D01*
X0171028Y0041708D02*
X0145557Y0041708D01*
X0144981Y0042706D02*
X0171028Y0042706D01*
X0171028Y0043705D02*
X0144042Y0043705D01*
X0143043Y0044703D02*
X0171028Y0044703D01*
X0171028Y0045702D02*
X0141626Y0045702D01*
X0139897Y0046700D02*
X0171028Y0046700D01*
X0167785Y0021738D02*
X0220994Y0021738D01*
X0220247Y0020739D02*
X0166787Y0020739D01*
X0165788Y0019741D02*
X0219833Y0019741D01*
X0219709Y0018742D02*
X0164790Y0018742D01*
X0130934Y0023735D02*
X0110556Y0023735D01*
X0110479Y0023708D02*
X0111757Y0024155D01*
X0112978Y0024743D01*
X0114125Y0025464D01*
X0115185Y0026309D01*
X0116143Y0027267D01*
X0116987Y0028326D01*
X0117708Y0029473D01*
X0118296Y0030694D01*
X0118744Y0031973D01*
X0119045Y0033294D01*
X0119197Y0034640D01*
X0119197Y0034818D01*
X0107634Y0034818D01*
X0107634Y0023255D01*
X0107811Y0023255D01*
X0109158Y0023406D01*
X0110479Y0023708D01*
X0112958Y0024733D02*
X0128893Y0024733D01*
X0127330Y0025732D02*
X0114461Y0025732D01*
X0115606Y0026730D02*
X0126331Y0026730D01*
X0125333Y0027729D02*
X0116511Y0027729D01*
X0117240Y0028727D02*
X0124731Y0028727D01*
X0124155Y0029726D02*
X0117830Y0029726D01*
X0118307Y0030724D02*
X0123622Y0030724D01*
X0123354Y0031723D02*
X0118656Y0031723D01*
X0118914Y0032721D02*
X0123087Y0032721D01*
X0122824Y0033720D02*
X0119093Y0033720D01*
X0119197Y0034718D02*
X0122824Y0034718D01*
X0107634Y0034718D02*
X0106634Y0034718D01*
X0106634Y0033720D02*
X0107634Y0033720D01*
X0107634Y0032721D02*
X0106634Y0032721D01*
X0106634Y0031723D02*
X0107634Y0031723D01*
X0107634Y0030724D02*
X0106634Y0030724D01*
X0106634Y0029726D02*
X0107634Y0029726D01*
X0107634Y0028727D02*
X0106634Y0028727D01*
X0106634Y0027729D02*
X0107634Y0027729D01*
X0107634Y0026730D02*
X0106634Y0026730D01*
X0106634Y0025732D02*
X0107634Y0025732D01*
X0107634Y0024733D02*
X0106634Y0024733D01*
X0106634Y0023735D02*
X0107634Y0023735D01*
X0103712Y0023735D02*
X0090740Y0023735D01*
X0090740Y0024733D02*
X0101310Y0024733D01*
X0099807Y0025732D02*
X0090740Y0025732D01*
X0090740Y0026730D02*
X0098662Y0026730D01*
X0024824Y0043705D02*
X0007500Y0043705D01*
X0007500Y0042706D02*
X0022413Y0042706D01*
X0020288Y0041708D02*
X0007500Y0041708D01*
X0007500Y0040709D02*
X0019290Y0040709D01*
X0018291Y0039711D02*
X0007500Y0039711D01*
X0007500Y0038712D02*
X0017828Y0038712D01*
X0017414Y0037714D02*
X0007500Y0037714D01*
X0007500Y0036715D02*
X0017048Y0036715D01*
X0017048Y0035717D02*
X0007500Y0035717D01*
X0007500Y0034718D02*
X0017048Y0034718D01*
X0017083Y0033720D02*
X0007500Y0033720D01*
X0007500Y0032721D02*
X0017497Y0032721D01*
X0017910Y0031723D02*
X0007500Y0031723D01*
X0007500Y0030724D02*
X0018491Y0030724D01*
X0019490Y0029726D02*
X0007500Y0029726D01*
X0007500Y0028727D02*
X0020690Y0028727D01*
X0021843Y0028165D02*
X0021843Y0028165D01*
X0022896Y0027729D02*
X0007500Y0027729D01*
X0007500Y0012751D02*
X0234720Y0012751D01*
X0234578Y0030724D02*
X0234720Y0030724D01*
X0234720Y0031723D02*
X0233840Y0031723D01*
X0234720Y0032721D02*
X0232516Y0032721D01*
X0071814Y0120590D02*
X0007500Y0120590D01*
X0007500Y0119592D02*
X0069610Y0119592D01*
X0068612Y0118593D02*
X0007500Y0118593D01*
X0007500Y0117595D02*
X0067764Y0117595D01*
X0067351Y0116596D02*
X0007500Y0116596D01*
X0007500Y0115598D02*
X0066937Y0115598D01*
X0066851Y0114599D02*
X0007500Y0114599D01*
X0007500Y0113601D02*
X0066851Y0113601D01*
X0066851Y0112602D02*
X0007500Y0112602D01*
X0007500Y0111604D02*
X0066851Y0111604D01*
X0066851Y0110605D02*
X0007500Y0110605D01*
X0007500Y0109607D02*
X0066851Y0109607D01*
X0066851Y0108608D02*
X0007500Y0108608D01*
X0007500Y0107610D02*
X0066851Y0107610D01*
X0066851Y0106611D02*
X0048313Y0106611D01*
X0050723Y0105613D02*
X0066851Y0105613D01*
X0051086Y0105462D02*
X0051086Y0105462D01*
X0036428Y0106611D02*
X0007500Y0106611D01*
X0007500Y0105613D02*
X0034017Y0105613D01*
X0033654Y0105462D02*
X0033654Y0105462D01*
X0032013Y0104614D02*
X0007500Y0104614D01*
X0007500Y0103616D02*
X0031015Y0103616D01*
X0030017Y0102617D02*
X0007500Y0102617D01*
X0007500Y0101619D02*
X0029603Y0101619D01*
X0029189Y0100620D02*
X0007500Y0100620D01*
X0007500Y0099622D02*
X0028859Y0099622D01*
X0028859Y0098623D02*
X0007500Y0098623D01*
X0007500Y0097625D02*
X0028859Y0097625D01*
X0028930Y0096626D02*
X0007500Y0096626D01*
X0007500Y0095628D02*
X0029343Y0095628D01*
X0029757Y0094629D02*
X0007500Y0094629D01*
X0007500Y0093630D02*
X0030388Y0093630D01*
X0031386Y0092632D02*
X0007500Y0092632D01*
X0007500Y0091633D02*
X0032708Y0091633D01*
X0033654Y0091157D02*
X0033654Y0091157D01*
X0034915Y0090635D02*
X0007500Y0090635D01*
D20*
X0042370Y0098310D02*
X0081740Y0098310D01*
X0081740Y0102247D01*
X0073551Y0102247D01*
X0073551Y0114058D01*
X0081740Y0102247D02*
X0140795Y0102247D01*
X0140795Y0086499D01*
X0165795Y0086499D01*
X0176228Y0086499D01*
D21*
X0176228Y0035318D01*
X0199850Y0035318D01*
X0203787Y0035318D01*
M02*
