%
M48
M72
T01C0.03200
T02C0.04000
T03C0.04400
T04C0.05500
T05C0.07874
T06C0.13000
T07C0.17126
%
T01
X126858Y114058
X146858Y114058
X152606Y106499
X152606Y66499
T02
X227409Y28507
X227409Y18507
T03
X73551Y114058
X113551Y114058
X165795Y96499
X165795Y86499
X165795Y76499
T04
X81740Y27444
X160480Y27444
T05
X42370Y98310
X30559Y35318
X199850Y35318
X211661Y98310
T06
X96795Y86499
T07
X107134Y35318
X135087Y35318
M30
