G75*
%MOIN*%
%OFA0B0*%
%FSLAX25Y25*%
%IPPOS*%
%LPD*%
%AMOC8*
5,1,8,0,0,1.08239X$1,22.5*
%
%ADD10C,0.00000*%
%ADD11C,0.00500*%
%ADD12C,0.00600*%
%ADD13C,0.00300*%
%ADD14C,0.01200*%
%ADD15C,0.00800*%
%ADD16R,0.02000X0.10000*%
%ADD17R,0.07500X0.03000*%
%ADD18C,0.00200*%
%ADD19C,0.00700*%
%ADD20R,0.02500X0.03000*%
%ADD21R,0.11000X0.05000*%
D10*
X0003000Y0007759D02*
X0003000Y0125869D01*
X0239220Y0125869D01*
X0239220Y0007759D01*
X0003000Y0007759D01*
X0003214Y0015409D02*
X0003227Y0015409D01*
X0003240Y0015423D01*
X0003240Y0015488D01*
X0003200Y0015488D01*
X0003187Y0015475D01*
X0003187Y0015449D01*
X0003200Y0015436D01*
X0003240Y0015436D01*
X0003260Y0015449D02*
X0003273Y0015436D01*
X0003299Y0015436D01*
X0003312Y0015449D01*
X0003312Y0015475D01*
X0003299Y0015488D01*
X0003273Y0015488D01*
X0003260Y0015475D01*
X0003260Y0015449D01*
X0003332Y0015475D02*
X0003385Y0015475D01*
X0003405Y0015488D02*
X0003405Y0015449D01*
X0003418Y0015436D01*
X0003431Y0015449D01*
X0003444Y0015436D01*
X0003457Y0015449D01*
X0003457Y0015488D01*
X0003477Y0015475D02*
X0003530Y0015475D01*
X0003550Y0015449D02*
X0003563Y0015462D01*
X0003602Y0015462D01*
X0003602Y0015475D02*
X0003602Y0015436D01*
X0003563Y0015436D01*
X0003550Y0015449D01*
X0003563Y0015488D02*
X0003589Y0015488D01*
X0003602Y0015475D01*
X0003622Y0015475D02*
X0003635Y0015488D01*
X0003675Y0015488D01*
X0003695Y0015475D02*
X0003708Y0015488D01*
X0003747Y0015488D01*
X0003767Y0015488D02*
X0003767Y0015436D01*
X0003747Y0015436D02*
X0003708Y0015436D01*
X0003695Y0015449D01*
X0003695Y0015475D01*
X0003675Y0015436D02*
X0003635Y0015436D01*
X0003622Y0015449D01*
X0003622Y0015475D01*
X0003675Y0015514D02*
X0003675Y0015436D01*
X0003747Y0015436D02*
X0003747Y0015514D01*
X0003794Y0015488D02*
X0003807Y0015488D01*
X0003794Y0015488D02*
X0003767Y0015462D01*
X0003828Y0015462D02*
X0003880Y0015462D01*
X0003880Y0015475D01*
X0003867Y0015488D01*
X0003841Y0015488D01*
X0003828Y0015475D01*
X0003828Y0015449D01*
X0003841Y0015436D01*
X0003867Y0015436D01*
X0003900Y0015436D02*
X0003940Y0015436D01*
X0003953Y0015449D01*
X0003940Y0015462D01*
X0003913Y0015462D01*
X0003900Y0015475D01*
X0003913Y0015488D01*
X0003953Y0015488D01*
X0003973Y0015475D02*
X0003986Y0015488D01*
X0004025Y0015488D01*
X0004012Y0015462D02*
X0003986Y0015462D01*
X0003973Y0015475D01*
X0003973Y0015436D02*
X0004012Y0015436D01*
X0004025Y0015449D01*
X0004012Y0015462D01*
X0004045Y0015449D02*
X0004058Y0015449D01*
X0004058Y0015436D01*
X0004045Y0015436D01*
X0004045Y0015449D01*
X0004081Y0015436D02*
X0004121Y0015436D01*
X0004134Y0015449D01*
X0004134Y0015475D01*
X0004121Y0015488D01*
X0004081Y0015488D01*
X0004081Y0015514D02*
X0004081Y0015436D01*
X0004154Y0015436D02*
X0004154Y0015488D01*
X0004167Y0015488D01*
X0004180Y0015475D01*
X0004193Y0015488D01*
X0004206Y0015475D01*
X0004206Y0015436D01*
X0004226Y0015436D02*
X0004266Y0015436D01*
X0004279Y0015449D01*
X0004279Y0015475D01*
X0004266Y0015488D01*
X0004226Y0015488D01*
X0004226Y0015409D01*
X0004180Y0015436D02*
X0004180Y0015475D01*
X0003167Y0015475D02*
X0003154Y0015488D01*
X0003128Y0015488D01*
X0003115Y0015475D01*
X0003115Y0015449D01*
X0003128Y0015436D01*
X0003154Y0015436D01*
X0003167Y0015449D01*
X0003167Y0015475D01*
X0003093Y0015436D02*
X0003066Y0015436D01*
X0003080Y0015436D02*
X0003080Y0015514D01*
X0003066Y0015514D01*
X0003033Y0015488D02*
X0003007Y0015488D01*
X0002994Y0015475D01*
X0002994Y0015449D01*
X0003007Y0015436D01*
X0003033Y0015436D01*
X0003046Y0015449D01*
X0003046Y0015475D01*
X0003033Y0015488D01*
X0002974Y0015475D02*
X0002974Y0015436D01*
X0002974Y0015475D02*
X0002961Y0015488D01*
X0002921Y0015488D01*
X0002921Y0015436D01*
X0002901Y0015449D02*
X0002901Y0015475D01*
X0002888Y0015488D01*
X0002862Y0015488D01*
X0002849Y0015475D01*
X0002849Y0015449D01*
X0002862Y0015436D01*
X0002888Y0015436D01*
X0002901Y0015449D01*
X0002829Y0015436D02*
X0002829Y0015475D01*
X0002816Y0015488D01*
X0002803Y0015475D01*
X0002803Y0015436D01*
X0002776Y0015436D02*
X0002776Y0015488D01*
X0002790Y0015488D01*
X0002803Y0015475D01*
X0002756Y0015514D02*
X0002704Y0015436D01*
X0002684Y0015449D02*
X0002684Y0015475D01*
X0002671Y0015488D01*
X0002645Y0015488D01*
X0002631Y0015475D01*
X0002631Y0015449D01*
X0002645Y0015436D01*
X0002671Y0015436D01*
X0002684Y0015449D01*
X0002611Y0015436D02*
X0002572Y0015436D01*
X0002559Y0015449D01*
X0002559Y0015475D01*
X0002572Y0015488D01*
X0002611Y0015488D01*
X0002611Y0015423D01*
X0002598Y0015409D01*
X0002585Y0015409D01*
X0002539Y0015449D02*
X0002539Y0015475D01*
X0002526Y0015488D01*
X0002500Y0015488D01*
X0002486Y0015475D01*
X0002486Y0015449D01*
X0002500Y0015436D01*
X0002526Y0015436D01*
X0002539Y0015449D01*
X0002466Y0015436D02*
X0002414Y0015436D01*
X0002414Y0015514D01*
X0002394Y0015514D02*
X0002341Y0015436D01*
X0002321Y0015436D02*
X0002282Y0015436D01*
X0002269Y0015449D01*
X0002269Y0015475D01*
X0002282Y0015488D01*
X0002321Y0015488D01*
X0002249Y0015475D02*
X0002249Y0015436D01*
X0002210Y0015436D01*
X0002196Y0015449D01*
X0002210Y0015462D01*
X0002249Y0015462D01*
X0002249Y0015475D02*
X0002236Y0015488D01*
X0002210Y0015488D01*
X0002176Y0015514D02*
X0002124Y0015514D01*
X0002102Y0015514D02*
X0002089Y0015501D01*
X0002089Y0015436D01*
X0002076Y0015475D02*
X0002102Y0015475D01*
X0002054Y0015475D02*
X0002027Y0015475D01*
X0002007Y0015475D02*
X0001994Y0015488D01*
X0001968Y0015488D01*
X0001955Y0015475D01*
X0001955Y0015449D01*
X0001968Y0015436D01*
X0001994Y0015436D01*
X0002007Y0015449D01*
X0002007Y0015475D01*
X0002040Y0015501D02*
X0002054Y0015514D01*
X0002040Y0015501D02*
X0002040Y0015436D01*
X0001935Y0015449D02*
X0001922Y0015436D01*
X0001882Y0015436D01*
X0001882Y0015514D01*
X0001922Y0015514D01*
X0001935Y0015501D01*
X0001935Y0015488D01*
X0001922Y0015475D01*
X0001882Y0015475D01*
X0001922Y0015475D02*
X0001935Y0015462D01*
X0001935Y0015449D01*
X0001862Y0015514D02*
X0001810Y0015436D01*
X0001787Y0015436D02*
X0001773Y0015436D01*
X0001773Y0015449D01*
X0001787Y0015449D01*
X0001787Y0015436D01*
X0001787Y0015475D02*
X0001773Y0015475D01*
X0001773Y0015488D01*
X0001787Y0015488D01*
X0001787Y0015475D01*
X0001754Y0015501D02*
X0001754Y0015514D01*
X0001754Y0015501D02*
X0001727Y0015475D01*
X0001727Y0015436D01*
X0001727Y0015475D02*
X0001701Y0015501D01*
X0001701Y0015514D01*
X0002150Y0015514D02*
X0002150Y0015436D01*
X0026622Y0031381D02*
X0034496Y0031381D01*
X0034620Y0031383D01*
X0034743Y0031389D01*
X0034867Y0031398D01*
X0034989Y0031412D01*
X0035112Y0031429D01*
X0035234Y0031451D01*
X0035355Y0031476D01*
X0035475Y0031505D01*
X0035594Y0031537D01*
X0035713Y0031574D01*
X0035830Y0031614D01*
X0035945Y0031657D01*
X0036060Y0031705D01*
X0036172Y0031756D01*
X0036283Y0031810D01*
X0036393Y0031868D01*
X0036500Y0031929D01*
X0036606Y0031994D01*
X0036709Y0032062D01*
X0036810Y0032133D01*
X0036909Y0032207D01*
X0037006Y0032284D01*
X0037100Y0032365D01*
X0037191Y0032448D01*
X0037280Y0032534D01*
X0037366Y0032623D01*
X0037449Y0032714D01*
X0037530Y0032808D01*
X0037607Y0032905D01*
X0037681Y0033004D01*
X0037752Y0033105D01*
X0037820Y0033208D01*
X0037885Y0033314D01*
X0037946Y0033421D01*
X0038004Y0033531D01*
X0038058Y0033642D01*
X0038109Y0033754D01*
X0038157Y0033869D01*
X0038200Y0033984D01*
X0038240Y0034101D01*
X0038277Y0034220D01*
X0038309Y0034339D01*
X0038338Y0034459D01*
X0038363Y0034580D01*
X0038385Y0034702D01*
X0038402Y0034825D01*
X0038416Y0034947D01*
X0038425Y0035071D01*
X0038431Y0035194D01*
X0038433Y0035318D01*
X0038431Y0035442D01*
X0038425Y0035565D01*
X0038416Y0035689D01*
X0038402Y0035811D01*
X0038385Y0035934D01*
X0038363Y0036056D01*
X0038338Y0036177D01*
X0038309Y0036297D01*
X0038277Y0036416D01*
X0038240Y0036535D01*
X0038200Y0036652D01*
X0038157Y0036767D01*
X0038109Y0036882D01*
X0038058Y0036994D01*
X0038004Y0037105D01*
X0037946Y0037215D01*
X0037885Y0037322D01*
X0037820Y0037428D01*
X0037752Y0037531D01*
X0037681Y0037632D01*
X0037607Y0037731D01*
X0037530Y0037828D01*
X0037449Y0037922D01*
X0037366Y0038013D01*
X0037280Y0038102D01*
X0037191Y0038188D01*
X0037100Y0038271D01*
X0037006Y0038352D01*
X0036909Y0038429D01*
X0036810Y0038503D01*
X0036709Y0038574D01*
X0036606Y0038642D01*
X0036500Y0038707D01*
X0036393Y0038768D01*
X0036283Y0038826D01*
X0036172Y0038880D01*
X0036060Y0038931D01*
X0035945Y0038979D01*
X0035830Y0039022D01*
X0035713Y0039062D01*
X0035594Y0039099D01*
X0035475Y0039131D01*
X0035355Y0039160D01*
X0035234Y0039185D01*
X0035112Y0039207D01*
X0034989Y0039224D01*
X0034867Y0039238D01*
X0034743Y0039247D01*
X0034620Y0039253D01*
X0034496Y0039255D01*
X0026622Y0039255D01*
X0026498Y0039253D01*
X0026375Y0039247D01*
X0026251Y0039238D01*
X0026129Y0039224D01*
X0026006Y0039207D01*
X0025884Y0039185D01*
X0025763Y0039160D01*
X0025643Y0039131D01*
X0025524Y0039099D01*
X0025405Y0039062D01*
X0025288Y0039022D01*
X0025173Y0038979D01*
X0025058Y0038931D01*
X0024946Y0038880D01*
X0024835Y0038826D01*
X0024725Y0038768D01*
X0024618Y0038707D01*
X0024512Y0038642D01*
X0024409Y0038574D01*
X0024308Y0038503D01*
X0024209Y0038429D01*
X0024112Y0038352D01*
X0024018Y0038271D01*
X0023927Y0038188D01*
X0023838Y0038102D01*
X0023752Y0038013D01*
X0023669Y0037922D01*
X0023588Y0037828D01*
X0023511Y0037731D01*
X0023437Y0037632D01*
X0023366Y0037531D01*
X0023298Y0037428D01*
X0023233Y0037322D01*
X0023172Y0037215D01*
X0023114Y0037105D01*
X0023060Y0036994D01*
X0023009Y0036882D01*
X0022961Y0036767D01*
X0022918Y0036652D01*
X0022878Y0036535D01*
X0022841Y0036416D01*
X0022809Y0036297D01*
X0022780Y0036177D01*
X0022755Y0036056D01*
X0022733Y0035934D01*
X0022716Y0035811D01*
X0022702Y0035689D01*
X0022693Y0035565D01*
X0022687Y0035442D01*
X0022685Y0035318D01*
X0022687Y0035194D01*
X0022693Y0035071D01*
X0022702Y0034947D01*
X0022716Y0034825D01*
X0022733Y0034702D01*
X0022755Y0034580D01*
X0022780Y0034459D01*
X0022809Y0034339D01*
X0022841Y0034220D01*
X0022878Y0034101D01*
X0022918Y0033984D01*
X0022961Y0033869D01*
X0023009Y0033754D01*
X0023060Y0033642D01*
X0023114Y0033531D01*
X0023172Y0033421D01*
X0023233Y0033314D01*
X0023298Y0033208D01*
X0023366Y0033105D01*
X0023437Y0033004D01*
X0023511Y0032905D01*
X0023588Y0032808D01*
X0023669Y0032714D01*
X0023752Y0032623D01*
X0023838Y0032534D01*
X0023927Y0032448D01*
X0024018Y0032365D01*
X0024112Y0032284D01*
X0024209Y0032207D01*
X0024308Y0032133D01*
X0024409Y0032062D01*
X0024512Y0031994D01*
X0024618Y0031929D01*
X0024725Y0031868D01*
X0024835Y0031810D01*
X0024946Y0031756D01*
X0025058Y0031705D01*
X0025173Y0031657D01*
X0025288Y0031614D01*
X0025405Y0031574D01*
X0025524Y0031537D01*
X0025643Y0031505D01*
X0025763Y0031476D01*
X0025884Y0031451D01*
X0026006Y0031429D01*
X0026129Y0031412D01*
X0026251Y0031398D01*
X0026375Y0031389D01*
X0026498Y0031383D01*
X0026622Y0031381D01*
X0028591Y0055003D02*
X0044339Y0055003D01*
X0044627Y0055007D01*
X0044914Y0055017D01*
X0045201Y0055035D01*
X0045488Y0055059D01*
X0045774Y0055090D01*
X0046059Y0055129D01*
X0046343Y0055174D01*
X0046626Y0055226D01*
X0046907Y0055286D01*
X0047187Y0055352D01*
X0047465Y0055424D01*
X0047742Y0055504D01*
X0048016Y0055590D01*
X0048288Y0055683D01*
X0048558Y0055782D01*
X0048826Y0055888D01*
X0049090Y0056001D01*
X0049352Y0056120D01*
X0049611Y0056245D01*
X0049867Y0056377D01*
X0050120Y0056514D01*
X0050369Y0056658D01*
X0050614Y0056808D01*
X0050856Y0056964D01*
X0051094Y0057125D01*
X0051328Y0057293D01*
X0051558Y0057466D01*
X0051783Y0057644D01*
X0052004Y0057828D01*
X0052221Y0058017D01*
X0052433Y0058212D01*
X0052640Y0058412D01*
X0052842Y0058616D01*
X0053039Y0058826D01*
X0053231Y0059040D01*
X0053417Y0059259D01*
X0053599Y0059482D01*
X0053775Y0059710D01*
X0053945Y0059942D01*
X0054109Y0060178D01*
X0054268Y0060417D01*
X0054421Y0060661D01*
X0054568Y0060909D01*
X0054708Y0061159D01*
X0054843Y0061414D01*
X0054971Y0061671D01*
X0055093Y0061931D01*
X0055209Y0062195D01*
X0055318Y0062461D01*
X0055421Y0062729D01*
X0055517Y0063000D01*
X0055607Y0063274D01*
X0055690Y0063549D01*
X0055766Y0063827D01*
X0055835Y0064106D01*
X0055898Y0064386D01*
X0055954Y0064669D01*
X0056002Y0064952D01*
X0056044Y0065237D01*
X0056079Y0065522D01*
X0056107Y0065808D01*
X0056128Y0066095D01*
X0056142Y0066383D01*
X0056149Y0066670D01*
X0056149Y0066958D01*
X0056142Y0067245D01*
X0056128Y0067533D01*
X0056107Y0067820D01*
X0056079Y0068106D01*
X0056044Y0068391D01*
X0056002Y0068676D01*
X0055954Y0068959D01*
X0055898Y0069242D01*
X0055835Y0069522D01*
X0055766Y0069801D01*
X0055690Y0070079D01*
X0055607Y0070354D01*
X0055517Y0070628D01*
X0055421Y0070899D01*
X0055318Y0071167D01*
X0055209Y0071433D01*
X0055093Y0071697D01*
X0054971Y0071957D01*
X0054843Y0072214D01*
X0054708Y0072469D01*
X0054568Y0072720D01*
X0054421Y0072967D01*
X0054268Y0073211D01*
X0054109Y0073450D01*
X0053945Y0073686D01*
X0053775Y0073918D01*
X0053599Y0074146D01*
X0053417Y0074369D01*
X0053231Y0074588D01*
X0053039Y0074802D01*
X0052842Y0075012D01*
X0052640Y0075216D01*
X0052433Y0075416D01*
X0052221Y0075611D01*
X0052004Y0075800D01*
X0051783Y0075984D01*
X0051558Y0076162D01*
X0051328Y0076335D01*
X0051094Y0076503D01*
X0050856Y0076664D01*
X0050614Y0076820D01*
X0050369Y0076970D01*
X0050120Y0077114D01*
X0049867Y0077251D01*
X0049611Y0077383D01*
X0049352Y0077508D01*
X0049090Y0077627D01*
X0048826Y0077740D01*
X0048558Y0077846D01*
X0048288Y0077945D01*
X0048016Y0078038D01*
X0047742Y0078124D01*
X0047465Y0078204D01*
X0047187Y0078276D01*
X0046907Y0078342D01*
X0046626Y0078402D01*
X0046343Y0078454D01*
X0046059Y0078499D01*
X0045774Y0078538D01*
X0045488Y0078569D01*
X0045201Y0078593D01*
X0044914Y0078611D01*
X0044627Y0078621D01*
X0044339Y0078625D01*
X0028591Y0078625D01*
X0028303Y0078621D01*
X0028016Y0078611D01*
X0027729Y0078593D01*
X0027442Y0078569D01*
X0027156Y0078538D01*
X0026871Y0078499D01*
X0026587Y0078454D01*
X0026304Y0078402D01*
X0026023Y0078342D01*
X0025743Y0078276D01*
X0025465Y0078204D01*
X0025188Y0078124D01*
X0024914Y0078038D01*
X0024642Y0077945D01*
X0024372Y0077846D01*
X0024104Y0077740D01*
X0023840Y0077627D01*
X0023578Y0077508D01*
X0023319Y0077383D01*
X0023063Y0077251D01*
X0022810Y0077114D01*
X0022561Y0076970D01*
X0022316Y0076820D01*
X0022074Y0076664D01*
X0021836Y0076503D01*
X0021602Y0076335D01*
X0021372Y0076162D01*
X0021147Y0075984D01*
X0020926Y0075800D01*
X0020709Y0075611D01*
X0020497Y0075416D01*
X0020290Y0075216D01*
X0020088Y0075012D01*
X0019891Y0074802D01*
X0019699Y0074588D01*
X0019513Y0074369D01*
X0019331Y0074146D01*
X0019155Y0073918D01*
X0018985Y0073686D01*
X0018821Y0073450D01*
X0018662Y0073211D01*
X0018509Y0072967D01*
X0018362Y0072719D01*
X0018222Y0072469D01*
X0018087Y0072214D01*
X0017959Y0071957D01*
X0017837Y0071697D01*
X0017721Y0071433D01*
X0017612Y0071167D01*
X0017509Y0070899D01*
X0017413Y0070628D01*
X0017323Y0070354D01*
X0017240Y0070079D01*
X0017164Y0069801D01*
X0017095Y0069522D01*
X0017032Y0069242D01*
X0016976Y0068959D01*
X0016928Y0068676D01*
X0016886Y0068391D01*
X0016851Y0068106D01*
X0016823Y0067820D01*
X0016802Y0067533D01*
X0016788Y0067245D01*
X0016781Y0066958D01*
X0016781Y0066670D01*
X0016788Y0066383D01*
X0016802Y0066095D01*
X0016823Y0065808D01*
X0016851Y0065522D01*
X0016886Y0065237D01*
X0016928Y0064952D01*
X0016976Y0064669D01*
X0017032Y0064386D01*
X0017095Y0064106D01*
X0017164Y0063827D01*
X0017240Y0063549D01*
X0017323Y0063274D01*
X0017413Y0063000D01*
X0017509Y0062729D01*
X0017612Y0062461D01*
X0017721Y0062195D01*
X0017837Y0061931D01*
X0017959Y0061671D01*
X0018087Y0061414D01*
X0018222Y0061159D01*
X0018362Y0060908D01*
X0018509Y0060661D01*
X0018662Y0060417D01*
X0018821Y0060178D01*
X0018985Y0059942D01*
X0019155Y0059710D01*
X0019331Y0059482D01*
X0019513Y0059259D01*
X0019699Y0059040D01*
X0019891Y0058826D01*
X0020088Y0058616D01*
X0020290Y0058412D01*
X0020497Y0058212D01*
X0020709Y0058017D01*
X0020926Y0057828D01*
X0021147Y0057644D01*
X0021372Y0057466D01*
X0021602Y0057293D01*
X0021836Y0057125D01*
X0022074Y0056964D01*
X0022316Y0056808D01*
X0022561Y0056658D01*
X0022810Y0056514D01*
X0023063Y0056377D01*
X0023319Y0056245D01*
X0023578Y0056120D01*
X0023840Y0056001D01*
X0024104Y0055888D01*
X0024372Y0055782D01*
X0024642Y0055683D01*
X0024914Y0055590D01*
X0025188Y0055504D01*
X0025465Y0055424D01*
X0025743Y0055352D01*
X0026023Y0055286D01*
X0026304Y0055226D01*
X0026587Y0055174D01*
X0026871Y0055129D01*
X0027156Y0055090D01*
X0027442Y0055059D01*
X0027729Y0055035D01*
X0028016Y0055017D01*
X0028303Y0055007D01*
X0028591Y0055003D01*
X0038433Y0094373D02*
X0046307Y0094373D01*
X0046431Y0094375D01*
X0046554Y0094381D01*
X0046678Y0094390D01*
X0046800Y0094404D01*
X0046923Y0094421D01*
X0047045Y0094443D01*
X0047166Y0094468D01*
X0047286Y0094497D01*
X0047405Y0094529D01*
X0047524Y0094566D01*
X0047641Y0094606D01*
X0047756Y0094649D01*
X0047871Y0094697D01*
X0047983Y0094748D01*
X0048094Y0094802D01*
X0048204Y0094860D01*
X0048311Y0094921D01*
X0048417Y0094986D01*
X0048520Y0095054D01*
X0048621Y0095125D01*
X0048720Y0095199D01*
X0048817Y0095276D01*
X0048911Y0095357D01*
X0049002Y0095440D01*
X0049091Y0095526D01*
X0049177Y0095615D01*
X0049260Y0095706D01*
X0049341Y0095800D01*
X0049418Y0095897D01*
X0049492Y0095996D01*
X0049563Y0096097D01*
X0049631Y0096200D01*
X0049696Y0096306D01*
X0049757Y0096413D01*
X0049815Y0096523D01*
X0049869Y0096634D01*
X0049920Y0096746D01*
X0049968Y0096861D01*
X0050011Y0096976D01*
X0050051Y0097093D01*
X0050088Y0097212D01*
X0050120Y0097331D01*
X0050149Y0097451D01*
X0050174Y0097572D01*
X0050196Y0097694D01*
X0050213Y0097817D01*
X0050227Y0097939D01*
X0050236Y0098063D01*
X0050242Y0098186D01*
X0050244Y0098310D01*
X0050242Y0098434D01*
X0050236Y0098557D01*
X0050227Y0098681D01*
X0050213Y0098803D01*
X0050196Y0098926D01*
X0050174Y0099048D01*
X0050149Y0099169D01*
X0050120Y0099289D01*
X0050088Y0099408D01*
X0050051Y0099527D01*
X0050011Y0099644D01*
X0049968Y0099759D01*
X0049920Y0099874D01*
X0049869Y0099986D01*
X0049815Y0100097D01*
X0049757Y0100207D01*
X0049696Y0100314D01*
X0049631Y0100420D01*
X0049563Y0100523D01*
X0049492Y0100624D01*
X0049418Y0100723D01*
X0049341Y0100820D01*
X0049260Y0100914D01*
X0049177Y0101005D01*
X0049091Y0101094D01*
X0049002Y0101180D01*
X0048911Y0101263D01*
X0048817Y0101344D01*
X0048720Y0101421D01*
X0048621Y0101495D01*
X0048520Y0101566D01*
X0048417Y0101634D01*
X0048311Y0101699D01*
X0048204Y0101760D01*
X0048094Y0101818D01*
X0047983Y0101872D01*
X0047871Y0101923D01*
X0047756Y0101971D01*
X0047641Y0102014D01*
X0047524Y0102054D01*
X0047405Y0102091D01*
X0047286Y0102123D01*
X0047166Y0102152D01*
X0047045Y0102177D01*
X0046923Y0102199D01*
X0046800Y0102216D01*
X0046678Y0102230D01*
X0046554Y0102239D01*
X0046431Y0102245D01*
X0046307Y0102247D01*
X0038433Y0102247D01*
X0038309Y0102245D01*
X0038186Y0102239D01*
X0038062Y0102230D01*
X0037940Y0102216D01*
X0037817Y0102199D01*
X0037695Y0102177D01*
X0037574Y0102152D01*
X0037454Y0102123D01*
X0037335Y0102091D01*
X0037216Y0102054D01*
X0037099Y0102014D01*
X0036984Y0101971D01*
X0036869Y0101923D01*
X0036757Y0101872D01*
X0036646Y0101818D01*
X0036536Y0101760D01*
X0036429Y0101699D01*
X0036323Y0101634D01*
X0036220Y0101566D01*
X0036119Y0101495D01*
X0036020Y0101421D01*
X0035923Y0101344D01*
X0035829Y0101263D01*
X0035738Y0101180D01*
X0035649Y0101094D01*
X0035563Y0101005D01*
X0035480Y0100914D01*
X0035399Y0100820D01*
X0035322Y0100723D01*
X0035248Y0100624D01*
X0035177Y0100523D01*
X0035109Y0100420D01*
X0035044Y0100314D01*
X0034983Y0100207D01*
X0034925Y0100097D01*
X0034871Y0099986D01*
X0034820Y0099874D01*
X0034772Y0099759D01*
X0034729Y0099644D01*
X0034689Y0099527D01*
X0034652Y0099408D01*
X0034620Y0099289D01*
X0034591Y0099169D01*
X0034566Y0099048D01*
X0034544Y0098926D01*
X0034527Y0098803D01*
X0034513Y0098681D01*
X0034504Y0098557D01*
X0034498Y0098434D01*
X0034496Y0098310D01*
X0034498Y0098186D01*
X0034504Y0098063D01*
X0034513Y0097939D01*
X0034527Y0097817D01*
X0034544Y0097694D01*
X0034566Y0097572D01*
X0034591Y0097451D01*
X0034620Y0097331D01*
X0034652Y0097212D01*
X0034689Y0097093D01*
X0034729Y0096976D01*
X0034772Y0096861D01*
X0034820Y0096746D01*
X0034871Y0096634D01*
X0034925Y0096523D01*
X0034983Y0096413D01*
X0035044Y0096306D01*
X0035109Y0096200D01*
X0035177Y0096097D01*
X0035248Y0095996D01*
X0035322Y0095897D01*
X0035399Y0095800D01*
X0035480Y0095706D01*
X0035563Y0095615D01*
X0035649Y0095526D01*
X0035738Y0095440D01*
X0035829Y0095357D01*
X0035923Y0095276D01*
X0036020Y0095199D01*
X0036119Y0095125D01*
X0036220Y0095054D01*
X0036323Y0094986D01*
X0036429Y0094921D01*
X0036536Y0094860D01*
X0036646Y0094802D01*
X0036757Y0094748D01*
X0036869Y0094697D01*
X0036984Y0094649D01*
X0037099Y0094606D01*
X0037216Y0094566D01*
X0037335Y0094529D01*
X0037454Y0094497D01*
X0037574Y0094468D01*
X0037695Y0094443D01*
X0037817Y0094421D01*
X0037940Y0094404D01*
X0038062Y0094390D01*
X0038186Y0094381D01*
X0038309Y0094375D01*
X0038433Y0094373D01*
X0090295Y0086499D02*
X0090297Y0086660D01*
X0090303Y0086820D01*
X0090313Y0086981D01*
X0090327Y0087141D01*
X0090345Y0087301D01*
X0090366Y0087460D01*
X0090392Y0087619D01*
X0090422Y0087777D01*
X0090455Y0087934D01*
X0090493Y0088091D01*
X0090534Y0088246D01*
X0090579Y0088400D01*
X0090628Y0088553D01*
X0090681Y0088705D01*
X0090737Y0088856D01*
X0090798Y0089005D01*
X0090861Y0089153D01*
X0090929Y0089299D01*
X0091000Y0089443D01*
X0091074Y0089585D01*
X0091152Y0089726D01*
X0091234Y0089864D01*
X0091319Y0090001D01*
X0091407Y0090135D01*
X0091499Y0090267D01*
X0091594Y0090397D01*
X0091692Y0090525D01*
X0091793Y0090650D01*
X0091897Y0090772D01*
X0092004Y0090892D01*
X0092114Y0091009D01*
X0092227Y0091124D01*
X0092343Y0091235D01*
X0092462Y0091344D01*
X0092583Y0091449D01*
X0092707Y0091552D01*
X0092833Y0091652D01*
X0092961Y0091748D01*
X0093092Y0091841D01*
X0093226Y0091931D01*
X0093361Y0092018D01*
X0093499Y0092101D01*
X0093638Y0092181D01*
X0093780Y0092257D01*
X0093923Y0092330D01*
X0094068Y0092399D01*
X0094215Y0092465D01*
X0094363Y0092527D01*
X0094513Y0092585D01*
X0094664Y0092640D01*
X0094817Y0092691D01*
X0094971Y0092738D01*
X0095126Y0092781D01*
X0095282Y0092820D01*
X0095438Y0092856D01*
X0095596Y0092887D01*
X0095754Y0092915D01*
X0095913Y0092939D01*
X0096073Y0092959D01*
X0096233Y0092975D01*
X0096393Y0092987D01*
X0096554Y0092995D01*
X0096715Y0092999D01*
X0096875Y0092999D01*
X0097036Y0092995D01*
X0097197Y0092987D01*
X0097357Y0092975D01*
X0097517Y0092959D01*
X0097677Y0092939D01*
X0097836Y0092915D01*
X0097994Y0092887D01*
X0098152Y0092856D01*
X0098308Y0092820D01*
X0098464Y0092781D01*
X0098619Y0092738D01*
X0098773Y0092691D01*
X0098926Y0092640D01*
X0099077Y0092585D01*
X0099227Y0092527D01*
X0099375Y0092465D01*
X0099522Y0092399D01*
X0099667Y0092330D01*
X0099810Y0092257D01*
X0099952Y0092181D01*
X0100091Y0092101D01*
X0100229Y0092018D01*
X0100364Y0091931D01*
X0100498Y0091841D01*
X0100629Y0091748D01*
X0100757Y0091652D01*
X0100883Y0091552D01*
X0101007Y0091449D01*
X0101128Y0091344D01*
X0101247Y0091235D01*
X0101363Y0091124D01*
X0101476Y0091009D01*
X0101586Y0090892D01*
X0101693Y0090772D01*
X0101797Y0090650D01*
X0101898Y0090525D01*
X0101996Y0090397D01*
X0102091Y0090267D01*
X0102183Y0090135D01*
X0102271Y0090001D01*
X0102356Y0089864D01*
X0102438Y0089726D01*
X0102516Y0089585D01*
X0102590Y0089443D01*
X0102661Y0089299D01*
X0102729Y0089153D01*
X0102792Y0089005D01*
X0102853Y0088856D01*
X0102909Y0088705D01*
X0102962Y0088553D01*
X0103011Y0088400D01*
X0103056Y0088246D01*
X0103097Y0088091D01*
X0103135Y0087934D01*
X0103168Y0087777D01*
X0103198Y0087619D01*
X0103224Y0087460D01*
X0103245Y0087301D01*
X0103263Y0087141D01*
X0103277Y0086981D01*
X0103287Y0086820D01*
X0103293Y0086660D01*
X0103295Y0086499D01*
X0103293Y0086338D01*
X0103287Y0086178D01*
X0103277Y0086017D01*
X0103263Y0085857D01*
X0103245Y0085697D01*
X0103224Y0085538D01*
X0103198Y0085379D01*
X0103168Y0085221D01*
X0103135Y0085064D01*
X0103097Y0084907D01*
X0103056Y0084752D01*
X0103011Y0084598D01*
X0102962Y0084445D01*
X0102909Y0084293D01*
X0102853Y0084142D01*
X0102792Y0083993D01*
X0102729Y0083845D01*
X0102661Y0083699D01*
X0102590Y0083555D01*
X0102516Y0083413D01*
X0102438Y0083272D01*
X0102356Y0083134D01*
X0102271Y0082997D01*
X0102183Y0082863D01*
X0102091Y0082731D01*
X0101996Y0082601D01*
X0101898Y0082473D01*
X0101797Y0082348D01*
X0101693Y0082226D01*
X0101586Y0082106D01*
X0101476Y0081989D01*
X0101363Y0081874D01*
X0101247Y0081763D01*
X0101128Y0081654D01*
X0101007Y0081549D01*
X0100883Y0081446D01*
X0100757Y0081346D01*
X0100629Y0081250D01*
X0100498Y0081157D01*
X0100364Y0081067D01*
X0100229Y0080980D01*
X0100091Y0080897D01*
X0099952Y0080817D01*
X0099810Y0080741D01*
X0099667Y0080668D01*
X0099522Y0080599D01*
X0099375Y0080533D01*
X0099227Y0080471D01*
X0099077Y0080413D01*
X0098926Y0080358D01*
X0098773Y0080307D01*
X0098619Y0080260D01*
X0098464Y0080217D01*
X0098308Y0080178D01*
X0098152Y0080142D01*
X0097994Y0080111D01*
X0097836Y0080083D01*
X0097677Y0080059D01*
X0097517Y0080039D01*
X0097357Y0080023D01*
X0097197Y0080011D01*
X0097036Y0080003D01*
X0096875Y0079999D01*
X0096715Y0079999D01*
X0096554Y0080003D01*
X0096393Y0080011D01*
X0096233Y0080023D01*
X0096073Y0080039D01*
X0095913Y0080059D01*
X0095754Y0080083D01*
X0095596Y0080111D01*
X0095438Y0080142D01*
X0095282Y0080178D01*
X0095126Y0080217D01*
X0094971Y0080260D01*
X0094817Y0080307D01*
X0094664Y0080358D01*
X0094513Y0080413D01*
X0094363Y0080471D01*
X0094215Y0080533D01*
X0094068Y0080599D01*
X0093923Y0080668D01*
X0093780Y0080741D01*
X0093638Y0080817D01*
X0093499Y0080897D01*
X0093361Y0080980D01*
X0093226Y0081067D01*
X0093092Y0081157D01*
X0092961Y0081250D01*
X0092833Y0081346D01*
X0092707Y0081446D01*
X0092583Y0081549D01*
X0092462Y0081654D01*
X0092343Y0081763D01*
X0092227Y0081874D01*
X0092114Y0081989D01*
X0092004Y0082106D01*
X0091897Y0082226D01*
X0091793Y0082348D01*
X0091692Y0082473D01*
X0091594Y0082601D01*
X0091499Y0082731D01*
X0091407Y0082863D01*
X0091319Y0082997D01*
X0091234Y0083134D01*
X0091152Y0083272D01*
X0091074Y0083413D01*
X0091000Y0083555D01*
X0090929Y0083699D01*
X0090861Y0083845D01*
X0090798Y0083993D01*
X0090737Y0084142D01*
X0090681Y0084293D01*
X0090628Y0084445D01*
X0090579Y0084598D01*
X0090534Y0084752D01*
X0090493Y0084907D01*
X0090455Y0085064D01*
X0090422Y0085221D01*
X0090392Y0085379D01*
X0090366Y0085538D01*
X0090345Y0085697D01*
X0090327Y0085857D01*
X0090313Y0086017D01*
X0090303Y0086178D01*
X0090297Y0086338D01*
X0090295Y0086499D01*
X0195913Y0039255D02*
X0203787Y0039255D01*
X0203911Y0039253D01*
X0204034Y0039247D01*
X0204158Y0039238D01*
X0204280Y0039224D01*
X0204403Y0039207D01*
X0204525Y0039185D01*
X0204646Y0039160D01*
X0204766Y0039131D01*
X0204885Y0039099D01*
X0205004Y0039062D01*
X0205121Y0039022D01*
X0205236Y0038979D01*
X0205351Y0038931D01*
X0205463Y0038880D01*
X0205574Y0038826D01*
X0205684Y0038768D01*
X0205791Y0038707D01*
X0205897Y0038642D01*
X0206000Y0038574D01*
X0206101Y0038503D01*
X0206200Y0038429D01*
X0206297Y0038352D01*
X0206391Y0038271D01*
X0206482Y0038188D01*
X0206571Y0038102D01*
X0206657Y0038013D01*
X0206740Y0037922D01*
X0206821Y0037828D01*
X0206898Y0037731D01*
X0206972Y0037632D01*
X0207043Y0037531D01*
X0207111Y0037428D01*
X0207176Y0037322D01*
X0207237Y0037215D01*
X0207295Y0037105D01*
X0207349Y0036994D01*
X0207400Y0036882D01*
X0207448Y0036767D01*
X0207491Y0036652D01*
X0207531Y0036535D01*
X0207568Y0036416D01*
X0207600Y0036297D01*
X0207629Y0036177D01*
X0207654Y0036056D01*
X0207676Y0035934D01*
X0207693Y0035811D01*
X0207707Y0035689D01*
X0207716Y0035565D01*
X0207722Y0035442D01*
X0207724Y0035318D01*
X0207722Y0035194D01*
X0207716Y0035071D01*
X0207707Y0034947D01*
X0207693Y0034825D01*
X0207676Y0034702D01*
X0207654Y0034580D01*
X0207629Y0034459D01*
X0207600Y0034339D01*
X0207568Y0034220D01*
X0207531Y0034101D01*
X0207491Y0033984D01*
X0207448Y0033869D01*
X0207400Y0033754D01*
X0207349Y0033642D01*
X0207295Y0033531D01*
X0207237Y0033421D01*
X0207176Y0033314D01*
X0207111Y0033208D01*
X0207043Y0033105D01*
X0206972Y0033004D01*
X0206898Y0032905D01*
X0206821Y0032808D01*
X0206740Y0032714D01*
X0206657Y0032623D01*
X0206571Y0032534D01*
X0206482Y0032448D01*
X0206391Y0032365D01*
X0206297Y0032284D01*
X0206200Y0032207D01*
X0206101Y0032133D01*
X0206000Y0032062D01*
X0205897Y0031994D01*
X0205791Y0031929D01*
X0205684Y0031868D01*
X0205574Y0031810D01*
X0205463Y0031756D01*
X0205351Y0031705D01*
X0205236Y0031657D01*
X0205121Y0031614D01*
X0205004Y0031574D01*
X0204885Y0031537D01*
X0204766Y0031505D01*
X0204646Y0031476D01*
X0204525Y0031451D01*
X0204403Y0031429D01*
X0204280Y0031412D01*
X0204158Y0031398D01*
X0204034Y0031389D01*
X0203911Y0031383D01*
X0203787Y0031381D01*
X0195913Y0031381D01*
X0195789Y0031383D01*
X0195666Y0031389D01*
X0195542Y0031398D01*
X0195420Y0031412D01*
X0195297Y0031429D01*
X0195175Y0031451D01*
X0195054Y0031476D01*
X0194934Y0031505D01*
X0194815Y0031537D01*
X0194696Y0031574D01*
X0194579Y0031614D01*
X0194464Y0031657D01*
X0194349Y0031705D01*
X0194237Y0031756D01*
X0194126Y0031810D01*
X0194016Y0031868D01*
X0193909Y0031929D01*
X0193803Y0031994D01*
X0193700Y0032062D01*
X0193599Y0032133D01*
X0193500Y0032207D01*
X0193403Y0032284D01*
X0193309Y0032365D01*
X0193218Y0032448D01*
X0193129Y0032534D01*
X0193043Y0032623D01*
X0192960Y0032714D01*
X0192879Y0032808D01*
X0192802Y0032905D01*
X0192728Y0033004D01*
X0192657Y0033105D01*
X0192589Y0033208D01*
X0192524Y0033314D01*
X0192463Y0033421D01*
X0192405Y0033531D01*
X0192351Y0033642D01*
X0192300Y0033754D01*
X0192252Y0033869D01*
X0192209Y0033984D01*
X0192169Y0034101D01*
X0192132Y0034220D01*
X0192100Y0034339D01*
X0192071Y0034459D01*
X0192046Y0034580D01*
X0192024Y0034702D01*
X0192007Y0034825D01*
X0191993Y0034947D01*
X0191984Y0035071D01*
X0191978Y0035194D01*
X0191976Y0035318D01*
X0191978Y0035442D01*
X0191984Y0035565D01*
X0191993Y0035689D01*
X0192007Y0035811D01*
X0192024Y0035934D01*
X0192046Y0036056D01*
X0192071Y0036177D01*
X0192100Y0036297D01*
X0192132Y0036416D01*
X0192169Y0036535D01*
X0192209Y0036652D01*
X0192252Y0036767D01*
X0192300Y0036882D01*
X0192351Y0036994D01*
X0192405Y0037105D01*
X0192463Y0037215D01*
X0192524Y0037322D01*
X0192589Y0037428D01*
X0192657Y0037531D01*
X0192728Y0037632D01*
X0192802Y0037731D01*
X0192879Y0037828D01*
X0192960Y0037922D01*
X0193043Y0038013D01*
X0193129Y0038102D01*
X0193218Y0038188D01*
X0193309Y0038271D01*
X0193403Y0038352D01*
X0193500Y0038429D01*
X0193599Y0038503D01*
X0193700Y0038574D01*
X0193803Y0038642D01*
X0193909Y0038707D01*
X0194016Y0038768D01*
X0194126Y0038826D01*
X0194237Y0038880D01*
X0194349Y0038931D01*
X0194464Y0038979D01*
X0194579Y0039022D01*
X0194696Y0039062D01*
X0194815Y0039099D01*
X0194934Y0039131D01*
X0195054Y0039160D01*
X0195175Y0039185D01*
X0195297Y0039207D01*
X0195420Y0039224D01*
X0195542Y0039238D01*
X0195666Y0039247D01*
X0195789Y0039253D01*
X0195913Y0039255D01*
X0197882Y0055003D02*
X0213630Y0055003D01*
X0213918Y0055007D01*
X0214205Y0055017D01*
X0214492Y0055035D01*
X0214779Y0055059D01*
X0215065Y0055090D01*
X0215350Y0055129D01*
X0215634Y0055174D01*
X0215917Y0055226D01*
X0216198Y0055286D01*
X0216478Y0055352D01*
X0216756Y0055424D01*
X0217033Y0055504D01*
X0217307Y0055590D01*
X0217579Y0055683D01*
X0217849Y0055782D01*
X0218117Y0055888D01*
X0218381Y0056001D01*
X0218643Y0056120D01*
X0218902Y0056245D01*
X0219158Y0056377D01*
X0219411Y0056514D01*
X0219660Y0056658D01*
X0219905Y0056808D01*
X0220147Y0056964D01*
X0220385Y0057125D01*
X0220619Y0057293D01*
X0220849Y0057466D01*
X0221074Y0057644D01*
X0221295Y0057828D01*
X0221512Y0058017D01*
X0221724Y0058212D01*
X0221931Y0058412D01*
X0222133Y0058616D01*
X0222330Y0058826D01*
X0222522Y0059040D01*
X0222708Y0059259D01*
X0222890Y0059482D01*
X0223066Y0059710D01*
X0223236Y0059942D01*
X0223400Y0060178D01*
X0223559Y0060417D01*
X0223712Y0060661D01*
X0223859Y0060909D01*
X0223999Y0061159D01*
X0224134Y0061414D01*
X0224262Y0061671D01*
X0224384Y0061931D01*
X0224500Y0062195D01*
X0224609Y0062461D01*
X0224712Y0062729D01*
X0224808Y0063000D01*
X0224898Y0063274D01*
X0224981Y0063549D01*
X0225057Y0063827D01*
X0225126Y0064106D01*
X0225189Y0064386D01*
X0225245Y0064669D01*
X0225293Y0064952D01*
X0225335Y0065237D01*
X0225370Y0065522D01*
X0225398Y0065808D01*
X0225419Y0066095D01*
X0225433Y0066383D01*
X0225440Y0066670D01*
X0225440Y0066958D01*
X0225433Y0067245D01*
X0225419Y0067533D01*
X0225398Y0067820D01*
X0225370Y0068106D01*
X0225335Y0068391D01*
X0225293Y0068676D01*
X0225245Y0068959D01*
X0225189Y0069242D01*
X0225126Y0069522D01*
X0225057Y0069801D01*
X0224981Y0070079D01*
X0224898Y0070354D01*
X0224808Y0070628D01*
X0224712Y0070899D01*
X0224609Y0071167D01*
X0224500Y0071433D01*
X0224384Y0071697D01*
X0224262Y0071957D01*
X0224134Y0072214D01*
X0223999Y0072469D01*
X0223859Y0072720D01*
X0223712Y0072967D01*
X0223559Y0073211D01*
X0223400Y0073450D01*
X0223236Y0073686D01*
X0223066Y0073918D01*
X0222890Y0074146D01*
X0222708Y0074369D01*
X0222522Y0074588D01*
X0222330Y0074802D01*
X0222133Y0075012D01*
X0221931Y0075216D01*
X0221724Y0075416D01*
X0221512Y0075611D01*
X0221295Y0075800D01*
X0221074Y0075984D01*
X0220849Y0076162D01*
X0220619Y0076335D01*
X0220385Y0076503D01*
X0220147Y0076664D01*
X0219905Y0076820D01*
X0219660Y0076970D01*
X0219411Y0077114D01*
X0219158Y0077251D01*
X0218902Y0077383D01*
X0218643Y0077508D01*
X0218381Y0077627D01*
X0218117Y0077740D01*
X0217849Y0077846D01*
X0217579Y0077945D01*
X0217307Y0078038D01*
X0217033Y0078124D01*
X0216756Y0078204D01*
X0216478Y0078276D01*
X0216198Y0078342D01*
X0215917Y0078402D01*
X0215634Y0078454D01*
X0215350Y0078499D01*
X0215065Y0078538D01*
X0214779Y0078569D01*
X0214492Y0078593D01*
X0214205Y0078611D01*
X0213918Y0078621D01*
X0213630Y0078625D01*
X0197882Y0078625D01*
X0197594Y0078621D01*
X0197307Y0078611D01*
X0197020Y0078593D01*
X0196733Y0078569D01*
X0196447Y0078538D01*
X0196162Y0078499D01*
X0195878Y0078454D01*
X0195595Y0078402D01*
X0195314Y0078342D01*
X0195034Y0078276D01*
X0194756Y0078204D01*
X0194479Y0078124D01*
X0194205Y0078038D01*
X0193933Y0077945D01*
X0193663Y0077846D01*
X0193395Y0077740D01*
X0193131Y0077627D01*
X0192869Y0077508D01*
X0192610Y0077383D01*
X0192354Y0077251D01*
X0192101Y0077114D01*
X0191852Y0076970D01*
X0191607Y0076820D01*
X0191365Y0076664D01*
X0191127Y0076503D01*
X0190893Y0076335D01*
X0190663Y0076162D01*
X0190438Y0075984D01*
X0190217Y0075800D01*
X0190000Y0075611D01*
X0189788Y0075416D01*
X0189581Y0075216D01*
X0189379Y0075012D01*
X0189182Y0074802D01*
X0188990Y0074588D01*
X0188804Y0074369D01*
X0188622Y0074146D01*
X0188446Y0073918D01*
X0188276Y0073686D01*
X0188112Y0073450D01*
X0187953Y0073211D01*
X0187800Y0072967D01*
X0187653Y0072719D01*
X0187513Y0072469D01*
X0187378Y0072214D01*
X0187250Y0071957D01*
X0187128Y0071697D01*
X0187012Y0071433D01*
X0186903Y0071167D01*
X0186800Y0070899D01*
X0186704Y0070628D01*
X0186614Y0070354D01*
X0186531Y0070079D01*
X0186455Y0069801D01*
X0186386Y0069522D01*
X0186323Y0069242D01*
X0186267Y0068959D01*
X0186219Y0068676D01*
X0186177Y0068391D01*
X0186142Y0068106D01*
X0186114Y0067820D01*
X0186093Y0067533D01*
X0186079Y0067245D01*
X0186072Y0066958D01*
X0186072Y0066670D01*
X0186079Y0066383D01*
X0186093Y0066095D01*
X0186114Y0065808D01*
X0186142Y0065522D01*
X0186177Y0065237D01*
X0186219Y0064952D01*
X0186267Y0064669D01*
X0186323Y0064386D01*
X0186386Y0064106D01*
X0186455Y0063827D01*
X0186531Y0063549D01*
X0186614Y0063274D01*
X0186704Y0063000D01*
X0186800Y0062729D01*
X0186903Y0062461D01*
X0187012Y0062195D01*
X0187128Y0061931D01*
X0187250Y0061671D01*
X0187378Y0061414D01*
X0187513Y0061159D01*
X0187653Y0060908D01*
X0187800Y0060661D01*
X0187953Y0060417D01*
X0188112Y0060178D01*
X0188276Y0059942D01*
X0188446Y0059710D01*
X0188622Y0059482D01*
X0188804Y0059259D01*
X0188990Y0059040D01*
X0189182Y0058826D01*
X0189379Y0058616D01*
X0189581Y0058412D01*
X0189788Y0058212D01*
X0190000Y0058017D01*
X0190217Y0057828D01*
X0190438Y0057644D01*
X0190663Y0057466D01*
X0190893Y0057293D01*
X0191127Y0057125D01*
X0191365Y0056964D01*
X0191607Y0056808D01*
X0191852Y0056658D01*
X0192101Y0056514D01*
X0192354Y0056377D01*
X0192610Y0056245D01*
X0192869Y0056120D01*
X0193131Y0056001D01*
X0193395Y0055888D01*
X0193663Y0055782D01*
X0193933Y0055683D01*
X0194205Y0055590D01*
X0194479Y0055504D01*
X0194756Y0055424D01*
X0195034Y0055352D01*
X0195314Y0055286D01*
X0195595Y0055226D01*
X0195878Y0055174D01*
X0196162Y0055129D01*
X0196447Y0055090D01*
X0196733Y0055059D01*
X0197020Y0055035D01*
X0197307Y0055017D01*
X0197594Y0055007D01*
X0197882Y0055003D01*
X0207724Y0094373D02*
X0215598Y0094373D01*
X0215722Y0094375D01*
X0215845Y0094381D01*
X0215969Y0094390D01*
X0216091Y0094404D01*
X0216214Y0094421D01*
X0216336Y0094443D01*
X0216457Y0094468D01*
X0216577Y0094497D01*
X0216696Y0094529D01*
X0216815Y0094566D01*
X0216932Y0094606D01*
X0217047Y0094649D01*
X0217162Y0094697D01*
X0217274Y0094748D01*
X0217385Y0094802D01*
X0217495Y0094860D01*
X0217602Y0094921D01*
X0217708Y0094986D01*
X0217811Y0095054D01*
X0217912Y0095125D01*
X0218011Y0095199D01*
X0218108Y0095276D01*
X0218202Y0095357D01*
X0218293Y0095440D01*
X0218382Y0095526D01*
X0218468Y0095615D01*
X0218551Y0095706D01*
X0218632Y0095800D01*
X0218709Y0095897D01*
X0218783Y0095996D01*
X0218854Y0096097D01*
X0218922Y0096200D01*
X0218987Y0096306D01*
X0219048Y0096413D01*
X0219106Y0096523D01*
X0219160Y0096634D01*
X0219211Y0096746D01*
X0219259Y0096861D01*
X0219302Y0096976D01*
X0219342Y0097093D01*
X0219379Y0097212D01*
X0219411Y0097331D01*
X0219440Y0097451D01*
X0219465Y0097572D01*
X0219487Y0097694D01*
X0219504Y0097817D01*
X0219518Y0097939D01*
X0219527Y0098063D01*
X0219533Y0098186D01*
X0219535Y0098310D01*
X0219533Y0098434D01*
X0219527Y0098557D01*
X0219518Y0098681D01*
X0219504Y0098803D01*
X0219487Y0098926D01*
X0219465Y0099048D01*
X0219440Y0099169D01*
X0219411Y0099289D01*
X0219379Y0099408D01*
X0219342Y0099527D01*
X0219302Y0099644D01*
X0219259Y0099759D01*
X0219211Y0099874D01*
X0219160Y0099986D01*
X0219106Y0100097D01*
X0219048Y0100207D01*
X0218987Y0100314D01*
X0218922Y0100420D01*
X0218854Y0100523D01*
X0218783Y0100624D01*
X0218709Y0100723D01*
X0218632Y0100820D01*
X0218551Y0100914D01*
X0218468Y0101005D01*
X0218382Y0101094D01*
X0218293Y0101180D01*
X0218202Y0101263D01*
X0218108Y0101344D01*
X0218011Y0101421D01*
X0217912Y0101495D01*
X0217811Y0101566D01*
X0217708Y0101634D01*
X0217602Y0101699D01*
X0217495Y0101760D01*
X0217385Y0101818D01*
X0217274Y0101872D01*
X0217162Y0101923D01*
X0217047Y0101971D01*
X0216932Y0102014D01*
X0216815Y0102054D01*
X0216696Y0102091D01*
X0216577Y0102123D01*
X0216457Y0102152D01*
X0216336Y0102177D01*
X0216214Y0102199D01*
X0216091Y0102216D01*
X0215969Y0102230D01*
X0215845Y0102239D01*
X0215722Y0102245D01*
X0215598Y0102247D01*
X0207724Y0102247D01*
X0207600Y0102245D01*
X0207477Y0102239D01*
X0207353Y0102230D01*
X0207231Y0102216D01*
X0207108Y0102199D01*
X0206986Y0102177D01*
X0206865Y0102152D01*
X0206745Y0102123D01*
X0206626Y0102091D01*
X0206507Y0102054D01*
X0206390Y0102014D01*
X0206275Y0101971D01*
X0206160Y0101923D01*
X0206048Y0101872D01*
X0205937Y0101818D01*
X0205827Y0101760D01*
X0205720Y0101699D01*
X0205614Y0101634D01*
X0205511Y0101566D01*
X0205410Y0101495D01*
X0205311Y0101421D01*
X0205214Y0101344D01*
X0205120Y0101263D01*
X0205029Y0101180D01*
X0204940Y0101094D01*
X0204854Y0101005D01*
X0204771Y0100914D01*
X0204690Y0100820D01*
X0204613Y0100723D01*
X0204539Y0100624D01*
X0204468Y0100523D01*
X0204400Y0100420D01*
X0204335Y0100314D01*
X0204274Y0100207D01*
X0204216Y0100097D01*
X0204162Y0099986D01*
X0204111Y0099874D01*
X0204063Y0099759D01*
X0204020Y0099644D01*
X0203980Y0099527D01*
X0203943Y0099408D01*
X0203911Y0099289D01*
X0203882Y0099169D01*
X0203857Y0099048D01*
X0203835Y0098926D01*
X0203818Y0098803D01*
X0203804Y0098681D01*
X0203795Y0098557D01*
X0203789Y0098434D01*
X0203787Y0098310D01*
X0203789Y0098186D01*
X0203795Y0098063D01*
X0203804Y0097939D01*
X0203818Y0097817D01*
X0203835Y0097694D01*
X0203857Y0097572D01*
X0203882Y0097451D01*
X0203911Y0097331D01*
X0203943Y0097212D01*
X0203980Y0097093D01*
X0204020Y0096976D01*
X0204063Y0096861D01*
X0204111Y0096746D01*
X0204162Y0096634D01*
X0204216Y0096523D01*
X0204274Y0096413D01*
X0204335Y0096306D01*
X0204400Y0096200D01*
X0204468Y0096097D01*
X0204539Y0095996D01*
X0204613Y0095897D01*
X0204690Y0095800D01*
X0204771Y0095706D01*
X0204854Y0095615D01*
X0204940Y0095526D01*
X0205029Y0095440D01*
X0205120Y0095357D01*
X0205214Y0095276D01*
X0205311Y0095199D01*
X0205410Y0095125D01*
X0205511Y0095054D01*
X0205614Y0094986D01*
X0205720Y0094921D01*
X0205827Y0094860D01*
X0205937Y0094802D01*
X0206048Y0094748D01*
X0206160Y0094697D01*
X0206275Y0094649D01*
X0206390Y0094606D01*
X0206507Y0094566D01*
X0206626Y0094529D01*
X0206745Y0094497D01*
X0206865Y0094468D01*
X0206986Y0094443D01*
X0207108Y0094421D01*
X0207231Y0094404D01*
X0207353Y0094390D01*
X0207477Y0094381D01*
X0207600Y0094375D01*
X0207724Y0094373D01*
D11*
X0152085Y0053585D02*
X0152085Y0017050D01*
X0101219Y0017050D01*
X0090136Y0029688D01*
X0090136Y0040948D01*
X0101219Y0053585D01*
X0152085Y0053585D01*
X0145795Y0065999D02*
X0096795Y0065999D01*
X0096795Y0069499D01*
X0090795Y0069499D01*
X0090795Y0065999D01*
X0083295Y0065999D01*
X0083295Y0106999D01*
X0090795Y0106999D01*
X0090795Y0103499D01*
X0096795Y0103499D01*
X0096795Y0106999D01*
X0145795Y0106999D01*
X0145795Y0065999D01*
X0109545Y0069249D02*
X0107277Y0069249D01*
X0106142Y0070383D01*
X0107277Y0071517D01*
X0109545Y0071517D01*
X0109545Y0072840D02*
X0109545Y0075108D01*
X0109545Y0073974D02*
X0106142Y0073974D01*
X0107277Y0072840D01*
X0107844Y0071517D02*
X0107844Y0069249D01*
X0108978Y0076431D02*
X0109545Y0076431D01*
X0108978Y0076431D02*
X0106710Y0078699D01*
X0106142Y0078699D01*
X0106142Y0076431D01*
X0108978Y0080589D02*
X0109545Y0080589D01*
X0109545Y0081156D01*
X0108978Y0081156D01*
X0108978Y0080589D01*
X0109545Y0081156D02*
X0110680Y0080022D01*
X0108978Y0082416D02*
X0109545Y0082983D01*
X0109545Y0084117D01*
X0108978Y0084685D01*
X0107844Y0084685D01*
X0107277Y0084117D01*
X0107277Y0083550D01*
X0107844Y0082416D01*
X0106142Y0082416D01*
X0106142Y0084685D01*
X0107277Y0086007D02*
X0107277Y0086574D01*
X0107844Y0087141D01*
X0107277Y0087708D01*
X0107844Y0088276D01*
X0109545Y0088276D01*
X0109545Y0087141D02*
X0107844Y0087141D01*
X0107277Y0086007D02*
X0109545Y0086007D01*
X0109545Y0089598D02*
X0107277Y0089598D01*
X0107277Y0090165D01*
X0107844Y0090732D01*
X0107277Y0091300D01*
X0107844Y0091867D01*
X0109545Y0091867D01*
X0109545Y0090732D02*
X0107844Y0090732D01*
X0089695Y0086499D02*
X0089697Y0086673D01*
X0089704Y0086847D01*
X0089714Y0087021D01*
X0089729Y0087195D01*
X0089748Y0087368D01*
X0089772Y0087541D01*
X0089800Y0087713D01*
X0089831Y0087884D01*
X0089868Y0088055D01*
X0089908Y0088224D01*
X0089952Y0088393D01*
X0090001Y0088560D01*
X0090053Y0088726D01*
X0090110Y0088891D01*
X0090171Y0089054D01*
X0090235Y0089216D01*
X0090304Y0089376D01*
X0090377Y0089535D01*
X0090453Y0089691D01*
X0090533Y0089846D01*
X0090617Y0089999D01*
X0090705Y0090149D01*
X0090797Y0090297D01*
X0090892Y0090444D01*
X0090990Y0090587D01*
X0091092Y0090728D01*
X0091198Y0090867D01*
X0091307Y0091003D01*
X0091419Y0091137D01*
X0091534Y0091267D01*
X0091653Y0091395D01*
X0091775Y0091519D01*
X0091899Y0091641D01*
X0092027Y0091760D01*
X0092157Y0091875D01*
X0092291Y0091987D01*
X0092427Y0092096D01*
X0092566Y0092202D01*
X0092707Y0092304D01*
X0092850Y0092402D01*
X0092997Y0092497D01*
X0093145Y0092589D01*
X0093295Y0092677D01*
X0093448Y0092761D01*
X0093603Y0092841D01*
X0093759Y0092917D01*
X0093918Y0092990D01*
X0094078Y0093059D01*
X0094240Y0093123D01*
X0094403Y0093184D01*
X0094568Y0093241D01*
X0094734Y0093293D01*
X0094901Y0093342D01*
X0095070Y0093386D01*
X0095239Y0093426D01*
X0095410Y0093463D01*
X0095581Y0093494D01*
X0095753Y0093522D01*
X0095926Y0093546D01*
X0096099Y0093565D01*
X0096273Y0093580D01*
X0096447Y0093590D01*
X0096621Y0093597D01*
X0096795Y0093599D01*
X0096969Y0093597D01*
X0097143Y0093590D01*
X0097317Y0093580D01*
X0097491Y0093565D01*
X0097664Y0093546D01*
X0097837Y0093522D01*
X0098009Y0093494D01*
X0098180Y0093463D01*
X0098351Y0093426D01*
X0098520Y0093386D01*
X0098689Y0093342D01*
X0098856Y0093293D01*
X0099022Y0093241D01*
X0099187Y0093184D01*
X0099350Y0093123D01*
X0099512Y0093059D01*
X0099672Y0092990D01*
X0099831Y0092917D01*
X0099987Y0092841D01*
X0100142Y0092761D01*
X0100295Y0092677D01*
X0100445Y0092589D01*
X0100593Y0092497D01*
X0100740Y0092402D01*
X0100883Y0092304D01*
X0101024Y0092202D01*
X0101163Y0092096D01*
X0101299Y0091987D01*
X0101433Y0091875D01*
X0101563Y0091760D01*
X0101691Y0091641D01*
X0101815Y0091519D01*
X0101937Y0091395D01*
X0102056Y0091267D01*
X0102171Y0091137D01*
X0102283Y0091003D01*
X0102392Y0090867D01*
X0102498Y0090728D01*
X0102600Y0090587D01*
X0102698Y0090444D01*
X0102793Y0090297D01*
X0102885Y0090149D01*
X0102973Y0089999D01*
X0103057Y0089846D01*
X0103137Y0089691D01*
X0103213Y0089535D01*
X0103286Y0089376D01*
X0103355Y0089216D01*
X0103419Y0089054D01*
X0103480Y0088891D01*
X0103537Y0088726D01*
X0103589Y0088560D01*
X0103638Y0088393D01*
X0103682Y0088224D01*
X0103722Y0088055D01*
X0103759Y0087884D01*
X0103790Y0087713D01*
X0103818Y0087541D01*
X0103842Y0087368D01*
X0103861Y0087195D01*
X0103876Y0087021D01*
X0103886Y0086847D01*
X0103893Y0086673D01*
X0103895Y0086499D01*
X0103893Y0086325D01*
X0103886Y0086151D01*
X0103876Y0085977D01*
X0103861Y0085803D01*
X0103842Y0085630D01*
X0103818Y0085457D01*
X0103790Y0085285D01*
X0103759Y0085114D01*
X0103722Y0084943D01*
X0103682Y0084774D01*
X0103638Y0084605D01*
X0103589Y0084438D01*
X0103537Y0084272D01*
X0103480Y0084107D01*
X0103419Y0083944D01*
X0103355Y0083782D01*
X0103286Y0083622D01*
X0103213Y0083463D01*
X0103137Y0083307D01*
X0103057Y0083152D01*
X0102973Y0082999D01*
X0102885Y0082849D01*
X0102793Y0082701D01*
X0102698Y0082554D01*
X0102600Y0082411D01*
X0102498Y0082270D01*
X0102392Y0082131D01*
X0102283Y0081995D01*
X0102171Y0081861D01*
X0102056Y0081731D01*
X0101937Y0081603D01*
X0101815Y0081479D01*
X0101691Y0081357D01*
X0101563Y0081238D01*
X0101433Y0081123D01*
X0101299Y0081011D01*
X0101163Y0080902D01*
X0101024Y0080796D01*
X0100883Y0080694D01*
X0100740Y0080596D01*
X0100593Y0080501D01*
X0100445Y0080409D01*
X0100295Y0080321D01*
X0100142Y0080237D01*
X0099987Y0080157D01*
X0099831Y0080081D01*
X0099672Y0080008D01*
X0099512Y0079939D01*
X0099350Y0079875D01*
X0099187Y0079814D01*
X0099022Y0079757D01*
X0098856Y0079705D01*
X0098689Y0079656D01*
X0098520Y0079612D01*
X0098351Y0079572D01*
X0098180Y0079535D01*
X0098009Y0079504D01*
X0097837Y0079476D01*
X0097664Y0079452D01*
X0097491Y0079433D01*
X0097317Y0079418D01*
X0097143Y0079408D01*
X0096969Y0079401D01*
X0096795Y0079399D01*
X0096621Y0079401D01*
X0096447Y0079408D01*
X0096273Y0079418D01*
X0096099Y0079433D01*
X0095926Y0079452D01*
X0095753Y0079476D01*
X0095581Y0079504D01*
X0095410Y0079535D01*
X0095239Y0079572D01*
X0095070Y0079612D01*
X0094901Y0079656D01*
X0094734Y0079705D01*
X0094568Y0079757D01*
X0094403Y0079814D01*
X0094240Y0079875D01*
X0094078Y0079939D01*
X0093918Y0080008D01*
X0093759Y0080081D01*
X0093603Y0080157D01*
X0093448Y0080237D01*
X0093295Y0080321D01*
X0093145Y0080409D01*
X0092997Y0080501D01*
X0092850Y0080596D01*
X0092707Y0080694D01*
X0092566Y0080796D01*
X0092427Y0080902D01*
X0092291Y0081011D01*
X0092157Y0081123D01*
X0092027Y0081238D01*
X0091899Y0081357D01*
X0091775Y0081479D01*
X0091653Y0081603D01*
X0091534Y0081731D01*
X0091419Y0081861D01*
X0091307Y0081995D01*
X0091198Y0082131D01*
X0091092Y0082270D01*
X0090990Y0082411D01*
X0090892Y0082554D01*
X0090797Y0082701D01*
X0090705Y0082849D01*
X0090617Y0082999D01*
X0090533Y0083152D01*
X0090453Y0083307D01*
X0090377Y0083463D01*
X0090304Y0083622D01*
X0090235Y0083782D01*
X0090171Y0083944D01*
X0090110Y0084107D01*
X0090053Y0084272D01*
X0090001Y0084438D01*
X0089952Y0084605D01*
X0089908Y0084774D01*
X0089868Y0084943D01*
X0089831Y0085114D01*
X0089800Y0085285D01*
X0089772Y0085457D01*
X0089748Y0085630D01*
X0089729Y0085803D01*
X0089714Y0085977D01*
X0089704Y0086151D01*
X0089697Y0086325D01*
X0089695Y0086499D01*
X0071074Y0031799D02*
X0068781Y0031799D01*
X0068208Y0031226D01*
X0068208Y0029506D01*
X0071648Y0029506D01*
X0071648Y0031226D01*
X0071074Y0031799D01*
X0071648Y0028174D02*
X0068208Y0028174D01*
X0068208Y0025881D02*
X0071648Y0028174D01*
X0071648Y0025881D02*
X0068208Y0025881D01*
X0068781Y0024549D02*
X0068208Y0023976D01*
X0068208Y0022829D01*
X0068781Y0022256D01*
X0071074Y0022256D01*
X0071648Y0022829D01*
X0071648Y0023976D01*
X0071074Y0024549D01*
X0069928Y0024549D01*
X0069928Y0023402D01*
X0170570Y0023976D02*
X0170570Y0022256D01*
X0174010Y0022256D01*
X0174010Y0023976D01*
X0173437Y0024549D01*
X0172863Y0024549D01*
X0172290Y0023976D01*
X0172290Y0022256D01*
X0172863Y0020924D02*
X0170570Y0020924D01*
X0172863Y0020924D02*
X0174010Y0019777D01*
X0172863Y0018631D01*
X0170570Y0018631D01*
X0170570Y0023976D02*
X0171143Y0024549D01*
X0171717Y0024549D01*
X0172290Y0023976D01*
X0172290Y0025881D02*
X0172290Y0028174D01*
X0171717Y0028174D02*
X0174010Y0028174D01*
X0174010Y0025881D02*
X0171717Y0025881D01*
X0170570Y0027028D01*
X0171717Y0028174D01*
X0170570Y0029506D02*
X0170570Y0031799D01*
X0170570Y0030653D02*
X0174010Y0030653D01*
X0174010Y0034278D02*
X0170570Y0034278D01*
X0170570Y0033131D02*
X0170570Y0035425D01*
X0215456Y0034942D02*
X0219959Y0034942D01*
X0219209Y0033340D02*
X0219959Y0032590D01*
X0219959Y0031088D01*
X0219209Y0030338D01*
X0216206Y0030338D01*
X0215456Y0031088D01*
X0215456Y0032590D01*
X0216206Y0033340D01*
X0217708Y0034942D02*
X0217708Y0037944D01*
X0219959Y0037944D02*
X0215456Y0037944D01*
X0215456Y0028736D02*
X0215456Y0025734D01*
X0215456Y0027235D02*
X0219959Y0027235D01*
X0219959Y0024166D02*
X0219959Y0022664D01*
X0219959Y0023415D02*
X0215456Y0023415D01*
X0215456Y0022664D02*
X0215456Y0024166D01*
X0215456Y0021063D02*
X0219959Y0021063D01*
X0218458Y0019562D01*
X0219959Y0018060D01*
X0215456Y0018060D01*
X0216206Y0016459D02*
X0215456Y0015708D01*
X0215456Y0014207D01*
X0216206Y0013457D01*
X0216957Y0013457D01*
X0217708Y0014207D01*
X0217708Y0015708D01*
X0218458Y0016459D01*
X0219209Y0016459D01*
X0219959Y0015708D01*
X0219959Y0014207D01*
X0219209Y0013457D01*
X0036203Y0197807D02*
X0035630Y0197807D01*
X0036203Y0197807D02*
X0036776Y0198380D01*
X0036776Y0201247D01*
X0038108Y0201247D02*
X0039828Y0201247D01*
X0040401Y0200673D01*
X0040401Y0199527D01*
X0039828Y0198953D01*
X0038108Y0198953D01*
X0038108Y0202393D01*
X0036776Y0198953D02*
X0035056Y0198953D01*
X0034483Y0199527D01*
X0034483Y0201247D01*
X0032640Y0202393D02*
X0032640Y0198953D01*
X0033213Y0198953D02*
X0032066Y0198953D01*
X0029588Y0200673D02*
X0028441Y0200673D01*
X0028441Y0198953D02*
X0028441Y0202393D01*
X0030734Y0202393D01*
X0032066Y0202393D02*
X0032640Y0202393D01*
X0027171Y0202393D02*
X0026024Y0202393D01*
X0026024Y0198953D01*
X0027171Y0198953D01*
X0041733Y0199527D02*
X0042307Y0200100D01*
X0044027Y0200100D01*
X0044027Y0200673D02*
X0044027Y0198953D01*
X0042307Y0198953D01*
X0041733Y0199527D01*
X0042307Y0201247D02*
X0043453Y0201247D01*
X0044027Y0200673D01*
X0045358Y0200673D02*
X0045358Y0199527D01*
X0045932Y0198953D01*
X0047652Y0198953D01*
X0048984Y0198953D02*
X0048984Y0202393D01*
X0047652Y0201247D02*
X0045932Y0201247D01*
X0045358Y0200673D01*
X0048984Y0200100D02*
X0050704Y0201247D01*
X0048984Y0200100D02*
X0050704Y0198953D01*
X0055630Y0198953D02*
X0057350Y0198953D01*
X0057923Y0199527D01*
X0057923Y0201820D01*
X0057350Y0202393D01*
X0055630Y0202393D01*
X0055630Y0198953D01*
X0059255Y0198953D02*
X0060401Y0198953D01*
X0059828Y0198953D02*
X0059828Y0201247D01*
X0059255Y0201247D01*
X0059828Y0202393D02*
X0059828Y0202967D01*
X0061672Y0200673D02*
X0062245Y0201247D01*
X0063392Y0201247D01*
X0063965Y0200673D01*
X0063965Y0199527D01*
X0063392Y0198953D01*
X0062245Y0198953D01*
X0061672Y0199527D01*
X0061672Y0200673D01*
X0065297Y0200673D02*
X0065870Y0201247D01*
X0067590Y0201247D01*
X0067590Y0202393D02*
X0067590Y0198953D01*
X0065870Y0198953D01*
X0065297Y0199527D01*
X0065297Y0200673D01*
X0068922Y0200673D02*
X0069495Y0201247D01*
X0070642Y0201247D01*
X0071215Y0200673D01*
X0071215Y0200100D01*
X0068922Y0200100D01*
X0068922Y0199527D02*
X0068922Y0200673D01*
X0068922Y0199527D02*
X0069495Y0198953D01*
X0070642Y0198953D01*
X0072547Y0198953D02*
X0073694Y0198953D01*
X0073694Y0202393D01*
X0072547Y0202393D01*
D12*
X0060098Y0120454D02*
X0061474Y0119078D01*
X0060098Y0120454D02*
X0058722Y0119078D01*
X0057124Y0119078D02*
X0055748Y0120454D01*
X0054372Y0119078D01*
X0052774Y0119078D02*
X0051398Y0120454D01*
X0050022Y0119078D01*
X0044073Y0120454D02*
X0041321Y0120454D01*
X0042697Y0120454D02*
X0042697Y0116326D01*
X0039723Y0116326D02*
X0039723Y0120454D01*
X0036971Y0120454D02*
X0039723Y0116326D01*
X0036971Y0116326D02*
X0036971Y0120454D01*
X0035373Y0119766D02*
X0035373Y0117014D01*
X0034685Y0116326D01*
X0033309Y0116326D01*
X0032621Y0117014D01*
X0032621Y0119766D01*
X0033309Y0120454D01*
X0034685Y0120454D01*
X0035373Y0119766D01*
X0031023Y0119766D02*
X0031023Y0118390D01*
X0030335Y0117702D01*
X0028271Y0117702D01*
X0028271Y0116326D02*
X0028271Y0120454D01*
X0030335Y0120454D01*
X0031023Y0119766D01*
X0029647Y0117702D02*
X0031023Y0116326D01*
X0026673Y0120454D02*
X0023921Y0120454D01*
X0023921Y0116326D01*
X0023921Y0118390D02*
X0025297Y0118390D01*
X0017972Y0119078D02*
X0016596Y0120454D01*
X0015220Y0119078D01*
X0013622Y0119078D02*
X0012246Y0120454D01*
X0010870Y0119078D01*
X0009272Y0119078D02*
X0007896Y0120454D01*
X0006520Y0119078D01*
X0072434Y0062087D02*
X0072434Y0061399D01*
X0072434Y0060023D02*
X0072434Y0057271D01*
X0071746Y0057271D02*
X0073122Y0057271D01*
X0075334Y0057959D02*
X0076022Y0057271D01*
X0075334Y0057959D02*
X0075334Y0060711D01*
X0074646Y0060023D02*
X0076022Y0060023D01*
X0077546Y0061399D02*
X0080298Y0057271D01*
X0080298Y0061399D01*
X0081896Y0059335D02*
X0082584Y0060023D01*
X0083960Y0060023D01*
X0084648Y0059335D01*
X0084648Y0058647D01*
X0081896Y0058647D01*
X0081896Y0057959D02*
X0081896Y0059335D01*
X0081896Y0057959D02*
X0082584Y0057271D01*
X0083960Y0057271D01*
X0086246Y0057271D02*
X0086246Y0060023D01*
X0086246Y0058647D02*
X0087622Y0060023D01*
X0088310Y0060023D01*
X0089871Y0059335D02*
X0091247Y0059335D01*
X0090559Y0060711D02*
X0090559Y0057271D01*
X0090559Y0060711D02*
X0091247Y0061399D01*
X0097122Y0061399D02*
X0097122Y0057271D01*
X0097122Y0059335D02*
X0098498Y0059335D01*
X0097122Y0061399D02*
X0099874Y0061399D01*
X0101472Y0061399D02*
X0101472Y0057271D01*
X0104224Y0057271D01*
X0102848Y0059335D02*
X0101472Y0059335D01*
X0101472Y0061399D02*
X0104224Y0061399D01*
X0105822Y0061399D02*
X0108574Y0061399D01*
X0107198Y0061399D02*
X0107198Y0057271D01*
X0114522Y0057271D02*
X0114522Y0061399D01*
X0115898Y0060023D01*
X0117274Y0061399D01*
X0117274Y0057271D01*
X0118873Y0057959D02*
X0119561Y0057271D01*
X0120937Y0057271D01*
X0121625Y0057959D01*
X0121625Y0059335D01*
X0120937Y0060023D01*
X0119561Y0060023D01*
X0118873Y0059335D01*
X0118873Y0057959D01*
X0123223Y0060023D02*
X0124599Y0060023D01*
X0123911Y0060711D02*
X0123911Y0057959D01*
X0124599Y0057271D01*
X0126123Y0057959D02*
X0126811Y0057271D01*
X0128187Y0057271D01*
X0128875Y0057959D01*
X0128875Y0059335D01*
X0128187Y0060023D01*
X0126811Y0060023D01*
X0126123Y0059335D01*
X0126123Y0057959D01*
X0130473Y0057271D02*
X0130473Y0060023D01*
X0130473Y0058647D02*
X0131849Y0060023D01*
X0132537Y0060023D01*
X0138448Y0059335D02*
X0140512Y0059335D01*
X0141200Y0058647D01*
X0141200Y0057959D01*
X0140512Y0057271D01*
X0138448Y0057271D01*
X0138448Y0061399D01*
X0140512Y0061399D01*
X0141200Y0060711D01*
X0141200Y0060023D01*
X0140512Y0059335D01*
X0142799Y0059335D02*
X0143486Y0060023D01*
X0144862Y0060023D01*
X0145550Y0059335D01*
X0145550Y0057959D01*
X0144862Y0057271D01*
X0143486Y0057271D01*
X0142799Y0057959D01*
X0142799Y0059335D01*
X0147149Y0057959D02*
X0147837Y0057271D01*
X0149901Y0057271D01*
X0149901Y0059335D01*
X0149213Y0060023D01*
X0147837Y0060023D01*
X0147837Y0058647D02*
X0149901Y0058647D01*
X0151499Y0058647D02*
X0152875Y0060023D01*
X0153563Y0060023D01*
X0155124Y0059335D02*
X0155812Y0060023D01*
X0157876Y0060023D01*
X0157876Y0061399D02*
X0157876Y0057271D01*
X0155812Y0057271D01*
X0155124Y0057959D01*
X0155124Y0059335D01*
X0151499Y0060023D02*
X0151499Y0057271D01*
X0147837Y0058647D02*
X0147149Y0057959D01*
X0147606Y0069499D02*
X0147546Y0069501D01*
X0147485Y0069506D01*
X0147426Y0069515D01*
X0147367Y0069528D01*
X0147308Y0069544D01*
X0147251Y0069564D01*
X0147196Y0069587D01*
X0147141Y0069614D01*
X0147089Y0069643D01*
X0147038Y0069676D01*
X0146989Y0069712D01*
X0146943Y0069750D01*
X0146899Y0069792D01*
X0146857Y0069836D01*
X0146819Y0069882D01*
X0146783Y0069931D01*
X0146750Y0069982D01*
X0146721Y0070034D01*
X0146694Y0070089D01*
X0146671Y0070144D01*
X0146651Y0070201D01*
X0146635Y0070260D01*
X0146622Y0070319D01*
X0146613Y0070378D01*
X0146608Y0070439D01*
X0146606Y0070499D01*
X0146606Y0072999D01*
X0147106Y0073499D01*
X0147106Y0099499D01*
X0146606Y0099999D01*
X0146606Y0102499D01*
X0146608Y0102559D01*
X0146613Y0102620D01*
X0146622Y0102679D01*
X0146635Y0102738D01*
X0146651Y0102797D01*
X0146671Y0102854D01*
X0146694Y0102909D01*
X0146721Y0102964D01*
X0146750Y0103016D01*
X0146783Y0103067D01*
X0146819Y0103116D01*
X0146857Y0103162D01*
X0146899Y0103206D01*
X0146943Y0103248D01*
X0146989Y0103286D01*
X0147038Y0103322D01*
X0147089Y0103355D01*
X0147141Y0103384D01*
X0147196Y0103411D01*
X0147251Y0103434D01*
X0147308Y0103454D01*
X0147367Y0103470D01*
X0147426Y0103483D01*
X0147485Y0103492D01*
X0147546Y0103497D01*
X0147606Y0103499D01*
X0143358Y0109558D02*
X0130358Y0109558D01*
X0130271Y0109560D01*
X0130184Y0109566D01*
X0130097Y0109575D01*
X0130011Y0109588D01*
X0129925Y0109605D01*
X0129840Y0109626D01*
X0129757Y0109651D01*
X0129674Y0109679D01*
X0129593Y0109710D01*
X0129513Y0109745D01*
X0129435Y0109784D01*
X0129358Y0109826D01*
X0129283Y0109871D01*
X0129211Y0109920D01*
X0129140Y0109971D01*
X0129072Y0110026D01*
X0129007Y0110083D01*
X0128944Y0110144D01*
X0128883Y0110207D01*
X0128826Y0110272D01*
X0128771Y0110340D01*
X0128720Y0110411D01*
X0128671Y0110483D01*
X0128626Y0110558D01*
X0128584Y0110635D01*
X0128545Y0110713D01*
X0128510Y0110793D01*
X0128479Y0110874D01*
X0128451Y0110957D01*
X0128426Y0111040D01*
X0128405Y0111125D01*
X0128388Y0111211D01*
X0128375Y0111297D01*
X0128366Y0111384D01*
X0128360Y0111471D01*
X0128358Y0111558D01*
X0131858Y0114058D02*
X0135558Y0114058D01*
X0138058Y0114058D02*
X0141858Y0114058D01*
X0145358Y0116558D02*
X0145356Y0116645D01*
X0145350Y0116732D01*
X0145341Y0116819D01*
X0145328Y0116905D01*
X0145311Y0116991D01*
X0145290Y0117076D01*
X0145265Y0117159D01*
X0145237Y0117242D01*
X0145206Y0117323D01*
X0145171Y0117403D01*
X0145132Y0117481D01*
X0145090Y0117558D01*
X0145045Y0117633D01*
X0144996Y0117705D01*
X0144945Y0117776D01*
X0144890Y0117844D01*
X0144833Y0117909D01*
X0144772Y0117972D01*
X0144709Y0118033D01*
X0144644Y0118090D01*
X0144576Y0118145D01*
X0144505Y0118196D01*
X0144433Y0118245D01*
X0144358Y0118290D01*
X0144281Y0118332D01*
X0144203Y0118371D01*
X0144123Y0118406D01*
X0144042Y0118437D01*
X0143959Y0118465D01*
X0143876Y0118490D01*
X0143791Y0118511D01*
X0143705Y0118528D01*
X0143619Y0118541D01*
X0143532Y0118550D01*
X0143445Y0118556D01*
X0143358Y0118558D01*
X0130358Y0118558D01*
X0130271Y0118556D01*
X0130184Y0118550D01*
X0130097Y0118541D01*
X0130011Y0118528D01*
X0129925Y0118511D01*
X0129840Y0118490D01*
X0129757Y0118465D01*
X0129674Y0118437D01*
X0129593Y0118406D01*
X0129513Y0118371D01*
X0129435Y0118332D01*
X0129358Y0118290D01*
X0129283Y0118245D01*
X0129211Y0118196D01*
X0129140Y0118145D01*
X0129072Y0118090D01*
X0129007Y0118033D01*
X0128944Y0117972D01*
X0128883Y0117909D01*
X0128826Y0117844D01*
X0128771Y0117776D01*
X0128720Y0117705D01*
X0128671Y0117633D01*
X0128626Y0117558D01*
X0128584Y0117481D01*
X0128545Y0117403D01*
X0128510Y0117323D01*
X0128479Y0117242D01*
X0128451Y0117159D01*
X0128426Y0117076D01*
X0128405Y0116991D01*
X0128388Y0116905D01*
X0128375Y0116819D01*
X0128366Y0116732D01*
X0128360Y0116645D01*
X0128358Y0116558D01*
X0143358Y0109558D02*
X0143445Y0109560D01*
X0143532Y0109566D01*
X0143619Y0109575D01*
X0143705Y0109588D01*
X0143791Y0109605D01*
X0143876Y0109626D01*
X0143959Y0109651D01*
X0144042Y0109679D01*
X0144123Y0109710D01*
X0144203Y0109745D01*
X0144281Y0109784D01*
X0144358Y0109826D01*
X0144433Y0109871D01*
X0144505Y0109920D01*
X0144576Y0109971D01*
X0144644Y0110026D01*
X0144709Y0110083D01*
X0144772Y0110144D01*
X0144833Y0110207D01*
X0144890Y0110272D01*
X0144945Y0110340D01*
X0144996Y0110411D01*
X0145045Y0110483D01*
X0145090Y0110558D01*
X0145132Y0110635D01*
X0145171Y0110713D01*
X0145206Y0110793D01*
X0145237Y0110874D01*
X0145265Y0110957D01*
X0145290Y0111040D01*
X0145311Y0111125D01*
X0145328Y0111211D01*
X0145341Y0111297D01*
X0145350Y0111384D01*
X0145356Y0111471D01*
X0145358Y0111558D01*
X0157606Y0103499D02*
X0157666Y0103497D01*
X0157727Y0103492D01*
X0157786Y0103483D01*
X0157845Y0103470D01*
X0157904Y0103454D01*
X0157961Y0103434D01*
X0158016Y0103411D01*
X0158071Y0103384D01*
X0158123Y0103355D01*
X0158174Y0103322D01*
X0158223Y0103286D01*
X0158269Y0103248D01*
X0158313Y0103206D01*
X0158355Y0103162D01*
X0158393Y0103116D01*
X0158429Y0103067D01*
X0158462Y0103016D01*
X0158491Y0102964D01*
X0158518Y0102909D01*
X0158541Y0102854D01*
X0158561Y0102797D01*
X0158577Y0102738D01*
X0158590Y0102679D01*
X0158599Y0102620D01*
X0158604Y0102559D01*
X0158606Y0102499D01*
X0158606Y0099999D01*
X0158106Y0099499D01*
X0158106Y0073499D01*
X0158606Y0072999D01*
X0158606Y0070499D01*
X0158604Y0070439D01*
X0158599Y0070378D01*
X0158590Y0070319D01*
X0158577Y0070260D01*
X0158561Y0070201D01*
X0158541Y0070144D01*
X0158518Y0070089D01*
X0158491Y0070034D01*
X0158462Y0069982D01*
X0158429Y0069931D01*
X0158393Y0069882D01*
X0158355Y0069836D01*
X0158313Y0069792D01*
X0158269Y0069750D01*
X0158223Y0069712D01*
X0158174Y0069676D01*
X0158123Y0069643D01*
X0158071Y0069614D01*
X0158016Y0069587D01*
X0157961Y0069564D01*
X0157904Y0069544D01*
X0157845Y0069528D01*
X0157786Y0069515D01*
X0157727Y0069506D01*
X0157666Y0069501D01*
X0157606Y0069499D01*
X0163824Y0060023D02*
X0165200Y0057271D01*
X0166576Y0060023D01*
X0168175Y0060711D02*
X0168862Y0061399D01*
X0170238Y0061399D01*
X0170926Y0060711D01*
X0168175Y0057959D01*
X0168862Y0057271D01*
X0170238Y0057271D01*
X0170926Y0057959D01*
X0170926Y0060711D01*
X0172525Y0057959D02*
X0173213Y0057959D01*
X0173213Y0057271D01*
X0172525Y0057271D01*
X0172525Y0057959D01*
X0174700Y0057271D02*
X0177452Y0057271D01*
X0176076Y0057271D02*
X0176076Y0061399D01*
X0174700Y0060023D01*
X0168175Y0060711D02*
X0168175Y0057959D01*
X0167980Y0034944D02*
X0165480Y0034944D01*
X0167980Y0034944D02*
X0167980Y0032444D01*
X0167980Y0022444D02*
X0167980Y0019944D01*
X0165480Y0019944D01*
X0155480Y0019944D02*
X0152980Y0019944D01*
X0152980Y0022444D01*
X0152980Y0032444D02*
X0152980Y0034944D01*
X0155480Y0034944D01*
X0131487Y0023997D02*
X0131487Y0019870D01*
X0130111Y0019870D01*
X0128512Y0020558D02*
X0127824Y0019870D01*
X0126448Y0019870D01*
X0125760Y0020558D01*
X0128512Y0023309D01*
X0128512Y0020558D01*
X0128512Y0023309D02*
X0127824Y0023997D01*
X0126448Y0023997D01*
X0125760Y0023309D01*
X0125760Y0020558D01*
X0124162Y0020558D02*
X0123474Y0019870D01*
X0122098Y0019870D01*
X0121410Y0020558D01*
X0121410Y0021934D01*
X0123474Y0021934D01*
X0124162Y0021246D01*
X0124162Y0020558D01*
X0122786Y0023309D02*
X0121410Y0021934D01*
X0122786Y0023309D02*
X0124162Y0023997D01*
X0119812Y0023997D02*
X0117060Y0023997D01*
X0118436Y0023997D02*
X0118436Y0019870D01*
X0115462Y0019870D02*
X0112710Y0023997D01*
X0111186Y0023997D02*
X0109810Y0023997D01*
X0109810Y0019870D01*
X0111186Y0019870D01*
X0112710Y0019870D02*
X0115462Y0023997D01*
X0130111Y0023997D02*
X0131487Y0023997D01*
X0089240Y0022444D02*
X0089240Y0019944D01*
X0086740Y0019944D01*
X0076740Y0019944D02*
X0074240Y0019944D01*
X0074240Y0022444D01*
X0074240Y0032444D02*
X0074240Y0034944D01*
X0076740Y0034944D01*
X0086740Y0034944D02*
X0089240Y0034944D01*
X0089240Y0032444D01*
X0077546Y0057271D02*
X0077546Y0061399D01*
X0072434Y0060023D02*
X0071746Y0060023D01*
X0070185Y0060023D02*
X0069497Y0060023D01*
X0068121Y0058647D01*
X0068121Y0057271D02*
X0068121Y0060023D01*
X0066522Y0060023D02*
X0065834Y0059335D01*
X0063770Y0059335D01*
X0063770Y0057271D02*
X0065834Y0057271D01*
X0066522Y0057959D01*
X0066522Y0058647D01*
X0065834Y0059335D01*
X0066522Y0060023D02*
X0066522Y0060711D01*
X0065834Y0061399D01*
X0063770Y0061399D01*
X0063770Y0057271D01*
X0085551Y0109058D02*
X0101551Y0109058D01*
X0101551Y0119058D01*
X0085551Y0119058D01*
X0085551Y0109058D01*
X0089551Y0111558D02*
X0093551Y0114058D01*
X0093551Y0116558D01*
X0093551Y0114058D02*
X0093551Y0111558D01*
X0093551Y0114058D02*
X0087551Y0114058D01*
X0089551Y0111558D02*
X0089551Y0116558D01*
X0093551Y0114058D01*
X0096051Y0114058D01*
X0179748Y0119078D02*
X0181124Y0120454D01*
X0182500Y0119078D01*
X0184098Y0119078D02*
X0185474Y0120454D01*
X0186850Y0119078D01*
X0188449Y0119078D02*
X0189825Y0120454D01*
X0191201Y0119078D01*
X0197149Y0118390D02*
X0198525Y0118390D01*
X0197149Y0116326D02*
X0197149Y0120454D01*
X0199901Y0120454D01*
X0201499Y0120454D02*
X0203563Y0120454D01*
X0204251Y0119766D01*
X0204251Y0118390D01*
X0203563Y0117702D01*
X0201499Y0117702D01*
X0201499Y0116326D02*
X0201499Y0120454D01*
X0202875Y0117702D02*
X0204251Y0116326D01*
X0205849Y0117014D02*
X0206537Y0116326D01*
X0207913Y0116326D01*
X0208601Y0117014D01*
X0208601Y0119766D01*
X0207913Y0120454D01*
X0206537Y0120454D01*
X0205849Y0119766D01*
X0205849Y0117014D01*
X0210199Y0116326D02*
X0210199Y0120454D01*
X0212951Y0116326D01*
X0212951Y0120454D01*
X0214550Y0120454D02*
X0217302Y0120454D01*
X0215926Y0120454D02*
X0215926Y0116326D01*
X0223250Y0119078D02*
X0224626Y0120454D01*
X0226002Y0119078D01*
X0227600Y0119078D02*
X0228976Y0120454D01*
X0230352Y0119078D01*
X0231950Y0119078D02*
X0233326Y0120454D01*
X0234702Y0119078D01*
X0229909Y0033507D02*
X0224909Y0033507D01*
X0222409Y0031007D01*
X0222409Y0026007D01*
X0224909Y0023507D01*
X0229909Y0023507D01*
X0232409Y0026007D01*
X0232409Y0031007D01*
X0229909Y0033507D01*
X0229909Y0023507D02*
X0232409Y0021007D01*
X0232409Y0016007D01*
X0229909Y0013507D01*
X0224909Y0013507D01*
X0222409Y0016007D01*
X0222409Y0021007D01*
X0224909Y0023507D01*
D13*
X0152906Y0047623D02*
X0152562Y0047279D01*
X0151874Y0047279D01*
X0151530Y0047623D01*
X0152906Y0048999D01*
X0152906Y0047623D01*
X0152906Y0048999D02*
X0152562Y0049343D01*
X0151874Y0049343D01*
X0151530Y0048999D01*
X0151530Y0047623D01*
X0150731Y0047623D02*
X0150731Y0047967D01*
X0150387Y0048311D01*
X0149355Y0048311D01*
X0149355Y0047623D01*
X0149699Y0047279D01*
X0150387Y0047279D01*
X0150731Y0047623D01*
X0150043Y0048999D02*
X0149355Y0048311D01*
X0150043Y0048999D02*
X0150731Y0049343D01*
X0148556Y0049343D02*
X0147180Y0049343D01*
X0147868Y0049343D02*
X0147868Y0047279D01*
X0146381Y0047279D02*
X0145005Y0049343D01*
X0146381Y0049343D02*
X0145005Y0047279D01*
X0142031Y0047279D02*
X0140999Y0047279D01*
X0140655Y0047623D01*
X0140655Y0048311D01*
X0140999Y0048655D01*
X0142031Y0048655D01*
X0142031Y0046935D01*
X0141687Y0046591D01*
X0141343Y0046591D01*
X0139856Y0047279D02*
X0139856Y0048311D01*
X0139512Y0048655D01*
X0138480Y0048655D01*
X0138480Y0047279D01*
X0137718Y0047279D02*
X0137030Y0047279D01*
X0137374Y0047279D02*
X0137374Y0048655D01*
X0137030Y0048655D01*
X0137374Y0049343D02*
X0137374Y0049687D01*
X0136230Y0048655D02*
X0135198Y0048655D01*
X0134854Y0048311D01*
X0135198Y0047967D01*
X0135886Y0047967D01*
X0136230Y0047623D01*
X0135886Y0047279D01*
X0134854Y0047279D01*
X0134055Y0047279D02*
X0134055Y0048655D01*
X0132679Y0048655D02*
X0132679Y0047623D01*
X0133023Y0047279D01*
X0134055Y0047279D01*
X0129742Y0047279D02*
X0129398Y0047623D01*
X0129398Y0048999D01*
X0129054Y0048655D02*
X0129742Y0048655D01*
X0128255Y0048311D02*
X0127911Y0048655D01*
X0127223Y0048655D01*
X0126879Y0048311D01*
X0126879Y0047623D01*
X0127223Y0047279D01*
X0127911Y0047279D01*
X0128255Y0047623D01*
X0128255Y0048311D01*
X0126080Y0048311D02*
X0126080Y0047279D01*
X0126080Y0048311D02*
X0125736Y0048655D01*
X0124704Y0048655D01*
X0124704Y0047279D01*
X0121767Y0048311D02*
X0121079Y0048311D01*
X0121423Y0048999D02*
X0121767Y0049343D01*
X0121423Y0048999D02*
X0121423Y0047279D01*
X0120317Y0047279D02*
X0119629Y0047279D01*
X0119973Y0047279D02*
X0119973Y0048655D01*
X0119629Y0048655D01*
X0119973Y0049343D02*
X0119973Y0049687D01*
X0116655Y0048655D02*
X0115623Y0048655D01*
X0115279Y0048311D01*
X0115623Y0047967D01*
X0116311Y0047967D01*
X0116655Y0047623D01*
X0116311Y0047279D01*
X0115279Y0047279D01*
X0114480Y0047279D02*
X0113448Y0047279D01*
X0113104Y0047623D01*
X0113104Y0048311D01*
X0113448Y0048655D01*
X0114480Y0048655D01*
X0114480Y0049343D02*
X0114480Y0047279D01*
X0112305Y0047279D02*
X0111273Y0047279D01*
X0110929Y0047623D01*
X0111273Y0047967D01*
X0112305Y0047967D01*
X0112305Y0048311D02*
X0112305Y0047279D01*
X0112305Y0048311D02*
X0111961Y0048655D01*
X0111273Y0048655D01*
X0110129Y0048311D02*
X0110129Y0047623D01*
X0109785Y0047279D01*
X0108753Y0047279D01*
X0108753Y0046591D02*
X0108753Y0048655D01*
X0109785Y0048655D01*
X0110129Y0048311D01*
X0105779Y0048311D02*
X0105435Y0048655D01*
X0104747Y0048655D01*
X0104403Y0048311D01*
X0104403Y0047623D01*
X0104747Y0047279D01*
X0105435Y0047279D01*
X0105779Y0047623D01*
X0105779Y0048311D01*
X0103641Y0048655D02*
X0102953Y0048655D01*
X0103297Y0048999D02*
X0103297Y0047623D01*
X0103641Y0047279D01*
X0099998Y0048655D02*
X0099654Y0048655D01*
X0098966Y0047967D01*
X0098966Y0047279D02*
X0098966Y0048655D01*
X0098166Y0048311D02*
X0098166Y0047967D01*
X0096791Y0047967D01*
X0096791Y0048311D02*
X0097134Y0048655D01*
X0097822Y0048655D01*
X0098166Y0048311D01*
X0097822Y0047279D02*
X0097134Y0047279D01*
X0096791Y0047623D01*
X0096791Y0048311D01*
X0095991Y0048655D02*
X0094959Y0048655D01*
X0094615Y0048311D01*
X0094615Y0047623D01*
X0094959Y0047279D01*
X0095991Y0047279D01*
X0095991Y0049343D01*
X0093509Y0049343D02*
X0093509Y0047279D01*
X0093165Y0047279D02*
X0093853Y0047279D01*
X0092366Y0047623D02*
X0092366Y0048311D01*
X0092022Y0048655D01*
X0091334Y0048655D01*
X0090990Y0048311D01*
X0090990Y0047623D01*
X0091334Y0047279D01*
X0092022Y0047279D01*
X0092366Y0047623D01*
X0093165Y0049343D02*
X0093509Y0049343D01*
X0090191Y0048999D02*
X0089847Y0049343D01*
X0089159Y0049343D01*
X0088815Y0048999D01*
X0088815Y0048655D01*
X0089159Y0048311D01*
X0089847Y0048311D01*
X0090191Y0047967D01*
X0090191Y0047623D01*
X0089847Y0047279D01*
X0089159Y0047279D01*
X0088815Y0047623D01*
D14*
X0085673Y0041090D02*
X0085673Y0035323D01*
X0154580Y0039258D02*
X0160347Y0039258D01*
X0157464Y0042142D02*
X0157464Y0036375D01*
X0138058Y0111058D02*
X0138058Y0114058D01*
X0138058Y0117058D01*
X0135558Y0117058D02*
X0135558Y0114058D01*
X0135558Y0111058D01*
D15*
X0134936Y0012407D02*
X0134936Y0006268D01*
X0131867Y0009337D02*
X0138006Y0009337D01*
X0109659Y0009337D02*
X0103520Y0009337D01*
D16*
X0099051Y0114058D03*
D17*
X0105301Y0114058D03*
X0081801Y0114058D03*
D18*
X0110795Y0104499D02*
X0110795Y0068499D01*
X0143295Y0068499D01*
X0143295Y0104499D01*
X0110795Y0104499D01*
D19*
X0124140Y0104580D02*
X0124140Y0102479D01*
X0125191Y0101428D01*
X0129394Y0101428D01*
X0125191Y0105631D01*
X0129394Y0105631D01*
X0130445Y0104580D01*
X0130445Y0102479D01*
X0129394Y0101428D01*
X0127293Y0099186D02*
X0127293Y0094982D01*
X0124140Y0098135D01*
X0130445Y0098135D01*
X0129394Y0092740D02*
X0127293Y0092740D01*
X0126242Y0091689D01*
X0126242Y0090638D01*
X0127293Y0088537D01*
X0124140Y0088537D01*
X0124140Y0092740D01*
X0129394Y0092740D02*
X0130445Y0091689D01*
X0130445Y0089588D01*
X0129394Y0088537D01*
X0127293Y0084193D02*
X0127293Y0082091D01*
X0130445Y0082091D02*
X0124140Y0082091D01*
X0124140Y0086295D01*
X0119945Y0082498D02*
X0119945Y0078294D01*
X0119945Y0080396D02*
X0113640Y0080396D01*
X0115742Y0078294D01*
X0114691Y0076052D02*
X0118894Y0076052D01*
X0119945Y0075001D01*
X0119945Y0072900D01*
X0118894Y0071849D01*
X0114691Y0071849D01*
X0113640Y0072900D01*
X0113640Y0075001D01*
X0114691Y0076052D01*
X0117843Y0073950D02*
X0119945Y0076052D01*
X0124140Y0075646D02*
X0124140Y0078798D01*
X0125191Y0079849D01*
X0127293Y0079849D01*
X0128343Y0078798D01*
X0128343Y0075646D01*
X0128343Y0077747D02*
X0130445Y0079849D01*
X0130445Y0075646D02*
X0124140Y0075646D01*
X0124140Y0073450D02*
X0124140Y0071349D01*
X0124140Y0072400D02*
X0130445Y0072400D01*
X0130445Y0073450D02*
X0130445Y0071349D01*
X0124140Y0104580D02*
X0125191Y0105631D01*
D20*
X0158045Y0096499D03*
X0158045Y0086499D03*
X0158045Y0076499D03*
D21*
X0151295Y0076499D03*
X0151295Y0086499D03*
X0151295Y0096499D03*
M02*
